<?xml version="1.0" encoding="utf-8"?>
<!-- Generator: Adobe Illustrator 23.0.2, SVG Export Plug-In . SVG Version: 6.00 Build 0)  -->
<svg version="1.1" id="Capa_1" xmlns="http://www.w3.org/2000/svg" xmlns:xlink="http://www.w3.org/1999/xlink" x="0px" y="0px"
	 viewBox="0 0 536.85 103.19" style="enable-background:new 0 0 536.85 103.19;" xml:space="preserve">
<style type="text/css">
	.st0{fill:#C14F3E;}
	.st1{fill:none;stroke:#909090;stroke-width:2;stroke-miterlimit:10;}
	.st2{fill:#909090;}
	.st3{font-family:'MyriadPro-Regular';}
	.st4{font-size:20.0862px;}
</style>
<g>
	<g>
		<g>
			<circle class="st0" cx="204.94" cy="46.99" r="4.97"/>
			<path class="st0" d="M220.26,73.86c-1.4-15.74-8.9-18.88-8.9-18.88s-7.25-4.35-14.87,1.19c-4.95,4.5-6.09,11.37-6.87,18.01
				c-0.39,3.37,4.88,3.33,5.27,0c0.47-3.96,1.13-7.94,3.1-11.33l-0.01,3.82l-0.04,18.38v14.58c0,1.57,1.15,2.84,2.76,2.84
				c1.61,0,2.92-1.27,2.92-2.84V78.8h2.58c0,4.88,0,16.03,0,20.9c0,3.4,5.27,3.4,5.27,0c0-4.88,0-9.76,0-14.64l0.22-18.41
				c0-1.76,0.01-3.32,0.01-4.42c2.1,3.45,2.8,7.55,3.28,11.63C215.38,77.19,220.66,77.23,220.26,73.86z"/>
		</g>
	</g>
</g>
<g>
	<g>
		<g>
			<circle class="st0" cx="162.62" cy="46.99" r="4.97"/>
			<path class="st0" d="M177.94,73.86c-1.4-15.74-8.9-18.88-8.9-18.88s-7.25-4.35-14.87,1.19c-4.95,4.5-6.09,11.37-6.87,18.01
				c-0.39,3.37,4.88,3.33,5.27,0c0.47-3.96,1.13-7.94,3.1-11.33l-0.01,3.82l-0.04,18.38v14.58c0,1.57,1.15,2.84,2.76,2.84
				c1.61,0,2.92-1.27,2.92-2.84V78.8h2.58c0,4.88,0,16.03,0,20.9c0,3.4,5.27,3.4,5.27,0c0-4.88,0-9.76,0-14.64l0.22-18.41
				c0-1.76,0.01-3.32,0.01-4.42c2.1,3.45,2.8,7.55,3.28,11.63C173.06,77.19,178.34,77.23,177.94,73.86z"/>
		</g>
	</g>
</g>
<g>
	<g>
		<g>
			<circle class="st0" cx="120.3" cy="46.99" r="4.97"/>
			<path class="st0" d="M135.62,73.86c-1.4-15.74-8.9-18.88-8.9-18.88s-7.25-4.35-14.87,1.19c-4.95,4.5-6.09,11.37-6.87,18.01
				c-0.39,3.37,4.88,3.33,5.27,0c0.47-3.96,1.14-7.94,3.1-11.33l-0.01,3.82l-0.04,18.38v14.58c0,1.57,1.15,2.84,2.76,2.84
				c1.61,0,2.92-1.27,2.92-2.84V78.8h2.58c0,4.88,0,16.03,0,20.9c0,3.4,5.27,3.4,5.27,0c0-4.88,0-9.76,0-14.64l0.22-18.41
				c0-1.76,0.01-3.32,0.01-4.42c2.1,3.45,2.8,7.55,3.28,11.63C130.74,77.19,136.01,77.23,135.62,73.86z"/>
		</g>
	</g>
</g>
<g>
	<g>
		<g>
			<circle class="st0" cx="77.98" cy="46.99" r="4.97"/>
			<path class="st0" d="M93.3,73.86c-1.4-15.74-8.9-18.88-8.9-18.88s-7.25-4.35-14.87,1.19c-4.95,4.5-6.09,11.37-6.87,18.01
				c-0.39,3.37,4.88,3.33,5.27,0c0.47-3.96,1.13-7.94,3.1-11.33l-0.01,3.82l-0.04,18.38v14.58c0,1.57,1.15,2.84,2.76,2.84
				c1.61,0,2.92-1.27,2.92-2.84V78.8h2.58c0,4.88,0,16.03,0,20.9c0,3.4,5.27,3.4,5.27,0c0-4.88,0-9.76,0-14.64l0.22-18.41
				c0-1.76,0.01-3.32,0.01-4.42c2.1,3.45,2.8,7.55,3.28,11.63C88.42,77.19,93.69,77.23,93.3,73.86z"/>
		</g>
	</g>
</g>
<g>
	<g>
		<g>
			<circle class="st0" cx="35.65" cy="46.99" r="4.97"/>
			<path class="st0" d="M50.98,73.86c-1.4-15.74-8.9-18.88-8.9-18.88s-7.25-4.35-14.87,1.19c-4.95,4.5-6.09,11.37-6.87,18.01
				c-0.39,3.37,4.88,3.33,5.27,0c0.47-3.96,1.14-7.94,3.1-11.33l-0.01,3.82l-0.04,18.38v14.58c0,1.57,1.15,2.84,2.76,2.84
				c1.61,0,2.92-1.27,2.92-2.84V78.8h2.58c0,4.88,0,16.03,0,20.9c0,3.4,5.27,3.4,5.27,0c0-4.88,0-9.76,0-14.64l0.22-18.41
				c0-1.76,0.01-3.32,0.01-4.42c2.1,3.45,2.8,7.55,3.28,11.63C46.1,77.19,51.37,77.23,50.98,73.86z"/>
		</g>
	</g>
</g>
<g>
	<g>
		<g>
			<circle class="st0" cx="184.63" cy="4.97" r="4.97"/>
			<path class="st0" d="M199.96,31.84c-1.4-15.74-8.9-18.88-8.9-18.88s-7.25-4.35-14.87,1.19c-4.95,4.5-6.09,11.37-6.87,18.01
				c-0.39,3.37,4.88,3.33,5.27,0c0.47-3.96,1.14-7.94,3.1-11.33l-0.01,3.82l-0.04,18.38v14.58c0,1.57,1.15,2.84,2.76,2.84
				c1.61,0,2.92-1.27,2.92-2.84V36.78h2.58c0,4.88,0,16.03,0,20.9c0,3.4,5.27,3.4,5.27,0c0-4.88,0-9.76,0-14.64l0.22-18.41
				c0-1.76,0.01-3.32,0.01-4.42c2.1,3.45,2.8,7.55,3.28,11.63C195.08,35.17,200.35,35.2,199.96,31.84z"/>
		</g>
	</g>
</g>
<g>
	<g>
		<g>
			<circle class="st0" cx="142.31" cy="4.97" r="4.97"/>
			<path class="st0" d="M157.63,31.84c-1.4-15.74-8.9-18.88-8.9-18.88s-7.25-4.35-14.87,1.19c-4.95,4.5-6.09,11.37-6.87,18.01
				c-0.39,3.37,4.88,3.33,5.27,0c0.47-3.96,1.13-7.94,3.1-11.33l-0.01,3.82l-0.04,18.38v14.58c0,1.57,1.15,2.84,2.76,2.84
				c1.61,0,2.92-1.27,2.92-2.84V36.78h2.58c0,4.88,0,16.03,0,20.9c0,3.4,5.27,3.4,5.27,0c0-4.88,0-9.76,0-14.64l0.22-18.41
				c0-1.76,0.01-3.32,0.01-4.42c2.1,3.45,2.8,7.55,3.28,11.63C152.75,35.17,158.03,35.2,157.63,31.84z"/>
		</g>
	</g>
</g>
<g>
	<g>
		<g>
			<circle class="st0" cx="99.99" cy="4.97" r="4.97"/>
			<path class="st0" d="M115.31,31.84c-1.4-15.74-8.9-18.88-8.9-18.88s-7.25-4.35-14.87,1.19c-4.95,4.5-6.09,11.37-6.87,18.01
				c-0.39,3.37,4.88,3.33,5.27,0c0.47-3.96,1.14-7.94,3.1-11.33l-0.01,3.82l-0.04,18.38v14.58c0,1.57,1.15,2.84,2.76,2.84
				c1.61,0,2.92-1.27,2.92-2.84V36.78h2.58c0,4.88,0,16.03,0,20.9c0,3.4,5.27,3.4,5.27,0c0-4.88,0-9.76,0-14.64l0.22-18.41
				c0-1.76,0.01-3.32,0.01-4.42c2.1,3.45,2.8,7.55,3.28,11.63C110.43,35.17,115.71,35.2,115.31,31.84z"/>
		</g>
	</g>
</g>
<g>
	<g>
		<g>
			<circle class="st0" cx="57.67" cy="4.97" r="4.97"/>
			<path class="st0" d="M72.99,31.84c-1.4-15.74-8.9-18.88-8.9-18.88s-7.25-4.35-14.87,1.19c-4.95,4.5-6.09,11.37-6.87,18.01
				c-0.39,3.37,4.88,3.33,5.27,0c0.47-3.96,1.13-7.94,3.1-11.33l-0.01,3.82l-0.04,18.38v14.58c0,1.57,1.15,2.84,2.76,2.84
				c1.61,0,2.92-1.27,2.92-2.84V36.78h2.58c0,4.88,0,16.03,0,20.9c0,3.4,5.27,3.4,5.27,0c0-4.88,0-9.76,0-14.64l0.22-18.41
				c0-1.76,0.01-3.32,0.01-4.42c2.1,3.45,2.8,7.55,3.28,11.63C68.11,35.17,73.38,35.2,72.99,31.84z"/>
		</g>
	</g>
</g>
<g>
	<g>
		<g>
			<circle class="st0" cx="15.34" cy="4.97" r="4.97"/>
			<path class="st0" d="M30.67,31.84c-1.4-15.74-8.9-18.88-8.9-18.88s-7.25-4.35-14.87,1.19c-4.95,4.5-6.09,11.37-6.87,18.01
				c-0.39,3.37,4.88,3.33,5.27,0c0.47-3.96,1.13-7.94,3.1-11.33l-0.01,3.82L8.35,43.03v14.58c0,1.57,1.15,2.84,2.76,2.84
				c1.61,0,2.92-1.27,2.92-2.84V36.78h2.58c0,4.88,0,16.03,0,20.9c0,3.4,5.27,3.4,5.27,0c0-4.88,0-9.76,0-14.64l0.22-18.41
				c0-1.76,0.01-3.32,0.01-4.42c2.1,3.45,2.8,7.55,3.28,11.63C25.79,35.17,31.06,35.2,30.67,31.84z"/>
		</g>
	</g>
</g>
<g>
	<g>
		<g>
			<circle class="st0" cx="521.51" cy="47.7" r="4.97"/>
			<path class="st0" d="M536.83,74.57c-1.4-15.74-8.9-18.88-8.9-18.88s-7.25-4.35-14.87,1.19c-4.95,4.5-6.09,11.37-6.87,18.01
				c-0.39,3.37,4.88,3.33,5.27,0c0.47-3.96,1.14-7.94,3.1-11.33l-0.01,3.82l-0.04,18.38v14.58c0,1.57,1.15,2.84,2.76,2.84
				c1.61,0,2.92-1.27,2.92-2.84V79.52h2.58c0,4.88,0,16.03,0,20.9c0,3.4,5.27,3.4,5.27,0c0-4.88,0-9.76,0-14.64l0.22-18.41
				c0-1.76,0.01-3.32,0.01-4.42c2.1,3.45,2.8,7.55,3.28,11.63C531.95,77.91,537.22,77.94,536.83,74.57z"/>
		</g>
	</g>
</g>
<g>
	<g>
		<g>
			<circle class="st0" cx="479.18" cy="47.7" r="4.97"/>
			<path class="st0" d="M494.51,74.57c-1.4-15.74-8.9-18.88-8.9-18.88s-7.25-4.35-14.87,1.19c-4.95,4.5-6.09,11.37-6.87,18.01
				c-0.39,3.37,4.88,3.33,5.27,0c0.47-3.96,1.14-7.94,3.1-11.33l-0.01,3.82l-0.04,18.38v14.58c0,1.57,1.15,2.84,2.76,2.84
				c1.61,0,2.92-1.27,2.92-2.84V79.52h2.58c0,4.88,0,16.03,0,20.9c0,3.4,5.27,3.4,5.27,0c0-4.88,0-9.76,0-14.64l0.22-18.41
				c0-1.76,0.01-3.32,0.01-4.42c2.1,3.45,2.8,7.55,3.28,11.63C489.63,77.91,494.9,77.94,494.51,74.57z"/>
		</g>
	</g>
</g>
<g>
	<g>
		<g>
			<circle class="st0" cx="436.86" cy="47.7" r="4.97"/>
			<path class="st0" d="M452.18,74.57c-1.4-15.74-8.9-18.88-8.9-18.88s-7.25-4.35-14.87,1.19c-4.95,4.5-6.09,11.37-6.87,18.01
				c-0.39,3.37,4.88,3.33,5.27,0c0.47-3.96,1.14-7.94,3.1-11.33l-0.01,3.82l-0.04,18.38v14.58c0,1.57,1.15,2.84,2.76,2.84
				c1.61,0,2.92-1.27,2.92-2.84V79.52h2.58c0,4.88,0,16.03,0,20.9c0,3.4,5.27,3.4,5.27,0c0-4.88,0-9.76,0-14.64l0.22-18.41
				c0-1.76,0.01-3.32,0.01-4.42c2.1,3.45,2.8,7.55,3.28,11.63C447.31,77.91,452.58,77.94,452.18,74.57z"/>
		</g>
	</g>
</g>
<g>
	<g>
		<g>
			<circle class="st0" cx="394.54" cy="47.7" r="4.97"/>
			<path class="st0" d="M409.86,74.57c-1.4-15.74-8.9-18.88-8.9-18.88s-7.25-4.35-14.87,1.19c-4.95,4.5-6.09,11.37-6.87,18.01
				c-0.39,3.37,4.88,3.33,5.27,0c0.47-3.96,1.14-7.94,3.1-11.33l-0.01,3.82l-0.04,18.38v14.58c0,1.57,1.15,2.84,2.76,2.84
				c1.61,0,2.92-1.27,2.92-2.84V79.52h2.58c0,4.88,0,16.03,0,20.9c0,3.4,5.27,3.4,5.27,0c0-4.88,0-9.76,0-14.64l0.22-18.41
				c0-1.76,0.01-3.32,0.01-4.42c2.1,3.45,2.8,7.55,3.28,11.63C404.98,77.91,410.26,77.94,409.86,74.57z"/>
		</g>
	</g>
</g>
<g>
	<g>
		<g>
			<circle class="st0" cx="352.22" cy="47.7" r="4.97"/>
			<path class="st0" d="M367.54,74.57c-1.4-15.74-8.9-18.88-8.9-18.88s-7.25-4.35-14.87,1.19c-4.95,4.5-6.09,11.37-6.87,18.01
				c-0.39,3.37,4.88,3.33,5.27,0c0.47-3.96,1.14-7.94,3.1-11.33l-0.01,3.82l-0.04,18.38v14.58c0,1.57,1.15,2.84,2.76,2.84
				c1.61,0,2.92-1.27,2.92-2.84V79.52h2.58c0,4.88,0,16.03,0,20.9c0,3.4,5.27,3.4,5.27,0c0-4.88,0-9.76,0-14.64l0.22-18.41
				c0-1.76,0.01-3.32,0.01-4.42c2.1,3.45,2.8,7.55,3.28,11.63C362.66,77.91,367.93,77.94,367.54,74.57z"/>
		</g>
	</g>
</g>
<g>
	<g>
		<g>
			<circle class="st0" cx="501.2" cy="5.68" r="4.97"/>
			<path class="st0" d="M516.52,32.55c-1.4-15.74-8.9-18.88-8.9-18.88s-7.25-4.35-14.87,1.19c-4.95,4.5-6.09,11.37-6.87,18.01
				c-0.39,3.37,4.88,3.33,5.27,0c0.47-3.96,1.14-7.94,3.1-11.33l-0.01,3.82l-0.04,18.38v14.58c0,1.57,1.15,2.84,2.76,2.84
				c1.61,0,2.92-1.27,2.92-2.84V37.49h2.58c0,4.88,0,16.03,0,20.9c0,3.4,5.27,3.4,5.27,0c0-4.88,0-9.76,0-14.64l0.22-18.41
				c0-1.76,0.01-3.32,0.01-4.42c2.1,3.45,2.8,7.55,3.28,11.63C511.64,35.88,516.91,35.92,516.52,32.55z"/>
		</g>
	</g>
</g>
<g>
	<g>
		<g>
			<circle class="st0" cx="458.88" cy="5.68" r="4.97"/>
			<path class="st0" d="M474.2,32.55c-1.4-15.74-8.9-18.88-8.9-18.88s-7.25-4.35-14.87,1.19c-4.95,4.5-6.09,11.37-6.87,18.01
				c-0.39,3.37,4.88,3.33,5.27,0c0.47-3.96,1.14-7.94,3.1-11.33l-0.01,3.82l-0.04,18.38v14.58c0,1.57,1.15,2.84,2.76,2.84
				c1.61,0,2.92-1.27,2.92-2.84V37.49h2.58c0,4.88,0,16.03,0,20.9c0,3.4,5.27,3.4,5.27,0c0-4.88,0-9.76,0-14.64l0.22-18.41
				c0-1.76,0.01-3.32,0.01-4.42c2.1,3.45,2.8,7.55,3.28,11.63C469.32,35.88,474.59,35.92,474.2,32.55z"/>
		</g>
	</g>
</g>
<g>
	<g>
		<g>
			<circle class="st0" cx="416.55" cy="5.68" r="4.97"/>
			<path class="st0" d="M431.88,32.55c-1.4-15.74-8.9-18.88-8.9-18.88s-7.25-4.35-14.87,1.19c-4.95,4.5-6.09,11.37-6.87,18.01
				c-0.39,3.37,4.88,3.33,5.27,0c0.47-3.96,1.13-7.94,3.1-11.33l-0.01,3.82l-0.04,18.38v14.58c0,1.57,1.15,2.84,2.76,2.84
				c1.61,0,2.92-1.27,2.92-2.84V37.49h2.58c0,4.88,0,16.03,0,20.9c0,3.4,5.27,3.4,5.27,0c0-4.88,0-9.76,0-14.64l0.22-18.41
				c0-1.76,0.01-3.32,0.01-4.42c2.1,3.45,2.8,7.55,3.28,11.63C427,35.88,432.27,35.92,431.88,32.55z"/>
		</g>
	</g>
</g>
<g>
	<g>
		<g>
			<circle class="st0" cx="374.23" cy="5.68" r="4.97"/>
			<path class="st0" d="M389.55,32.55c-1.4-15.74-8.9-18.88-8.9-18.88s-7.25-4.35-14.87,1.19c-4.95,4.5-6.09,11.37-6.87,18.01
				c-0.39,3.37,4.88,3.33,5.27,0c0.47-3.96,1.13-7.94,3.1-11.33l-0.01,3.82l-0.04,18.38v14.58c0,1.57,1.15,2.84,2.76,2.84
				c1.61,0,2.92-1.27,2.92-2.84V37.49h2.58c0,4.88,0,16.03,0,20.9c0,3.4,5.27,3.4,5.27,0c0-4.88,0-9.76,0-14.64l0.22-18.41
				c0-1.76,0.01-3.32,0.01-4.42c2.1,3.45,2.8,7.55,3.28,11.63C384.67,35.88,389.95,35.92,389.55,32.55z"/>
		</g>
	</g>
</g>
<g>
	<g>
		<g>
			<circle class="st0" cx="331.91" cy="5.68" r="4.97"/>
			<path class="st0" d="M347.23,32.55c-1.4-15.74-8.9-18.88-8.9-18.88s-7.25-4.35-14.87,1.19c-4.95,4.5-6.09,11.37-6.87,18.01
				c-0.39,3.37,4.88,3.33,5.27,0c0.47-3.96,1.14-7.94,3.1-11.33l-0.01,3.82l-0.04,18.38v14.58c0,1.57,1.15,2.84,2.76,2.84
				c1.61,0,2.92-1.27,2.92-2.84V37.49h2.58c0,4.88,0,16.03,0,20.9c0,3.4,5.27,3.4,5.27,0c0-4.88,0-9.76,0-14.64l0.22-18.41
				c0-1.76,0.01-3.32,0.01-4.42c2.1,3.45,2.8,7.55,3.28,11.63C342.35,35.88,347.63,35.92,347.23,32.55z"/>
		</g>
	</g>
</g>
<g>
	<g>
		<line class="st1" x1="233.64" y1="54.07" x2="297.56" y2="54.07"/>
		<g>
			<polygon class="st2" points="285.74,60.43 285.05,58.55 297.36,54.07 285.05,49.59 285.74,47.71 303.21,54.07 			"/>
		</g>
	</g>
</g>
<text transform="matrix(1.0065 0 0 1 237.1094 44.6004)"><tspan x="0" y="0" class="st2 st3 st4">Drug</tspan><tspan x="0" y="29" class="st2 st3 st4">Time</tspan></text>
</svg>
