<?xml version="1.0" encoding="utf-8"?>
<!-- Generator: Adobe Illustrator 23.0.2, SVG Export Plug-In . SVG Version: 6.00 Build 0)  -->
<svg version="1.1" id="Capa_1" xmlns="http://www.w3.org/2000/svg" xmlns:xlink="http://www.w3.org/1999/xlink" x="0px" y="0px"
	 viewBox="0 0 489.9 126.36" style="enable-background:new 0 0 489.9 126.36;" xml:space="preserve">
<style type="text/css">
	.st0{fill:#C14F3E;}
	.st1{fill:#1C648D;}
	.st2{font-family:'MyriadPro-Regular';}
	.st3{font-size:18.239px;}
</style>
<g>
	<g>
		<g>
			<circle class="st0" cx="204.94" cy="70.88" r="4.97"/>
			<path class="st0" d="M220.26,97.75c-1.4-15.74-8.9-18.88-8.9-18.88s-7.25-4.35-14.87,1.19c-4.95,4.5-6.09,11.37-6.87,18.01
				c-0.39,3.37,4.88,3.33,5.27,0c0.47-3.96,1.13-7.94,3.1-11.33l-0.01,3.82l-0.04,18.38v14.58c0,1.57,1.15,2.84,2.76,2.84
				c1.61,0,2.92-1.27,2.92-2.84v-20.84h2.58c0,4.88,0,16.03,0,20.9c0,3.4,5.27,3.4,5.27,0c0-4.88,0-9.76,0-14.64l0.22-18.41
				c0-1.76,0.01-3.32,0.01-4.42c2.1,3.45,2.8,7.55,3.28,11.63C215.38,101.08,220.66,101.11,220.26,97.75z"/>
		</g>
	</g>
</g>
<g>
	<g>
		<g>
			<circle class="st0" cx="162.62" cy="70.88" r="4.97"/>
			<path class="st0" d="M177.94,97.75c-1.4-15.74-8.9-18.88-8.9-18.88s-7.25-4.35-14.87,1.19c-4.95,4.5-6.09,11.37-6.87,18.01
				c-0.39,3.37,4.88,3.33,5.27,0c0.47-3.96,1.13-7.94,3.1-11.33l-0.01,3.82l-0.04,18.38v14.58c0,1.57,1.15,2.84,2.76,2.84
				c1.61,0,2.92-1.27,2.92-2.84v-20.84h2.58c0,4.88,0,16.03,0,20.9c0,3.4,5.27,3.4,5.27,0c0-4.88,0-9.76,0-14.64l0.22-18.41
				c0-1.76,0.01-3.32,0.01-4.42c2.1,3.45,2.8,7.55,3.28,11.63C173.06,101.08,178.34,101.11,177.94,97.75z"/>
		</g>
	</g>
</g>
<g>
	<g>
		<g>
			<circle class="st0" cx="120.3" cy="70.88" r="4.97"/>
			<path class="st0" d="M135.62,97.75c-1.4-15.74-8.9-18.88-8.9-18.88s-7.25-4.35-14.87,1.19c-4.95,4.5-6.09,11.37-6.87,18.01
				c-0.39,3.37,4.88,3.33,5.27,0c0.47-3.96,1.14-7.94,3.1-11.33l-0.01,3.82l-0.04,18.38v14.58c0,1.57,1.15,2.84,2.76,2.84
				c1.61,0,2.92-1.27,2.92-2.84v-20.84h2.58c0,4.88,0,16.03,0,20.9c0,3.4,5.27,3.4,5.27,0c0-4.88,0-9.76,0-14.64l0.22-18.41
				c0-1.76,0.01-3.32,0.01-4.42c2.1,3.45,2.8,7.55,3.28,11.63C130.74,101.08,136.01,101.11,135.62,97.75z"/>
		</g>
	</g>
</g>
<g>
	<g>
		<g>
			<circle class="st0" cx="77.98" cy="70.88" r="4.97"/>
			<path class="st0" d="M93.3,97.75c-1.4-15.74-8.9-18.88-8.9-18.88s-7.25-4.35-14.87,1.19c-4.95,4.5-6.09,11.37-6.87,18.01
				c-0.39,3.37,4.88,3.33,5.27,0c0.47-3.96,1.13-7.94,3.1-11.33l-0.01,3.82l-0.04,18.38v14.58c0,1.57,1.15,2.84,2.76,2.84
				c1.61,0,2.92-1.27,2.92-2.84v-20.84h2.58c0,4.88,0,16.03,0,20.9c0,3.4,5.27,3.4,5.27,0c0-4.88,0-9.76,0-14.64l0.22-18.41
				c0-1.76,0.01-3.32,0.01-4.42c2.1,3.45,2.8,7.55,3.28,11.63C88.42,101.08,93.69,101.11,93.3,97.75z"/>
		</g>
	</g>
</g>
<g>
	<g>
		<g>
			<circle class="st0" cx="35.65" cy="70.88" r="4.97"/>
			<path class="st0" d="M50.98,97.75c-1.4-15.74-8.9-18.88-8.9-18.88s-7.25-4.35-14.87,1.19c-4.95,4.5-6.09,11.37-6.87,18.01
				c-0.39,3.37,4.88,3.33,5.27,0c0.47-3.96,1.14-7.94,3.1-11.33l-0.01,3.82l-0.04,18.38v14.58c0,1.57,1.15,2.84,2.76,2.84
				c1.61,0,2.92-1.27,2.92-2.84v-20.84h2.58c0,4.88,0,16.03,0,20.9c0,3.4,5.27,3.4,5.27,0c0-4.88,0-9.76,0-14.64l0.22-18.41
				c0-1.76,0.01-3.32,0.01-4.42c2.1,3.45,2.8,7.55,3.28,11.63C46.1,101.08,51.37,101.11,50.98,97.75z"/>
		</g>
	</g>
</g>
<g>
	<g>
		<g>
			<circle class="st0" cx="184.63" cy="28.85" r="4.97"/>
			<path class="st0" d="M199.96,55.72c-1.4-15.74-8.9-18.88-8.9-18.88s-7.25-4.35-14.87,1.19c-4.95,4.5-6.09,11.37-6.87,18.01
				c-0.39,3.37,4.88,3.33,5.27,0c0.47-3.96,1.14-7.94,3.1-11.33l-0.01,3.82l-0.04,18.38V81.5c0,1.57,1.15,2.84,2.76,2.84
				c1.61,0,2.92-1.27,2.92-2.84V60.67h2.58c0,4.88,0,16.03,0,20.9c0,3.4,5.27,3.4,5.27,0c0-4.88,0-9.76,0-14.64l0.22-18.41
				c0-1.76,0.01-3.32,0.01-4.42c2.1,3.45,2.8,7.55,3.28,11.63C195.08,59.06,200.35,59.09,199.96,55.72z"/>
		</g>
	</g>
</g>
<g>
	<g>
		<g>
			<circle class="st0" cx="142.31" cy="28.85" r="4.97"/>
			<path class="st0" d="M157.63,55.72c-1.4-15.74-8.9-18.88-8.9-18.88s-7.25-4.35-14.87,1.19c-4.95,4.5-6.09,11.37-6.87,18.01
				c-0.39,3.37,4.88,3.33,5.27,0c0.47-3.96,1.13-7.94,3.1-11.33l-0.01,3.82l-0.04,18.38V81.5c0,1.57,1.15,2.84,2.76,2.84
				c1.61,0,2.92-1.27,2.92-2.84V60.67h2.58c0,4.88,0,16.03,0,20.9c0,3.4,5.27,3.4,5.27,0c0-4.88,0-9.76,0-14.64l0.22-18.41
				c0-1.76,0.01-3.32,0.01-4.42c2.1,3.45,2.8,7.55,3.28,11.63C152.75,59.06,158.03,59.09,157.63,55.72z"/>
		</g>
	</g>
</g>
<g>
	<g>
		<g>
			<circle class="st0" cx="99.99" cy="28.85" r="4.97"/>
			<path class="st0" d="M115.31,55.72c-1.4-15.74-8.9-18.88-8.9-18.88s-7.25-4.35-14.87,1.19c-4.95,4.5-6.09,11.37-6.87,18.01
				c-0.39,3.37,4.88,3.33,5.27,0c0.47-3.96,1.14-7.94,3.1-11.33l-0.01,3.82l-0.04,18.38V81.5c0,1.57,1.15,2.84,2.76,2.84
				c1.61,0,2.92-1.27,2.92-2.84V60.67h2.58c0,4.88,0,16.03,0,20.9c0,3.4,5.27,3.4,5.27,0c0-4.88,0-9.76,0-14.64l0.22-18.41
				c0-1.76,0.01-3.32,0.01-4.42c2.1,3.45,2.8,7.55,3.28,11.63C110.43,59.06,115.71,59.09,115.31,55.72z"/>
		</g>
	</g>
</g>
<g>
	<g>
		<g>
			<circle class="st0" cx="57.67" cy="28.85" r="4.97"/>
			<path class="st0" d="M72.99,55.72c-1.4-15.74-8.9-18.88-8.9-18.88s-7.25-4.35-14.87,1.19c-4.95,4.5-6.09,11.37-6.87,18.01
				c-0.39,3.37,4.88,3.33,5.27,0c0.47-3.96,1.13-7.94,3.1-11.33l-0.01,3.82l-0.04,18.38V81.5c0,1.57,1.15,2.84,2.76,2.84
				c1.61,0,2.92-1.27,2.92-2.84V60.67h2.58c0,4.88,0,16.03,0,20.9c0,3.4,5.27,3.4,5.27,0c0-4.88,0-9.76,0-14.64l0.22-18.41
				c0-1.76,0.01-3.32,0.01-4.42c2.1,3.45,2.8,7.55,3.28,11.63C68.11,59.06,73.38,59.09,72.99,55.72z"/>
		</g>
	</g>
</g>
<g>
	<g>
		<g>
			<circle class="st0" cx="15.34" cy="28.85" r="4.97"/>
			<path class="st0" d="M30.67,55.72c-1.4-15.74-8.9-18.88-8.9-18.88s-7.25-4.35-14.87,1.19c-4.95,4.5-6.09,11.37-6.87,18.01
				c-0.39,3.37,4.88,3.33,5.27,0c0.47-3.96,1.13-7.94,3.1-11.33l-0.01,3.82L8.35,66.92V81.5c0,1.57,1.15,2.84,2.76,2.84
				c1.61,0,2.92-1.27,2.92-2.84V60.67h2.58c0,4.88,0,16.03,0,20.9c0,3.4,5.27,3.4,5.27,0c0-4.88,0-9.76,0-14.64l0.22-18.41
				c0-1.76,0.01-3.32,0.01-4.42c2.1,3.45,2.8,7.55,3.28,11.63C25.79,59.06,31.06,59.09,30.67,55.72z"/>
		</g>
	</g>
</g>
<g>
	<g>
		<g>
			<circle class="st1" cx="474.56" cy="70.88" r="4.97"/>
			<path class="st1" d="M489.88,97.75c-1.4-15.74-8.9-18.88-8.9-18.88s-7.25-4.35-14.87,1.19c-4.95,4.5-6.09,11.37-6.87,18.01
				c-0.39,3.37,4.88,3.33,5.27,0c0.47-3.96,1.13-7.94,3.1-11.33l-0.01,3.82l-0.04,18.38v14.58c0,1.57,1.15,2.84,2.76,2.84
				c1.61,0,2.92-1.27,2.92-2.84v-20.84h2.58c0,4.88,0,16.03,0,20.9c0,3.4,5.27,3.4,5.27,0c0-4.88,0-9.76,0-14.64l0.22-18.41
				c0-1.76,0.01-3.32,0.01-4.42c2.1,3.45,2.8,7.55,3.28,11.63C485,101.08,490.28,101.11,489.88,97.75z"/>
		</g>
	</g>
</g>
<g>
	<g>
		<g>
			<circle class="st1" cx="432.24" cy="70.88" r="4.97"/>
			<path class="st1" d="M447.56,97.75c-1.4-15.74-8.9-18.88-8.9-18.88s-7.25-4.35-14.87,1.19c-4.95,4.5-6.09,11.37-6.87,18.01
				c-0.39,3.37,4.88,3.33,5.27,0c0.47-3.96,1.13-7.94,3.1-11.33l-0.01,3.82l-0.04,18.38v14.58c0,1.57,1.15,2.84,2.76,2.84
				c1.61,0,2.92-1.27,2.92-2.84v-20.84h2.58c0,4.88,0,16.03,0,20.9c0,3.4,5.27,3.4,5.27,0c0-4.88,0-9.76,0-14.64L439,90.54
				c0-1.76,0.01-3.32,0.01-4.42c2.1,3.45,2.8,7.55,3.28,11.63C442.68,101.08,447.96,101.11,447.56,97.75z"/>
		</g>
	</g>
</g>
<g>
	<g>
		<g>
			<circle class="st1" cx="389.92" cy="70.88" r="4.97"/>
			<path class="st1" d="M405.24,97.75c-1.4-15.74-8.9-18.88-8.9-18.88s-7.25-4.35-14.87,1.19c-4.95,4.5-6.09,11.37-6.87,18.01
				c-0.39,3.37,4.88,3.33,5.27,0c0.47-3.96,1.14-7.94,3.1-11.33l-0.01,3.82l-0.04,18.38v14.58c0,1.57,1.15,2.84,2.76,2.84
				c1.61,0,2.92-1.27,2.92-2.84v-20.84h2.58c0,4.88,0,16.03,0,20.9c0,3.4,5.27,3.4,5.27,0c0-4.88,0-9.76,0-14.64l0.22-18.41
				c0-1.76,0.01-3.32,0.01-4.42c2.1,3.45,2.8,7.55,3.28,11.63C400.36,101.08,405.63,101.11,405.24,97.75z"/>
		</g>
	</g>
</g>
<g>
	<g>
		<g>
			<circle class="st1" cx="347.59" cy="70.88" r="4.97"/>
			<path class="st1" d="M362.92,97.75c-1.4-15.74-8.9-18.88-8.9-18.88s-7.25-4.35-14.87,1.19c-4.95,4.5-6.09,11.37-6.87,18.01
				c-0.39,3.37,4.88,3.33,5.27,0c0.47-3.96,1.14-7.94,3.1-11.33l-0.01,3.82l-0.04,18.38v14.58c0,1.57,1.15,2.84,2.76,2.84
				c1.61,0,2.92-1.27,2.92-2.84v-20.84h2.58c0,4.88,0,16.03,0,20.9c0,3.4,5.27,3.4,5.27,0c0-4.88,0-9.76,0-14.64l0.22-18.41
				c0-1.76,0.01-3.32,0.01-4.42c2.1,3.45,2.8,7.55,3.28,11.63C358.04,101.08,363.31,101.11,362.92,97.75z"/>
		</g>
	</g>
</g>
<g>
	<g>
		<g>
			<circle class="st1" cx="305.27" cy="70.88" r="4.97"/>
			<path class="st1" d="M320.59,97.75c-1.4-15.74-8.9-18.88-8.9-18.88s-7.25-4.35-14.87,1.19c-4.95,4.5-6.09,11.37-6.87,18.01
				c-0.39,3.37,4.88,3.33,5.27,0c0.47-3.96,1.14-7.94,3.1-11.33l-0.01,3.82l-0.04,18.38v14.58c0,1.57,1.15,2.84,2.76,2.84
				c1.61,0,2.92-1.27,2.92-2.84v-20.84h2.58c0,4.88,0,16.03,0,20.9c0,3.4,5.27,3.4,5.27,0c0-4.88,0-9.76,0-14.64l0.22-18.41
				c0-1.76,0.01-3.32,0.01-4.42c2.1,3.45,2.8,7.55,3.28,11.63C315.72,101.08,320.99,101.11,320.59,97.75z"/>
		</g>
	</g>
</g>
<g>
	<g>
		<g>
			<circle class="st1" cx="454.25" cy="28.85" r="4.97"/>
			<path class="st1" d="M469.57,55.72c-1.4-15.74-8.9-18.88-8.9-18.88s-7.25-4.35-14.87,1.19c-4.95,4.5-6.09,11.37-6.87,18.01
				c-0.39,3.37,4.88,3.33,5.27,0c0.47-3.96,1.14-7.94,3.1-11.33l-0.01,3.82l-0.04,18.38V81.5c0,1.57,1.15,2.84,2.76,2.84
				c1.61,0,2.92-1.27,2.92-2.84V60.67h2.58c0,4.88,0,16.03,0,20.9c0,3.4,5.27,3.4,5.27,0c0-4.88,0-9.76,0-14.64l0.22-18.41
				c0-1.76,0.01-3.32,0.01-4.42c2.1,3.45,2.8,7.55,3.28,11.63C464.7,59.06,469.97,59.09,469.57,55.72z"/>
		</g>
	</g>
</g>
<g>
	<g>
		<g>
			<circle class="st1" cx="411.93" cy="28.85" r="4.97"/>
			<path class="st1" d="M427.25,55.72c-1.4-15.74-8.9-18.88-8.9-18.88s-7.25-4.35-14.87,1.19c-4.95,4.5-6.09,11.37-6.87,18.01
				c-0.39,3.37,4.88,3.33,5.27,0c0.47-3.96,1.14-7.94,3.1-11.33l-0.01,3.82l-0.04,18.38V81.5c0,1.57,1.15,2.84,2.76,2.84
				c1.61,0,2.92-1.27,2.92-2.84V60.67h2.58c0,4.88,0,16.03,0,20.9c0,3.4,5.27,3.4,5.27,0c0-4.88,0-9.76,0-14.64l0.22-18.41
				c0-1.76,0.01-3.32,0.01-4.42c2.1,3.45,2.8,7.55,3.28,11.63C422.37,59.06,427.65,59.09,427.25,55.72z"/>
		</g>
	</g>
</g>
<g>
	<g>
		<g>
			<circle class="st1" cx="369.61" cy="28.85" r="4.97"/>
			<path class="st1" d="M384.93,55.72c-1.4-15.74-8.9-18.88-8.9-18.88s-7.25-4.35-14.87,1.19c-4.95,4.5-6.09,11.37-6.87,18.01
				c-0.39,3.37,4.88,3.33,5.27,0c0.47-3.96,1.14-7.94,3.1-11.33l-0.01,3.82l-0.04,18.38V81.5c0,1.57,1.15,2.84,2.76,2.84
				c1.61,0,2.92-1.27,2.92-2.84V60.67h2.58c0,4.88,0,16.03,0,20.9c0,3.4,5.27,3.4,5.27,0c0-4.88,0-9.76,0-14.64l0.22-18.41
				c0-1.76,0.01-3.32,0.01-4.42c2.1,3.45,2.8,7.55,3.28,11.63C380.05,59.06,385.32,59.09,384.93,55.72z"/>
		</g>
	</g>
</g>
<g>
	<g>
		<g>
			<circle class="st1" cx="327.29" cy="28.85" r="4.97"/>
			<path class="st1" d="M342.61,55.72c-1.4-15.74-8.9-18.88-8.9-18.88s-7.25-4.35-14.87,1.19c-4.95,4.5-6.09,11.37-6.87,18.01
				c-0.39,3.37,4.88,3.33,5.27,0c0.47-3.96,1.13-7.94,3.1-11.33l-0.01,3.82l-0.04,18.38V81.5c0,1.57,1.15,2.84,2.76,2.84
				c1.61,0,2.92-1.27,2.92-2.84V60.67h2.58c0,4.88,0,16.03,0,20.9c0,3.4,5.27,3.4,5.27,0c0-4.88,0-9.76,0-14.64l0.22-18.41
				c0-1.76,0.01-3.32,0.01-4.42c2.1,3.45,2.8,7.55,3.28,11.63C337.73,59.06,343,59.09,342.61,55.72z"/>
		</g>
	</g>
</g>
<g>
	<g>
		<g>
			<circle class="st1" cx="284.96" cy="28.85" r="4.97"/>
			<path class="st1" d="M300.29,55.72c-1.4-15.74-8.9-18.88-8.9-18.88s-7.25-4.35-14.87,1.19c-4.95,4.5-6.09,11.37-6.87,18.01
				c-0.39,3.37,4.88,3.33,5.27,0c0.47-3.96,1.13-7.94,3.1-11.33l-0.01,3.82l-0.04,18.38V81.5c0,1.57,1.15,2.84,2.76,2.84
				c1.61,0,2.92-1.27,2.92-2.84V60.67h2.58c0,4.88,0,16.03,0,20.9c0,3.4,5.27,3.4,5.27,0c0-4.88,0-9.76,0-14.64l0.22-18.41
				c0-1.76,0.01-3.32,0.01-4.42c2.1,3.45,2.8,7.55,3.28,11.63C295.41,59.06,300.68,59.09,300.29,55.72z"/>
		</g>
	</g>
</g>
<text transform="matrix(1 0 0 1 364.0294 13.6953)" class="st1 st2 st3">Drug</text>
<text transform="matrix(1 0 0 1 67.0294 13.6953)" class="st0 st2 st3">Placebo</text>
</svg>
