<?xml version="1.0" encoding="UTF-8" standalone="no"?>
<!-- Generator: Adobe Illustrator 23.0.2, SVG Export Plug-In . SVG Version: 6.00 Build 0)  -->

<svg
   xmlns:dc="http://purl.org/dc/elements/1.1/"
   xmlns:cc="http://creativecommons.org/ns#"
   xmlns:rdf="http://www.w3.org/1999/02/22-rdf-syntax-ns#"
   xmlns:svg="http://www.w3.org/2000/svg"
   xmlns="http://www.w3.org/2000/svg"
   xmlns:sodipodi="http://sodipodi.sourceforge.net/DTD/sodipodi-0.dtd"
   xmlns:inkscape="http://www.inkscape.org/namespaces/inkscape"
   version="1.1"
   id="Capa_1"
   x="0px"
   y="0px"
   viewBox="0 0 536.85 103.19"
   style="enable-background:new 0 0 536.85 103.19;"
   xml:space="preserve"
   sodipodi:docname="II-DROGA+TIEMPO.svg"
   inkscape:version="0.92.4 (5da689c313, 2019-01-14)"><metadata
   id="metadata225"><rdf:RDF><cc:Work
       rdf:about=""><dc:format>image/svg+xml</dc:format><dc:type
         rdf:resource="http://purl.org/dc/dcmitype/StillImage" /></cc:Work></rdf:RDF></metadata><defs
   id="defs223" /><sodipodi:namedview
   pagecolor="#ffffff"
   bordercolor="#666666"
   borderopacity="1"
   objecttolerance="10"
   gridtolerance="10"
   guidetolerance="10"
   inkscape:pageopacity="0"
   inkscape:pageshadow="2"
   inkscape:window-width="1440"
   inkscape:window-height="871"
   id="namedview221"
   showgrid="false"
   inkscape:zoom="0.66685297"
   inkscape:cx="17.994971"
   inkscape:cy="53.094582"
   inkscape:window-x="0"
   inkscape:window-y="0"
   inkscape:window-maximized="1"
   inkscape:current-layer="Capa_1" />
<style
   type="text/css"
   id="style2">
	.st0{fill:#C14F3E;}
	.st1{fill:none;stroke:#909090;stroke-width:2;stroke-miterlimit:10;}
	.st2{fill:#909090;}
	.st3{font-family:'MyriadPro-Regular';}
	.st4{font-size:20.0862px;}
</style>
<g
   id="g12">
	<g
   id="g10">
		<g
   id="g8">
			<circle
   class="st0"
   cx="204.94"
   cy="46.99"
   r="4.97"
   id="circle4" />
			<path
   class="st0"
   d="M220.26,73.86c-1.4-15.74-8.9-18.88-8.9-18.88s-7.25-4.35-14.87,1.19c-4.95,4.5-6.09,11.37-6.87,18.01     c-0.39,3.37,4.88,3.33,5.27,0c0.47-3.96,1.13-7.94,3.1-11.33l-0.01,3.82l-0.04,18.38v14.58c0,1.57,1.15,2.84,2.76,2.84     c1.61,0,2.92-1.27,2.92-2.84V78.8h2.58c0,4.88,0,16.03,0,20.9c0,3.4,5.27,3.4,5.27,0c0-4.88,0-9.76,0-14.64l0.22-18.41     c0-1.76,0.01-3.32,0.01-4.42c2.1,3.45,2.8,7.55,3.28,11.63C215.38,77.19,220.66,77.23,220.26,73.86z"
   id="path6" />
		</g>
	</g>
</g>
<g
   id="g22">
	<g
   id="g20">
		<g
   id="g18">
			<circle
   class="st0"
   cx="162.62"
   cy="46.99"
   r="4.97"
   id="circle14" />
			<path
   class="st0"
   d="M177.94,73.86c-1.4-15.74-8.9-18.88-8.9-18.88s-7.25-4.35-14.87,1.19c-4.95,4.5-6.09,11.37-6.87,18.01     c-0.39,3.37,4.88,3.33,5.27,0c0.47-3.96,1.13-7.94,3.1-11.33l-0.01,3.82l-0.04,18.38v14.58c0,1.57,1.15,2.84,2.76,2.84     c1.61,0,2.92-1.27,2.92-2.84V78.8h2.58c0,4.88,0,16.03,0,20.9c0,3.4,5.27,3.4,5.27,0c0-4.88,0-9.76,0-14.64l0.22-18.41     c0-1.76,0.01-3.32,0.01-4.42c2.1,3.45,2.8,7.55,3.28,11.63C173.06,77.19,178.34,77.23,177.94,73.86z"
   id="path16" />
		</g>
	</g>
</g>
<g
   id="g32">
	<g
   id="g30">
		<g
   id="g28">
			<circle
   class="st0"
   cx="120.3"
   cy="46.99"
   r="4.97"
   id="circle24" />
			<path
   class="st0"
   d="M135.62,73.86c-1.4-15.74-8.9-18.88-8.9-18.88s-7.25-4.35-14.87,1.19c-4.95,4.5-6.09,11.37-6.87,18.01     c-0.39,3.37,4.88,3.33,5.27,0c0.47-3.96,1.14-7.94,3.1-11.33l-0.01,3.82l-0.04,18.38v14.58c0,1.57,1.15,2.84,2.76,2.84     c1.61,0,2.92-1.27,2.92-2.84V78.8h2.58c0,4.88,0,16.03,0,20.9c0,3.4,5.27,3.4,5.27,0c0-4.88,0-9.76,0-14.64l0.22-18.41     c0-1.76,0.01-3.32,0.01-4.42c2.1,3.45,2.8,7.55,3.28,11.63C130.74,77.19,136.01,77.23,135.62,73.86z"
   id="path26" />
		</g>
	</g>
</g>
<g
   id="g42">
	<g
   id="g40">
		<g
   id="g38">
			<circle
   class="st0"
   cx="77.98"
   cy="46.99"
   r="4.97"
   id="circle34" />
			<path
   class="st0"
   d="M93.3,73.86c-1.4-15.74-8.9-18.88-8.9-18.88s-7.25-4.35-14.87,1.19c-4.95,4.5-6.09,11.37-6.87,18.01     c-0.39,3.37,4.88,3.33,5.27,0c0.47-3.96,1.13-7.94,3.1-11.33l-0.01,3.82l-0.04,18.38v14.58c0,1.57,1.15,2.84,2.76,2.84     c1.61,0,2.92-1.27,2.92-2.84V78.8h2.58c0,4.88,0,16.03,0,20.9c0,3.4,5.27,3.4,5.27,0c0-4.88,0-9.76,0-14.64l0.22-18.41     c0-1.76,0.01-3.32,0.01-4.42c2.1,3.45,2.8,7.55,3.28,11.63C88.42,77.19,93.69,77.23,93.3,73.86z"
   id="path36" />
		</g>
	</g>
</g>
<g
   id="g52">
	<g
   id="g50">
		<g
   id="g48">
			<circle
   class="st0"
   cx="35.65"
   cy="46.99"
   r="4.97"
   id="circle44" />
			<path
   class="st0"
   d="M50.98,73.86c-1.4-15.74-8.9-18.88-8.9-18.88s-7.25-4.35-14.87,1.19c-4.95,4.5-6.09,11.37-6.87,18.01     c-0.39,3.37,4.88,3.33,5.27,0c0.47-3.96,1.14-7.94,3.1-11.33l-0.01,3.82l-0.04,18.38v14.58c0,1.57,1.15,2.84,2.76,2.84     c1.61,0,2.92-1.27,2.92-2.84V78.8h2.58c0,4.88,0,16.03,0,20.9c0,3.4,5.27,3.4,5.27,0c0-4.88,0-9.76,0-14.64l0.22-18.41     c0-1.76,0.01-3.32,0.01-4.42c2.1,3.45,2.8,7.55,3.28,11.63C46.1,77.19,51.37,77.23,50.98,73.86z"
   id="path46" />
		</g>
	</g>
</g>
<g
   id="g62">
	<g
   id="g60">
		<g
   id="g58">
			<circle
   class="st0"
   cx="184.63"
   cy="4.97"
   r="4.97"
   id="circle54" />
			<path
   class="st0"
   d="M199.96,31.84c-1.4-15.74-8.9-18.88-8.9-18.88s-7.25-4.35-14.87,1.19c-4.95,4.5-6.09,11.37-6.87,18.01     c-0.39,3.37,4.88,3.33,5.27,0c0.47-3.96,1.14-7.94,3.1-11.33l-0.01,3.82l-0.04,18.38v14.58c0,1.57,1.15,2.84,2.76,2.84     c1.61,0,2.92-1.27,2.92-2.84V36.78h2.58c0,4.88,0,16.03,0,20.9c0,3.4,5.27,3.4,5.27,0c0-4.88,0-9.76,0-14.64l0.22-18.41     c0-1.76,0.01-3.32,0.01-4.42c2.1,3.45,2.8,7.55,3.28,11.63C195.08,35.17,200.35,35.2,199.96,31.84z"
   id="path56" />
		</g>
	</g>
</g>
<g
   id="g72">
	<g
   id="g70">
		<g
   id="g68">
			<circle
   class="st0"
   cx="142.31"
   cy="4.97"
   r="4.97"
   id="circle64" />
			<path
   class="st0"
   d="M157.63,31.84c-1.4-15.74-8.9-18.88-8.9-18.88s-7.25-4.35-14.87,1.19c-4.95,4.5-6.09,11.37-6.87,18.01     c-0.39,3.37,4.88,3.33,5.27,0c0.47-3.96,1.13-7.94,3.1-11.33l-0.01,3.82l-0.04,18.38v14.58c0,1.57,1.15,2.84,2.76,2.84     c1.61,0,2.92-1.27,2.92-2.84V36.78h2.58c0,4.88,0,16.03,0,20.9c0,3.4,5.27,3.4,5.27,0c0-4.88,0-9.76,0-14.64l0.22-18.41     c0-1.76,0.01-3.32,0.01-4.42c2.1,3.45,2.8,7.55,3.28,11.63C152.75,35.17,158.03,35.2,157.63,31.84z"
   id="path66" />
		</g>
	</g>
</g>
<g
   id="g82">
	<g
   id="g80">
		<g
   id="g78">
			<circle
   class="st0"
   cx="99.99"
   cy="4.97"
   r="4.97"
   id="circle74" />
			<path
   class="st0"
   d="M115.31,31.84c-1.4-15.74-8.9-18.88-8.9-18.88s-7.25-4.35-14.87,1.19c-4.95,4.5-6.09,11.37-6.87,18.01     c-0.39,3.37,4.88,3.33,5.27,0c0.47-3.96,1.14-7.94,3.1-11.33l-0.01,3.82l-0.04,18.38v14.58c0,1.57,1.15,2.84,2.76,2.84     c1.61,0,2.92-1.27,2.92-2.84V36.78h2.58c0,4.88,0,16.03,0,20.9c0,3.4,5.27,3.4,5.27,0c0-4.88,0-9.76,0-14.64l0.22-18.41     c0-1.76,0.01-3.32,0.01-4.42c2.1,3.45,2.8,7.55,3.28,11.63C110.43,35.17,115.71,35.2,115.31,31.84z"
   id="path76" />
		</g>
	</g>
</g>
<g
   id="g92">
	<g
   id="g90">
		<g
   id="g88">
			<circle
   class="st0"
   cx="57.67"
   cy="4.97"
   r="4.97"
   id="circle84" />
			<path
   class="st0"
   d="M72.99,31.84c-1.4-15.74-8.9-18.88-8.9-18.88s-7.25-4.35-14.87,1.19c-4.95,4.5-6.09,11.37-6.87,18.01     c-0.39,3.37,4.88,3.33,5.27,0c0.47-3.96,1.13-7.94,3.1-11.33l-0.01,3.82l-0.04,18.38v14.58c0,1.57,1.15,2.84,2.76,2.84     c1.61,0,2.92-1.27,2.92-2.84V36.78h2.58c0,4.88,0,16.03,0,20.9c0,3.4,5.27,3.4,5.27,0c0-4.88,0-9.76,0-14.64l0.22-18.41     c0-1.76,0.01-3.32,0.01-4.42c2.1,3.45,2.8,7.55,3.28,11.63C68.11,35.17,73.38,35.2,72.99,31.84z"
   id="path86" />
		</g>
	</g>
</g>
<g
   id="g102">
	<g
   id="g100">
		<g
   id="g98">
			<circle
   class="st0"
   cx="15.34"
   cy="4.97"
   r="4.97"
   id="circle94" />
			<path
   class="st0"
   d="M30.67,31.84c-1.4-15.74-8.9-18.88-8.9-18.88s-7.25-4.35-14.87,1.19c-4.95,4.5-6.09,11.37-6.87,18.01     c-0.39,3.37,4.88,3.33,5.27,0c0.47-3.96,1.13-7.94,3.1-11.33l-0.01,3.82L8.35,43.03v14.58c0,1.57,1.15,2.84,2.76,2.84     c1.61,0,2.92-1.27,2.92-2.84V36.78h2.58c0,4.88,0,16.03,0,20.9c0,3.4,5.27,3.4,5.27,0c0-4.88,0-9.76,0-14.64l0.22-18.41     c0-1.76,0.01-3.32,0.01-4.42c2.1,3.45,2.8,7.55,3.28,11.63C25.79,35.17,31.06,35.2,30.67,31.84z"
   id="path96" />
		</g>
	</g>
</g>
<g
   id="g112">
	<g
   id="g110">
		<g
   id="g108">
			<circle
   class="st0"
   cx="521.51"
   cy="47.7"
   r="4.97"
   id="circle104" />
			<path
   class="st0"
   d="M536.83,74.57c-1.4-15.74-8.9-18.88-8.9-18.88s-7.25-4.35-14.87,1.19c-4.95,4.5-6.09,11.37-6.87,18.01     c-0.39,3.37,4.88,3.33,5.27,0c0.47-3.96,1.14-7.94,3.1-11.33l-0.01,3.82l-0.04,18.38v14.58c0,1.57,1.15,2.84,2.76,2.84     c1.61,0,2.92-1.27,2.92-2.84V79.52h2.58c0,4.88,0,16.03,0,20.9c0,3.4,5.27,3.4,5.27,0c0-4.88,0-9.76,0-14.64l0.22-18.41     c0-1.76,0.01-3.32,0.01-4.42c2.1,3.45,2.8,7.55,3.28,11.63C531.95,77.91,537.22,77.94,536.83,74.57z"
   id="path106" />
		</g>
	</g>
</g>
<g
   id="g122">
	<g
   id="g120">
		<g
   id="g118">
			<circle
   class="st0"
   cx="479.18"
   cy="47.7"
   r="4.97"
   id="circle114" />
			<path
   class="st0"
   d="M494.51,74.57c-1.4-15.74-8.9-18.88-8.9-18.88s-7.25-4.35-14.87,1.19c-4.95,4.5-6.09,11.37-6.87,18.01     c-0.39,3.37,4.88,3.33,5.27,0c0.47-3.96,1.14-7.94,3.1-11.33l-0.01,3.82l-0.04,18.38v14.58c0,1.57,1.15,2.84,2.76,2.84     c1.61,0,2.92-1.27,2.92-2.84V79.52h2.58c0,4.88,0,16.03,0,20.9c0,3.4,5.27,3.4,5.27,0c0-4.88,0-9.76,0-14.64l0.22-18.41     c0-1.76,0.01-3.32,0.01-4.42c2.1,3.45,2.8,7.55,3.28,11.63C489.63,77.91,494.9,77.94,494.51,74.57z"
   id="path116" />
		</g>
	</g>
</g>
<g
   id="g132">
	<g
   id="g130">
		<g
   id="g128">
			<circle
   class="st0"
   cx="436.86"
   cy="47.7"
   r="4.97"
   id="circle124" />
			<path
   class="st0"
   d="M452.18,74.57c-1.4-15.74-8.9-18.88-8.9-18.88s-7.25-4.35-14.87,1.19c-4.95,4.5-6.09,11.37-6.87,18.01     c-0.39,3.37,4.88,3.33,5.27,0c0.47-3.96,1.14-7.94,3.1-11.33l-0.01,3.82l-0.04,18.38v14.58c0,1.57,1.15,2.84,2.76,2.84     c1.61,0,2.92-1.27,2.92-2.84V79.52h2.58c0,4.88,0,16.03,0,20.9c0,3.4,5.27,3.4,5.27,0c0-4.88,0-9.76,0-14.64l0.22-18.41     c0-1.76,0.01-3.32,0.01-4.42c2.1,3.45,2.8,7.55,3.28,11.63C447.31,77.91,452.58,77.94,452.18,74.57z"
   id="path126" />
		</g>
	</g>
</g>
<g
   id="g142">
	<g
   id="g140">
		<g
   id="g138">
			<circle
   class="st0"
   cx="394.54"
   cy="47.7"
   r="4.97"
   id="circle134" />
			<path
   class="st0"
   d="M409.86,74.57c-1.4-15.74-8.9-18.88-8.9-18.88s-7.25-4.35-14.87,1.19c-4.95,4.5-6.09,11.37-6.87,18.01     c-0.39,3.37,4.88,3.33,5.27,0c0.47-3.96,1.14-7.94,3.1-11.33l-0.01,3.82l-0.04,18.38v14.58c0,1.57,1.15,2.84,2.76,2.84     c1.61,0,2.92-1.27,2.92-2.84V79.52h2.58c0,4.88,0,16.03,0,20.9c0,3.4,5.27,3.4,5.27,0c0-4.88,0-9.76,0-14.64l0.22-18.41     c0-1.76,0.01-3.32,0.01-4.42c2.1,3.45,2.8,7.55,3.28,11.63C404.98,77.91,410.26,77.94,409.86,74.57z"
   id="path136" />
		</g>
	</g>
</g>
<g
   id="g152">
	<g
   id="g150">
		<g
   id="g148">
			<circle
   class="st0"
   cx="352.22"
   cy="47.7"
   r="4.97"
   id="circle144" />
			<path
   class="st0"
   d="M367.54,74.57c-1.4-15.74-8.9-18.88-8.9-18.88s-7.25-4.35-14.87,1.19c-4.95,4.5-6.09,11.37-6.87,18.01     c-0.39,3.37,4.88,3.33,5.27,0c0.47-3.96,1.14-7.94,3.1-11.33l-0.01,3.82l-0.04,18.38v14.58c0,1.57,1.15,2.84,2.76,2.84     c1.61,0,2.92-1.27,2.92-2.84V79.52h2.58c0,4.88,0,16.03,0,20.9c0,3.4,5.27,3.4,5.27,0c0-4.88,0-9.76,0-14.64l0.22-18.41     c0-1.76,0.01-3.32,0.01-4.42c2.1,3.45,2.8,7.55,3.28,11.63C362.66,77.91,367.93,77.94,367.54,74.57z"
   id="path146" />
		</g>
	</g>
</g>
<g
   id="g162">
	<g
   id="g160">
		<g
   id="g158">
			<circle
   class="st0"
   cx="501.2"
   cy="5.68"
   r="4.97"
   id="circle154" />
			<path
   class="st0"
   d="M516.52,32.55c-1.4-15.74-8.9-18.88-8.9-18.88s-7.25-4.35-14.87,1.19c-4.95,4.5-6.09,11.37-6.87,18.01     c-0.39,3.37,4.88,3.33,5.27,0c0.47-3.96,1.14-7.94,3.1-11.33l-0.01,3.82l-0.04,18.38v14.58c0,1.57,1.15,2.84,2.76,2.84     c1.61,0,2.92-1.27,2.92-2.84V37.49h2.58c0,4.88,0,16.03,0,20.9c0,3.4,5.27,3.4,5.27,0c0-4.88,0-9.76,0-14.64l0.22-18.41     c0-1.76,0.01-3.32,0.01-4.42c2.1,3.45,2.8,7.55,3.28,11.63C511.64,35.88,516.91,35.92,516.52,32.55z"
   id="path156" />
		</g>
	</g>
</g>
<g
   id="g172">
	<g
   id="g170">
		<g
   id="g168">
			<circle
   class="st0"
   cx="458.88"
   cy="5.68"
   r="4.97"
   id="circle164" />
			<path
   class="st0"
   d="M474.2,32.55c-1.4-15.74-8.9-18.88-8.9-18.88s-7.25-4.35-14.87,1.19c-4.95,4.5-6.09,11.37-6.87,18.01     c-0.39,3.37,4.88,3.33,5.27,0c0.47-3.96,1.14-7.94,3.1-11.33l-0.01,3.82l-0.04,18.38v14.58c0,1.57,1.15,2.84,2.76,2.84     c1.61,0,2.92-1.27,2.92-2.84V37.49h2.58c0,4.88,0,16.03,0,20.9c0,3.4,5.27,3.4,5.27,0c0-4.88,0-9.76,0-14.64l0.22-18.41     c0-1.76,0.01-3.32,0.01-4.42c2.1,3.45,2.8,7.55,3.28,11.63C469.32,35.88,474.59,35.92,474.2,32.55z"
   id="path166" />
		</g>
	</g>
</g>
<g
   id="g182">
	<g
   id="g180">
		<g
   id="g178">
			<circle
   class="st0"
   cx="416.55"
   cy="5.68"
   r="4.97"
   id="circle174" />
			<path
   class="st0"
   d="M431.88,32.55c-1.4-15.74-8.9-18.88-8.9-18.88s-7.25-4.35-14.87,1.19c-4.95,4.5-6.09,11.37-6.87,18.01     c-0.39,3.37,4.88,3.33,5.27,0c0.47-3.96,1.13-7.94,3.1-11.33l-0.01,3.82l-0.04,18.38v14.58c0,1.57,1.15,2.84,2.76,2.84     c1.61,0,2.92-1.27,2.92-2.84V37.49h2.58c0,4.88,0,16.03,0,20.9c0,3.4,5.27,3.4,5.27,0c0-4.88,0-9.76,0-14.64l0.22-18.41     c0-1.76,0.01-3.32,0.01-4.42c2.1,3.45,2.8,7.55,3.28,11.63C427,35.88,432.27,35.92,431.88,32.55z"
   id="path176" />
		</g>
	</g>
</g>
<g
   id="g192">
	<g
   id="g190">
		<g
   id="g188">
			<circle
   class="st0"
   cx="374.23"
   cy="5.68"
   r="4.97"
   id="circle184" />
			<path
   class="st0"
   d="M389.55,32.55c-1.4-15.74-8.9-18.88-8.9-18.88s-7.25-4.35-14.87,1.19c-4.95,4.5-6.09,11.37-6.87,18.01     c-0.39,3.37,4.88,3.33,5.27,0c0.47-3.96,1.13-7.94,3.1-11.33l-0.01,3.82l-0.04,18.38v14.58c0,1.57,1.15,2.84,2.76,2.84     c1.61,0,2.92-1.27,2.92-2.84V37.49h2.58c0,4.88,0,16.03,0,20.9c0,3.4,5.27,3.4,5.27,0c0-4.88,0-9.76,0-14.64l0.22-18.41     c0-1.76,0.01-3.32,0.01-4.42c2.1,3.45,2.8,7.55,3.28,11.63C384.67,35.88,389.95,35.92,389.55,32.55z"
   id="path186" />
		</g>
	</g>
</g>
<g
   id="g202">
	<g
   id="g200">
		<g
   id="g198">
			<circle
   class="st0"
   cx="331.91"
   cy="5.68"
   r="4.97"
   id="circle194" />
			<path
   class="st0"
   d="M347.23,32.55c-1.4-15.74-8.9-18.88-8.9-18.88s-7.25-4.35-14.87,1.19c-4.95,4.5-6.09,11.37-6.87,18.01     c-0.39,3.37,4.88,3.33,5.27,0c0.47-3.96,1.14-7.94,3.1-11.33l-0.01,3.82l-0.04,18.38v14.58c0,1.57,1.15,2.84,2.76,2.84     c1.61,0,2.92-1.27,2.92-2.84V37.49h2.58c0,4.88,0,16.03,0,20.9c0,3.4,5.27,3.4,5.27,0c0-4.88,0-9.76,0-14.64l0.22-18.41     c0-1.76,0.01-3.32,0.01-4.42c2.1,3.45,2.8,7.55,3.28,11.63C342.35,35.88,347.63,35.92,347.23,32.55z"
   id="path196" />
		</g>
	</g>
</g>
<g
   id="g212">
	<g
   id="g210">
		<line
   class="st1"
   x1="233.64"
   y1="54.07"
   x2="297.56"
   y2="54.07"
   id="line204" />
		<g
   id="g208">
			<polygon
   class="st2"
   points="285.74,60.43 285.05,58.55 297.36,54.07 285.05,49.59 285.74,47.71 303.21,54.07    "
   id="polygon206" />
		</g>
	</g>
</g>
<text
   transform="matrix(1.0065,0,0,1,237.1094,44.6004)"
   id="text218"
   style="-inkscape-font-specification:'Laksaman, Normal';font-family:Laksaman;font-weight:normal;font-style:normal;font-stretch:normal;font-variant:normal;font-size:20.08682399px;text-anchor:start;text-align:start;writing-mode:lr;font-variant-ligatures:normal;font-variant-caps:normal;font-variant-numeric:normal;font-feature-settings:normal;"><tspan
     x="0"
     y="0"
     class="st2 st3 st4"
     id="tspan214"
     style="font-size:20.08682399px;font-family:Laksaman;fill:#909090;-inkscape-font-specification:'Laksaman, Normal';font-weight:normal;font-style:normal;font-stretch:normal;font-variant:normal;text-anchor:start;text-align:start;writing-mode:lr;font-variant-ligatures:normal;font-variant-caps:normal;font-variant-numeric:normal;font-feature-settings:normal;">Drug</tspan><tspan
     x="0"
     y="29"
     class="st2 st3 st4"
     id="tspan216"
     style="font-size:20.08682399px;font-family:Laksaman;fill:#909090;-inkscape-font-specification:'Laksaman, Normal';font-weight:normal;font-style:normal;font-stretch:normal;font-variant:normal;text-anchor:start;text-align:start;writing-mode:lr;font-variant-ligatures:normal;font-variant-caps:normal;font-variant-numeric:normal;font-feature-settings:normal;">Time</tspan></text>

</svg>