<?xml version="1.0" encoding="utf-8" standalone="no"?>
<!DOCTYPE svg PUBLIC "-//W3C//DTD SVG 1.1//EN"
  "http://www.w3.org/Graphics/SVG/1.1/DTD/svg11.dtd">
<!-- Created with matplotlib (https://matplotlib.org/) -->
<svg height="265.69625pt" version="1.1" viewBox="0 0 389.28125 265.69625" width="389.28125pt" xmlns="http://www.w3.org/2000/svg" xmlns:xlink="http://www.w3.org/1999/xlink">
 <defs>
  <style type="text/css">
*{stroke-linecap:butt;stroke-linejoin:round;}
  </style>
 </defs>
 <g id="figure_1">
  <g id="patch_1">
   <path d="M 0 265.69625 
L 389.28125 265.69625 
L 389.28125 0 
L 0 0 
z
" style="fill:none;"/>
  </g>
  <g id="axes_1">
   <g id="patch_2">
    <path d="M 43.78125 228.14 
L 378.58125 228.14 
L 378.58125 10.7 
L 43.78125 10.7 
z
" style="fill:none;"/>
   </g>
   <g id="matplotlib.axis_1">
    <g id="xtick_1">
     <g id="line2d_1">
      <defs>
       <path d="M 0 0 
L 0 3.5 
" id="m6283b39216" style="stroke:#262626;stroke-width:0.8;"/>
      </defs>
      <g>
       <use style="fill:#262626;stroke:#262626;stroke-width:0.8;" x="58.999432" xlink:href="#m6283b39216" y="228.14"/>
      </g>
     </g>
     <g id="text_1">
      <!-- 0 -->
      <defs>
       <path d="M 31.78125 66.40625 
Q 24.171875 66.40625 20.328125 58.90625 
Q 16.5 51.421875 16.5 36.375 
Q 16.5 21.390625 20.328125 13.890625 
Q 24.171875 6.390625 31.78125 6.390625 
Q 39.453125 6.390625 43.28125 13.890625 
Q 47.125 21.390625 47.125 36.375 
Q 47.125 51.421875 43.28125 58.90625 
Q 39.453125 66.40625 31.78125 66.40625 
z
M 31.78125 74.21875 
Q 44.046875 74.21875 50.515625 64.515625 
Q 56.984375 54.828125 56.984375 36.375 
Q 56.984375 17.96875 50.515625 8.265625 
Q 44.046875 -1.421875 31.78125 -1.421875 
Q 19.53125 -1.421875 13.0625 8.265625 
Q 6.59375 17.96875 6.59375 36.375 
Q 6.59375 54.828125 13.0625 64.515625 
Q 19.53125 74.21875 31.78125 74.21875 
z
" id="DejaVuSans-48"/>
      </defs>
      <g style="fill:#262626;" transform="translate(55.818182 242.738437)scale(0.1 -0.1)">
       <use xlink:href="#DejaVuSans-48"/>
      </g>
     </g>
    </g>
    <g id="xtick_2">
     <g id="line2d_2">
      <g>
       <use style="fill:#262626;stroke:#262626;stroke-width:0.8;" x="119.872159" xlink:href="#m6283b39216" y="228.14"/>
      </g>
     </g>
     <g id="text_2">
      <!-- 20 -->
      <defs>
       <path d="M 19.1875 8.296875 
L 53.609375 8.296875 
L 53.609375 0 
L 7.328125 0 
L 7.328125 8.296875 
Q 12.9375 14.109375 22.625 23.890625 
Q 32.328125 33.6875 34.8125 36.53125 
Q 39.546875 41.84375 41.421875 45.53125 
Q 43.3125 49.21875 43.3125 52.78125 
Q 43.3125 58.59375 39.234375 62.25 
Q 35.15625 65.921875 28.609375 65.921875 
Q 23.96875 65.921875 18.8125 64.3125 
Q 13.671875 62.703125 7.8125 59.421875 
L 7.8125 69.390625 
Q 13.765625 71.78125 18.9375 73 
Q 24.125 74.21875 28.421875 74.21875 
Q 39.75 74.21875 46.484375 68.546875 
Q 53.21875 62.890625 53.21875 53.421875 
Q 53.21875 48.921875 51.53125 44.890625 
Q 49.859375 40.875 45.40625 35.40625 
Q 44.1875 33.984375 37.640625 27.21875 
Q 31.109375 20.453125 19.1875 8.296875 
z
" id="DejaVuSans-50"/>
      </defs>
      <g style="fill:#262626;" transform="translate(113.509659 242.738437)scale(0.1 -0.1)">
       <use xlink:href="#DejaVuSans-50"/>
       <use x="63.623047" xlink:href="#DejaVuSans-48"/>
      </g>
     </g>
    </g>
    <g id="xtick_3">
     <g id="line2d_3">
      <g>
       <use style="fill:#262626;stroke:#262626;stroke-width:0.8;" x="180.744886" xlink:href="#m6283b39216" y="228.14"/>
      </g>
     </g>
     <g id="text_3">
      <!-- 40 -->
      <defs>
       <path d="M 37.796875 64.3125 
L 12.890625 25.390625 
L 37.796875 25.390625 
z
M 35.203125 72.90625 
L 47.609375 72.90625 
L 47.609375 25.390625 
L 58.015625 25.390625 
L 58.015625 17.1875 
L 47.609375 17.1875 
L 47.609375 0 
L 37.796875 0 
L 37.796875 17.1875 
L 4.890625 17.1875 
L 4.890625 26.703125 
z
" id="DejaVuSans-52"/>
      </defs>
      <g style="fill:#262626;" transform="translate(174.382386 242.738437)scale(0.1 -0.1)">
       <use xlink:href="#DejaVuSans-52"/>
       <use x="63.623047" xlink:href="#DejaVuSans-48"/>
      </g>
     </g>
    </g>
    <g id="xtick_4">
     <g id="line2d_4">
      <g>
       <use style="fill:#262626;stroke:#262626;stroke-width:0.8;" x="241.617614" xlink:href="#m6283b39216" y="228.14"/>
      </g>
     </g>
     <g id="text_4">
      <!-- 60 -->
      <defs>
       <path d="M 33.015625 40.375 
Q 26.375 40.375 22.484375 35.828125 
Q 18.609375 31.296875 18.609375 23.390625 
Q 18.609375 15.53125 22.484375 10.953125 
Q 26.375 6.390625 33.015625 6.390625 
Q 39.65625 6.390625 43.53125 10.953125 
Q 47.40625 15.53125 47.40625 23.390625 
Q 47.40625 31.296875 43.53125 35.828125 
Q 39.65625 40.375 33.015625 40.375 
z
M 52.59375 71.296875 
L 52.59375 62.3125 
Q 48.875 64.0625 45.09375 64.984375 
Q 41.3125 65.921875 37.59375 65.921875 
Q 27.828125 65.921875 22.671875 59.328125 
Q 17.53125 52.734375 16.796875 39.40625 
Q 19.671875 43.65625 24.015625 45.921875 
Q 28.375 48.1875 33.59375 48.1875 
Q 44.578125 48.1875 50.953125 41.515625 
Q 57.328125 34.859375 57.328125 23.390625 
Q 57.328125 12.15625 50.6875 5.359375 
Q 44.046875 -1.421875 33.015625 -1.421875 
Q 20.359375 -1.421875 13.671875 8.265625 
Q 6.984375 17.96875 6.984375 36.375 
Q 6.984375 53.65625 15.1875 63.9375 
Q 23.390625 74.21875 37.203125 74.21875 
Q 40.921875 74.21875 44.703125 73.484375 
Q 48.484375 72.75 52.59375 71.296875 
z
" id="DejaVuSans-54"/>
      </defs>
      <g style="fill:#262626;" transform="translate(235.255114 242.738437)scale(0.1 -0.1)">
       <use xlink:href="#DejaVuSans-54"/>
       <use x="63.623047" xlink:href="#DejaVuSans-48"/>
      </g>
     </g>
    </g>
    <g id="xtick_5">
     <g id="line2d_5">
      <g>
       <use style="fill:#262626;stroke:#262626;stroke-width:0.8;" x="302.490341" xlink:href="#m6283b39216" y="228.14"/>
      </g>
     </g>
     <g id="text_5">
      <!-- 80 -->
      <defs>
       <path d="M 31.78125 34.625 
Q 24.75 34.625 20.71875 30.859375 
Q 16.703125 27.09375 16.703125 20.515625 
Q 16.703125 13.921875 20.71875 10.15625 
Q 24.75 6.390625 31.78125 6.390625 
Q 38.8125 6.390625 42.859375 10.171875 
Q 46.921875 13.96875 46.921875 20.515625 
Q 46.921875 27.09375 42.890625 30.859375 
Q 38.875 34.625 31.78125 34.625 
z
M 21.921875 38.8125 
Q 15.578125 40.375 12.03125 44.71875 
Q 8.5 49.078125 8.5 55.328125 
Q 8.5 64.0625 14.71875 69.140625 
Q 20.953125 74.21875 31.78125 74.21875 
Q 42.671875 74.21875 48.875 69.140625 
Q 55.078125 64.0625 55.078125 55.328125 
Q 55.078125 49.078125 51.53125 44.71875 
Q 48 40.375 41.703125 38.8125 
Q 48.828125 37.15625 52.796875 32.3125 
Q 56.78125 27.484375 56.78125 20.515625 
Q 56.78125 9.90625 50.3125 4.234375 
Q 43.84375 -1.421875 31.78125 -1.421875 
Q 19.734375 -1.421875 13.25 4.234375 
Q 6.78125 9.90625 6.78125 20.515625 
Q 6.78125 27.484375 10.78125 32.3125 
Q 14.796875 37.15625 21.921875 38.8125 
z
M 18.3125 54.390625 
Q 18.3125 48.734375 21.84375 45.5625 
Q 25.390625 42.390625 31.78125 42.390625 
Q 38.140625 42.390625 41.71875 45.5625 
Q 45.3125 48.734375 45.3125 54.390625 
Q 45.3125 60.0625 41.71875 63.234375 
Q 38.140625 66.40625 31.78125 66.40625 
Q 25.390625 66.40625 21.84375 63.234375 
Q 18.3125 60.0625 18.3125 54.390625 
z
" id="DejaVuSans-56"/>
      </defs>
      <g style="fill:#262626;" transform="translate(296.127841 242.738437)scale(0.1 -0.1)">
       <use xlink:href="#DejaVuSans-56"/>
       <use x="63.623047" xlink:href="#DejaVuSans-48"/>
      </g>
     </g>
    </g>
    <g id="xtick_6">
     <g id="line2d_6">
      <g>
       <use style="fill:#262626;stroke:#262626;stroke-width:0.8;" x="363.363068" xlink:href="#m6283b39216" y="228.14"/>
      </g>
     </g>
     <g id="text_6">
      <!-- 100 -->
      <defs>
       <path d="M 12.40625 8.296875 
L 28.515625 8.296875 
L 28.515625 63.921875 
L 10.984375 60.40625 
L 10.984375 69.390625 
L 28.421875 72.90625 
L 38.28125 72.90625 
L 38.28125 8.296875 
L 54.390625 8.296875 
L 54.390625 0 
L 12.40625 0 
z
" id="DejaVuSans-49"/>
      </defs>
      <g style="fill:#262626;" transform="translate(353.819318 242.738437)scale(0.1 -0.1)">
       <use xlink:href="#DejaVuSans-49"/>
       <use x="63.623047" xlink:href="#DejaVuSans-48"/>
       <use x="127.246094" xlink:href="#DejaVuSans-48"/>
      </g>
     </g>
    </g>
    <g id="text_7">
     <!-- N samples -->
     <defs>
      <path d="M 9.8125 72.90625 
L 23.09375 72.90625 
L 55.421875 11.921875 
L 55.421875 72.90625 
L 64.984375 72.90625 
L 64.984375 0 
L 51.703125 0 
L 19.390625 60.984375 
L 19.390625 0 
L 9.8125 0 
z
" id="DejaVuSans-78"/>
      <path id="DejaVuSans-32"/>
      <path d="M 44.28125 53.078125 
L 44.28125 44.578125 
Q 40.484375 46.53125 36.375 47.5 
Q 32.28125 48.484375 27.875 48.484375 
Q 21.1875 48.484375 17.84375 46.4375 
Q 14.5 44.390625 14.5 40.28125 
Q 14.5 37.15625 16.890625 35.375 
Q 19.28125 33.59375 26.515625 31.984375 
L 29.59375 31.296875 
Q 39.15625 29.25 43.1875 25.515625 
Q 47.21875 21.78125 47.21875 15.09375 
Q 47.21875 7.46875 41.1875 3.015625 
Q 35.15625 -1.421875 24.609375 -1.421875 
Q 20.21875 -1.421875 15.453125 -0.5625 
Q 10.6875 0.296875 5.421875 2 
L 5.421875 11.28125 
Q 10.40625 8.6875 15.234375 7.390625 
Q 20.0625 6.109375 24.8125 6.109375 
Q 31.15625 6.109375 34.5625 8.28125 
Q 37.984375 10.453125 37.984375 14.40625 
Q 37.984375 18.0625 35.515625 20.015625 
Q 33.0625 21.96875 24.703125 23.78125 
L 21.578125 24.515625 
Q 13.234375 26.265625 9.515625 29.90625 
Q 5.8125 33.546875 5.8125 39.890625 
Q 5.8125 47.609375 11.28125 51.796875 
Q 16.75 56 26.8125 56 
Q 31.78125 56 36.171875 55.265625 
Q 40.578125 54.546875 44.28125 53.078125 
z
" id="DejaVuSans-115"/>
      <path d="M 34.28125 27.484375 
Q 23.390625 27.484375 19.1875 25 
Q 14.984375 22.515625 14.984375 16.5 
Q 14.984375 11.71875 18.140625 8.90625 
Q 21.296875 6.109375 26.703125 6.109375 
Q 34.1875 6.109375 38.703125 11.40625 
Q 43.21875 16.703125 43.21875 25.484375 
L 43.21875 27.484375 
z
M 52.203125 31.203125 
L 52.203125 0 
L 43.21875 0 
L 43.21875 8.296875 
Q 40.140625 3.328125 35.546875 0.953125 
Q 30.953125 -1.421875 24.3125 -1.421875 
Q 15.921875 -1.421875 10.953125 3.296875 
Q 6 8.015625 6 15.921875 
Q 6 25.140625 12.171875 29.828125 
Q 18.359375 34.515625 30.609375 34.515625 
L 43.21875 34.515625 
L 43.21875 35.40625 
Q 43.21875 41.609375 39.140625 45 
Q 35.0625 48.390625 27.6875 48.390625 
Q 23 48.390625 18.546875 47.265625 
Q 14.109375 46.140625 10.015625 43.890625 
L 10.015625 52.203125 
Q 14.9375 54.109375 19.578125 55.046875 
Q 24.21875 56 28.609375 56 
Q 40.484375 56 46.34375 49.84375 
Q 52.203125 43.703125 52.203125 31.203125 
z
" id="DejaVuSans-97"/>
      <path d="M 52 44.1875 
Q 55.375 50.25 60.0625 53.125 
Q 64.75 56 71.09375 56 
Q 79.640625 56 84.28125 50.015625 
Q 88.921875 44.046875 88.921875 33.015625 
L 88.921875 0 
L 79.890625 0 
L 79.890625 32.71875 
Q 79.890625 40.578125 77.09375 44.375 
Q 74.3125 48.1875 68.609375 48.1875 
Q 61.625 48.1875 57.5625 43.546875 
Q 53.515625 38.921875 53.515625 30.90625 
L 53.515625 0 
L 44.484375 0 
L 44.484375 32.71875 
Q 44.484375 40.625 41.703125 44.40625 
Q 38.921875 48.1875 33.109375 48.1875 
Q 26.21875 48.1875 22.15625 43.53125 
Q 18.109375 38.875 18.109375 30.90625 
L 18.109375 0 
L 9.078125 0 
L 9.078125 54.6875 
L 18.109375 54.6875 
L 18.109375 46.1875 
Q 21.1875 51.21875 25.484375 53.609375 
Q 29.78125 56 35.6875 56 
Q 41.65625 56 45.828125 52.96875 
Q 50 49.953125 52 44.1875 
z
" id="DejaVuSans-109"/>
      <path d="M 18.109375 8.203125 
L 18.109375 -20.796875 
L 9.078125 -20.796875 
L 9.078125 54.6875 
L 18.109375 54.6875 
L 18.109375 46.390625 
Q 20.953125 51.265625 25.265625 53.625 
Q 29.59375 56 35.59375 56 
Q 45.5625 56 51.78125 48.09375 
Q 58.015625 40.1875 58.015625 27.296875 
Q 58.015625 14.40625 51.78125 6.484375 
Q 45.5625 -1.421875 35.59375 -1.421875 
Q 29.59375 -1.421875 25.265625 0.953125 
Q 20.953125 3.328125 18.109375 8.203125 
z
M 48.6875 27.296875 
Q 48.6875 37.203125 44.609375 42.84375 
Q 40.53125 48.484375 33.40625 48.484375 
Q 26.265625 48.484375 22.1875 42.84375 
Q 18.109375 37.203125 18.109375 27.296875 
Q 18.109375 17.390625 22.1875 11.75 
Q 26.265625 6.109375 33.40625 6.109375 
Q 40.53125 6.109375 44.609375 11.75 
Q 48.6875 17.390625 48.6875 27.296875 
z
" id="DejaVuSans-112"/>
      <path d="M 9.421875 75.984375 
L 18.40625 75.984375 
L 18.40625 0 
L 9.421875 0 
z
" id="DejaVuSans-108"/>
      <path d="M 56.203125 29.59375 
L 56.203125 25.203125 
L 14.890625 25.203125 
Q 15.484375 15.921875 20.484375 11.0625 
Q 25.484375 6.203125 34.421875 6.203125 
Q 39.59375 6.203125 44.453125 7.46875 
Q 49.3125 8.734375 54.109375 11.28125 
L 54.109375 2.78125 
Q 49.265625 0.734375 44.1875 -0.34375 
Q 39.109375 -1.421875 33.890625 -1.421875 
Q 20.796875 -1.421875 13.15625 6.1875 
Q 5.515625 13.8125 5.515625 26.8125 
Q 5.515625 40.234375 12.765625 48.109375 
Q 20.015625 56 32.328125 56 
Q 43.359375 56 49.78125 48.890625 
Q 56.203125 41.796875 56.203125 29.59375 
z
M 47.21875 32.234375 
Q 47.125 39.59375 43.09375 43.984375 
Q 39.0625 48.390625 32.421875 48.390625 
Q 24.90625 48.390625 20.390625 44.140625 
Q 15.875 39.890625 15.1875 32.171875 
z
" id="DejaVuSans-101"/>
     </defs>
     <g style="fill:#262626;" transform="translate(185.067969 256.416562)scale(0.1 -0.1)">
      <use xlink:href="#DejaVuSans-78"/>
      <use x="74.804688" xlink:href="#DejaVuSans-32"/>
      <use x="106.591797" xlink:href="#DejaVuSans-115"/>
      <use x="158.691406" xlink:href="#DejaVuSans-97"/>
      <use x="219.970703" xlink:href="#DejaVuSans-109"/>
      <use x="317.382812" xlink:href="#DejaVuSans-112"/>
      <use x="380.859375" xlink:href="#DejaVuSans-108"/>
      <use x="408.642578" xlink:href="#DejaVuSans-101"/>
      <use x="470.166016" xlink:href="#DejaVuSans-115"/>
     </g>
    </g>
   </g>
   <g id="matplotlib.axis_2">
    <g id="ytick_1">
     <g id="line2d_7">
      <defs>
       <path d="M 0 0 
L -3.5 0 
" id="m375ead852b" style="stroke:#262626;stroke-width:0.8;"/>
      </defs>
      <g>
       <use style="fill:#262626;stroke:#262626;stroke-width:0.8;" x="43.78125" xlink:href="#m375ead852b" y="218.256364"/>
      </g>
     </g>
     <g id="text_8">
      <!-- 0.0 -->
      <defs>
       <path d="M 10.6875 12.40625 
L 21 12.40625 
L 21 0 
L 10.6875 0 
z
" id="DejaVuSans-46"/>
      </defs>
      <g style="fill:#262626;" transform="translate(20.878125 222.055582)scale(0.1 -0.1)">
       <use xlink:href="#DejaVuSans-48"/>
       <use x="63.623047" xlink:href="#DejaVuSans-46"/>
       <use x="95.410156" xlink:href="#DejaVuSans-48"/>
      </g>
     </g>
    </g>
    <g id="ytick_2">
     <g id="line2d_8">
      <g>
       <use style="fill:#262626;stroke:#262626;stroke-width:0.8;" x="43.78125" xlink:href="#m375ead852b" y="181.480771"/>
      </g>
     </g>
     <g id="text_9">
      <!-- 0.1 -->
      <g style="fill:#262626;" transform="translate(20.878125 185.27999)scale(0.1 -0.1)">
       <use xlink:href="#DejaVuSans-48"/>
       <use x="63.623047" xlink:href="#DejaVuSans-46"/>
       <use x="95.410156" xlink:href="#DejaVuSans-49"/>
      </g>
     </g>
    </g>
    <g id="ytick_3">
     <g id="line2d_9">
      <g>
       <use style="fill:#262626;stroke:#262626;stroke-width:0.8;" x="43.78125" xlink:href="#m375ead852b" y="144.705179"/>
      </g>
     </g>
     <g id="text_10">
      <!-- 0.2 -->
      <g style="fill:#262626;" transform="translate(20.878125 148.504397)scale(0.1 -0.1)">
       <use xlink:href="#DejaVuSans-48"/>
       <use x="63.623047" xlink:href="#DejaVuSans-46"/>
       <use x="95.410156" xlink:href="#DejaVuSans-50"/>
      </g>
     </g>
    </g>
    <g id="ytick_4">
     <g id="line2d_10">
      <g>
       <use style="fill:#262626;stroke:#262626;stroke-width:0.8;" x="43.78125" xlink:href="#m375ead852b" y="107.929586"/>
      </g>
     </g>
     <g id="text_11">
      <!-- 0.3 -->
      <defs>
       <path d="M 40.578125 39.3125 
Q 47.65625 37.796875 51.625 33 
Q 55.609375 28.21875 55.609375 21.1875 
Q 55.609375 10.40625 48.1875 4.484375 
Q 40.765625 -1.421875 27.09375 -1.421875 
Q 22.515625 -1.421875 17.65625 -0.515625 
Q 12.796875 0.390625 7.625 2.203125 
L 7.625 11.71875 
Q 11.71875 9.328125 16.59375 8.109375 
Q 21.484375 6.890625 26.8125 6.890625 
Q 36.078125 6.890625 40.9375 10.546875 
Q 45.796875 14.203125 45.796875 21.1875 
Q 45.796875 27.640625 41.28125 31.265625 
Q 36.765625 34.90625 28.71875 34.90625 
L 20.21875 34.90625 
L 20.21875 43.015625 
L 29.109375 43.015625 
Q 36.375 43.015625 40.234375 45.921875 
Q 44.09375 48.828125 44.09375 54.296875 
Q 44.09375 59.90625 40.109375 62.90625 
Q 36.140625 65.921875 28.71875 65.921875 
Q 24.65625 65.921875 20.015625 65.03125 
Q 15.375 64.15625 9.8125 62.3125 
L 9.8125 71.09375 
Q 15.4375 72.65625 20.34375 73.4375 
Q 25.25 74.21875 29.59375 74.21875 
Q 40.828125 74.21875 47.359375 69.109375 
Q 53.90625 64.015625 53.90625 55.328125 
Q 53.90625 49.265625 50.4375 45.09375 
Q 46.96875 40.921875 40.578125 39.3125 
z
" id="DejaVuSans-51"/>
      </defs>
      <g style="fill:#262626;" transform="translate(20.878125 111.728805)scale(0.1 -0.1)">
       <use xlink:href="#DejaVuSans-48"/>
       <use x="63.623047" xlink:href="#DejaVuSans-46"/>
       <use x="95.410156" xlink:href="#DejaVuSans-51"/>
      </g>
     </g>
    </g>
    <g id="ytick_5">
     <g id="line2d_11">
      <g>
       <use style="fill:#262626;stroke:#262626;stroke-width:0.8;" x="43.78125" xlink:href="#m375ead852b" y="71.153993"/>
      </g>
     </g>
     <g id="text_12">
      <!-- 0.4 -->
      <g style="fill:#262626;" transform="translate(20.878125 74.953212)scale(0.1 -0.1)">
       <use xlink:href="#DejaVuSans-48"/>
       <use x="63.623047" xlink:href="#DejaVuSans-46"/>
       <use x="95.410156" xlink:href="#DejaVuSans-52"/>
      </g>
     </g>
    </g>
    <g id="ytick_6">
     <g id="line2d_12">
      <g>
       <use style="fill:#262626;stroke:#262626;stroke-width:0.8;" x="43.78125" xlink:href="#m375ead852b" y="34.378401"/>
      </g>
     </g>
     <g id="text_13">
      <!-- 0.5 -->
      <defs>
       <path d="M 10.796875 72.90625 
L 49.515625 72.90625 
L 49.515625 64.59375 
L 19.828125 64.59375 
L 19.828125 46.734375 
Q 21.96875 47.46875 24.109375 47.828125 
Q 26.265625 48.1875 28.421875 48.1875 
Q 40.625 48.1875 47.75 41.5 
Q 54.890625 34.8125 54.890625 23.390625 
Q 54.890625 11.625 47.5625 5.09375 
Q 40.234375 -1.421875 26.90625 -1.421875 
Q 22.3125 -1.421875 17.546875 -0.640625 
Q 12.796875 0.140625 7.71875 1.703125 
L 7.71875 11.625 
Q 12.109375 9.234375 16.796875 8.0625 
Q 21.484375 6.890625 26.703125 6.890625 
Q 35.15625 6.890625 40.078125 11.328125 
Q 45.015625 15.765625 45.015625 23.390625 
Q 45.015625 31 40.078125 35.4375 
Q 35.15625 39.890625 26.703125 39.890625 
Q 22.75 39.890625 18.8125 39.015625 
Q 14.890625 38.140625 10.796875 36.28125 
z
" id="DejaVuSans-53"/>
      </defs>
      <g style="fill:#262626;" transform="translate(20.878125 38.17762)scale(0.1 -0.1)">
       <use xlink:href="#DejaVuSans-48"/>
       <use x="63.623047" xlink:href="#DejaVuSans-46"/>
       <use x="95.410156" xlink:href="#DejaVuSans-53"/>
      </g>
     </g>
    </g>
    <g id="text_14">
     <!-- p-value -->
     <defs>
      <path d="M 4.890625 31.390625 
L 31.203125 31.390625 
L 31.203125 23.390625 
L 4.890625 23.390625 
z
" id="DejaVuSans-45"/>
      <path d="M 2.984375 54.6875 
L 12.5 54.6875 
L 29.59375 8.796875 
L 46.6875 54.6875 
L 56.203125 54.6875 
L 35.6875 0 
L 23.484375 0 
z
" id="DejaVuSans-118"/>
      <path d="M 8.5 21.578125 
L 8.5 54.6875 
L 17.484375 54.6875 
L 17.484375 21.921875 
Q 17.484375 14.15625 20.5 10.265625 
Q 23.53125 6.390625 29.59375 6.390625 
Q 36.859375 6.390625 41.078125 11.03125 
Q 45.3125 15.671875 45.3125 23.6875 
L 45.3125 54.6875 
L 54.296875 54.6875 
L 54.296875 0 
L 45.3125 0 
L 45.3125 8.40625 
Q 42.046875 3.421875 37.71875 1 
Q 33.40625 -1.421875 27.6875 -1.421875 
Q 18.265625 -1.421875 13.375 4.4375 
Q 8.5 10.296875 8.5 21.578125 
z
M 31.109375 56 
z
" id="DejaVuSans-117"/>
     </defs>
     <g style="fill:#262626;" transform="translate(14.798438 138.054375)rotate(-90)scale(0.1 -0.1)">
      <use xlink:href="#DejaVuSans-112"/>
      <use x="63.476562" xlink:href="#DejaVuSans-45"/>
      <use x="99.529297" xlink:href="#DejaVuSans-118"/>
      <use x="158.708984" xlink:href="#DejaVuSans-97"/>
      <use x="219.988281" xlink:href="#DejaVuSans-108"/>
      <use x="247.771484" xlink:href="#DejaVuSans-117"/>
      <use x="311.150391" xlink:href="#DejaVuSans-101"/>
     </g>
    </g>
   </g>
   <g id="PolyCollection_1">
    <defs>
     <path d="M 74.217614 -234.321024 
L 74.217614 -220.590329 
L 77.26125 -228.534443 
L 80.304886 -222.978299 
L 83.348523 -229.484674 
L 86.392159 -224.965735 
L 89.435795 -229.740351 
L 92.479432 -231.796123 
L 95.523068 -222.03608 
L 98.566705 -219.58478 
L 101.610341 -227.873397 
L 104.653977 -224.391839 
L 107.697614 -229.564268 
L 110.74125 -222.766003 
L 113.784886 -230.041912 
L 116.828523 -227.838481 
L 119.872159 -224.912156 
L 122.915795 -223.582279 
L 125.959432 -228.002504 
L 129.003068 -225.85336 
L 132.046705 -224.305855 
L 135.090341 -224.684349 
L 138.133977 -224.582715 
L 141.177614 -229.714301 
L 144.22125 -225.222442 
L 147.264886 -232.010206 
L 150.308523 -220.131597 
L 153.352159 -222.422371 
L 156.395795 -222.490606 
L 159.439432 -228.995691 
L 162.483068 -221.391128 
L 165.526705 -224.496509 
L 168.570341 -221.473388 
L 171.613977 -228.321946 
L 174.657614 -222.307808 
L 177.70125 -230.003844 
L 180.744886 -219.617962 
L 183.788523 -222.897875 
L 186.832159 -227.430438 
L 189.875795 -225.989484 
L 192.919432 -222.665683 
L 195.963068 -226.290458 
L 199.006705 -227.093209 
L 202.050341 -224.690004 
L 205.093977 -218.841269 
L 208.137614 -225.120029 
L 211.18125 -225.791869 
L 214.224886 -223.344209 
L 217.268523 -225.890474 
L 220.312159 -224.646048 
L 223.355795 -224.980236 
L 226.399432 -227.204697 
L 229.443068 -221.60736 
L 232.486705 -220.392951 
L 235.530341 -224.425729 
L 238.573977 -231.39957 
L 241.617614 -222.936118 
L 244.66125 -231.168936 
L 247.704886 -226.324486 
L 250.748523 -219.636245 
L 253.792159 -227.185295 
L 256.835795 -225.979288 
L 259.879432 -222.603169 
L 262.923068 -228.461102 
L 265.966705 -223.188692 
L 269.010341 -221.493619 
L 272.053977 -222.715894 
L 275.097614 -222.292426 
L 278.14125 -221.229511 
L 281.184886 -231.921194 
L 284.228523 -225.056026 
L 287.272159 -227.995628 
L 290.315795 -221.853921 
L 293.359432 -225.108402 
L 296.403068 -223.361474 
L 299.446705 -224.183151 
L 302.490341 -221.040322 
L 305.533977 -220.005101 
L 308.577614 -223.29492 
L 311.62125 -224.239233 
L 314.664886 -220.259956 
L 317.708523 -221.875651 
L 320.752159 -226.417774 
L 323.795795 -226.924695 
L 326.839432 -226.674685 
L 329.883068 -222.273944 
L 332.926705 -229.132856 
L 335.970341 -218.378202 
L 339.013977 -227.232241 
L 342.057614 -227.579531 
L 345.10125 -225.256461 
L 348.144886 -222.274946 
L 351.188523 -226.22697 
L 354.232159 -226.166395 
L 357.275795 -228.486075 
L 360.319432 -229.018656 
L 360.319432 -242.384046 
L 360.319432 -242.384046 
L 357.275795 -241.668098 
L 354.232159 -239.549549 
L 351.188523 -239.225407 
L 348.144886 -235.124497 
L 345.10125 -238.261703 
L 342.057614 -240.389128 
L 339.013977 -240.836858 
L 335.970341 -231.171628 
L 332.926705 -241.773797 
L 329.883068 -235.531502 
L 326.839432 -239.52235 
L 323.795795 -239.992983 
L 320.752159 -239.12274 
L 317.708523 -235.74243 
L 314.664886 -232.275938 
L 311.62125 -237.240678 
L 308.577614 -236.810462 
L 305.533977 -232.779639 
L 302.490341 -233.204873 
L 299.446705 -237.309645 
L 296.403068 -235.833997 
L 293.359432 -238.224234 
L 290.315795 -235.198448 
L 287.272159 -241.353848 
L 284.228523 -238.675224 
L 281.184886 -243.729398 
L 278.14125 -234.123223 
L 275.097614 -234.922758 
L 272.053977 -236.20313 
L 269.010341 -234.627325 
L 265.966705 -236.223663 
L 262.923068 -241.40279 
L 259.879432 -235.339179 
L 256.835795 -238.744471 
L 253.792159 -240.101167 
L 250.748523 -233.141607 
L 247.704886 -238.932867 
L 244.66125 -243.970587 
L 241.617614 -236.51562 
L 238.573977 -245.112614 
L 235.530341 -236.947718 
L 232.486705 -234.186198 
L 229.443068 -234.799484 
L 226.399432 -240.377847 
L 223.355795 -237.560939 
L 220.312159 -237.364504 
L 217.268523 -239.384046 
L 214.224886 -236.98585 
L 211.18125 -237.940585 
L 208.137614 -238.006586 
L 205.093977 -232.300381 
L 202.050341 -237.782858 
L 199.006705 -239.88995 
L 195.963068 -238.759488 
L 192.919432 -235.28396 
L 189.875795 -239.459334 
L 186.832159 -240.788302 
L 183.788523 -235.2827 
L 180.744886 -232.386275 
L 177.70125 -243.562225 
L 174.657614 -235.630097 
L 171.613977 -241.229639 
L 168.570341 -235.131746 
L 165.526705 -237.597915 
L 162.483068 -235.241531 
L 159.439432 -241.701906 
L 156.395795 -235.948015 
L 153.352159 -235.335902 
L 150.308523 -233.688721 
L 147.264886 -244.531857 
L 144.22125 -238.390027 
L 141.177614 -243.811361 
L 138.133977 -237.81745 
L 135.090341 -237.726947 
L 132.046705 -237.587825 
L 129.003068 -239.70268 
L 125.959432 -241.287966 
L 122.915795 -237.090251 
L 119.872159 -238.007254 
L 116.828523 -240.920123 
L 113.784886 -243.021356 
L 110.74125 -237.13928 
L 107.697614 -242.523321 
L 104.653977 -237.12128 
L 101.610341 -240.944204 
L 98.566705 -231.827071 
L 95.523068 -235.384348 
L 92.479432 -245.033502 
L 89.435795 -242.201603 
L 86.392159 -237.023911 
L 83.348523 -241.805672 
L 80.304886 -235.999093 
L 77.26125 -242.273937 
L 74.217614 -234.321024 
z
" id="m5b225c861a" style="stroke:#909090;stroke-opacity:0.2;"/>
    </defs>
    <g clip-path="url(#p299e35fa39)">
     <use style="fill:#909090;fill-opacity:0.2;stroke:#909090;stroke-opacity:0.2;" x="0" xlink:href="#m5b225c861a" y="265.69625"/>
    </g>
   </g>
   <g id="PolyCollection_2">
    <defs>
     <path d="M 74.217614 -185.450786 
L 74.217614 -172.953205 
L 77.26125 -163.154986 
L 80.304886 -151.889636 
L 83.348523 -146.907268 
L 86.392159 -138.627947 
L 89.435795 -130.849266 
L 92.479432 -123.573662 
L 95.523068 -114.826012 
L 98.566705 -110.765222 
L 101.610341 -112.196476 
L 104.653977 -101.724494 
L 107.697614 -103.528354 
L 110.74125 -97.270148 
L 113.784886 -91.71351 
L 116.828523 -92.441529 
L 119.872159 -86.447277 
L 122.915795 -82.274272 
L 125.959432 -78.944213 
L 129.003068 -79.852037 
L 132.046705 -74.224996 
L 135.090341 -75.502477 
L 138.133977 -72.213316 
L 141.177614 -70.683104 
L 144.22125 -67.431044 
L 147.264886 -65.785974 
L 150.308523 -65.849923 
L 153.352159 -62.283427 
L 156.395795 -64.473668 
L 159.439432 -62.373875 
L 162.483068 -61.333607 
L 165.526705 -58.789827 
L 168.570341 -59.640973 
L 171.613977 -58.70655 
L 174.657614 -57.4386 
L 177.70125 -57.75357 
L 180.744886 -57.129142 
L 183.788523 -55.513233 
L 186.832159 -54.954076 
L 189.875795 -53.879126 
L 192.919432 -54.735544 
L 195.963068 -52.579541 
L 199.006705 -52.259758 
L 202.050341 -52.363175 
L 205.093977 -53.180318 
L 208.137614 -52.247868 
L 211.18125 -51.756863 
L 214.224886 -51.834403 
L 217.268523 -50.941577 
L 220.312159 -50.498825 
L 223.355795 -49.888124 
L 226.399432 -50.404204 
L 229.443068 -49.929973 
L 232.486705 -50.220616 
L 235.530341 -49.792493 
L 238.573977 -49.677262 
L 241.617614 -49.490725 
L 244.66125 -49.265326 
L 247.704886 -49.213926 
L 250.748523 -49.351933 
L 253.792159 -49.152917 
L 256.835795 -49.041083 
L 259.879432 -48.955646 
L 262.923068 -48.539888 
L 265.966705 -48.619498 
L 269.010341 -48.510901 
L 272.053977 -48.281618 
L 275.097614 -47.978533 
L 278.14125 -48.164074 
L 281.184886 -48.039867 
L 284.228523 -48.19949 
L 287.272159 -48.266053 
L 290.315795 -47.933173 
L 293.359432 -47.94073 
L 296.403068 -47.936244 
L 299.446705 -48.007809 
L 302.490341 -47.985264 
L 305.533977 -47.786441 
L 308.577614 -47.873768 
L 311.62125 -47.797926 
L 314.664886 -47.758992 
L 317.708523 -47.78071 
L 320.752159 -47.767696 
L 323.795795 -47.622426 
L 326.839432 -47.766441 
L 329.883068 -47.684274 
L 332.926705 -47.660385 
L 335.970341 -47.6978 
L 339.013977 -47.629813 
L 342.057614 -47.62462 
L 345.10125 -47.597685 
L 348.144886 -47.688316 
L 351.188523 -47.551302 
L 354.232159 -47.558456 
L 357.275795 -47.571371 
L 360.319432 -47.529471 
L 360.319432 -47.638444 
L 360.319432 -47.638444 
L 357.275795 -48.003657 
L 354.232159 -47.725294 
L 351.188523 -47.667835 
L 348.144886 -48.035318 
L 345.10125 -47.728292 
L 342.057614 -47.932906 
L 339.013977 -48.283035 
L 335.970341 -47.998524 
L 332.926705 -47.841887 
L 329.883068 -47.97499 
L 326.839432 -48.240012 
L 323.795795 -47.774683 
L 320.752159 -48.17314 
L 317.708523 -48.114512 
L 314.664886 -48.553316 
L 311.62125 -48.245134 
L 308.577614 -48.5798 
L 305.533977 -48.098926 
L 302.490341 -49.029096 
L 299.446705 -49.072288 
L 296.403068 -48.336156 
L 293.359432 -48.329923 
L 290.315795 -48.297921 
L 287.272159 -49.218715 
L 284.228523 -48.775593 
L 281.184886 -49.192116 
L 278.14125 -49.091958 
L 275.097614 -48.243482 
L 272.053977 -48.968127 
L 269.010341 -49.484468 
L 265.966705 -49.887488 
L 262.923068 -49.855502 
L 259.879432 -50.089937 
L 256.835795 -50.351958 
L 253.792159 -50.346583 
L 250.748523 -50.852702 
L 247.704886 -50.158615 
L 244.66125 -50.61076 
L 241.617614 -50.934963 
L 238.573977 -51.283467 
L 235.530341 -51.271286 
L 232.486705 -51.739404 
L 229.443068 -51.546178 
L 226.399432 -52.27268 
L 223.355795 -51.659911 
L 220.312159 -52.378757 
L 217.268523 -53.071371 
L 214.224886 -54.363373 
L 211.18125 -54.002691 
L 208.137614 -54.860087 
L 205.093977 -55.875128 
L 202.050341 -55.211939 
L 199.006705 -54.925282 
L 195.963068 -54.971447 
L 192.919432 -58.069585 
L 189.875795 -56.810331 
L 186.832159 -58.419352 
L 183.788523 -58.85379 
L 180.744886 -61.766765 
L 177.70125 -61.552038 
L 174.657614 -61.221246 
L 171.613977 -63.343718 
L 168.570341 -63.565202 
L 165.526705 -62.759824 
L 162.483068 -65.851259 
L 159.439432 -66.737795 
L 156.395795 -69.930617 
L 153.352159 -67.035337 
L 150.308523 -71.340159 
L 147.264886 -71.403661 
L 144.22125 -73.304256 
L 141.177614 -77.230558 
L 138.133977 -78.886525 
L 135.090341 -82.844768 
L 132.046705 -80.61387 
L 129.003068 -87.229183 
L 125.959432 -86.51022 
L 122.915795 -90.092322 
L 119.872159 -95.312358 
L 116.828523 -101.592612 
L 113.784886 -100.331992 
L 110.74125 -106.943543 
L 107.697614 -113.487392 
L 104.653977 -111.991365 
L 101.610341 -123.180847 
L 98.566705 -121.057953 
L 95.523068 -125.661807 
L 92.479432 -135.896811 
L 89.435795 -142.223741 
L 86.392159 -150.598663 
L 83.348523 -159.747696 
L 80.304886 -164.725155 
L 77.26125 -175.362058 
L 74.217614 -185.450786 
z
" id="m0665d5f7b9" style="stroke:#cc503e;stroke-opacity:0.2;"/>
    </defs>
    <g clip-path="url(#p299e35fa39)">
     <use style="fill:#cc503e;fill-opacity:0.2;stroke:#cc503e;stroke-opacity:0.2;" x="0" xlink:href="#m0665d5f7b9" y="265.69625"/>
    </g>
   </g>
   <g id="PolyCollection_3">
    <defs>
     <path d="M 74.217614 -105.381094 
L 74.217614 -96.757857 
L 77.26125 -85.78274 
L 80.304886 -77.198279 
L 83.348523 -69.996976 
L 86.392159 -62.650997 
L 89.435795 -59.642709 
L 92.479432 -56.824393 
L 95.523068 -54.30696 
L 98.566705 -53.068166 
L 101.610341 -51.725094 
L 104.653977 -51.033703 
L 107.697614 -49.984268 
L 110.74125 -49.205021 
L 113.784886 -49.144751 
L 116.828523 -48.540206 
L 119.872159 -48.392215 
L 122.915795 -48.18023 
L 125.959432 -47.937858 
L 129.003068 -47.82592 
L 132.046705 -47.780641 
L 135.090341 -47.738522 
L 138.133977 -47.669575 
L 141.177614 -47.597391 
L 144.22125 -47.536317 
L 147.264886 -47.537194 
L 150.308523 -47.503054 
L 153.352159 -47.48984 
L 156.395795 -47.480082 
L 159.439432 -47.46267 
L 162.483068 -47.471414 
L 165.526705 -47.462243 
L 168.570341 -47.455755 
L 171.613977 -47.451006 
L 174.657614 -47.450743 
L 177.70125 -47.44626 
L 180.744886 -47.445084 
L 183.788523 -47.444168 
L 186.832159 -47.443412 
L 189.875795 -47.44194 
L 192.919432 -47.441765 
L 195.963068 -47.440798 
L 199.006705 -47.441429 
L 202.050341 -47.441175 
L 205.093977 -47.440424 
L 208.137614 -47.440376 
L 211.18125 -47.440142 
L 214.224886 -47.440384 
L 217.268523 -47.440233 
L 220.312159 -47.440089 
L 223.355795 -47.440041 
L 226.399432 -47.440071 
L 229.443068 -47.43998 
L 232.486705 -47.439942 
L 235.530341 -47.43993 
L 238.573977 -47.439921 
L 241.617614 -47.439911 
L 244.66125 -47.439924 
L 247.704886 -47.43991 
L 250.748523 -47.439895 
L 253.792159 -47.439894 
L 256.835795 -47.439893 
L 259.879432 -47.439892 
L 262.923068 -47.43989 
L 265.966705 -47.439888 
L 269.010341 -47.439888 
L 272.053977 -47.439891 
L 275.097614 -47.43989 
L 278.14125 -47.439887 
L 281.184886 -47.439887 
L 284.228523 -47.439887 
L 287.272159 -47.439887 
L 290.315795 -47.439887 
L 293.359432 -47.439887 
L 296.403068 -47.439886 
L 299.446705 -47.439887 
L 302.490341 -47.439887 
L 305.533977 -47.439886 
L 308.577614 -47.439886 
L 311.62125 -47.439886 
L 314.664886 -47.439886 
L 317.708523 -47.439886 
L 320.752159 -47.439886 
L 323.795795 -47.439886 
L 326.839432 -47.439886 
L 329.883068 -47.439886 
L 332.926705 -47.439886 
L 335.970341 -47.439886 
L 339.013977 -47.439886 
L 342.057614 -47.439886 
L 345.10125 -47.439886 
L 348.144886 -47.439886 
L 351.188523 -47.439886 
L 354.232159 -47.439886 
L 357.275795 -47.439886 
L 360.319432 -47.439886 
L 360.319432 -47.439886 
L 360.319432 -47.439886 
L 357.275795 -47.439886 
L 354.232159 -47.439886 
L 351.188523 -47.439886 
L 348.144886 -47.439886 
L 345.10125 -47.439886 
L 342.057614 -47.439886 
L 339.013977 -47.439886 
L 335.970341 -47.439886 
L 332.926705 -47.439886 
L 329.883068 -47.439886 
L 326.839432 -47.439886 
L 323.795795 -47.439887 
L 320.752159 -47.439887 
L 317.708523 -47.439887 
L 314.664886 -47.439887 
L 311.62125 -47.439888 
L 308.577614 -47.439887 
L 305.533977 -47.43989 
L 302.490341 -47.439894 
L 299.446705 -47.439887 
L 296.403068 -47.439887 
L 293.359432 -47.439893 
L 290.315795 -47.439888 
L 287.272159 -47.439887 
L 284.228523 -47.439894 
L 281.184886 -47.439892 
L 278.14125 -47.439892 
L 275.097614 -47.439904 
L 272.053977 -47.439924 
L 269.010341 -47.439919 
L 265.966705 -47.439893 
L 262.923068 -47.439899 
L 259.879432 -47.439998 
L 256.835795 -47.439924 
L 253.792159 -47.439932 
L 250.748523 -47.439925 
L 247.704886 -47.440034 
L 244.66125 -47.440441 
L 241.617614 -47.440027 
L 238.573977 -47.439987 
L 235.530341 -47.440116 
L 232.486705 -47.440233 
L 229.443068 -47.440236 
L 226.399432 -47.440627 
L 223.355795 -47.440368 
L 220.312159 -47.440675 
L 217.268523 -47.441382 
L 214.224886 -47.44177 
L 211.18125 -47.440701 
L 208.137614 -47.444288 
L 205.093977 -47.440911 
L 202.050341 -47.445335 
L 199.006705 -47.444444 
L 195.963068 -47.44249 
L 192.919432 -47.444989 
L 189.875795 -47.448504 
L 186.832159 -47.450915 
L 183.788523 -47.454644 
L 180.744886 -47.449828 
L 177.70125 -47.456469 
L 174.657614 -47.467298 
L 171.613977 -47.469855 
L 168.570341 -47.487038 
L 165.526705 -47.506703 
L 162.483068 -47.508333 
L 159.439432 -47.485272 
L 156.395795 -47.523869 
L 153.352159 -47.540321 
L 150.308523 -47.601627 
L 147.264886 -47.695351 
L 144.22125 -47.651207 
L 141.177614 -47.875447 
L 138.133977 -47.93903 
L 135.090341 -48.325644 
L 132.046705 -48.057366 
L 129.003068 -48.14326 
L 125.959432 -48.250443 
L 122.915795 -48.908817 
L 119.872159 -48.899886 
L 116.828523 -49.173774 
L 113.784886 -50.145821 
L 110.74125 -50.026722 
L 107.697614 -51.355158 
L 104.653977 -52.612027 
L 101.610341 -53.974415 
L 98.566705 -55.60796 
L 95.523068 -56.928759 
L 92.479432 -59.821372 
L 89.435795 -63.787084 
L 86.392159 -67.007536 
L 83.348523 -74.945112 
L 80.304886 -83.674196 
L 77.26125 -93.242232 
L 74.217614 -105.381094 
z
" id="ma4cc4ca938" style="stroke:#1d6996;stroke-opacity:0.2;"/>
    </defs>
    <g clip-path="url(#p299e35fa39)">
     <use style="fill:#1d6996;fill-opacity:0.2;stroke:#1d6996;stroke-opacity:0.2;" x="0" xlink:href="#ma4cc4ca938" y="265.69625"/>
    </g>
   </g>
   <g id="line2d_13">
    <path clip-path="url(#p299e35fa39)" d="M 74.217614 38.349304 
L 77.26125 30.516963 
L 80.304886 36.191601 
L 83.348523 29.930486 
L 86.392159 34.512442 
L 89.435795 29.585785 
L 92.479432 27.430356 
L 95.523068 36.771484 
L 98.566705 39.962681 
L 101.610341 31.721846 
L 104.653977 34.778284 
L 107.697614 29.617785 
L 110.74125 35.862686 
L 113.784886 29.030881 
L 116.828523 31.228283 
L 119.872159 34.636061 
L 122.915795 35.368815 
L 125.959432 30.896938 
L 129.003068 32.911352 
L 132.046705 34.807784 
L 135.090341 34.485046 
L 138.133977 34.238658 
L 141.177614 28.885179 
L 144.22125 33.960788 
L 147.264886 27.468298 
L 150.308523 38.913484 
L 153.352159 36.898204 
L 156.395795 36.342391 
L 159.439432 30.439594 
L 162.483068 37.349155 
L 165.526705 34.553848 
L 168.570341 37.311506 
L 171.613977 30.565219 
L 174.657614 36.759874 
L 177.70125 28.887099 
L 180.744886 39.477408 
L 183.788523 36.285281 
L 186.832159 31.925897 
L 189.875795 32.738698 
L 192.919432 36.557858 
L 195.963068 33.274501 
L 199.006705 32.169013 
L 202.050341 34.531613 
L 205.093977 40.237922 
L 208.137614 34.050262 
L 211.18125 33.698096 
L 214.224886 35.531239 
L 217.268523 33.19072 
L 220.312159 34.853848 
L 223.355795 34.739264 
L 226.399432 31.924332 
L 229.443068 37.37143 
L 232.486705 37.91058 
L 235.530341 34.817945 
L 238.573977 27.399592 
L 241.617614 35.883965 
L 244.66125 28.460078 
L 247.704886 32.723309 
L 250.748523 39.531486 
L 253.792159 32.157424 
L 256.835795 33.190638 
L 259.879432 37.087131 
L 262.923068 30.951335 
L 265.966705 36.012069 
L 269.010341 37.7382 
L 272.053977 36.064212 
L 275.097614 37.17685 
L 278.14125 37.903685 
L 281.184886 27.968748 
L 284.228523 33.594838 
L 287.272159 31.047993 
L 290.315795 37.035429 
L 293.359432 33.984856 
L 296.403068 35.943266 
L 299.446705 34.58116 
L 302.490341 38.745941 
L 305.533977 39.362618 
L 308.577614 35.994129 
L 311.62125 34.873519 
L 314.664886 39.15459 
L 317.708523 37.076565 
L 320.752159 32.920161 
L 323.795795 32.28167 
L 326.839432 32.609261 
L 329.883068 36.602772 
L 332.926705 30.075526 
L 335.970341 41.112295 
L 339.013977 31.905265 
L 342.057614 31.778949 
L 345.10125 34.085599 
L 348.144886 36.695443 
L 351.188523 32.869816 
L 354.232159 32.871838 
L 357.275795 30.487772 
L 360.319432 30.113848 
" style="fill:none;stroke:#909090;stroke-linecap:round;stroke-width:1.5;"/>
   </g>
   <g id="line2d_14">
    <path clip-path="url(#p299e35fa39)" d="M 74.217614 86.735731 
L 77.26125 96.54128 
L 80.304886 107.327812 
L 83.348523 112.344009 
L 86.392159 121.248331 
L 89.435795 129.35983 
L 92.479432 136.096404 
L 95.523068 145.465254 
L 98.566705 149.903119 
L 101.610341 147.864794 
L 104.653977 158.817341 
L 107.697614 157.435533 
L 110.74125 163.719014 
L 113.784886 169.601354 
L 116.828523 168.698322 
L 119.872159 175.066819 
L 122.915795 179.76072 
L 125.959432 182.997617 
L 129.003068 182.117528 
L 132.046705 188.26724 
L 135.090341 186.756315 
L 138.133977 190.117905 
L 141.177614 191.709766 
L 144.22125 195.365592 
L 147.264886 197.136909 
L 150.308523 197.245224 
L 153.352159 201.043992 
L 156.395795 198.507373 
L 159.439432 201.226382 
L 162.483068 202.234443 
L 165.526705 204.99031 
L 168.570341 204.263235 
L 171.613977 204.823501 
L 174.657614 206.314841 
L 177.70125 206.174216 
L 180.744886 206.300398 
L 183.788523 208.588788 
L 186.832159 209.074843 
L 189.875795 210.474552 
L 192.919432 209.30659 
L 195.963068 212.01529 
L 199.006705 212.312254 
L 202.050341 212.003944 
L 205.093977 211.210574 
L 208.137614 212.194284 
L 211.18125 212.891626 
L 214.224886 212.657533 
L 217.268523 213.771401 
L 220.312159 214.337686 
L 223.355795 215.00907 
L 226.399432 214.465283 
L 229.443068 214.993886 
L 232.486705 214.80223 
L 235.530341 215.220068 
L 238.573977 215.315362 
L 241.617614 215.517628 
L 244.66125 215.848838 
L 247.704886 216.024229 
L 250.748523 215.671121 
L 253.792159 215.964189 
L 256.835795 216.054428 
L 259.879432 216.209995 
L 262.923068 216.584012 
L 265.966705 216.508659 
L 269.010341 216.744236 
L 272.053977 217.081373 
L 275.097614 217.590355 
L 278.14125 217.151399 
L 281.184886 217.190772 
L 284.228523 217.232029 
L 287.272159 217.043616 
L 290.315795 217.591562 
L 293.359432 217.568772 
L 296.403068 217.574991 
L 299.446705 217.251177 
L 302.490341 217.282306 
L 305.533977 217.767436 
L 308.577614 217.526734 
L 311.62125 217.704205 
L 314.664886 217.638086 
L 317.708523 217.760074 
L 320.752159 217.752022 
L 323.795795 218.005356 
L 326.839432 217.719085 
L 329.883068 217.880585 
L 332.926705 217.949644 
L 335.970341 217.858758 
L 339.013977 217.805596 
L 342.057614 217.940181 
L 345.10125 218.038233 
L 348.144886 217.848563 
L 351.188523 218.092428 
L 354.232159 218.065166 
L 357.275795 217.955152 
L 360.319432 218.115573 
" style="fill:none;stroke:#cc503e;stroke-linecap:round;stroke-width:1.5;"/>
   </g>
   <g id="line2d_15">
    <path clip-path="url(#p299e35fa39)" d="M 74.217614 164.822849 
L 77.26125 176.391555 
L 80.304886 185.368723 
L 83.348523 193.216583 
L 86.392159 200.949941 
L 89.435795 204.073668 
L 92.479432 207.49801 
L 95.523068 210.059853 
L 98.566705 211.47732 
L 101.610341 212.896279 
L 104.653977 213.906931 
L 107.697614 215.097714 
L 110.74125 216.095758 
L 113.784886 216.077504 
L 116.828523 216.855024 
L 119.872159 217.063753 
L 122.915795 217.211641 
L 125.959432 217.610921 
L 129.003068 217.727295 
L 132.046705 217.790226 
L 135.090341 217.721355 
L 138.133977 217.911824 
L 141.177614 217.978875 
L 144.22125 218.108207 
L 147.264886 218.097832 
L 150.308523 218.153179 
L 153.352159 218.183379 
L 156.395795 218.196854 
L 159.439432 218.222836 
L 162.483068 218.209107 
L 165.526705 218.215756 
L 168.570341 218.22786 
L 171.613977 218.236804 
L 174.657614 218.238127 
L 177.70125 218.245556 
L 180.744886 218.24905 
L 183.788523 218.247987 
L 186.832159 218.249734 
L 189.875795 218.251755 
L 192.919432 218.253121 
L 195.963068 218.254706 
L 199.006705 218.253576 
L 202.050341 218.253327 
L 205.093977 218.255597 
L 208.137614 218.254463 
L 211.18125 218.25587 
L 214.224886 218.255234 
L 217.268523 218.25558 
L 220.312159 218.255916 
L 223.355795 218.256068 
L 226.399432 218.255929 
L 229.443068 218.256157 
L 232.486705 218.256194 
L 235.530341 218.256241 
L 238.573977 218.256302 
L 241.617614 218.256295 
L 244.66125 218.256142 
L 247.704886 218.256294 
L 250.748523 218.256343 
L 253.792159 218.256341 
L 256.835795 218.256344 
L 259.879432 218.256322 
L 262.923068 218.256356 
L 265.966705 218.25636 
L 269.010341 218.256351 
L 272.053977 218.256346 
L 275.097614 218.256354 
L 278.14125 218.256361 
L 281.184886 218.256361 
L 284.228523 218.256361 
L 287.272159 218.256363 
L 290.315795 218.256363 
L 293.359432 218.256361 
L 296.403068 218.256363 
L 299.446705 218.256363 
L 302.490341 218.256361 
L 305.533977 218.256362 
L 308.577614 218.256363 
L 311.62125 218.256363 
L 314.664886 218.256363 
L 317.708523 218.256363 
L 320.752159 218.256363 
L 323.795795 218.256363 
L 326.839432 218.256364 
L 329.883068 218.256364 
L 332.926705 218.256364 
L 335.970341 218.256364 
L 339.013977 218.256364 
L 342.057614 218.256364 
L 345.10125 218.256364 
L 348.144886 218.256364 
L 351.188523 218.256364 
L 354.232159 218.256364 
L 357.275795 218.256364 
L 360.319432 218.256364 
" style="fill:none;stroke:#1d6996;stroke-linecap:round;stroke-width:1.5;"/>
   </g>
   <g id="line2d_16">
    <path clip-path="url(#p299e35fa39)" d="M 58.999432 199.868567 
L 363.363068 199.868567 
" style="fill:none;stroke:#909090;stroke-linecap:round;stroke-width:1.5;"/>
   </g>
   <g id="patch_3">
    <path d="M 43.78125 228.14 
L 43.78125 10.7 
" style="fill:none;stroke:#262626;stroke-linecap:square;stroke-linejoin:miter;stroke-width:0.8;"/>
   </g>
   <g id="patch_4">
    <path d="M 43.78125 228.14 
L 378.58125 228.14 
" style="fill:none;stroke:#262626;stroke-linecap:square;stroke-linejoin:miter;stroke-width:0.8;"/>
   </g>
   <g id="text_15">
    <!-- p: 0.05 -->
    <defs>
     <path d="M 11.71875 12.40625 
L 22.015625 12.40625 
L 22.015625 0 
L 11.71875 0 
z
M 11.71875 51.703125 
L 22.015625 51.703125 
L 22.015625 39.3125 
L 11.71875 39.3125 
z
" id="DejaVuSans-58"/>
    </defs>
    <g style="fill:#909090;" transform="translate(311.62125 196.191008)scale(0.14 -0.14)">
     <use xlink:href="#DejaVuSans-112"/>
     <use x="63.476562" xlink:href="#DejaVuSans-58"/>
     <use x="97.167969" xlink:href="#DejaVuSans-32"/>
     <use x="128.955078" xlink:href="#DejaVuSans-48"/>
     <use x="192.578125" xlink:href="#DejaVuSans-46"/>
     <use x="224.365234" xlink:href="#DejaVuSans-48"/>
     <use x="287.988281" xlink:href="#DejaVuSans-53"/>
    </g>
   </g>
   <g id="text_16">
    <!-- $\mu = 0\;\; \sigma = 1$ -->
    <defs>
     <path d="M -1.3125 -20.796875 
L 13.375 54.6875 
L 22.40625 54.6875 
L 15.765625 20.65625 
Q 15.578125 19.625 15.421875 18.359375 
Q 15.28125 17.09375 15.28125 15.828125 
Q 15.28125 11.28125 18.140625 8.828125 
Q 21 6.390625 26.3125 6.390625 
Q 33.546875 6.390625 37.984375 10.484375 
Q 42.4375 14.59375 44 22.796875 
L 50.203125 54.6875 
L 59.1875 54.6875 
L 51.03125 12.640625 
Q 50.828125 11.71875 50.75 11.03125 
Q 50.6875 10.359375 50.6875 9.8125 
Q 50.6875 8.296875 51.296875 7.59375 
Q 51.90625 6.890625 53.21875 6.890625 
Q 53.71875 6.890625 54.5625 7.125 
Q 55.421875 7.375 56.984375 8.015625 
L 55.609375 0.78125 
Q 53.46875 -0.296875 51.515625 -0.859375 
Q 49.5625 -1.421875 47.703125 -1.421875 
Q 44.484375 -1.421875 42.65625 0.625 
Q 40.828125 2.6875 40.828125 6.296875 
Q 38.09375 2.390625 34.296875 0.484375 
Q 30.515625 -1.421875 25.390625 -1.421875 
Q 20.84375 -1.421875 17.453125 0.671875 
Q 14.0625 2.78125 12.984375 6.203125 
L 7.71875 -20.796875 
z
" id="DejaVuSans-Oblique-956"/>
     <path d="M 10.59375 45.40625 
L 73.1875 45.40625 
L 73.1875 37.203125 
L 10.59375 37.203125 
z
M 10.59375 25.484375 
L 73.1875 25.484375 
L 73.1875 17.1875 
L 10.59375 17.1875 
z
" id="DejaVuSans-61"/>
     <path d="M 34.671875 47.5625 
Q 27.25 47.5625 22.21875 42.1875 
Q 16.890625 36.578125 15.140625 27.296875 
Q 13.1875 17.484375 16.3125 11.8125 
Q 19.390625 6.203125 26.65625 6.203125 
Q 33.84375 6.203125 39.109375 11.859375 
Q 44.4375 17.53125 46.34375 27.296875 
Q 48.046875 36.234375 45.015625 42.1875 
Q 42.1875 47.5625 34.671875 47.5625 
z
M 36.078125 54.734375 
L 65.921875 54.6875 
L 64.15625 45.703125 
L 54.109375 45.703125 
Q 57.90625 38.09375 55.859375 27.296875 
Q 53.21875 13.875 45.0625 6.25 
Q 36.859375 -1.421875 25.140625 -1.421875 
Q 13.375 -1.421875 8.203125 6.25 
Q 3.03125 13.875 5.671875 27.296875 
Q 8.25 40.765625 16.40625 48.390625 
Q 23.1875 54.734375 36.078125 54.734375 
z
" id="DejaVuSans-Oblique-963"/>
    </defs>
    <g style="fill:#909090;" transform="translate(290.315795 71.153993)scale(0.14 -0.14)">
     <use transform="translate(0 0.78125)" xlink:href="#DejaVuSans-Oblique-956"/>
     <use transform="translate(83.105469 0.78125)" xlink:href="#DejaVuSans-61"/>
     <use transform="translate(186.376953 0.78125)" xlink:href="#DejaVuSans-48"/>
     <use transform="translate(304.118271 0.78125)" xlink:href="#DejaVuSans-Oblique-963"/>
     <use transform="translate(386.9796 0.78125)" xlink:href="#DejaVuSans-61"/>
     <use transform="translate(490.251084 0.78125)" xlink:href="#DejaVuSans-49"/>
    </g>
   </g>
   <g id="text_17">
    <!-- $\mu = 0.5\;\; \sigma = 1$ -->
    <g style="fill:#cc503e;" transform="translate(290.315795 85.86423)scale(0.14 -0.14)">
     <use transform="translate(0 0.78125)" xlink:href="#DejaVuSans-Oblique-956"/>
     <use transform="translate(83.105469 0.78125)" xlink:href="#DejaVuSans-61"/>
     <use transform="translate(186.376953 0.78125)" xlink:href="#DejaVuSans-48"/>
     <use transform="translate(250 0.78125)" xlink:href="#DejaVuSans-46"/>
     <use transform="translate(281.787109 0.78125)" xlink:href="#DejaVuSans-53"/>
     <use transform="translate(399.528428 0.78125)" xlink:href="#DejaVuSans-Oblique-963"/>
     <use transform="translate(482.389756 0.78125)" xlink:href="#DejaVuSans-61"/>
     <use transform="translate(585.66124 0.78125)" xlink:href="#DejaVuSans-49"/>
    </g>
   </g>
   <g id="text_18">
    <!-- $\mu = 1\;\; \sigma = 1$ -->
    <g style="fill:#1d6996;" transform="translate(290.315795 100.574468)scale(0.14 -0.14)">
     <use transform="translate(0 0.09375)" xlink:href="#DejaVuSans-Oblique-956"/>
     <use transform="translate(83.105469 0.09375)" xlink:href="#DejaVuSans-61"/>
     <use transform="translate(186.376953 0.09375)" xlink:href="#DejaVuSans-49"/>
     <use transform="translate(304.118271 0.09375)" xlink:href="#DejaVuSans-Oblique-963"/>
     <use transform="translate(386.9796 0.09375)" xlink:href="#DejaVuSans-61"/>
     <use transform="translate(490.251084 0.09375)" xlink:href="#DejaVuSans-49"/>
    </g>
   </g>
   <g id="text_19">
    <!-- $H_1: \mu &gt; 0$ -->
    <defs>
     <path d="M 16.890625 72.90625 
L 26.8125 72.90625 
L 21 43.015625 
L 56.78125 43.015625 
L 62.59375 72.90625 
L 72.515625 72.90625 
L 58.296875 0 
L 48.390625 0 
L 55.171875 34.71875 
L 19.390625 34.71875 
L 12.59375 0 
L 2.6875 0 
z
" id="DejaVuSans-Oblique-72"/>
     <path d="M 10.59375 49.21875 
L 10.59375 58.109375 
L 73.1875 35.40625 
L 73.1875 27.296875 
L 10.59375 4.59375 
L 10.59375 13.484375 
L 60.890625 31.296875 
z
" id="DejaVuSans-62"/>
    </defs>
    <g style="fill:#909090;" transform="translate(290.315795 144.705179)scale(0.14 -0.14)">
     <use transform="translate(0 0.78125)" xlink:href="#DejaVuSans-Oblique-72"/>
     <use transform="translate(75.195312 -15.625)scale(0.7)" xlink:href="#DejaVuSans-49"/>
     <use transform="translate(141.948242 0.78125)" xlink:href="#DejaVuSans-58"/>
     <use transform="translate(195.12207 0.78125)" xlink:href="#DejaVuSans-Oblique-956"/>
     <use transform="translate(278.227539 0.78125)" xlink:href="#DejaVuSans-62"/>
     <use transform="translate(381.499023 0.78125)" xlink:href="#DejaVuSans-48"/>
    </g>
   </g>
  </g>
 </g>
 <defs>
  <clipPath id="p299e35fa39">
   <rect height="217.44" width="334.8" x="43.78125" y="10.7"/>
  </clipPath>
 </defs>
</svg>
