<?xml version="1.0" encoding="utf-8" standalone="no"?>
<!DOCTYPE svg PUBLIC "-//W3C//DTD SVG 1.1//EN"
  "http://www.w3.org/Graphics/SVG/1.1/DTD/svg11.dtd">
<!-- Created with matplotlib (https://matplotlib.org/) -->
<svg height="265.69625pt" version="1.1" viewBox="0 0 389.28125 265.69625" width="389.28125pt" xmlns="http://www.w3.org/2000/svg" xmlns:xlink="http://www.w3.org/1999/xlink">
 <defs>
  <style type="text/css">
*{stroke-linecap:butt;stroke-linejoin:round;}
  </style>
 </defs>
 <g id="figure_1">
  <g id="patch_1">
   <path d="M 0 265.69625 
L 389.28125 265.69625 
L 389.28125 0 
L 0 0 
z
" style="fill:none;"/>
  </g>
  <g id="axes_1">
   <g id="patch_2">
    <path d="M 43.78125 228.14 
L 378.58125 228.14 
L 378.58125 10.7 
L 43.78125 10.7 
z
" style="fill:none;"/>
   </g>
   <g id="matplotlib.axis_1">
    <g id="xtick_1">
     <g id="line2d_1">
      <defs>
       <path d="M 0 0 
L 0 3.5 
" id="m1ec243bec8" style="stroke:#262626;stroke-width:0.8;"/>
      </defs>
      <g>
       <use style="fill:#262626;stroke:#262626;stroke-width:0.8;" x="58.999432" xlink:href="#m1ec243bec8" y="228.14"/>
      </g>
     </g>
     <g id="text_1">
      <!-- 0 -->
      <defs>
       <path d="M 31.78125 66.40625 
Q 24.171875 66.40625 20.328125 58.90625 
Q 16.5 51.421875 16.5 36.375 
Q 16.5 21.390625 20.328125 13.890625 
Q 24.171875 6.390625 31.78125 6.390625 
Q 39.453125 6.390625 43.28125 13.890625 
Q 47.125 21.390625 47.125 36.375 
Q 47.125 51.421875 43.28125 58.90625 
Q 39.453125 66.40625 31.78125 66.40625 
z
M 31.78125 74.21875 
Q 44.046875 74.21875 50.515625 64.515625 
Q 56.984375 54.828125 56.984375 36.375 
Q 56.984375 17.96875 50.515625 8.265625 
Q 44.046875 -1.421875 31.78125 -1.421875 
Q 19.53125 -1.421875 13.0625 8.265625 
Q 6.59375 17.96875 6.59375 36.375 
Q 6.59375 54.828125 13.0625 64.515625 
Q 19.53125 74.21875 31.78125 74.21875 
z
" id="DejaVuSans-48"/>
      </defs>
      <g style="fill:#262626;" transform="translate(55.818182 242.738437)scale(0.1 -0.1)">
       <use xlink:href="#DejaVuSans-48"/>
      </g>
     </g>
    </g>
    <g id="xtick_2">
     <g id="line2d_2">
      <g>
       <use style="fill:#262626;stroke:#262626;stroke-width:0.8;" x="119.872159" xlink:href="#m1ec243bec8" y="228.14"/>
      </g>
     </g>
     <g id="text_2">
      <!-- 20 -->
      <defs>
       <path d="M 19.1875 8.296875 
L 53.609375 8.296875 
L 53.609375 0 
L 7.328125 0 
L 7.328125 8.296875 
Q 12.9375 14.109375 22.625 23.890625 
Q 32.328125 33.6875 34.8125 36.53125 
Q 39.546875 41.84375 41.421875 45.53125 
Q 43.3125 49.21875 43.3125 52.78125 
Q 43.3125 58.59375 39.234375 62.25 
Q 35.15625 65.921875 28.609375 65.921875 
Q 23.96875 65.921875 18.8125 64.3125 
Q 13.671875 62.703125 7.8125 59.421875 
L 7.8125 69.390625 
Q 13.765625 71.78125 18.9375 73 
Q 24.125 74.21875 28.421875 74.21875 
Q 39.75 74.21875 46.484375 68.546875 
Q 53.21875 62.890625 53.21875 53.421875 
Q 53.21875 48.921875 51.53125 44.890625 
Q 49.859375 40.875 45.40625 35.40625 
Q 44.1875 33.984375 37.640625 27.21875 
Q 31.109375 20.453125 19.1875 8.296875 
z
" id="DejaVuSans-50"/>
      </defs>
      <g style="fill:#262626;" transform="translate(113.509659 242.738437)scale(0.1 -0.1)">
       <use xlink:href="#DejaVuSans-50"/>
       <use x="63.623047" xlink:href="#DejaVuSans-48"/>
      </g>
     </g>
    </g>
    <g id="xtick_3">
     <g id="line2d_3">
      <g>
       <use style="fill:#262626;stroke:#262626;stroke-width:0.8;" x="180.744886" xlink:href="#m1ec243bec8" y="228.14"/>
      </g>
     </g>
     <g id="text_3">
      <!-- 40 -->
      <defs>
       <path d="M 37.796875 64.3125 
L 12.890625 25.390625 
L 37.796875 25.390625 
z
M 35.203125 72.90625 
L 47.609375 72.90625 
L 47.609375 25.390625 
L 58.015625 25.390625 
L 58.015625 17.1875 
L 47.609375 17.1875 
L 47.609375 0 
L 37.796875 0 
L 37.796875 17.1875 
L 4.890625 17.1875 
L 4.890625 26.703125 
z
" id="DejaVuSans-52"/>
      </defs>
      <g style="fill:#262626;" transform="translate(174.382386 242.738437)scale(0.1 -0.1)">
       <use xlink:href="#DejaVuSans-52"/>
       <use x="63.623047" xlink:href="#DejaVuSans-48"/>
      </g>
     </g>
    </g>
    <g id="xtick_4">
     <g id="line2d_4">
      <g>
       <use style="fill:#262626;stroke:#262626;stroke-width:0.8;" x="241.617614" xlink:href="#m1ec243bec8" y="228.14"/>
      </g>
     </g>
     <g id="text_4">
      <!-- 60 -->
      <defs>
       <path d="M 33.015625 40.375 
Q 26.375 40.375 22.484375 35.828125 
Q 18.609375 31.296875 18.609375 23.390625 
Q 18.609375 15.53125 22.484375 10.953125 
Q 26.375 6.390625 33.015625 6.390625 
Q 39.65625 6.390625 43.53125 10.953125 
Q 47.40625 15.53125 47.40625 23.390625 
Q 47.40625 31.296875 43.53125 35.828125 
Q 39.65625 40.375 33.015625 40.375 
z
M 52.59375 71.296875 
L 52.59375 62.3125 
Q 48.875 64.0625 45.09375 64.984375 
Q 41.3125 65.921875 37.59375 65.921875 
Q 27.828125 65.921875 22.671875 59.328125 
Q 17.53125 52.734375 16.796875 39.40625 
Q 19.671875 43.65625 24.015625 45.921875 
Q 28.375 48.1875 33.59375 48.1875 
Q 44.578125 48.1875 50.953125 41.515625 
Q 57.328125 34.859375 57.328125 23.390625 
Q 57.328125 12.15625 50.6875 5.359375 
Q 44.046875 -1.421875 33.015625 -1.421875 
Q 20.359375 -1.421875 13.671875 8.265625 
Q 6.984375 17.96875 6.984375 36.375 
Q 6.984375 53.65625 15.1875 63.9375 
Q 23.390625 74.21875 37.203125 74.21875 
Q 40.921875 74.21875 44.703125 73.484375 
Q 48.484375 72.75 52.59375 71.296875 
z
" id="DejaVuSans-54"/>
      </defs>
      <g style="fill:#262626;" transform="translate(235.255114 242.738437)scale(0.1 -0.1)">
       <use xlink:href="#DejaVuSans-54"/>
       <use x="63.623047" xlink:href="#DejaVuSans-48"/>
      </g>
     </g>
    </g>
    <g id="xtick_5">
     <g id="line2d_5">
      <g>
       <use style="fill:#262626;stroke:#262626;stroke-width:0.8;" x="302.490341" xlink:href="#m1ec243bec8" y="228.14"/>
      </g>
     </g>
     <g id="text_5">
      <!-- 80 -->
      <defs>
       <path d="M 31.78125 34.625 
Q 24.75 34.625 20.71875 30.859375 
Q 16.703125 27.09375 16.703125 20.515625 
Q 16.703125 13.921875 20.71875 10.15625 
Q 24.75 6.390625 31.78125 6.390625 
Q 38.8125 6.390625 42.859375 10.171875 
Q 46.921875 13.96875 46.921875 20.515625 
Q 46.921875 27.09375 42.890625 30.859375 
Q 38.875 34.625 31.78125 34.625 
z
M 21.921875 38.8125 
Q 15.578125 40.375 12.03125 44.71875 
Q 8.5 49.078125 8.5 55.328125 
Q 8.5 64.0625 14.71875 69.140625 
Q 20.953125 74.21875 31.78125 74.21875 
Q 42.671875 74.21875 48.875 69.140625 
Q 55.078125 64.0625 55.078125 55.328125 
Q 55.078125 49.078125 51.53125 44.71875 
Q 48 40.375 41.703125 38.8125 
Q 48.828125 37.15625 52.796875 32.3125 
Q 56.78125 27.484375 56.78125 20.515625 
Q 56.78125 9.90625 50.3125 4.234375 
Q 43.84375 -1.421875 31.78125 -1.421875 
Q 19.734375 -1.421875 13.25 4.234375 
Q 6.78125 9.90625 6.78125 20.515625 
Q 6.78125 27.484375 10.78125 32.3125 
Q 14.796875 37.15625 21.921875 38.8125 
z
M 18.3125 54.390625 
Q 18.3125 48.734375 21.84375 45.5625 
Q 25.390625 42.390625 31.78125 42.390625 
Q 38.140625 42.390625 41.71875 45.5625 
Q 45.3125 48.734375 45.3125 54.390625 
Q 45.3125 60.0625 41.71875 63.234375 
Q 38.140625 66.40625 31.78125 66.40625 
Q 25.390625 66.40625 21.84375 63.234375 
Q 18.3125 60.0625 18.3125 54.390625 
z
" id="DejaVuSans-56"/>
      </defs>
      <g style="fill:#262626;" transform="translate(296.127841 242.738437)scale(0.1 -0.1)">
       <use xlink:href="#DejaVuSans-56"/>
       <use x="63.623047" xlink:href="#DejaVuSans-48"/>
      </g>
     </g>
    </g>
    <g id="xtick_6">
     <g id="line2d_6">
      <g>
       <use style="fill:#262626;stroke:#262626;stroke-width:0.8;" x="363.363068" xlink:href="#m1ec243bec8" y="228.14"/>
      </g>
     </g>
     <g id="text_6">
      <!-- 100 -->
      <defs>
       <path d="M 12.40625 8.296875 
L 28.515625 8.296875 
L 28.515625 63.921875 
L 10.984375 60.40625 
L 10.984375 69.390625 
L 28.421875 72.90625 
L 38.28125 72.90625 
L 38.28125 8.296875 
L 54.390625 8.296875 
L 54.390625 0 
L 12.40625 0 
z
" id="DejaVuSans-49"/>
      </defs>
      <g style="fill:#262626;" transform="translate(353.819318 242.738437)scale(0.1 -0.1)">
       <use xlink:href="#DejaVuSans-49"/>
       <use x="63.623047" xlink:href="#DejaVuSans-48"/>
       <use x="127.246094" xlink:href="#DejaVuSans-48"/>
      </g>
     </g>
    </g>
    <g id="text_7">
     <!-- N samples -->
     <defs>
      <path d="M 9.8125 72.90625 
L 23.09375 72.90625 
L 55.421875 11.921875 
L 55.421875 72.90625 
L 64.984375 72.90625 
L 64.984375 0 
L 51.703125 0 
L 19.390625 60.984375 
L 19.390625 0 
L 9.8125 0 
z
" id="DejaVuSans-78"/>
      <path id="DejaVuSans-32"/>
      <path d="M 44.28125 53.078125 
L 44.28125 44.578125 
Q 40.484375 46.53125 36.375 47.5 
Q 32.28125 48.484375 27.875 48.484375 
Q 21.1875 48.484375 17.84375 46.4375 
Q 14.5 44.390625 14.5 40.28125 
Q 14.5 37.15625 16.890625 35.375 
Q 19.28125 33.59375 26.515625 31.984375 
L 29.59375 31.296875 
Q 39.15625 29.25 43.1875 25.515625 
Q 47.21875 21.78125 47.21875 15.09375 
Q 47.21875 7.46875 41.1875 3.015625 
Q 35.15625 -1.421875 24.609375 -1.421875 
Q 20.21875 -1.421875 15.453125 -0.5625 
Q 10.6875 0.296875 5.421875 2 
L 5.421875 11.28125 
Q 10.40625 8.6875 15.234375 7.390625 
Q 20.0625 6.109375 24.8125 6.109375 
Q 31.15625 6.109375 34.5625 8.28125 
Q 37.984375 10.453125 37.984375 14.40625 
Q 37.984375 18.0625 35.515625 20.015625 
Q 33.0625 21.96875 24.703125 23.78125 
L 21.578125 24.515625 
Q 13.234375 26.265625 9.515625 29.90625 
Q 5.8125 33.546875 5.8125 39.890625 
Q 5.8125 47.609375 11.28125 51.796875 
Q 16.75 56 26.8125 56 
Q 31.78125 56 36.171875 55.265625 
Q 40.578125 54.546875 44.28125 53.078125 
z
" id="DejaVuSans-115"/>
      <path d="M 34.28125 27.484375 
Q 23.390625 27.484375 19.1875 25 
Q 14.984375 22.515625 14.984375 16.5 
Q 14.984375 11.71875 18.140625 8.90625 
Q 21.296875 6.109375 26.703125 6.109375 
Q 34.1875 6.109375 38.703125 11.40625 
Q 43.21875 16.703125 43.21875 25.484375 
L 43.21875 27.484375 
z
M 52.203125 31.203125 
L 52.203125 0 
L 43.21875 0 
L 43.21875 8.296875 
Q 40.140625 3.328125 35.546875 0.953125 
Q 30.953125 -1.421875 24.3125 -1.421875 
Q 15.921875 -1.421875 10.953125 3.296875 
Q 6 8.015625 6 15.921875 
Q 6 25.140625 12.171875 29.828125 
Q 18.359375 34.515625 30.609375 34.515625 
L 43.21875 34.515625 
L 43.21875 35.40625 
Q 43.21875 41.609375 39.140625 45 
Q 35.0625 48.390625 27.6875 48.390625 
Q 23 48.390625 18.546875 47.265625 
Q 14.109375 46.140625 10.015625 43.890625 
L 10.015625 52.203125 
Q 14.9375 54.109375 19.578125 55.046875 
Q 24.21875 56 28.609375 56 
Q 40.484375 56 46.34375 49.84375 
Q 52.203125 43.703125 52.203125 31.203125 
z
" id="DejaVuSans-97"/>
      <path d="M 52 44.1875 
Q 55.375 50.25 60.0625 53.125 
Q 64.75 56 71.09375 56 
Q 79.640625 56 84.28125 50.015625 
Q 88.921875 44.046875 88.921875 33.015625 
L 88.921875 0 
L 79.890625 0 
L 79.890625 32.71875 
Q 79.890625 40.578125 77.09375 44.375 
Q 74.3125 48.1875 68.609375 48.1875 
Q 61.625 48.1875 57.5625 43.546875 
Q 53.515625 38.921875 53.515625 30.90625 
L 53.515625 0 
L 44.484375 0 
L 44.484375 32.71875 
Q 44.484375 40.625 41.703125 44.40625 
Q 38.921875 48.1875 33.109375 48.1875 
Q 26.21875 48.1875 22.15625 43.53125 
Q 18.109375 38.875 18.109375 30.90625 
L 18.109375 0 
L 9.078125 0 
L 9.078125 54.6875 
L 18.109375 54.6875 
L 18.109375 46.1875 
Q 21.1875 51.21875 25.484375 53.609375 
Q 29.78125 56 35.6875 56 
Q 41.65625 56 45.828125 52.96875 
Q 50 49.953125 52 44.1875 
z
" id="DejaVuSans-109"/>
      <path d="M 18.109375 8.203125 
L 18.109375 -20.796875 
L 9.078125 -20.796875 
L 9.078125 54.6875 
L 18.109375 54.6875 
L 18.109375 46.390625 
Q 20.953125 51.265625 25.265625 53.625 
Q 29.59375 56 35.59375 56 
Q 45.5625 56 51.78125 48.09375 
Q 58.015625 40.1875 58.015625 27.296875 
Q 58.015625 14.40625 51.78125 6.484375 
Q 45.5625 -1.421875 35.59375 -1.421875 
Q 29.59375 -1.421875 25.265625 0.953125 
Q 20.953125 3.328125 18.109375 8.203125 
z
M 48.6875 27.296875 
Q 48.6875 37.203125 44.609375 42.84375 
Q 40.53125 48.484375 33.40625 48.484375 
Q 26.265625 48.484375 22.1875 42.84375 
Q 18.109375 37.203125 18.109375 27.296875 
Q 18.109375 17.390625 22.1875 11.75 
Q 26.265625 6.109375 33.40625 6.109375 
Q 40.53125 6.109375 44.609375 11.75 
Q 48.6875 17.390625 48.6875 27.296875 
z
" id="DejaVuSans-112"/>
      <path d="M 9.421875 75.984375 
L 18.40625 75.984375 
L 18.40625 0 
L 9.421875 0 
z
" id="DejaVuSans-108"/>
      <path d="M 56.203125 29.59375 
L 56.203125 25.203125 
L 14.890625 25.203125 
Q 15.484375 15.921875 20.484375 11.0625 
Q 25.484375 6.203125 34.421875 6.203125 
Q 39.59375 6.203125 44.453125 7.46875 
Q 49.3125 8.734375 54.109375 11.28125 
L 54.109375 2.78125 
Q 49.265625 0.734375 44.1875 -0.34375 
Q 39.109375 -1.421875 33.890625 -1.421875 
Q 20.796875 -1.421875 13.15625 6.1875 
Q 5.515625 13.8125 5.515625 26.8125 
Q 5.515625 40.234375 12.765625 48.109375 
Q 20.015625 56 32.328125 56 
Q 43.359375 56 49.78125 48.890625 
Q 56.203125 41.796875 56.203125 29.59375 
z
M 47.21875 32.234375 
Q 47.125 39.59375 43.09375 43.984375 
Q 39.0625 48.390625 32.421875 48.390625 
Q 24.90625 48.390625 20.390625 44.140625 
Q 15.875 39.890625 15.1875 32.171875 
z
" id="DejaVuSans-101"/>
     </defs>
     <g style="fill:#262626;" transform="translate(185.067969 256.416562)scale(0.1 -0.1)">
      <use xlink:href="#DejaVuSans-78"/>
      <use x="74.804688" xlink:href="#DejaVuSans-32"/>
      <use x="106.591797" xlink:href="#DejaVuSans-115"/>
      <use x="158.691406" xlink:href="#DejaVuSans-97"/>
      <use x="219.970703" xlink:href="#DejaVuSans-109"/>
      <use x="317.382812" xlink:href="#DejaVuSans-112"/>
      <use x="380.859375" xlink:href="#DejaVuSans-108"/>
      <use x="408.642578" xlink:href="#DejaVuSans-101"/>
      <use x="470.166016" xlink:href="#DejaVuSans-115"/>
     </g>
    </g>
   </g>
   <g id="matplotlib.axis_2">
    <g id="ytick_1">
     <g id="line2d_7">
      <defs>
       <path d="M 0 0 
L -3.5 0 
" id="m5368b2e45a" style="stroke:#262626;stroke-width:0.8;"/>
      </defs>
      <g>
       <use style="fill:#262626;stroke:#262626;stroke-width:0.8;" x="43.78125" xlink:href="#m5368b2e45a" y="218.256364"/>
      </g>
     </g>
     <g id="text_8">
      <!-- 0.0 -->
      <defs>
       <path d="M 10.6875 12.40625 
L 21 12.40625 
L 21 0 
L 10.6875 0 
z
" id="DejaVuSans-46"/>
      </defs>
      <g style="fill:#262626;" transform="translate(20.878125 222.055582)scale(0.1 -0.1)">
       <use xlink:href="#DejaVuSans-48"/>
       <use x="63.623047" xlink:href="#DejaVuSans-46"/>
       <use x="95.410156" xlink:href="#DejaVuSans-48"/>
      </g>
     </g>
    </g>
    <g id="ytick_2">
     <g id="line2d_8">
      <g>
       <use style="fill:#262626;stroke:#262626;stroke-width:0.8;" x="43.78125" xlink:href="#m5368b2e45a" y="181.437422"/>
      </g>
     </g>
     <g id="text_9">
      <!-- 0.1 -->
      <g style="fill:#262626;" transform="translate(20.878125 185.23664)scale(0.1 -0.1)">
       <use xlink:href="#DejaVuSans-48"/>
       <use x="63.623047" xlink:href="#DejaVuSans-46"/>
       <use x="95.410156" xlink:href="#DejaVuSans-49"/>
      </g>
     </g>
    </g>
    <g id="ytick_3">
     <g id="line2d_9">
      <g>
       <use style="fill:#262626;stroke:#262626;stroke-width:0.8;" x="43.78125" xlink:href="#m5368b2e45a" y="144.61848"/>
      </g>
     </g>
     <g id="text_10">
      <!-- 0.2 -->
      <g style="fill:#262626;" transform="translate(20.878125 148.417698)scale(0.1 -0.1)">
       <use xlink:href="#DejaVuSans-48"/>
       <use x="63.623047" xlink:href="#DejaVuSans-46"/>
       <use x="95.410156" xlink:href="#DejaVuSans-50"/>
      </g>
     </g>
    </g>
    <g id="ytick_4">
     <g id="line2d_10">
      <g>
       <use style="fill:#262626;stroke:#262626;stroke-width:0.8;" x="43.78125" xlink:href="#m5368b2e45a" y="107.799538"/>
      </g>
     </g>
     <g id="text_11">
      <!-- 0.3 -->
      <defs>
       <path d="M 40.578125 39.3125 
Q 47.65625 37.796875 51.625 33 
Q 55.609375 28.21875 55.609375 21.1875 
Q 55.609375 10.40625 48.1875 4.484375 
Q 40.765625 -1.421875 27.09375 -1.421875 
Q 22.515625 -1.421875 17.65625 -0.515625 
Q 12.796875 0.390625 7.625 2.203125 
L 7.625 11.71875 
Q 11.71875 9.328125 16.59375 8.109375 
Q 21.484375 6.890625 26.8125 6.890625 
Q 36.078125 6.890625 40.9375 10.546875 
Q 45.796875 14.203125 45.796875 21.1875 
Q 45.796875 27.640625 41.28125 31.265625 
Q 36.765625 34.90625 28.71875 34.90625 
L 20.21875 34.90625 
L 20.21875 43.015625 
L 29.109375 43.015625 
Q 36.375 43.015625 40.234375 45.921875 
Q 44.09375 48.828125 44.09375 54.296875 
Q 44.09375 59.90625 40.109375 62.90625 
Q 36.140625 65.921875 28.71875 65.921875 
Q 24.65625 65.921875 20.015625 65.03125 
Q 15.375 64.15625 9.8125 62.3125 
L 9.8125 71.09375 
Q 15.4375 72.65625 20.34375 73.4375 
Q 25.25 74.21875 29.59375 74.21875 
Q 40.828125 74.21875 47.359375 69.109375 
Q 53.90625 64.015625 53.90625 55.328125 
Q 53.90625 49.265625 50.4375 45.09375 
Q 46.96875 40.921875 40.578125 39.3125 
z
" id="DejaVuSans-51"/>
      </defs>
      <g style="fill:#262626;" transform="translate(20.878125 111.598756)scale(0.1 -0.1)">
       <use xlink:href="#DejaVuSans-48"/>
       <use x="63.623047" xlink:href="#DejaVuSans-46"/>
       <use x="95.410156" xlink:href="#DejaVuSans-51"/>
      </g>
     </g>
    </g>
    <g id="ytick_5">
     <g id="line2d_11">
      <g>
       <use style="fill:#262626;stroke:#262626;stroke-width:0.8;" x="43.78125" xlink:href="#m5368b2e45a" y="70.980596"/>
      </g>
     </g>
     <g id="text_12">
      <!-- 0.4 -->
      <g style="fill:#262626;" transform="translate(20.878125 74.779814)scale(0.1 -0.1)">
       <use xlink:href="#DejaVuSans-48"/>
       <use x="63.623047" xlink:href="#DejaVuSans-46"/>
       <use x="95.410156" xlink:href="#DejaVuSans-52"/>
      </g>
     </g>
    </g>
    <g id="ytick_6">
     <g id="line2d_12">
      <g>
       <use style="fill:#262626;stroke:#262626;stroke-width:0.8;" x="43.78125" xlink:href="#m5368b2e45a" y="34.161653"/>
      </g>
     </g>
     <g id="text_13">
      <!-- 0.5 -->
      <defs>
       <path d="M 10.796875 72.90625 
L 49.515625 72.90625 
L 49.515625 64.59375 
L 19.828125 64.59375 
L 19.828125 46.734375 
Q 21.96875 47.46875 24.109375 47.828125 
Q 26.265625 48.1875 28.421875 48.1875 
Q 40.625 48.1875 47.75 41.5 
Q 54.890625 34.8125 54.890625 23.390625 
Q 54.890625 11.625 47.5625 5.09375 
Q 40.234375 -1.421875 26.90625 -1.421875 
Q 22.3125 -1.421875 17.546875 -0.640625 
Q 12.796875 0.140625 7.71875 1.703125 
L 7.71875 11.625 
Q 12.109375 9.234375 16.796875 8.0625 
Q 21.484375 6.890625 26.703125 6.890625 
Q 35.15625 6.890625 40.078125 11.328125 
Q 45.015625 15.765625 45.015625 23.390625 
Q 45.015625 31 40.078125 35.4375 
Q 35.15625 39.890625 26.703125 39.890625 
Q 22.75 39.890625 18.8125 39.015625 
Q 14.890625 38.140625 10.796875 36.28125 
z
" id="DejaVuSans-53"/>
      </defs>
      <g style="fill:#262626;" transform="translate(20.878125 37.960872)scale(0.1 -0.1)">
       <use xlink:href="#DejaVuSans-48"/>
       <use x="63.623047" xlink:href="#DejaVuSans-46"/>
       <use x="95.410156" xlink:href="#DejaVuSans-53"/>
      </g>
     </g>
    </g>
    <g id="text_14">
     <!-- p-value -->
     <defs>
      <path d="M 4.890625 31.390625 
L 31.203125 31.390625 
L 31.203125 23.390625 
L 4.890625 23.390625 
z
" id="DejaVuSans-45"/>
      <path d="M 2.984375 54.6875 
L 12.5 54.6875 
L 29.59375 8.796875 
L 46.6875 54.6875 
L 56.203125 54.6875 
L 35.6875 0 
L 23.484375 0 
z
" id="DejaVuSans-118"/>
      <path d="M 8.5 21.578125 
L 8.5 54.6875 
L 17.484375 54.6875 
L 17.484375 21.921875 
Q 17.484375 14.15625 20.5 10.265625 
Q 23.53125 6.390625 29.59375 6.390625 
Q 36.859375 6.390625 41.078125 11.03125 
Q 45.3125 15.671875 45.3125 23.6875 
L 45.3125 54.6875 
L 54.296875 54.6875 
L 54.296875 0 
L 45.3125 0 
L 45.3125 8.40625 
Q 42.046875 3.421875 37.71875 1 
Q 33.40625 -1.421875 27.6875 -1.421875 
Q 18.265625 -1.421875 13.375 4.4375 
Q 8.5 10.296875 8.5 21.578125 
z
M 31.109375 56 
z
" id="DejaVuSans-117"/>
     </defs>
     <g style="fill:#262626;" transform="translate(14.798438 138.054375)rotate(-90)scale(0.1 -0.1)">
      <use xlink:href="#DejaVuSans-112"/>
      <use x="63.476562" xlink:href="#DejaVuSans-45"/>
      <use x="99.529297" xlink:href="#DejaVuSans-118"/>
      <use x="158.708984" xlink:href="#DejaVuSans-97"/>
      <use x="219.988281" xlink:href="#DejaVuSans-108"/>
      <use x="247.771484" xlink:href="#DejaVuSans-117"/>
      <use x="311.150391" xlink:href="#DejaVuSans-101"/>
     </g>
    </g>
   </g>
   <g id="PolyCollection_1">
    <defs>
     <path d="M 74.217614 -237.130603 
L 74.217614 -224.939141 
L 77.26125 -228.224482 
L 80.304886 -227.37561 
L 83.348523 -229.228745 
L 86.392159 -226.081113 
L 89.435795 -230.551369 
L 92.479432 -224.697888 
L 95.523068 -226.492569 
L 98.566705 -222.580916 
L 101.610341 -224.119937 
L 104.653977 -223.477854 
L 107.697614 -226.757122 
L 110.74125 -225.140278 
L 113.784886 -222.339507 
L 116.828523 -225.277557 
L 119.872159 -225.118961 
L 122.915795 -231.851409 
L 125.959432 -226.407383 
L 129.003068 -225.708656 
L 132.046705 -225.613799 
L 135.090341 -224.893741 
L 138.133977 -220.96623 
L 141.177614 -222.503254 
L 144.22125 -226.432111 
L 147.264886 -222.939309 
L 150.308523 -224.086983 
L 153.352159 -225.075844 
L 156.395795 -225.911342 
L 159.439432 -225.828827 
L 162.483068 -227.007557 
L 165.526705 -223.462173 
L 168.570341 -223.686496 
L 171.613977 -223.220426 
L 174.657614 -225.571677 
L 177.70125 -222.188792 
L 180.744886 -226.318518 
L 183.788523 -226.002335 
L 186.832159 -227.018401 
L 189.875795 -228.047116 
L 192.919432 -227.274972 
L 195.963068 -225.75317 
L 199.006705 -225.286689 
L 202.050341 -225.499359 
L 205.093977 -226.666281 
L 208.137614 -226.887506 
L 211.18125 -228.109442 
L 214.224886 -231.87421 
L 217.268523 -228.012009 
L 220.312159 -223.224711 
L 223.355795 -223.750076 
L 226.399432 -225.847155 
L 229.443068 -223.456356 
L 232.486705 -229.325656 
L 235.530341 -223.863878 
L 238.573977 -225.11641 
L 241.617614 -219.577415 
L 244.66125 -224.748482 
L 247.704886 -222.930751 
L 250.748523 -227.489784 
L 253.792159 -224.732822 
L 256.835795 -222.922406 
L 259.879432 -227.599821 
L 262.923068 -228.035032 
L 265.966705 -222.135111 
L 269.010341 -226.505595 
L 272.053977 -223.523986 
L 275.097614 -227.104951 
L 278.14125 -225.345956 
L 281.184886 -229.637768 
L 284.228523 -224.692492 
L 287.272159 -224.436693 
L 290.315795 -223.004954 
L 293.359432 -226.444553 
L 296.403068 -221.659675 
L 299.446705 -228.576193 
L 302.490341 -221.182461 
L 305.533977 -228.334375 
L 308.577614 -226.06728 
L 311.62125 -224.18931 
L 314.664886 -223.733987 
L 317.708523 -224.224649 
L 320.752159 -226.768381 
L 323.795795 -226.54055 
L 326.839432 -228.65604 
L 329.883068 -222.087996 
L 332.926705 -223.945345 
L 335.970341 -221.008174 
L 339.013977 -221.872889 
L 342.057614 -224.303809 
L 345.10125 -225.594233 
L 348.144886 -227.243729 
L 351.188523 -222.214102 
L 354.232159 -220.637878 
L 357.275795 -224.429578 
L 360.319432 -221.577598 
L 360.319432 -234.611315 
L 360.319432 -234.611315 
L 357.275795 -237.568848 
L 354.232159 -233.861247 
L 351.188523 -235.385851 
L 348.144886 -240.392103 
L 345.10125 -238.993422 
L 342.057614 -236.513532 
L 339.013977 -234.962536 
L 335.970341 -234.024718 
L 332.926705 -237.546871 
L 329.883068 -234.763769 
L 326.839432 -241.707926 
L 323.795795 -239.824322 
L 320.752159 -240.64966 
L 317.708523 -236.768349 
L 314.664886 -237.436514 
L 311.62125 -237.444222 
L 308.577614 -238.698797 
L 305.533977 -241.426417 
L 302.490341 -234.166416 
L 299.446705 -241.638878 
L 296.403068 -233.965637 
L 293.359432 -239.995702 
L 290.315795 -236.822328 
L 287.272159 -237.490524 
L 284.228523 -237.563823 
L 281.184886 -242.774209 
L 278.14125 -238.281364 
L 275.097614 -240.196281 
L 272.053977 -236.884994 
L 269.010341 -239.530062 
L 265.966705 -235.777437 
L 262.923068 -240.687004 
L 259.879432 -241.200447 
L 256.835795 -236.463147 
L 253.792159 -237.995854 
L 250.748523 -240.414967 
L 247.704886 -235.399305 
L 244.66125 -238.277074 
L 241.617614 -233.340753 
L 238.573977 -238.444759 
L 235.530341 -237.126032 
L 232.486705 -242.363528 
L 229.443068 -236.858149 
L 226.399432 -238.362551 
L 223.355795 -237.071702 
L 220.312159 -237.001353 
L 217.268523 -240.966708 
L 214.224886 -244.982216 
L 211.18125 -240.517459 
L 208.137614 -240.094111 
L 205.093977 -239.849064 
L 202.050341 -237.962012 
L 199.006705 -238.381473 
L 195.963068 -238.481109 
L 192.919432 -239.845139 
L 189.875795 -241.23832 
L 186.832159 -240.221324 
L 183.788523 -239.419395 
L 180.744886 -239.425447 
L 177.70125 -234.99168 
L 174.657614 -239.371358 
L 171.613977 -236.598448 
L 168.570341 -236.565374 
L 165.526705 -236.654165 
L 162.483068 -239.631739 
L 159.439432 -239.056254 
L 156.395795 -239.299227 
L 153.352159 -237.79876 
L 150.308523 -237.651377 
L 147.264886 -236.006102 
L 144.22125 -240.150067 
L 141.177614 -235.925658 
L 138.133977 -234.635052 
L 135.090341 -238.449474 
L 132.046705 -238.47996 
L 129.003068 -238.963201 
L 125.959432 -239.322995 
L 122.915795 -245.112614 
L 119.872159 -239.068553 
L 116.828523 -238.261029 
L 113.784886 -236.377365 
L 110.74125 -238.00522 
L 107.697614 -239.58364 
L 104.653977 -237.675134 
L 101.610341 -237.734078 
L 98.566705 -236.132095 
L 95.523068 -239.831705 
L 92.479432 -238.127986 
L 89.435795 -243.740802 
L 86.392159 -239.149294 
L 83.348523 -242.675729 
L 80.304886 -240.583344 
L 77.26125 -242.233233 
L 74.217614 -237.130603 
z
" id="m40c383f07e" style="stroke:#909090;stroke-opacity:0.2;"/>
    </defs>
    <g clip-path="url(#pb2dfab08eb)">
     <use style="fill:#909090;fill-opacity:0.2;stroke:#909090;stroke-opacity:0.2;" x="0" xlink:href="#m40c383f07e" y="265.69625"/>
    </g>
   </g>
   <g id="PolyCollection_2">
    <defs>
     <path d="M 74.217614 -191.07646 
L 74.217614 -178.272255 
L 77.26125 -156.009892 
L 80.304886 -147.283314 
L 83.348523 -148.559471 
L 86.392159 -139.591274 
L 89.435795 -132.827682 
L 92.479432 -126.858965 
L 95.523068 -117.705986 
L 98.566705 -111.910424 
L 101.610341 -108.987503 
L 104.653977 -104.071289 
L 107.697614 -100.635377 
L 110.74125 -96.070636 
L 113.784886 -93.49733 
L 116.828523 -89.009744 
L 119.872159 -84.304443 
L 122.915795 -80.100176 
L 125.959432 -79.407625 
L 129.003068 -79.091358 
L 132.046705 -76.905235 
L 135.090341 -74.364322 
L 138.133977 -70.142165 
L 141.177614 -70.609899 
L 144.22125 -69.896456 
L 147.264886 -67.972531 
L 150.308523 -65.179965 
L 153.352159 -65.534141 
L 156.395795 -61.249603 
L 159.439432 -63.519993 
L 162.483068 -62.729084 
L 165.526705 -60.573717 
L 168.570341 -59.486364 
L 171.613977 -58.489986 
L 174.657614 -56.931665 
L 177.70125 -57.417681 
L 180.744886 -54.978268 
L 183.788523 -55.486875 
L 186.832159 -54.792579 
L 189.875795 -53.853757 
L 192.919432 -54.313224 
L 195.963068 -53.599789 
L 199.006705 -51.9162 
L 202.050341 -53.60203 
L 205.093977 -51.786932 
L 208.137614 -51.758454 
L 211.18125 -51.42899 
L 214.224886 -51.792859 
L 217.268523 -51.412952 
L 220.312159 -51.049001 
L 223.355795 -50.925586 
L 226.399432 -50.239778 
L 229.443068 -50.015694 
L 232.486705 -50.148912 
L 235.530341 -50.198808 
L 238.573977 -49.872229 
L 241.617614 -49.309475 
L 244.66125 -49.463972 
L 247.704886 -48.670022 
L 250.748523 -48.871114 
L 253.792159 -49.165927 
L 256.835795 -48.461173 
L 259.879432 -48.720726 
L 262.923068 -48.326984 
L 265.966705 -48.581266 
L 269.010341 -48.322795 
L 272.053977 -48.535568 
L 275.097614 -48.27993 
L 278.14125 -48.130731 
L 281.184886 -48.247452 
L 284.228523 -48.316281 
L 287.272159 -48.218507 
L 290.315795 -47.914884 
L 293.359432 -47.944331 
L 296.403068 -48.011261 
L 299.446705 -47.863115 
L 302.490341 -47.796664 
L 305.533977 -47.902081 
L 308.577614 -47.735355 
L 311.62125 -47.805774 
L 314.664886 -47.767138 
L 317.708523 -47.779761 
L 320.752159 -47.725235 
L 323.795795 -47.694754 
L 326.839432 -47.697402 
L 329.883068 -47.628867 
L 332.926705 -47.632229 
L 335.970341 -47.625611 
L 339.013977 -47.593701 
L 342.057614 -47.603166 
L 345.10125 -47.581449 
L 348.144886 -47.577788 
L 351.188523 -47.556418 
L 354.232159 -47.55865 
L 357.275795 -47.532959 
L 360.319432 -47.524958 
L 360.319432 -47.744779 
L 360.319432 -47.744779 
L 357.275795 -47.721618 
L 354.232159 -47.704033 
L 351.188523 -47.676027 
L 348.144886 -47.662871 
L 345.10125 -47.937374 
L 342.057614 -47.784897 
L 339.013977 -47.673335 
L 335.970341 -47.77244 
L 332.926705 -48.044089 
L 329.883068 -47.846907 
L 326.839432 -48.209356 
L 323.795795 -48.044126 
L 320.752159 -48.24181 
L 317.708523 -48.516285 
L 314.664886 -48.448843 
L 311.62125 -48.080026 
L 308.577614 -48.256238 
L 305.533977 -48.756323 
L 302.490341 -48.009958 
L 299.446705 -48.234531 
L 296.403068 -48.637912 
L 293.359432 -48.895414 
L 290.315795 -48.276122 
L 287.272159 -48.868343 
L 284.228523 -49.166747 
L 281.184886 -49.378521 
L 278.14125 -48.639938 
L 275.097614 -49.025328 
L 272.053977 -49.595657 
L 269.010341 -49.302045 
L 265.966705 -49.795607 
L 262.923068 -49.042483 
L 259.879432 -49.795322 
L 256.835795 -49.249283 
L 253.792159 -50.451225 
L 250.748523 -50.147976 
L 247.704886 -49.496036 
L 244.66125 -50.934609 
L 241.617614 -50.43708 
L 238.573977 -51.975333 
L 235.530341 -52.2655 
L 232.486705 -52.179137 
L 229.443068 -51.752077 
L 226.399432 -52.048523 
L 223.355795 -53.139566 
L 220.312159 -53.06724 
L 217.268523 -54.024535 
L 214.224886 -53.891206 
L 211.18125 -53.087251 
L 208.137614 -53.847746 
L 205.093977 -53.941004 
L 202.050341 -56.482701 
L 199.006705 -54.11371 
L 195.963068 -57.051926 
L 192.919432 -57.561154 
L 189.875795 -56.628178 
L 186.832159 -58.294942 
L 183.788523 -59.252512 
L 180.744886 -58.044714 
L 177.70125 -61.960406 
L 174.657614 -60.999815 
L 171.613977 -62.993634 
L 168.570341 -63.524128 
L 165.526705 -65.791385 
L 162.483068 -68.157531 
L 159.439432 -68.897619 
L 156.395795 -65.809336 
L 153.352159 -71.222228 
L 150.308523 -70.429947 
L 147.264886 -73.785734 
L 144.22125 -76.218278 
L 141.177614 -77.464291 
L 138.133977 -76.473874 
L 135.090341 -81.040544 
L 132.046705 -83.831811 
L 129.003068 -86.929218 
L 125.959432 -86.921738 
L 122.915795 -87.818531 
L 119.872159 -92.121954 
L 116.828523 -97.286715 
L 113.784886 -102.800103 
L 110.74125 -106.384233 
L 107.697614 -110.927606 
L 104.653977 -114.387769 
L 101.610341 -120.271705 
L 98.566705 -122.422676 
L 95.523068 -129.072555 
L 92.479432 -137.919017 
L 89.435795 -144.989682 
L 86.392159 -152.130127 
L 83.348523 -160.943237 
L 80.304886 -159.285156 
L 77.26125 -168.791923 
L 74.217614 -191.07646 
z
" id="mcf079e8ee5" style="stroke:#cc503e;stroke-opacity:0.2;"/>
    </defs>
    <g clip-path="url(#pb2dfab08eb)">
     <use style="fill:#cc503e;fill-opacity:0.2;stroke:#cc503e;stroke-opacity:0.2;" x="0" xlink:href="#mcf079e8ee5" y="265.69625"/>
    </g>
   </g>
   <g id="PolyCollection_3">
    <defs>
     <path d="M 74.217614 -106.433472 
L 74.217614 -98.061766 
L 77.26125 -86.773602 
L 80.304886 -77.151822 
L 83.348523 -70.24292 
L 86.392159 -63.652284 
L 89.435795 -59.882102 
L 92.479432 -57.140895 
L 95.523068 -54.557429 
L 98.566705 -52.488336 
L 101.610341 -52.375583 
L 104.653977 -50.79294 
L 107.697614 -49.643357 
L 110.74125 -49.336309 
L 113.784886 -48.832561 
L 116.828523 -48.65228 
L 119.872159 -48.363547 
L 122.915795 -48.179566 
L 125.959432 -48.066338 
L 129.003068 -48.042359 
L 132.046705 -47.850422 
L 135.090341 -47.65927 
L 138.133977 -47.58344 
L 141.177614 -47.669487 
L 144.22125 -47.525581 
L 147.264886 -47.551832 
L 150.308523 -47.513548 
L 153.352159 -47.493308 
L 156.395795 -47.465301 
L 159.439432 -47.483633 
L 162.483068 -47.467633 
L 165.526705 -47.459061 
L 168.570341 -47.455869 
L 171.613977 -47.447873 
L 174.657614 -47.448085 
L 177.70125 -47.445609 
L 180.744886 -47.44439 
L 183.788523 -47.443176 
L 186.832159 -47.443593 
L 189.875795 -47.442235 
L 192.919432 -47.441204 
L 195.963068 -47.441288 
L 199.006705 -47.440783 
L 202.050341 -47.440422 
L 205.093977 -47.440285 
L 208.137614 -47.440672 
L 211.18125 -47.440724 
L 214.224886 -47.440314 
L 217.268523 -47.440141 
L 220.312159 -47.440057 
L 223.355795 -47.440041 
L 226.399432 -47.440029 
L 229.443068 -47.439956 
L 232.486705 -47.439923 
L 235.530341 -47.439953 
L 238.573977 -47.439934 
L 241.617614 -47.439932 
L 244.66125 -47.439907 
L 247.704886 -47.439898 
L 250.748523 -47.439905 
L 253.792159 -47.439903 
L 256.835795 -47.439891 
L 259.879432 -47.439889 
L 262.923068 -47.43989 
L 265.966705 -47.439892 
L 269.010341 -47.439888 
L 272.053977 -47.43989 
L 275.097614 -47.439888 
L 278.14125 -47.439887 
L 281.184886 -47.439887 
L 284.228523 -47.439888 
L 287.272159 -47.439887 
L 290.315795 -47.439887 
L 293.359432 -47.439887 
L 296.403068 -47.439886 
L 299.446705 -47.439887 
L 302.490341 -47.439886 
L 305.533977 -47.439886 
L 308.577614 -47.439886 
L 311.62125 -47.439886 
L 314.664886 -47.439886 
L 317.708523 -47.439886 
L 320.752159 -47.439886 
L 323.795795 -47.439886 
L 326.839432 -47.439886 
L 329.883068 -47.439886 
L 332.926705 -47.439886 
L 335.970341 -47.439886 
L 339.013977 -47.439886 
L 342.057614 -47.439886 
L 345.10125 -47.439886 
L 348.144886 -47.439886 
L 351.188523 -47.439886 
L 354.232159 -47.439886 
L 357.275795 -47.439886 
L 360.319432 -47.439886 
L 360.319432 -47.439886 
L 360.319432 -47.439886 
L 357.275795 -47.439886 
L 354.232159 -47.439886 
L 351.188523 -47.439886 
L 348.144886 -47.439886 
L 345.10125 -47.439886 
L 342.057614 -47.439886 
L 339.013977 -47.439886 
L 335.970341 -47.439886 
L 332.926705 -47.439886 
L 329.883068 -47.439886 
L 326.839432 -47.439886 
L 323.795795 -47.439887 
L 320.752159 -47.439886 
L 317.708523 -47.439886 
L 314.664886 -47.439888 
L 311.62125 -47.439887 
L 308.577614 -47.439889 
L 305.533977 -47.439889 
L 302.490341 -47.439887 
L 299.446705 -47.439887 
L 296.403068 -47.439887 
L 293.359432 -47.439888 
L 290.315795 -47.439891 
L 287.272159 -47.439888 
L 284.228523 -47.439893 
L 281.184886 -47.439889 
L 278.14125 -47.43989 
L 275.097614 -47.439897 
L 272.053977 -47.439918 
L 269.010341 -47.439912 
L 265.966705 -47.439938 
L 262.923068 -47.439925 
L 259.879432 -47.43991 
L 256.835795 -47.440336 
L 253.792159 -47.439996 
L 250.748523 -47.440467 
L 247.704886 -47.440291 
L 244.66125 -47.440048 
L 241.617614 -47.440328 
L 238.573977 -47.440097 
L 235.530341 -47.440283 
L 232.486705 -47.440092 
L 229.443068 -47.440342 
L 226.399432 -47.440869 
L 223.355795 -47.441089 
L 220.312159 -47.440408 
L 217.268523 -47.440599 
L 214.224886 -47.44148 
L 211.18125 -47.44321 
L 208.137614 -47.442331 
L 205.093977 -47.440804 
L 202.050341 -47.441544 
L 199.006705 -47.44528 
L 195.963068 -47.443677 
L 192.919432 -47.444175 
L 189.875795 -47.444835 
L 186.832159 -47.449098 
L 183.788523 -47.449295 
L 180.744886 -47.4504 
L 177.70125 -47.453298 
L 174.657614 -47.454855 
L 171.613977 -47.461563 
L 168.570341 -47.514435 
L 165.526705 -47.478216 
L 162.483068 -47.514066 
L 159.439432 -47.538664 
L 156.395795 -47.490322 
L 153.352159 -47.539275 
L 150.308523 -47.619386 
L 147.264886 -47.678073 
L 144.22125 -47.573571 
L 141.177614 -47.93372 
L 138.133977 -47.672452 
L 135.090341 -47.972051 
L 132.046705 -48.14447 
L 129.003068 -48.582988 
L 125.959432 -48.568891 
L 122.915795 -48.710203 
L 119.872159 -48.857424 
L 116.828523 -49.274187 
L 113.784886 -49.634526 
L 110.74125 -50.372836 
L 107.697614 -50.715409 
L 104.653977 -52.586446 
L 101.610341 -54.575049 
L 98.566705 -54.480335 
L 95.523068 -57.072812 
L 92.479432 -60.109809 
L 89.435795 -63.771955 
L 86.392159 -68.334262 
L 83.348523 -75.573547 
L 80.304886 -84.394094 
L 77.26125 -94.262617 
L 74.217614 -106.433472 
z
" id="m554023218f" style="stroke:#1d6996;stroke-opacity:0.2;"/>
    </defs>
    <g clip-path="url(#pb2dfab08eb)">
     <use style="fill:#1d6996;fill-opacity:0.2;stroke:#1d6996;stroke-opacity:0.2;" x="0" xlink:href="#m554023218f" y="265.69625"/>
    </g>
   </g>
   <g id="line2d_13">
    <path clip-path="url(#pb2dfab08eb)" d="M 74.217614 34.450772 
L 77.26125 30.834847 
L 80.304886 32.117564 
L 83.348523 29.695337 
L 86.392159 33.218964 
L 89.435795 28.500378 
L 92.479432 33.90172 
L 95.523068 32.281603 
L 98.566705 36.008367 
L 101.610341 34.744394 
L 104.653977 35.138517 
L 107.697614 32.490893 
L 110.74125 34.210244 
L 113.784886 36.664903 
L 116.828523 33.612747 
L 119.872159 33.616003 
L 122.915795 26.988231 
L 125.959432 32.703619 
L 129.003068 33.109105 
L 132.046705 33.68631 
L 135.090341 33.986728 
L 138.133977 37.891956 
L 141.177614 36.305682 
L 144.22125 32.581926 
L 147.264886 35.999305 
L 150.308523 35.004121 
L 153.352159 34.111818 
L 156.395795 33.355092 
L 159.439432 33.104926 
L 162.483068 32.432971 
L 165.526705 35.820566 
L 168.570341 35.738681 
L 171.613977 35.972059 
L 174.657614 33.298269 
L 177.70125 37.343859 
L 180.744886 32.979266 
L 183.788523 33.155696 
L 186.832159 32.12601 
L 189.875795 30.674114 
L 192.919432 31.921383 
L 195.963068 33.361942 
L 199.006705 33.787933 
L 202.050341 33.817195 
L 205.093977 32.66905 
L 208.137614 32.087537 
L 211.18125 31.47153 
L 214.224886 26.998198 
L 217.268523 31.331718 
L 220.312159 35.823127 
L 223.355795 35.156391 
L 226.399432 33.494835 
L 229.443068 35.486393 
L 232.486705 29.73717 
L 235.530341 35.48886 
L 238.573977 34.032848 
L 241.617614 39.295048 
L 244.66125 34.033538 
L 247.704886 36.130905 
L 250.748523 31.872539 
L 253.792159 34.015109 
L 256.835795 36.102575 
L 259.879432 31.220406 
L 262.923068 31.34883 
L 265.966705 36.947007 
L 269.010341 32.634955 
L 272.053977 35.663325 
L 275.097614 32.223127 
L 278.14125 33.715188 
L 281.184886 29.289827 
L 284.228523 34.38577 
L 287.272159 34.749955 
L 290.315795 35.96523 
L 293.359432 32.282454 
L 296.403068 38.084786 
L 299.446705 30.333893 
L 302.490341 38.014606 
L 305.533977 30.750409 
L 308.577614 33.345586 
L 311.62125 34.84766 
L 314.664886 35.077124 
L 317.708523 35.598553 
L 320.752159 32.032434 
L 323.795795 32.577801 
L 326.839432 30.57968 
L 329.883068 37.474187 
L 332.926705 34.911874 
L 335.970341 38.053917 
L 339.013977 37.456935 
L 342.057614 35.230839 
L 345.10125 33.593906 
L 348.144886 31.827864 
L 351.188523 36.76189 
L 354.232159 38.520562 
L 357.275795 34.803339 
L 360.319432 37.463803 
" style="fill:none;stroke:#909090;stroke-linecap:round;stroke-width:1.5;"/>
   </g>
   <g id="line2d_14">
    <path clip-path="url(#pb2dfab08eb)" d="M 74.217614 80.84845 
L 77.26125 103.359628 
L 80.304886 112.19759 
L 83.348523 110.999493 
L 86.392159 119.900584 
L 89.435795 126.81985 
L 92.479432 133.341112 
L 95.523068 142.87813 
L 98.566705 148.274517 
L 101.610341 151.212773 
L 104.653977 156.655135 
L 107.697614 160.140323 
L 110.74125 164.849715 
L 113.784886 167.459248 
L 116.828523 172.56673 
L 119.872159 177.37731 
L 122.915795 181.722538 
L 125.959432 182.513557 
L 129.003068 182.963747 
L 132.046705 185.400635 
L 135.090341 187.965633 
L 138.133977 192.609804 
L 141.177614 191.80238 
L 144.22125 192.677902 
L 147.264886 194.947846 
L 150.308523 198.011952 
L 153.352159 197.322141 
L 156.395795 202.136531 
L 159.439432 199.57605 
L 162.483068 200.492708 
L 165.526705 202.668537 
L 168.570341 204.260243 
L 171.613977 205.029415 
L 174.657614 206.766382 
L 177.70125 206.050296 
L 180.744886 209.263049 
L 183.788523 208.32764 
L 186.832159 209.237288 
L 189.875795 210.535941 
L 192.919432 209.860858 
L 195.963068 210.399875 
L 199.006705 212.731728 
L 202.050341 210.711042 
L 205.093977 212.870399 
L 208.137614 212.944704 
L 211.18125 213.491748 
L 214.224886 212.874957 
L 217.268523 213.034991 
L 220.312159 213.679555 
L 223.355795 213.768413 
L 226.399432 214.595919 
L 229.443068 214.886512 
L 232.486705 214.570451 
L 235.530341 214.584737 
L 238.573977 214.869687 
L 241.617614 215.827246 
L 244.66125 215.562385 
L 247.704886 216.637448 
L 250.748523 216.259485 
L 253.792159 215.915625 
L 256.835795 216.885655 
L 259.879432 216.483653 
L 262.923068 217.045169 
L 265.966705 216.571824 
L 269.010341 216.959114 
L 272.053977 216.665377 
L 275.097614 217.060795 
L 278.14125 217.3249 
L 281.184886 216.963242 
L 284.228523 217.0087 
L 287.272159 217.167167 
L 290.315795 217.620936 
L 293.359432 217.376771 
L 296.403068 217.387864 
L 299.446705 217.65795 
L 302.490341 217.802435 
L 305.533977 217.435845 
L 308.577614 217.743936 
L 311.62125 217.761732 
L 314.664886 217.661665 
L 317.708523 217.629031 
L 320.752159 217.757903 
L 323.795795 217.855575 
L 326.839432 217.781602 
L 329.883068 217.969675 
L 332.926705 217.897901 
L 335.970341 218.001006 
L 339.013977 218.065774 
L 342.057614 218.006941 
L 345.10125 217.973208 
L 348.144886 218.079471 
L 351.188523 218.086843 
L 354.232159 218.072183 
L 357.275795 218.080373 
L 360.319432 218.089411 
" style="fill:none;stroke:#cc503e;stroke-linecap:round;stroke-width:1.5;"/>
   </g>
   <g id="line2d_15">
    <path clip-path="url(#pb2dfab08eb)" d="M 74.217614 163.392839 
L 77.26125 175.39444 
L 80.304886 184.978846 
L 83.348523 192.768493 
L 86.392159 199.616031 
L 89.435795 203.919084 
L 92.479432 207.144027 
L 95.523068 209.939143 
L 98.566705 212.236194 
L 101.610341 212.245154 
L 104.653977 214.083494 
L 107.697614 215.574547 
L 110.74125 215.916527 
L 113.784886 216.491696 
L 116.828523 216.740373 
L 119.872159 217.117008 
L 122.915795 217.271329 
L 125.959432 217.407653 
L 129.003068 217.420831 
L 132.046705 217.716504 
L 135.090341 217.907004 
L 138.133977 218.071276 
L 141.177614 217.90573 
L 144.22125 218.148011 
L 147.264886 218.091999 
L 150.308523 218.137239 
L 153.352159 218.182247 
L 156.395795 218.219892 
L 159.439432 218.187949 
L 162.483068 218.209931 
L 165.526705 218.228509 
L 168.570341 218.217848 
L 171.613977 218.242426 
L 174.657614 218.245144 
L 177.70125 218.247117 
L 180.744886 218.249024 
L 183.788523 218.25057 
L 186.832159 218.250241 
L 189.875795 218.252853 
L 192.919432 218.253772 
L 195.963068 218.253934 
L 199.006705 218.253627 
L 202.050341 218.255342 
L 205.093977 218.255743 
L 208.137614 218.254894 
L 211.18125 218.254452 
L 214.224886 218.255448 
L 217.268523 218.255891 
L 220.312159 218.256043 
L 223.355795 218.255797 
L 226.399432 218.255886 
L 229.443068 218.256154 
L 232.486705 218.256256 
L 235.530341 218.256151 
L 238.573977 218.256247 
L 241.617614 218.256176 
L 244.66125 218.256287 
L 247.704886 218.256216 
L 250.748523 218.256191 
L 253.792159 218.256309 
L 256.835795 218.256242 
L 259.879432 218.256353 
L 262.923068 218.256348 
L 265.966705 218.256341 
L 269.010341 218.256353 
L 272.053977 218.256349 
L 275.097614 218.256358 
L 278.14125 218.256362 
L 281.184886 218.256362 
L 284.228523 218.25636 
L 287.272159 218.256363 
L 290.315795 218.256361 
L 293.359432 218.256363 
L 296.403068 218.256363 
L 299.446705 218.256363 
L 302.490341 218.256363 
L 305.533977 218.256363 
L 308.577614 218.256363 
L 311.62125 218.256364 
L 314.664886 218.256363 
L 317.708523 218.256364 
L 320.752159 218.256364 
L 323.795795 218.256363 
L 326.839432 218.256364 
L 329.883068 218.256364 
L 332.926705 218.256364 
L 335.970341 218.256364 
L 339.013977 218.256364 
L 342.057614 218.256364 
L 345.10125 218.256364 
L 348.144886 218.256364 
L 351.188523 218.256364 
L 354.232159 218.256364 
L 357.275795 218.256364 
L 360.319432 218.256364 
" style="fill:none;stroke:#1d6996;stroke-linecap:round;stroke-width:1.5;"/>
   </g>
   <g id="line2d_16">
    <path clip-path="url(#pb2dfab08eb)" d="M 58.999432 199.846893 
L 363.363068 199.846893 
" style="fill:none;stroke:#909090;stroke-linecap:round;stroke-width:1.5;"/>
   </g>
   <g id="patch_3">
    <path d="M 43.78125 228.14 
L 43.78125 10.7 
" style="fill:none;stroke:#262626;stroke-linecap:square;stroke-linejoin:miter;stroke-width:0.8;"/>
   </g>
   <g id="patch_4">
    <path d="M 43.78125 228.14 
L 378.58125 228.14 
" style="fill:none;stroke:#262626;stroke-linecap:square;stroke-linejoin:miter;stroke-width:0.8;"/>
   </g>
   <g id="text_15">
    <!-- p: 0.05 -->
    <defs>
     <path d="M 11.71875 12.40625 
L 22.015625 12.40625 
L 22.015625 0 
L 11.71875 0 
z
M 11.71875 51.703125 
L 22.015625 51.703125 
L 22.015625 39.3125 
L 11.71875 39.3125 
z
" id="DejaVuSans-58"/>
    </defs>
    <g style="fill:#909090;" transform="translate(311.62125 196.164998)scale(0.14 -0.14)">
     <use xlink:href="#DejaVuSans-112"/>
     <use x="63.476562" xlink:href="#DejaVuSans-58"/>
     <use x="97.167969" xlink:href="#DejaVuSans-32"/>
     <use x="128.955078" xlink:href="#DejaVuSans-48"/>
     <use x="192.578125" xlink:href="#DejaVuSans-46"/>
     <use x="224.365234" xlink:href="#DejaVuSans-48"/>
     <use x="287.988281" xlink:href="#DejaVuSans-53"/>
    </g>
   </g>
   <g id="text_16">
    <!-- $\mu = 0\;\; \sigma = 1$ -->
    <defs>
     <path d="M -1.3125 -20.796875 
L 13.375 54.6875 
L 22.40625 54.6875 
L 15.765625 20.65625 
Q 15.578125 19.625 15.421875 18.359375 
Q 15.28125 17.09375 15.28125 15.828125 
Q 15.28125 11.28125 18.140625 8.828125 
Q 21 6.390625 26.3125 6.390625 
Q 33.546875 6.390625 37.984375 10.484375 
Q 42.4375 14.59375 44 22.796875 
L 50.203125 54.6875 
L 59.1875 54.6875 
L 51.03125 12.640625 
Q 50.828125 11.71875 50.75 11.03125 
Q 50.6875 10.359375 50.6875 9.8125 
Q 50.6875 8.296875 51.296875 7.59375 
Q 51.90625 6.890625 53.21875 6.890625 
Q 53.71875 6.890625 54.5625 7.125 
Q 55.421875 7.375 56.984375 8.015625 
L 55.609375 0.78125 
Q 53.46875 -0.296875 51.515625 -0.859375 
Q 49.5625 -1.421875 47.703125 -1.421875 
Q 44.484375 -1.421875 42.65625 0.625 
Q 40.828125 2.6875 40.828125 6.296875 
Q 38.09375 2.390625 34.296875 0.484375 
Q 30.515625 -1.421875 25.390625 -1.421875 
Q 20.84375 -1.421875 17.453125 0.671875 
Q 14.0625 2.78125 12.984375 6.203125 
L 7.71875 -20.796875 
z
" id="DejaVuSans-Oblique-956"/>
     <path d="M 10.59375 45.40625 
L 73.1875 45.40625 
L 73.1875 37.203125 
L 10.59375 37.203125 
z
M 10.59375 25.484375 
L 73.1875 25.484375 
L 73.1875 17.1875 
L 10.59375 17.1875 
z
" id="DejaVuSans-61"/>
     <path d="M 34.671875 47.5625 
Q 27.25 47.5625 22.21875 42.1875 
Q 16.890625 36.578125 15.140625 27.296875 
Q 13.1875 17.484375 16.3125 11.8125 
Q 19.390625 6.203125 26.65625 6.203125 
Q 33.84375 6.203125 39.109375 11.859375 
Q 44.4375 17.53125 46.34375 27.296875 
Q 48.046875 36.234375 45.015625 42.1875 
Q 42.1875 47.5625 34.671875 47.5625 
z
M 36.078125 54.734375 
L 65.921875 54.6875 
L 64.15625 45.703125 
L 54.109375 45.703125 
Q 57.90625 38.09375 55.859375 27.296875 
Q 53.21875 13.875 45.0625 6.25 
Q 36.859375 -1.421875 25.140625 -1.421875 
Q 13.375 -1.421875 8.203125 6.25 
Q 3.03125 13.875 5.671875 27.296875 
Q 8.25 40.765625 16.40625 48.390625 
Q 23.1875 54.734375 36.078125 54.734375 
z
" id="DejaVuSans-Oblique-963"/>
    </defs>
    <g style="fill:#909090;" transform="translate(290.315795 70.980596)scale(0.14 -0.14)">
     <use transform="translate(0 0.78125)" xlink:href="#DejaVuSans-Oblique-956"/>
     <use transform="translate(83.105469 0.78125)" xlink:href="#DejaVuSans-61"/>
     <use transform="translate(186.376953 0.78125)" xlink:href="#DejaVuSans-48"/>
     <use transform="translate(304.118271 0.78125)" xlink:href="#DejaVuSans-Oblique-963"/>
     <use transform="translate(386.9796 0.78125)" xlink:href="#DejaVuSans-61"/>
     <use transform="translate(490.251084 0.78125)" xlink:href="#DejaVuSans-49"/>
    </g>
   </g>
   <g id="text_17">
    <!-- $\mu = 0.5\;\; \sigma = 1$ -->
    <g style="fill:#cc503e;" transform="translate(290.315795 85.708172)scale(0.14 -0.14)">
     <use transform="translate(0 0.78125)" xlink:href="#DejaVuSans-Oblique-956"/>
     <use transform="translate(83.105469 0.78125)" xlink:href="#DejaVuSans-61"/>
     <use transform="translate(186.376953 0.78125)" xlink:href="#DejaVuSans-48"/>
     <use transform="translate(250 0.78125)" xlink:href="#DejaVuSans-46"/>
     <use transform="translate(281.787109 0.78125)" xlink:href="#DejaVuSans-53"/>
     <use transform="translate(399.528428 0.78125)" xlink:href="#DejaVuSans-Oblique-963"/>
     <use transform="translate(482.389756 0.78125)" xlink:href="#DejaVuSans-61"/>
     <use transform="translate(585.66124 0.78125)" xlink:href="#DejaVuSans-49"/>
    </g>
   </g>
   <g id="text_18">
    <!-- $\mu = 1\;\; \sigma = 1$ -->
    <g style="fill:#1d6996;" transform="translate(290.315795 100.435749)scale(0.14 -0.14)">
     <use transform="translate(0 0.09375)" xlink:href="#DejaVuSans-Oblique-956"/>
     <use transform="translate(83.105469 0.09375)" xlink:href="#DejaVuSans-61"/>
     <use transform="translate(186.376953 0.09375)" xlink:href="#DejaVuSans-49"/>
     <use transform="translate(304.118271 0.09375)" xlink:href="#DejaVuSans-Oblique-963"/>
     <use transform="translate(386.9796 0.09375)" xlink:href="#DejaVuSans-61"/>
     <use transform="translate(490.251084 0.09375)" xlink:href="#DejaVuSans-49"/>
    </g>
   </g>
   <g id="text_19">
    <!-- $H_1: \mu &gt; 0$ -->
    <defs>
     <path d="M 16.890625 72.90625 
L 26.8125 72.90625 
L 21 43.015625 
L 56.78125 43.015625 
L 62.59375 72.90625 
L 72.515625 72.90625 
L 58.296875 0 
L 48.390625 0 
L 55.171875 34.71875 
L 19.390625 34.71875 
L 12.59375 0 
L 2.6875 0 
z
" id="DejaVuSans-Oblique-72"/>
     <path d="M 10.59375 49.21875 
L 10.59375 58.109375 
L 73.1875 35.40625 
L 73.1875 27.296875 
L 10.59375 4.59375 
L 10.59375 13.484375 
L 60.890625 31.296875 
z
" id="DejaVuSans-62"/>
    </defs>
    <g style="fill:#909090;" transform="translate(290.315795 144.61848)scale(0.14 -0.14)">
     <use transform="translate(0 0.78125)" xlink:href="#DejaVuSans-Oblique-72"/>
     <use transform="translate(75.195312 -15.625)scale(0.7)" xlink:href="#DejaVuSans-49"/>
     <use transform="translate(141.948242 0.78125)" xlink:href="#DejaVuSans-58"/>
     <use transform="translate(195.12207 0.78125)" xlink:href="#DejaVuSans-Oblique-956"/>
     <use transform="translate(278.227539 0.78125)" xlink:href="#DejaVuSans-62"/>
     <use transform="translate(381.499023 0.78125)" xlink:href="#DejaVuSans-48"/>
    </g>
   </g>
  </g>
 </g>
 <defs>
  <clipPath id="pb2dfab08eb">
   <rect height="217.44" width="334.8" x="43.78125" y="10.7"/>
  </clipPath>
 </defs>
</svg>
