<?xml version="1.0" encoding="utf-8" standalone="no"?>
<!DOCTYPE svg PUBLIC "-//W3C//DTD SVG 1.1//EN"
  "http://www.w3.org/Graphics/SVG/1.1/DTD/svg11.dtd">
<!-- Created with matplotlib (https://matplotlib.org/) -->
<svg height="246.772811pt" version="1.1" viewBox="0 0 383.982812 246.772811" width="383.982812pt" xmlns="http://www.w3.org/2000/svg" xmlns:xlink="http://www.w3.org/1999/xlink">
 <defs>
  <style type="text/css">
*{stroke-linecap:butt;stroke-linejoin:round;}
  </style>
 </defs>
 <g id="figure_1">
  <g id="patch_1">
   <path d="M -0 246.772811 
L 383.982812 246.772811 
L 383.982812 0 
L -0 0 
z
" style="fill:none;"/>
  </g>
  <g id="axes_1">
   <g id="patch_2">
    <path d="M 38.482813 228.14 
L 373.282813 228.14 
L 373.282813 10.7 
L 38.482813 10.7 
z
" style="fill:none;"/>
   </g>
   <g id="matplotlib.axis_1">
    <g id="xtick_1"/>
    <g id="xtick_2"/>
    <g id="xtick_3"/>
    <g id="xtick_4"/>
    <g id="xtick_5"/>
    <g id="xtick_6"/>
   </g>
   <g id="matplotlib.axis_2">
    <g id="ytick_1">
     <g id="line2d_1">
      <defs>
       <path d="M 0 0 
L -3.5 0 
" id="mb7f1aa4e87" style="stroke:#262626;stroke-width:0.8;"/>
      </defs>
      <g>
       <use style="fill:#262626;stroke:#262626;stroke-width:0.8;" x="38.482813" xlink:href="#mb7f1aa4e87" y="212.354112"/>
      </g>
     </g>
     <g id="text_1">
      <!-- −1.0 -->
      <defs>
       <path d="M 10.59375 35.5 
L 73.1875 35.5 
L 73.1875 27.203125 
L 10.59375 27.203125 
z
" id="DejaVuSans-8722"/>
       <path d="M 12.40625 8.296875 
L 28.515625 8.296875 
L 28.515625 63.921875 
L 10.984375 60.40625 
L 10.984375 69.390625 
L 28.421875 72.90625 
L 38.28125 72.90625 
L 38.28125 8.296875 
L 54.390625 8.296875 
L 54.390625 0 
L 12.40625 0 
z
" id="DejaVuSans-49"/>
       <path d="M 10.6875 12.40625 
L 21 12.40625 
L 21 0 
L 10.6875 0 
z
" id="DejaVuSans-46"/>
       <path d="M 31.78125 66.40625 
Q 24.171875 66.40625 20.328125 58.90625 
Q 16.5 51.421875 16.5 36.375 
Q 16.5 21.390625 20.328125 13.890625 
Q 24.171875 6.390625 31.78125 6.390625 
Q 39.453125 6.390625 43.28125 13.890625 
Q 47.125 21.390625 47.125 36.375 
Q 47.125 51.421875 43.28125 58.90625 
Q 39.453125 66.40625 31.78125 66.40625 
z
M 31.78125 74.21875 
Q 44.046875 74.21875 50.515625 64.515625 
Q 56.984375 54.828125 56.984375 36.375 
Q 56.984375 17.96875 50.515625 8.265625 
Q 44.046875 -1.421875 31.78125 -1.421875 
Q 19.53125 -1.421875 13.0625 8.265625 
Q 6.59375 17.96875 6.59375 36.375 
Q 6.59375 54.828125 13.0625 64.515625 
Q 19.53125 74.21875 31.78125 74.21875 
z
" id="DejaVuSans-48"/>
      </defs>
      <g style="fill:#262626;" transform="translate(7.2 216.153331)scale(0.1 -0.1)">
       <use xlink:href="#DejaVuSans-8722"/>
       <use x="83.789062" xlink:href="#DejaVuSans-49"/>
       <use x="147.412109" xlink:href="#DejaVuSans-46"/>
       <use x="179.199219" xlink:href="#DejaVuSans-48"/>
      </g>
     </g>
    </g>
    <g id="ytick_2">
     <g id="line2d_2">
      <g>
       <use style="fill:#262626;stroke:#262626;stroke-width:0.8;" x="38.482813" xlink:href="#mb7f1aa4e87" y="181.450271"/>
      </g>
     </g>
     <g id="text_2">
      <!-- −0.5 -->
      <defs>
       <path d="M 10.796875 72.90625 
L 49.515625 72.90625 
L 49.515625 64.59375 
L 19.828125 64.59375 
L 19.828125 46.734375 
Q 21.96875 47.46875 24.109375 47.828125 
Q 26.265625 48.1875 28.421875 48.1875 
Q 40.625 48.1875 47.75 41.5 
Q 54.890625 34.8125 54.890625 23.390625 
Q 54.890625 11.625 47.5625 5.09375 
Q 40.234375 -1.421875 26.90625 -1.421875 
Q 22.3125 -1.421875 17.546875 -0.640625 
Q 12.796875 0.140625 7.71875 1.703125 
L 7.71875 11.625 
Q 12.109375 9.234375 16.796875 8.0625 
Q 21.484375 6.890625 26.703125 6.890625 
Q 35.15625 6.890625 40.078125 11.328125 
Q 45.015625 15.765625 45.015625 23.390625 
Q 45.015625 31 40.078125 35.4375 
Q 35.15625 39.890625 26.703125 39.890625 
Q 22.75 39.890625 18.8125 39.015625 
Q 14.890625 38.140625 10.796875 36.28125 
z
" id="DejaVuSans-53"/>
      </defs>
      <g style="fill:#262626;" transform="translate(7.2 185.249489)scale(0.1 -0.1)">
       <use xlink:href="#DejaVuSans-8722"/>
       <use x="83.789062" xlink:href="#DejaVuSans-48"/>
       <use x="147.412109" xlink:href="#DejaVuSans-46"/>
       <use x="179.199219" xlink:href="#DejaVuSans-53"/>
      </g>
     </g>
    </g>
    <g id="ytick_3">
     <g id="line2d_3">
      <g>
       <use style="fill:#262626;stroke:#262626;stroke-width:0.8;" x="38.482813" xlink:href="#mb7f1aa4e87" y="150.546429"/>
      </g>
     </g>
     <g id="text_3">
      <!-- 0.0 -->
      <g style="fill:#262626;" transform="translate(15.579688 154.345648)scale(0.1 -0.1)">
       <use xlink:href="#DejaVuSans-48"/>
       <use x="63.623047" xlink:href="#DejaVuSans-46"/>
       <use x="95.410156" xlink:href="#DejaVuSans-48"/>
      </g>
     </g>
    </g>
    <g id="ytick_4">
     <g id="line2d_4">
      <g>
       <use style="fill:#262626;stroke:#262626;stroke-width:0.8;" x="38.482813" xlink:href="#mb7f1aa4e87" y="119.642587"/>
      </g>
     </g>
     <g id="text_4">
      <!-- 0.5 -->
      <g style="fill:#262626;" transform="translate(15.579688 123.441806)scale(0.1 -0.1)">
       <use xlink:href="#DejaVuSans-48"/>
       <use x="63.623047" xlink:href="#DejaVuSans-46"/>
       <use x="95.410156" xlink:href="#DejaVuSans-53"/>
      </g>
     </g>
    </g>
    <g id="ytick_5">
     <g id="line2d_5">
      <g>
       <use style="fill:#262626;stroke:#262626;stroke-width:0.8;" x="38.482813" xlink:href="#mb7f1aa4e87" y="88.738746"/>
      </g>
     </g>
     <g id="text_5">
      <!-- 1.0 -->
      <g style="fill:#262626;" transform="translate(15.579688 92.537964)scale(0.1 -0.1)">
       <use xlink:href="#DejaVuSans-49"/>
       <use x="63.623047" xlink:href="#DejaVuSans-46"/>
       <use x="95.410156" xlink:href="#DejaVuSans-48"/>
      </g>
     </g>
    </g>
    <g id="ytick_6">
     <g id="line2d_6">
      <g>
       <use style="fill:#262626;stroke:#262626;stroke-width:0.8;" x="38.482813" xlink:href="#mb7f1aa4e87" y="57.834904"/>
      </g>
     </g>
     <g id="text_6">
      <!-- 1.5 -->
      <g style="fill:#262626;" transform="translate(15.579688 61.634123)scale(0.1 -0.1)">
       <use xlink:href="#DejaVuSans-49"/>
       <use x="63.623047" xlink:href="#DejaVuSans-46"/>
       <use x="95.410156" xlink:href="#DejaVuSans-53"/>
      </g>
     </g>
    </g>
    <g id="ytick_7">
     <g id="line2d_7">
      <g>
       <use style="fill:#262626;stroke:#262626;stroke-width:0.8;" x="38.482813" xlink:href="#mb7f1aa4e87" y="26.931062"/>
      </g>
     </g>
     <g id="text_7">
      <!-- 2.0 -->
      <defs>
       <path d="M 19.1875 8.296875 
L 53.609375 8.296875 
L 53.609375 0 
L 7.328125 0 
L 7.328125 8.296875 
Q 12.9375 14.109375 22.625 23.890625 
Q 32.328125 33.6875 34.8125 36.53125 
Q 39.546875 41.84375 41.421875 45.53125 
Q 43.3125 49.21875 43.3125 52.78125 
Q 43.3125 58.59375 39.234375 62.25 
Q 35.15625 65.921875 28.609375 65.921875 
Q 23.96875 65.921875 18.8125 64.3125 
Q 13.671875 62.703125 7.8125 59.421875 
L 7.8125 69.390625 
Q 13.765625 71.78125 18.9375 73 
Q 24.125 74.21875 28.421875 74.21875 
Q 39.75 74.21875 46.484375 68.546875 
Q 53.21875 62.890625 53.21875 53.421875 
Q 53.21875 48.921875 51.53125 44.890625 
Q 49.859375 40.875 45.40625 35.40625 
Q 44.1875 33.984375 37.640625 27.21875 
Q 31.109375 20.453125 19.1875 8.296875 
z
" id="DejaVuSans-50"/>
      </defs>
      <g style="fill:#262626;" transform="translate(15.579688 30.730281)scale(0.1 -0.1)">
       <use xlink:href="#DejaVuSans-50"/>
       <use x="63.623047" xlink:href="#DejaVuSans-46"/>
       <use x="95.410156" xlink:href="#DejaVuSans-48"/>
      </g>
     </g>
    </g>
   </g>
   <g id="PathCollection_1">
    <defs>
     <path d="M 0 3 
C 0.795609 3 1.55874 2.683901 2.12132 2.12132 
C 2.683901 1.55874 3 0.795609 3 0 
C 3 -0.795609 2.683901 -1.55874 2.12132 -2.12132 
C 1.55874 -2.683901 0.795609 -3 0 -3 
C -0.795609 -3 -1.55874 -2.683901 -2.12132 -2.12132 
C -2.683901 -1.55874 -3 -0.795609 -3 0 
C -3 0.795609 -2.683901 1.55874 -2.12132 2.12132 
C -1.55874 2.683901 -0.795609 3 0 3 
z
" id="m46bd8180d5" style="stroke:#ffffff;stroke-width:0.75;"/>
    </defs>
    <g clip-path="url(#p51a8d66cf0)">
     <use style="fill:#cc503e;stroke:#ffffff;stroke-width:0.75;" x="102.537879" xlink:href="#m46bd8180d5" y="105.982888"/>
     <use style="fill:#cc503e;stroke:#ffffff;stroke-width:0.75;" x="107.525603" xlink:href="#m46bd8180d5" y="140.685941"/>
     <use style="fill:#cc503e;stroke:#ffffff;stroke-width:0.75;" x="108.842684" xlink:href="#m46bd8180d5" y="155.351886"/>
     <use style="fill:#cc503e;stroke:#ffffff;stroke-width:0.75;" x="107.001118" xlink:href="#m46bd8180d5" y="144.614842"/>
     <use style="fill:#cc503e;stroke:#ffffff;stroke-width:0.75;" x="104.886456" xlink:href="#m46bd8180d5" y="156.930509"/>
     <use style="fill:#cc503e;stroke:#ffffff;stroke-width:0.75;" x="94.236744" xlink:href="#m46bd8180d5" y="134.714532"/>
     <use style="fill:#cc503e;stroke:#ffffff;stroke-width:0.75;" x="105.476811" xlink:href="#m46bd8180d5" y="55.65039"/>
     <use style="fill:#cc503e;stroke:#ffffff;stroke-width:0.75;" x="93.123365" xlink:href="#m46bd8180d5" y="83.747564"/>
     <use style="fill:#cc503e;stroke:#ffffff;stroke-width:0.75;" x="100.462047" xlink:href="#m46bd8180d5" y="104.041479"/>
     <use style="fill:#cc503e;stroke:#ffffff;stroke-width:0.75;" x="96.819089" xlink:href="#m46bd8180d5" y="210.039164"/>
     <use style="fill:#cc503e;stroke:#ffffff;stroke-width:0.75;" x="111.398653" xlink:href="#m46bd8180d5" y="215.341977"/>
     <use style="fill:#cc503e;stroke:#ffffff;stroke-width:0.75;" x="111.027548" xlink:href="#m46bd8180d5" y="103.246695"/>
     <use style="fill:#cc503e;stroke:#ffffff;stroke-width:0.75;" x="93.079519" xlink:href="#m46bd8180d5" y="119.69798"/>
     <use style="fill:#cc503e;stroke:#ffffff;stroke-width:0.75;" x="96.413488" xlink:href="#m46bd8180d5" y="182.438724"/>
     <use style="fill:#cc503e;stroke:#ffffff;stroke-width:0.75;" x="95.428761" xlink:href="#m46bd8180d5" y="112.720769"/>
     <use style="fill:#cc503e;stroke:#ffffff;stroke-width:0.75;" x="99.722895" xlink:href="#m46bd8180d5" y="193.314382"/>
     <use style="fill:#cc503e;stroke:#ffffff;stroke-width:0.75;" x="102.690942" xlink:href="#m46bd8180d5" y="23.498023"/>
     <use style="fill:#cc503e;stroke:#ffffff;stroke-width:0.75;" x="104.500189" xlink:href="#m46bd8180d5" y="177.327693"/>
     <use style="fill:#cc503e;stroke:#ffffff;stroke-width:0.75;" x="92.007098" xlink:href="#m46bd8180d5" y="87.098725"/>
     <use style="fill:#cc503e;stroke:#ffffff;stroke-width:0.75;" x="101.637295" xlink:href="#m46bd8180d5" y="128.911551"/>
    </g>
   </g>
   <g id="PathCollection_2">
    <defs>
     <path d="M 0 3 
C 0.795609 3 1.55874 2.683901 2.12132 2.12132 
C 2.683901 1.55874 3 0.795609 3 0 
C 3 -0.795609 2.683901 -1.55874 2.12132 -2.12132 
C 1.55874 -2.683901 0.795609 -3 0 -3 
C -0.795609 -3 -1.55874 -2.683901 -2.12132 -2.12132 
C -2.683901 -1.55874 -3 -0.795609 -3 0 
C -3 0.795609 -2.683901 1.55874 -2.12132 2.12132 
C -1.55874 2.683901 -0.795609 3 0 3 
z
" id="mfd3eecc97c" style="stroke:#ffffff;stroke-width:0.75;"/>
    </defs>
    <g clip-path="url(#p51a8d66cf0)">
     <use style="fill:#1d6996;stroke:#ffffff;stroke-width:0.75;" x="266.229123" xlink:href="#mfd3eecc97c" y="105.982888"/>
     <use style="fill:#1d6996;stroke:#ffffff;stroke-width:0.75;" x="254.417272" xlink:href="#mfd3eecc97c" y="140.685941"/>
     <use style="fill:#1d6996;stroke:#ffffff;stroke-width:0.75;" x="261.822429" xlink:href="#mfd3eecc97c" y="155.351886"/>
     <use style="fill:#1d6996;stroke:#ffffff;stroke-width:0.75;" x="257.181629" xlink:href="#mfd3eecc97c" y="144.614842"/>
     <use style="fill:#1d6996;stroke:#ffffff;stroke-width:0.75;" x="261.418358" xlink:href="#mfd3eecc97c" y="156.930509"/>
     <use style="fill:#1d6996;stroke:#ffffff;stroke-width:0.75;" x="251.215863" xlink:href="#mfd3eecc97c" y="134.714532"/>
     <use style="fill:#1d6996;stroke:#ffffff;stroke-width:0.75;" x="259.31809" xlink:href="#mfd3eecc97c" y="55.65039"/>
     <use style="fill:#1d6996;stroke:#ffffff;stroke-width:0.75;" x="261.90109" xlink:href="#mfd3eecc97c" y="83.747564"/>
     <use style="fill:#1d6996;stroke:#ffffff;stroke-width:0.75;" x="257.985515" xlink:href="#mfd3eecc97c" y="104.041479"/>
     <use style="fill:#1d6996;stroke:#ffffff;stroke-width:0.75;" x="264.163645" xlink:href="#mfd3eecc97c" y="210.039164"/>
     <use style="fill:#1d6996;stroke:#ffffff;stroke-width:0.75;" x="253.226378" xlink:href="#mfd3eecc97c" y="215.341977"/>
     <use style="fill:#1d6996;stroke:#ffffff;stroke-width:0.75;" x="257.145338" xlink:href="#mfd3eecc97c" y="103.246695"/>
     <use style="fill:#1d6996;stroke:#ffffff;stroke-width:0.75;" x="255.13848" xlink:href="#mfd3eecc97c" y="119.69798"/>
     <use style="fill:#1d6996;stroke:#ffffff;stroke-width:0.75;" x="260.436816" xlink:href="#mfd3eecc97c" y="182.438724"/>
     <use style="fill:#1d6996;stroke:#ffffff;stroke-width:0.75;" x="241.548263" xlink:href="#mfd3eecc97c" y="112.720769"/>
     <use style="fill:#1d6996;stroke:#ffffff;stroke-width:0.75;" x="268.127221" xlink:href="#mfd3eecc97c" y="193.314382"/>
     <use style="fill:#1d6996;stroke:#ffffff;stroke-width:0.75;" x="255.636548" xlink:href="#mfd3eecc97c" y="23.498023"/>
     <use style="fill:#1d6996;stroke:#ffffff;stroke-width:0.75;" x="246.479558" xlink:href="#mfd3eecc97c" y="177.327693"/>
     <use style="fill:#1d6996;stroke:#ffffff;stroke-width:0.75;" x="254.487109" xlink:href="#mfd3eecc97c" y="87.098725"/>
     <use style="fill:#1d6996;stroke:#ffffff;stroke-width:0.75;" x="271.766237" xlink:href="#mfd3eecc97c" y="128.911551"/>
     <use style="fill:#1d6996;stroke:#ffffff;stroke-width:0.75;" x="255.725624" xlink:href="#mfd3eecc97c" y="105.982888"/>
     <use style="fill:#1d6996;stroke:#ffffff;stroke-width:0.75;" x="255.417927" xlink:href="#mfd3eecc97c" y="140.685941"/>
     <use style="fill:#1d6996;stroke:#ffffff;stroke-width:0.75;" x="256.486955" xlink:href="#mfd3eecc97c" y="155.351886"/>
     <use style="fill:#1d6996;stroke:#ffffff;stroke-width:0.75;" x="262.746286" xlink:href="#mfd3eecc97c" y="144.614842"/>
     <use style="fill:#1d6996;stroke:#ffffff;stroke-width:0.75;" x="269.575278" xlink:href="#mfd3eecc97c" y="156.930509"/>
     <use style="fill:#1d6996;stroke:#ffffff;stroke-width:0.75;" x="266.283076" xlink:href="#mfd3eecc97c" y="134.714532"/>
     <use style="fill:#1d6996;stroke:#ffffff;stroke-width:0.75;" x="264.856293" xlink:href="#mfd3eecc97c" y="55.65039"/>
     <use style="fill:#1d6996;stroke:#ffffff;stroke-width:0.75;" x="255.885268" xlink:href="#mfd3eecc97c" y="83.747564"/>
     <use style="fill:#1d6996;stroke:#ffffff;stroke-width:0.75;" x="257.558331" xlink:href="#mfd3eecc97c" y="104.041479"/>
     <use style="fill:#1d6996;stroke:#ffffff;stroke-width:0.75;" x="251.457809" xlink:href="#mfd3eecc97c" y="210.039164"/>
     <use style="fill:#1d6996;stroke:#ffffff;stroke-width:0.75;" x="250.704173" xlink:href="#mfd3eecc97c" y="215.341977"/>
     <use style="fill:#1d6996;stroke:#ffffff;stroke-width:0.75;" x="246.190425" xlink:href="#mfd3eecc97c" y="103.246695"/>
     <use style="fill:#1d6996;stroke:#ffffff;stroke-width:0.75;" x="250.638514" xlink:href="#mfd3eecc97c" y="119.69798"/>
     <use style="fill:#1d6996;stroke:#ffffff;stroke-width:0.75;" x="269.74522" xlink:href="#mfd3eecc97c" y="182.438724"/>
     <use style="fill:#1d6996;stroke:#ffffff;stroke-width:0.75;" x="259.871294" xlink:href="#mfd3eecc97c" y="112.720769"/>
     <use style="fill:#1d6996;stroke:#ffffff;stroke-width:0.75;" x="258.24402" xlink:href="#mfd3eecc97c" y="193.314382"/>
     <use style="fill:#1d6996;stroke:#ffffff;stroke-width:0.75;" x="251.40553" xlink:href="#mfd3eecc97c" y="23.498023"/>
     <use style="fill:#1d6996;stroke:#ffffff;stroke-width:0.75;" x="256.516298" xlink:href="#mfd3eecc97c" y="177.327693"/>
     <use style="fill:#1d6996;stroke:#ffffff;stroke-width:0.75;" x="250.074028" xlink:href="#mfd3eecc97c" y="87.098725"/>
     <use style="fill:#1d6996;stroke:#ffffff;stroke-width:0.75;" x="244.089358" xlink:href="#mfd3eecc97c" y="128.911551"/>
    </g>
   </g>
   <g id="PathCollection_3">
    <defs>
     <path d="M 0 3 
C 0.795609 3 1.55874 2.683901 2.12132 2.12132 
C 2.683901 1.55874 3 0.795609 3 0 
C 3 -0.795609 2.683901 -1.55874 2.12132 -2.12132 
C 1.55874 -2.683901 0.795609 -3 0 -3 
C -0.795609 -3 -1.55874 -2.683901 -2.12132 -2.12132 
C -2.683901 -1.55874 -3 -0.795609 -3 0 
C -3 0.795609 -2.683901 1.55874 -2.12132 2.12132 
C -1.55874 2.683901 -0.795609 3 0 3 
z
" id="m715ad18270" style="stroke:#cc503e;"/>
    </defs>
    <g clip-path="url(#p51a8d66cf0)">
     <use style="fill:#cc503e;stroke:#cc503e;" x="75.006449" xlink:href="#m715ad18270" y="131.767786"/>
    </g>
   </g>
   <g id="PathCollection_4">
    <defs>
     <path d="M 0 3 
C 0.795609 3 1.55874 2.683901 2.12132 2.12132 
C 2.683901 1.55874 3 0.795609 3 0 
C 3 -0.795609 2.683901 -1.55874 2.12132 -2.12132 
C 1.55874 -2.683901 0.795609 -3 0 -3 
C -0.795609 -3 -1.55874 -2.683901 -2.12132 -2.12132 
C -2.683901 -1.55874 -3 -0.795609 -3 0 
C -3 0.795609 -2.683901 1.55874 -2.12132 2.12132 
C -1.55874 2.683901 -0.795609 3 0 3 
z
" id="mc10c639872" style="stroke:#1d6996;"/>
    </defs>
    <g clip-path="url(#p51a8d66cf0)">
     <use style="fill:#1d6996;stroke:#1d6996;" x="227.188267" xlink:href="#mc10c639872" y="131.767786"/>
    </g>
   </g>
   <g id="line2d_8">
    <path clip-path="url(#p51a8d66cf0)" d="M 68.919176 150.546429 
L 129.791903 150.546429 
" style="fill:none;stroke:#909090;stroke-linecap:round;stroke-width:1.5;"/>
   </g>
   <g id="line2d_9">
    <path clip-path="url(#p51a8d66cf0)" d="M 221.100994 150.546429 
L 281.973722 150.546429 
" style="fill:none;stroke:#909090;stroke-linecap:round;stroke-width:1.5;"/>
   </g>
   <g id="line2d_10">
    <path clip-path="url(#p51a8d66cf0)" d="M 75.006449 180.535643 
L 75.006449 82.999928 
" style="fill:none;stroke:#cc503e;stroke-linecap:round;stroke-width:1.5;"/>
   </g>
   <g id="line2d_11">
    <path clip-path="url(#p51a8d66cf0)" d="M 227.188267 180.535643 
L 227.188267 82.999928 
" style="fill:none;stroke:#1d6996;stroke-linecap:round;stroke-width:1.5;"/>
   </g>
   <g id="patch_3">
    <path d="M 38.482813 228.14 
L 38.482813 10.7 
" style="fill:none;stroke:#262626;stroke-linecap:square;stroke-linejoin:miter;stroke-width:0.8;"/>
   </g>
   <g id="text_8">
    <!-- p: 0.110 -->
    <defs>
     <path d="M 18.109375 8.203125 
L 18.109375 -20.796875 
L 9.078125 -20.796875 
L 9.078125 54.6875 
L 18.109375 54.6875 
L 18.109375 46.390625 
Q 20.953125 51.265625 25.265625 53.625 
Q 29.59375 56 35.59375 56 
Q 45.5625 56 51.78125 48.09375 
Q 58.015625 40.1875 58.015625 27.296875 
Q 58.015625 14.40625 51.78125 6.484375 
Q 45.5625 -1.421875 35.59375 -1.421875 
Q 29.59375 -1.421875 25.265625 0.953125 
Q 20.953125 3.328125 18.109375 8.203125 
z
M 48.6875 27.296875 
Q 48.6875 37.203125 44.609375 42.84375 
Q 40.53125 48.484375 33.40625 48.484375 
Q 26.265625 48.484375 22.1875 42.84375 
Q 18.109375 37.203125 18.109375 27.296875 
Q 18.109375 17.390625 22.1875 11.75 
Q 26.265625 6.109375 33.40625 6.109375 
Q 40.53125 6.109375 44.609375 11.75 
Q 48.6875 17.390625 48.6875 27.296875 
z
" id="DejaVuSans-112"/>
     <path d="M 11.71875 12.40625 
L 22.015625 12.40625 
L 22.015625 0 
L 11.71875 0 
z
M 11.71875 51.703125 
L 22.015625 51.703125 
L 22.015625 39.3125 
L 11.71875 39.3125 
z
" id="DejaVuSans-58"/>
     <path id="DejaVuSans-32"/>
    </defs>
    <g style="fill:#cc503e;" transform="translate(129.791903 23.615662)scale(0.14 -0.14)">
     <use xlink:href="#DejaVuSans-112"/>
     <use x="63.476562" xlink:href="#DejaVuSans-58"/>
     <use x="97.167969" xlink:href="#DejaVuSans-32"/>
     <use x="128.955078" xlink:href="#DejaVuSans-48"/>
     <use x="192.578125" xlink:href="#DejaVuSans-46"/>
     <use x="224.365234" xlink:href="#DejaVuSans-49"/>
     <use x="287.988281" xlink:href="#DejaVuSans-49"/>
     <use x="351.611328" xlink:href="#DejaVuSans-48"/>
    </g>
    <!-- t$_{19}$: 1.678 -->
    <defs>
     <path d="M 18.3125 70.21875 
L 18.3125 54.6875 
L 36.8125 54.6875 
L 36.8125 47.703125 
L 18.3125 47.703125 
L 18.3125 18.015625 
Q 18.3125 11.328125 20.140625 9.421875 
Q 21.96875 7.515625 27.59375 7.515625 
L 36.8125 7.515625 
L 36.8125 0 
L 27.59375 0 
Q 17.1875 0 13.234375 3.875 
Q 9.28125 7.765625 9.28125 18.015625 
L 9.28125 47.703125 
L 2.6875 47.703125 
L 2.6875 54.6875 
L 9.28125 54.6875 
L 9.28125 70.21875 
z
" id="DejaVuSans-116"/>
     <path d="M 10.984375 1.515625 
L 10.984375 10.5 
Q 14.703125 8.734375 18.5 7.8125 
Q 22.3125 6.890625 25.984375 6.890625 
Q 35.75 6.890625 40.890625 13.453125 
Q 46.046875 20.015625 46.78125 33.40625 
Q 43.953125 29.203125 39.59375 26.953125 
Q 35.25 24.703125 29.984375 24.703125 
Q 19.046875 24.703125 12.671875 31.3125 
Q 6.296875 37.9375 6.296875 49.421875 
Q 6.296875 60.640625 12.9375 67.421875 
Q 19.578125 74.21875 30.609375 74.21875 
Q 43.265625 74.21875 49.921875 64.515625 
Q 56.59375 54.828125 56.59375 36.375 
Q 56.59375 19.140625 48.40625 8.859375 
Q 40.234375 -1.421875 26.421875 -1.421875 
Q 22.703125 -1.421875 18.890625 -0.6875 
Q 15.09375 0.046875 10.984375 1.515625 
z
M 30.609375 32.421875 
Q 37.25 32.421875 41.125 36.953125 
Q 45.015625 41.5 45.015625 49.421875 
Q 45.015625 57.28125 41.125 61.84375 
Q 37.25 66.40625 30.609375 66.40625 
Q 23.96875 66.40625 20.09375 61.84375 
Q 16.21875 57.28125 16.21875 49.421875 
Q 16.21875 41.5 20.09375 36.953125 
Q 23.96875 32.421875 30.609375 32.421875 
z
" id="DejaVuSans-57"/>
     <path d="M 33.015625 40.375 
Q 26.375 40.375 22.484375 35.828125 
Q 18.609375 31.296875 18.609375 23.390625 
Q 18.609375 15.53125 22.484375 10.953125 
Q 26.375 6.390625 33.015625 6.390625 
Q 39.65625 6.390625 43.53125 10.953125 
Q 47.40625 15.53125 47.40625 23.390625 
Q 47.40625 31.296875 43.53125 35.828125 
Q 39.65625 40.375 33.015625 40.375 
z
M 52.59375 71.296875 
L 52.59375 62.3125 
Q 48.875 64.0625 45.09375 64.984375 
Q 41.3125 65.921875 37.59375 65.921875 
Q 27.828125 65.921875 22.671875 59.328125 
Q 17.53125 52.734375 16.796875 39.40625 
Q 19.671875 43.65625 24.015625 45.921875 
Q 28.375 48.1875 33.59375 48.1875 
Q 44.578125 48.1875 50.953125 41.515625 
Q 57.328125 34.859375 57.328125 23.390625 
Q 57.328125 12.15625 50.6875 5.359375 
Q 44.046875 -1.421875 33.015625 -1.421875 
Q 20.359375 -1.421875 13.671875 8.265625 
Q 6.984375 17.96875 6.984375 36.375 
Q 6.984375 53.65625 15.1875 63.9375 
Q 23.390625 74.21875 37.203125 74.21875 
Q 40.921875 74.21875 44.703125 73.484375 
Q 48.484375 72.75 52.59375 71.296875 
z
" id="DejaVuSans-54"/>
     <path d="M 8.203125 72.90625 
L 55.078125 72.90625 
L 55.078125 68.703125 
L 28.609375 0 
L 18.3125 0 
L 43.21875 64.59375 
L 8.203125 64.59375 
z
" id="DejaVuSans-55"/>
     <path d="M 31.78125 34.625 
Q 24.75 34.625 20.71875 30.859375 
Q 16.703125 27.09375 16.703125 20.515625 
Q 16.703125 13.921875 20.71875 10.15625 
Q 24.75 6.390625 31.78125 6.390625 
Q 38.8125 6.390625 42.859375 10.171875 
Q 46.921875 13.96875 46.921875 20.515625 
Q 46.921875 27.09375 42.890625 30.859375 
Q 38.875 34.625 31.78125 34.625 
z
M 21.921875 38.8125 
Q 15.578125 40.375 12.03125 44.71875 
Q 8.5 49.078125 8.5 55.328125 
Q 8.5 64.0625 14.71875 69.140625 
Q 20.953125 74.21875 31.78125 74.21875 
Q 42.671875 74.21875 48.875 69.140625 
Q 55.078125 64.0625 55.078125 55.328125 
Q 55.078125 49.078125 51.53125 44.71875 
Q 48 40.375 41.703125 38.8125 
Q 48.828125 37.15625 52.796875 32.3125 
Q 56.78125 27.484375 56.78125 20.515625 
Q 56.78125 9.90625 50.3125 4.234375 
Q 43.84375 -1.421875 31.78125 -1.421875 
Q 19.734375 -1.421875 13.25 4.234375 
Q 6.78125 9.90625 6.78125 20.515625 
Q 6.78125 27.484375 10.78125 32.3125 
Q 14.796875 37.15625 21.921875 38.8125 
z
M 18.3125 54.390625 
Q 18.3125 48.734375 21.84375 45.5625 
Q 25.390625 42.390625 31.78125 42.390625 
Q 38.140625 42.390625 41.71875 45.5625 
Q 45.3125 48.734375 45.3125 54.390625 
Q 45.3125 60.0625 41.71875 63.234375 
Q 38.140625 66.40625 31.78125 66.40625 
Q 25.390625 66.40625 21.84375 63.234375 
Q 18.3125 60.0625 18.3125 54.390625 
z
" id="DejaVuSans-56"/>
    </defs>
    <g style="fill:#cc503e;" transform="translate(129.791903 39.292599)scale(0.14 -0.14)">
     <use transform="translate(0 0.78125)" xlink:href="#DejaVuSans-116"/>
     <use transform="translate(40.166016 -15.625)scale(0.7)" xlink:href="#DejaVuSans-49"/>
     <use transform="translate(84.702148 -15.625)scale(0.7)" xlink:href="#DejaVuSans-57"/>
     <use transform="translate(131.972656 0.78125)" xlink:href="#DejaVuSans-58"/>
     <use transform="translate(165.664062 0.78125)" xlink:href="#DejaVuSans-32"/>
     <use transform="translate(197.451172 0.78125)" xlink:href="#DejaVuSans-49"/>
     <use transform="translate(261.074219 0.78125)" xlink:href="#DejaVuSans-46"/>
     <use transform="translate(292.861328 0.78125)" xlink:href="#DejaVuSans-54"/>
     <use transform="translate(356.484375 0.78125)" xlink:href="#DejaVuSans-55"/>
     <use transform="translate(420.107422 0.78125)" xlink:href="#DejaVuSans-56"/>
    </g>
   </g>
   <g id="text_9">
    <!-- p: 0.021 -->
    <g style="fill:#1d6996;" transform="translate(129.791903 60.700272)scale(0.14 -0.14)">
     <use xlink:href="#DejaVuSans-112"/>
     <use x="63.476562" xlink:href="#DejaVuSans-58"/>
     <use x="97.167969" xlink:href="#DejaVuSans-32"/>
     <use x="128.955078" xlink:href="#DejaVuSans-48"/>
     <use x="192.578125" xlink:href="#DejaVuSans-46"/>
     <use x="224.365234" xlink:href="#DejaVuSans-48"/>
     <use x="287.988281" xlink:href="#DejaVuSans-50"/>
     <use x="351.611328" xlink:href="#DejaVuSans-49"/>
    </g>
    <!-- t$_{39}$: 2.405 -->
    <defs>
     <path d="M 40.578125 39.3125 
Q 47.65625 37.796875 51.625 33 
Q 55.609375 28.21875 55.609375 21.1875 
Q 55.609375 10.40625 48.1875 4.484375 
Q 40.765625 -1.421875 27.09375 -1.421875 
Q 22.515625 -1.421875 17.65625 -0.515625 
Q 12.796875 0.390625 7.625 2.203125 
L 7.625 11.71875 
Q 11.71875 9.328125 16.59375 8.109375 
Q 21.484375 6.890625 26.8125 6.890625 
Q 36.078125 6.890625 40.9375 10.546875 
Q 45.796875 14.203125 45.796875 21.1875 
Q 45.796875 27.640625 41.28125 31.265625 
Q 36.765625 34.90625 28.71875 34.90625 
L 20.21875 34.90625 
L 20.21875 43.015625 
L 29.109375 43.015625 
Q 36.375 43.015625 40.234375 45.921875 
Q 44.09375 48.828125 44.09375 54.296875 
Q 44.09375 59.90625 40.109375 62.90625 
Q 36.140625 65.921875 28.71875 65.921875 
Q 24.65625 65.921875 20.015625 65.03125 
Q 15.375 64.15625 9.8125 62.3125 
L 9.8125 71.09375 
Q 15.4375 72.65625 20.34375 73.4375 
Q 25.25 74.21875 29.59375 74.21875 
Q 40.828125 74.21875 47.359375 69.109375 
Q 53.90625 64.015625 53.90625 55.328125 
Q 53.90625 49.265625 50.4375 45.09375 
Q 46.96875 40.921875 40.578125 39.3125 
z
" id="DejaVuSans-51"/>
     <path d="M 37.796875 64.3125 
L 12.890625 25.390625 
L 37.796875 25.390625 
z
M 35.203125 72.90625 
L 47.609375 72.90625 
L 47.609375 25.390625 
L 58.015625 25.390625 
L 58.015625 17.1875 
L 47.609375 17.1875 
L 47.609375 0 
L 37.796875 0 
L 37.796875 17.1875 
L 4.890625 17.1875 
L 4.890625 26.703125 
z
" id="DejaVuSans-52"/>
    </defs>
    <g style="fill:#1d6996;" transform="translate(129.791903 76.377209)scale(0.14 -0.14)">
     <use transform="translate(0 0.78125)" xlink:href="#DejaVuSans-116"/>
     <use transform="translate(40.166016 -15.625)scale(0.7)" xlink:href="#DejaVuSans-51"/>
     <use transform="translate(84.702148 -15.625)scale(0.7)" xlink:href="#DejaVuSans-57"/>
     <use transform="translate(131.972656 0.78125)" xlink:href="#DejaVuSans-58"/>
     <use transform="translate(165.664062 0.78125)" xlink:href="#DejaVuSans-32"/>
     <use transform="translate(197.451172 0.78125)" xlink:href="#DejaVuSans-50"/>
     <use transform="translate(261.074219 0.78125)" xlink:href="#DejaVuSans-46"/>
     <use transform="translate(292.861328 0.78125)" xlink:href="#DejaVuSans-52"/>
     <use transform="translate(356.484375 0.78125)" xlink:href="#DejaVuSans-48"/>
     <use transform="translate(420.107422 0.78125)" xlink:href="#DejaVuSans-53"/>
    </g>
   </g>
   <g id="text_10">
    <!-- $\overline{\mu}_X, \mu_X$: 0.30, 0.5 -->
    <defs>
     <path d="M -1.3125 -20.796875 
L 13.375 54.6875 
L 22.40625 54.6875 
L 15.765625 20.65625 
Q 15.578125 19.625 15.421875 18.359375 
Q 15.28125 17.09375 15.28125 15.828125 
Q 15.28125 11.28125 18.140625 8.828125 
Q 21 6.390625 26.3125 6.390625 
Q 33.546875 6.390625 37.984375 10.484375 
Q 42.4375 14.59375 44 22.796875 
L 50.203125 54.6875 
L 59.1875 54.6875 
L 51.03125 12.640625 
Q 50.828125 11.71875 50.75 11.03125 
Q 50.6875 10.359375 50.6875 9.8125 
Q 50.6875 8.296875 51.296875 7.59375 
Q 51.90625 6.890625 53.21875 6.890625 
Q 53.71875 6.890625 54.5625 7.125 
Q 55.421875 7.375 56.984375 8.015625 
L 55.609375 0.78125 
Q 53.46875 -0.296875 51.515625 -0.859375 
Q 49.5625 -1.421875 47.703125 -1.421875 
Q 44.484375 -1.421875 42.65625 0.625 
Q 40.828125 2.6875 40.828125 6.296875 
Q 38.09375 2.390625 34.296875 0.484375 
Q 30.515625 -1.421875 25.390625 -1.421875 
Q 20.84375 -1.421875 17.453125 0.671875 
Q 14.0625 2.78125 12.984375 6.203125 
L 7.71875 -20.796875 
z
" id="DejaVuSans-Oblique-956"/>
     <path d="M 13.71875 72.90625 
L 23.6875 72.90625 
L 36.1875 46.578125 
L 58.796875 72.90625 
L 70.3125 72.90625 
L 40.28125 38.09375 
L 58.40625 0 
L 48.484375 0 
L 33.796875 30.71875 
L 7.171875 0 
L -4.296875 0 
L 29.78125 39.203125 
z
" id="DejaVuSans-Oblique-88"/>
     <path d="M 11.71875 12.40625 
L 22.015625 12.40625 
L 22.015625 4 
L 14.015625 -11.625 
L 7.71875 -11.625 
L 11.71875 4 
z
" id="DejaVuSans-44"/>
    </defs>
    <g style="fill:#909090;" transform="translate(126.748267 218.534881)scale(0.12 -0.12)">
     <use transform="translate(0 1.0625)" xlink:href="#DejaVuSans-Oblique-956"/>
     <use transform="translate(64.580078 -15.84375)scale(0.7)" xlink:href="#DejaVuSans-Oblique-88"/>
     <use transform="translate(115.268555 0.5625)" xlink:href="#DejaVuSans-44"/>
     <use transform="translate(166.538086 0.5625)" xlink:href="#DejaVuSans-Oblique-956"/>
     <use transform="translate(230.161133 -15.84375)scale(0.7)" xlink:href="#DejaVuSans-Oblique-88"/>
     <use transform="translate(280.849609 0.5625)" xlink:href="#DejaVuSans-58"/>
     <use transform="translate(314.541016 0.5625)" xlink:href="#DejaVuSans-32"/>
     <use transform="translate(346.328125 0.5625)" xlink:href="#DejaVuSans-48"/>
     <use transform="translate(409.951172 0.5625)" xlink:href="#DejaVuSans-46"/>
     <use transform="translate(441.738281 0.5625)" xlink:href="#DejaVuSans-51"/>
     <use transform="translate(505.361328 0.5625)" xlink:href="#DejaVuSans-48"/>
     <use transform="translate(568.984375 0.5625)" xlink:href="#DejaVuSans-44"/>
     <use transform="translate(600.771484 0.5625)" xlink:href="#DejaVuSans-32"/>
     <use transform="translate(632.558594 0.5625)" xlink:href="#DejaVuSans-48"/>
     <use transform="translate(696.181641 0.5625)" xlink:href="#DejaVuSans-46"/>
     <use transform="translate(727.96875 0.5625)" xlink:href="#DejaVuSans-53"/>
     <path d="M 0 67.5 
L 0 73.75 
L 63.623047 73.75 
L 63.623047 67.5 
L 0 67.5 
z
"/>
    </g>
   </g>
   <g id="text_11">
    <!-- $\overline{\sigma}_X, \sigma_X$: 0.79, 1 -->
    <defs>
     <path d="M 34.671875 47.5625 
Q 27.25 47.5625 22.21875 42.1875 
Q 16.890625 36.578125 15.140625 27.296875 
Q 13.1875 17.484375 16.3125 11.8125 
Q 19.390625 6.203125 26.65625 6.203125 
Q 33.84375 6.203125 39.109375 11.859375 
Q 44.4375 17.53125 46.34375 27.296875 
Q 48.046875 36.234375 45.015625 42.1875 
Q 42.1875 47.5625 34.671875 47.5625 
z
M 36.078125 54.734375 
L 65.921875 54.6875 
L 64.15625 45.703125 
L 54.109375 45.703125 
Q 57.90625 38.09375 55.859375 27.296875 
Q 53.21875 13.875 45.0625 6.25 
Q 36.859375 -1.421875 25.140625 -1.421875 
Q 13.375 -1.421875 8.203125 6.25 
Q 3.03125 13.875 5.671875 27.296875 
Q 8.25 40.765625 16.40625 48.390625 
Q 23.1875 54.734375 36.078125 54.734375 
z
" id="DejaVuSans-Oblique-963"/>
    </defs>
    <g style="fill:#909090;" transform="translate(126.748267 237.077186)scale(0.12 -0.12)">
     <use transform="translate(0 1.015625)" xlink:href="#DejaVuSans-Oblique-963"/>
     <use transform="translate(64.335938 -15.890625)scale(0.7)" xlink:href="#DejaVuSans-Oblique-88"/>
     <use transform="translate(115.024414 0.515625)" xlink:href="#DejaVuSans-44"/>
     <use transform="translate(166.293945 0.515625)" xlink:href="#DejaVuSans-Oblique-963"/>
     <use transform="translate(229.672852 -15.890625)scale(0.7)" xlink:href="#DejaVuSans-Oblique-88"/>
     <use transform="translate(280.361328 0.515625)" xlink:href="#DejaVuSans-58"/>
     <use transform="translate(314.052734 0.515625)" xlink:href="#DejaVuSans-32"/>
     <use transform="translate(345.839844 0.515625)" xlink:href="#DejaVuSans-48"/>
     <use transform="translate(409.462891 0.515625)" xlink:href="#DejaVuSans-46"/>
     <use transform="translate(441.140625 0.515625)" xlink:href="#DejaVuSans-55"/>
     <use transform="translate(504.763672 0.515625)" xlink:href="#DejaVuSans-57"/>
     <use transform="translate(568.386719 0.515625)" xlink:href="#DejaVuSans-44"/>
     <use transform="translate(600.173828 0.515625)" xlink:href="#DejaVuSans-32"/>
     <use transform="translate(631.960938 0.515625)" xlink:href="#DejaVuSans-49"/>
     <path d="M 0 67.5 
L 0 73.75 
L 63.378906 73.75 
L 63.378906 67.5 
L 0 67.5 
z
"/>
    </g>
   </g>
  </g>
 </g>
 <defs>
  <clipPath id="p51a8d66cf0">
   <rect height="217.44" width="334.8" x="38.482813" y="10.7"/>
  </clipPath>
 </defs>
</svg>
