<?xml version="1.0" encoding="utf-8" standalone="no"?>
<!DOCTYPE svg PUBLIC "-//W3C//DTD SVG 1.1//EN"
  "http://www.w3.org/Graphics/SVG/1.1/DTD/svg11.dtd">
<!-- Created with matplotlib (https://matplotlib.org/) -->
<svg height="265.69625pt" version="1.1" viewBox="0 0 389.28125 265.69625" width="389.28125pt" xmlns="http://www.w3.org/2000/svg" xmlns:xlink="http://www.w3.org/1999/xlink">
 <defs>
  <style type="text/css">
*{stroke-linecap:butt;stroke-linejoin:round;}
  </style>
 </defs>
 <g id="figure_1">
  <g id="patch_1">
   <path d="M 0 265.69625 
L 389.28125 265.69625 
L 389.28125 0 
L 0 0 
z
" style="fill:none;"/>
  </g>
  <g id="axes_1">
   <g id="patch_2">
    <path d="M 43.78125 228.14 
L 378.58125 228.14 
L 378.58125 10.7 
L 43.78125 10.7 
z
" style="fill:none;"/>
   </g>
   <g id="matplotlib.axis_1">
    <g id="xtick_1">
     <g id="line2d_1">
      <defs>
       <path d="M 0 0 
L 0 3.5 
" id="m236771bd7f" style="stroke:#262626;stroke-width:0.8;"/>
      </defs>
      <g>
       <use style="fill:#262626;stroke:#262626;stroke-width:0.8;" x="58.999432" xlink:href="#m236771bd7f" y="228.14"/>
      </g>
     </g>
     <g id="text_1">
      <!-- 0 -->
      <defs>
       <path d="M 31.78125 66.40625 
Q 24.171875 66.40625 20.328125 58.90625 
Q 16.5 51.421875 16.5 36.375 
Q 16.5 21.390625 20.328125 13.890625 
Q 24.171875 6.390625 31.78125 6.390625 
Q 39.453125 6.390625 43.28125 13.890625 
Q 47.125 21.390625 47.125 36.375 
Q 47.125 51.421875 43.28125 58.90625 
Q 39.453125 66.40625 31.78125 66.40625 
z
M 31.78125 74.21875 
Q 44.046875 74.21875 50.515625 64.515625 
Q 56.984375 54.828125 56.984375 36.375 
Q 56.984375 17.96875 50.515625 8.265625 
Q 44.046875 -1.421875 31.78125 -1.421875 
Q 19.53125 -1.421875 13.0625 8.265625 
Q 6.59375 17.96875 6.59375 36.375 
Q 6.59375 54.828125 13.0625 64.515625 
Q 19.53125 74.21875 31.78125 74.21875 
z
" id="DejaVuSans-48"/>
      </defs>
      <g style="fill:#262626;" transform="translate(55.818182 242.738437)scale(0.1 -0.1)">
       <use xlink:href="#DejaVuSans-48"/>
      </g>
     </g>
    </g>
    <g id="xtick_2">
     <g id="line2d_2">
      <g>
       <use style="fill:#262626;stroke:#262626;stroke-width:0.8;" x="119.872159" xlink:href="#m236771bd7f" y="228.14"/>
      </g>
     </g>
     <g id="text_2">
      <!-- 20 -->
      <defs>
       <path d="M 19.1875 8.296875 
L 53.609375 8.296875 
L 53.609375 0 
L 7.328125 0 
L 7.328125 8.296875 
Q 12.9375 14.109375 22.625 23.890625 
Q 32.328125 33.6875 34.8125 36.53125 
Q 39.546875 41.84375 41.421875 45.53125 
Q 43.3125 49.21875 43.3125 52.78125 
Q 43.3125 58.59375 39.234375 62.25 
Q 35.15625 65.921875 28.609375 65.921875 
Q 23.96875 65.921875 18.8125 64.3125 
Q 13.671875 62.703125 7.8125 59.421875 
L 7.8125 69.390625 
Q 13.765625 71.78125 18.9375 73 
Q 24.125 74.21875 28.421875 74.21875 
Q 39.75 74.21875 46.484375 68.546875 
Q 53.21875 62.890625 53.21875 53.421875 
Q 53.21875 48.921875 51.53125 44.890625 
Q 49.859375 40.875 45.40625 35.40625 
Q 44.1875 33.984375 37.640625 27.21875 
Q 31.109375 20.453125 19.1875 8.296875 
z
" id="DejaVuSans-50"/>
      </defs>
      <g style="fill:#262626;" transform="translate(113.509659 242.738437)scale(0.1 -0.1)">
       <use xlink:href="#DejaVuSans-50"/>
       <use x="63.623047" xlink:href="#DejaVuSans-48"/>
      </g>
     </g>
    </g>
    <g id="xtick_3">
     <g id="line2d_3">
      <g>
       <use style="fill:#262626;stroke:#262626;stroke-width:0.8;" x="180.744886" xlink:href="#m236771bd7f" y="228.14"/>
      </g>
     </g>
     <g id="text_3">
      <!-- 40 -->
      <defs>
       <path d="M 37.796875 64.3125 
L 12.890625 25.390625 
L 37.796875 25.390625 
z
M 35.203125 72.90625 
L 47.609375 72.90625 
L 47.609375 25.390625 
L 58.015625 25.390625 
L 58.015625 17.1875 
L 47.609375 17.1875 
L 47.609375 0 
L 37.796875 0 
L 37.796875 17.1875 
L 4.890625 17.1875 
L 4.890625 26.703125 
z
" id="DejaVuSans-52"/>
      </defs>
      <g style="fill:#262626;" transform="translate(174.382386 242.738437)scale(0.1 -0.1)">
       <use xlink:href="#DejaVuSans-52"/>
       <use x="63.623047" xlink:href="#DejaVuSans-48"/>
      </g>
     </g>
    </g>
    <g id="xtick_4">
     <g id="line2d_4">
      <g>
       <use style="fill:#262626;stroke:#262626;stroke-width:0.8;" x="241.617614" xlink:href="#m236771bd7f" y="228.14"/>
      </g>
     </g>
     <g id="text_4">
      <!-- 60 -->
      <defs>
       <path d="M 33.015625 40.375 
Q 26.375 40.375 22.484375 35.828125 
Q 18.609375 31.296875 18.609375 23.390625 
Q 18.609375 15.53125 22.484375 10.953125 
Q 26.375 6.390625 33.015625 6.390625 
Q 39.65625 6.390625 43.53125 10.953125 
Q 47.40625 15.53125 47.40625 23.390625 
Q 47.40625 31.296875 43.53125 35.828125 
Q 39.65625 40.375 33.015625 40.375 
z
M 52.59375 71.296875 
L 52.59375 62.3125 
Q 48.875 64.0625 45.09375 64.984375 
Q 41.3125 65.921875 37.59375 65.921875 
Q 27.828125 65.921875 22.671875 59.328125 
Q 17.53125 52.734375 16.796875 39.40625 
Q 19.671875 43.65625 24.015625 45.921875 
Q 28.375 48.1875 33.59375 48.1875 
Q 44.578125 48.1875 50.953125 41.515625 
Q 57.328125 34.859375 57.328125 23.390625 
Q 57.328125 12.15625 50.6875 5.359375 
Q 44.046875 -1.421875 33.015625 -1.421875 
Q 20.359375 -1.421875 13.671875 8.265625 
Q 6.984375 17.96875 6.984375 36.375 
Q 6.984375 53.65625 15.1875 63.9375 
Q 23.390625 74.21875 37.203125 74.21875 
Q 40.921875 74.21875 44.703125 73.484375 
Q 48.484375 72.75 52.59375 71.296875 
z
" id="DejaVuSans-54"/>
      </defs>
      <g style="fill:#262626;" transform="translate(235.255114 242.738437)scale(0.1 -0.1)">
       <use xlink:href="#DejaVuSans-54"/>
       <use x="63.623047" xlink:href="#DejaVuSans-48"/>
      </g>
     </g>
    </g>
    <g id="xtick_5">
     <g id="line2d_5">
      <g>
       <use style="fill:#262626;stroke:#262626;stroke-width:0.8;" x="302.490341" xlink:href="#m236771bd7f" y="228.14"/>
      </g>
     </g>
     <g id="text_5">
      <!-- 80 -->
      <defs>
       <path d="M 31.78125 34.625 
Q 24.75 34.625 20.71875 30.859375 
Q 16.703125 27.09375 16.703125 20.515625 
Q 16.703125 13.921875 20.71875 10.15625 
Q 24.75 6.390625 31.78125 6.390625 
Q 38.8125 6.390625 42.859375 10.171875 
Q 46.921875 13.96875 46.921875 20.515625 
Q 46.921875 27.09375 42.890625 30.859375 
Q 38.875 34.625 31.78125 34.625 
z
M 21.921875 38.8125 
Q 15.578125 40.375 12.03125 44.71875 
Q 8.5 49.078125 8.5 55.328125 
Q 8.5 64.0625 14.71875 69.140625 
Q 20.953125 74.21875 31.78125 74.21875 
Q 42.671875 74.21875 48.875 69.140625 
Q 55.078125 64.0625 55.078125 55.328125 
Q 55.078125 49.078125 51.53125 44.71875 
Q 48 40.375 41.703125 38.8125 
Q 48.828125 37.15625 52.796875 32.3125 
Q 56.78125 27.484375 56.78125 20.515625 
Q 56.78125 9.90625 50.3125 4.234375 
Q 43.84375 -1.421875 31.78125 -1.421875 
Q 19.734375 -1.421875 13.25 4.234375 
Q 6.78125 9.90625 6.78125 20.515625 
Q 6.78125 27.484375 10.78125 32.3125 
Q 14.796875 37.15625 21.921875 38.8125 
z
M 18.3125 54.390625 
Q 18.3125 48.734375 21.84375 45.5625 
Q 25.390625 42.390625 31.78125 42.390625 
Q 38.140625 42.390625 41.71875 45.5625 
Q 45.3125 48.734375 45.3125 54.390625 
Q 45.3125 60.0625 41.71875 63.234375 
Q 38.140625 66.40625 31.78125 66.40625 
Q 25.390625 66.40625 21.84375 63.234375 
Q 18.3125 60.0625 18.3125 54.390625 
z
" id="DejaVuSans-56"/>
      </defs>
      <g style="fill:#262626;" transform="translate(296.127841 242.738437)scale(0.1 -0.1)">
       <use xlink:href="#DejaVuSans-56"/>
       <use x="63.623047" xlink:href="#DejaVuSans-48"/>
      </g>
     </g>
    </g>
    <g id="xtick_6">
     <g id="line2d_6">
      <g>
       <use style="fill:#262626;stroke:#262626;stroke-width:0.8;" x="363.363068" xlink:href="#m236771bd7f" y="228.14"/>
      </g>
     </g>
     <g id="text_6">
      <!-- 100 -->
      <defs>
       <path d="M 12.40625 8.296875 
L 28.515625 8.296875 
L 28.515625 63.921875 
L 10.984375 60.40625 
L 10.984375 69.390625 
L 28.421875 72.90625 
L 38.28125 72.90625 
L 38.28125 8.296875 
L 54.390625 8.296875 
L 54.390625 0 
L 12.40625 0 
z
" id="DejaVuSans-49"/>
      </defs>
      <g style="fill:#262626;" transform="translate(353.819318 242.738437)scale(0.1 -0.1)">
       <use xlink:href="#DejaVuSans-49"/>
       <use x="63.623047" xlink:href="#DejaVuSans-48"/>
       <use x="127.246094" xlink:href="#DejaVuSans-48"/>
      </g>
     </g>
    </g>
    <g id="text_7">
     <!-- N samples -->
     <defs>
      <path d="M 9.8125 72.90625 
L 23.09375 72.90625 
L 55.421875 11.921875 
L 55.421875 72.90625 
L 64.984375 72.90625 
L 64.984375 0 
L 51.703125 0 
L 19.390625 60.984375 
L 19.390625 0 
L 9.8125 0 
z
" id="DejaVuSans-78"/>
      <path id="DejaVuSans-32"/>
      <path d="M 44.28125 53.078125 
L 44.28125 44.578125 
Q 40.484375 46.53125 36.375 47.5 
Q 32.28125 48.484375 27.875 48.484375 
Q 21.1875 48.484375 17.84375 46.4375 
Q 14.5 44.390625 14.5 40.28125 
Q 14.5 37.15625 16.890625 35.375 
Q 19.28125 33.59375 26.515625 31.984375 
L 29.59375 31.296875 
Q 39.15625 29.25 43.1875 25.515625 
Q 47.21875 21.78125 47.21875 15.09375 
Q 47.21875 7.46875 41.1875 3.015625 
Q 35.15625 -1.421875 24.609375 -1.421875 
Q 20.21875 -1.421875 15.453125 -0.5625 
Q 10.6875 0.296875 5.421875 2 
L 5.421875 11.28125 
Q 10.40625 8.6875 15.234375 7.390625 
Q 20.0625 6.109375 24.8125 6.109375 
Q 31.15625 6.109375 34.5625 8.28125 
Q 37.984375 10.453125 37.984375 14.40625 
Q 37.984375 18.0625 35.515625 20.015625 
Q 33.0625 21.96875 24.703125 23.78125 
L 21.578125 24.515625 
Q 13.234375 26.265625 9.515625 29.90625 
Q 5.8125 33.546875 5.8125 39.890625 
Q 5.8125 47.609375 11.28125 51.796875 
Q 16.75 56 26.8125 56 
Q 31.78125 56 36.171875 55.265625 
Q 40.578125 54.546875 44.28125 53.078125 
z
" id="DejaVuSans-115"/>
      <path d="M 34.28125 27.484375 
Q 23.390625 27.484375 19.1875 25 
Q 14.984375 22.515625 14.984375 16.5 
Q 14.984375 11.71875 18.140625 8.90625 
Q 21.296875 6.109375 26.703125 6.109375 
Q 34.1875 6.109375 38.703125 11.40625 
Q 43.21875 16.703125 43.21875 25.484375 
L 43.21875 27.484375 
z
M 52.203125 31.203125 
L 52.203125 0 
L 43.21875 0 
L 43.21875 8.296875 
Q 40.140625 3.328125 35.546875 0.953125 
Q 30.953125 -1.421875 24.3125 -1.421875 
Q 15.921875 -1.421875 10.953125 3.296875 
Q 6 8.015625 6 15.921875 
Q 6 25.140625 12.171875 29.828125 
Q 18.359375 34.515625 30.609375 34.515625 
L 43.21875 34.515625 
L 43.21875 35.40625 
Q 43.21875 41.609375 39.140625 45 
Q 35.0625 48.390625 27.6875 48.390625 
Q 23 48.390625 18.546875 47.265625 
Q 14.109375 46.140625 10.015625 43.890625 
L 10.015625 52.203125 
Q 14.9375 54.109375 19.578125 55.046875 
Q 24.21875 56 28.609375 56 
Q 40.484375 56 46.34375 49.84375 
Q 52.203125 43.703125 52.203125 31.203125 
z
" id="DejaVuSans-97"/>
      <path d="M 52 44.1875 
Q 55.375 50.25 60.0625 53.125 
Q 64.75 56 71.09375 56 
Q 79.640625 56 84.28125 50.015625 
Q 88.921875 44.046875 88.921875 33.015625 
L 88.921875 0 
L 79.890625 0 
L 79.890625 32.71875 
Q 79.890625 40.578125 77.09375 44.375 
Q 74.3125 48.1875 68.609375 48.1875 
Q 61.625 48.1875 57.5625 43.546875 
Q 53.515625 38.921875 53.515625 30.90625 
L 53.515625 0 
L 44.484375 0 
L 44.484375 32.71875 
Q 44.484375 40.625 41.703125 44.40625 
Q 38.921875 48.1875 33.109375 48.1875 
Q 26.21875 48.1875 22.15625 43.53125 
Q 18.109375 38.875 18.109375 30.90625 
L 18.109375 0 
L 9.078125 0 
L 9.078125 54.6875 
L 18.109375 54.6875 
L 18.109375 46.1875 
Q 21.1875 51.21875 25.484375 53.609375 
Q 29.78125 56 35.6875 56 
Q 41.65625 56 45.828125 52.96875 
Q 50 49.953125 52 44.1875 
z
" id="DejaVuSans-109"/>
      <path d="M 18.109375 8.203125 
L 18.109375 -20.796875 
L 9.078125 -20.796875 
L 9.078125 54.6875 
L 18.109375 54.6875 
L 18.109375 46.390625 
Q 20.953125 51.265625 25.265625 53.625 
Q 29.59375 56 35.59375 56 
Q 45.5625 56 51.78125 48.09375 
Q 58.015625 40.1875 58.015625 27.296875 
Q 58.015625 14.40625 51.78125 6.484375 
Q 45.5625 -1.421875 35.59375 -1.421875 
Q 29.59375 -1.421875 25.265625 0.953125 
Q 20.953125 3.328125 18.109375 8.203125 
z
M 48.6875 27.296875 
Q 48.6875 37.203125 44.609375 42.84375 
Q 40.53125 48.484375 33.40625 48.484375 
Q 26.265625 48.484375 22.1875 42.84375 
Q 18.109375 37.203125 18.109375 27.296875 
Q 18.109375 17.390625 22.1875 11.75 
Q 26.265625 6.109375 33.40625 6.109375 
Q 40.53125 6.109375 44.609375 11.75 
Q 48.6875 17.390625 48.6875 27.296875 
z
" id="DejaVuSans-112"/>
      <path d="M 9.421875 75.984375 
L 18.40625 75.984375 
L 18.40625 0 
L 9.421875 0 
z
" id="DejaVuSans-108"/>
      <path d="M 56.203125 29.59375 
L 56.203125 25.203125 
L 14.890625 25.203125 
Q 15.484375 15.921875 20.484375 11.0625 
Q 25.484375 6.203125 34.421875 6.203125 
Q 39.59375 6.203125 44.453125 7.46875 
Q 49.3125 8.734375 54.109375 11.28125 
L 54.109375 2.78125 
Q 49.265625 0.734375 44.1875 -0.34375 
Q 39.109375 -1.421875 33.890625 -1.421875 
Q 20.796875 -1.421875 13.15625 6.1875 
Q 5.515625 13.8125 5.515625 26.8125 
Q 5.515625 40.234375 12.765625 48.109375 
Q 20.015625 56 32.328125 56 
Q 43.359375 56 49.78125 48.890625 
Q 56.203125 41.796875 56.203125 29.59375 
z
M 47.21875 32.234375 
Q 47.125 39.59375 43.09375 43.984375 
Q 39.0625 48.390625 32.421875 48.390625 
Q 24.90625 48.390625 20.390625 44.140625 
Q 15.875 39.890625 15.1875 32.171875 
z
" id="DejaVuSans-101"/>
     </defs>
     <g style="fill:#262626;" transform="translate(185.067969 256.416562)scale(0.1 -0.1)">
      <use xlink:href="#DejaVuSans-78"/>
      <use x="74.804688" xlink:href="#DejaVuSans-32"/>
      <use x="106.591797" xlink:href="#DejaVuSans-115"/>
      <use x="158.691406" xlink:href="#DejaVuSans-97"/>
      <use x="219.970703" xlink:href="#DejaVuSans-109"/>
      <use x="317.382812" xlink:href="#DejaVuSans-112"/>
      <use x="380.859375" xlink:href="#DejaVuSans-108"/>
      <use x="408.642578" xlink:href="#DejaVuSans-101"/>
      <use x="470.166016" xlink:href="#DejaVuSans-115"/>
     </g>
    </g>
   </g>
   <g id="matplotlib.axis_2">
    <g id="ytick_1">
     <g id="line2d_7">
      <defs>
       <path d="M 0 0 
L -3.5 0 
" id="m68c3d5259a" style="stroke:#262626;stroke-width:0.8;"/>
      </defs>
      <g>
       <use style="fill:#262626;stroke:#262626;stroke-width:0.8;" x="43.78125" xlink:href="#m68c3d5259a" y="218.256364"/>
      </g>
     </g>
     <g id="text_8">
      <!-- 0.0 -->
      <defs>
       <path d="M 10.6875 12.40625 
L 21 12.40625 
L 21 0 
L 10.6875 0 
z
" id="DejaVuSans-46"/>
      </defs>
      <g style="fill:#262626;" transform="translate(20.878125 222.055582)scale(0.1 -0.1)">
       <use xlink:href="#DejaVuSans-48"/>
       <use x="63.623047" xlink:href="#DejaVuSans-46"/>
       <use x="95.410156" xlink:href="#DejaVuSans-48"/>
      </g>
     </g>
    </g>
    <g id="ytick_2">
     <g id="line2d_8">
      <g>
       <use style="fill:#262626;stroke:#262626;stroke-width:0.8;" x="43.78125" xlink:href="#m68c3d5259a" y="181.401216"/>
      </g>
     </g>
     <g id="text_9">
      <!-- 0.1 -->
      <g style="fill:#262626;" transform="translate(20.878125 185.200435)scale(0.1 -0.1)">
       <use xlink:href="#DejaVuSans-48"/>
       <use x="63.623047" xlink:href="#DejaVuSans-46"/>
       <use x="95.410156" xlink:href="#DejaVuSans-49"/>
      </g>
     </g>
    </g>
    <g id="ytick_3">
     <g id="line2d_9">
      <g>
       <use style="fill:#262626;stroke:#262626;stroke-width:0.8;" x="43.78125" xlink:href="#m68c3d5259a" y="144.546069"/>
      </g>
     </g>
     <g id="text_10">
      <!-- 0.2 -->
      <g style="fill:#262626;" transform="translate(20.878125 148.345287)scale(0.1 -0.1)">
       <use xlink:href="#DejaVuSans-48"/>
       <use x="63.623047" xlink:href="#DejaVuSans-46"/>
       <use x="95.410156" xlink:href="#DejaVuSans-50"/>
      </g>
     </g>
    </g>
    <g id="ytick_4">
     <g id="line2d_10">
      <g>
       <use style="fill:#262626;stroke:#262626;stroke-width:0.8;" x="43.78125" xlink:href="#m68c3d5259a" y="107.690921"/>
      </g>
     </g>
     <g id="text_11">
      <!-- 0.3 -->
      <defs>
       <path d="M 40.578125 39.3125 
Q 47.65625 37.796875 51.625 33 
Q 55.609375 28.21875 55.609375 21.1875 
Q 55.609375 10.40625 48.1875 4.484375 
Q 40.765625 -1.421875 27.09375 -1.421875 
Q 22.515625 -1.421875 17.65625 -0.515625 
Q 12.796875 0.390625 7.625 2.203125 
L 7.625 11.71875 
Q 11.71875 9.328125 16.59375 8.109375 
Q 21.484375 6.890625 26.8125 6.890625 
Q 36.078125 6.890625 40.9375 10.546875 
Q 45.796875 14.203125 45.796875 21.1875 
Q 45.796875 27.640625 41.28125 31.265625 
Q 36.765625 34.90625 28.71875 34.90625 
L 20.21875 34.90625 
L 20.21875 43.015625 
L 29.109375 43.015625 
Q 36.375 43.015625 40.234375 45.921875 
Q 44.09375 48.828125 44.09375 54.296875 
Q 44.09375 59.90625 40.109375 62.90625 
Q 36.140625 65.921875 28.71875 65.921875 
Q 24.65625 65.921875 20.015625 65.03125 
Q 15.375 64.15625 9.8125 62.3125 
L 9.8125 71.09375 
Q 15.4375 72.65625 20.34375 73.4375 
Q 25.25 74.21875 29.59375 74.21875 
Q 40.828125 74.21875 47.359375 69.109375 
Q 53.90625 64.015625 53.90625 55.328125 
Q 53.90625 49.265625 50.4375 45.09375 
Q 46.96875 40.921875 40.578125 39.3125 
z
" id="DejaVuSans-51"/>
      </defs>
      <g style="fill:#262626;" transform="translate(20.878125 111.49014)scale(0.1 -0.1)">
       <use xlink:href="#DejaVuSans-48"/>
       <use x="63.623047" xlink:href="#DejaVuSans-46"/>
       <use x="95.410156" xlink:href="#DejaVuSans-51"/>
      </g>
     </g>
    </g>
    <g id="ytick_5">
     <g id="line2d_11">
      <g>
       <use style="fill:#262626;stroke:#262626;stroke-width:0.8;" x="43.78125" xlink:href="#m68c3d5259a" y="70.835774"/>
      </g>
     </g>
     <g id="text_12">
      <!-- 0.4 -->
      <g style="fill:#262626;" transform="translate(20.878125 74.634992)scale(0.1 -0.1)">
       <use xlink:href="#DejaVuSans-48"/>
       <use x="63.623047" xlink:href="#DejaVuSans-46"/>
       <use x="95.410156" xlink:href="#DejaVuSans-52"/>
      </g>
     </g>
    </g>
    <g id="ytick_6">
     <g id="line2d_12">
      <g>
       <use style="fill:#262626;stroke:#262626;stroke-width:0.8;" x="43.78125" xlink:href="#m68c3d5259a" y="33.980626"/>
      </g>
     </g>
     <g id="text_13">
      <!-- 0.5 -->
      <defs>
       <path d="M 10.796875 72.90625 
L 49.515625 72.90625 
L 49.515625 64.59375 
L 19.828125 64.59375 
L 19.828125 46.734375 
Q 21.96875 47.46875 24.109375 47.828125 
Q 26.265625 48.1875 28.421875 48.1875 
Q 40.625 48.1875 47.75 41.5 
Q 54.890625 34.8125 54.890625 23.390625 
Q 54.890625 11.625 47.5625 5.09375 
Q 40.234375 -1.421875 26.90625 -1.421875 
Q 22.3125 -1.421875 17.546875 -0.640625 
Q 12.796875 0.140625 7.71875 1.703125 
L 7.71875 11.625 
Q 12.109375 9.234375 16.796875 8.0625 
Q 21.484375 6.890625 26.703125 6.890625 
Q 35.15625 6.890625 40.078125 11.328125 
Q 45.015625 15.765625 45.015625 23.390625 
Q 45.015625 31 40.078125 35.4375 
Q 35.15625 39.890625 26.703125 39.890625 
Q 22.75 39.890625 18.8125 39.015625 
Q 14.890625 38.140625 10.796875 36.28125 
z
" id="DejaVuSans-53"/>
      </defs>
      <g style="fill:#262626;" transform="translate(20.878125 37.779845)scale(0.1 -0.1)">
       <use xlink:href="#DejaVuSans-48"/>
       <use x="63.623047" xlink:href="#DejaVuSans-46"/>
       <use x="95.410156" xlink:href="#DejaVuSans-53"/>
      </g>
     </g>
    </g>
    <g id="text_14">
     <!-- p-value -->
     <defs>
      <path d="M 4.890625 31.390625 
L 31.203125 31.390625 
L 31.203125 23.390625 
L 4.890625 23.390625 
z
" id="DejaVuSans-45"/>
      <path d="M 2.984375 54.6875 
L 12.5 54.6875 
L 29.59375 8.796875 
L 46.6875 54.6875 
L 56.203125 54.6875 
L 35.6875 0 
L 23.484375 0 
z
" id="DejaVuSans-118"/>
      <path d="M 8.5 21.578125 
L 8.5 54.6875 
L 17.484375 54.6875 
L 17.484375 21.921875 
Q 17.484375 14.15625 20.5 10.265625 
Q 23.53125 6.390625 29.59375 6.390625 
Q 36.859375 6.390625 41.078125 11.03125 
Q 45.3125 15.671875 45.3125 23.6875 
L 45.3125 54.6875 
L 54.296875 54.6875 
L 54.296875 0 
L 45.3125 0 
L 45.3125 8.40625 
Q 42.046875 3.421875 37.71875 1 
Q 33.40625 -1.421875 27.6875 -1.421875 
Q 18.265625 -1.421875 13.375 4.4375 
Q 8.5 10.296875 8.5 21.578125 
z
M 31.109375 56 
z
" id="DejaVuSans-117"/>
     </defs>
     <g style="fill:#262626;" transform="translate(14.798438 138.054375)rotate(-90)scale(0.1 -0.1)">
      <use xlink:href="#DejaVuSans-112"/>
      <use x="63.476562" xlink:href="#DejaVuSans-45"/>
      <use x="99.529297" xlink:href="#DejaVuSans-118"/>
      <use x="158.708984" xlink:href="#DejaVuSans-97"/>
      <use x="219.988281" xlink:href="#DejaVuSans-108"/>
      <use x="247.771484" xlink:href="#DejaVuSans-117"/>
      <use x="311.150391" xlink:href="#DejaVuSans-101"/>
     </g>
    </g>
   </g>
   <g id="PolyCollection_1">
    <defs>
     <path d="M 74.217614 -239.975767 
L 74.217614 -227.246978 
L 77.26125 -229.749119 
L 80.304886 -228.107238 
L 83.348523 -220.601149 
L 86.392159 -221.126391 
L 89.435795 -228.002474 
L 92.479432 -227.688454 
L 95.523068 -223.177269 
L 98.566705 -230.292365 
L 101.610341 -222.70981 
L 104.653977 -228.262413 
L 107.697614 -221.019777 
L 110.74125 -229.658508 
L 113.784886 -227.125812 
L 116.828523 -229.865784 
L 119.872159 -223.269835 
L 122.915795 -223.713589 
L 125.959432 -222.066013 
L 129.003068 -226.784075 
L 132.046705 -219.198365 
L 135.090341 -227.527519 
L 138.133977 -228.698355 
L 141.177614 -225.024709 
L 144.22125 -227.997792 
L 147.264886 -224.073371 
L 150.308523 -224.040355 
L 153.352159 -229.168327 
L 156.395795 -225.473825 
L 159.439432 -221.163118 
L 162.483068 -217.017777 
L 165.526705 -222.145965 
L 168.570341 -221.679557 
L 171.613977 -225.767816 
L 174.657614 -226.720438 
L 177.70125 -231.803459 
L 180.744886 -230.61525 
L 183.788523 -226.265989 
L 186.832159 -221.601101 
L 189.875795 -220.922679 
L 192.919432 -220.099299 
L 195.963068 -224.662673 
L 199.006705 -225.69506 
L 202.050341 -220.887588 
L 205.093977 -224.322038 
L 208.137614 -230.410101 
L 211.18125 -225.240524 
L 214.224886 -230.401651 
L 217.268523 -222.15557 
L 220.312159 -224.782668 
L 223.355795 -220.816839 
L 226.399432 -227.595254 
L 229.443068 -229.435033 
L 232.486705 -224.006137 
L 235.530341 -229.419765 
L 238.573977 -223.757438 
L 241.617614 -226.142014 
L 244.66125 -223.130148 
L 247.704886 -229.334091 
L 250.748523 -224.477253 
L 253.792159 -219.870505 
L 256.835795 -222.954165 
L 259.879432 -217.785657 
L 262.923068 -224.852731 
L 265.966705 -228.706506 
L 269.010341 -218.62114 
L 272.053977 -224.165614 
L 275.097614 -225.949613 
L 278.14125 -230.156672 
L 281.184886 -223.178525 
L 284.228523 -231.944779 
L 287.272159 -220.353901 
L 290.315795 -219.471081 
L 293.359432 -220.497307 
L 296.403068 -222.377792 
L 299.446705 -225.732913 
L 302.490341 -230.136658 
L 305.533977 -220.197898 
L 308.577614 -218.961609 
L 311.62125 -222.12043 
L 314.664886 -228.010283 
L 317.708523 -222.995695 
L 320.752159 -231.804725 
L 323.795795 -226.231377 
L 326.839432 -226.835361 
L 329.883068 -222.183135 
L 332.926705 -226.920573 
L 335.970341 -229.44037 
L 339.013977 -220.007768 
L 342.057614 -225.500574 
L 345.10125 -225.476447 
L 348.144886 -221.202503 
L 351.188523 -223.745705 
L 354.232159 -228.183079 
L 357.275795 -226.617878 
L 360.319432 -224.566578 
L 360.319432 -238.344057 
L 360.319432 -238.344057 
L 357.275795 -239.588081 
L 354.232159 -241.323917 
L 351.188523 -237.599068 
L 348.144886 -234.203197 
L 345.10125 -238.304558 
L 342.057614 -238.329374 
L 339.013977 -233.46336 
L 335.970341 -242.282238 
L 332.926705 -239.513958 
L 329.883068 -234.804046 
L 326.839432 -240.054633 
L 323.795795 -238.620508 
L 320.752159 -244.891982 
L 317.708523 -235.97979 
L 314.664886 -241.311553 
L 311.62125 -235.269858 
L 308.577614 -232.723903 
L 305.533977 -233.712826 
L 302.490341 -243.123695 
L 299.446705 -238.676602 
L 296.403068 -235.374973 
L 293.359432 -233.047687 
L 290.315795 -232.227838 
L 287.272159 -233.871835 
L 284.228523 -245.112614 
L 281.184886 -236.408773 
L 278.14125 -243.325594 
L 275.097614 -239.125711 
L 272.053977 -237.279198 
L 269.010341 -231.492859 
L 265.966705 -241.891339 
L 262.923068 -238.262814 
L 259.879432 -231.408736 
L 256.835795 -235.92901 
L 253.792159 -233.061958 
L 250.748523 -237.454773 
L 247.704886 -242.462088 
L 244.66125 -235.660057 
L 241.617614 -239.106514 
L 238.573977 -236.624927 
L 235.530341 -242.356108 
L 232.486705 -236.759672 
L 229.443068 -242.312615 
L 226.399432 -240.481224 
L 223.355795 -233.254997 
L 220.312159 -237.790641 
L 217.268523 -235.263719 
L 214.224886 -242.825812 
L 211.18125 -238.712347 
L 208.137614 -243.444936 
L 205.093977 -238.244414 
L 202.050341 -234.554045 
L 199.006705 -238.965582 
L 195.963068 -237.437052 
L 192.919432 -232.890029 
L 189.875795 -234.21432 
L 186.832159 -235.316201 
L 183.788523 -239.239776 
L 180.744886 -243.70957 
L 177.70125 -243.908306 
L 174.657614 -239.035722 
L 171.613977 -239.013748 
L 168.570341 -234.773843 
L 165.526705 -234.944098 
L 162.483068 -229.95996 
L 159.439432 -234.122694 
L 156.395795 -238.104242 
L 153.352159 -242.002418 
L 150.308523 -236.699509 
L 147.264886 -237.640322 
L 144.22125 -241.505312 
L 141.177614 -237.473842 
L 138.133977 -242.770232 
L 135.090341 -241.299892 
L 132.046705 -231.904183 
L 129.003068 -239.397823 
L 125.959432 -235.473888 
L 122.915795 -236.397931 
L 119.872159 -236.617713 
L 116.828523 -243.952774 
L 113.784886 -239.762833 
L 110.74125 -242.813666 
L 107.697614 -234.031043 
L 104.653977 -240.941251 
L 101.610341 -235.870056 
L 98.566705 -243.066378 
L 95.523068 -236.800874 
L 92.479432 -241.065871 
L 89.435795 -241.131583 
L 86.392159 -235.275727 
L 83.348523 -233.194304 
L 80.304886 -240.842606 
L 77.26125 -242.464578 
L 74.217614 -239.975767 
z
" id="m4f0525d3dc" style="stroke:#909090;stroke-opacity:0.2;"/>
    </defs>
    <g clip-path="url(#p24291b60ff)">
     <use style="fill:#909090;fill-opacity:0.2;stroke:#909090;stroke-opacity:0.2;" x="0" xlink:href="#m4f0525d3dc" y="265.69625"/>
    </g>
   </g>
   <g id="PolyCollection_2">
    <defs>
     <path d="M 74.217614 -182.843863 
L 74.217614 -170.126098 
L 77.26125 -158.753643 
L 80.304886 -155.935936 
L 83.348523 -144.101431 
L 86.392159 -138.329486 
L 89.435795 -134.958692 
L 92.479432 -128.638412 
L 95.523068 -123.069423 
L 98.566705 -111.605856 
L 101.610341 -111.775692 
L 104.653977 -104.38027 
L 107.697614 -97.058218 
L 110.74125 -101.252327 
L 113.784886 -93.244038 
L 116.828523 -86.74571 
L 119.872159 -86.806017 
L 122.915795 -84.850361 
L 125.959432 -78.442031 
L 129.003068 -81.284675 
L 132.046705 -78.111279 
L 135.090341 -74.556889 
L 138.133977 -70.896245 
L 141.177614 -69.962187 
L 144.22125 -65.86702 
L 147.264886 -66.307777 
L 150.308523 -64.858456 
L 153.352159 -64.542729 
L 156.395795 -64.239483 
L 159.439432 -61.989767 
L 162.483068 -62.174928 
L 165.526705 -60.149917 
L 168.570341 -59.679358 
L 171.613977 -58.360134 
L 174.657614 -57.434781 
L 177.70125 -56.972522 
L 180.744886 -55.539953 
L 183.788523 -57.106197 
L 186.832159 -54.524922 
L 189.875795 -53.613579 
L 192.919432 -54.079806 
L 195.963068 -52.79258 
L 199.006705 -52.492921 
L 202.050341 -52.354856 
L 205.093977 -53.144278 
L 208.137614 -52.725941 
L 211.18125 -51.674485 
L 214.224886 -51.151121 
L 217.268523 -50.816008 
L 220.312159 -50.344738 
L 223.355795 -50.073068 
L 226.399432 -50.096846 
L 229.443068 -50.459837 
L 232.486705 -49.632541 
L 235.530341 -50.420207 
L 238.573977 -49.180525 
L 241.617614 -49.4525 
L 244.66125 -49.461873 
L 247.704886 -48.97449 
L 250.748523 -49.219441 
L 253.792159 -48.690489 
L 256.835795 -48.982449 
L 259.879432 -48.822247 
L 262.923068 -48.678576 
L 265.966705 -48.528669 
L 269.010341 -48.511385 
L 272.053977 -48.43372 
L 275.097614 -48.300541 
L 278.14125 -48.092238 
L 281.184886 -47.979739 
L 284.228523 -48.301239 
L 287.272159 -48.166742 
L 290.315795 -47.93815 
L 293.359432 -48.129525 
L 296.403068 -48.099106 
L 299.446705 -47.840356 
L 302.490341 -47.98538 
L 305.533977 -47.826771 
L 308.577614 -47.856628 
L 311.62125 -47.728602 
L 314.664886 -47.743519 
L 317.708523 -47.668452 
L 320.752159 -47.707647 
L 323.795795 -47.725949 
L 326.839432 -47.682229 
L 329.883068 -47.720432 
L 332.926705 -47.650483 
L 335.970341 -47.728492 
L 339.013977 -47.765504 
L 342.057614 -47.566375 
L 345.10125 -47.674136 
L 348.144886 -47.594519 
L 351.188523 -47.599112 
L 354.232159 -47.552367 
L 357.275795 -47.605335 
L 360.319432 -47.545325 
L 360.319432 -47.674231 
L 360.319432 -47.674231 
L 357.275795 -47.84922 
L 354.232159 -47.806964 
L 351.188523 -47.770537 
L 348.144886 -47.760494 
L 345.10125 -48.09451 
L 342.057614 -47.771403 
L 339.013977 -48.529909 
L 335.970341 -48.097725 
L 332.926705 -47.833903 
L 329.883068 -48.361641 
L 326.839432 -48.222526 
L 323.795795 -49.003671 
L 320.752159 -48.010895 
L 317.708523 -47.838764 
L 314.664886 -48.080892 
L 311.62125 -47.997338 
L 308.577614 -48.246586 
L 305.533977 -48.137488 
L 302.490341 -48.756996 
L 299.446705 -48.396795 
L 296.403068 -49.066596 
L 293.359432 -48.790548 
L 290.315795 -48.284866 
L 287.272159 -49.139099 
L 284.228523 -48.969554 
L 281.184886 -48.488255 
L 278.14125 -48.589131 
L 275.097614 -49.018122 
L 272.053977 -49.153805 
L 269.010341 -49.68099 
L 265.966705 -49.193695 
L 262.923068 -49.340544 
L 259.879432 -49.827383 
L 256.835795 -50.433107 
L 253.792159 -49.398488 
L 250.748523 -50.456766 
L 247.704886 -50.353853 
L 244.66125 -51.469721 
L 241.617614 -50.665443 
L 238.573977 -50.21279 
L 235.530341 -53.175421 
L 232.486705 -50.993543 
L 229.443068 -52.348073 
L 226.399432 -52.201425 
L 223.355795 -51.681727 
L 220.312159 -51.931506 
L 217.268523 -52.375691 
L 214.224886 -53.440466 
L 211.18125 -54.007665 
L 208.137614 -55.846883 
L 205.093977 -56.049214 
L 202.050341 -54.787961 
L 199.006705 -55.034443 
L 195.963068 -55.184829 
L 192.919432 -57.499143 
L 189.875795 -56.131611 
L 186.832159 -57.672442 
L 183.788523 -61.195365 
L 180.744886 -58.957166 
L 177.70125 -61.027841 
L 174.657614 -61.191563 
L 171.613977 -62.678593 
L 168.570341 -63.957045 
L 165.526705 -65.077492 
L 162.483068 -67.505674 
L 159.439432 -66.875407 
L 156.395795 -69.807609 
L 153.352159 -69.928041 
L 150.308523 -70.310499 
L 147.264886 -72.053193 
L 144.22125 -71.516206 
L 141.177614 -75.928351 
L 138.133977 -77.394602 
L 135.090341 -81.795353 
L 132.046705 -85.677871 
L 129.003068 -89.856414 
L 125.959432 -86.43358 
L 122.915795 -93.477945 
L 119.872159 -95.727517 
L 116.828523 -95.303882 
L 113.784886 -102.559734 
L 110.74125 -111.306547 
L 107.697614 -106.700504 
L 104.653977 -114.154008 
L 101.610341 -122.791883 
L 98.566705 -122.764002 
L 95.523068 -133.952946 
L 92.479432 -139.40131 
L 89.435795 -147.102562 
L 86.392159 -150.382897 
L 83.348523 -156.393152 
L 80.304886 -169.03554 
L 77.26125 -171.260732 
L 74.217614 -182.843863 
z
" id="m9084ff9ae9" style="stroke:#cc503e;stroke-opacity:0.2;"/>
    </defs>
    <g clip-path="url(#p24291b60ff)">
     <use style="fill:#cc503e;fill-opacity:0.2;stroke:#cc503e;stroke-opacity:0.2;" x="0" xlink:href="#m9084ff9ae9" y="265.69625"/>
    </g>
   </g>
   <g id="PolyCollection_3">
    <defs>
     <path d="M 74.217614 -104.78482 
L 74.217614 -96.676247 
L 77.26125 -84.125345 
L 80.304886 -75.368103 
L 83.348523 -69.837148 
L 86.392159 -65.202165 
L 89.435795 -60.70752 
L 92.479432 -57.774002 
L 95.523068 -55.757804 
L 98.566705 -53.297358 
L 101.610341 -51.813975 
L 104.653977 -50.365893 
L 107.697614 -50.341498 
L 110.74125 -49.603646 
L 113.784886 -48.866002 
L 116.828523 -48.767256 
L 119.872159 -48.346235 
L 122.915795 -48.131492 
L 125.959432 -48.004459 
L 129.003068 -47.821572 
L 132.046705 -47.80747 
L 135.090341 -47.765337 
L 138.133977 -47.622077 
L 141.177614 -47.613219 
L 144.22125 -47.546899 
L 147.264886 -47.51694 
L 150.308523 -47.489172 
L 153.352159 -47.494474 
L 156.395795 -47.475582 
L 159.439432 -47.472202 
L 162.483068 -47.476373 
L 165.526705 -47.458793 
L 168.570341 -47.461607 
L 171.613977 -47.448997 
L 174.657614 -47.453441 
L 177.70125 -47.446789 
L 180.744886 -47.4444 
L 183.788523 -47.443924 
L 186.832159 -47.442686 
L 189.875795 -47.441337 
L 192.919432 -47.441871 
L 195.963068 -47.440818 
L 199.006705 -47.441061 
L 202.050341 -47.440507 
L 205.093977 -47.440278 
L 208.137614 -47.440438 
L 211.18125 -47.440138 
L 214.224886 -47.440132 
L 217.268523 -47.440219 
L 220.312159 -47.440054 
L 223.355795 -47.439974 
L 226.399432 -47.440009 
L 229.443068 -47.439999 
L 232.486705 -47.43995 
L 235.530341 -47.439925 
L 238.573977 -47.439914 
L 241.617614 -47.439921 
L 244.66125 -47.439908 
L 247.704886 -47.439904 
L 250.748523 -47.439896 
L 253.792159 -47.439895 
L 256.835795 -47.439891 
L 259.879432 -47.439892 
L 262.923068 -47.43989 
L 265.966705 -47.43989 
L 269.010341 -47.439888 
L 272.053977 -47.439889 
L 275.097614 -47.439888 
L 278.14125 -47.439887 
L 281.184886 -47.439887 
L 284.228523 -47.439888 
L 287.272159 -47.439887 
L 290.315795 -47.439887 
L 293.359432 -47.439887 
L 296.403068 -47.439887 
L 299.446705 -47.439887 
L 302.490341 -47.439887 
L 305.533977 -47.439887 
L 308.577614 -47.439886 
L 311.62125 -47.439886 
L 314.664886 -47.439886 
L 317.708523 -47.439886 
L 320.752159 -47.439886 
L 323.795795 -47.439886 
L 326.839432 -47.439886 
L 329.883068 -47.439886 
L 332.926705 -47.439886 
L 335.970341 -47.439886 
L 339.013977 -47.439886 
L 342.057614 -47.439886 
L 345.10125 -47.439886 
L 348.144886 -47.439886 
L 351.188523 -47.439886 
L 354.232159 -47.439886 
L 357.275795 -47.439886 
L 360.319432 -47.439886 
L 360.319432 -47.439886 
L 360.319432 -47.439886 
L 357.275795 -47.439886 
L 354.232159 -47.439886 
L 351.188523 -47.439886 
L 348.144886 -47.439886 
L 345.10125 -47.439886 
L 342.057614 -47.439886 
L 339.013977 -47.439886 
L 335.970341 -47.439886 
L 332.926705 -47.439886 
L 329.883068 -47.439887 
L 326.839432 -47.439886 
L 323.795795 -47.439886 
L 320.752159 -47.439887 
L 317.708523 -47.439887 
L 314.664886 -47.439887 
L 311.62125 -47.439888 
L 308.577614 -47.439887 
L 305.533977 -47.439887 
L 302.490341 -47.439887 
L 299.446705 -47.439887 
L 296.403068 -47.439887 
L 293.359432 -47.439889 
L 290.315795 -47.439896 
L 287.272159 -47.439889 
L 284.228523 -47.439891 
L 281.184886 -47.439888 
L 278.14125 -47.439895 
L 275.097614 -47.439891 
L 272.053977 -47.439893 
L 269.010341 -47.439901 
L 265.966705 -47.439915 
L 262.923068 -47.439922 
L 259.879432 -47.439962 
L 256.835795 -47.439972 
L 253.792159 -47.439943 
L 250.748523 -47.439912 
L 247.704886 -47.439966 
L 244.66125 -47.44003 
L 241.617614 -47.440259 
L 238.573977 -47.440014 
L 235.530341 -47.440033 
L 232.486705 -47.440107 
L 229.443068 -47.440927 
L 226.399432 -47.44173 
L 223.355795 -47.440281 
L 220.312159 -47.44569 
L 217.268523 -47.440622 
L 214.224886 -47.44043 
L 211.18125 -47.440718 
L 208.137614 -47.442947 
L 205.093977 -47.440733 
L 202.050341 -47.441599 
L 199.006705 -47.445684 
L 195.963068 -47.443927 
L 192.919432 -47.447345 
L 189.875795 -47.443798 
L 186.832159 -47.448328 
L 183.788523 -47.453388 
L 180.744886 -47.469971 
L 177.70125 -47.457792 
L 174.657614 -47.531056 
L 171.613977 -47.460838 
L 168.570341 -47.487261 
L 165.526705 -47.489054 
L 162.483068 -47.515365 
L 159.439432 -47.518401 
L 156.395795 -47.509312 
L 153.352159 -47.557149 
L 150.308523 -47.537603 
L 147.264886 -47.579773 
L 144.22125 -47.626421 
L 141.177614 -47.912757 
L 138.133977 -47.832509 
L 135.090341 -48.00418 
L 132.046705 -48.293536 
L 129.003068 -48.034617 
L 125.959432 -48.610566 
L 122.915795 -48.818315 
L 119.872159 -48.847095 
L 116.828523 -49.404248 
L 113.784886 -49.791214 
L 110.74125 -50.927825 
L 107.697614 -51.933757 
L 104.653977 -51.705763 
L 101.610341 -53.831765 
L 98.566705 -55.395297 
L 95.523068 -58.617567 
L 92.479432 -61.673651 
L 89.435795 -64.896256 
L 86.392159 -69.767597 
L 83.348523 -75.139572 
L 80.304886 -81.331966 
L 77.26125 -91.418318 
L 74.217614 -104.78482 
z
" id="mc74943474a" style="stroke:#1d6996;stroke-opacity:0.2;"/>
    </defs>
    <g clip-path="url(#p24291b60ff)">
     <use style="fill:#1d6996;fill-opacity:0.2;stroke:#1d6996;stroke-opacity:0.2;" x="0" xlink:href="#mc74943474a" y="265.69625"/>
    </g>
   </g>
   <g id="line2d_13">
    <path clip-path="url(#p24291b60ff)" d="M 74.217614 32.21464 
L 77.26125 29.922359 
L 80.304886 31.049999 
L 83.348523 38.763772 
L 86.392159 37.095747 
L 89.435795 30.958124 
L 92.479432 31.581233 
L 95.523068 35.803179 
L 98.566705 29.030015 
L 101.610341 36.357654 
L 104.653977 30.707327 
L 107.697614 37.928354 
L 110.74125 29.529918 
L 113.784886 31.857052 
L 116.828523 28.539577 
L 119.872159 35.85709 
L 122.915795 35.773832 
L 125.959432 36.54596 
L 129.003068 32.891443 
L 132.046705 40.024803 
L 135.090341 31.306403 
L 138.133977 30.150047 
L 141.177614 34.472045 
L 144.22125 30.871876 
L 147.264886 34.98241 
L 150.308523 35.496338 
L 153.352159 30.110605 
L 156.395795 33.853585 
L 159.439432 38.013783 
L 162.483068 41.917748 
L 165.526705 37.090071 
L 168.570341 37.643461 
L 171.613977 32.999845 
L 174.657614 32.879406 
L 177.70125 27.960443 
L 180.744886 28.203527 
L 183.788523 32.926547 
L 186.832159 37.516374 
L 189.875795 38.095719 
L 192.919432 38.933577 
L 195.963068 34.509062 
L 199.006705 33.252203 
L 202.050341 37.735597 
L 205.093977 34.359004 
L 208.137614 28.959677 
L 211.18125 33.787336 
L 214.224886 29.110601 
L 217.268523 37.166534 
L 220.312159 34.213339 
L 223.355795 38.87397 
L 226.399432 31.740343 
L 229.443068 29.895729 
L 232.486705 35.283773 
L 235.530341 29.789589 
L 238.573977 35.279105 
L 241.617614 33.06959 
L 244.66125 35.908413 
L 247.704886 29.55136 
L 250.748523 34.464079 
L 253.792159 39.018889 
L 256.835795 36.140143 
L 259.879432 41.000335 
L 262.923068 34.201493 
L 265.966705 30.665544 
L 269.010341 40.646221 
L 272.053977 34.947888 
L 275.097614 32.950431 
L 278.14125 29.106984 
L 281.184886 35.649167 
L 284.228523 27.213632 
L 287.272159 38.560872 
L 290.315795 39.942673 
L 293.359432 39.031683 
L 296.403068 36.653203 
L 299.446705 33.502102 
L 302.490341 29.004554 
L 305.533977 38.435895 
L 308.577614 39.416208 
L 311.62125 36.792809 
L 314.664886 31.01537 
L 317.708523 35.911253 
L 320.752159 27.594664 
L 323.795795 33.243096 
L 326.839432 32.422329 
L 329.883068 37.305753 
L 332.926705 32.058691 
L 335.970341 29.671834 
L 339.013977 38.768162 
L 342.057614 33.581644 
L 345.10125 33.285343 
L 348.144886 37.928984 
L 351.188523 34.963703 
L 354.232159 30.87196 
L 357.275795 32.692598 
L 360.319432 34.310382 
" style="fill:none;stroke:#909090;stroke-linecap:round;stroke-width:1.5;"/>
   </g>
   <g id="line2d_14">
    <path clip-path="url(#p24291b60ff)" d="M 74.217614 89.058712 
L 77.26125 100.872148 
L 80.304886 103.057158 
L 83.348523 115.460987 
L 86.392159 121.335747 
L 89.435795 124.999649 
L 92.479432 131.680693 
L 95.523068 137.223941 
L 98.566705 148.678724 
L 101.610341 148.10288 
L 104.653977 156.432484 
L 107.697614 163.663558 
L 110.74125 159.764704 
L 113.784886 167.70633 
L 116.828523 174.623195 
L 119.872159 174.470212 
L 122.915795 176.728051 
L 125.959432 183.347695 
L 129.003068 180.391263 
L 132.046705 184.02746 
L 135.090341 187.668462 
L 138.133977 191.676253 
L 141.177614 192.805471 
L 144.22125 197.16281 
L 147.264886 196.74511 
L 150.308523 198.344931 
L 153.352159 198.391801 
L 156.395795 198.704279 
L 159.439432 201.479561 
L 162.483068 201.038848 
L 165.526705 203.102083 
L 168.570341 203.948498 
L 171.613977 205.184891 
L 174.657614 206.421657 
L 177.70125 206.913757 
L 180.744886 208.469717 
L 183.788523 206.632729 
L 186.832159 209.65266 
L 189.875795 210.867125 
L 192.919432 209.965066 
L 195.963068 211.823051 
L 199.006705 212.0043 
L 202.050341 212.245027 
L 205.093977 211.126811 
L 208.137614 211.51671 
L 211.18125 212.898653 
L 214.224886 213.485855 
L 217.268523 214.148059 
L 220.312159 214.616804 
L 223.355795 214.889075 
L 226.399432 214.645314 
L 229.443068 214.354848 
L 232.486705 215.385996 
L 235.530341 213.935187 
L 238.573977 216.017821 
L 241.617614 215.700839 
L 244.66125 215.318349 
L 247.704886 216.14279 
L 250.748523 215.891836 
L 253.792159 216.66962 
L 256.835795 216.012866 
L 259.879432 216.440497 
L 262.923068 216.700617 
L 265.966705 216.852694 
L 269.010341 216.666714 
L 272.053977 216.915815 
L 275.097614 217.067414 
L 278.14125 217.371382 
L 281.184886 217.492039 
L 284.228523 217.083862 
L 287.272159 217.134772 
L 290.315795 217.602663 
L 293.359432 217.260618 
L 296.403068 217.200066 
L 299.446705 217.599385 
L 302.490341 217.379349 
L 305.533977 217.725112 
L 308.577614 217.665727 
L 311.62125 217.84385 
L 314.664886 217.792637 
L 317.708523 217.948802 
L 320.752159 217.855453 
L 323.795795 217.511684 
L 326.839432 217.794817 
L 329.883068 217.693145 
L 332.926705 217.960139 
L 335.970341 217.803448 
L 339.013977 217.646979 
L 342.057614 218.041847 
L 345.10125 217.843947 
L 348.144886 218.021607 
L 351.188523 218.017436 
L 354.232159 218.04965 
L 357.275795 217.986793 
L 360.319432 218.092879 
" style="fill:none;stroke:#cc503e;stroke-linecap:round;stroke-width:1.5;"/>
   </g>
   <g id="line2d_15">
    <path clip-path="url(#p24291b60ff)" d="M 74.217614 164.883152 
L 77.26125 178.037569 
L 80.304886 187.414458 
L 83.348523 193.146815 
L 86.392159 198.147198 
L 89.435795 202.998405 
L 92.479432 206.103722 
L 95.523068 208.614323 
L 98.566705 211.405035 
L 101.610341 212.949563 
L 104.653977 214.695101 
L 107.697614 214.595325 
L 110.74125 215.458063 
L 113.784886 216.412131 
L 116.828523 216.617862 
L 119.872159 217.103962 
L 122.915795 217.262384 
L 125.959432 217.437198 
L 129.003068 217.776654 
L 132.046705 217.678185 
L 135.090341 217.819756 
L 138.133977 217.977229 
L 141.177614 217.970441 
L 144.22125 218.112397 
L 147.264886 218.15142 
L 150.308523 218.185448 
L 153.352159 218.171934 
L 156.395795 218.204633 
L 159.439432 218.203485 
L 162.483068 218.202145 
L 165.526705 218.224992 
L 168.570341 218.223369 
L 171.613977 218.242026 
L 174.657614 218.212052 
L 177.70125 218.244812 
L 180.744886 218.241747 
L 183.788523 218.248152 
L 186.832159 218.251173 
L 189.875795 218.253873 
L 192.919432 218.252161 
L 195.963068 218.254243 
L 199.006705 218.253293 
L 202.050341 218.255268 
L 205.093977 218.255768 
L 208.137614 218.254858 
L 211.18125 218.255864 
L 214.224886 218.255983 
L 217.268523 218.255839 
L 220.312159 218.253977 
L 223.355795 218.256143 
L 226.399432 218.255632 
L 229.443068 218.255884 
L 232.486705 218.256229 
L 235.530341 218.256279 
L 238.573977 218.256296 
L 241.617614 218.256198 
L 244.66125 218.256289 
L 247.704886 218.25632 
L 250.748523 218.256347 
L 253.792159 218.256336 
L 256.835795 218.256331 
L 259.879432 218.256334 
L 262.923068 218.256349 
L 265.966705 218.256351 
L 269.010341 218.256357 
L 272.053977 218.25636 
L 275.097614 218.25636 
L 278.14125 218.25636 
L 281.184886 218.256363 
L 284.228523 218.256361 
L 287.272159 218.256362 
L 290.315795 218.25636 
L 293.359432 218.256363 
L 296.403068 218.256363 
L 299.446705 218.256363 
L 302.490341 218.256363 
L 305.533977 218.256363 
L 308.577614 218.256363 
L 311.62125 218.256363 
L 314.664886 218.256363 
L 317.708523 218.256364 
L 320.752159 218.256364 
L 323.795795 218.256364 
L 326.839432 218.256364 
L 329.883068 218.256364 
L 332.926705 218.256364 
L 335.970341 218.256364 
L 339.013977 218.256364 
L 342.057614 218.256364 
L 345.10125 218.256364 
L 348.144886 218.256364 
L 351.188523 218.256364 
L 354.232159 218.256364 
L 357.275795 218.256364 
L 360.319432 218.256364 
" style="fill:none;stroke:#1d6996;stroke-linecap:round;stroke-width:1.5;"/>
   </g>
   <g id="line2d_16">
    <path clip-path="url(#p24291b60ff)" d="M 58.999432 199.82879 
L 363.363068 199.82879 
" style="fill:none;stroke:#909090;stroke-linecap:round;stroke-width:1.5;"/>
   </g>
   <g id="patch_3">
    <path d="M 43.78125 228.14 
L 43.78125 10.7 
" style="fill:none;stroke:#262626;stroke-linecap:square;stroke-linejoin:miter;stroke-width:0.8;"/>
   </g>
   <g id="patch_4">
    <path d="M 43.78125 228.14 
L 378.58125 228.14 
" style="fill:none;stroke:#262626;stroke-linecap:square;stroke-linejoin:miter;stroke-width:0.8;"/>
   </g>
   <g id="text_15">
    <!-- p: 0.05 -->
    <defs>
     <path d="M 11.71875 12.40625 
L 22.015625 12.40625 
L 22.015625 0 
L 11.71875 0 
z
M 11.71875 51.703125 
L 22.015625 51.703125 
L 22.015625 39.3125 
L 11.71875 39.3125 
z
" id="DejaVuSans-58"/>
    </defs>
    <g style="fill:#909090;" transform="translate(311.62125 196.143275)scale(0.14 -0.14)">
     <use xlink:href="#DejaVuSans-112"/>
     <use x="63.476562" xlink:href="#DejaVuSans-58"/>
     <use x="97.167969" xlink:href="#DejaVuSans-32"/>
     <use x="128.955078" xlink:href="#DejaVuSans-48"/>
     <use x="192.578125" xlink:href="#DejaVuSans-46"/>
     <use x="224.365234" xlink:href="#DejaVuSans-48"/>
     <use x="287.988281" xlink:href="#DejaVuSans-53"/>
    </g>
   </g>
   <g id="text_16">
    <!-- $\mu = 0\;\; \sigma = 1$ -->
    <defs>
     <path d="M -1.3125 -20.796875 
L 13.375 54.6875 
L 22.40625 54.6875 
L 15.765625 20.65625 
Q 15.578125 19.625 15.421875 18.359375 
Q 15.28125 17.09375 15.28125 15.828125 
Q 15.28125 11.28125 18.140625 8.828125 
Q 21 6.390625 26.3125 6.390625 
Q 33.546875 6.390625 37.984375 10.484375 
Q 42.4375 14.59375 44 22.796875 
L 50.203125 54.6875 
L 59.1875 54.6875 
L 51.03125 12.640625 
Q 50.828125 11.71875 50.75 11.03125 
Q 50.6875 10.359375 50.6875 9.8125 
Q 50.6875 8.296875 51.296875 7.59375 
Q 51.90625 6.890625 53.21875 6.890625 
Q 53.71875 6.890625 54.5625 7.125 
Q 55.421875 7.375 56.984375 8.015625 
L 55.609375 0.78125 
Q 53.46875 -0.296875 51.515625 -0.859375 
Q 49.5625 -1.421875 47.703125 -1.421875 
Q 44.484375 -1.421875 42.65625 0.625 
Q 40.828125 2.6875 40.828125 6.296875 
Q 38.09375 2.390625 34.296875 0.484375 
Q 30.515625 -1.421875 25.390625 -1.421875 
Q 20.84375 -1.421875 17.453125 0.671875 
Q 14.0625 2.78125 12.984375 6.203125 
L 7.71875 -20.796875 
z
" id="DejaVuSans-Oblique-956"/>
     <path d="M 10.59375 45.40625 
L 73.1875 45.40625 
L 73.1875 37.203125 
L 10.59375 37.203125 
z
M 10.59375 25.484375 
L 73.1875 25.484375 
L 73.1875 17.1875 
L 10.59375 17.1875 
z
" id="DejaVuSans-61"/>
     <path d="M 34.671875 47.5625 
Q 27.25 47.5625 22.21875 42.1875 
Q 16.890625 36.578125 15.140625 27.296875 
Q 13.1875 17.484375 16.3125 11.8125 
Q 19.390625 6.203125 26.65625 6.203125 
Q 33.84375 6.203125 39.109375 11.859375 
Q 44.4375 17.53125 46.34375 27.296875 
Q 48.046875 36.234375 45.015625 42.1875 
Q 42.1875 47.5625 34.671875 47.5625 
z
M 36.078125 54.734375 
L 65.921875 54.6875 
L 64.15625 45.703125 
L 54.109375 45.703125 
Q 57.90625 38.09375 55.859375 27.296875 
Q 53.21875 13.875 45.0625 6.25 
Q 36.859375 -1.421875 25.140625 -1.421875 
Q 13.375 -1.421875 8.203125 6.25 
Q 3.03125 13.875 5.671875 27.296875 
Q 8.25 40.765625 16.40625 48.390625 
Q 23.1875 54.734375 36.078125 54.734375 
z
" id="DejaVuSans-Oblique-963"/>
    </defs>
    <g style="fill:#909090;" transform="translate(290.315795 70.835774)scale(0.14 -0.14)">
     <use transform="translate(0 0.78125)" xlink:href="#DejaVuSans-Oblique-956"/>
     <use transform="translate(83.105469 0.78125)" xlink:href="#DejaVuSans-61"/>
     <use transform="translate(186.376953 0.78125)" xlink:href="#DejaVuSans-48"/>
     <use transform="translate(304.118271 0.78125)" xlink:href="#DejaVuSans-Oblique-963"/>
     <use transform="translate(386.9796 0.78125)" xlink:href="#DejaVuSans-61"/>
     <use transform="translate(490.251084 0.78125)" xlink:href="#DejaVuSans-49"/>
    </g>
   </g>
   <g id="text_17">
    <!-- $\mu = 0.5\;\; \sigma = 1$ -->
    <g style="fill:#cc503e;" transform="translate(290.315795 85.577833)scale(0.14 -0.14)">
     <use transform="translate(0 0.78125)" xlink:href="#DejaVuSans-Oblique-956"/>
     <use transform="translate(83.105469 0.78125)" xlink:href="#DejaVuSans-61"/>
     <use transform="translate(186.376953 0.78125)" xlink:href="#DejaVuSans-48"/>
     <use transform="translate(250 0.78125)" xlink:href="#DejaVuSans-46"/>
     <use transform="translate(281.787109 0.78125)" xlink:href="#DejaVuSans-53"/>
     <use transform="translate(399.528428 0.78125)" xlink:href="#DejaVuSans-Oblique-963"/>
     <use transform="translate(482.389756 0.78125)" xlink:href="#DejaVuSans-61"/>
     <use transform="translate(585.66124 0.78125)" xlink:href="#DejaVuSans-49"/>
    </g>
   </g>
   <g id="text_18">
    <!-- $\mu = 1\;\; \sigma = 1$ -->
    <g style="fill:#1d6996;" transform="translate(290.315795 100.319892)scale(0.14 -0.14)">
     <use transform="translate(0 0.09375)" xlink:href="#DejaVuSans-Oblique-956"/>
     <use transform="translate(83.105469 0.09375)" xlink:href="#DejaVuSans-61"/>
     <use transform="translate(186.376953 0.09375)" xlink:href="#DejaVuSans-49"/>
     <use transform="translate(304.118271 0.09375)" xlink:href="#DejaVuSans-Oblique-963"/>
     <use transform="translate(386.9796 0.09375)" xlink:href="#DejaVuSans-61"/>
     <use transform="translate(490.251084 0.09375)" xlink:href="#DejaVuSans-49"/>
    </g>
   </g>
   <g id="text_19">
    <!-- $H_1: \mu &gt; 0$ -->
    <defs>
     <path d="M 16.890625 72.90625 
L 26.8125 72.90625 
L 21 43.015625 
L 56.78125 43.015625 
L 62.59375 72.90625 
L 72.515625 72.90625 
L 58.296875 0 
L 48.390625 0 
L 55.171875 34.71875 
L 19.390625 34.71875 
L 12.59375 0 
L 2.6875 0 
z
" id="DejaVuSans-Oblique-72"/>
     <path d="M 10.59375 49.21875 
L 10.59375 58.109375 
L 73.1875 35.40625 
L 73.1875 27.296875 
L 10.59375 4.59375 
L 10.59375 13.484375 
L 60.890625 31.296875 
z
" id="DejaVuSans-62"/>
    </defs>
    <g style="fill:#909090;" transform="translate(290.315795 144.546069)scale(0.14 -0.14)">
     <use transform="translate(0 0.78125)" xlink:href="#DejaVuSans-Oblique-72"/>
     <use transform="translate(75.195312 -15.625)scale(0.7)" xlink:href="#DejaVuSans-49"/>
     <use transform="translate(141.948242 0.78125)" xlink:href="#DejaVuSans-58"/>
     <use transform="translate(195.12207 0.78125)" xlink:href="#DejaVuSans-Oblique-956"/>
     <use transform="translate(278.227539 0.78125)" xlink:href="#DejaVuSans-62"/>
     <use transform="translate(381.499023 0.78125)" xlink:href="#DejaVuSans-48"/>
    </g>
   </g>
  </g>
 </g>
 <defs>
  <clipPath id="p24291b60ff">
   <rect height="217.44" width="334.8" x="43.78125" y="10.7"/>
  </clipPath>
 </defs>
</svg>
