<?xml version="1.0" encoding="utf-8" standalone="no"?>
<!DOCTYPE svg PUBLIC "-//W3C//DTD SVG 1.1//EN"
  "http://www.w3.org/Graphics/SVG/1.1/DTD/svg11.dtd">
<!-- Created with matplotlib (https://matplotlib.org/) -->
<svg height="197.658125pt" version="1.1" viewBox="0 0 187.34807 197.658125" width="187.34807pt" xmlns="http://www.w3.org/2000/svg" xmlns:xlink="http://www.w3.org/1999/xlink">
 <defs>
  <style type="text/css">
*{stroke-linecap:butt;stroke-linejoin:round;}
  </style>
 </defs>
 <g id="figure_1">
  <g id="patch_1">
   <path d="M 0 197.658125 
L 187.34807 197.658125 
L 187.34807 0 
L 0 0 
z
" style="fill:none;"/>
  </g>
  <g id="axes_1">
   <g id="patch_2">
    <path d="M 28.942188 173.78 
L 176.64807 173.78 
L 176.64807 10.7 
L 28.942188 10.7 
z
" style="fill:none;"/>
   </g>
   <g id="matplotlib.axis_1">
    <g id="xtick_1">
     <g id="line2d_1">
      <defs>
       <path d="M 0 0 
L 0 3.5 
" id="m56e5ad826b" style="stroke:#262626;stroke-width:0.8;"/>
      </defs>
      <g>
       <use style="fill:#262626;stroke:#262626;stroke-width:0.8;" x="72.310565" xlink:href="#m56e5ad826b" y="173.78"/>
      </g>
     </g>
     <g id="text_1">
      <!-- 0.0 -->
      <defs>
       <path d="M 31.78125 66.40625 
Q 24.171875 66.40625 20.328125 58.90625 
Q 16.5 51.421875 16.5 36.375 
Q 16.5 21.390625 20.328125 13.890625 
Q 24.171875 6.390625 31.78125 6.390625 
Q 39.453125 6.390625 43.28125 13.890625 
Q 47.125 21.390625 47.125 36.375 
Q 47.125 51.421875 43.28125 58.90625 
Q 39.453125 66.40625 31.78125 66.40625 
z
M 31.78125 74.21875 
Q 44.046875 74.21875 50.515625 64.515625 
Q 56.984375 54.828125 56.984375 36.375 
Q 56.984375 17.96875 50.515625 8.265625 
Q 44.046875 -1.421875 31.78125 -1.421875 
Q 19.53125 -1.421875 13.0625 8.265625 
Q 6.59375 17.96875 6.59375 36.375 
Q 6.59375 54.828125 13.0625 64.515625 
Q 19.53125 74.21875 31.78125 74.21875 
z
" id="DejaVuSans-48"/>
       <path d="M 10.6875 12.40625 
L 21 12.40625 
L 21 0 
L 10.6875 0 
z
" id="DejaVuSans-46"/>
      </defs>
      <g style="fill:#262626;" transform="translate(64.359002 188.378438)scale(0.1 -0.1)">
       <use xlink:href="#DejaVuSans-48"/>
       <use x="63.623047" xlink:href="#DejaVuSans-46"/>
       <use x="95.410156" xlink:href="#DejaVuSans-48"/>
      </g>
     </g>
    </g>
    <g id="xtick_2">
     <g id="line2d_2">
      <g>
       <use style="fill:#262626;stroke:#262626;stroke-width:0.8;" x="116.970954" xlink:href="#m56e5ad826b" y="173.78"/>
      </g>
     </g>
     <g id="text_2">
      <!-- 2.5 -->
      <defs>
       <path d="M 19.1875 8.296875 
L 53.609375 8.296875 
L 53.609375 0 
L 7.328125 0 
L 7.328125 8.296875 
Q 12.9375 14.109375 22.625 23.890625 
Q 32.328125 33.6875 34.8125 36.53125 
Q 39.546875 41.84375 41.421875 45.53125 
Q 43.3125 49.21875 43.3125 52.78125 
Q 43.3125 58.59375 39.234375 62.25 
Q 35.15625 65.921875 28.609375 65.921875 
Q 23.96875 65.921875 18.8125 64.3125 
Q 13.671875 62.703125 7.8125 59.421875 
L 7.8125 69.390625 
Q 13.765625 71.78125 18.9375 73 
Q 24.125 74.21875 28.421875 74.21875 
Q 39.75 74.21875 46.484375 68.546875 
Q 53.21875 62.890625 53.21875 53.421875 
Q 53.21875 48.921875 51.53125 44.890625 
Q 49.859375 40.875 45.40625 35.40625 
Q 44.1875 33.984375 37.640625 27.21875 
Q 31.109375 20.453125 19.1875 8.296875 
z
" id="DejaVuSans-50"/>
       <path d="M 10.796875 72.90625 
L 49.515625 72.90625 
L 49.515625 64.59375 
L 19.828125 64.59375 
L 19.828125 46.734375 
Q 21.96875 47.46875 24.109375 47.828125 
Q 26.265625 48.1875 28.421875 48.1875 
Q 40.625 48.1875 47.75 41.5 
Q 54.890625 34.8125 54.890625 23.390625 
Q 54.890625 11.625 47.5625 5.09375 
Q 40.234375 -1.421875 26.90625 -1.421875 
Q 22.3125 -1.421875 17.546875 -0.640625 
Q 12.796875 0.140625 7.71875 1.703125 
L 7.71875 11.625 
Q 12.109375 9.234375 16.796875 8.0625 
Q 21.484375 6.890625 26.703125 6.890625 
Q 35.15625 6.890625 40.078125 11.328125 
Q 45.015625 15.765625 45.015625 23.390625 
Q 45.015625 31 40.078125 35.4375 
Q 35.15625 39.890625 26.703125 39.890625 
Q 22.75 39.890625 18.8125 39.015625 
Q 14.890625 38.140625 10.796875 36.28125 
z
" id="DejaVuSans-53"/>
      </defs>
      <g style="fill:#262626;" transform="translate(109.019391 188.378438)scale(0.1 -0.1)">
       <use xlink:href="#DejaVuSans-50"/>
       <use x="63.623047" xlink:href="#DejaVuSans-46"/>
       <use x="95.410156" xlink:href="#DejaVuSans-53"/>
      </g>
     </g>
    </g>
    <g id="xtick_3">
     <g id="line2d_3">
      <g>
       <use style="fill:#262626;stroke:#262626;stroke-width:0.8;" x="161.631343" xlink:href="#m56e5ad826b" y="173.78"/>
      </g>
     </g>
     <g id="text_3">
      <!-- 5.0 -->
      <g style="fill:#262626;" transform="translate(153.679781 188.378438)scale(0.1 -0.1)">
       <use xlink:href="#DejaVuSans-53"/>
       <use x="63.623047" xlink:href="#DejaVuSans-46"/>
       <use x="95.410156" xlink:href="#DejaVuSans-48"/>
      </g>
     </g>
    </g>
   </g>
   <g id="matplotlib.axis_2">
    <g id="ytick_1">
     <g id="line2d_4">
      <defs>
       <path d="M 0 0 
L -3.5 0 
" id="m2dc428013c" style="stroke:#262626;stroke-width:0.8;"/>
      </defs>
      <g>
       <use style="fill:#262626;stroke:#262626;stroke-width:0.8;" x="28.942188" xlink:href="#m2dc428013c" y="169.732655"/>
      </g>
     </g>
     <g id="text_4">
      <!-- −2 -->
      <defs>
       <path d="M 10.59375 35.5 
L 73.1875 35.5 
L 73.1875 27.203125 
L 10.59375 27.203125 
z
" id="DejaVuSans-8722"/>
      </defs>
      <g style="fill:#262626;" transform="translate(7.2 173.531874)scale(0.1 -0.1)">
       <use xlink:href="#DejaVuSans-8722"/>
       <use x="83.789062" xlink:href="#DejaVuSans-50"/>
      </g>
     </g>
    </g>
    <g id="ytick_2">
     <g id="line2d_5">
      <g>
       <use style="fill:#262626;stroke:#262626;stroke-width:0.8;" x="28.942188" xlink:href="#m2dc428013c" y="147.686271"/>
      </g>
     </g>
     <g id="text_5">
      <!-- −1 -->
      <defs>
       <path d="M 12.40625 8.296875 
L 28.515625 8.296875 
L 28.515625 63.921875 
L 10.984375 60.40625 
L 10.984375 69.390625 
L 28.421875 72.90625 
L 38.28125 72.90625 
L 38.28125 8.296875 
L 54.390625 8.296875 
L 54.390625 0 
L 12.40625 0 
z
" id="DejaVuSans-49"/>
      </defs>
      <g style="fill:#262626;" transform="translate(7.2 151.48549)scale(0.1 -0.1)">
       <use xlink:href="#DejaVuSans-8722"/>
       <use x="83.789062" xlink:href="#DejaVuSans-49"/>
      </g>
     </g>
    </g>
    <g id="ytick_3">
     <g id="line2d_6">
      <g>
       <use style="fill:#262626;stroke:#262626;stroke-width:0.8;" x="28.942188" xlink:href="#m2dc428013c" y="125.639887"/>
      </g>
     </g>
     <g id="text_6">
      <!-- 0 -->
      <g style="fill:#262626;" transform="translate(15.579688 129.439106)scale(0.1 -0.1)">
       <use xlink:href="#DejaVuSans-48"/>
      </g>
     </g>
    </g>
    <g id="ytick_4">
     <g id="line2d_7">
      <g>
       <use style="fill:#262626;stroke:#262626;stroke-width:0.8;" x="28.942188" xlink:href="#m2dc428013c" y="103.593504"/>
      </g>
     </g>
     <g id="text_7">
      <!-- 1 -->
      <g style="fill:#262626;" transform="translate(15.579688 107.392722)scale(0.1 -0.1)">
       <use xlink:href="#DejaVuSans-49"/>
      </g>
     </g>
    </g>
    <g id="ytick_5">
     <g id="line2d_8">
      <g>
       <use style="fill:#262626;stroke:#262626;stroke-width:0.8;" x="28.942188" xlink:href="#m2dc428013c" y="81.54712"/>
      </g>
     </g>
     <g id="text_8">
      <!-- 2 -->
      <g style="fill:#262626;" transform="translate(15.579688 85.346339)scale(0.1 -0.1)">
       <use xlink:href="#DejaVuSans-50"/>
      </g>
     </g>
    </g>
    <g id="ytick_6">
     <g id="line2d_9">
      <g>
       <use style="fill:#262626;stroke:#262626;stroke-width:0.8;" x="28.942188" xlink:href="#m2dc428013c" y="59.500736"/>
      </g>
     </g>
     <g id="text_9">
      <!-- 3 -->
      <defs>
       <path d="M 40.578125 39.3125 
Q 47.65625 37.796875 51.625 33 
Q 55.609375 28.21875 55.609375 21.1875 
Q 55.609375 10.40625 48.1875 4.484375 
Q 40.765625 -1.421875 27.09375 -1.421875 
Q 22.515625 -1.421875 17.65625 -0.515625 
Q 12.796875 0.390625 7.625 2.203125 
L 7.625 11.71875 
Q 11.71875 9.328125 16.59375 8.109375 
Q 21.484375 6.890625 26.8125 6.890625 
Q 36.078125 6.890625 40.9375 10.546875 
Q 45.796875 14.203125 45.796875 21.1875 
Q 45.796875 27.640625 41.28125 31.265625 
Q 36.765625 34.90625 28.71875 34.90625 
L 20.21875 34.90625 
L 20.21875 43.015625 
L 29.109375 43.015625 
Q 36.375 43.015625 40.234375 45.921875 
Q 44.09375 48.828125 44.09375 54.296875 
Q 44.09375 59.90625 40.109375 62.90625 
Q 36.140625 65.921875 28.71875 65.921875 
Q 24.65625 65.921875 20.015625 65.03125 
Q 15.375 64.15625 9.8125 62.3125 
L 9.8125 71.09375 
Q 15.4375 72.65625 20.34375 73.4375 
Q 25.25 74.21875 29.59375 74.21875 
Q 40.828125 74.21875 47.359375 69.109375 
Q 53.90625 64.015625 53.90625 55.328125 
Q 53.90625 49.265625 50.4375 45.09375 
Q 46.96875 40.921875 40.578125 39.3125 
z
" id="DejaVuSans-51"/>
      </defs>
      <g style="fill:#262626;" transform="translate(15.579688 63.299955)scale(0.1 -0.1)">
       <use xlink:href="#DejaVuSans-51"/>
      </g>
     </g>
    </g>
    <g id="ytick_7">
     <g id="line2d_10">
      <g>
       <use style="fill:#262626;stroke:#262626;stroke-width:0.8;" x="28.942188" xlink:href="#m2dc428013c" y="37.454352"/>
      </g>
     </g>
     <g id="text_10">
      <!-- 4 -->
      <defs>
       <path d="M 37.796875 64.3125 
L 12.890625 25.390625 
L 37.796875 25.390625 
z
M 35.203125 72.90625 
L 47.609375 72.90625 
L 47.609375 25.390625 
L 58.015625 25.390625 
L 58.015625 17.1875 
L 47.609375 17.1875 
L 47.609375 0 
L 37.796875 0 
L 37.796875 17.1875 
L 4.890625 17.1875 
L 4.890625 26.703125 
z
" id="DejaVuSans-52"/>
      </defs>
      <g style="fill:#262626;" transform="translate(15.579688 41.253571)scale(0.1 -0.1)">
       <use xlink:href="#DejaVuSans-52"/>
      </g>
     </g>
    </g>
    <g id="ytick_8">
     <g id="line2d_11">
      <g>
       <use style="fill:#262626;stroke:#262626;stroke-width:0.8;" x="28.942188" xlink:href="#m2dc428013c" y="15.407968"/>
      </g>
     </g>
     <g id="text_11">
      <!-- 5 -->
      <g style="fill:#262626;" transform="translate(15.579688 19.207187)scale(0.1 -0.1)">
       <use xlink:href="#DejaVuSans-53"/>
      </g>
     </g>
    </g>
   </g>
   <g id="PathCollection_1">
    <defs>
     <path d="M 0 3 
C 0.795609 3 1.55874 2.683901 2.12132 2.12132 
C 2.683901 1.55874 3 0.795609 3 0 
C 3 -0.795609 2.683901 -1.55874 2.12132 -2.12132 
C 1.55874 -2.683901 0.795609 -3 0 -3 
C -0.795609 -3 -1.55874 -2.683901 -2.12132 -2.12132 
C -2.683901 -1.55874 -3 -0.795609 -3 0 
C -3 0.795609 -2.683901 1.55874 -2.12132 2.12132 
C -1.55874 2.683901 -0.795609 3 0 3 
z
" id="mb6e1565582" style="stroke:#ffffff;stroke-width:0.75;"/>
    </defs>
    <g clip-path="url(#p6738c59e67)">
     <use style="fill:#1d6996;stroke:#ffffff;stroke-width:0.75;" x="72.385893" xlink:href="#mb6e1565582" y="82.229583"/>
     <use style="fill:#1d6996;stroke:#ffffff;stroke-width:0.75;" x="81.454827" xlink:href="#mb6e1565582" y="64.060683"/>
     <use style="fill:#1d6996;stroke:#ffffff;stroke-width:0.75;" x="70.924097" xlink:href="#mb6e1565582" y="166.322661"/>
     <use style="fill:#1d6996;stroke:#ffffff;stroke-width:0.75;" x="81.216544" xlink:href="#mb6e1565582" y="130.759094"/>
     <use style="fill:#1d6996;stroke:#ffffff;stroke-width:0.75;" x="46.806451" xlink:href="#mb6e1565582" y="145.047049"/>
     <use style="fill:#1d6996;stroke:#ffffff;stroke-width:0.75;" x="40.583745" xlink:href="#mb6e1565582" y="80.256803"/>
     <use style="fill:#1d6996;stroke:#ffffff;stroke-width:0.75;" x="44.098555" xlink:href="#mb6e1565582" y="83.440888"/>
     <use style="fill:#1d6996;stroke:#ffffff;stroke-width:0.75;" x="66.073328" xlink:href="#mb6e1565582" y="123.299846"/>
     <use style="fill:#1d6996;stroke:#ffffff;stroke-width:0.75;" x="78.225401" xlink:href="#mb6e1565582" y="103.331023"/>
     <use style="fill:#1d6996;stroke:#ffffff;stroke-width:0.75;" x="41.641104" xlink:href="#mb6e1565582" y="121.926572"/>
     <use style="fill:#1d6996;stroke:#ffffff;stroke-width:0.75;" x="35.696003" xlink:href="#mb6e1565582" y="116.607631"/>
     <use style="fill:#1d6996;stroke:#ffffff;stroke-width:0.75;" x="61.341023" xlink:href="#mb6e1565582" y="132.137155"/>
     <use style="fill:#1d6996;stroke:#ffffff;stroke-width:0.75;" x="94.491633" xlink:href="#mb6e1565582" y="165.776302"/>
     <use style="fill:#1d6996;stroke:#ffffff;stroke-width:0.75;" x="71.176127" xlink:href="#mb6e1565582" y="115.045113"/>
     <use style="fill:#1d6996;stroke:#ffffff;stroke-width:0.75;" x="75.969726" xlink:href="#mb6e1565582" y="81.916582"/>
     <use style="fill:#1d6996;stroke:#ffffff;stroke-width:0.75;" x="81.725677" xlink:href="#mb6e1565582" y="149.507713"/>
     <use style="fill:#1d6996;stroke:#ffffff;stroke-width:0.75;" x="64.719715" xlink:href="#mb6e1565582" y="129.529794"/>
     <use style="fill:#1d6996;stroke:#ffffff;stroke-width:0.75;" x="90.295889" xlink:href="#mb6e1565582" y="107.371927"/>
     <use style="fill:#1d6996;stroke:#ffffff;stroke-width:0.75;" x="78.234162" xlink:href="#mb6e1565582" y="115.364274"/>
     <use style="fill:#1d6996;stroke:#ffffff;stroke-width:0.75;" x="78.480411" xlink:href="#mb6e1565582" y="116.624323"/>
    </g>
   </g>
   <g id="PathCollection_2">
    <defs>
     <path d="M 0 3 
C 0.795609 3 1.55874 2.683901 2.12132 2.12132 
C 2.683901 1.55874 3 0.795609 3 0 
C 3 -0.795609 2.683901 -1.55874 2.12132 -2.12132 
C 1.55874 -2.683901 0.795609 -3 0 -3 
C -0.795609 -3 -1.55874 -2.683901 -2.12132 -2.12132 
C -2.683901 -1.55874 -3 -0.795609 -3 0 
C -3 0.795609 -2.683901 1.55874 -2.12132 2.12132 
C -1.55874 2.683901 -0.795609 3 0 3 
z
" id="m945018a5f4" style="stroke:#ffffff;stroke-width:0.75;"/>
    </defs>
    <g clip-path="url(#p6738c59e67)">
     <use style="fill:#cc503e;stroke:#ffffff;stroke-width:0.75;" x="91.240263" xlink:href="#m945018a5f4" y="100.118709"/>
     <use style="fill:#cc503e;stroke:#ffffff;stroke-width:0.75;" x="102.320663" xlink:href="#m945018a5f4" y="109.468233"/>
     <use style="fill:#cc503e;stroke:#ffffff;stroke-width:0.75;" x="89.843056" xlink:href="#m945018a5f4" y="60.396904"/>
     <use style="fill:#cc503e;stroke:#ffffff;stroke-width:0.75;" x="78.033541" xlink:href="#m945018a5f4" y="109.944719"/>
     <use style="fill:#cc503e;stroke:#ffffff;stroke-width:0.75;" x="110.981577" xlink:href="#m945018a5f4" y="66.033735"/>
     <use style="fill:#cc503e;stroke:#ffffff;stroke-width:0.75;" x="74.260689" xlink:href="#m945018a5f4" y="20.183852"/>
     <use style="fill:#cc503e;stroke:#ffffff;stroke-width:0.75;" x="84.13239" xlink:href="#m945018a5f4" y="121.400375"/>
     <use style="fill:#cc503e;stroke:#ffffff;stroke-width:0.75;" x="77.013919" xlink:href="#m945018a5f4" y="108.614698"/>
     <use style="fill:#cc503e;stroke:#ffffff;stroke-width:0.75;" x="118.86112" xlink:href="#m945018a5f4" y="116.954865"/>
     <use style="fill:#cc503e;stroke:#ffffff;stroke-width:0.75;" x="73.021641" xlink:href="#m945018a5f4" y="122.908743"/>
     <use style="fill:#cc503e;stroke:#ffffff;stroke-width:0.75;" x="76.605458" xlink:href="#m945018a5f4" y="74.695036"/>
     <use style="fill:#cc503e;stroke:#ffffff;stroke-width:0.75;" x="74.981245" xlink:href="#m945018a5f4" y="86.234434"/>
     <use style="fill:#cc503e;stroke:#ffffff;stroke-width:0.75;" x="83.126369" xlink:href="#m945018a5f4" y="124.917286"/>
     <use style="fill:#cc503e;stroke:#ffffff;stroke-width:0.75;" x="81.013253" xlink:href="#m945018a5f4" y="125.631898"/>
     <use style="fill:#cc503e;stroke:#ffffff;stroke-width:0.75;" x="103.781561" xlink:href="#m945018a5f4" y="124.411295"/>
     <use style="fill:#cc503e;stroke:#ffffff;stroke-width:0.75;" x="168.618789" xlink:href="#m945018a5f4" y="123.254615"/>
     <use style="fill:#cc503e;stroke:#ffffff;stroke-width:0.75;" x="73.031075" xlink:href="#m945018a5f4" y="124.810382"/>
     <use style="fill:#cc503e;stroke:#ffffff;stroke-width:0.75;" x="87.991221" xlink:href="#m945018a5f4" y="89.439554"/>
     <use style="fill:#cc503e;stroke:#ffffff;stroke-width:0.75;" x="73.855989" xlink:href="#m945018a5f4" y="110.907364"/>
     <use style="fill:#cc503e;stroke:#ffffff;stroke-width:0.75;" x="105.650281" xlink:href="#m945018a5f4" y="102.003512"/>
    </g>
   </g>
   <g id="patch_3">
    <path d="M 28.942188 173.78 
L 28.942188 10.7 
" style="fill:none;stroke:#262626;stroke-linecap:square;stroke-linejoin:miter;stroke-width:0.8;"/>
   </g>
   <g id="patch_4">
    <path d="M 28.942188 173.78 
L 176.64807 173.78 
" style="fill:none;stroke:#262626;stroke-linecap:square;stroke-linejoin:miter;stroke-width:0.8;"/>
   </g>
  </g>
 </g>
 <defs>
  <clipPath id="p6738c59e67">
   <rect height="163.08" width="147.705882" x="28.942188" y="10.7"/>
  </clipPath>
 </defs>
</svg>
