<?xml version="1.0" encoding="utf-8" standalone="no"?>
<!DOCTYPE svg PUBLIC "-//W3C//DTD SVG 1.1//EN"
  "http://www.w3.org/Graphics/SVG/1.1/DTD/svg11.dtd">
<!-- Created with matplotlib (https://matplotlib.org/) -->
<svg height="424.478125pt" version="1.1" viewBox="0 0 1000.796094 424.478125" width="1000.796094pt" xmlns="http://www.w3.org/2000/svg" xmlns:xlink="http://www.w3.org/1999/xlink">
 <defs>
  <style type="text/css">
*{stroke-linecap:butt;stroke-linejoin:round;}
  </style>
 </defs>
 <g id="figure_1">
  <g id="patch_1">
   <path d="M 0 424.478125 
L 1000.796094 424.478125 
L 1000.796094 0 
L 0 0 
z
" style="fill:none;"/>
  </g>
  <g id="axes_1">
   <g id="patch_2">
    <path d="M 14.571094 84.7 
L 990.096094 84.7 
L 990.096094 10.7 
L 14.571094 10.7 
z
" style="fill:none;"/>
   </g>
   <g id="matplotlib.axis_1">
    <g id="xtick_1">
     <g id="text_1">
      <!-- −2 -->
      <defs>
       <path d="M 10.59375 35.5 
L 73.1875 35.5 
L 73.1875 27.203125 
L 10.59375 27.203125 
z
" id="DejaVuSans-8722"/>
       <path d="M 19.1875 8.296875 
L 53.609375 8.296875 
L 53.609375 0 
L 7.328125 0 
L 7.328125 8.296875 
Q 12.9375 14.109375 22.625 23.890625 
Q 32.328125 33.6875 34.8125 36.53125 
Q 39.546875 41.84375 41.421875 45.53125 
Q 43.3125 49.21875 43.3125 52.78125 
Q 43.3125 58.59375 39.234375 62.25 
Q 35.15625 65.921875 28.609375 65.921875 
Q 23.96875 65.921875 18.8125 64.3125 
Q 13.671875 62.703125 7.8125 59.421875 
L 7.8125 69.390625 
Q 13.765625 71.78125 18.9375 73 
Q 24.125 74.21875 28.421875 74.21875 
Q 39.75 74.21875 46.484375 68.546875 
Q 53.21875 62.890625 53.21875 53.421875 
Q 53.21875 48.921875 51.53125 44.890625 
Q 49.859375 40.875 45.40625 35.40625 
Q 44.1875 33.984375 37.640625 27.21875 
Q 31.109375 20.453125 19.1875 8.296875 
z
" id="DejaVuSans-50"/>
      </defs>
      <g style="fill:#262626;" transform="translate(7.2 99.298437)scale(0.1 -0.1)">
       <use xlink:href="#DejaVuSans-8722"/>
       <use x="83.789062" xlink:href="#DejaVuSans-50"/>
      </g>
     </g>
    </g>
    <g id="xtick_2">
     <g id="text_2">
      <!-- 0 -->
      <defs>
       <path d="M 31.78125 66.40625 
Q 24.171875 66.40625 20.328125 58.90625 
Q 16.5 51.421875 16.5 36.375 
Q 16.5 21.390625 20.328125 13.890625 
Q 24.171875 6.390625 31.78125 6.390625 
Q 39.453125 6.390625 43.28125 13.890625 
Q 47.125 21.390625 47.125 36.375 
Q 47.125 51.421875 43.28125 58.90625 
Q 39.453125 66.40625 31.78125 66.40625 
z
M 31.78125 74.21875 
Q 44.046875 74.21875 50.515625 64.515625 
Q 56.984375 54.828125 56.984375 36.375 
Q 56.984375 17.96875 50.515625 8.265625 
Q 44.046875 -1.421875 31.78125 -1.421875 
Q 19.53125 -1.421875 13.0625 8.265625 
Q 6.59375 17.96875 6.59375 36.375 
Q 6.59375 54.828125 13.0625 64.515625 
Q 19.53125 74.21875 31.78125 74.21875 
z
" id="DejaVuSans-48"/>
      </defs>
      <g style="fill:#262626;" transform="translate(221.180166 99.298437)scale(0.1 -0.1)">
       <use xlink:href="#DejaVuSans-48"/>
      </g>
     </g>
    </g>
    <g id="xtick_3">
     <g id="text_3">
      <!-- 2 -->
      <g style="fill:#262626;" transform="translate(430.970489 99.298437)scale(0.1 -0.1)">
       <use xlink:href="#DejaVuSans-50"/>
      </g>
     </g>
    </g>
    <g id="xtick_4">
     <g id="text_4">
      <!-- 4 -->
      <defs>
       <path d="M 37.796875 64.3125 
L 12.890625 25.390625 
L 37.796875 25.390625 
z
M 35.203125 72.90625 
L 47.609375 72.90625 
L 47.609375 25.390625 
L 58.015625 25.390625 
L 58.015625 17.1875 
L 47.609375 17.1875 
L 47.609375 0 
L 37.796875 0 
L 37.796875 17.1875 
L 4.890625 17.1875 
L 4.890625 26.703125 
z
" id="DejaVuSans-52"/>
      </defs>
      <g style="fill:#262626;" transform="translate(640.760811 99.298437)scale(0.1 -0.1)">
       <use xlink:href="#DejaVuSans-52"/>
      </g>
     </g>
    </g>
    <g id="xtick_5">
     <g id="text_5">
      <!-- 6 -->
      <defs>
       <path d="M 33.015625 40.375 
Q 26.375 40.375 22.484375 35.828125 
Q 18.609375 31.296875 18.609375 23.390625 
Q 18.609375 15.53125 22.484375 10.953125 
Q 26.375 6.390625 33.015625 6.390625 
Q 39.65625 6.390625 43.53125 10.953125 
Q 47.40625 15.53125 47.40625 23.390625 
Q 47.40625 31.296875 43.53125 35.828125 
Q 39.65625 40.375 33.015625 40.375 
z
M 52.59375 71.296875 
L 52.59375 62.3125 
Q 48.875 64.0625 45.09375 64.984375 
Q 41.3125 65.921875 37.59375 65.921875 
Q 27.828125 65.921875 22.671875 59.328125 
Q 17.53125 52.734375 16.796875 39.40625 
Q 19.671875 43.65625 24.015625 45.921875 
Q 28.375 48.1875 33.59375 48.1875 
Q 44.578125 48.1875 50.953125 41.515625 
Q 57.328125 34.859375 57.328125 23.390625 
Q 57.328125 12.15625 50.6875 5.359375 
Q 44.046875 -1.421875 33.015625 -1.421875 
Q 20.359375 -1.421875 13.671875 8.265625 
Q 6.984375 17.96875 6.984375 36.375 
Q 6.984375 53.65625 15.1875 63.9375 
Q 23.390625 74.21875 37.203125 74.21875 
Q 40.921875 74.21875 44.703125 73.484375 
Q 48.484375 72.75 52.59375 71.296875 
z
" id="DejaVuSans-54"/>
      </defs>
      <g style="fill:#262626;" transform="translate(850.551134 99.298437)scale(0.1 -0.1)">
       <use xlink:href="#DejaVuSans-54"/>
      </g>
     </g>
    </g>
   </g>
   <g id="matplotlib.axis_2">
    <g id="ytick_1"/>
    <g id="ytick_2"/>
    <g id="ytick_3"/>
   </g>
   <g id="PathCollection_1">
    <defs>
     <path d="M 0 3 
C 0.795609 3 1.55874 2.683901 2.12132 2.12132 
C 2.683901 1.55874 3 0.795609 3 0 
C 3 -0.795609 2.683901 -1.55874 2.12132 -2.12132 
C 1.55874 -2.683901 0.795609 -3 0 -3 
C -0.795609 -3 -1.55874 -2.683901 -2.12132 -2.12132 
C -2.683901 -1.55874 -3 -0.795609 -3 0 
C -3 0.795609 -2.683901 1.55874 -2.12132 2.12132 
C -1.55874 2.683901 -0.795609 3 0 3 
z
" id="m83a937ca8b" style="stroke:#ffffff;stroke-width:0.75;"/>
    </defs>
    <g clip-path="url(#p7779abe919)">
     <use style="fill:#1d6996;stroke:#ffffff;stroke-width:0.75;" x="299.39072" xlink:href="#m83a937ca8b" y="47.7"/>
     <use style="fill:#1d6996;stroke:#ffffff;stroke-width:0.75;" x="62.256403" xlink:href="#m83a937ca8b" y="47.7"/>
     <use style="fill:#1d6996;stroke:#ffffff;stroke-width:0.75;" x="223.481991" xlink:href="#m83a937ca8b" y="47.7"/>
     <use style="fill:#1d6996;stroke:#ffffff;stroke-width:0.75;" x="289.536554" xlink:href="#m83a937ca8b" y="47.7"/>
     <use style="fill:#1d6996;stroke:#ffffff;stroke-width:0.75;" x="148.827925" xlink:href="#m83a937ca8b" y="47.7"/>
     <use style="fill:#1d6996;stroke:#ffffff;stroke-width:0.75;" x="252.212297" xlink:href="#m83a937ca8b" y="47.7"/>
     <use style="fill:#1d6996;stroke:#ffffff;stroke-width:0.75;" x="235.747631" xlink:href="#m83a937ca8b" y="47.7"/>
     <use style="fill:#1d6996;stroke:#ffffff;stroke-width:0.75;" x="224.811567" xlink:href="#m83a937ca8b" y="47.7"/>
     <use style="fill:#1d6996;stroke:#ffffff;stroke-width:0.75;" x="206.046699" xlink:href="#m83a937ca8b" y="47.7"/>
     <use style="fill:#1d6996;stroke:#ffffff;stroke-width:0.75;" x="269.783768" xlink:href="#m83a937ca8b" y="47.7"/>
     <use style="fill:#1d6996;stroke:#ffffff;stroke-width:0.75;" x="350.554216" xlink:href="#m83a937ca8b" y="47.7"/>
     <use style="fill:#1d6996;stroke:#ffffff;stroke-width:0.75;" x="123.130697" xlink:href="#m83a937ca8b" y="47.7"/>
     <use style="fill:#1d6996;stroke:#ffffff;stroke-width:0.75;" x="332.222392" xlink:href="#m83a937ca8b" y="47.7"/>
     <use style="fill:#1d6996;stroke:#ffffff;stroke-width:0.75;" x="248.343611" xlink:href="#m83a937ca8b" y="47.7"/>
    </g>
   </g>
   <g id="PathCollection_2">
    <defs>
     <path d="M 0 3 
C 0.795609 3 1.55874 2.683901 2.12132 2.12132 
C 2.683901 1.55874 3 0.795609 3 0 
C 3 -0.795609 2.683901 -1.55874 2.12132 -2.12132 
C 1.55874 -2.683901 0.795609 -3 0 -3 
C -0.795609 -3 -1.55874 -2.683901 -2.12132 -2.12132 
C -2.683901 -1.55874 -3 -0.795609 -3 0 
C -3 0.795609 -2.683901 1.55874 -2.12132 2.12132 
C -1.55874 2.683901 -0.795609 3 0 3 
z
" id="ma73e797491" style="stroke:#ffffff;stroke-width:0.75;"/>
    </defs>
    <g clip-path="url(#p7779abe919)">
     <use style="fill:#cc503e;stroke:#ffffff;stroke-width:0.75;" x="364.038397" xlink:href="#ma73e797491" y="47.7"/>
    </g>
   </g>
   <g id="line2d_1">
    <path clip-path="url(#p7779abe919)" d="M 242.025658 81.336364 
L 242.025658 14.063636 
" style="fill:none;stroke:#994e95;stroke-linecap:round;stroke-width:1.5;"/>
   </g>
   <g id="line2d_2">
    <path clip-path="url(#p7779abe919)" d="M 248.343611 81.336364 
L 248.343611 14.063636 
" style="fill:none;stroke:#38a6a5;stroke-linecap:round;stroke-width:1.5;"/>
   </g>
   <g id="line2d_3">
    <path clip-path="url(#p7779abe919)" d="M 201.533653 67.881818 
L 282.517662 67.881818 
" style="fill:none;stroke:#994e95;stroke-linecap:round;stroke-width:1.5;"/>
   </g>
   <g id="line2d_4">
    <path clip-path="url(#p7779abe919)" d="M 216.98891 27.518182 
L 279.698311 27.518182 
" style="fill:none;stroke:#38a6a5;stroke-linecap:round;stroke-width:1.5;"/>
   </g>
   <g id="patch_3">
    <path d="M 14.571094 84.7 
L 990.096094 84.7 
" style="fill:none;stroke:#262626;stroke-linecap:square;stroke-linejoin:miter;stroke-width:0.8;"/>
   </g>
   <g id="text_6">
    <!-- $\mu, \sigma$ -->
    <defs>
     <path d="M -1.3125 -20.796875 
L 13.375 54.6875 
L 22.40625 54.6875 
L 15.765625 20.65625 
Q 15.578125 19.625 15.421875 18.359375 
Q 15.28125 17.09375 15.28125 15.828125 
Q 15.28125 11.28125 18.140625 8.828125 
Q 21 6.390625 26.3125 6.390625 
Q 33.546875 6.390625 37.984375 10.484375 
Q 42.4375 14.59375 44 22.796875 
L 50.203125 54.6875 
L 59.1875 54.6875 
L 51.03125 12.640625 
Q 50.828125 11.71875 50.75 11.03125 
Q 50.6875 10.359375 50.6875 9.8125 
Q 50.6875 8.296875 51.296875 7.59375 
Q 51.90625 6.890625 53.21875 6.890625 
Q 53.71875 6.890625 54.5625 7.125 
Q 55.421875 7.375 56.984375 8.015625 
L 55.609375 0.78125 
Q 53.46875 -0.296875 51.515625 -0.859375 
Q 49.5625 -1.421875 47.703125 -1.421875 
Q 44.484375 -1.421875 42.65625 0.625 
Q 40.828125 2.6875 40.828125 6.296875 
Q 38.09375 2.390625 34.296875 0.484375 
Q 30.515625 -1.421875 25.390625 -1.421875 
Q 20.84375 -1.421875 17.453125 0.671875 
Q 14.0625 2.78125 12.984375 6.203125 
L 7.71875 -20.796875 
z
" id="DejaVuSans-Oblique-956"/>
     <path d="M 11.71875 12.40625 
L 22.015625 12.40625 
L 22.015625 4 
L 14.015625 -11.625 
L 7.71875 -11.625 
L 11.71875 4 
z
" id="DejaVuSans-44"/>
     <path d="M 34.671875 47.5625 
Q 27.25 47.5625 22.21875 42.1875 
Q 16.890625 36.578125 15.140625 27.296875 
Q 13.1875 17.484375 16.3125 11.8125 
Q 19.390625 6.203125 26.65625 6.203125 
Q 33.84375 6.203125 39.109375 11.859375 
Q 44.4375 17.53125 46.34375 27.296875 
Q 48.046875 36.234375 45.015625 42.1875 
Q 42.1875 47.5625 34.671875 47.5625 
z
M 36.078125 54.734375 
L 65.921875 54.6875 
L 64.15625 45.703125 
L 54.109375 45.703125 
Q 57.90625 38.09375 55.859375 27.296875 
Q 53.21875 13.875 45.0625 6.25 
Q 36.859375 -1.421875 25.140625 -1.421875 
Q 13.375 -1.421875 8.203125 6.25 
Q 3.03125 13.875 5.671875 27.296875 
Q 8.25 40.765625 16.40625 48.390625 
Q 23.1875 54.734375 36.078125 54.734375 
z
" id="DejaVuSans-Oblique-963"/>
    </defs>
    <g style="fill:#994e95;" transform="translate(643.942061 47.7)scale(0.2 -0.2)">
     <use transform="translate(0 0.265625)" xlink:href="#DejaVuSans-Oblique-956"/>
     <use transform="translate(63.623047 0.265625)" xlink:href="#DejaVuSans-44"/>
     <use transform="translate(114.892578 0.265625)" xlink:href="#DejaVuSans-Oblique-963"/>
    </g>
   </g>
  </g>
  <g id="axes_2">
   <g id="patch_4">
    <path d="M 14.571094 190 
L 990.096094 190 
L 990.096094 116 
L 14.571094 116 
z
" style="fill:none;"/>
   </g>
   <g id="matplotlib.axis_3">
    <g id="xtick_6">
     <g id="text_7">
      <!-- −2 -->
      <g style="fill:#262626;" transform="translate(7.2 204.598437)scale(0.1 -0.1)">
       <use xlink:href="#DejaVuSans-8722"/>
       <use x="83.789062" xlink:href="#DejaVuSans-50"/>
      </g>
     </g>
    </g>
    <g id="xtick_7">
     <g id="text_8">
      <!-- 0 -->
      <g style="fill:#262626;" transform="translate(221.180166 204.598437)scale(0.1 -0.1)">
       <use xlink:href="#DejaVuSans-48"/>
      </g>
     </g>
    </g>
    <g id="xtick_8">
     <g id="text_9">
      <!-- 2 -->
      <g style="fill:#262626;" transform="translate(430.970489 204.598437)scale(0.1 -0.1)">
       <use xlink:href="#DejaVuSans-50"/>
      </g>
     </g>
    </g>
    <g id="xtick_9">
     <g id="text_10">
      <!-- 4 -->
      <g style="fill:#262626;" transform="translate(640.760811 204.598437)scale(0.1 -0.1)">
       <use xlink:href="#DejaVuSans-52"/>
      </g>
     </g>
    </g>
    <g id="xtick_10">
     <g id="text_11">
      <!-- 6 -->
      <g style="fill:#262626;" transform="translate(850.551134 204.598437)scale(0.1 -0.1)">
       <use xlink:href="#DejaVuSans-54"/>
      </g>
     </g>
    </g>
   </g>
   <g id="matplotlib.axis_4">
    <g id="ytick_4"/>
    <g id="ytick_5"/>
    <g id="ytick_6"/>
   </g>
   <g id="PathCollection_3">
    <g clip-path="url(#pb9eb26135e)">
     <use style="fill:#1d6996;stroke:#ffffff;stroke-width:0.75;" x="299.39072" xlink:href="#m83a937ca8b" y="153"/>
     <use style="fill:#1d6996;stroke:#ffffff;stroke-width:0.75;" x="62.256403" xlink:href="#m83a937ca8b" y="153"/>
     <use style="fill:#1d6996;stroke:#ffffff;stroke-width:0.75;" x="223.481991" xlink:href="#m83a937ca8b" y="153"/>
     <use style="fill:#1d6996;stroke:#ffffff;stroke-width:0.75;" x="289.536554" xlink:href="#m83a937ca8b" y="153"/>
     <use style="fill:#1d6996;stroke:#ffffff;stroke-width:0.75;" x="148.827925" xlink:href="#m83a937ca8b" y="153"/>
     <use style="fill:#1d6996;stroke:#ffffff;stroke-width:0.75;" x="252.212297" xlink:href="#m83a937ca8b" y="153"/>
     <use style="fill:#1d6996;stroke:#ffffff;stroke-width:0.75;" x="235.747631" xlink:href="#m83a937ca8b" y="153"/>
     <use style="fill:#1d6996;stroke:#ffffff;stroke-width:0.75;" x="224.811567" xlink:href="#m83a937ca8b" y="153"/>
     <use style="fill:#1d6996;stroke:#ffffff;stroke-width:0.75;" x="206.046699" xlink:href="#m83a937ca8b" y="153"/>
     <use style="fill:#1d6996;stroke:#ffffff;stroke-width:0.75;" x="269.783768" xlink:href="#m83a937ca8b" y="153"/>
     <use style="fill:#1d6996;stroke:#ffffff;stroke-width:0.75;" x="350.554216" xlink:href="#m83a937ca8b" y="153"/>
     <use style="fill:#1d6996;stroke:#ffffff;stroke-width:0.75;" x="123.130697" xlink:href="#m83a937ca8b" y="153"/>
     <use style="fill:#1d6996;stroke:#ffffff;stroke-width:0.75;" x="332.222392" xlink:href="#m83a937ca8b" y="153"/>
     <use style="fill:#1d6996;stroke:#ffffff;stroke-width:0.75;" x="248.343611" xlink:href="#m83a937ca8b" y="153"/>
    </g>
   </g>
   <g id="PathCollection_4">
    <g clip-path="url(#pb9eb26135e)">
     <use style="fill:#cc503e;stroke:#ffffff;stroke-width:0.75;" x="434.151739" xlink:href="#ma73e797491" y="153"/>
    </g>
   </g>
   <g id="line2d_5">
    <path clip-path="url(#pb9eb26135e)" d="M 246.699881 186.636364 
L 246.699881 119.363636 
" style="fill:none;stroke:#994e95;stroke-linecap:round;stroke-width:1.5;"/>
   </g>
   <g id="line2d_6">
    <path clip-path="url(#pb9eb26135e)" d="M 248.343611 186.636364 
L 248.343611 119.363636 
" style="fill:none;stroke:#38a6a5;stroke-linecap:round;stroke-width:1.5;"/>
   </g>
   <g id="line2d_7">
    <path clip-path="url(#pb9eb26135e)" d="M 201.964782 173.181818 
L 291.434979 173.181818 
" style="fill:none;stroke:#994e95;stroke-linecap:round;stroke-width:1.5;"/>
   </g>
   <g id="line2d_8">
    <path clip-path="url(#pb9eb26135e)" d="M 216.98891 132.818182 
L 279.698311 132.818182 
" style="fill:none;stroke:#38a6a5;stroke-linecap:round;stroke-width:1.5;"/>
   </g>
   <g id="patch_5">
    <path d="M 14.571094 190 
L 990.096094 190 
" style="fill:none;stroke:#262626;stroke-linecap:square;stroke-linejoin:miter;stroke-width:0.8;"/>
   </g>
   <g id="text_12">
    <!-- $M, MAD$ -->
    <defs>
     <path d="M 16.890625 72.90625 
L 31.6875 72.90625 
L 40.1875 23.78125 
L 68.40625 72.90625 
L 83.59375 72.90625 
L 69.390625 0 
L 59.8125 0 
L 72.21875 63.921875 
L 43.609375 14.015625 
L 33.984375 14.015625 
L 24.703125 64.109375 
L 12.3125 0 
L 2.6875 0 
z
" id="DejaVuSans-Oblique-77"/>
     <path d="M 36.8125 72.90625 
L 48 72.90625 
L 61.53125 0 
L 51.21875 0 
L 48.1875 18.703125 
L 15.375 18.703125 
L 5.078125 0 
L -5.328125 0 
z
M 40.375 63.1875 
L 19.921875 26.90625 
L 46.6875 26.90625 
z
" id="DejaVuSans-Oblique-65"/>
     <path d="M 16.890625 72.90625 
L 38.09375 72.90625 
Q 54.984375 72.90625 63.59375 65.75 
Q 72.21875 58.59375 72.21875 44.484375 
Q 72.21875 35.15625 68.9375 26.53125 
Q 65.671875 17.921875 59.90625 12.015625 
Q 54.109375 5.953125 45.171875 2.96875 
Q 36.234375 0 24.03125 0 
L 2.6875 0 
z
M 25.203125 64.796875 
L 14.203125 8.109375 
L 27.09375 8.109375 
Q 43.65625 8.109375 52.734375 17.625 
Q 61.8125 27.15625 61.8125 44.484375 
Q 61.8125 54.984375 55.953125 59.890625 
Q 50.09375 64.796875 37.59375 64.796875 
z
" id="DejaVuSans-Oblique-68"/>
    </defs>
    <g style="fill:#38a6a5;" transform="translate(643.942061 153)scale(0.2 -0.2)">
     <use transform="translate(0 0.09375)" xlink:href="#DejaVuSans-Oblique-77"/>
     <use transform="translate(86.279297 0.09375)" xlink:href="#DejaVuSans-44"/>
     <use transform="translate(137.548828 0.09375)" xlink:href="#DejaVuSans-Oblique-77"/>
     <use transform="translate(223.828125 0.09375)" xlink:href="#DejaVuSans-Oblique-65"/>
     <use transform="translate(292.236328 0.09375)" xlink:href="#DejaVuSans-Oblique-68"/>
    </g>
   </g>
  </g>
  <g id="axes_3">
   <g id="patch_6">
    <path d="M 14.571094 295.3 
L 990.096094 295.3 
L 990.096094 221.3 
L 14.571094 221.3 
z
" style="fill:none;"/>
   </g>
   <g id="matplotlib.axis_5">
    <g id="xtick_11">
     <g id="text_13">
      <!-- −2 -->
      <g style="fill:#262626;" transform="translate(7.2 309.898437)scale(0.1 -0.1)">
       <use xlink:href="#DejaVuSans-8722"/>
       <use x="83.789062" xlink:href="#DejaVuSans-50"/>
      </g>
     </g>
    </g>
    <g id="xtick_12">
     <g id="text_14">
      <!-- 0 -->
      <g style="fill:#262626;" transform="translate(221.180166 309.898437)scale(0.1 -0.1)">
       <use xlink:href="#DejaVuSans-48"/>
      </g>
     </g>
    </g>
    <g id="xtick_13">
     <g id="text_15">
      <!-- 2 -->
      <g style="fill:#262626;" transform="translate(430.970489 309.898437)scale(0.1 -0.1)">
       <use xlink:href="#DejaVuSans-50"/>
      </g>
     </g>
    </g>
    <g id="xtick_14">
     <g id="text_16">
      <!-- 4 -->
      <g style="fill:#262626;" transform="translate(640.760811 309.898437)scale(0.1 -0.1)">
       <use xlink:href="#DejaVuSans-52"/>
      </g>
     </g>
    </g>
    <g id="xtick_15">
     <g id="text_17">
      <!-- 6 -->
      <g style="fill:#262626;" transform="translate(850.551134 309.898437)scale(0.1 -0.1)">
       <use xlink:href="#DejaVuSans-54"/>
      </g>
     </g>
    </g>
   </g>
   <g id="matplotlib.axis_6">
    <g id="ytick_7"/>
    <g id="ytick_8"/>
    <g id="ytick_9"/>
   </g>
   <g id="PathCollection_5">
    <g clip-path="url(#p9bd01f905b)">
     <use style="fill:#1d6996;stroke:#ffffff;stroke-width:0.75;" x="299.39072" xlink:href="#m83a937ca8b" y="258.3"/>
     <use style="fill:#1d6996;stroke:#ffffff;stroke-width:0.75;" x="62.256403" xlink:href="#m83a937ca8b" y="258.3"/>
     <use style="fill:#1d6996;stroke:#ffffff;stroke-width:0.75;" x="223.481991" xlink:href="#m83a937ca8b" y="258.3"/>
     <use style="fill:#1d6996;stroke:#ffffff;stroke-width:0.75;" x="289.536554" xlink:href="#m83a937ca8b" y="258.3"/>
     <use style="fill:#1d6996;stroke:#ffffff;stroke-width:0.75;" x="148.827925" xlink:href="#m83a937ca8b" y="258.3"/>
     <use style="fill:#1d6996;stroke:#ffffff;stroke-width:0.75;" x="252.212297" xlink:href="#m83a937ca8b" y="258.3"/>
     <use style="fill:#1d6996;stroke:#ffffff;stroke-width:0.75;" x="235.747631" xlink:href="#m83a937ca8b" y="258.3"/>
     <use style="fill:#1d6996;stroke:#ffffff;stroke-width:0.75;" x="224.811567" xlink:href="#m83a937ca8b" y="258.3"/>
     <use style="fill:#1d6996;stroke:#ffffff;stroke-width:0.75;" x="206.046699" xlink:href="#m83a937ca8b" y="258.3"/>
     <use style="fill:#1d6996;stroke:#ffffff;stroke-width:0.75;" x="269.783768" xlink:href="#m83a937ca8b" y="258.3"/>
     <use style="fill:#1d6996;stroke:#ffffff;stroke-width:0.75;" x="350.554216" xlink:href="#m83a937ca8b" y="258.3"/>
     <use style="fill:#1d6996;stroke:#ffffff;stroke-width:0.75;" x="123.130697" xlink:href="#m83a937ca8b" y="258.3"/>
     <use style="fill:#1d6996;stroke:#ffffff;stroke-width:0.75;" x="332.222392" xlink:href="#m83a937ca8b" y="258.3"/>
     <use style="fill:#1d6996;stroke:#ffffff;stroke-width:0.75;" x="248.343611" xlink:href="#m83a937ca8b" y="258.3"/>
    </g>
   </g>
   <g id="PathCollection_6">
    <g clip-path="url(#p9bd01f905b)">
     <use style="fill:#cc503e;stroke:#ffffff;stroke-width:0.75;" x="748.837223" xlink:href="#ma73e797491" y="258.3"/>
    </g>
   </g>
   <g id="line2d_9">
    <path clip-path="url(#p9bd01f905b)" d="M 267.678913 291.936364 
L 267.678913 224.663636 
" style="fill:none;stroke:#994e95;stroke-linecap:round;stroke-width:1.5;"/>
   </g>
   <g id="line2d_10">
    <path clip-path="url(#p9bd01f905b)" d="M 248.343611 291.936364 
L 248.343611 224.663636 
" style="fill:none;stroke:#38a6a5;stroke-linecap:round;stroke-width:1.5;"/>
   </g>
   <g id="line2d_11">
    <path clip-path="url(#p9bd01f905b)" d="M 193.463499 278.481818 
L 341.894326 278.481818 
" style="fill:none;stroke:#994e95;stroke-linecap:round;stroke-width:1.5;"/>
   </g>
   <g id="line2d_12">
    <path clip-path="url(#p9bd01f905b)" d="M 216.98891 238.118182 
L 279.698311 238.118182 
" style="fill:none;stroke:#38a6a5;stroke-linecap:round;stroke-width:1.5;"/>
   </g>
   <g id="patch_7">
    <path d="M 14.571094 295.3 
L 990.096094 295.3 
" style="fill:none;stroke:#262626;stroke-linecap:square;stroke-linejoin:miter;stroke-width:0.8;"/>
   </g>
  </g>
  <g id="axes_4">
   <g id="patch_8">
    <path d="M 14.571094 400.6 
L 990.096094 400.6 
L 990.096094 326.6 
L 14.571094 326.6 
z
" style="fill:none;"/>
   </g>
   <g id="matplotlib.axis_7">
    <g id="xtick_16">
     <g id="text_18">
      <!-- −2 -->
      <g style="fill:#262626;" transform="translate(7.2 415.198437)scale(0.1 -0.1)">
       <use xlink:href="#DejaVuSans-8722"/>
       <use x="83.789062" xlink:href="#DejaVuSans-50"/>
      </g>
     </g>
    </g>
    <g id="xtick_17">
     <g id="text_19">
      <!-- 0 -->
      <g style="fill:#262626;" transform="translate(221.180166 415.198437)scale(0.1 -0.1)">
       <use xlink:href="#DejaVuSans-48"/>
      </g>
     </g>
    </g>
    <g id="xtick_18">
     <g id="text_20">
      <!-- 2 -->
      <g style="fill:#262626;" transform="translate(430.970489 415.198437)scale(0.1 -0.1)">
       <use xlink:href="#DejaVuSans-50"/>
      </g>
     </g>
    </g>
    <g id="xtick_19">
     <g id="text_21">
      <!-- 4 -->
      <g style="fill:#262626;" transform="translate(640.760811 415.198437)scale(0.1 -0.1)">
       <use xlink:href="#DejaVuSans-52"/>
      </g>
     </g>
    </g>
    <g id="xtick_20">
     <g id="text_22">
      <!-- 6 -->
      <g style="fill:#262626;" transform="translate(850.551134 415.198437)scale(0.1 -0.1)">
       <use xlink:href="#DejaVuSans-54"/>
      </g>
     </g>
    </g>
   </g>
   <g id="matplotlib.axis_8">
    <g id="ytick_10"/>
    <g id="ytick_11"/>
    <g id="ytick_12"/>
   </g>
   <g id="PathCollection_7">
    <g clip-path="url(#p643708a98e)">
     <use style="fill:#1d6996;stroke:#ffffff;stroke-width:0.75;" x="299.39072" xlink:href="#m83a937ca8b" y="363.6"/>
     <use style="fill:#1d6996;stroke:#ffffff;stroke-width:0.75;" x="62.256403" xlink:href="#m83a937ca8b" y="363.6"/>
     <use style="fill:#1d6996;stroke:#ffffff;stroke-width:0.75;" x="223.481991" xlink:href="#m83a937ca8b" y="363.6"/>
     <use style="fill:#1d6996;stroke:#ffffff;stroke-width:0.75;" x="289.536554" xlink:href="#m83a937ca8b" y="363.6"/>
     <use style="fill:#1d6996;stroke:#ffffff;stroke-width:0.75;" x="148.827925" xlink:href="#m83a937ca8b" y="363.6"/>
     <use style="fill:#1d6996;stroke:#ffffff;stroke-width:0.75;" x="252.212297" xlink:href="#m83a937ca8b" y="363.6"/>
     <use style="fill:#1d6996;stroke:#ffffff;stroke-width:0.75;" x="235.747631" xlink:href="#m83a937ca8b" y="363.6"/>
     <use style="fill:#1d6996;stroke:#ffffff;stroke-width:0.75;" x="224.811567" xlink:href="#m83a937ca8b" y="363.6"/>
     <use style="fill:#1d6996;stroke:#ffffff;stroke-width:0.75;" x="206.046699" xlink:href="#m83a937ca8b" y="363.6"/>
     <use style="fill:#1d6996;stroke:#ffffff;stroke-width:0.75;" x="269.783768" xlink:href="#m83a937ca8b" y="363.6"/>
     <use style="fill:#1d6996;stroke:#ffffff;stroke-width:0.75;" x="350.554216" xlink:href="#m83a937ca8b" y="363.6"/>
     <use style="fill:#1d6996;stroke:#ffffff;stroke-width:0.75;" x="123.130697" xlink:href="#m83a937ca8b" y="363.6"/>
     <use style="fill:#1d6996;stroke:#ffffff;stroke-width:0.75;" x="332.222392" xlink:href="#m83a937ca8b" y="363.6"/>
     <use style="fill:#1d6996;stroke:#ffffff;stroke-width:0.75;" x="248.343611" xlink:href="#m83a937ca8b" y="363.6"/>
    </g>
   </g>
   <g id="PathCollection_8">
    <g clip-path="url(#p643708a98e)">
     <use style="fill:#cc503e;stroke:#ffffff;stroke-width:0.75;" x="958.627545" xlink:href="#ma73e797491" y="363.6"/>
    </g>
   </g>
   <g id="line2d_13">
    <path clip-path="url(#p643708a98e)" d="M 281.664934 397.236364 
L 281.664934 329.963636 
" style="fill:none;stroke:#994e95;stroke-linecap:round;stroke-width:1.5;"/>
   </g>
   <g id="line2d_14">
    <path clip-path="url(#p643708a98e)" d="M 248.343611 397.236364 
L 248.343611 329.963636 
" style="fill:none;stroke:#38a6a5;stroke-linecap:round;stroke-width:1.5;"/>
   </g>
   <g id="line2d_15">
    <path clip-path="url(#p643708a98e)" d="M 183.903471 383.781818 
L 379.426397 383.781818 
" style="fill:none;stroke:#994e95;stroke-linecap:round;stroke-width:1.5;"/>
   </g>
   <g id="line2d_16">
    <path clip-path="url(#p643708a98e)" d="M 216.98891 343.418182 
L 279.698311 343.418182 
" style="fill:none;stroke:#38a6a5;stroke-linecap:round;stroke-width:1.5;"/>
   </g>
   <g id="patch_9">
    <path d="M 14.571094 400.6 
L 990.096094 400.6 
" style="fill:none;stroke:#262626;stroke-linecap:square;stroke-linejoin:miter;stroke-width:0.8;"/>
   </g>
  </g>
 </g>
 <defs>
  <clipPath id="p7779abe919">
   <rect height="74" width="975.525" x="14.571094" y="10.7"/>
  </clipPath>
  <clipPath id="pb9eb26135e">
   <rect height="74" width="975.525" x="14.571094" y="116"/>
  </clipPath>
  <clipPath id="p9bd01f905b">
   <rect height="74" width="975.525" x="14.571094" y="221.3"/>
  </clipPath>
  <clipPath id="p643708a98e">
   <rect height="74" width="975.525" x="14.571094" y="326.6"/>
  </clipPath>
 </defs>
</svg>
