<?xml version="1.0" encoding="utf-8" standalone="no"?>
<!DOCTYPE svg PUBLIC "-//W3C//DTD SVG 1.1//EN"
  "http://www.w3.org/Graphics/SVG/1.1/DTD/svg11.dtd">
<!-- Created with matplotlib (https://matplotlib.org/) -->
<svg height="265.438125pt" version="1.1" viewBox="0 0 716.765625 265.438125" width="716.765625pt" xmlns="http://www.w3.org/2000/svg" xmlns:xlink="http://www.w3.org/1999/xlink">
 <defs>
  <style type="text/css">
*{stroke-linecap:butt;stroke-linejoin:round;}
  </style>
 </defs>
 <g id="figure_1">
  <g id="patch_1">
   <path d="M 0 265.438125 
L 716.765625 265.438125 
L 716.765625 0 
L 0 0 
z
" style="fill:none;"/>
  </g>
  <g id="axes_1">
   <g id="patch_2">
    <path d="M 36.465625 241.56 
L 233.406801 241.56 
L 233.406801 24.12 
L 36.465625 24.12 
z
" style="fill:none;"/>
   </g>
   <g id="matplotlib.axis_1">
    <g id="xtick_1">
     <g id="line2d_1">
      <defs>
       <path d="M 0 0 
L 0 3.5 
" id="m0b19cba902" style="stroke:#262626;stroke-width:0.8;"/>
      </defs>
      <g>
       <use style="fill:#262626;stroke:#262626;stroke-width:0.8;" x="75.257069" xlink:href="#m0b19cba902" y="241.56"/>
      </g>
     </g>
     <g id="text_1">
      <!-- −2 -->
      <defs>
       <path d="M 10.59375 35.5 
L 73.1875 35.5 
L 73.1875 27.203125 
L 10.59375 27.203125 
z
" id="DejaVuSans-8722"/>
       <path d="M 19.1875 8.296875 
L 53.609375 8.296875 
L 53.609375 0 
L 7.328125 0 
L 7.328125 8.296875 
Q 12.9375 14.109375 22.625 23.890625 
Q 32.328125 33.6875 34.8125 36.53125 
Q 39.546875 41.84375 41.421875 45.53125 
Q 43.3125 49.21875 43.3125 52.78125 
Q 43.3125 58.59375 39.234375 62.25 
Q 35.15625 65.921875 28.609375 65.921875 
Q 23.96875 65.921875 18.8125 64.3125 
Q 13.671875 62.703125 7.8125 59.421875 
L 7.8125 69.390625 
Q 13.765625 71.78125 18.9375 73 
Q 24.125 74.21875 28.421875 74.21875 
Q 39.75 74.21875 46.484375 68.546875 
Q 53.21875 62.890625 53.21875 53.421875 
Q 53.21875 48.921875 51.53125 44.890625 
Q 49.859375 40.875 45.40625 35.40625 
Q 44.1875 33.984375 37.640625 27.21875 
Q 31.109375 20.453125 19.1875 8.296875 
z
" id="DejaVuSans-50"/>
      </defs>
      <g style="fill:#262626;" transform="translate(67.885975 256.158437)scale(0.1 -0.1)">
       <use xlink:href="#DejaVuSans-8722"/>
       <use x="83.789062" xlink:href="#DejaVuSans-50"/>
      </g>
     </g>
    </g>
    <g id="xtick_2">
     <g id="line2d_2">
      <g>
       <use style="fill:#262626;stroke:#262626;stroke-width:0.8;" x="134.936213" xlink:href="#m0b19cba902" y="241.56"/>
      </g>
     </g>
     <g id="text_2">
      <!-- 0 -->
      <defs>
       <path d="M 31.78125 66.40625 
Q 24.171875 66.40625 20.328125 58.90625 
Q 16.5 51.421875 16.5 36.375 
Q 16.5 21.390625 20.328125 13.890625 
Q 24.171875 6.390625 31.78125 6.390625 
Q 39.453125 6.390625 43.28125 13.890625 
Q 47.125 21.390625 47.125 36.375 
Q 47.125 51.421875 43.28125 58.90625 
Q 39.453125 66.40625 31.78125 66.40625 
z
M 31.78125 74.21875 
Q 44.046875 74.21875 50.515625 64.515625 
Q 56.984375 54.828125 56.984375 36.375 
Q 56.984375 17.96875 50.515625 8.265625 
Q 44.046875 -1.421875 31.78125 -1.421875 
Q 19.53125 -1.421875 13.0625 8.265625 
Q 6.59375 17.96875 6.59375 36.375 
Q 6.59375 54.828125 13.0625 64.515625 
Q 19.53125 74.21875 31.78125 74.21875 
z
" id="DejaVuSans-48"/>
      </defs>
      <g style="fill:#262626;" transform="translate(131.754963 256.158437)scale(0.1 -0.1)">
       <use xlink:href="#DejaVuSans-48"/>
      </g>
     </g>
    </g>
    <g id="xtick_3">
     <g id="line2d_3">
      <g>
       <use style="fill:#262626;stroke:#262626;stroke-width:0.8;" x="194.615358" xlink:href="#m0b19cba902" y="241.56"/>
      </g>
     </g>
     <g id="text_3">
      <!-- 2 -->
      <g style="fill:#262626;" transform="translate(191.434108 256.158437)scale(0.1 -0.1)">
       <use xlink:href="#DejaVuSans-50"/>
      </g>
     </g>
    </g>
   </g>
   <g id="matplotlib.axis_2">
    <g id="ytick_1">
     <g id="line2d_4">
      <defs>
       <path d="M 0 0 
L -3.5 0 
" id="m68b5b7489d" style="stroke:#262626;stroke-width:0.8;"/>
      </defs>
      <g>
       <use style="fill:#262626;stroke:#262626;stroke-width:0.8;" x="36.465625" xlink:href="#m68b5b7489d" y="231.676364"/>
      </g>
     </g>
     <g id="text_4">
      <!-- 0.00 -->
      <defs>
       <path d="M 10.6875 12.40625 
L 21 12.40625 
L 21 0 
L 10.6875 0 
z
" id="DejaVuSans-46"/>
      </defs>
      <g style="fill:#262626;" transform="translate(7.2 235.475582)scale(0.1 -0.1)">
       <use xlink:href="#DejaVuSans-48"/>
       <use x="63.623047" xlink:href="#DejaVuSans-46"/>
       <use x="95.410156" xlink:href="#DejaVuSans-48"/>
       <use x="159.033203" xlink:href="#DejaVuSans-48"/>
      </g>
     </g>
    </g>
    <g id="ytick_2">
     <g id="line2d_5">
      <g>
       <use style="fill:#262626;stroke:#262626;stroke-width:0.8;" x="36.465625" xlink:href="#m68b5b7489d" y="206.901761"/>
      </g>
     </g>
     <g id="text_5">
      <!-- 0.05 -->
      <defs>
       <path d="M 10.796875 72.90625 
L 49.515625 72.90625 
L 49.515625 64.59375 
L 19.828125 64.59375 
L 19.828125 46.734375 
Q 21.96875 47.46875 24.109375 47.828125 
Q 26.265625 48.1875 28.421875 48.1875 
Q 40.625 48.1875 47.75 41.5 
Q 54.890625 34.8125 54.890625 23.390625 
Q 54.890625 11.625 47.5625 5.09375 
Q 40.234375 -1.421875 26.90625 -1.421875 
Q 22.3125 -1.421875 17.546875 -0.640625 
Q 12.796875 0.140625 7.71875 1.703125 
L 7.71875 11.625 
Q 12.109375 9.234375 16.796875 8.0625 
Q 21.484375 6.890625 26.703125 6.890625 
Q 35.15625 6.890625 40.078125 11.328125 
Q 45.015625 15.765625 45.015625 23.390625 
Q 45.015625 31 40.078125 35.4375 
Q 35.15625 39.890625 26.703125 39.890625 
Q 22.75 39.890625 18.8125 39.015625 
Q 14.890625 38.140625 10.796875 36.28125 
z
" id="DejaVuSans-53"/>
      </defs>
      <g style="fill:#262626;" transform="translate(7.2 210.70098)scale(0.1 -0.1)">
       <use xlink:href="#DejaVuSans-48"/>
       <use x="63.623047" xlink:href="#DejaVuSans-46"/>
       <use x="95.410156" xlink:href="#DejaVuSans-48"/>
       <use x="159.033203" xlink:href="#DejaVuSans-53"/>
      </g>
     </g>
    </g>
    <g id="ytick_3">
     <g id="line2d_6">
      <g>
       <use style="fill:#262626;stroke:#262626;stroke-width:0.8;" x="36.465625" xlink:href="#m68b5b7489d" y="182.127159"/>
      </g>
     </g>
     <g id="text_6">
      <!-- 0.10 -->
      <defs>
       <path d="M 12.40625 8.296875 
L 28.515625 8.296875 
L 28.515625 63.921875 
L 10.984375 60.40625 
L 10.984375 69.390625 
L 28.421875 72.90625 
L 38.28125 72.90625 
L 38.28125 8.296875 
L 54.390625 8.296875 
L 54.390625 0 
L 12.40625 0 
z
" id="DejaVuSans-49"/>
      </defs>
      <g style="fill:#262626;" transform="translate(7.2 185.926378)scale(0.1 -0.1)">
       <use xlink:href="#DejaVuSans-48"/>
       <use x="63.623047" xlink:href="#DejaVuSans-46"/>
       <use x="95.410156" xlink:href="#DejaVuSans-49"/>
       <use x="159.033203" xlink:href="#DejaVuSans-48"/>
      </g>
     </g>
    </g>
    <g id="ytick_4">
     <g id="line2d_7">
      <g>
       <use style="fill:#262626;stroke:#262626;stroke-width:0.8;" x="36.465625" xlink:href="#m68b5b7489d" y="157.352557"/>
      </g>
     </g>
     <g id="text_7">
      <!-- 0.15 -->
      <g style="fill:#262626;" transform="translate(7.2 161.151775)scale(0.1 -0.1)">
       <use xlink:href="#DejaVuSans-48"/>
       <use x="63.623047" xlink:href="#DejaVuSans-46"/>
       <use x="95.410156" xlink:href="#DejaVuSans-49"/>
       <use x="159.033203" xlink:href="#DejaVuSans-53"/>
      </g>
     </g>
    </g>
    <g id="ytick_5">
     <g id="line2d_8">
      <g>
       <use style="fill:#262626;stroke:#262626;stroke-width:0.8;" x="36.465625" xlink:href="#m68b5b7489d" y="132.577954"/>
      </g>
     </g>
     <g id="text_8">
      <!-- 0.20 -->
      <g style="fill:#262626;" transform="translate(7.2 136.377173)scale(0.1 -0.1)">
       <use xlink:href="#DejaVuSans-48"/>
       <use x="63.623047" xlink:href="#DejaVuSans-46"/>
       <use x="95.410156" xlink:href="#DejaVuSans-50"/>
       <use x="159.033203" xlink:href="#DejaVuSans-48"/>
      </g>
     </g>
    </g>
    <g id="ytick_6">
     <g id="line2d_9">
      <g>
       <use style="fill:#262626;stroke:#262626;stroke-width:0.8;" x="36.465625" xlink:href="#m68b5b7489d" y="107.803352"/>
      </g>
     </g>
     <g id="text_9">
      <!-- 0.25 -->
      <g style="fill:#262626;" transform="translate(7.2 111.602571)scale(0.1 -0.1)">
       <use xlink:href="#DejaVuSans-48"/>
       <use x="63.623047" xlink:href="#DejaVuSans-46"/>
       <use x="95.410156" xlink:href="#DejaVuSans-50"/>
       <use x="159.033203" xlink:href="#DejaVuSans-53"/>
      </g>
     </g>
    </g>
    <g id="ytick_7">
     <g id="line2d_10">
      <g>
       <use style="fill:#262626;stroke:#262626;stroke-width:0.8;" x="36.465625" xlink:href="#m68b5b7489d" y="83.028749"/>
      </g>
     </g>
     <g id="text_10">
      <!-- 0.30 -->
      <defs>
       <path d="M 40.578125 39.3125 
Q 47.65625 37.796875 51.625 33 
Q 55.609375 28.21875 55.609375 21.1875 
Q 55.609375 10.40625 48.1875 4.484375 
Q 40.765625 -1.421875 27.09375 -1.421875 
Q 22.515625 -1.421875 17.65625 -0.515625 
Q 12.796875 0.390625 7.625 2.203125 
L 7.625 11.71875 
Q 11.71875 9.328125 16.59375 8.109375 
Q 21.484375 6.890625 26.8125 6.890625 
Q 36.078125 6.890625 40.9375 10.546875 
Q 45.796875 14.203125 45.796875 21.1875 
Q 45.796875 27.640625 41.28125 31.265625 
Q 36.765625 34.90625 28.71875 34.90625 
L 20.21875 34.90625 
L 20.21875 43.015625 
L 29.109375 43.015625 
Q 36.375 43.015625 40.234375 45.921875 
Q 44.09375 48.828125 44.09375 54.296875 
Q 44.09375 59.90625 40.109375 62.90625 
Q 36.140625 65.921875 28.71875 65.921875 
Q 24.65625 65.921875 20.015625 65.03125 
Q 15.375 64.15625 9.8125 62.3125 
L 9.8125 71.09375 
Q 15.4375 72.65625 20.34375 73.4375 
Q 25.25 74.21875 29.59375 74.21875 
Q 40.828125 74.21875 47.359375 69.109375 
Q 53.90625 64.015625 53.90625 55.328125 
Q 53.90625 49.265625 50.4375 45.09375 
Q 46.96875 40.921875 40.578125 39.3125 
z
" id="DejaVuSans-51"/>
      </defs>
      <g style="fill:#262626;" transform="translate(7.2 86.827968)scale(0.1 -0.1)">
       <use xlink:href="#DejaVuSans-48"/>
       <use x="63.623047" xlink:href="#DejaVuSans-46"/>
       <use x="95.410156" xlink:href="#DejaVuSans-51"/>
       <use x="159.033203" xlink:href="#DejaVuSans-48"/>
      </g>
     </g>
    </g>
    <g id="ytick_8">
     <g id="line2d_11">
      <g>
       <use style="fill:#262626;stroke:#262626;stroke-width:0.8;" x="36.465625" xlink:href="#m68b5b7489d" y="58.254147"/>
      </g>
     </g>
     <g id="text_11">
      <!-- 0.35 -->
      <g style="fill:#262626;" transform="translate(7.2 62.053366)scale(0.1 -0.1)">
       <use xlink:href="#DejaVuSans-48"/>
       <use x="63.623047" xlink:href="#DejaVuSans-46"/>
       <use x="95.410156" xlink:href="#DejaVuSans-51"/>
       <use x="159.033203" xlink:href="#DejaVuSans-53"/>
      </g>
     </g>
    </g>
    <g id="ytick_9">
     <g id="line2d_12">
      <g>
       <use style="fill:#262626;stroke:#262626;stroke-width:0.8;" x="36.465625" xlink:href="#m68b5b7489d" y="33.479545"/>
      </g>
     </g>
     <g id="text_12">
      <!-- 0.40 -->
      <defs>
       <path d="M 37.796875 64.3125 
L 12.890625 25.390625 
L 37.796875 25.390625 
z
M 35.203125 72.90625 
L 47.609375 72.90625 
L 47.609375 25.390625 
L 58.015625 25.390625 
L 58.015625 17.1875 
L 47.609375 17.1875 
L 47.609375 0 
L 37.796875 0 
L 37.796875 17.1875 
L 4.890625 17.1875 
L 4.890625 26.703125 
z
" id="DejaVuSans-52"/>
      </defs>
      <g style="fill:#262626;" transform="translate(7.2 37.278763)scale(0.1 -0.1)">
       <use xlink:href="#DejaVuSans-48"/>
       <use x="63.623047" xlink:href="#DejaVuSans-46"/>
       <use x="95.410156" xlink:href="#DejaVuSans-52"/>
       <use x="159.033203" xlink:href="#DejaVuSans-48"/>
      </g>
     </g>
    </g>
   </g>
   <g id="line2d_13">
    <path clip-path="url(#p0d0deda57f)" d="M 45.417497 229.480418 
L 47.225956 229.047388 
L 49.034414 228.540505 
L 50.842873 227.949607 
L 52.651332 227.263602 
L 54.459791 226.470477 
L 56.26825 225.557318 
L 58.076709 224.510352 
L 59.885168 223.315019 
L 61.693627 221.956068 
L 63.502086 220.417678 
L 65.310545 218.683626 
L 67.119004 216.73747 
L 68.927463 214.562778 
L 70.735922 212.143389 
L 72.54438 209.463705 
L 74.352839 206.509012 
L 76.161298 203.265838 
L 77.969757 199.72232 
L 79.778216 195.868603 
L 81.586675 191.697237 
L 83.395134 187.203587 
L 85.203593 182.386232 
L 87.012052 177.247345 
L 88.820511 171.79305 
L 90.62897 166.033738 
L 92.437429 159.984338 
L 94.245888 153.664516 
L 96.054346 147.09882 
L 97.862805 140.316727 
L 99.671264 133.352608 
L 101.479723 126.245601 
L 103.288182 119.039374 
L 105.096641 111.781794 
L 106.9051 104.524483 
L 108.713559 97.322284 
L 110.522018 90.232626 
L 112.330477 83.314805 
L 114.138936 76.629194 
L 115.947395 70.236384 
L 117.755853 64.196291 
L 119.564312 58.567229 
L 121.372771 53.404986 
L 123.18123 48.761897 
L 124.989689 44.685976 
L 126.798148 41.22008 
L 128.606607 38.401166 
L 130.415066 36.259635 
L 132.223525 34.81878 
L 134.031984 34.094374 
L 135.840443 34.094374 
L 137.648902 34.81878 
L 139.457361 36.259635 
L 141.265819 38.401166 
L 143.074278 41.22008 
L 144.882737 44.685976 
L 146.691196 48.761897 
L 148.499655 53.404986 
L 150.308114 58.567229 
L 152.116573 64.196291 
L 153.925032 70.236384 
L 155.733491 76.629194 
L 157.54195 83.314805 
L 159.350409 90.232626 
L 161.158868 97.322284 
L 162.967327 104.524483 
L 164.775785 111.781794 
L 166.584244 119.039374 
L 168.392703 126.245601 
L 170.201162 133.352608 
L 172.009621 140.316727 
L 173.81808 147.09882 
L 175.626539 153.664516 
L 177.434998 159.984338 
L 179.243457 166.033738 
L 181.051916 171.79305 
L 182.860375 177.247345 
L 184.668834 182.386232 
L 186.477292 187.203587 
L 188.285751 191.697237 
L 190.09421 195.868603 
L 191.902669 199.72232 
L 193.711128 203.265838 
L 195.519587 206.509012 
L 197.328046 209.463705 
L 199.136505 212.143389 
L 200.944964 214.562778 
L 202.753423 216.73747 
L 204.561882 218.683626 
L 206.370341 220.417678 
L 208.1788 221.956068 
L 209.987258 223.315019 
L 211.795717 224.510352 
L 213.604176 225.557318 
L 215.412635 226.470477 
L 217.221094 227.263602 
L 219.029553 227.949607 
L 220.838012 228.540505 
L 222.646471 229.047388 
L 224.45493 229.480418 
" style="fill:none;stroke:#909090;stroke-linecap:round;stroke-width:1.5;"/>
   </g>
   <g id="line2d_14">
    <path clip-path="url(#p0d0deda57f)" d="M 134.936213 34.003636 
L 134.936213 231.676364 
" style="fill:none;stroke:#cc503e;stroke-linecap:round;stroke-opacity:0.8;stroke-width:1.5;"/>
   </g>
   <g id="line2d_15">
    <path clip-path="url(#p0d0deda57f)" d="M 134.936213 34.003636 
L 134.936213 231.676364 
" style="fill:none;stroke:#1d6996;stroke-linecap:round;stroke-opacity:0.8;stroke-width:1.5;"/>
   </g>
   <g id="patch_3">
    <path d="M 36.465625 241.56 
L 36.465625 24.12 
" style="fill:none;stroke:#262626;stroke-linecap:square;stroke-linejoin:miter;stroke-width:0.8;"/>
   </g>
   <g id="patch_4">
    <path d="M 36.465625 241.56 
L 233.406801 241.56 
" style="fill:none;stroke:#262626;stroke-linecap:square;stroke-linejoin:miter;stroke-width:0.8;"/>
   </g>
   <g id="text_13">
    <!-- N(0,1) -->
    <defs>
     <path d="M 9.8125 72.90625 
L 23.09375 72.90625 
L 55.421875 11.921875 
L 55.421875 72.90625 
L 64.984375 72.90625 
L 64.984375 0 
L 51.703125 0 
L 19.390625 60.984375 
L 19.390625 0 
L 9.8125 0 
z
" id="DejaVuSans-78"/>
     <path d="M 31 75.875 
Q 24.46875 64.65625 21.28125 53.65625 
Q 18.109375 42.671875 18.109375 31.390625 
Q 18.109375 20.125 21.3125 9.0625 
Q 24.515625 -2 31 -13.1875 
L 23.1875 -13.1875 
Q 15.875 -1.703125 12.234375 9.375 
Q 8.59375 20.453125 8.59375 31.390625 
Q 8.59375 42.28125 12.203125 53.3125 
Q 15.828125 64.359375 23.1875 75.875 
z
" id="DejaVuSans-40"/>
     <path d="M 11.71875 12.40625 
L 22.015625 12.40625 
L 22.015625 4 
L 14.015625 -11.625 
L 7.71875 -11.625 
L 11.71875 4 
z
" id="DejaVuSans-44"/>
     <path d="M 8.015625 75.875 
L 15.828125 75.875 
Q 23.140625 64.359375 26.78125 53.3125 
Q 30.421875 42.28125 30.421875 31.390625 
Q 30.421875 20.453125 26.78125 9.375 
Q 23.140625 -1.703125 15.828125 -13.1875 
L 8.015625 -13.1875 
Q 14.5 -2 17.703125 9.0625 
Q 20.90625 20.125 20.90625 31.390625 
Q 20.90625 42.671875 17.703125 53.65625 
Q 14.5 64.65625 8.015625 75.875 
z
" id="DejaVuSans-41"/>
    </defs>
    <g style="fill:#262626;" transform="translate(116.223713 18.12)scale(0.12 -0.12)">
     <use xlink:href="#DejaVuSans-78"/>
     <use x="74.804688" xlink:href="#DejaVuSans-40"/>
     <use x="113.818359" xlink:href="#DejaVuSans-48"/>
     <use x="177.441406" xlink:href="#DejaVuSans-44"/>
     <use x="209.228516" xlink:href="#DejaVuSans-49"/>
     <use x="272.851562" xlink:href="#DejaVuSans-41"/>
    </g>
   </g>
  </g>
  <g id="axes_2">
   <g id="patch_5">
    <path d="M 272.795037 241.56 
L 469.736213 241.56 
L 469.736213 24.12 
L 272.795037 24.12 
z
" style="fill:none;"/>
   </g>
   <g id="matplotlib.axis_3">
    <g id="xtick_4">
     <g id="line2d_16">
      <g>
       <use style="fill:#262626;stroke:#262626;stroke-width:0.8;" x="281.746908" xlink:href="#m0b19cba902" y="241.56"/>
      </g>
     </g>
     <g id="text_14">
      <!-- 0 -->
      <g style="fill:#262626;" transform="translate(278.565658 256.158437)scale(0.1 -0.1)">
       <use xlink:href="#DejaVuSans-48"/>
      </g>
     </g>
    </g>
    <g id="xtick_5">
     <g id="line2d_17">
      <g>
       <use style="fill:#262626;stroke:#262626;stroke-width:0.8;" x="341.426053" xlink:href="#m0b19cba902" y="241.56"/>
      </g>
     </g>
     <g id="text_15">
      <!-- 5 -->
      <g style="fill:#262626;" transform="translate(338.244803 256.158437)scale(0.1 -0.1)">
       <use xlink:href="#DejaVuSans-53"/>
      </g>
     </g>
    </g>
    <g id="xtick_6">
     <g id="line2d_18">
      <g>
       <use style="fill:#262626;stroke:#262626;stroke-width:0.8;" x="401.105197" xlink:href="#m0b19cba902" y="241.56"/>
      </g>
     </g>
     <g id="text_16">
      <!-- 10 -->
      <g style="fill:#262626;" transform="translate(394.742697 256.158437)scale(0.1 -0.1)">
       <use xlink:href="#DejaVuSans-49"/>
       <use x="63.623047" xlink:href="#DejaVuSans-48"/>
      </g>
     </g>
    </g>
    <g id="xtick_7">
     <g id="line2d_19">
      <g>
       <use style="fill:#262626;stroke:#262626;stroke-width:0.8;" x="460.784342" xlink:href="#m0b19cba902" y="241.56"/>
      </g>
     </g>
     <g id="text_17">
      <!-- 15 -->
      <g style="fill:#262626;" transform="translate(454.421842 256.158437)scale(0.1 -0.1)">
       <use xlink:href="#DejaVuSans-49"/>
       <use x="63.623047" xlink:href="#DejaVuSans-53"/>
      </g>
     </g>
    </g>
   </g>
   <g id="matplotlib.axis_4">
    <g id="ytick_10">
     <g id="line2d_20">
      <g>
       <use style="fill:#262626;stroke:#262626;stroke-width:0.8;" x="272.795037" xlink:href="#m68b5b7489d" y="231.676364"/>
      </g>
     </g>
     <g id="text_18">
      <!-- 0.000 -->
      <g style="fill:#262626;" transform="translate(237.166912 235.475582)scale(0.1 -0.1)">
       <use xlink:href="#DejaVuSans-48"/>
       <use x="63.623047" xlink:href="#DejaVuSans-46"/>
       <use x="95.410156" xlink:href="#DejaVuSans-48"/>
       <use x="159.033203" xlink:href="#DejaVuSans-48"/>
       <use x="222.65625" xlink:href="#DejaVuSans-48"/>
      </g>
     </g>
    </g>
    <g id="ytick_11">
     <g id="line2d_21">
      <g>
       <use style="fill:#262626;stroke:#262626;stroke-width:0.8;" x="272.795037" xlink:href="#m68b5b7489d" y="204.806739"/>
      </g>
     </g>
     <g id="text_19">
      <!-- 0.025 -->
      <g style="fill:#262626;" transform="translate(237.166912 208.605958)scale(0.1 -0.1)">
       <use xlink:href="#DejaVuSans-48"/>
       <use x="63.623047" xlink:href="#DejaVuSans-46"/>
       <use x="95.410156" xlink:href="#DejaVuSans-48"/>
       <use x="159.033203" xlink:href="#DejaVuSans-50"/>
       <use x="222.65625" xlink:href="#DejaVuSans-53"/>
      </g>
     </g>
    </g>
    <g id="ytick_12">
     <g id="line2d_22">
      <g>
       <use style="fill:#262626;stroke:#262626;stroke-width:0.8;" x="272.795037" xlink:href="#m68b5b7489d" y="177.937114"/>
      </g>
     </g>
     <g id="text_20">
      <!-- 0.050 -->
      <g style="fill:#262626;" transform="translate(237.166912 181.736333)scale(0.1 -0.1)">
       <use xlink:href="#DejaVuSans-48"/>
       <use x="63.623047" xlink:href="#DejaVuSans-46"/>
       <use x="95.410156" xlink:href="#DejaVuSans-48"/>
       <use x="159.033203" xlink:href="#DejaVuSans-53"/>
       <use x="222.65625" xlink:href="#DejaVuSans-48"/>
      </g>
     </g>
    </g>
    <g id="ytick_13">
     <g id="line2d_23">
      <g>
       <use style="fill:#262626;stroke:#262626;stroke-width:0.8;" x="272.795037" xlink:href="#m68b5b7489d" y="151.06749"/>
      </g>
     </g>
     <g id="text_21">
      <!-- 0.075 -->
      <defs>
       <path d="M 8.203125 72.90625 
L 55.078125 72.90625 
L 55.078125 68.703125 
L 28.609375 0 
L 18.3125 0 
L 43.21875 64.59375 
L 8.203125 64.59375 
z
" id="DejaVuSans-55"/>
      </defs>
      <g style="fill:#262626;" transform="translate(237.166912 154.866708)scale(0.1 -0.1)">
       <use xlink:href="#DejaVuSans-48"/>
       <use x="63.623047" xlink:href="#DejaVuSans-46"/>
       <use x="95.410156" xlink:href="#DejaVuSans-48"/>
       <use x="159.033203" xlink:href="#DejaVuSans-55"/>
       <use x="222.65625" xlink:href="#DejaVuSans-53"/>
      </g>
     </g>
    </g>
    <g id="ytick_14">
     <g id="line2d_24">
      <g>
       <use style="fill:#262626;stroke:#262626;stroke-width:0.8;" x="272.795037" xlink:href="#m68b5b7489d" y="124.197865"/>
      </g>
     </g>
     <g id="text_22">
      <!-- 0.100 -->
      <g style="fill:#262626;" transform="translate(237.166912 127.997084)scale(0.1 -0.1)">
       <use xlink:href="#DejaVuSans-48"/>
       <use x="63.623047" xlink:href="#DejaVuSans-46"/>
       <use x="95.410156" xlink:href="#DejaVuSans-49"/>
       <use x="159.033203" xlink:href="#DejaVuSans-48"/>
       <use x="222.65625" xlink:href="#DejaVuSans-48"/>
      </g>
     </g>
    </g>
    <g id="ytick_15">
     <g id="line2d_25">
      <g>
       <use style="fill:#262626;stroke:#262626;stroke-width:0.8;" x="272.795037" xlink:href="#m68b5b7489d" y="97.32824"/>
      </g>
     </g>
     <g id="text_23">
      <!-- 0.125 -->
      <g style="fill:#262626;" transform="translate(237.166912 101.127459)scale(0.1 -0.1)">
       <use xlink:href="#DejaVuSans-48"/>
       <use x="63.623047" xlink:href="#DejaVuSans-46"/>
       <use x="95.410156" xlink:href="#DejaVuSans-49"/>
       <use x="159.033203" xlink:href="#DejaVuSans-50"/>
       <use x="222.65625" xlink:href="#DejaVuSans-53"/>
      </g>
     </g>
    </g>
    <g id="ytick_16">
     <g id="line2d_26">
      <g>
       <use style="fill:#262626;stroke:#262626;stroke-width:0.8;" x="272.795037" xlink:href="#m68b5b7489d" y="70.458616"/>
      </g>
     </g>
     <g id="text_24">
      <!-- 0.150 -->
      <g style="fill:#262626;" transform="translate(237.166912 74.257834)scale(0.1 -0.1)">
       <use xlink:href="#DejaVuSans-48"/>
       <use x="63.623047" xlink:href="#DejaVuSans-46"/>
       <use x="95.410156" xlink:href="#DejaVuSans-49"/>
       <use x="159.033203" xlink:href="#DejaVuSans-53"/>
       <use x="222.65625" xlink:href="#DejaVuSans-48"/>
      </g>
     </g>
    </g>
    <g id="ytick_17">
     <g id="line2d_27">
      <g>
       <use style="fill:#262626;stroke:#262626;stroke-width:0.8;" x="272.795037" xlink:href="#m68b5b7489d" y="43.588991"/>
      </g>
     </g>
     <g id="text_25">
      <!-- 0.175 -->
      <g style="fill:#262626;" transform="translate(237.166912 47.38821)scale(0.1 -0.1)">
       <use xlink:href="#DejaVuSans-48"/>
       <use x="63.623047" xlink:href="#DejaVuSans-46"/>
       <use x="95.410156" xlink:href="#DejaVuSans-49"/>
       <use x="159.033203" xlink:href="#DejaVuSans-55"/>
       <use x="222.65625" xlink:href="#DejaVuSans-53"/>
      </g>
     </g>
    </g>
   </g>
   <g id="line2d_28">
    <path clip-path="url(#p9a03b33436)" d="M 281.746908 231.676364 
L 283.555367 193.935089 
L 285.363826 161.700951 
L 287.172285 134.371258 
L 288.980744 111.401945 
L 290.789203 92.302229 
L 292.597662 76.629733 
L 294.406121 63.986032 
L 296.21458 54.012593 
L 298.023039 46.387081 
L 299.831498 40.819979 
L 301.639957 37.051518 
L 303.448415 34.848878 
L 305.256874 34.003636 
L 307.065333 34.329449 
L 308.873792 35.659937 
L 310.682251 37.846766 
L 312.49071 40.757898 
L 314.299169 44.276003 
L 316.107628 48.297017 
L 317.916087 52.72883 
L 319.724546 57.490093 
L 321.533005 62.509145 
L 323.341464 67.723024 
L 325.149923 73.076586 
L 326.958381 78.521693 
L 328.76684 84.016492 
L 330.575299 89.524746 
L 332.383758 95.015243 
L 334.192217 100.461254 
L 336.000676 105.840045 
L 337.809135 111.132433 
L 339.617594 116.322396 
L 341.426053 121.396708 
L 343.234512 126.344619 
L 345.042971 131.15756 
L 346.85143 135.82889 
L 348.659888 140.353653 
L 350.468347 144.728369 
L 352.276806 148.950848 
L 354.085265 153.020017 
L 355.893724 156.935771 
L 357.702183 160.698835 
L 359.510642 164.310645 
L 361.319101 167.773243 
L 363.12756 171.089174 
L 364.936019 174.261409 
L 366.744478 177.293264 
L 368.552937 180.188338 
L 370.361396 182.950451 
L 372.169854 185.583593 
L 373.978313 188.091882 
L 375.786772 190.479519 
L 377.595231 192.750757 
L 379.40369 194.909873 
L 381.212149 196.961136 
L 383.020608 198.908792 
L 384.829067 200.75704 
L 386.637526 202.510018 
L 388.445985 204.171788 
L 390.254444 205.74633 
L 392.062903 207.237524 
L 393.871362 208.649153 
L 395.67982 209.984888 
L 397.488279 211.24829 
L 399.296738 212.442802 
L 401.105197 213.571753 
L 402.913656 214.63835 
L 404.722115 215.645683 
L 406.530574 216.596721 
L 408.339033 217.494317 
L 410.147492 218.341207 
L 411.955951 219.140012 
L 413.76441 219.89324 
L 415.572869 220.60329 
L 417.381327 221.272452 
L 419.189786 221.902914 
L 420.998245 222.49676 
L 422.806704 223.055978 
L 424.615163 223.582459 
L 426.423622 224.078003 
L 428.232081 224.544323 
L 430.04054 224.983044 
L 431.848999 225.395712 
L 433.657458 225.783793 
L 435.465917 226.148678 
L 437.274376 226.491686 
L 439.082835 226.814067 
L 440.891293 227.117005 
L 442.699752 227.40162 
L 444.508211 227.668975 
L 446.31667 227.920073 
L 448.125129 228.155862 
L 449.933588 228.37724 
L 451.742047 228.585055 
L 453.550506 228.780107 
L 455.358965 228.963153 
L 457.167424 229.134905 
L 458.975883 229.296039 
L 460.784342 229.447188 
" style="fill:none;stroke:#909090;stroke-linecap:round;stroke-width:1.5;"/>
   </g>
   <g id="line2d_29">
    <path clip-path="url(#p9a03b33436)" d="M 329.490224 86.220033 
L 329.490224 231.676364 
" style="fill:none;stroke:#cc503e;stroke-linecap:round;stroke-opacity:0.8;stroke-width:1.5;"/>
   </g>
   <g id="line2d_30">
    <path clip-path="url(#p9a03b33436)" d="M 321.811833 63.301788 
L 321.811833 231.676364 
" style="fill:none;stroke:#1d6996;stroke-linecap:round;stroke-opacity:0.8;stroke-width:1.5;"/>
   </g>
   <g id="patch_6">
    <path d="M 272.795037 241.56 
L 272.795037 24.12 
" style="fill:none;stroke:#262626;stroke-linecap:square;stroke-linejoin:miter;stroke-width:0.8;"/>
   </g>
   <g id="patch_7">
    <path d="M 272.795037 241.56 
L 469.736213 241.56 
" style="fill:none;stroke:#262626;stroke-linecap:square;stroke-linejoin:miter;stroke-width:0.8;"/>
   </g>
   <g id="text_26">
    <!-- $\mu$ -->
    <defs>
     <path d="M -1.3125 -20.796875 
L 13.375 54.6875 
L 22.40625 54.6875 
L 15.765625 20.65625 
Q 15.578125 19.625 15.421875 18.359375 
Q 15.28125 17.09375 15.28125 15.828125 
Q 15.28125 11.28125 18.140625 8.828125 
Q 21 6.390625 26.3125 6.390625 
Q 33.546875 6.390625 37.984375 10.484375 
Q 42.4375 14.59375 44 22.796875 
L 50.203125 54.6875 
L 59.1875 54.6875 
L 51.03125 12.640625 
Q 50.828125 11.71875 50.75 11.03125 
Q 50.6875 10.359375 50.6875 9.8125 
Q 50.6875 8.296875 51.296875 7.59375 
Q 51.90625 6.890625 53.21875 6.890625 
Q 53.71875 6.890625 54.5625 7.125 
Q 55.421875 7.375 56.984375 8.015625 
L 55.609375 0.78125 
Q 53.46875 -0.296875 51.515625 -0.859375 
Q 49.5625 -1.421875 47.703125 -1.421875 
Q 44.484375 -1.421875 42.65625 0.625 
Q 40.828125 2.6875 40.828125 6.296875 
Q 38.09375 2.390625 34.296875 0.484375 
Q 30.515625 -1.421875 25.390625 -1.421875 
Q 20.84375 -1.421875 17.453125 0.671875 
Q 14.0625 2.78125 12.984375 6.203125 
L 7.71875 -20.796875 
z
" id="DejaVuSans-Oblique-956"/>
    </defs>
    <g style="fill:#cc503e;" transform="translate(401.105197 70.458616)scale(0.2 -0.2)">
     <use transform="translate(0 0.3125)" xlink:href="#DejaVuSans-Oblique-956"/>
    </g>
   </g>
   <g id="text_27">
    <!-- $M$ -->
    <defs>
     <path d="M 16.890625 72.90625 
L 31.6875 72.90625 
L 40.1875 23.78125 
L 68.40625 72.90625 
L 83.59375 72.90625 
L 69.390625 0 
L 59.8125 0 
L 72.21875 63.921875 
L 43.609375 14.015625 
L 33.984375 14.015625 
L 24.703125 64.109375 
L 12.3125 0 
L 2.6875 0 
z
" id="DejaVuSans-Oblique-77"/>
    </defs>
    <g style="fill:#1d6996;" transform="translate(401.105197 97.32824)scale(0.2 -0.2)">
     <use transform="translate(0 0.09375)" xlink:href="#DejaVuSans-Oblique-77"/>
    </g>
   </g>
   <g id="text_28">
    <!-- $\chi^2(4)$ -->
    <defs>
     <path d="M 30.03125 -12.203125 
L 26.421875 6.5 
L 6.15625 -20.84375 
L -4.4375 -20.84375 
L 24.265625 17.828125 
L 19.828125 40.828125 
Q 18.65625 46.96875 11.140625 46.96875 
L 8.734375 46.96875 
L 10.203125 54.6875 
L 13.625 54.59375 
Q 26.171875 54.25 27.734375 46.09375 
L 31.34375 27.390625 
L 51.609375 54.734375 
L 62.203125 54.734375 
L 33.5 16.0625 
L 37.9375 -6.9375 
Q 39.109375 -13.09375 46.625 -13.09375 
L 49.03125 -13.09375 
L 47.5625 -20.796875 
L 44.140625 -20.703125 
Q 31.59375 -20.359375 30.03125 -12.203125 
z
" id="DejaVuSans-Oblique-967"/>
    </defs>
    <g style="fill:#262626;" transform="translate(356.085625 18.12)scale(0.12 -0.12)">
     <use transform="translate(0 0.765625)" xlink:href="#DejaVuSans-Oblique-967"/>
     <use transform="translate(63.652396 39.046875)scale(0.7)" xlink:href="#DejaVuSans-50"/>
     <use transform="translate(110.922904 0.765625)" xlink:href="#DejaVuSans-40"/>
     <use transform="translate(149.936576 0.765625)" xlink:href="#DejaVuSans-52"/>
     <use transform="translate(213.559622 0.765625)" xlink:href="#DejaVuSans-41"/>
    </g>
   </g>
  </g>
  <g id="axes_3">
   <g id="patch_8">
    <path d="M 509.124449 241.56 
L 706.065625 241.56 
L 706.065625 24.12 
L 509.124449 24.12 
z
" style="fill:none;"/>
   </g>
   <g id="matplotlib.axis_5">
    <g id="xtick_8">
     <g id="line2d_31">
      <g>
       <use style="fill:#262626;stroke:#262626;stroke-width:0.8;" x="537.969368" xlink:href="#m0b19cba902" y="241.56"/>
      </g>
     </g>
     <g id="text_29">
      <!-- 4 -->
      <g style="fill:#262626;" transform="translate(534.788118 256.158437)scale(0.1 -0.1)">
       <use xlink:href="#DejaVuSans-52"/>
      </g>
     </g>
    </g>
    <g id="xtick_9">
     <g id="line2d_32">
      <g>
       <use style="fill:#262626;stroke:#262626;stroke-width:0.8;" x="577.755465" xlink:href="#m0b19cba902" y="241.56"/>
      </g>
     </g>
     <g id="text_30">
      <!-- 6 -->
      <defs>
       <path d="M 33.015625 40.375 
Q 26.375 40.375 22.484375 35.828125 
Q 18.609375 31.296875 18.609375 23.390625 
Q 18.609375 15.53125 22.484375 10.953125 
Q 26.375 6.390625 33.015625 6.390625 
Q 39.65625 6.390625 43.53125 10.953125 
Q 47.40625 15.53125 47.40625 23.390625 
Q 47.40625 31.296875 43.53125 35.828125 
Q 39.65625 40.375 33.015625 40.375 
z
M 52.59375 71.296875 
L 52.59375 62.3125 
Q 48.875 64.0625 45.09375 64.984375 
Q 41.3125 65.921875 37.59375 65.921875 
Q 27.828125 65.921875 22.671875 59.328125 
Q 17.53125 52.734375 16.796875 39.40625 
Q 19.671875 43.65625 24.015625 45.921875 
Q 28.375 48.1875 33.59375 48.1875 
Q 44.578125 48.1875 50.953125 41.515625 
Q 57.328125 34.859375 57.328125 23.390625 
Q 57.328125 12.15625 50.6875 5.359375 
Q 44.046875 -1.421875 33.015625 -1.421875 
Q 20.359375 -1.421875 13.671875 8.265625 
Q 6.984375 17.96875 6.984375 36.375 
Q 6.984375 53.65625 15.1875 63.9375 
Q 23.390625 74.21875 37.203125 74.21875 
Q 40.921875 74.21875 44.703125 73.484375 
Q 48.484375 72.75 52.59375 71.296875 
z
" id="DejaVuSans-54"/>
      </defs>
      <g style="fill:#262626;" transform="translate(574.574215 256.158437)scale(0.1 -0.1)">
       <use xlink:href="#DejaVuSans-54"/>
      </g>
     </g>
    </g>
    <g id="xtick_10">
     <g id="line2d_33">
      <g>
       <use style="fill:#262626;stroke:#262626;stroke-width:0.8;" x="617.541561" xlink:href="#m0b19cba902" y="241.56"/>
      </g>
     </g>
     <g id="text_31">
      <!-- 8 -->
      <defs>
       <path d="M 31.78125 34.625 
Q 24.75 34.625 20.71875 30.859375 
Q 16.703125 27.09375 16.703125 20.515625 
Q 16.703125 13.921875 20.71875 10.15625 
Q 24.75 6.390625 31.78125 6.390625 
Q 38.8125 6.390625 42.859375 10.171875 
Q 46.921875 13.96875 46.921875 20.515625 
Q 46.921875 27.09375 42.890625 30.859375 
Q 38.875 34.625 31.78125 34.625 
z
M 21.921875 38.8125 
Q 15.578125 40.375 12.03125 44.71875 
Q 8.5 49.078125 8.5 55.328125 
Q 8.5 64.0625 14.71875 69.140625 
Q 20.953125 74.21875 31.78125 74.21875 
Q 42.671875 74.21875 48.875 69.140625 
Q 55.078125 64.0625 55.078125 55.328125 
Q 55.078125 49.078125 51.53125 44.71875 
Q 48 40.375 41.703125 38.8125 
Q 48.828125 37.15625 52.796875 32.3125 
Q 56.78125 27.484375 56.78125 20.515625 
Q 56.78125 9.90625 50.3125 4.234375 
Q 43.84375 -1.421875 31.78125 -1.421875 
Q 19.734375 -1.421875 13.25 4.234375 
Q 6.78125 9.90625 6.78125 20.515625 
Q 6.78125 27.484375 10.78125 32.3125 
Q 14.796875 37.15625 21.921875 38.8125 
z
M 18.3125 54.390625 
Q 18.3125 48.734375 21.84375 45.5625 
Q 25.390625 42.390625 31.78125 42.390625 
Q 38.140625 42.390625 41.71875 45.5625 
Q 45.3125 48.734375 45.3125 54.390625 
Q 45.3125 60.0625 41.71875 63.234375 
Q 38.140625 66.40625 31.78125 66.40625 
Q 25.390625 66.40625 21.84375 63.234375 
Q 18.3125 60.0625 18.3125 54.390625 
z
" id="DejaVuSans-56"/>
      </defs>
      <g style="fill:#262626;" transform="translate(614.360311 256.158437)scale(0.1 -0.1)">
       <use xlink:href="#DejaVuSans-56"/>
      </g>
     </g>
    </g>
    <g id="xtick_11">
     <g id="line2d_34">
      <g>
       <use style="fill:#262626;stroke:#262626;stroke-width:0.8;" x="657.327657" xlink:href="#m0b19cba902" y="241.56"/>
      </g>
     </g>
     <g id="text_32">
      <!-- 10 -->
      <g style="fill:#262626;" transform="translate(650.965157 256.158437)scale(0.1 -0.1)">
       <use xlink:href="#DejaVuSans-49"/>
       <use x="63.623047" xlink:href="#DejaVuSans-48"/>
      </g>
     </g>
    </g>
    <g id="xtick_12">
     <g id="line2d_35">
      <g>
       <use style="fill:#262626;stroke:#262626;stroke-width:0.8;" x="697.113753" xlink:href="#m0b19cba902" y="241.56"/>
      </g>
     </g>
     <g id="text_33">
      <!-- 12 -->
      <g style="fill:#262626;" transform="translate(690.751253 256.158437)scale(0.1 -0.1)">
       <use xlink:href="#DejaVuSans-49"/>
       <use x="63.623047" xlink:href="#DejaVuSans-50"/>
      </g>
     </g>
    </g>
   </g>
   <g id="matplotlib.axis_6">
    <g id="ytick_18">
     <g id="line2d_36">
      <g>
       <use style="fill:#262626;stroke:#262626;stroke-width:0.8;" x="509.124449" xlink:href="#m68b5b7489d" y="231.676364"/>
      </g>
     </g>
     <g id="text_34">
      <!-- 0.00 -->
      <g style="fill:#262626;" transform="translate(479.858824 235.475582)scale(0.1 -0.1)">
       <use xlink:href="#DejaVuSans-48"/>
       <use x="63.623047" xlink:href="#DejaVuSans-46"/>
       <use x="95.410156" xlink:href="#DejaVuSans-48"/>
       <use x="159.033203" xlink:href="#DejaVuSans-48"/>
      </g>
     </g>
    </g>
    <g id="ytick_19">
     <g id="line2d_37">
      <g>
       <use style="fill:#262626;stroke:#262626;stroke-width:0.8;" x="509.124449" xlink:href="#m68b5b7489d" y="204.809855"/>
      </g>
     </g>
     <g id="text_35">
      <!-- 0.05 -->
      <g style="fill:#262626;" transform="translate(479.858824 208.609073)scale(0.1 -0.1)">
       <use xlink:href="#DejaVuSans-48"/>
       <use x="63.623047" xlink:href="#DejaVuSans-46"/>
       <use x="95.410156" xlink:href="#DejaVuSans-48"/>
       <use x="159.033203" xlink:href="#DejaVuSans-53"/>
      </g>
     </g>
    </g>
    <g id="ytick_20">
     <g id="line2d_38">
      <g>
       <use style="fill:#262626;stroke:#262626;stroke-width:0.8;" x="509.124449" xlink:href="#m68b5b7489d" y="177.943345"/>
      </g>
     </g>
     <g id="text_36">
      <!-- 0.10 -->
      <g style="fill:#262626;" transform="translate(479.858824 181.742564)scale(0.1 -0.1)">
       <use xlink:href="#DejaVuSans-48"/>
       <use x="63.623047" xlink:href="#DejaVuSans-46"/>
       <use x="95.410156" xlink:href="#DejaVuSans-49"/>
       <use x="159.033203" xlink:href="#DejaVuSans-48"/>
      </g>
     </g>
    </g>
    <g id="ytick_21">
     <g id="line2d_39">
      <g>
       <use style="fill:#262626;stroke:#262626;stroke-width:0.8;" x="509.124449" xlink:href="#m68b5b7489d" y="151.076836"/>
      </g>
     </g>
     <g id="text_37">
      <!-- 0.15 -->
      <g style="fill:#262626;" transform="translate(479.858824 154.876055)scale(0.1 -0.1)">
       <use xlink:href="#DejaVuSans-48"/>
       <use x="63.623047" xlink:href="#DejaVuSans-46"/>
       <use x="95.410156" xlink:href="#DejaVuSans-49"/>
       <use x="159.033203" xlink:href="#DejaVuSans-53"/>
      </g>
     </g>
    </g>
    <g id="ytick_22">
     <g id="line2d_40">
      <g>
       <use style="fill:#262626;stroke:#262626;stroke-width:0.8;" x="509.124449" xlink:href="#m68b5b7489d" y="124.210327"/>
      </g>
     </g>
     <g id="text_38">
      <!-- 0.20 -->
      <g style="fill:#262626;" transform="translate(479.858824 128.009546)scale(0.1 -0.1)">
       <use xlink:href="#DejaVuSans-48"/>
       <use x="63.623047" xlink:href="#DejaVuSans-46"/>
       <use x="95.410156" xlink:href="#DejaVuSans-50"/>
       <use x="159.033203" xlink:href="#DejaVuSans-48"/>
      </g>
     </g>
    </g>
    <g id="ytick_23">
     <g id="line2d_41">
      <g>
       <use style="fill:#262626;stroke:#262626;stroke-width:0.8;" x="509.124449" xlink:href="#m68b5b7489d" y="97.343818"/>
      </g>
     </g>
     <g id="text_39">
      <!-- 0.25 -->
      <g style="fill:#262626;" transform="translate(479.858824 101.143037)scale(0.1 -0.1)">
       <use xlink:href="#DejaVuSans-48"/>
       <use x="63.623047" xlink:href="#DejaVuSans-46"/>
       <use x="95.410156" xlink:href="#DejaVuSans-50"/>
       <use x="159.033203" xlink:href="#DejaVuSans-53"/>
      </g>
     </g>
    </g>
    <g id="ytick_24">
     <g id="line2d_42">
      <g>
       <use style="fill:#262626;stroke:#262626;stroke-width:0.8;" x="509.124449" xlink:href="#m68b5b7489d" y="70.477309"/>
      </g>
     </g>
     <g id="text_40">
      <!-- 0.30 -->
      <g style="fill:#262626;" transform="translate(479.858824 74.276528)scale(0.1 -0.1)">
       <use xlink:href="#DejaVuSans-48"/>
       <use x="63.623047" xlink:href="#DejaVuSans-46"/>
       <use x="95.410156" xlink:href="#DejaVuSans-51"/>
       <use x="159.033203" xlink:href="#DejaVuSans-48"/>
      </g>
     </g>
    </g>
    <g id="ytick_25">
     <g id="line2d_43">
      <g>
       <use style="fill:#262626;stroke:#262626;stroke-width:0.8;" x="509.124449" xlink:href="#m68b5b7489d" y="43.6108"/>
      </g>
     </g>
     <g id="text_41">
      <!-- 0.35 -->
      <g style="fill:#262626;" transform="translate(479.858824 47.410019)scale(0.1 -0.1)">
       <use xlink:href="#DejaVuSans-48"/>
       <use x="63.623047" xlink:href="#DejaVuSans-46"/>
       <use x="95.410156" xlink:href="#DejaVuSans-51"/>
       <use x="159.033203" xlink:href="#DejaVuSans-53"/>
      </g>
     </g>
    </g>
   </g>
   <g id="line2d_44">
    <path clip-path="url(#p03f89912c8)" d="M 518.07632 231.676364 
L 519.884779 187.073039 
L 521.693238 150.221708 
L 523.501697 120.111907 
L 525.310156 95.850249 
L 527.118615 76.647711 
L 528.927074 61.808235 
L 530.735533 50.718535 
L 532.543992 42.838966 
L 534.35245 37.695356 
L 536.160909 34.8717 
L 537.969368 34.003636 
L 539.777827 34.772609 
L 541.586286 36.900657 
L 543.394745 40.14577 
L 545.203204 44.297732 
L 547.011663 49.174431 
L 548.820122 54.618552 
L 550.628581 60.494654 
L 552.43704 66.686548 
L 554.245499 73.094975 
L 556.053958 79.635545 
L 557.862416 86.236899 
L 559.670875 92.83908 
L 561.479334 99.392096 
L 563.287793 105.854635 
L 565.096252 112.192937 
L 566.904711 118.379792 
L 568.71317 124.393658 
L 570.521629 130.21788 
L 572.330088 135.840004 
L 574.138547 141.251173 
L 575.947006 146.445596 
L 577.755465 151.42008 
L 579.563923 156.173625 
L 581.372382 160.707064 
L 583.180841 165.022757 
L 584.9893 169.124311 
L 586.797759 173.016355 
L 588.606218 176.704329 
L 590.414677 180.194308 
L 592.223136 183.492854 
L 594.031595 186.606884 
L 595.840054 189.543556 
L 597.648513 192.310181 
L 599.456972 194.914136 
L 601.265431 197.3628 
L 603.073889 199.663499 
L 604.882348 201.823459 
L 606.690807 203.849765 
L 608.499266 205.749336 
L 610.307725 207.528896 
L 612.116184 209.194959 
L 613.924643 210.753812 
L 615.733102 212.211507 
L 617.541561 213.573852 
L 619.35002 214.846413 
L 621.158479 216.034505 
L 622.966938 217.143199 
L 624.775397 218.177324 
L 626.583855 219.141465 
L 628.392314 220.039979 
L 630.200773 220.876989 
L 632.009232 221.6564 
L 633.817691 222.381901 
L 635.62615 223.056978 
L 637.434609 223.684913 
L 639.243068 224.268804 
L 641.051527 224.811563 
L 642.859986 225.315929 
L 644.668445 225.784476 
L 646.476904 226.219622 
L 648.285362 226.623632 
L 650.093821 226.998632 
L 651.90228 227.346613 
L 653.710739 227.66944 
L 655.519198 227.968856 
L 657.327657 228.246492 
L 659.136116 228.503872 
L 660.944575 228.742421 
L 662.753034 228.963467 
L 664.561493 229.168252 
L 666.369952 229.357931 
L 668.178411 229.533585 
L 669.98687 229.696217 
L 671.795328 229.846766 
L 673.603787 229.986103 
L 675.412246 230.115039 
L 677.220705 230.23433 
L 679.029164 230.344679 
L 680.837623 230.446739 
L 682.646082 230.541117 
L 684.454541 230.628378 
L 686.263 230.709046 
L 688.071459 230.783608 
L 689.879918 230.852516 
L 691.688377 230.916189 
L 693.496836 230.975017 
L 695.305294 231.029362 
L 697.113753 231.079557 
" style="fill:none;stroke:#909090;stroke-linecap:round;stroke-width:1.5;"/>
   </g>
   <g id="line2d_45">
    <path clip-path="url(#p03f89912c8)" d="M 557.862416 86.236899 
L 557.862416 231.676364 
" style="fill:none;stroke:#cc503e;stroke-linecap:round;stroke-opacity:0.8;stroke-width:1.5;"/>
   </g>
   <g id="line2d_46">
    <path clip-path="url(#p03f89912c8)" d="M 551.463758 63.321311 
L 551.463758 231.676364 
" style="fill:none;stroke:#1d6996;stroke-linecap:round;stroke-opacity:0.8;stroke-width:1.5;"/>
   </g>
   <g id="patch_9">
    <path d="M 509.124449 241.56 
L 509.124449 24.12 
" style="fill:none;stroke:#262626;stroke-linecap:square;stroke-linejoin:miter;stroke-width:0.8;"/>
   </g>
   <g id="patch_10">
    <path d="M 509.124449 241.56 
L 706.065625 241.56 
" style="fill:none;stroke:#262626;stroke-linecap:square;stroke-linejoin:miter;stroke-width:0.8;"/>
   </g>
   <g id="text_42">
    <!-- $\Gamma(2,3)$ -->
    <defs>
     <path d="M 9.8125 0 
L 9.8125 72.90625 
L 55.171875 72.90625 
L 55.171875 64.59375 
L 19.671875 64.59375 
L 19.671875 0 
z
" id="DejaVuSans-915"/>
    </defs>
    <g style="fill:#262626;" transform="translate(588.815037 18.12)scale(0.12 -0.12)">
     <use transform="translate(0 0.125)" xlink:href="#DejaVuSans-915"/>
     <use transform="translate(55.712891 0.125)" xlink:href="#DejaVuSans-40"/>
     <use transform="translate(94.726562 0.125)" xlink:href="#DejaVuSans-50"/>
     <use transform="translate(158.349609 0.125)" xlink:href="#DejaVuSans-44"/>
     <use transform="translate(209.619141 0.125)" xlink:href="#DejaVuSans-51"/>
     <use transform="translate(273.242188 0.125)" xlink:href="#DejaVuSans-41"/>
    </g>
   </g>
  </g>
 </g>
 <defs>
  <clipPath id="p0d0deda57f">
   <rect height="217.44" width="196.941176" x="36.465625" y="24.12"/>
  </clipPath>
  <clipPath id="p9a03b33436">
   <rect height="217.44" width="196.941176" x="272.795037" y="24.12"/>
  </clipPath>
  <clipPath id="p03f89912c8">
   <rect height="217.44" width="196.941176" x="509.124449" y="24.12"/>
  </clipPath>
 </defs>
</svg>
