<?xml version="1.0" encoding="utf-8" standalone="no"?>
<!DOCTYPE svg PUBLIC "-//W3C//DTD SVG 1.1//EN"
  "http://www.w3.org/Graphics/SVG/1.1/DTD/svg11.dtd">
<!-- Created with matplotlib (https://matplotlib.org/) -->
<svg height="280.478125pt" version="1.1" viewBox="0 0 1000.796094 280.478125" width="1000.796094pt" xmlns="http://www.w3.org/2000/svg" xmlns:xlink="http://www.w3.org/1999/xlink">
 <defs>
  <style type="text/css">
*{stroke-linecap:butt;stroke-linejoin:round;}
  </style>
 </defs>
 <g id="figure_1">
  <g id="patch_1">
   <path d="M 0 280.478125 
L 1000.796094 280.478125 
L 1000.796094 0 
L 0 0 
z
" style="fill:none;"/>
  </g>
  <g id="axes_1">
   <g id="patch_2">
    <path d="M 14.571094 48.7 
L 990.096094 48.7 
L 990.096094 10.7 
L 14.571094 10.7 
z
" style="fill:none;"/>
   </g>
   <g id="matplotlib.axis_1">
    <g id="xtick_1">
     <g id="text_1">
      <!-- −2 -->
      <defs>
       <path d="M 10.59375 35.5 
L 73.1875 35.5 
L 73.1875 27.203125 
L 10.59375 27.203125 
z
" id="DejaVuSans-8722"/>
       <path d="M 19.1875 8.296875 
L 53.609375 8.296875 
L 53.609375 0 
L 7.328125 0 
L 7.328125 8.296875 
Q 12.9375 14.109375 22.625 23.890625 
Q 32.328125 33.6875 34.8125 36.53125 
Q 39.546875 41.84375 41.421875 45.53125 
Q 43.3125 49.21875 43.3125 52.78125 
Q 43.3125 58.59375 39.234375 62.25 
Q 35.15625 65.921875 28.609375 65.921875 
Q 23.96875 65.921875 18.8125 64.3125 
Q 13.671875 62.703125 7.8125 59.421875 
L 7.8125 69.390625 
Q 13.765625 71.78125 18.9375 73 
Q 24.125 74.21875 28.421875 74.21875 
Q 39.75 74.21875 46.484375 68.546875 
Q 53.21875 62.890625 53.21875 53.421875 
Q 53.21875 48.921875 51.53125 44.890625 
Q 49.859375 40.875 45.40625 35.40625 
Q 44.1875 33.984375 37.640625 27.21875 
Q 31.109375 20.453125 19.1875 8.296875 
z
" id="DejaVuSans-50"/>
      </defs>
      <g style="fill:#262626;" transform="translate(7.2 63.298438)scale(0.1 -0.1)">
       <use xlink:href="#DejaVuSans-8722"/>
       <use x="83.789062" xlink:href="#DejaVuSans-50"/>
      </g>
     </g>
    </g>
    <g id="xtick_2">
     <g id="text_2">
      <!-- 0 -->
      <defs>
       <path d="M 31.78125 66.40625 
Q 24.171875 66.40625 20.328125 58.90625 
Q 16.5 51.421875 16.5 36.375 
Q 16.5 21.390625 20.328125 13.890625 
Q 24.171875 6.390625 31.78125 6.390625 
Q 39.453125 6.390625 43.28125 13.890625 
Q 47.125 21.390625 47.125 36.375 
Q 47.125 51.421875 43.28125 58.90625 
Q 39.453125 66.40625 31.78125 66.40625 
z
M 31.78125 74.21875 
Q 44.046875 74.21875 50.515625 64.515625 
Q 56.984375 54.828125 56.984375 36.375 
Q 56.984375 17.96875 50.515625 8.265625 
Q 44.046875 -1.421875 31.78125 -1.421875 
Q 19.53125 -1.421875 13.0625 8.265625 
Q 6.59375 17.96875 6.59375 36.375 
Q 6.59375 54.828125 13.0625 64.515625 
Q 19.53125 74.21875 31.78125 74.21875 
z
" id="DejaVuSans-48"/>
      </defs>
      <g style="fill:#262626;" transform="translate(221.180166 63.298438)scale(0.1 -0.1)">
       <use xlink:href="#DejaVuSans-48"/>
      </g>
     </g>
    </g>
    <g id="xtick_3">
     <g id="text_3">
      <!-- 2 -->
      <g style="fill:#262626;" transform="translate(430.970489 63.298438)scale(0.1 -0.1)">
       <use xlink:href="#DejaVuSans-50"/>
      </g>
     </g>
    </g>
    <g id="xtick_4">
     <g id="text_4">
      <!-- 4 -->
      <defs>
       <path d="M 37.796875 64.3125 
L 12.890625 25.390625 
L 37.796875 25.390625 
z
M 35.203125 72.90625 
L 47.609375 72.90625 
L 47.609375 25.390625 
L 58.015625 25.390625 
L 58.015625 17.1875 
L 47.609375 17.1875 
L 47.609375 0 
L 37.796875 0 
L 37.796875 17.1875 
L 4.890625 17.1875 
L 4.890625 26.703125 
z
" id="DejaVuSans-52"/>
      </defs>
      <g style="fill:#262626;" transform="translate(640.760811 63.298438)scale(0.1 -0.1)">
       <use xlink:href="#DejaVuSans-52"/>
      </g>
     </g>
    </g>
    <g id="xtick_5">
     <g id="text_5">
      <!-- 6 -->
      <defs>
       <path d="M 33.015625 40.375 
Q 26.375 40.375 22.484375 35.828125 
Q 18.609375 31.296875 18.609375 23.390625 
Q 18.609375 15.53125 22.484375 10.953125 
Q 26.375 6.390625 33.015625 6.390625 
Q 39.65625 6.390625 43.53125 10.953125 
Q 47.40625 15.53125 47.40625 23.390625 
Q 47.40625 31.296875 43.53125 35.828125 
Q 39.65625 40.375 33.015625 40.375 
z
M 52.59375 71.296875 
L 52.59375 62.3125 
Q 48.875 64.0625 45.09375 64.984375 
Q 41.3125 65.921875 37.59375 65.921875 
Q 27.828125 65.921875 22.671875 59.328125 
Q 17.53125 52.734375 16.796875 39.40625 
Q 19.671875 43.65625 24.015625 45.921875 
Q 28.375 48.1875 33.59375 48.1875 
Q 44.578125 48.1875 50.953125 41.515625 
Q 57.328125 34.859375 57.328125 23.390625 
Q 57.328125 12.15625 50.6875 5.359375 
Q 44.046875 -1.421875 33.015625 -1.421875 
Q 20.359375 -1.421875 13.671875 8.265625 
Q 6.984375 17.96875 6.984375 36.375 
Q 6.984375 53.65625 15.1875 63.9375 
Q 23.390625 74.21875 37.203125 74.21875 
Q 40.921875 74.21875 44.703125 73.484375 
Q 48.484375 72.75 52.59375 71.296875 
z
" id="DejaVuSans-54"/>
      </defs>
      <g style="fill:#262626;" transform="translate(850.551134 63.298438)scale(0.1 -0.1)">
       <use xlink:href="#DejaVuSans-54"/>
      </g>
     </g>
    </g>
   </g>
   <g id="matplotlib.axis_2">
    <g id="ytick_1"/>
    <g id="ytick_2"/>
    <g id="ytick_3"/>
   </g>
   <g id="PathCollection_1">
    <defs>
     <path d="M 0 3 
C 0.795609 3 1.55874 2.683901 2.12132 2.12132 
C 2.683901 1.55874 3 0.795609 3 0 
C 3 -0.795609 2.683901 -1.55874 2.12132 -2.12132 
C 1.55874 -2.683901 0.795609 -3 0 -3 
C -0.795609 -3 -1.55874 -2.683901 -2.12132 -2.12132 
C -2.683901 -1.55874 -3 -0.795609 -3 0 
C -3 0.795609 -2.683901 1.55874 -2.12132 2.12132 
C -1.55874 2.683901 -0.795609 3 0 3 
z
" id="m470a80b84b" style="stroke:#ffffff;stroke-width:0.75;"/>
    </defs>
    <g clip-path="url(#p1c6abda38a)">
     <use style="fill:#1d6996;stroke:#ffffff;stroke-width:0.75;" x="299.39072" xlink:href="#m470a80b84b" y="29.7"/>
     <use style="fill:#1d6996;stroke:#ffffff;stroke-width:0.75;" x="62.256403" xlink:href="#m470a80b84b" y="29.7"/>
     <use style="fill:#1d6996;stroke:#ffffff;stroke-width:0.75;" x="223.481991" xlink:href="#m470a80b84b" y="29.7"/>
     <use style="fill:#1d6996;stroke:#ffffff;stroke-width:0.75;" x="289.536554" xlink:href="#m470a80b84b" y="29.7"/>
     <use style="fill:#1d6996;stroke:#ffffff;stroke-width:0.75;" x="148.827925" xlink:href="#m470a80b84b" y="29.7"/>
     <use style="fill:#1d6996;stroke:#ffffff;stroke-width:0.75;" x="252.212297" xlink:href="#m470a80b84b" y="29.7"/>
     <use style="fill:#1d6996;stroke:#ffffff;stroke-width:0.75;" x="235.747631" xlink:href="#m470a80b84b" y="29.7"/>
     <use style="fill:#1d6996;stroke:#ffffff;stroke-width:0.75;" x="224.811567" xlink:href="#m470a80b84b" y="29.7"/>
     <use style="fill:#1d6996;stroke:#ffffff;stroke-width:0.75;" x="206.046699" xlink:href="#m470a80b84b" y="29.7"/>
     <use style="fill:#1d6996;stroke:#ffffff;stroke-width:0.75;" x="269.783768" xlink:href="#m470a80b84b" y="29.7"/>
     <use style="fill:#1d6996;stroke:#ffffff;stroke-width:0.75;" x="350.554216" xlink:href="#m470a80b84b" y="29.7"/>
     <use style="fill:#1d6996;stroke:#ffffff;stroke-width:0.75;" x="123.130697" xlink:href="#m470a80b84b" y="29.7"/>
     <use style="fill:#1d6996;stroke:#ffffff;stroke-width:0.75;" x="332.222392" xlink:href="#m470a80b84b" y="29.7"/>
     <use style="fill:#1d6996;stroke:#ffffff;stroke-width:0.75;" x="248.343611" xlink:href="#m470a80b84b" y="29.7"/>
    </g>
   </g>
   <g id="PathCollection_2">
    <defs>
     <path d="M 0 3 
C 0.795609 3 1.55874 2.683901 2.12132 2.12132 
C 2.683901 1.55874 3 0.795609 3 0 
C 3 -0.795609 2.683901 -1.55874 2.12132 -2.12132 
C 1.55874 -2.683901 0.795609 -3 0 -3 
C -0.795609 -3 -1.55874 -2.683901 -2.12132 -2.12132 
C -2.683901 -1.55874 -3 -0.795609 -3 0 
C -3 0.795609 -2.683901 1.55874 -2.12132 2.12132 
C -1.55874 2.683901 -0.795609 3 0 3 
z
" id="m08a25df7fc" style="stroke:#ffffff;stroke-width:0.75;"/>
    </defs>
    <g clip-path="url(#p1c6abda38a)">
     <use style="fill:#cc503e;stroke:#ffffff;stroke-width:0.75;" x="364.038397" xlink:href="#m08a25df7fc" y="29.7"/>
    </g>
   </g>
   <g id="line2d_1">
    <path clip-path="url(#p1c6abda38a)" d="M 242.025658 46.972727 
L 242.025658 12.427273 
" style="fill:none;stroke:#994e95;stroke-linecap:round;stroke-width:1.5;"/>
   </g>
   <g id="line2d_2">
    <path clip-path="url(#p1c6abda38a)" d="M 248.343611 46.972727 
L 248.343611 12.427273 
" style="fill:none;stroke:#38a6a5;stroke-linecap:round;stroke-width:1.5;"/>
   </g>
   <g id="patch_3">
    <path d="M 14.571094 48.7 
L 990.096094 48.7 
" style="fill:none;stroke:#262626;stroke-linecap:square;stroke-linejoin:miter;stroke-width:0.8;"/>
   </g>
  </g>
  <g id="axes_2">
   <g id="patch_4">
    <path d="M 14.571094 118 
L 990.096094 118 
L 990.096094 80 
L 14.571094 80 
z
" style="fill:none;"/>
   </g>
   <g id="matplotlib.axis_3">
    <g id="xtick_6">
     <g id="text_6">
      <!-- −2 -->
      <g style="fill:#262626;" transform="translate(7.2 132.598438)scale(0.1 -0.1)">
       <use xlink:href="#DejaVuSans-8722"/>
       <use x="83.789062" xlink:href="#DejaVuSans-50"/>
      </g>
     </g>
    </g>
    <g id="xtick_7">
     <g id="text_7">
      <!-- 0 -->
      <g style="fill:#262626;" transform="translate(221.180166 132.598438)scale(0.1 -0.1)">
       <use xlink:href="#DejaVuSans-48"/>
      </g>
     </g>
    </g>
    <g id="xtick_8">
     <g id="text_8">
      <!-- 2 -->
      <g style="fill:#262626;" transform="translate(430.970489 132.598438)scale(0.1 -0.1)">
       <use xlink:href="#DejaVuSans-50"/>
      </g>
     </g>
    </g>
    <g id="xtick_9">
     <g id="text_9">
      <!-- 4 -->
      <g style="fill:#262626;" transform="translate(640.760811 132.598438)scale(0.1 -0.1)">
       <use xlink:href="#DejaVuSans-52"/>
      </g>
     </g>
    </g>
    <g id="xtick_10">
     <g id="text_10">
      <!-- 6 -->
      <g style="fill:#262626;" transform="translate(850.551134 132.598438)scale(0.1 -0.1)">
       <use xlink:href="#DejaVuSans-54"/>
      </g>
     </g>
    </g>
   </g>
   <g id="matplotlib.axis_4">
    <g id="ytick_4"/>
    <g id="ytick_5"/>
    <g id="ytick_6"/>
   </g>
   <g id="PathCollection_3">
    <g clip-path="url(#p1bef9beba8)">
     <use style="fill:#1d6996;stroke:#ffffff;stroke-width:0.75;" x="299.39072" xlink:href="#m470a80b84b" y="99"/>
     <use style="fill:#1d6996;stroke:#ffffff;stroke-width:0.75;" x="62.256403" xlink:href="#m470a80b84b" y="99"/>
     <use style="fill:#1d6996;stroke:#ffffff;stroke-width:0.75;" x="223.481991" xlink:href="#m470a80b84b" y="99"/>
     <use style="fill:#1d6996;stroke:#ffffff;stroke-width:0.75;" x="289.536554" xlink:href="#m470a80b84b" y="99"/>
     <use style="fill:#1d6996;stroke:#ffffff;stroke-width:0.75;" x="148.827925" xlink:href="#m470a80b84b" y="99"/>
     <use style="fill:#1d6996;stroke:#ffffff;stroke-width:0.75;" x="252.212297" xlink:href="#m470a80b84b" y="99"/>
     <use style="fill:#1d6996;stroke:#ffffff;stroke-width:0.75;" x="235.747631" xlink:href="#m470a80b84b" y="99"/>
     <use style="fill:#1d6996;stroke:#ffffff;stroke-width:0.75;" x="224.811567" xlink:href="#m470a80b84b" y="99"/>
     <use style="fill:#1d6996;stroke:#ffffff;stroke-width:0.75;" x="206.046699" xlink:href="#m470a80b84b" y="99"/>
     <use style="fill:#1d6996;stroke:#ffffff;stroke-width:0.75;" x="269.783768" xlink:href="#m470a80b84b" y="99"/>
     <use style="fill:#1d6996;stroke:#ffffff;stroke-width:0.75;" x="350.554216" xlink:href="#m470a80b84b" y="99"/>
     <use style="fill:#1d6996;stroke:#ffffff;stroke-width:0.75;" x="123.130697" xlink:href="#m470a80b84b" y="99"/>
     <use style="fill:#1d6996;stroke:#ffffff;stroke-width:0.75;" x="332.222392" xlink:href="#m470a80b84b" y="99"/>
     <use style="fill:#1d6996;stroke:#ffffff;stroke-width:0.75;" x="248.343611" xlink:href="#m470a80b84b" y="99"/>
    </g>
   </g>
   <g id="PathCollection_4">
    <g clip-path="url(#p1bef9beba8)">
     <use style="fill:#cc503e;stroke:#ffffff;stroke-width:0.75;" x="434.151739" xlink:href="#m08a25df7fc" y="99"/>
    </g>
   </g>
   <g id="line2d_3">
    <path clip-path="url(#p1bef9beba8)" d="M 246.699881 116.272727 
L 246.699881 81.727273 
" style="fill:none;stroke:#994e95;stroke-linecap:round;stroke-width:1.5;"/>
   </g>
   <g id="line2d_4">
    <path clip-path="url(#p1bef9beba8)" d="M 248.343611 116.272727 
L 248.343611 81.727273 
" style="fill:none;stroke:#38a6a5;stroke-linecap:round;stroke-width:1.5;"/>
   </g>
   <g id="patch_5">
    <path d="M 14.571094 118 
L 990.096094 118 
" style="fill:none;stroke:#262626;stroke-linecap:square;stroke-linejoin:miter;stroke-width:0.8;"/>
   </g>
  </g>
  <g id="axes_3">
   <g id="patch_6">
    <path d="M 14.571094 187.3 
L 990.096094 187.3 
L 990.096094 149.3 
L 14.571094 149.3 
z
" style="fill:none;"/>
   </g>
   <g id="matplotlib.axis_5">
    <g id="xtick_11">
     <g id="text_11">
      <!-- −2 -->
      <g style="fill:#262626;" transform="translate(7.2 201.898438)scale(0.1 -0.1)">
       <use xlink:href="#DejaVuSans-8722"/>
       <use x="83.789062" xlink:href="#DejaVuSans-50"/>
      </g>
     </g>
    </g>
    <g id="xtick_12">
     <g id="text_12">
      <!-- 0 -->
      <g style="fill:#262626;" transform="translate(221.180166 201.898438)scale(0.1 -0.1)">
       <use xlink:href="#DejaVuSans-48"/>
      </g>
     </g>
    </g>
    <g id="xtick_13">
     <g id="text_13">
      <!-- 2 -->
      <g style="fill:#262626;" transform="translate(430.970489 201.898438)scale(0.1 -0.1)">
       <use xlink:href="#DejaVuSans-50"/>
      </g>
     </g>
    </g>
    <g id="xtick_14">
     <g id="text_14">
      <!-- 4 -->
      <g style="fill:#262626;" transform="translate(640.760811 201.898438)scale(0.1 -0.1)">
       <use xlink:href="#DejaVuSans-52"/>
      </g>
     </g>
    </g>
    <g id="xtick_15">
     <g id="text_15">
      <!-- 6 -->
      <g style="fill:#262626;" transform="translate(850.551134 201.898438)scale(0.1 -0.1)">
       <use xlink:href="#DejaVuSans-54"/>
      </g>
     </g>
    </g>
   </g>
   <g id="matplotlib.axis_6">
    <g id="ytick_7"/>
    <g id="ytick_8"/>
    <g id="ytick_9"/>
   </g>
   <g id="PathCollection_5">
    <g clip-path="url(#paf05d7fea5)">
     <use style="fill:#1d6996;stroke:#ffffff;stroke-width:0.75;" x="299.39072" xlink:href="#m470a80b84b" y="168.3"/>
     <use style="fill:#1d6996;stroke:#ffffff;stroke-width:0.75;" x="62.256403" xlink:href="#m470a80b84b" y="168.3"/>
     <use style="fill:#1d6996;stroke:#ffffff;stroke-width:0.75;" x="223.481991" xlink:href="#m470a80b84b" y="168.3"/>
     <use style="fill:#1d6996;stroke:#ffffff;stroke-width:0.75;" x="289.536554" xlink:href="#m470a80b84b" y="168.3"/>
     <use style="fill:#1d6996;stroke:#ffffff;stroke-width:0.75;" x="148.827925" xlink:href="#m470a80b84b" y="168.3"/>
     <use style="fill:#1d6996;stroke:#ffffff;stroke-width:0.75;" x="252.212297" xlink:href="#m470a80b84b" y="168.3"/>
     <use style="fill:#1d6996;stroke:#ffffff;stroke-width:0.75;" x="235.747631" xlink:href="#m470a80b84b" y="168.3"/>
     <use style="fill:#1d6996;stroke:#ffffff;stroke-width:0.75;" x="224.811567" xlink:href="#m470a80b84b" y="168.3"/>
     <use style="fill:#1d6996;stroke:#ffffff;stroke-width:0.75;" x="206.046699" xlink:href="#m470a80b84b" y="168.3"/>
     <use style="fill:#1d6996;stroke:#ffffff;stroke-width:0.75;" x="269.783768" xlink:href="#m470a80b84b" y="168.3"/>
     <use style="fill:#1d6996;stroke:#ffffff;stroke-width:0.75;" x="350.554216" xlink:href="#m470a80b84b" y="168.3"/>
     <use style="fill:#1d6996;stroke:#ffffff;stroke-width:0.75;" x="123.130697" xlink:href="#m470a80b84b" y="168.3"/>
     <use style="fill:#1d6996;stroke:#ffffff;stroke-width:0.75;" x="332.222392" xlink:href="#m470a80b84b" y="168.3"/>
     <use style="fill:#1d6996;stroke:#ffffff;stroke-width:0.75;" x="248.343611" xlink:href="#m470a80b84b" y="168.3"/>
    </g>
   </g>
   <g id="PathCollection_6">
    <g clip-path="url(#paf05d7fea5)">
     <use style="fill:#cc503e;stroke:#ffffff;stroke-width:0.75;" x="748.837223" xlink:href="#m08a25df7fc" y="168.3"/>
    </g>
   </g>
   <g id="line2d_5">
    <path clip-path="url(#paf05d7fea5)" d="M 267.678913 185.572727 
L 267.678913 151.027273 
" style="fill:none;stroke:#994e95;stroke-linecap:round;stroke-width:1.5;"/>
   </g>
   <g id="line2d_6">
    <path clip-path="url(#paf05d7fea5)" d="M 248.343611 185.572727 
L 248.343611 151.027273 
" style="fill:none;stroke:#38a6a5;stroke-linecap:round;stroke-width:1.5;"/>
   </g>
   <g id="patch_7">
    <path d="M 14.571094 187.3 
L 990.096094 187.3 
" style="fill:none;stroke:#262626;stroke-linecap:square;stroke-linejoin:miter;stroke-width:0.8;"/>
   </g>
  </g>
  <g id="axes_4">
   <g id="patch_8">
    <path d="M 14.571094 256.6 
L 990.096094 256.6 
L 990.096094 218.6 
L 14.571094 218.6 
z
" style="fill:none;"/>
   </g>
   <g id="matplotlib.axis_7">
    <g id="xtick_16">
     <g id="text_16">
      <!-- −2 -->
      <g style="fill:#262626;" transform="translate(7.2 271.198438)scale(0.1 -0.1)">
       <use xlink:href="#DejaVuSans-8722"/>
       <use x="83.789062" xlink:href="#DejaVuSans-50"/>
      </g>
     </g>
    </g>
    <g id="xtick_17">
     <g id="text_17">
      <!-- 0 -->
      <g style="fill:#262626;" transform="translate(221.180166 271.198438)scale(0.1 -0.1)">
       <use xlink:href="#DejaVuSans-48"/>
      </g>
     </g>
    </g>
    <g id="xtick_18">
     <g id="text_18">
      <!-- 2 -->
      <g style="fill:#262626;" transform="translate(430.970489 271.198438)scale(0.1 -0.1)">
       <use xlink:href="#DejaVuSans-50"/>
      </g>
     </g>
    </g>
    <g id="xtick_19">
     <g id="text_19">
      <!-- 4 -->
      <g style="fill:#262626;" transform="translate(640.760811 271.198438)scale(0.1 -0.1)">
       <use xlink:href="#DejaVuSans-52"/>
      </g>
     </g>
    </g>
    <g id="xtick_20">
     <g id="text_20">
      <!-- 6 -->
      <g style="fill:#262626;" transform="translate(850.551134 271.198438)scale(0.1 -0.1)">
       <use xlink:href="#DejaVuSans-54"/>
      </g>
     </g>
    </g>
   </g>
   <g id="matplotlib.axis_8">
    <g id="ytick_10"/>
    <g id="ytick_11"/>
    <g id="ytick_12"/>
   </g>
   <g id="PathCollection_7">
    <g clip-path="url(#pa4aaca1280)">
     <use style="fill:#1d6996;stroke:#ffffff;stroke-width:0.75;" x="299.39072" xlink:href="#m470a80b84b" y="237.6"/>
     <use style="fill:#1d6996;stroke:#ffffff;stroke-width:0.75;" x="62.256403" xlink:href="#m470a80b84b" y="237.6"/>
     <use style="fill:#1d6996;stroke:#ffffff;stroke-width:0.75;" x="223.481991" xlink:href="#m470a80b84b" y="237.6"/>
     <use style="fill:#1d6996;stroke:#ffffff;stroke-width:0.75;" x="289.536554" xlink:href="#m470a80b84b" y="237.6"/>
     <use style="fill:#1d6996;stroke:#ffffff;stroke-width:0.75;" x="148.827925" xlink:href="#m470a80b84b" y="237.6"/>
     <use style="fill:#1d6996;stroke:#ffffff;stroke-width:0.75;" x="252.212297" xlink:href="#m470a80b84b" y="237.6"/>
     <use style="fill:#1d6996;stroke:#ffffff;stroke-width:0.75;" x="235.747631" xlink:href="#m470a80b84b" y="237.6"/>
     <use style="fill:#1d6996;stroke:#ffffff;stroke-width:0.75;" x="224.811567" xlink:href="#m470a80b84b" y="237.6"/>
     <use style="fill:#1d6996;stroke:#ffffff;stroke-width:0.75;" x="206.046699" xlink:href="#m470a80b84b" y="237.6"/>
     <use style="fill:#1d6996;stroke:#ffffff;stroke-width:0.75;" x="269.783768" xlink:href="#m470a80b84b" y="237.6"/>
     <use style="fill:#1d6996;stroke:#ffffff;stroke-width:0.75;" x="350.554216" xlink:href="#m470a80b84b" y="237.6"/>
     <use style="fill:#1d6996;stroke:#ffffff;stroke-width:0.75;" x="123.130697" xlink:href="#m470a80b84b" y="237.6"/>
     <use style="fill:#1d6996;stroke:#ffffff;stroke-width:0.75;" x="332.222392" xlink:href="#m470a80b84b" y="237.6"/>
     <use style="fill:#1d6996;stroke:#ffffff;stroke-width:0.75;" x="248.343611" xlink:href="#m470a80b84b" y="237.6"/>
    </g>
   </g>
   <g id="PathCollection_8">
    <g clip-path="url(#pa4aaca1280)">
     <use style="fill:#cc503e;stroke:#ffffff;stroke-width:0.75;" x="958.627545" xlink:href="#m08a25df7fc" y="237.6"/>
    </g>
   </g>
   <g id="line2d_7">
    <path clip-path="url(#pa4aaca1280)" d="M 281.664934 254.872727 
L 281.664934 220.327273 
" style="fill:none;stroke:#994e95;stroke-linecap:round;stroke-width:1.5;"/>
   </g>
   <g id="line2d_8">
    <path clip-path="url(#pa4aaca1280)" d="M 248.343611 254.872727 
L 248.343611 220.327273 
" style="fill:none;stroke:#38a6a5;stroke-linecap:round;stroke-width:1.5;"/>
   </g>
   <g id="patch_9">
    <path d="M 14.571094 256.6 
L 990.096094 256.6 
" style="fill:none;stroke:#262626;stroke-linecap:square;stroke-linejoin:miter;stroke-width:0.8;"/>
   </g>
  </g>
 </g>
 <defs>
  <clipPath id="p1c6abda38a">
   <rect height="38" width="975.525" x="14.571094" y="10.7"/>
  </clipPath>
  <clipPath id="p1bef9beba8">
   <rect height="38" width="975.525" x="14.571094" y="80"/>
  </clipPath>
  <clipPath id="paf05d7fea5">
   <rect height="38" width="975.525" x="14.571094" y="149.3"/>
  </clipPath>
  <clipPath id="pa4aaca1280">
   <rect height="38" width="975.525" x="14.571094" y="218.6"/>
  </clipPath>
 </defs>
</svg>
