<?xml version="1.0" encoding="UTF-8" standalone="no"?>
<!-- Generator: Adobe Illustrator 23.0.2, SVG Export Plug-In . SVG Version: 6.00 Build 0)  -->

<svg
   xmlns:dc="http://purl.org/dc/elements/1.1/"
   xmlns:cc="http://creativecommons.org/ns#"
   xmlns:rdf="http://www.w3.org/1999/02/22-rdf-syntax-ns#"
   xmlns:svg="http://www.w3.org/2000/svg"
   xmlns="http://www.w3.org/2000/svg"
   xmlns:sodipodi="http://sodipodi.sourceforge.net/DTD/sodipodi-0.dtd"
   xmlns:inkscape="http://www.inkscape.org/namespaces/inkscape"
   version="1.1"
   id="Capa_2"
   x="0px"
   y="0px"
   viewBox="0 0 447 249.9"
   style="enable-background:new 0 0 447 249.9;"
   xml:space="preserve"
   sodipodi:docname="ML-example-3.svg"
   inkscape:version="0.92.4 (5da689c313, 2019-01-14)"><metadata
   id="metadata223"><rdf:RDF><cc:Work
       rdf:about=""><dc:format>image/svg+xml</dc:format><dc:type
         rdf:resource="http://purl.org/dc/dcmitype/StillImage" /></cc:Work></rdf:RDF></metadata><defs
   id="defs221" /><sodipodi:namedview
   pagecolor="#ffffff"
   bordercolor="#666666"
   borderopacity="1"
   objecttolerance="10"
   gridtolerance="10"
   guidetolerance="10"
   inkscape:pageopacity="0"
   inkscape:pageshadow="2"
   inkscape:window-width="1920"
   inkscape:window-height="1015"
   id="namedview219"
   showgrid="false"
   inkscape:zoom="2.2652727"
   inkscape:cx="368.50032"
   inkscape:cy="62.363429"
   inkscape:window-x="1440"
   inkscape:window-y="0"
   inkscape:window-maximized="1"
   inkscape:current-layer="Capa_2" />
<style
   type="text/css"
   id="style2">
	.st0{fill:none;stroke:#D2792A;stroke-miterlimit:10;}
	.st1{fill:none;stroke:#D2792A;stroke-miterlimit:10;stroke-dasharray:4.9507,4.9507;}
	.st2{fill:none;stroke:#973087;stroke-miterlimit:10;}
	.st3{fill:none;stroke:#973087;stroke-miterlimit:10;stroke-dasharray:3.1256,3.1256;}
	.st4{fill:none;stroke:#3863A7;stroke-miterlimit:10;}
	.st5{fill:none;stroke:#3863A7;stroke-miterlimit:10;stroke-dasharray:6.491,6.491;}
	.st6{fill:none;stroke:#973087;stroke-miterlimit:10;stroke-dasharray:5.6514;}
	.st7{fill:none;stroke:#D2792A;stroke-miterlimit:10;stroke-dasharray:4.0205,4.0205;}
	.st8{fill:#909090;}
	.st9{fill:none;stroke:#BD3931;stroke-width:0.75;stroke-miterlimit:10;}
	.st10{fill:#3863A7;}
	.st11{fill:#973087;}
	.st12{fill:#D2792A;}
	.st13{fill:none;stroke:#3863A7;stroke-miterlimit:10;stroke-dasharray:5.8697,5.8697;}
	.st14{fill:none;stroke:#973087;stroke-miterlimit:10;stroke-dasharray:7.6962,7.6962;}
	.st15{fill:none;stroke:#BCBCBC;stroke-width:0.75;stroke-miterlimit:10;}
	.st16{fill:#ACABB1;}
	.st17{font-family:'MyriadPro-Regular';}
	.st18{font-size:12px;}
	.st19{fill:#606060;}
</style>
<g
   id="g12">
	<g
   id="g10">
		<line
   class="st0"
   x1="26.05"
   y1="128.73"
   x2="26.05"
   y2="125.73"
   id="line4" />
		<line
   class="st1"
   x1="26.05"
   y1="120.78"
   x2="26.05"
   y2="103.45"
   id="line6" />
		<line
   class="st0"
   x1="26.05"
   y1="100.98"
   x2="26.05"
   y2="97.98"
   id="line8" />
	</g>
</g>
<g
   id="g22">
	<g
   id="g20">
		<line
   class="st2"
   x1="78.49"
   y1="55.96"
   x2="78.49"
   y2="52.96"
   id="line14" />
		<line
   class="st3"
   x1="78.49"
   y1="49.83"
   x2="78.49"
   y2="45.14"
   id="line16" />
		<line
   class="st2"
   x1="78.49"
   y1="43.58"
   x2="78.49"
   y2="40.58"
   id="line18" />
	</g>
</g>
<g
   id="g32">
	<g
   id="g30">
		<line
   class="st4"
   x1="131.17"
   y1="39.22"
   x2="131.17"
   y2="36.22"
   id="line24" />
		<line
   class="st5"
   x1="131.17"
   y1="29.73"
   x2="131.17"
   y2="19.99"
   id="line26" />
		<line
   class="st4"
   x1="131.17"
   y1="16.74"
   x2="131.17"
   y2="13.74"
   id="line28" />
	</g>
</g>
<g
   id="g36">
	<line
   class="st6"
   x1="226.11"
   y1="46.45"
   x2="226.11"
   y2="40.8"
   id="line34" />
</g>
<g
   id="g46">
	<g
   id="g44">
		<line
   class="st0"
   x1="173.66"
   y1="127.8"
   x2="173.66"
   y2="124.8"
   id="line38" />
		<line
   class="st7"
   x1="173.66"
   y1="120.78"
   x2="173.66"
   y2="114.75"
   id="line40" />
		<line
   class="st0"
   x1="173.66"
   y1="112.74"
   x2="173.66"
   y2="109.74"
   id="line42" />
	</g>
</g>
<g
   id="g54">
	<g
   id="g52">
		<line
   class="st4"
   x1="277.2"
   y1="39.87"
   x2="277.2"
   y2="36.87"
   id="line48" />
		<line
   class="st4"
   x1="277.2"
   y1="36.22"
   x2="277.2"
   y2="33.22"
   id="line50" />
	</g>
</g>
<circle
   class="st8"
   cx="123.44"
   cy="27.91"
   r="1.58"
   id="circle56" />
<circle
   class="st8"
   cx="116.43"
   cy="42.38"
   r="1.58"
   id="circle58" />
<circle
   class="st8"
   cx="97.98"
   cy="33.56"
   r="1.58"
   id="circle60" />
<circle
   class="st8"
   cx="88.85"
   cy="52.81"
   r="1.58"
   id="circle62" />
<circle
   class="st8"
   cx="68.28"
   cy="45.54"
   r="1.58"
   id="circle64" />
<circle
   class="st8"
   cx="63.3"
   cy="64.53"
   r="1.58"
   id="circle66" />
<circle
   class="st8"
   cx="20.58"
   cy="115.1"
   r="1.58"
   id="circle68" />
<circle
   class="st8"
   cx="45.92"
   cy="64.53"
   r="1.58"
   id="circle70" />
<circle
   class="st8"
   cx="33.47"
   cy="78.09"
   r="1.58"
   id="circle72" />
<circle
   class="st8"
   cx="30.3"
   cy="107.26"
   r="1.58"
   id="circle74" />
<line
   class="st9"
   x1="137.66"
   y1="8.54"
   x2="10.07"
   y2="110.78"
   id="line76" />
<circle
   class="st10"
   cx="131.17"
   cy="40.34"
   r="1.58"
   id="circle78" />
<circle
   class="st11"
   cx="78.49"
   cy="40.34"
   r="1.58"
   id="circle80" />
<circle
   class="st12"
   cx="26.05"
   cy="128.73"
   r="1.58"
   id="circle82" />
<g
   id="g92">
	<g
   id="g90">
		<line
   class="st4"
   x1="431.71"
   y1="40.34"
   x2="431.71"
   y2="37.34"
   id="line84" />
		<line
   class="st13"
   x1="431.71"
   y1="31.47"
   x2="431.71"
   y2="10.93"
   id="line86" />
		<line
   class="st4"
   x1="431.71"
   y1="7.99"
   x2="431.71"
   y2="4.99"
   id="line88" />
	</g>
</g>
<g
   id="g102">
	<g
   id="g100">
		<line
   class="st2"
   x1="379.03"
   y1="40.34"
   x2="379.03"
   y2="43.34"
   id="line94" />
		<line
   class="st14"
   x1="379.03"
   y1="51.04"
   x2="379.03"
   y2="62.58"
   id="line96" />
		<line
   class="st2"
   x1="379.03"
   y1="66.43"
   x2="379.03"
   y2="69.43"
   id="line98" />
	</g>
</g>
<g
   id="g110">
	<g
   id="g108">
		<line
   class="st0"
   x1="326.58"
   y1="128.25"
   x2="326.58"
   y2="131.25"
   id="line104" />
		<line
   class="st0"
   x1="326.58"
   y1="134.78"
   x2="326.58"
   y2="137.78"
   id="line106" />
	</g>
</g>
<path
   class="st9"
   d="M438.72,16.16c0,0-5.51-23.96-10.21-3.39c-4.71,20.57-16.06,45.89-22.36,38.88s-8.7-25.32-8.7-25.32  c-3.71-17.86-5.06-8.59-9.13,11.53s-7.46,40.46-11.98,28.26c-4.52-12.21-7.01-45.21-10.4-32.55c-3.39,12.66-5.65,55.69-12.66,45.93  c-7.01-9.76-8.59-37.57-13.34-32.37s-6.57,102.24-11.76,93.96c-5.19-8.28-6.55-33.45-6.55-33.45"
   id="path112" />
<circle
   class="st8"
   cx="424.47"
   cy="27.91"
   r="1.58"
   id="circle114" />
<circle
   class="st8"
   cx="417.47"
   cy="42.38"
   r="1.58"
   id="circle116" />
<circle
   class="st8"
   cx="399.02"
   cy="33.56"
   r="1.58"
   id="circle118" />
<circle
   class="st8"
   cx="386.27"
   cy="47.32"
   r="1.58"
   id="circle120" />
<circle
   class="st8"
   cx="371.97"
   cy="45.53"
   r="1.58"
   id="circle122" />
<circle
   class="st8"
   cx="361.18"
   cy="64.53"
   r="1.58"
   id="circle124" />
<circle
   class="st8"
   cx="322.2"
   cy="115.1"
   r="1.58"
   id="circle126" />
<circle
   class="st8"
   cx="346.95"
   cy="64.53"
   r="1.58"
   id="circle128" />
<circle
   class="st8"
   cx="335.66"
   cy="78.6"
   r="1.58"
   id="circle130" />
<circle
   class="st8"
   cx="332.92"
   cy="107.26"
   r="1.58"
   id="circle132" />
<circle
   class="st10"
   cx="431.71"
   cy="40.34"
   r="1.58"
   id="circle134" />
<circle
   class="st11"
   cx="379.03"
   cy="40.34"
   r="1.58"
   id="circle136" />
<circle
   class="st12"
   cx="326.58"
   cy="128.73"
   r="1.58"
   id="circle138" />
<path
   class="st9"
   d="M167.79,130.77c1.4-8.32,9.42-51.01,48.83-77.76c25.27-17.16,50.88-19.23,62.17-19.44"
   id="path140" />
<circle
   class="st8"
   cx="271.55"
   cy="27.91"
   r="1.58"
   id="circle142" />
<circle
   class="st8"
   cx="264.54"
   cy="42.38"
   r="1.58"
   id="circle144" />
<circle
   class="st8"
   cx="246.1"
   cy="33.56"
   r="1.58"
   id="circle146" />
<circle
   class="st8"
   cx="236.96"
   cy="50.06"
   r="1.58"
   id="circle148" />
<circle
   class="st8"
   cx="216.39"
   cy="45.54"
   r="1.58"
   id="circle150" />
<circle
   class="st8"
   cx="211.42"
   cy="64.53"
   r="1.58"
   id="circle152" />
<circle
   class="st8"
   cx="168.69"
   cy="115.1"
   r="1.58"
   id="circle154" />
<circle
   class="st8"
   cx="194.03"
   cy="64.53"
   r="1.58"
   id="circle156" />
<circle
   class="st8"
   cx="181.58"
   cy="78.09"
   r="1.58"
   id="circle158" />
<circle
   class="st8"
   cx="178.42"
   cy="107.26"
   r="1.58"
   id="circle160" />
<circle
   class="st10"
   cx="277.2"
   cy="40.46"
   r="1.58"
   id="circle162" />
<circle
   class="st12"
   cx="173.66"
   cy="129.18"
   r="1.58"
   id="circle164" />
<circle
   class="st12"
   cx="173.66"
   cy="129.18"
   r="1.58"
   id="circle166" />
<circle
   class="st11"
   cx="226.11"
   cy="40.8"
   r="1.58"
   id="circle168" />
<line
   class="st15"
   x1="29.43"
   y1="156.88"
   x2="29.43"
   y2="228.67"
   id="line170" />
<line
   class="st15"
   x1="94.01"
   y1="228.67"
   x2="29.43"
   y2="228.67"
   id="line172" />
<text
   transform="matrix(6.123234e-17 -1 1 6.123234e-17 24.464 203.3849)"
   class="st16 st17 st18"
   id="text174"
   style="-inkscape-font-specification:'Laksaman, Normal';font-family:Laksaman;font-weight:normal;font-style:normal;font-stretch:normal;font-variant:normal;font-size:12px;text-anchor:start;text-align:start;writing-mode:lr;font-variant-ligatures:normal;font-variant-caps:normal;font-variant-numeric:normal;font-feature-settings:normal;">Error</text>


<rect
   x="39.14"
   y="182.43"
   class="st16"
   width="16.93"
   height="46.24"
   id="rect176" />
<rect
   x="67.45"
   y="212.99"
   class="st10"
   width="16.93"
   height="15.67"
   id="rect178" />
<rect
   x="67.45"
   y="204.22"
   class="st11"
   width="16.93"
   height="8.78"
   id="rect180" />
<rect
   x="67.45"
   y="185.49"
   class="st12"
   width="16.93"
   height="18.73"
   id="rect182" />
<line
   class="st15"
   x1="191.55"
   y1="156.88"
   x2="191.55"
   y2="228.67"
   id="line184" />
<line
   class="st15"
   x1="256.12"
   y1="228.67"
   x2="191.55"
   y2="228.67"
   id="line186" />
<text
   transform="matrix(6.123234e-17 -1 1 6.123234e-17 186.5783 203.3849)"
   class="st16 st17 st18"
   id="text188"
   style="-inkscape-font-specification:'Laksaman, Normal';font-family:Laksaman;font-weight:normal;font-style:normal;font-stretch:normal;font-variant:normal;font-size:12px;text-anchor:start;text-align:start;writing-mode:lr;font-variant-ligatures:normal;font-variant-caps:normal;font-variant-numeric:normal;font-feature-settings:normal;">Error</text>


<rect
   x="201.25"
   y="204.22"
   class="st16"
   width="16.93"
   height="24.45"
   id="rect190" />
<rect
   x="229.56"
   y="224.28"
   class="st10"
   width="16.93"
   height="4.39"
   id="rect192" />
<rect
   x="229.56"
   y="218.17"
   class="st11"
   width="16.93"
   height="6.11"
   id="rect194" />
<rect
   x="229.56"
   y="210.94"
   class="st12"
   width="16.93"
   height="7.79"
   id="rect196" />
<line
   class="st15"
   x1="359.16"
   y1="156.88"
   x2="359.16"
   y2="228.67"
   id="line198" />
<line
   class="st15"
   x1="423.74"
   y1="228.67"
   x2="359.16"
   y2="228.67"
   id="line200" />
<text
   transform="matrix(6.123234e-17 -1 1 6.123234e-17 354.1937 203.3849)"
   class="st16 st17 st18"
   id="text202"
   style="-inkscape-font-specification:'Laksaman, Normal';font-family:Laksaman;font-weight:normal;font-style:normal;font-stretch:normal;font-variant:normal;font-size:12px;text-anchor:start;text-align:start;writing-mode:lr;font-variant-ligatures:normal;font-variant-caps:normal;font-variant-numeric:normal;font-feature-settings:normal;">Error</text>


<rect
   x="368.87"
   y="226.47"
   class="st16"
   width="16.93"
   height="2.19"
   id="rect204" />
<rect
   x="397.17"
   y="210.33"
   class="st10"
   width="16.93"
   height="18.34"
   id="rect206" />
<rect
   x="397.17"
   y="188.54"
   class="st11"
   width="16.93"
   height="21.79"
   id="rect208" />
<rect
   x="397.17"
   y="182.43"
   class="st12"
   width="16.93"
   height="6.11"
   id="rect210" />
<text
   transform="matrix(1 0 0 1 194.0305 242.4595)"
   class="st19 st17 st18"
   id="text212"
   style="-inkscape-font-specification:'Laksaman, Normal';font-family:Laksaman;font-weight:normal;font-style:normal;font-stretch:normal;font-variant:normal;font-size:12px;text-anchor:start;text-align:start;writing-mode:lr;font-variant-ligatures:normal;font-variant-caps:normal;font-variant-numeric:normal;font-feature-settings:normal;">Good fitting</text>


<text
   transform="matrix(1 0 0 1 31.883 243.4595)"
   class="st19 st17 st18"
   id="text214"
   style="-inkscape-font-specification:'Laksaman, Normal';font-family:Laksaman;font-weight:normal;font-style:normal;font-stretch:normal;font-variant:normal;font-size:12px;text-anchor:start;text-align:start;writing-mode:lr;font-variant-ligatures:normal;font-variant-caps:normal;font-variant-numeric:normal;font-feature-settings:normal;">Underfitting</text>


<text
   transform="matrix(1 0 0 1 365.8104 243.4595)"
   class="st19 st17 st18"
   id="text216"
   style="-inkscape-font-specification:'Laksaman, Normal';font-family:Laksaman;font-weight:normal;font-style:normal;font-stretch:normal;font-variant:normal;font-size:12px;text-anchor:start;text-align:start;writing-mode:lr;font-variant-ligatures:normal;font-variant-caps:normal;font-variant-numeric:normal;font-feature-settings:normal;">Overfitting</text>


<text
   xml:space="preserve"
   style="font-style:normal;font-weight:normal;font-size:10.80146662px;line-height:1.25;font-family:Laksaman;letter-spacing:0px;word-spacing:0px;fill:#909090;fill-opacity:1;stroke:none;stroke-width:0.27003586;-inkscape-font-specification:'Laksaman, Normal';font-stretch:normal;font-variant:normal;text-anchor:start;text-align:start;writing-mode:lr;font-variant-ligatures:normal;font-variant-caps:normal;font-variant-numeric:normal;font-feature-settings:normal;"
   x="259.50845"
   y="191.5538"
   id="text921"><tspan
     sodipodi:role="line"
     id="tspan919"
     x="259.50845"
     y="191.5538"
     style="stroke-width:0.27003586;-inkscape-font-specification:'Laksaman, Normal';font-family:Laksaman;font-weight:normal;font-style:normal;font-stretch:normal;font-variant:normal;font-size:10.80146662px;text-anchor:start;text-align:start;writing-mode:lr;font-variant-ligatures:normal;font-variant-caps:normal;font-variant-numeric:normal;font-feature-settings:normal;fill:#909090;fill-opacity:1;">Training set</tspan><tspan
     sodipodi:role="line"
     x="259.50845"
     y="205.0556"
     style="stroke-width:0.27003586;-inkscape-font-specification:'Laksaman, Normal';font-family:Laksaman;font-weight:normal;font-style:normal;font-stretch:normal;font-variant:normal;font-size:10.80146662px;text-anchor:start;text-align:start;writing-mode:lr;font-variant-ligatures:normal;font-variant-caps:normal;font-variant-numeric:normal;font-feature-settings:normal;fill:#909090;fill-opacity:1;"
     id="tspan923"><tspan
   style="fill:#d2792a;fill-opacity:1"
   id="tspan925">Te</tspan><tspan
   style="fill:#973087;fill-opacity:1"
   id="tspan927">st</tspan> <tspan
   style="fill:#3863a7;fill-opacity:1"
   id="tspan929">set</tspan></tspan></text>
</svg>