<?xml version="1.0" encoding="UTF-8" standalone="no"?>
<!-- Generator: Adobe Illustrator 23.0.0, SVG Export Plug-In . SVG Version: 6.00 Build 0)  -->

<svg
   xmlns:dc="http://purl.org/dc/elements/1.1/"
   xmlns:cc="http://creativecommons.org/ns#"
   xmlns:rdf="http://www.w3.org/1999/02/22-rdf-syntax-ns#"
   xmlns:svg="http://www.w3.org/2000/svg"
   xmlns="http://www.w3.org/2000/svg"
   xmlns:sodipodi="http://sodipodi.sourceforge.net/DTD/sodipodi-0.dtd"
   xmlns:inkscape="http://www.inkscape.org/namespaces/inkscape"
   version="1.1"
   id="Capa_1"
   x="0px"
   y="0px"
   viewBox="0 0 447 157"
   style="enable-background:new 0 0 447 157;"
   xml:space="preserve"
   sodipodi:docname="ML-example-1.svg"
   inkscape:version="0.92.4 (5da689c313, 2019-01-14)"><metadata
   id="metadata87"><rdf:RDF><cc:Work
       rdf:about=""><dc:format>image/svg+xml</dc:format><dc:type
         rdf:resource="http://purl.org/dc/dcmitype/StillImage" /></cc:Work></rdf:RDF></metadata><defs
   id="defs85" /><sodipodi:namedview
   pagecolor="#ffffff"
   bordercolor="#666666"
   borderopacity="1"
   objecttolerance="10"
   gridtolerance="10"
   guidetolerance="10"
   inkscape:pageopacity="0"
   inkscape:pageshadow="2"
   inkscape:window-width="1440"
   inkscape:window-height="871"
   id="namedview83"
   showgrid="false"
   inkscape:zoom="6.4071588"
   inkscape:cx="228.64309"
   inkscape:cy="50.773519"
   inkscape:window-x="0"
   inkscape:window-y="0"
   inkscape:window-maximized="1"
   inkscape:current-layer="Capa_1" />
<style
   type="text/css"
   id="style2">
	.st0{fill:#909090;}
	.st1{fill:none;stroke:#BD3931;stroke-width:0.75;stroke-miterlimit:10;}
	.st2{fill:none;stroke:#909090;stroke-miterlimit:10;stroke-dasharray:6;}
	.st3{font-family:'MyriadPro-Regular';}
	.st4{font-size:12px;}
	.st5{fill:#BD3931;}
</style>
<circle
   class="st0"
   cx="123.7"
   cy="36.1"
   r="1.6"
   id="circle4" />
<circle
   class="st0"
   cx="116.6"
   cy="50.6"
   r="1.6"
   id="circle6" />
<circle
   class="st0"
   cx="98.2"
   cy="41.8"
   r="1.6"
   id="circle8" />
<circle
   class="st0"
   cx="89.1"
   cy="61"
   r="1.6"
   id="circle10" />
<circle
   class="st0"
   cx="68.5"
   cy="53.7"
   r="1.6"
   id="circle12" />
<circle
   class="st0"
   cx="63.5"
   cy="72.7"
   r="1.6"
   id="circle14" />
<circle
   class="st0"
   cx="20.8"
   cy="123.3"
   r="1.6"
   id="circle16" />
<circle
   class="st0"
   cx="46.1"
   cy="72.7"
   r="1.6"
   id="circle18" />
<circle
   class="st0"
   cx="33.7"
   cy="86.3"
   r="1.6"
   id="circle20" />
<circle
   class="st0"
   cx="30.5"
   cy="115.5"
   r="1.6"
   id="circle22" />
<line
   class="st1"
   x1="137.9"
   y1="16.7"
   x2="10.3"
   y2="119"
   id="line24" />
<path
   class="st1"
   d="M438.9,24.4c0,0-5.5-24-10.2-3.4s-16.1,45.9-22.4,38.9c-6.3-7-8.7-25.3-8.7-25.3c-3.7-17.9-5.1-8.6-9.1,11.5  s-7.5,40.5-12,28.3c-4.5-12.2-7-45.2-10.4-32.5c-3.4,12.7-5.6,55.7-12.7,45.9s-8.6-37.6-13.3-32.4s-6.6,102.2-11.8,94  s-6.5-33.4-6.5-33.4"
   id="path26" />
<circle
   class="st0"
   cx="424.7"
   cy="36.1"
   r="1.6"
   id="circle28" />
<circle
   class="st0"
   cx="417.7"
   cy="50.6"
   r="1.6"
   id="circle30" />
<circle
   class="st0"
   cx="399.2"
   cy="41.8"
   r="1.6"
   id="circle32" />
<circle
   class="st0"
   cx="386.5"
   cy="55.5"
   r="1.6"
   id="circle34" />
<circle
   class="st0"
   cx="372.2"
   cy="53.7"
   r="1.6"
   id="circle36" />
<circle
   class="st0"
   cx="361.4"
   cy="72.7"
   r="1.6"
   id="circle38" />
<circle
   class="st0"
   cx="322.4"
   cy="123.3"
   r="1.6"
   id="circle40" />
<circle
   class="st0"
   cx="347.2"
   cy="72.7"
   r="1.6"
   id="circle42" />
<circle
   class="st0"
   cx="335.9"
   cy="86.8"
   r="1.6"
   id="circle44" />
<circle
   class="st0"
   cx="333.1"
   cy="115.5"
   r="1.6"
   id="circle46" />
<path
   class="st1"
   d="M168,139c1.4-8.3,9.4-51,48.8-77.8C242.1,44,267.7,42,279,41.8"
   id="path48" />
<circle
   class="st0"
   cx="271.8"
   cy="36.1"
   r="1.6"
   id="circle50" />
<circle
   class="st0"
   cx="264.8"
   cy="50.6"
   r="1.6"
   id="circle52" />
<circle
   class="st0"
   cx="246.3"
   cy="41.8"
   r="1.6"
   id="circle54" />
<circle
   class="st0"
   cx="237.2"
   cy="58.3"
   r="1.6"
   id="circle56" />
<circle
   class="st0"
   cx="216.6"
   cy="53.7"
   r="1.6"
   id="circle58" />
<circle
   class="st0"
   cx="211.6"
   cy="72.7"
   r="1.6"
   id="circle60" />
<circle
   class="st0"
   cx="168.9"
   cy="123.3"
   r="1.6"
   id="circle62" />
<circle
   class="st0"
   cx="194.2"
   cy="72.7"
   r="1.6"
   id="circle64" />
<circle
   class="st0"
   cx="181.8"
   cy="86.3"
   r="1.6"
   id="circle66" />
<circle
   class="st0"
   cx="178.6"
   cy="115.5"
   r="1.6"
   id="circle68" />
<line
   class="st2"
   x1="181.8"
   y1="86.3"
   x2="181.8"
   y2="99.9"
   id="line70" />
<line
   class="st2"
   x1="116.6"
   y1="33.8"
   x2="116.6"
   y2="51.3"
   id="line72" />
<text
   transform="translate(204.7198,104.0002)"
   id="text80"><tspan
     x="0"
     y="0"
     class="st0 st3 st4"
     id="tspan74"
     style="font-style:normal;font-variant:normal;font-weight:normal;font-stretch:normal;font-size:12px;font-family:Laksaman;-inkscape-font-specification:Laksaman;fill:#909090">d = |<tspan
   style="fill:#bd3931;fill-opacity:1"
   id="tspan898">y*</tspan> - y|</tspan></text>

</svg>