<?xml version="1.0" encoding="utf-8"?>
<!-- Generator: Adobe Illustrator 23.0.2, SVG Export Plug-In . SVG Version: 6.00 Build 0)  -->
<svg version="1.1" id="Capa_1" xmlns="http://www.w3.org/2000/svg" xmlns:xlink="http://www.w3.org/1999/xlink" x="0px" y="0px"
	 viewBox="0 0 447 157" style="enable-background:new 0 0 447 157;" xml:space="preserve">
<style type="text/css">
	.st0{fill:none;stroke:#D2792A;stroke-miterlimit:10;}
	.st1{fill:none;stroke:#D2792A;stroke-miterlimit:10;stroke-dasharray:4.9507,4.9507;}
	.st2{fill:none;stroke:#973087;stroke-miterlimit:10;}
	.st3{fill:none;stroke:#973087;stroke-miterlimit:10;stroke-dasharray:3.1256,3.1256;}
	.st4{fill:none;stroke:#3863A7;stroke-miterlimit:10;}
	.st5{fill:none;stroke:#3863A7;stroke-miterlimit:10;stroke-dasharray:6.491,6.491;}
	.st6{fill:none;stroke:#973087;stroke-miterlimit:10;stroke-dasharray:5.6514;}
	.st7{fill:none;stroke:#D2792A;stroke-miterlimit:10;stroke-dasharray:4.0205,4.0205;}
	.st8{fill:#909090;}
	.st9{fill:none;stroke:#BD3931;stroke-width:0.75;stroke-miterlimit:10;}
	.st10{fill:#3863A7;}
	.st11{fill:#973087;}
	.st12{fill:#D2792A;}
	.st13{fill:none;stroke:#3863A7;stroke-miterlimit:10;stroke-dasharray:5.8697,5.8697;}
	.st14{fill:none;stroke:#973087;stroke-miterlimit:10;stroke-dasharray:7.6962,7.6962;}
</style>
<g>
	<g>
		<line class="st0" x1="26.26" y1="136.93" x2="26.26" y2="133.93"/>
		<line class="st1" x1="26.26" y1="128.98" x2="26.26" y2="111.66"/>
		<line class="st0" x1="26.26" y1="109.18" x2="26.26" y2="106.18"/>
	</g>
</g>
<g>
	<g>
		<line class="st2" x1="78.71" y1="64.16" x2="78.71" y2="61.16"/>
		<line class="st3" x1="78.71" y1="58.03" x2="78.71" y2="53.34"/>
		<line class="st2" x1="78.71" y1="51.78" x2="78.71" y2="48.78"/>
	</g>
</g>
<g>
	<g>
		<line class="st4" x1="131.38" y1="47.42" x2="131.38" y2="44.42"/>
		<line class="st5" x1="131.38" y1="37.93" x2="131.38" y2="28.19"/>
		<line class="st4" x1="131.38" y1="24.95" x2="131.38" y2="21.95"/>
	</g>
</g>
<g>
	<line class="st6" x1="226.32" y1="54.65" x2="226.32" y2="49"/>
</g>
<g>
	<g>
		<line class="st0" x1="173.87" y1="136.01" x2="173.87" y2="133.01"/>
		<line class="st7" x1="173.87" y1="128.99" x2="173.87" y2="122.96"/>
		<line class="st0" x1="173.87" y1="120.95" x2="173.87" y2="117.95"/>
	</g>
</g>
<g>
	<g>
		<line class="st4" x1="277.42" y1="48.07" x2="277.42" y2="45.07"/>
		<line class="st4" x1="277.42" y1="44.42" x2="277.42" y2="41.42"/>
	</g>
</g>
<circle class="st8" cx="123.65" cy="36.11" r="1.58"/>
<circle class="st8" cx="116.64" cy="50.58" r="1.58"/>
<circle class="st8" cx="98.2" cy="41.76" r="1.58"/>
<circle class="st8" cx="89.06" cy="61.01" r="1.58"/>
<circle class="st8" cx="68.49" cy="53.74" r="1.58"/>
<circle class="st8" cx="63.52" cy="72.73" r="1.58"/>
<circle class="st8" cx="20.79" cy="123.3" r="1.58"/>
<circle class="st8" cx="46.13" cy="72.73" r="1.58"/>
<circle class="st8" cx="33.68" cy="86.3" r="1.58"/>
<circle class="st8" cx="30.51" cy="115.46" r="1.58"/>
<line class="st9" x1="137.88" y1="16.74" x2="10.29" y2="118.98"/>
<circle class="st10" cx="131.38" cy="48.55" r="1.58"/>
<circle class="st11" cx="78.71" cy="48.55" r="1.58"/>
<circle class="st12" cx="26.26" cy="136.93" r="1.58"/>
<g>
	<g>
		<line class="st4" x1="431.92" y1="48.55" x2="431.92" y2="45.55"/>
		<line class="st13" x1="431.92" y1="39.68" x2="431.92" y2="19.13"/>
		<line class="st4" x1="431.92" y1="16.2" x2="431.92" y2="13.2"/>
	</g>
</g>
<g>
	<g>
		<line class="st2" x1="379.24" y1="48.55" x2="379.24" y2="51.55"/>
		<line class="st14" x1="379.24" y1="59.24" x2="379.24" y2="70.79"/>
		<line class="st2" x1="379.24" y1="74.63" x2="379.24" y2="77.63"/>
	</g>
</g>
<g>
	<g>
		<line class="st0" x1="326.8" y1="136.45" x2="326.8" y2="139.45"/>
		<line class="st0" x1="326.8" y1="142.98" x2="326.8" y2="145.98"/>
	</g>
</g>
<path class="st9" d="M438.93,24.36c0,0-5.51-23.96-10.21-3.39s-16.06,45.89-22.36,38.88c-6.31-7.01-8.7-25.32-8.7-25.32
	c-3.71-17.86-5.06-8.59-9.13,11.53c-4.07,20.12-7.46,40.46-11.98,28.26c-4.52-12.21-7.01-45.21-10.4-32.55
	c-3.39,12.66-5.65,55.69-12.66,45.93c-7.01-9.76-8.59-37.57-13.34-32.37s-6.57,102.24-11.76,93.96c-5.19-8.28-6.55-33.45-6.55-33.45
	"/>
<circle class="st8" cx="424.69" cy="36.11" r="1.58"/>
<circle class="st8" cx="417.68" cy="50.58" r="1.58"/>
<circle class="st8" cx="399.23" cy="41.76" r="1.58"/>
<circle class="st8" cx="386.48" cy="55.52" r="1.58"/>
<circle class="st8" cx="372.19" cy="53.74" r="1.58"/>
<circle class="st8" cx="361.39" cy="72.73" r="1.58"/>
<circle class="st8" cx="322.41" cy="123.3" r="1.58"/>
<circle class="st8" cx="347.17" cy="72.73" r="1.58"/>
<circle class="st8" cx="335.87" cy="86.81" r="1.58"/>
<circle class="st8" cx="333.14" cy="115.46" r="1.58"/>
<circle class="st10" cx="431.92" cy="48.55" r="1.58"/>
<circle class="st11" cx="379.24" cy="48.55" r="1.58"/>
<circle class="st12" cx="326.8" cy="136.93" r="1.58"/>
<path class="st9" d="M168.01,138.97c1.4-8.32,9.42-51.01,48.83-77.76C242.1,44.05,267.71,41.98,279,41.76"/>
<circle class="st8" cx="271.77" cy="36.11" r="1.58"/>
<circle class="st8" cx="264.76" cy="50.58" r="1.58"/>
<circle class="st8" cx="246.31" cy="41.76" r="1.58"/>
<circle class="st8" cx="237.18" cy="58.27" r="1.58"/>
<circle class="st8" cx="216.61" cy="53.74" r="1.58"/>
<circle class="st8" cx="211.63" cy="72.73" r="1.58"/>
<circle class="st8" cx="168.91" cy="123.3" r="1.58"/>
<circle class="st8" cx="194.24" cy="72.73" r="1.58"/>
<circle class="st8" cx="181.79" cy="86.3" r="1.58"/>
<circle class="st8" cx="178.63" cy="115.46" r="1.58"/>
<circle class="st10" cx="277.42" cy="48.66" r="1.58"/>
<circle class="st12" cx="173.87" cy="137.39" r="1.58"/>
<circle class="st12" cx="173.87" cy="137.39" r="1.58"/>
<circle class="st11" cx="226.32" cy="49" r="1.58"/>
</svg>
