<?xml version="1.0" encoding="utf-8" standalone="no"?>
<!DOCTYPE svg PUBLIC "-//W3C//DTD SVG 1.1//EN"
  "http://www.w3.org/Graphics/SVG/1.1/DTD/svg11.dtd">
<!-- Created with matplotlib (https://matplotlib.org/) -->
<svg height="208.478125pt" version="1.1" viewBox="0 0 640.796094 208.478125" width="640.796094pt" xmlns="http://www.w3.org/2000/svg" xmlns:xlink="http://www.w3.org/1999/xlink">
 <defs>
  <style type="text/css">
*{stroke-linecap:butt;stroke-linejoin:round;}
  </style>
 </defs>
 <g id="figure_1">
  <g id="patch_1">
   <path d="M 0 208.478125 
L 640.796094 208.478125 
L 640.796094 0 
L 0 0 
z
" style="fill:none;"/>
  </g>
  <g id="axes_1">
   <g id="patch_2">
    <path d="M 14.571094 47.8 
L 630.096094 47.8 
L 630.096094 10.7 
L 14.571094 10.7 
z
" style="fill:none;"/>
   </g>
   <g id="matplotlib.axis_1">
    <g id="xtick_1">
     <g id="text_1">
      <!-- −2 -->
      <defs>
       <path d="M 10.59375 35.5 
L 73.1875 35.5 
L 73.1875 27.203125 
L 10.59375 27.203125 
z
" id="DejaVuSans-8722"/>
       <path d="M 19.1875 8.296875 
L 53.609375 8.296875 
L 53.609375 0 
L 7.328125 0 
L 7.328125 8.296875 
Q 12.9375 14.109375 22.625 23.890625 
Q 32.328125 33.6875 34.8125 36.53125 
Q 39.546875 41.84375 41.421875 45.53125 
Q 43.3125 49.21875 43.3125 52.78125 
Q 43.3125 58.59375 39.234375 62.25 
Q 35.15625 65.921875 28.609375 65.921875 
Q 23.96875 65.921875 18.8125 64.3125 
Q 13.671875 62.703125 7.8125 59.421875 
L 7.8125 69.390625 
Q 13.765625 71.78125 18.9375 73 
Q 24.125 74.21875 28.421875 74.21875 
Q 39.75 74.21875 46.484375 68.546875 
Q 53.21875 62.890625 53.21875 53.421875 
Q 53.21875 48.921875 51.53125 44.890625 
Q 49.859375 40.875 45.40625 35.40625 
Q 44.1875 33.984375 37.640625 27.21875 
Q 31.109375 20.453125 19.1875 8.296875 
z
" id="DejaVuSans-50"/>
      </defs>
      <g style="fill:#262626;" transform="translate(7.2 62.398438)scale(0.1 -0.1)">
       <use xlink:href="#DejaVuSans-8722"/>
       <use x="83.789062" xlink:href="#DejaVuSans-50"/>
      </g>
     </g>
    </g>
    <g id="xtick_2">
     <g id="text_2">
      <!-- −1 -->
      <defs>
       <path d="M 12.40625 8.296875 
L 28.515625 8.296875 
L 28.515625 63.921875 
L 10.984375 60.40625 
L 10.984375 69.390625 
L 28.421875 72.90625 
L 38.28125 72.90625 
L 38.28125 8.296875 
L 54.390625 8.296875 
L 54.390625 0 
L 12.40625 0 
z
" id="DejaVuSans-49"/>
      </defs>
      <g style="fill:#262626;" transform="translate(109.7875 62.398438)scale(0.1 -0.1)">
       <use xlink:href="#DejaVuSans-8722"/>
       <use x="83.789062" xlink:href="#DejaVuSans-49"/>
      </g>
     </g>
    </g>
    <g id="xtick_3">
     <g id="text_3">
      <!-- 0 -->
      <defs>
       <path d="M 31.78125 66.40625 
Q 24.171875 66.40625 20.328125 58.90625 
Q 16.5 51.421875 16.5 36.375 
Q 16.5 21.390625 20.328125 13.890625 
Q 24.171875 6.390625 31.78125 6.390625 
Q 39.453125 6.390625 43.28125 13.890625 
Q 47.125 21.390625 47.125 36.375 
Q 47.125 51.421875 43.28125 58.90625 
Q 39.453125 66.40625 31.78125 66.40625 
z
M 31.78125 74.21875 
Q 44.046875 74.21875 50.515625 64.515625 
Q 56.984375 54.828125 56.984375 36.375 
Q 56.984375 17.96875 50.515625 8.265625 
Q 44.046875 -1.421875 31.78125 -1.421875 
Q 19.53125 -1.421875 13.0625 8.265625 
Q 6.59375 17.96875 6.59375 36.375 
Q 6.59375 54.828125 13.0625 64.515625 
Q 19.53125 74.21875 31.78125 74.21875 
z
" id="DejaVuSans-48"/>
      </defs>
      <g style="fill:#262626;" transform="translate(216.564844 62.398438)scale(0.1 -0.1)">
       <use xlink:href="#DejaVuSans-48"/>
      </g>
     </g>
    </g>
    <g id="xtick_4">
     <g id="text_4">
      <!-- 1 -->
      <g style="fill:#262626;" transform="translate(319.152344 62.398438)scale(0.1 -0.1)">
       <use xlink:href="#DejaVuSans-49"/>
      </g>
     </g>
    </g>
    <g id="xtick_5">
     <g id="text_5">
      <!-- 2 -->
      <g style="fill:#262626;" transform="translate(421.739844 62.398438)scale(0.1 -0.1)">
       <use xlink:href="#DejaVuSans-50"/>
      </g>
     </g>
    </g>
    <g id="xtick_6">
     <g id="text_6">
      <!-- 3 -->
      <defs>
       <path d="M 40.578125 39.3125 
Q 47.65625 37.796875 51.625 33 
Q 55.609375 28.21875 55.609375 21.1875 
Q 55.609375 10.40625 48.1875 4.484375 
Q 40.765625 -1.421875 27.09375 -1.421875 
Q 22.515625 -1.421875 17.65625 -0.515625 
Q 12.796875 0.390625 7.625 2.203125 
L 7.625 11.71875 
Q 11.71875 9.328125 16.59375 8.109375 
Q 21.484375 6.890625 26.8125 6.890625 
Q 36.078125 6.890625 40.9375 10.546875 
Q 45.796875 14.203125 45.796875 21.1875 
Q 45.796875 27.640625 41.28125 31.265625 
Q 36.765625 34.90625 28.71875 34.90625 
L 20.21875 34.90625 
L 20.21875 43.015625 
L 29.109375 43.015625 
Q 36.375 43.015625 40.234375 45.921875 
Q 44.09375 48.828125 44.09375 54.296875 
Q 44.09375 59.90625 40.109375 62.90625 
Q 36.140625 65.921875 28.71875 65.921875 
Q 24.65625 65.921875 20.015625 65.03125 
Q 15.375 64.15625 9.8125 62.3125 
L 9.8125 71.09375 
Q 15.4375 72.65625 20.34375 73.4375 
Q 25.25 74.21875 29.59375 74.21875 
Q 40.828125 74.21875 47.359375 69.109375 
Q 53.90625 64.015625 53.90625 55.328125 
Q 53.90625 49.265625 50.4375 45.09375 
Q 46.96875 40.921875 40.578125 39.3125 
z
" id="DejaVuSans-51"/>
      </defs>
      <g style="fill:#262626;" transform="translate(524.327344 62.398438)scale(0.1 -0.1)">
       <use xlink:href="#DejaVuSans-51"/>
      </g>
     </g>
    </g>
    <g id="xtick_7">
     <g id="text_7">
      <!-- 4 -->
      <defs>
       <path d="M 37.796875 64.3125 
L 12.890625 25.390625 
L 37.796875 25.390625 
z
M 35.203125 72.90625 
L 47.609375 72.90625 
L 47.609375 25.390625 
L 58.015625 25.390625 
L 58.015625 17.1875 
L 47.609375 17.1875 
L 47.609375 0 
L 37.796875 0 
L 37.796875 17.1875 
L 4.890625 17.1875 
L 4.890625 26.703125 
z
" id="DejaVuSans-52"/>
      </defs>
      <g style="fill:#262626;" transform="translate(626.914844 62.398438)scale(0.1 -0.1)">
       <use xlink:href="#DejaVuSans-52"/>
      </g>
     </g>
    </g>
   </g>
   <g id="matplotlib.axis_2">
    <g id="ytick_1"/>
    <g id="ytick_2"/>
    <g id="ytick_3"/>
   </g>
   <g id="PathCollection_1">
    <defs>
     <path d="M 0 3 
C 0.795609 3 1.55874 2.683901 2.12132 2.12132 
C 2.683901 1.55874 3 0.795609 3 0 
C 3 -0.795609 2.683901 -1.55874 2.12132 -2.12132 
C 1.55874 -2.683901 0.795609 -3 0 -3 
C -0.795609 -3 -1.55874 -2.683901 -2.12132 -2.12132 
C -2.683901 -1.55874 -3 -0.795609 -3 0 
C -3 0.795609 -2.683901 1.55874 -2.12132 2.12132 
C -1.55874 2.683901 -0.795609 3 0 3 
z
" id="md1fe463e82" style="stroke:#ffffff;stroke-width:0.75;"/>
    </defs>
    <g clip-path="url(#p19310043a4)">
     <use style="fill:#73af48;stroke:#ffffff;stroke-width:0.75;" x="501.962486" xlink:href="#md1fe463e82" y="29.25"/>
     <use style="fill:#73af48;stroke:#ffffff;stroke-width:0.75;" x="421.598748" xlink:href="#md1fe463e82" y="29.25"/>
     <use style="fill:#73af48;stroke:#ffffff;stroke-width:0.75;" x="297.583595" xlink:href="#md1fe463e82" y="29.25"/>
     <use style="fill:#73af48;stroke:#ffffff;stroke-width:0.75;" x="283.857679" xlink:href="#md1fe463e82" y="29.25"/>
     <use style="fill:#73af48;stroke:#ffffff;stroke-width:0.75;" x="204.652687" xlink:href="#md1fe463e82" y="29.25"/>
     <use style="fill:#73af48;stroke:#ffffff;stroke-width:0.75;" x="261.805993" xlink:href="#md1fe463e82" y="29.25"/>
     <use style="fill:#73af48;stroke:#ffffff;stroke-width:0.75;" x="166.089663" xlink:href="#md1fe463e82" y="29.25"/>
     <use style="fill:#73af48;stroke:#ffffff;stroke-width:0.75;" x="365.448239" xlink:href="#md1fe463e82" y="29.25"/>
     <use style="fill:#73af48;stroke:#ffffff;stroke-width:0.75;" x="303.414967" xlink:href="#md1fe463e82" y="29.25"/>
     <use style="fill:#73af48;stroke:#ffffff;stroke-width:0.75;" x="325.966724" xlink:href="#md1fe463e82" y="29.25"/>
     <use style="fill:#73af48;stroke:#ffffff;stroke-width:0.75;" x="257.020976" xlink:href="#md1fe463e82" y="29.25"/>
     <use style="fill:#73af48;stroke:#ffffff;stroke-width:0.75;" x="358.217321" xlink:href="#md1fe463e82" y="29.25"/>
     <use style="fill:#73af48;stroke:#ffffff;stroke-width:0.75;" x="60.772268" xlink:href="#md1fe463e82" y="29.25"/>
     <use style="fill:#73af48;stroke:#ffffff;stroke-width:0.75;" x="183.959554" xlink:href="#md1fe463e82" y="29.25"/>
     <use style="fill:#73af48;stroke:#ffffff;stroke-width:0.75;" x="482.359518" xlink:href="#md1fe463e82" y="29.25"/>
    </g>
   </g>
   <g id="PathCollection_2">
    <defs>
     <path d="M 0 3 
C 0.795609 3 1.55874 2.683901 2.12132 2.12132 
C 2.683901 1.55874 3 0.795609 3 0 
C 3 -0.795609 2.683901 -1.55874 2.12132 -2.12132 
C 1.55874 -2.683901 0.795609 -3 0 -3 
C -0.795609 -3 -1.55874 -2.683901 -2.12132 -2.12132 
C -2.683901 -1.55874 -3 -0.795609 -3 0 
C -3 0.795609 -2.683901 1.55874 -2.12132 2.12132 
C -1.55874 2.683901 -0.795609 3 0 3 
z
" id="md274803989" style="stroke:#ffffff;stroke-width:0.75;"/>
    </defs>
    <g clip-path="url(#p19310043a4)">
     <use style="fill:#909090;stroke:#ffffff;stroke-width:0.75;" x="501.962486" xlink:href="#md274803989" y="29.25"/>
     <use style="fill:#909090;stroke:#ffffff;stroke-width:0.75;" x="421.598748" xlink:href="#md274803989" y="29.25"/>
     <use style="fill:#909090;stroke:#ffffff;stroke-width:0.75;" x="297.583595" xlink:href="#md274803989" y="29.25"/>
     <use style="fill:#909090;stroke:#ffffff;stroke-width:0.75;" x="283.857679" xlink:href="#md274803989" y="29.25"/>
     <use style="fill:#909090;stroke:#ffffff;stroke-width:0.75;" x="204.652687" xlink:href="#md274803989" y="29.25"/>
     <use style="fill:#909090;stroke:#ffffff;stroke-width:0.75;" x="261.805993" xlink:href="#md274803989" y="29.25"/>
     <use style="fill:#909090;stroke:#ffffff;stroke-width:0.75;" x="166.089663" xlink:href="#md274803989" y="29.25"/>
     <use style="fill:#909090;stroke:#ffffff;stroke-width:0.75;" x="365.448239" xlink:href="#md274803989" y="29.25"/>
     <use style="fill:#909090;stroke:#ffffff;stroke-width:0.75;" x="303.414967" xlink:href="#md274803989" y="29.25"/>
     <use style="fill:#909090;stroke:#ffffff;stroke-width:0.75;" x="325.966724" xlink:href="#md274803989" y="29.25"/>
     <use style="fill:#909090;stroke:#ffffff;stroke-width:0.75;" x="257.020976" xlink:href="#md274803989" y="29.25"/>
     <use style="fill:#909090;stroke:#ffffff;stroke-width:0.75;" x="358.217321" xlink:href="#md274803989" y="29.25"/>
     <use style="fill:#909090;stroke:#ffffff;stroke-width:0.75;" x="60.772268" xlink:href="#md274803989" y="29.25"/>
     <use style="fill:#909090;stroke:#ffffff;stroke-width:0.75;" x="183.959554" xlink:href="#md274803989" y="29.25"/>
     <use style="fill:#909090;stroke:#ffffff;stroke-width:0.75;" x="482.359518" xlink:href="#md274803989" y="29.25"/>
    </g>
   </g>
   <g id="patch_3">
    <path d="M 14.571094 47.8 
L 630.096094 47.8 
" style="fill:none;stroke:#262626;stroke-linecap:square;stroke-linejoin:miter;stroke-width:0.8;"/>
   </g>
  </g>
  <g id="axes_2">
   <g id="patch_4">
    <path d="M 14.571094 116.2 
L 630.096094 116.2 
L 630.096094 79.1 
L 14.571094 79.1 
z
" style="fill:none;"/>
   </g>
   <g id="matplotlib.axis_3">
    <g id="xtick_8">
     <g id="text_8">
      <!-- −2 -->
      <g style="fill:#262626;" transform="translate(7.2 130.798437)scale(0.1 -0.1)">
       <use xlink:href="#DejaVuSans-8722"/>
       <use x="83.789062" xlink:href="#DejaVuSans-50"/>
      </g>
     </g>
    </g>
    <g id="xtick_9">
     <g id="text_9">
      <!-- −1 -->
      <g style="fill:#262626;" transform="translate(109.7875 130.798437)scale(0.1 -0.1)">
       <use xlink:href="#DejaVuSans-8722"/>
       <use x="83.789062" xlink:href="#DejaVuSans-49"/>
      </g>
     </g>
    </g>
    <g id="xtick_10">
     <g id="text_10">
      <!-- 0 -->
      <g style="fill:#262626;" transform="translate(216.564844 130.798437)scale(0.1 -0.1)">
       <use xlink:href="#DejaVuSans-48"/>
      </g>
     </g>
    </g>
    <g id="xtick_11">
     <g id="text_11">
      <!-- 1 -->
      <g style="fill:#262626;" transform="translate(319.152344 130.798437)scale(0.1 -0.1)">
       <use xlink:href="#DejaVuSans-49"/>
      </g>
     </g>
    </g>
    <g id="xtick_12">
     <g id="text_12">
      <!-- 2 -->
      <g style="fill:#262626;" transform="translate(421.739844 130.798437)scale(0.1 -0.1)">
       <use xlink:href="#DejaVuSans-50"/>
      </g>
     </g>
    </g>
    <g id="xtick_13">
     <g id="text_13">
      <!-- 3 -->
      <g style="fill:#262626;" transform="translate(524.327344 130.798437)scale(0.1 -0.1)">
       <use xlink:href="#DejaVuSans-51"/>
      </g>
     </g>
    </g>
    <g id="xtick_14">
     <g id="text_14">
      <!-- 4 -->
      <g style="fill:#262626;" transform="translate(626.914844 130.798437)scale(0.1 -0.1)">
       <use xlink:href="#DejaVuSans-52"/>
      </g>
     </g>
    </g>
   </g>
   <g id="matplotlib.axis_4">
    <g id="ytick_4"/>
    <g id="ytick_5"/>
    <g id="ytick_6"/>
   </g>
   <g id="PathCollection_3">
    <g clip-path="url(#p19986ab6db)">
     <use style="fill:#73af48;stroke:#ffffff;stroke-width:0.75;" x="263.437295" xlink:href="#md1fe463e82" y="97.65"/>
     <use style="fill:#73af48;stroke:#ffffff;stroke-width:0.75;" x="401.660153" xlink:href="#md1fe463e82" y="97.65"/>
     <use style="fill:#73af48;stroke:#ffffff;stroke-width:0.75;" x="229.803556" xlink:href="#md1fe463e82" y="97.65"/>
     <use style="fill:#73af48;stroke:#ffffff;stroke-width:0.75;" x="307.019742" xlink:href="#md1fe463e82" y="97.65"/>
     <use style="fill:#73af48;stroke:#ffffff;stroke-width:0.75;" x="267.725662" xlink:href="#md1fe463e82" y="97.65"/>
     <use style="fill:#73af48;stroke:#ffffff;stroke-width:0.75;" x="245.107688" xlink:href="#md1fe463e82" y="97.65"/>
     <use style="fill:#73af48;stroke:#ffffff;stroke-width:0.75;" x="300.560774" xlink:href="#md1fe463e82" y="97.65"/>
     <use style="fill:#73af48;stroke:#ffffff;stroke-width:0.75;" x="305.448691" xlink:href="#md1fe463e82" y="97.65"/>
     <use style="fill:#73af48;stroke:#ffffff;stroke-width:0.75;" x="266.424395" xlink:href="#md1fe463e82" y="97.65"/>
     <use style="fill:#73af48;stroke:#ffffff;stroke-width:0.75;" x="206.238475" xlink:href="#md1fe463e82" y="97.65"/>
     <use style="fill:#73af48;stroke:#ffffff;stroke-width:0.75;" x="184.646143" xlink:href="#md1fe463e82" y="97.65"/>
     <use style="fill:#73af48;stroke:#ffffff;stroke-width:0.75;" x="226.527165" xlink:href="#md1fe463e82" y="97.65"/>
     <use style="fill:#73af48;stroke:#ffffff;stroke-width:0.75;" x="241.849814" xlink:href="#md1fe463e82" y="97.65"/>
     <use style="fill:#73af48;stroke:#ffffff;stroke-width:0.75;" x="263.440507" xlink:href="#md1fe463e82" y="97.65"/>
     <use style="fill:#73af48;stroke:#ffffff;stroke-width:0.75;" x="225.644699" xlink:href="#md1fe463e82" y="97.65"/>
    </g>
   </g>
   <g id="PathCollection_4">
    <g clip-path="url(#p19986ab6db)">
     <use style="fill:#73af48;stroke:#ffffff;stroke-width:0.75;" x="263.437295" xlink:href="#md1fe463e82" y="97.65"/>
     <use style="fill:#73af48;stroke:#ffffff;stroke-width:0.75;" x="401.660153" xlink:href="#md1fe463e82" y="97.65"/>
     <use style="fill:#73af48;stroke:#ffffff;stroke-width:0.75;" x="229.803556" xlink:href="#md1fe463e82" y="97.65"/>
     <use style="fill:#73af48;stroke:#ffffff;stroke-width:0.75;" x="307.019742" xlink:href="#md1fe463e82" y="97.65"/>
     <use style="fill:#73af48;stroke:#ffffff;stroke-width:0.75;" x="267.725662" xlink:href="#md1fe463e82" y="97.65"/>
     <use style="fill:#73af48;stroke:#ffffff;stroke-width:0.75;" x="245.107688" xlink:href="#md1fe463e82" y="97.65"/>
     <use style="fill:#73af48;stroke:#ffffff;stroke-width:0.75;" x="300.560774" xlink:href="#md1fe463e82" y="97.65"/>
     <use style="fill:#73af48;stroke:#ffffff;stroke-width:0.75;" x="305.448691" xlink:href="#md1fe463e82" y="97.65"/>
     <use style="fill:#73af48;stroke:#ffffff;stroke-width:0.75;" x="266.424395" xlink:href="#md1fe463e82" y="97.65"/>
     <use style="fill:#73af48;stroke:#ffffff;stroke-width:0.75;" x="206.238475" xlink:href="#md1fe463e82" y="97.65"/>
     <use style="fill:#73af48;stroke:#ffffff;stroke-width:0.75;" x="184.646143" xlink:href="#md1fe463e82" y="97.65"/>
     <use style="fill:#73af48;stroke:#ffffff;stroke-width:0.75;" x="226.527165" xlink:href="#md1fe463e82" y="97.65"/>
     <use style="fill:#73af48;stroke:#ffffff;stroke-width:0.75;" x="241.849814" xlink:href="#md1fe463e82" y="97.65"/>
     <use style="fill:#73af48;stroke:#ffffff;stroke-width:0.75;" x="263.440507" xlink:href="#md1fe463e82" y="97.65"/>
     <use style="fill:#73af48;stroke:#ffffff;stroke-width:0.75;" x="225.644699" xlink:href="#md1fe463e82" y="97.65"/>
    </g>
   </g>
   <g id="patch_5">
    <path d="M 14.571094 116.2 
L 630.096094 116.2 
" style="fill:none;stroke:#262626;stroke-linecap:square;stroke-linejoin:miter;stroke-width:0.8;"/>
   </g>
  </g>
  <g id="axes_3">
   <g id="patch_6">
    <path d="M 14.571094 184.6 
L 630.096094 184.6 
L 630.096094 147.5 
L 14.571094 147.5 
z
" style="fill:none;"/>
   </g>
   <g id="matplotlib.axis_5">
    <g id="xtick_15">
     <g id="text_15">
      <!-- −2 -->
      <g style="fill:#262626;" transform="translate(7.2 199.198437)scale(0.1 -0.1)">
       <use xlink:href="#DejaVuSans-8722"/>
       <use x="83.789062" xlink:href="#DejaVuSans-50"/>
      </g>
     </g>
    </g>
    <g id="xtick_16">
     <g id="text_16">
      <!-- −1 -->
      <g style="fill:#262626;" transform="translate(109.7875 199.198437)scale(0.1 -0.1)">
       <use xlink:href="#DejaVuSans-8722"/>
       <use x="83.789062" xlink:href="#DejaVuSans-49"/>
      </g>
     </g>
    </g>
    <g id="xtick_17">
     <g id="text_17">
      <!-- 0 -->
      <g style="fill:#262626;" transform="translate(216.564844 199.198437)scale(0.1 -0.1)">
       <use xlink:href="#DejaVuSans-48"/>
      </g>
     </g>
    </g>
    <g id="xtick_18">
     <g id="text_18">
      <!-- 1 -->
      <g style="fill:#262626;" transform="translate(319.152344 199.198437)scale(0.1 -0.1)">
       <use xlink:href="#DejaVuSans-49"/>
      </g>
     </g>
    </g>
    <g id="xtick_19">
     <g id="text_19">
      <!-- 2 -->
      <g style="fill:#262626;" transform="translate(421.739844 199.198437)scale(0.1 -0.1)">
       <use xlink:href="#DejaVuSans-50"/>
      </g>
     </g>
    </g>
    <g id="xtick_20">
     <g id="text_20">
      <!-- 3 -->
      <g style="fill:#262626;" transform="translate(524.327344 199.198437)scale(0.1 -0.1)">
       <use xlink:href="#DejaVuSans-51"/>
      </g>
     </g>
    </g>
    <g id="xtick_21">
     <g id="text_21">
      <!-- 4 -->
      <g style="fill:#262626;" transform="translate(626.914844 199.198437)scale(0.1 -0.1)">
       <use xlink:href="#DejaVuSans-52"/>
      </g>
     </g>
    </g>
   </g>
   <g id="matplotlib.axis_6">
    <g id="ytick_7"/>
    <g id="ytick_8"/>
    <g id="ytick_9"/>
   </g>
   <g id="PathCollection_5">
    <g clip-path="url(#p5243c8f673)">
     <use style="fill:#73af48;stroke:#ffffff;stroke-width:0.75;" x="345.465201" xlink:href="#md1fe463e82" y="166.05"/>
     <use style="fill:#73af48;stroke:#ffffff;stroke-width:0.75;" x="260.830816" xlink:href="#md1fe463e82" y="166.05"/>
     <use style="fill:#73af48;stroke:#ffffff;stroke-width:0.75;" x="267.160691" xlink:href="#md1fe463e82" y="166.05"/>
     <use style="fill:#73af48;stroke:#ffffff;stroke-width:0.75;" x="378.177342" xlink:href="#md1fe463e82" y="166.05"/>
     <use style="fill:#73af48;stroke:#ffffff;stroke-width:0.75;" x="412.526392" xlink:href="#md1fe463e82" y="166.05"/>
     <use style="fill:#73af48;stroke:#ffffff;stroke-width:0.75;" x="302.175318" xlink:href="#md1fe463e82" y="166.05"/>
     <use style="fill:#73af48;stroke:#ffffff;stroke-width:0.75;" x="405.041739" xlink:href="#md1fe463e82" y="166.05"/>
     <use style="fill:#73af48;stroke:#ffffff;stroke-width:0.75;" x="414.880957" xlink:href="#md1fe463e82" y="166.05"/>
     <use style="fill:#73af48;stroke:#ffffff;stroke-width:0.75;" x="320.113226" xlink:href="#md1fe463e82" y="166.05"/>
     <use style="fill:#73af48;stroke:#ffffff;stroke-width:0.75;" x="323.728063" xlink:href="#md1fe463e82" y="166.05"/>
     <use style="fill:#73af48;stroke:#ffffff;stroke-width:0.75;" x="261.642719" xlink:href="#md1fe463e82" y="166.05"/>
     <use style="fill:#73af48;stroke:#ffffff;stroke-width:0.75;" x="320.406829" xlink:href="#md1fe463e82" y="166.05"/>
     <use style="fill:#73af48;stroke:#ffffff;stroke-width:0.75;" x="217.798803" xlink:href="#md1fe463e82" y="166.05"/>
     <use style="fill:#73af48;stroke:#ffffff;stroke-width:0.75;" x="306.338055" xlink:href="#md1fe463e82" y="166.05"/>
     <use style="fill:#73af48;stroke:#ffffff;stroke-width:0.75;" x="528.284631" xlink:href="#md1fe463e82" y="166.05"/>
    </g>
   </g>
   <g id="PathCollection_6">
    <g clip-path="url(#p5243c8f673)">
     <use style="fill:#73af48;stroke:#ffffff;stroke-width:0.75;" x="345.465201" xlink:href="#md1fe463e82" y="166.05"/>
     <use style="fill:#73af48;stroke:#ffffff;stroke-width:0.75;" x="260.830816" xlink:href="#md1fe463e82" y="166.05"/>
     <use style="fill:#73af48;stroke:#ffffff;stroke-width:0.75;" x="267.160691" xlink:href="#md1fe463e82" y="166.05"/>
     <use style="fill:#73af48;stroke:#ffffff;stroke-width:0.75;" x="378.177342" xlink:href="#md1fe463e82" y="166.05"/>
     <use style="fill:#73af48;stroke:#ffffff;stroke-width:0.75;" x="412.526392" xlink:href="#md1fe463e82" y="166.05"/>
     <use style="fill:#73af48;stroke:#ffffff;stroke-width:0.75;" x="302.175318" xlink:href="#md1fe463e82" y="166.05"/>
     <use style="fill:#73af48;stroke:#ffffff;stroke-width:0.75;" x="405.041739" xlink:href="#md1fe463e82" y="166.05"/>
     <use style="fill:#73af48;stroke:#ffffff;stroke-width:0.75;" x="414.880957" xlink:href="#md1fe463e82" y="166.05"/>
     <use style="fill:#73af48;stroke:#ffffff;stroke-width:0.75;" x="320.113226" xlink:href="#md1fe463e82" y="166.05"/>
     <use style="fill:#73af48;stroke:#ffffff;stroke-width:0.75;" x="323.728063" xlink:href="#md1fe463e82" y="166.05"/>
     <use style="fill:#73af48;stroke:#ffffff;stroke-width:0.75;" x="261.642719" xlink:href="#md1fe463e82" y="166.05"/>
     <use style="fill:#73af48;stroke:#ffffff;stroke-width:0.75;" x="320.406829" xlink:href="#md1fe463e82" y="166.05"/>
     <use style="fill:#73af48;stroke:#ffffff;stroke-width:0.75;" x="217.798803" xlink:href="#md1fe463e82" y="166.05"/>
     <use style="fill:#73af48;stroke:#ffffff;stroke-width:0.75;" x="306.338055" xlink:href="#md1fe463e82" y="166.05"/>
     <use style="fill:#73af48;stroke:#ffffff;stroke-width:0.75;" x="528.284631" xlink:href="#md1fe463e82" y="166.05"/>
    </g>
   </g>
   <g id="patch_7">
    <path d="M 14.571094 184.6 
L 630.096094 184.6 
" style="fill:none;stroke:#262626;stroke-linecap:square;stroke-linejoin:miter;stroke-width:0.8;"/>
   </g>
  </g>
 </g>
 <defs>
  <clipPath id="p19310043a4">
   <rect height="37.1" width="615.525" x="14.571094" y="10.7"/>
  </clipPath>
  <clipPath id="p19986ab6db">
   <rect height="37.1" width="615.525" x="14.571094" y="79.1"/>
  </clipPath>
  <clipPath id="p5243c8f673">
   <rect height="37.1" width="615.525" x="14.571094" y="147.5"/>
  </clipPath>
 </defs>
</svg>
