<?xml version="1.0" encoding="utf-8" standalone="no"?>
<!DOCTYPE svg PUBLIC "-//W3C//DTD SVG 1.1//EN"
  "http://www.w3.org/Graphics/SVG/1.1/DTD/svg11.dtd">
<!-- Created with matplotlib (https://matplotlib.org/) -->
<svg height="252.018125pt" version="1.1" viewBox="0 0 375.603125 252.018125" width="375.603125pt" xmlns="http://www.w3.org/2000/svg" xmlns:xlink="http://www.w3.org/1999/xlink">
 <defs>
  <style type="text/css">
*{stroke-linecap:butt;stroke-linejoin:round;}
  </style>
 </defs>
 <g id="figure_1">
  <g id="patch_1">
   <path d="M 0 252.018125 
L 375.603125 252.018125 
L 375.603125 0 
L 0 0 
z
" style="fill:none;"/>
  </g>
  <g id="axes_1">
   <g id="patch_2">
    <path d="M 30.103125 228.14 
L 364.903125 228.14 
L 364.903125 10.7 
L 30.103125 10.7 
z
" style="fill:none;"/>
   </g>
   <g id="matplotlib.axis_1">
    <g id="xtick_1">
     <g id="line2d_1">
      <defs>
       <path d="M 0 0 
L 0 3.5 
" id="mc447a410db" style="stroke:#262626;stroke-width:0.8;"/>
      </defs>
      <g>
       <use style="fill:#262626;stroke:#262626;stroke-width:0.8;" x="45.321307" xlink:href="#mc447a410db" y="228.14"/>
      </g>
     </g>
     <g id="text_1">
      <!-- −3 -->
      <defs>
       <path d="M 10.59375 35.5 
L 73.1875 35.5 
L 73.1875 27.203125 
L 10.59375 27.203125 
z
" id="DejaVuSans-8722"/>
       <path d="M 40.578125 39.3125 
Q 47.65625 37.796875 51.625 33 
Q 55.609375 28.21875 55.609375 21.1875 
Q 55.609375 10.40625 48.1875 4.484375 
Q 40.765625 -1.421875 27.09375 -1.421875 
Q 22.515625 -1.421875 17.65625 -0.515625 
Q 12.796875 0.390625 7.625 2.203125 
L 7.625 11.71875 
Q 11.71875 9.328125 16.59375 8.109375 
Q 21.484375 6.890625 26.8125 6.890625 
Q 36.078125 6.890625 40.9375 10.546875 
Q 45.796875 14.203125 45.796875 21.1875 
Q 45.796875 27.640625 41.28125 31.265625 
Q 36.765625 34.90625 28.71875 34.90625 
L 20.21875 34.90625 
L 20.21875 43.015625 
L 29.109375 43.015625 
Q 36.375 43.015625 40.234375 45.921875 
Q 44.09375 48.828125 44.09375 54.296875 
Q 44.09375 59.90625 40.109375 62.90625 
Q 36.140625 65.921875 28.71875 65.921875 
Q 24.65625 65.921875 20.015625 65.03125 
Q 15.375 64.15625 9.8125 62.3125 
L 9.8125 71.09375 
Q 15.4375 72.65625 20.34375 73.4375 
Q 25.25 74.21875 29.59375 74.21875 
Q 40.828125 74.21875 47.359375 69.109375 
Q 53.90625 64.015625 53.90625 55.328125 
Q 53.90625 49.265625 50.4375 45.09375 
Q 46.96875 40.921875 40.578125 39.3125 
z
" id="DejaVuSans-51"/>
      </defs>
      <g style="fill:#262626;" transform="translate(37.950213 242.738437)scale(0.1 -0.1)">
       <use xlink:href="#DejaVuSans-8722"/>
       <use x="83.789062" xlink:href="#DejaVuSans-51"/>
      </g>
     </g>
    </g>
    <g id="xtick_2">
     <g id="line2d_2">
      <g>
       <use style="fill:#262626;stroke:#262626;stroke-width:0.8;" x="96.04858" xlink:href="#mc447a410db" y="228.14"/>
      </g>
     </g>
     <g id="text_2">
      <!-- −2 -->
      <defs>
       <path d="M 19.1875 8.296875 
L 53.609375 8.296875 
L 53.609375 0 
L 7.328125 0 
L 7.328125 8.296875 
Q 12.9375 14.109375 22.625 23.890625 
Q 32.328125 33.6875 34.8125 36.53125 
Q 39.546875 41.84375 41.421875 45.53125 
Q 43.3125 49.21875 43.3125 52.78125 
Q 43.3125 58.59375 39.234375 62.25 
Q 35.15625 65.921875 28.609375 65.921875 
Q 23.96875 65.921875 18.8125 64.3125 
Q 13.671875 62.703125 7.8125 59.421875 
L 7.8125 69.390625 
Q 13.765625 71.78125 18.9375 73 
Q 24.125 74.21875 28.421875 74.21875 
Q 39.75 74.21875 46.484375 68.546875 
Q 53.21875 62.890625 53.21875 53.421875 
Q 53.21875 48.921875 51.53125 44.890625 
Q 49.859375 40.875 45.40625 35.40625 
Q 44.1875 33.984375 37.640625 27.21875 
Q 31.109375 20.453125 19.1875 8.296875 
z
" id="DejaVuSans-50"/>
      </defs>
      <g style="fill:#262626;" transform="translate(88.677486 242.738437)scale(0.1 -0.1)">
       <use xlink:href="#DejaVuSans-8722"/>
       <use x="83.789062" xlink:href="#DejaVuSans-50"/>
      </g>
     </g>
    </g>
    <g id="xtick_3">
     <g id="line2d_3">
      <g>
       <use style="fill:#262626;stroke:#262626;stroke-width:0.8;" x="146.775852" xlink:href="#mc447a410db" y="228.14"/>
      </g>
     </g>
     <g id="text_3">
      <!-- −1 -->
      <defs>
       <path d="M 12.40625 8.296875 
L 28.515625 8.296875 
L 28.515625 63.921875 
L 10.984375 60.40625 
L 10.984375 69.390625 
L 28.421875 72.90625 
L 38.28125 72.90625 
L 38.28125 8.296875 
L 54.390625 8.296875 
L 54.390625 0 
L 12.40625 0 
z
" id="DejaVuSans-49"/>
      </defs>
      <g style="fill:#262626;" transform="translate(139.404759 242.738437)scale(0.1 -0.1)">
       <use xlink:href="#DejaVuSans-8722"/>
       <use x="83.789062" xlink:href="#DejaVuSans-49"/>
      </g>
     </g>
    </g>
    <g id="xtick_4">
     <g id="line2d_4">
      <g>
       <use style="fill:#262626;stroke:#262626;stroke-width:0.8;" x="197.503125" xlink:href="#mc447a410db" y="228.14"/>
      </g>
     </g>
     <g id="text_4">
      <!-- 0 -->
      <defs>
       <path d="M 31.78125 66.40625 
Q 24.171875 66.40625 20.328125 58.90625 
Q 16.5 51.421875 16.5 36.375 
Q 16.5 21.390625 20.328125 13.890625 
Q 24.171875 6.390625 31.78125 6.390625 
Q 39.453125 6.390625 43.28125 13.890625 
Q 47.125 21.390625 47.125 36.375 
Q 47.125 51.421875 43.28125 58.90625 
Q 39.453125 66.40625 31.78125 66.40625 
z
M 31.78125 74.21875 
Q 44.046875 74.21875 50.515625 64.515625 
Q 56.984375 54.828125 56.984375 36.375 
Q 56.984375 17.96875 50.515625 8.265625 
Q 44.046875 -1.421875 31.78125 -1.421875 
Q 19.53125 -1.421875 13.0625 8.265625 
Q 6.59375 17.96875 6.59375 36.375 
Q 6.59375 54.828125 13.0625 64.515625 
Q 19.53125 74.21875 31.78125 74.21875 
z
" id="DejaVuSans-48"/>
      </defs>
      <g style="fill:#262626;" transform="translate(194.321875 242.738437)scale(0.1 -0.1)">
       <use xlink:href="#DejaVuSans-48"/>
      </g>
     </g>
    </g>
    <g id="xtick_5">
     <g id="line2d_5">
      <g>
       <use style="fill:#262626;stroke:#262626;stroke-width:0.8;" x="248.230398" xlink:href="#mc447a410db" y="228.14"/>
      </g>
     </g>
     <g id="text_5">
      <!-- 1 -->
      <g style="fill:#262626;" transform="translate(245.049148 242.738437)scale(0.1 -0.1)">
       <use xlink:href="#DejaVuSans-49"/>
      </g>
     </g>
    </g>
    <g id="xtick_6">
     <g id="line2d_6">
      <g>
       <use style="fill:#262626;stroke:#262626;stroke-width:0.8;" x="298.95767" xlink:href="#mc447a410db" y="228.14"/>
      </g>
     </g>
     <g id="text_6">
      <!-- 2 -->
      <g style="fill:#262626;" transform="translate(295.77642 242.738437)scale(0.1 -0.1)">
       <use xlink:href="#DejaVuSans-50"/>
      </g>
     </g>
    </g>
    <g id="xtick_7">
     <g id="line2d_7">
      <g>
       <use style="fill:#262626;stroke:#262626;stroke-width:0.8;" x="349.684943" xlink:href="#mc447a410db" y="228.14"/>
      </g>
     </g>
     <g id="text_7">
      <!-- 3 -->
      <g style="fill:#262626;" transform="translate(346.503693 242.738437)scale(0.1 -0.1)">
       <use xlink:href="#DejaVuSans-51"/>
      </g>
     </g>
    </g>
   </g>
   <g id="matplotlib.axis_2">
    <g id="ytick_1">
     <g id="line2d_8">
      <defs>
       <path d="M 0 0 
L -3.5 0 
" id="mde9d2b13f0" style="stroke:#262626;stroke-width:0.8;"/>
      </defs>
      <g>
       <use style="fill:#262626;stroke:#262626;stroke-width:0.8;" x="30.103125" xlink:href="#mde9d2b13f0" y="218.256364"/>
      </g>
     </g>
     <g id="text_8">
      <!-- 0.0 -->
      <defs>
       <path d="M 10.6875 12.40625 
L 21 12.40625 
L 21 0 
L 10.6875 0 
z
" id="DejaVuSans-46"/>
      </defs>
      <g style="fill:#262626;" transform="translate(7.2 222.055582)scale(0.1 -0.1)">
       <use xlink:href="#DejaVuSans-48"/>
       <use x="63.623047" xlink:href="#DejaVuSans-46"/>
       <use x="95.410156" xlink:href="#DejaVuSans-48"/>
      </g>
     </g>
    </g>
    <g id="ytick_2">
     <g id="line2d_9">
      <g>
       <use style="fill:#262626;stroke:#262626;stroke-width:0.8;" x="30.103125" xlink:href="#mde9d2b13f0" y="192.540278"/>
      </g>
     </g>
     <g id="text_9">
      <!-- 0.1 -->
      <g style="fill:#262626;" transform="translate(7.2 196.339497)scale(0.1 -0.1)">
       <use xlink:href="#DejaVuSans-48"/>
       <use x="63.623047" xlink:href="#DejaVuSans-46"/>
       <use x="95.410156" xlink:href="#DejaVuSans-49"/>
      </g>
     </g>
    </g>
    <g id="ytick_3">
     <g id="line2d_10">
      <g>
       <use style="fill:#262626;stroke:#262626;stroke-width:0.8;" x="30.103125" xlink:href="#mde9d2b13f0" y="166.824193"/>
      </g>
     </g>
     <g id="text_10">
      <!-- 0.2 -->
      <g style="fill:#262626;" transform="translate(7.2 170.623412)scale(0.1 -0.1)">
       <use xlink:href="#DejaVuSans-48"/>
       <use x="63.623047" xlink:href="#DejaVuSans-46"/>
       <use x="95.410156" xlink:href="#DejaVuSans-50"/>
      </g>
     </g>
    </g>
    <g id="ytick_4">
     <g id="line2d_11">
      <g>
       <use style="fill:#262626;stroke:#262626;stroke-width:0.8;" x="30.103125" xlink:href="#mde9d2b13f0" y="141.108108"/>
      </g>
     </g>
     <g id="text_11">
      <!-- 0.3 -->
      <g style="fill:#262626;" transform="translate(7.2 144.907326)scale(0.1 -0.1)">
       <use xlink:href="#DejaVuSans-48"/>
       <use x="63.623047" xlink:href="#DejaVuSans-46"/>
       <use x="95.410156" xlink:href="#DejaVuSans-51"/>
      </g>
     </g>
    </g>
    <g id="ytick_5">
     <g id="line2d_12">
      <g>
       <use style="fill:#262626;stroke:#262626;stroke-width:0.8;" x="30.103125" xlink:href="#mde9d2b13f0" y="115.392022"/>
      </g>
     </g>
     <g id="text_12">
      <!-- 0.4 -->
      <defs>
       <path d="M 37.796875 64.3125 
L 12.890625 25.390625 
L 37.796875 25.390625 
z
M 35.203125 72.90625 
L 47.609375 72.90625 
L 47.609375 25.390625 
L 58.015625 25.390625 
L 58.015625 17.1875 
L 47.609375 17.1875 
L 47.609375 0 
L 37.796875 0 
L 37.796875 17.1875 
L 4.890625 17.1875 
L 4.890625 26.703125 
z
" id="DejaVuSans-52"/>
      </defs>
      <g style="fill:#262626;" transform="translate(7.2 119.191241)scale(0.1 -0.1)">
       <use xlink:href="#DejaVuSans-48"/>
       <use x="63.623047" xlink:href="#DejaVuSans-46"/>
       <use x="95.410156" xlink:href="#DejaVuSans-52"/>
      </g>
     </g>
    </g>
    <g id="ytick_6">
     <g id="line2d_13">
      <g>
       <use style="fill:#262626;stroke:#262626;stroke-width:0.8;" x="30.103125" xlink:href="#mde9d2b13f0" y="89.675937"/>
      </g>
     </g>
     <g id="text_13">
      <!-- 0.5 -->
      <defs>
       <path d="M 10.796875 72.90625 
L 49.515625 72.90625 
L 49.515625 64.59375 
L 19.828125 64.59375 
L 19.828125 46.734375 
Q 21.96875 47.46875 24.109375 47.828125 
Q 26.265625 48.1875 28.421875 48.1875 
Q 40.625 48.1875 47.75 41.5 
Q 54.890625 34.8125 54.890625 23.390625 
Q 54.890625 11.625 47.5625 5.09375 
Q 40.234375 -1.421875 26.90625 -1.421875 
Q 22.3125 -1.421875 17.546875 -0.640625 
Q 12.796875 0.140625 7.71875 1.703125 
L 7.71875 11.625 
Q 12.109375 9.234375 16.796875 8.0625 
Q 21.484375 6.890625 26.703125 6.890625 
Q 35.15625 6.890625 40.078125 11.328125 
Q 45.015625 15.765625 45.015625 23.390625 
Q 45.015625 31 40.078125 35.4375 
Q 35.15625 39.890625 26.703125 39.890625 
Q 22.75 39.890625 18.8125 39.015625 
Q 14.890625 38.140625 10.796875 36.28125 
z
" id="DejaVuSans-53"/>
      </defs>
      <g style="fill:#262626;" transform="translate(7.2 93.475156)scale(0.1 -0.1)">
       <use xlink:href="#DejaVuSans-48"/>
       <use x="63.623047" xlink:href="#DejaVuSans-46"/>
       <use x="95.410156" xlink:href="#DejaVuSans-53"/>
      </g>
     </g>
    </g>
    <g id="ytick_7">
     <g id="line2d_14">
      <g>
       <use style="fill:#262626;stroke:#262626;stroke-width:0.8;" x="30.103125" xlink:href="#mde9d2b13f0" y="63.959851"/>
      </g>
     </g>
     <g id="text_14">
      <!-- 0.6 -->
      <defs>
       <path d="M 33.015625 40.375 
Q 26.375 40.375 22.484375 35.828125 
Q 18.609375 31.296875 18.609375 23.390625 
Q 18.609375 15.53125 22.484375 10.953125 
Q 26.375 6.390625 33.015625 6.390625 
Q 39.65625 6.390625 43.53125 10.953125 
Q 47.40625 15.53125 47.40625 23.390625 
Q 47.40625 31.296875 43.53125 35.828125 
Q 39.65625 40.375 33.015625 40.375 
z
M 52.59375 71.296875 
L 52.59375 62.3125 
Q 48.875 64.0625 45.09375 64.984375 
Q 41.3125 65.921875 37.59375 65.921875 
Q 27.828125 65.921875 22.671875 59.328125 
Q 17.53125 52.734375 16.796875 39.40625 
Q 19.671875 43.65625 24.015625 45.921875 
Q 28.375 48.1875 33.59375 48.1875 
Q 44.578125 48.1875 50.953125 41.515625 
Q 57.328125 34.859375 57.328125 23.390625 
Q 57.328125 12.15625 50.6875 5.359375 
Q 44.046875 -1.421875 33.015625 -1.421875 
Q 20.359375 -1.421875 13.671875 8.265625 
Q 6.984375 17.96875 6.984375 36.375 
Q 6.984375 53.65625 15.1875 63.9375 
Q 23.390625 74.21875 37.203125 74.21875 
Q 40.921875 74.21875 44.703125 73.484375 
Q 48.484375 72.75 52.59375 71.296875 
z
" id="DejaVuSans-54"/>
      </defs>
      <g style="fill:#262626;" transform="translate(7.2 67.75907)scale(0.1 -0.1)">
       <use xlink:href="#DejaVuSans-48"/>
       <use x="63.623047" xlink:href="#DejaVuSans-46"/>
       <use x="95.410156" xlink:href="#DejaVuSans-54"/>
      </g>
     </g>
    </g>
    <g id="ytick_8">
     <g id="line2d_15">
      <g>
       <use style="fill:#262626;stroke:#262626;stroke-width:0.8;" x="30.103125" xlink:href="#mde9d2b13f0" y="38.243766"/>
      </g>
     </g>
     <g id="text_15">
      <!-- 0.7 -->
      <defs>
       <path d="M 8.203125 72.90625 
L 55.078125 72.90625 
L 55.078125 68.703125 
L 28.609375 0 
L 18.3125 0 
L 43.21875 64.59375 
L 8.203125 64.59375 
z
" id="DejaVuSans-55"/>
      </defs>
      <g style="fill:#262626;" transform="translate(7.2 42.042985)scale(0.1 -0.1)">
       <use xlink:href="#DejaVuSans-48"/>
       <use x="63.623047" xlink:href="#DejaVuSans-46"/>
       <use x="95.410156" xlink:href="#DejaVuSans-55"/>
      </g>
     </g>
    </g>
    <g id="ytick_9">
     <g id="line2d_16">
      <g>
       <use style="fill:#262626;stroke:#262626;stroke-width:0.8;" x="30.103125" xlink:href="#mde9d2b13f0" y="12.527681"/>
      </g>
     </g>
     <g id="text_16">
      <!-- 0.8 -->
      <defs>
       <path d="M 31.78125 34.625 
Q 24.75 34.625 20.71875 30.859375 
Q 16.703125 27.09375 16.703125 20.515625 
Q 16.703125 13.921875 20.71875 10.15625 
Q 24.75 6.390625 31.78125 6.390625 
Q 38.8125 6.390625 42.859375 10.171875 
Q 46.921875 13.96875 46.921875 20.515625 
Q 46.921875 27.09375 42.890625 30.859375 
Q 38.875 34.625 31.78125 34.625 
z
M 21.921875 38.8125 
Q 15.578125 40.375 12.03125 44.71875 
Q 8.5 49.078125 8.5 55.328125 
Q 8.5 64.0625 14.71875 69.140625 
Q 20.953125 74.21875 31.78125 74.21875 
Q 42.671875 74.21875 48.875 69.140625 
Q 55.078125 64.0625 55.078125 55.328125 
Q 55.078125 49.078125 51.53125 44.71875 
Q 48 40.375 41.703125 38.8125 
Q 48.828125 37.15625 52.796875 32.3125 
Q 56.78125 27.484375 56.78125 20.515625 
Q 56.78125 9.90625 50.3125 4.234375 
Q 43.84375 -1.421875 31.78125 -1.421875 
Q 19.734375 -1.421875 13.25 4.234375 
Q 6.78125 9.90625 6.78125 20.515625 
Q 6.78125 27.484375 10.78125 32.3125 
Q 14.796875 37.15625 21.921875 38.8125 
z
M 18.3125 54.390625 
Q 18.3125 48.734375 21.84375 45.5625 
Q 25.390625 42.390625 31.78125 42.390625 
Q 38.140625 42.390625 41.71875 45.5625 
Q 45.3125 48.734375 45.3125 54.390625 
Q 45.3125 60.0625 41.71875 63.234375 
Q 38.140625 66.40625 31.78125 66.40625 
Q 25.390625 66.40625 21.84375 63.234375 
Q 18.3125 60.0625 18.3125 54.390625 
z
" id="DejaVuSans-56"/>
      </defs>
      <g style="fill:#262626;" transform="translate(7.2 16.326899)scale(0.1 -0.1)">
       <use xlink:href="#DejaVuSans-48"/>
       <use x="63.623047" xlink:href="#DejaVuSans-46"/>
       <use x="95.410156" xlink:href="#DejaVuSans-56"/>
      </g>
     </g>
    </g>
   </g>
   <g id="line2d_17">
    <path clip-path="url(#pbf4312c052)" d="M 45.321307 217.116666 
L 52.65537 216.516082 
L 58.76709 215.819247 
L 64.87881 214.892573 
L 69.768185 213.948599 
L 74.657561 212.790731 
L 79.546937 211.385771 
L 84.436312 209.699526 
L 88.103344 208.229736 
L 91.770376 206.56872 
L 95.437408 204.703549 
L 99.104439 202.622635 
L 102.771471 200.316211 
L 106.438503 197.776824 
L 110.105535 194.999843 
L 113.772566 191.98396 
L 117.439598 188.731673 
L 122.328974 184.03985 
L 127.21835 178.969127 
L 132.107725 173.564081 
L 138.219445 166.431866 
L 146.775852 156.030966 
L 156.554604 144.190556 
L 161.443979 138.568755 
L 166.333355 133.313059 
L 170.000387 129.686664 
L 173.667419 126.386793 
L 177.33445 123.46065 
L 179.779138 121.738905 
L 182.223826 120.213862 
L 184.668514 118.89576 
L 187.113202 117.793537 
L 189.55789 116.914731 
L 192.002577 116.265391 
L 194.447265 115.85001 
L 196.891953 115.671472 
L 199.336641 115.731019 
L 201.781329 116.028237 
L 204.226017 116.561059 
L 206.670704 117.325793 
L 209.115392 118.317158 
L 211.56008 119.528353 
L 214.004768 120.951127 
L 216.449456 122.575878 
L 218.894144 124.391757 
L 222.561175 127.447477 
L 226.228207 130.861616 
L 229.895239 134.585777 
L 234.784615 139.94482 
L 239.67399 145.638397 
L 248.230398 156.030966 
L 258.009149 167.885555 
L 264.120869 174.943637 
L 269.010244 180.270168 
L 273.89962 185.249717 
L 278.788996 189.841712 
L 282.456028 193.015728 
L 286.123059 195.952057 
L 289.790091 198.64952 
L 293.457123 201.110589 
L 297.124155 203.34089 
L 300.791186 205.348704 
L 304.458218 207.144461 
L 308.12525 208.740245 
L 313.014626 210.579955 
L 317.904001 212.121263 
L 322.793377 213.398441 
L 327.682753 214.445312 
L 332.572128 215.294232 
L 338.683848 216.12268 
L 344.795567 216.741577 
L 349.684943 217.116666 
L 349.684943 217.116666 
" style="fill:none;stroke:#ea013a;stroke-linecap:round;stroke-width:1.5;"/>
   </g>
   <g id="line2d_18">
    <path clip-path="url(#pbf4312c052)" d="M 45.321307 218.221948 
L 69.768185 218.045734 
L 83.213968 217.739657 
L 92.99272 217.30682 
L 100.326783 216.793759 
L 107.660847 216.050081 
L 113.772566 215.197888 
L 118.661942 214.325924 
L 123.551318 213.252072 
L 128.440693 211.943748 
L 133.330069 210.367009 
L 136.997101 208.987686 
L 140.664133 207.423966 
L 144.331164 205.662415 
L 147.998196 203.690718 
L 151.665228 201.498138 
L 155.33226 199.075999 
L 158.999291 196.418198 
L 162.666323 193.521702 
L 166.333355 190.38705 
L 170.000387 187.018806 
L 174.889762 182.180689 
L 179.779138 176.978502 
L 184.668514 171.462894 
L 190.780233 164.231142 
L 211.56008 139.25405 
L 216.449456 133.945701 
L 220.116488 130.269715 
L 223.783519 126.912045 
L 227.450551 123.920506 
L 229.895239 122.151328 
L 232.339927 120.576101 
L 234.784615 119.205372 
L 237.229302 118.048417 
L 239.67399 117.11313 
L 242.118678 116.40594 
L 244.563366 115.931736 
L 247.008054 115.693806 
L 249.452742 115.693806 
L 251.897429 115.931736 
L 254.342117 116.40594 
L 256.786805 117.11313 
L 259.231493 118.048417 
L 261.676181 119.205372 
L 264.120869 120.576101 
L 266.565557 122.151328 
L 269.010244 123.920506 
L 272.677276 126.912045 
L 276.344308 130.269715 
L 280.01134 133.945701 
L 284.900715 139.25405 
L 289.790091 144.912726 
L 297.124155 153.782843 
L 309.347594 168.607848 
L 315.459313 175.626646 
L 320.348689 180.912573 
L 325.238065 185.84557 
L 330.12744 190.38705 
L 333.794472 193.521702 
L 337.461504 196.418198 
L 341.128536 199.075999 
L 344.795567 201.498138 
L 348.462599 203.690718 
L 349.684943 204.372001 
L 349.684943 204.372001 
" style="fill:none;stroke:#1368ce;stroke-linecap:round;stroke-width:1.5;"/>
   </g>
   <g id="line2d_19">
    <path clip-path="url(#pbf4312c052)" d="M 45.321307 218.256364 
L 122.328974 218.15241 
L 129.663037 217.942582 
L 134.552413 217.63564 
L 138.219445 217.249879 
L 141.886477 216.663263 
L 145.553508 215.794453 
L 147.998196 215.008893 
L 150.442884 214.017516 
L 152.887572 212.781106 
L 155.33226 211.25727 
L 157.776948 209.401384 
L 160.221635 207.167889 
L 162.666323 204.511941 
L 165.111011 201.391388 
L 167.555699 197.769006 
L 170.000387 193.614922 
L 172.445075 188.909088 
L 174.889762 183.643671 
L 177.33445 177.825197 
L 179.779138 171.476278 
L 182.223826 164.636773 
L 185.890858 153.588339 
L 190.780233 137.819135 
L 199.336641 109.822668 
L 203.003673 98.754727 
L 205.44836 91.993652 
L 207.893048 85.853502 
L 210.337736 80.427282 
L 212.782424 75.790951 
L 214.004768 73.787587 
L 215.227112 72.001533 
L 216.449456 70.43679 
L 217.6718 69.096102 
L 218.894144 67.980967 
L 220.116488 67.091667 
L 221.338831 66.427306 
L 222.561175 65.985866 
L 223.783519 65.764261 
L 225.005863 65.758405 
L 226.228207 65.963292 
L 227.450551 66.373069 
L 228.672895 66.981123 
L 229.895239 67.780166 
L 231.117583 68.762322 
L 232.339927 69.919218 
L 234.784615 72.721751 
L 237.229302 76.114015 
L 239.67399 80.019524 
L 242.118678 84.361323 
L 245.78571 91.527701 
L 249.452742 99.265716 
L 255.564461 112.85409 
L 265.343213 134.667367 
L 270.232588 144.994404 
L 273.89962 152.32872 
L 277.566652 159.254105 
L 281.233684 165.736849 
L 284.900715 171.756564 
L 288.567747 177.304047 
L 292.234779 182.379427 
L 295.901811 186.990542 
L 299.568842 191.151509 
L 303.235874 194.881435 
L 306.902906 198.20327 
L 310.569938 201.142758 
L 314.236969 203.727511 
L 317.904001 205.986176 
L 321.571033 207.947724 
L 325.238065 209.640836 
L 328.905097 211.093398 
L 332.572128 212.332101 
L 336.23916 213.382131 
L 341.128536 214.528971 
L 346.017911 215.432333 
L 349.684943 215.976968 
L 349.684943 215.976968 
" style="fill:none;stroke:#ffa602;stroke-linecap:round;stroke-width:1.5;"/>
   </g>
   <g id="line2d_20">
    <path clip-path="url(#pbf4312c052)" d="M 45.321307 218.256364 
L 179.779138 218.210433 
L 182.223826 218.001952 
L 183.44617 217.704771 
L 184.668514 217.123421 
L 185.890858 216.05068 
L 187.113202 214.183489 
L 188.335546 211.117888 
L 189.55789 206.37035 
L 190.780233 199.435485 
L 192.002577 189.88092 
L 193.224921 177.465338 
L 194.447265 162.250176 
L 196.891953 125.50922 
L 199.336641 86.794905 
L 200.558985 69.449844 
L 201.781329 54.591136 
L 203.003673 42.649862 
L 204.226017 33.686634 
L 205.44836 27.459111 
L 206.670704 23.533697 
L 207.893048 21.403585 
L 209.115392 20.583636 
L 210.337736 20.668099 
L 211.56008 21.351935 
L 212.782424 22.425772 
L 214.004768 23.757002 
L 216.449456 26.913356 
L 218.894144 30.529475 
L 221.338831 34.517462 
L 223.783519 38.839693 
L 227.450551 45.885713 
L 231.117583 53.518169 
L 234.784615 61.633276 
L 239.67399 73.02043 
L 247.008054 90.807337 
L 258.009149 117.514746 
L 262.898525 128.871798 
L 267.7879 139.681891 
L 271.454932 147.356087 
L 275.121964 154.614208 
L 278.788996 161.42706 
L 282.456028 167.775092 
L 286.123059 173.64775 
L 289.790091 179.042677 
L 293.457123 183.964814 
L 297.124155 188.425416 
L 300.791186 192.441045 
L 304.458218 196.032558 
L 308.12525 199.224126 
L 311.792282 202.042303 
L 315.459313 204.515178 
L 319.126345 206.671601 
L 322.793377 208.540519 
L 326.460409 210.150403 
L 330.12744 211.528783 
L 333.794472 212.701878 
L 338.683848 213.988996 
L 343.573224 215.008173 
L 348.462599 215.806802 
L 349.684943 215.976968 
L 349.684943 215.976968 
" style="fill:none;stroke:#26890c;stroke-linecap:round;stroke-width:1.5;"/>
   </g>
   <g id="patch_3">
    <path d="M 30.103125 228.14 
L 30.103125 10.7 
" style="fill:none;stroke:#262626;stroke-linecap:square;stroke-linejoin:miter;stroke-width:0.8;"/>
   </g>
   <g id="patch_4">
    <path d="M 30.103125 228.14 
L 364.903125 228.14 
" style="fill:none;stroke:#262626;stroke-linecap:square;stroke-linejoin:miter;stroke-width:0.8;"/>
   </g>
   <g id="text_17">
    <!-- N(1,1) -->
    <defs>
     <path d="M 9.8125 72.90625 
L 23.09375 72.90625 
L 55.421875 11.921875 
L 55.421875 72.90625 
L 64.984375 72.90625 
L 64.984375 0 
L 51.703125 0 
L 19.390625 60.984375 
L 19.390625 0 
L 9.8125 0 
z
" id="DejaVuSans-78"/>
     <path d="M 31 75.875 
Q 24.46875 64.65625 21.28125 53.65625 
Q 18.109375 42.671875 18.109375 31.390625 
Q 18.109375 20.125 21.3125 9.0625 
Q 24.515625 -2 31 -13.1875 
L 23.1875 -13.1875 
Q 15.875 -1.703125 12.234375 9.375 
Q 8.59375 20.453125 8.59375 31.390625 
Q 8.59375 42.28125 12.203125 53.3125 
Q 15.828125 64.359375 23.1875 75.875 
z
" id="DejaVuSans-40"/>
     <path d="M 11.71875 12.40625 
L 22.015625 12.40625 
L 22.015625 4 
L 14.015625 -11.625 
L 7.71875 -11.625 
L 11.71875 4 
z
" id="DejaVuSans-44"/>
     <path d="M 8.015625 75.875 
L 15.828125 75.875 
Q 23.140625 64.359375 26.78125 53.3125 
Q 30.421875 42.28125 30.421875 31.390625 
Q 30.421875 20.453125 26.78125 9.375 
Q 23.140625 -1.703125 15.828125 -13.1875 
L 8.015625 -13.1875 
Q 14.5 -2 17.703125 9.0625 
Q 20.90625 20.125 20.90625 31.390625 
Q 20.90625 42.671875 17.703125 53.65625 
Q 14.5 64.65625 8.015625 75.875 
z
" id="DejaVuSans-41"/>
    </defs>
    <g style="fill:#1368ce;" transform="translate(96.04858 115.392022)scale(0.2 -0.2)">
     <use xlink:href="#DejaVuSans-78"/>
     <use x="74.804688" xlink:href="#DejaVuSans-40"/>
     <use x="113.818359" xlink:href="#DejaVuSans-49"/>
     <use x="177.441406" xlink:href="#DejaVuSans-44"/>
     <use x="209.228516" xlink:href="#DejaVuSans-49"/>
     <use x="272.851562" xlink:href="#DejaVuSans-41"/>
    </g>
   </g>
   <g id="text_18">
    <!-- N(0,1) -->
    <g style="fill:#ea013a;" transform="translate(96.04858 89.675937)scale(0.2 -0.2)">
     <use xlink:href="#DejaVuSans-78"/>
     <use x="74.804688" xlink:href="#DejaVuSans-40"/>
     <use x="113.818359" xlink:href="#DejaVuSans-48"/>
     <use x="177.441406" xlink:href="#DejaVuSans-44"/>
     <use x="209.228516" xlink:href="#DejaVuSans-49"/>
     <use x="272.851562" xlink:href="#DejaVuSans-41"/>
    </g>
   </g>
   <g id="text_19">
    <!-- N$_S$(2) -->
    <defs>
     <path d="M 60.296875 70.515625 
L 58.40625 60.890625 
Q 53.46875 63.53125 48.609375 64.875 
Q 43.75 66.21875 39.203125 66.21875 
Q 30.375 66.21875 25.140625 62.359375 
Q 19.921875 58.5 19.921875 52.09375 
Q 19.921875 48.578125 21.84375 46.703125 
Q 23.78125 44.828125 31.78125 42.671875 
L 37.703125 41.21875 
Q 47.703125 38.625 51.609375 34.640625 
Q 55.515625 30.671875 55.515625 23.484375 
Q 55.515625 12.453125 46.84375 5.515625 
Q 38.1875 -1.421875 24.03125 -1.421875 
Q 18.21875 -1.421875 12.359375 -0.265625 
Q 6.5 0.875 0.59375 3.21875 
L 2.59375 13.375 
Q 8.015625 10.015625 13.453125 8.296875 
Q 18.890625 6.59375 24.3125 6.59375 
Q 33.546875 6.59375 39.109375 10.6875 
Q 44.671875 14.796875 44.671875 21.390625 
Q 44.671875 25.78125 42.453125 28.046875 
Q 40.234375 30.328125 32.90625 32.171875 
L 27 33.6875 
Q 16.890625 36.328125 13.203125 39.765625 
Q 9.515625 43.21875 9.515625 49.421875 
Q 9.515625 60.296875 17.890625 67.25 
Q 26.265625 74.21875 39.703125 74.21875 
Q 44.921875 74.21875 50.046875 73.28125 
Q 55.171875 72.359375 60.296875 70.515625 
z
" id="DejaVuSans-Oblique-83"/>
    </defs>
    <g style="fill:#ffa602;" transform="translate(96.04858 63.959851)scale(0.2 -0.2)">
     <use transform="translate(0 0.125)" xlink:href="#DejaVuSans-78"/>
     <use transform="translate(75.761719 -16.28125)scale(0.7)" xlink:href="#DejaVuSans-Oblique-83"/>
     <use transform="translate(122.929688 0.125)" xlink:href="#DejaVuSans-40"/>
     <use transform="translate(161.943359 0.125)" xlink:href="#DejaVuSans-50"/>
     <use transform="translate(225.566406 0.125)" xlink:href="#DejaVuSans-41"/>
    </g>
   </g>
   <g id="text_20">
    <!-- N$_S$(10) -->
    <g style="fill:#26890c;" transform="translate(96.04858 38.243766)scale(0.2 -0.2)">
     <use transform="translate(0 0.125)" xlink:href="#DejaVuSans-78"/>
     <use transform="translate(75.761719 -16.28125)scale(0.7)" xlink:href="#DejaVuSans-Oblique-83"/>
     <use transform="translate(122.929688 0.125)" xlink:href="#DejaVuSans-40"/>
     <use transform="translate(161.943359 0.125)" xlink:href="#DejaVuSans-49"/>
     <use transform="translate(225.566406 0.125)" xlink:href="#DejaVuSans-48"/>
     <use transform="translate(289.189453 0.125)" xlink:href="#DejaVuSans-41"/>
    </g>
   </g>
  </g>
 </g>
 <defs>
  <clipPath id="pbf4312c052">
   <rect height="217.44" width="334.8" x="30.103125" y="10.7"/>
  </clipPath>
 </defs>
</svg>
