<?xml version="1.0" encoding="utf-8" standalone="no"?>
<!DOCTYPE svg PUBLIC "-//W3C//DTD SVG 1.1//EN"
  "http://www.w3.org/Graphics/SVG/1.1/DTD/svg11.dtd">
<!-- Created with matplotlib (https://matplotlib.org/) -->
<svg height="197.658125pt" version="1.1" viewBox="0 0 545.099041 197.658125" width="545.099041pt" xmlns="http://www.w3.org/2000/svg" xmlns:xlink="http://www.w3.org/1999/xlink">
 <defs>
  <style type="text/css">
*{stroke-linecap:butt;stroke-linejoin:round;}
  </style>
 </defs>
 <g id="figure_1">
  <g id="patch_1">
   <path d="M 0 197.658125 
L 545.099041 197.658125 
L 545.099041 0 
L 0 0 
z
" style="fill:none;"/>
  </g>
  <g id="axes_1">
   <g id="patch_2">
    <path d="M 28.942188 173.78 
L 176.64807 173.78 
L 176.64807 10.7 
L 28.942188 10.7 
z
" style="fill:none;"/>
   </g>
   <g id="matplotlib.axis_1">
    <g id="xtick_1">
     <g id="line2d_1">
      <defs>
       <path d="M 0 0 
L 0 3.5 
" id="m44b964e5ae" style="stroke:#262626;stroke-width:0.8;"/>
      </defs>
      <g>
       <use style="fill:#262626;stroke:#262626;stroke-width:0.8;" x="80.318147" xlink:href="#m44b964e5ae" y="173.78"/>
      </g>
     </g>
     <g id="text_1">
      <!-- 0 -->
      <defs>
       <path d="M 31.78125 66.40625 
Q 24.171875 66.40625 20.328125 58.90625 
Q 16.5 51.421875 16.5 36.375 
Q 16.5 21.390625 20.328125 13.890625 
Q 24.171875 6.390625 31.78125 6.390625 
Q 39.453125 6.390625 43.28125 13.890625 
Q 47.125 21.390625 47.125 36.375 
Q 47.125 51.421875 43.28125 58.90625 
Q 39.453125 66.40625 31.78125 66.40625 
z
M 31.78125 74.21875 
Q 44.046875 74.21875 50.515625 64.515625 
Q 56.984375 54.828125 56.984375 36.375 
Q 56.984375 17.96875 50.515625 8.265625 
Q 44.046875 -1.421875 31.78125 -1.421875 
Q 19.53125 -1.421875 13.0625 8.265625 
Q 6.59375 17.96875 6.59375 36.375 
Q 6.59375 54.828125 13.0625 64.515625 
Q 19.53125 74.21875 31.78125 74.21875 
z
" id="DejaVuSans-48"/>
      </defs>
      <g style="fill:#262626;" transform="translate(77.136897 188.378438)scale(0.1 -0.1)">
       <use xlink:href="#DejaVuSans-48"/>
      </g>
     </g>
    </g>
    <g id="xtick_2">
     <g id="line2d_2">
      <g>
       <use style="fill:#262626;stroke:#262626;stroke-width:0.8;" x="144.538095" xlink:href="#m44b964e5ae" y="173.78"/>
      </g>
     </g>
     <g id="text_2">
      <!-- 5 -->
      <defs>
       <path d="M 10.796875 72.90625 
L 49.515625 72.90625 
L 49.515625 64.59375 
L 19.828125 64.59375 
L 19.828125 46.734375 
Q 21.96875 47.46875 24.109375 47.828125 
Q 26.265625 48.1875 28.421875 48.1875 
Q 40.625 48.1875 47.75 41.5 
Q 54.890625 34.8125 54.890625 23.390625 
Q 54.890625 11.625 47.5625 5.09375 
Q 40.234375 -1.421875 26.90625 -1.421875 
Q 22.3125 -1.421875 17.546875 -0.640625 
Q 12.796875 0.140625 7.71875 1.703125 
L 7.71875 11.625 
Q 12.109375 9.234375 16.796875 8.0625 
Q 21.484375 6.890625 26.703125 6.890625 
Q 35.15625 6.890625 40.078125 11.328125 
Q 45.015625 15.765625 45.015625 23.390625 
Q 45.015625 31 40.078125 35.4375 
Q 35.15625 39.890625 26.703125 39.890625 
Q 22.75 39.890625 18.8125 39.015625 
Q 14.890625 38.140625 10.796875 36.28125 
z
" id="DejaVuSans-53"/>
      </defs>
      <g style="fill:#262626;" transform="translate(141.356845 188.378438)scale(0.1 -0.1)">
       <use xlink:href="#DejaVuSans-53"/>
      </g>
     </g>
    </g>
   </g>
   <g id="matplotlib.axis_2">
    <g id="ytick_1">
     <g id="line2d_3">
      <defs>
       <path d="M 0 0 
L -3.5 0 
" id="mb36983b6cd" style="stroke:#262626;stroke-width:0.8;"/>
      </defs>
      <g>
       <use style="fill:#262626;stroke:#262626;stroke-width:0.8;" x="28.942188" xlink:href="#mb36983b6cd" y="173.78"/>
      </g>
     </g>
     <g id="text_3">
      <!-- −4 -->
      <defs>
       <path d="M 10.59375 35.5 
L 73.1875 35.5 
L 73.1875 27.203125 
L 10.59375 27.203125 
z
" id="DejaVuSans-8722"/>
       <path d="M 37.796875 64.3125 
L 12.890625 25.390625 
L 37.796875 25.390625 
z
M 35.203125 72.90625 
L 47.609375 72.90625 
L 47.609375 25.390625 
L 58.015625 25.390625 
L 58.015625 17.1875 
L 47.609375 17.1875 
L 47.609375 0 
L 37.796875 0 
L 37.796875 17.1875 
L 4.890625 17.1875 
L 4.890625 26.703125 
z
" id="DejaVuSans-52"/>
      </defs>
      <g style="fill:#262626;" transform="translate(7.2 177.579219)scale(0.1 -0.1)">
       <use xlink:href="#DejaVuSans-8722"/>
       <use x="83.789062" xlink:href="#DejaVuSans-52"/>
      </g>
     </g>
    </g>
    <g id="ytick_2">
     <g id="line2d_4">
      <g>
       <use style="fill:#262626;stroke:#262626;stroke-width:0.8;" x="28.942188" xlink:href="#mb36983b6cd" y="145.418261"/>
      </g>
     </g>
     <g id="text_4">
      <!-- −2 -->
      <defs>
       <path d="M 19.1875 8.296875 
L 53.609375 8.296875 
L 53.609375 0 
L 7.328125 0 
L 7.328125 8.296875 
Q 12.9375 14.109375 22.625 23.890625 
Q 32.328125 33.6875 34.8125 36.53125 
Q 39.546875 41.84375 41.421875 45.53125 
Q 43.3125 49.21875 43.3125 52.78125 
Q 43.3125 58.59375 39.234375 62.25 
Q 35.15625 65.921875 28.609375 65.921875 
Q 23.96875 65.921875 18.8125 64.3125 
Q 13.671875 62.703125 7.8125 59.421875 
L 7.8125 69.390625 
Q 13.765625 71.78125 18.9375 73 
Q 24.125 74.21875 28.421875 74.21875 
Q 39.75 74.21875 46.484375 68.546875 
Q 53.21875 62.890625 53.21875 53.421875 
Q 53.21875 48.921875 51.53125 44.890625 
Q 49.859375 40.875 45.40625 35.40625 
Q 44.1875 33.984375 37.640625 27.21875 
Q 31.109375 20.453125 19.1875 8.296875 
z
" id="DejaVuSans-50"/>
      </defs>
      <g style="fill:#262626;" transform="translate(7.2 149.21748)scale(0.1 -0.1)">
       <use xlink:href="#DejaVuSans-8722"/>
       <use x="83.789062" xlink:href="#DejaVuSans-50"/>
      </g>
     </g>
    </g>
    <g id="ytick_3">
     <g id="line2d_5">
      <g>
       <use style="fill:#262626;stroke:#262626;stroke-width:0.8;" x="28.942188" xlink:href="#mb36983b6cd" y="117.056522"/>
      </g>
     </g>
     <g id="text_5">
      <!-- 0 -->
      <g style="fill:#262626;" transform="translate(15.579688 120.85574)scale(0.1 -0.1)">
       <use xlink:href="#DejaVuSans-48"/>
      </g>
     </g>
    </g>
    <g id="ytick_4">
     <g id="line2d_6">
      <g>
       <use style="fill:#262626;stroke:#262626;stroke-width:0.8;" x="28.942188" xlink:href="#mb36983b6cd" y="88.694783"/>
      </g>
     </g>
     <g id="text_6">
      <!-- 2 -->
      <g style="fill:#262626;" transform="translate(15.579688 92.494001)scale(0.1 -0.1)">
       <use xlink:href="#DejaVuSans-50"/>
      </g>
     </g>
    </g>
    <g id="ytick_5">
     <g id="line2d_7">
      <g>
       <use style="fill:#262626;stroke:#262626;stroke-width:0.8;" x="28.942188" xlink:href="#mb36983b6cd" y="60.333043"/>
      </g>
     </g>
     <g id="text_7">
      <!-- 4 -->
      <g style="fill:#262626;" transform="translate(15.579688 64.132262)scale(0.1 -0.1)">
       <use xlink:href="#DejaVuSans-52"/>
      </g>
     </g>
    </g>
    <g id="ytick_6">
     <g id="line2d_8">
      <g>
       <use style="fill:#262626;stroke:#262626;stroke-width:0.8;" x="28.942188" xlink:href="#mb36983b6cd" y="31.971304"/>
      </g>
     </g>
     <g id="text_8">
      <!-- 6 -->
      <defs>
       <path d="M 33.015625 40.375 
Q 26.375 40.375 22.484375 35.828125 
Q 18.609375 31.296875 18.609375 23.390625 
Q 18.609375 15.53125 22.484375 10.953125 
Q 26.375 6.390625 33.015625 6.390625 
Q 39.65625 6.390625 43.53125 10.953125 
Q 47.40625 15.53125 47.40625 23.390625 
Q 47.40625 31.296875 43.53125 35.828125 
Q 39.65625 40.375 33.015625 40.375 
z
M 52.59375 71.296875 
L 52.59375 62.3125 
Q 48.875 64.0625 45.09375 64.984375 
Q 41.3125 65.921875 37.59375 65.921875 
Q 27.828125 65.921875 22.671875 59.328125 
Q 17.53125 52.734375 16.796875 39.40625 
Q 19.671875 43.65625 24.015625 45.921875 
Q 28.375 48.1875 33.59375 48.1875 
Q 44.578125 48.1875 50.953125 41.515625 
Q 57.328125 34.859375 57.328125 23.390625 
Q 57.328125 12.15625 50.6875 5.359375 
Q 44.046875 -1.421875 33.015625 -1.421875 
Q 20.359375 -1.421875 13.671875 8.265625 
Q 6.984375 17.96875 6.984375 36.375 
Q 6.984375 53.65625 15.1875 63.9375 
Q 23.390625 74.21875 37.203125 74.21875 
Q 40.921875 74.21875 44.703125 73.484375 
Q 48.484375 72.75 52.59375 71.296875 
z
" id="DejaVuSans-54"/>
      </defs>
      <g style="fill:#262626;" transform="translate(15.579688 35.770523)scale(0.1 -0.1)">
       <use xlink:href="#DejaVuSans-54"/>
      </g>
     </g>
    </g>
   </g>
   <g id="PathCollection_1">
    <defs>
     <path d="M 0 3 
C 0.795609 3 1.55874 2.683901 2.12132 2.12132 
C 2.683901 1.55874 3 0.795609 3 0 
C 3 -0.795609 2.683901 -1.55874 2.12132 -2.12132 
C 1.55874 -2.683901 0.795609 -3 0 -3 
C -0.795609 -3 -1.55874 -2.683901 -2.12132 -2.12132 
C -2.683901 -1.55874 -3 -0.795609 -3 0 
C -3 0.795609 -2.683901 1.55874 -2.12132 2.12132 
C -1.55874 2.683901 -0.795609 3 0 3 
z
" id="m8bee1f91fe" style="stroke:#ffffff;stroke-width:0.75;"/>
    </defs>
    <g clip-path="url(#p2dd6ccfd7f)">
     <use style="fill:#1d6996;stroke:#ffffff;stroke-width:0.75;" x="87.3434" xlink:href="#m8bee1f91fe" y="144.813782"/>
     <use style="fill:#1d6996;stroke:#ffffff;stroke-width:0.75;" x="92.849012" xlink:href="#m8bee1f91fe" y="94.983935"/>
     <use style="fill:#1d6996;stroke:#ffffff;stroke-width:0.75;" x="63.686892" xlink:href="#m8bee1f91fe" y="105.816974"/>
     <use style="fill:#1d6996;stroke:#ffffff;stroke-width:0.75;" x="68.993101" xlink:href="#m8bee1f91fe" y="128.993481"/>
     <use style="fill:#1d6996;stroke:#ffffff;stroke-width:0.75;" x="89.551477" xlink:href="#m8bee1f91fe" y="115.036407"/>
     <use style="fill:#1d6996;stroke:#ffffff;stroke-width:0.75;" x="59.949806" xlink:href="#m8bee1f91fe" y="121.735097"/>
     <use style="fill:#1d6996;stroke:#ffffff;stroke-width:0.75;" x="47.720984" xlink:href="#m8bee1f91fe" y="98.961857"/>
     <use style="fill:#1d6996;stroke:#ffffff;stroke-width:0.75;" x="78.346791" xlink:href="#m8bee1f91fe" y="83.208371"/>
     <use style="fill:#1d6996;stroke:#ffffff;stroke-width:0.75;" x="96.387209" xlink:href="#m8bee1f91fe" y="96.643119"/>
     <use style="fill:#1d6996;stroke:#ffffff;stroke-width:0.75;" x="87.484546" xlink:href="#m8bee1f91fe" y="113.986999"/>
     <use style="fill:#1d6996;stroke:#ffffff;stroke-width:0.75;" x="76.822922" xlink:href="#m8bee1f91fe" y="128.502718"/>
     <use style="fill:#1d6996;stroke:#ffffff;stroke-width:0.75;" x="77.661721" xlink:href="#m8bee1f91fe" y="116.882549"/>
     <use style="fill:#1d6996;stroke:#ffffff;stroke-width:0.75;" x="70.059723" xlink:href="#m8bee1f91fe" y="156.729127"/>
     <use style="fill:#1d6996;stroke:#ffffff;stroke-width:0.75;" x="60.401936" xlink:href="#m8bee1f91fe" y="132.025383"/>
     <use style="fill:#1d6996;stroke:#ffffff;stroke-width:0.75;" x="95.574942" xlink:href="#m8bee1f91fe" y="100.680779"/>
     <use style="fill:#1d6996;stroke:#ffffff;stroke-width:0.75;" x="64.285612" xlink:href="#m8bee1f91fe" y="119.180534"/>
     <use style="fill:#1d6996;stroke:#ffffff;stroke-width:0.75;" x="97.322645" xlink:href="#m8bee1f91fe" y="82.988648"/>
     <use style="fill:#1d6996;stroke:#ffffff;stroke-width:0.75;" x="95.849964" xlink:href="#m8bee1f91fe" y="111.689311"/>
     <use style="fill:#1d6996;stroke:#ffffff;stroke-width:0.75;" x="98.85756" xlink:href="#m8bee1f91fe" y="130.603732"/>
     <use style="fill:#1d6996;stroke:#ffffff;stroke-width:0.75;" x="88.212611" xlink:href="#m8bee1f91fe" y="120.966346"/>
    </g>
   </g>
   <g id="PathCollection_2">
    <defs>
     <path d="M 0 3 
C 0.795609 3 1.55874 2.683901 2.12132 2.12132 
C 2.683901 1.55874 3 0.795609 3 0 
C 3 -0.795609 2.683901 -1.55874 2.12132 -2.12132 
C 1.55874 -2.683901 0.795609 -3 0 -3 
C -0.795609 -3 -1.55874 -2.683901 -2.12132 -2.12132 
C -2.683901 -1.55874 -3 -0.795609 -3 0 
C -3 0.795609 -2.683901 1.55874 -2.12132 2.12132 
C -1.55874 2.683901 -0.795609 3 0 3 
z
" id="m43c3e67fb3" style="stroke:#ffffff;stroke-width:0.75;"/>
    </defs>
    <g clip-path="url(#p2dd6ccfd7f)">
     <use style="fill:#cc503e;stroke:#ffffff;stroke-width:0.75;" x="99.584131" xlink:href="#m43c3e67fb3" y="95.785217"/>
    </g>
   </g>
   <g id="line2d_9">
    <path clip-path="url(#p2dd6ccfd7f)" d="M 28.942188 131.882325 
L 176.64807 81.79798 
" style="fill:none;stroke:#909090;stroke-linecap:round;stroke-width:1.5;"/>
   </g>
   <g id="patch_3">
    <path d="M 28.942188 173.78 
L 28.942188 10.7 
" style="fill:none;stroke:#262626;stroke-linecap:square;stroke-linejoin:miter;stroke-width:0.8;"/>
   </g>
   <g id="patch_4">
    <path d="M 28.942188 173.78 
L 176.64807 173.78 
" style="fill:none;stroke:#262626;stroke-linecap:square;stroke-linejoin:miter;stroke-width:0.8;"/>
   </g>
   <g id="text_9">
    <!-- r: 0.40 -->
    <defs>
     <path d="M 41.109375 46.296875 
Q 39.59375 47.171875 37.8125 47.578125 
Q 36.03125 48 33.890625 48 
Q 26.265625 48 22.1875 43.046875 
Q 18.109375 38.09375 18.109375 28.8125 
L 18.109375 0 
L 9.078125 0 
L 9.078125 54.6875 
L 18.109375 54.6875 
L 18.109375 46.1875 
Q 20.953125 51.171875 25.484375 53.578125 
Q 30.03125 56 36.53125 56 
Q 37.453125 56 38.578125 55.875 
Q 39.703125 55.765625 41.0625 55.515625 
z
" id="DejaVuSans-114"/>
     <path d="M 11.71875 12.40625 
L 22.015625 12.40625 
L 22.015625 0 
L 11.71875 0 
z
M 11.71875 51.703125 
L 22.015625 51.703125 
L 22.015625 39.3125 
L 11.71875 39.3125 
z
" id="DejaVuSans-58"/>
     <path id="DejaVuSans-32"/>
     <path d="M 10.6875 12.40625 
L 21 12.40625 
L 21 0 
L 10.6875 0 
z
" id="DejaVuSans-46"/>
    </defs>
    <g style="fill:#909090;" transform="translate(125.272111 46.152174)scale(0.14 -0.14)">
     <use xlink:href="#DejaVuSans-114"/>
     <use x="41.097656" xlink:href="#DejaVuSans-58"/>
     <use x="74.789062" xlink:href="#DejaVuSans-32"/>
     <use x="106.576172" xlink:href="#DejaVuSans-48"/>
     <use x="170.199219" xlink:href="#DejaVuSans-46"/>
     <use x="201.986328" xlink:href="#DejaVuSans-52"/>
     <use x="265.609375" xlink:href="#DejaVuSans-48"/>
    </g>
   </g>
   <g id="text_10">
    <!-- p: 0.073 -->
    <defs>
     <path d="M 18.109375 8.203125 
L 18.109375 -20.796875 
L 9.078125 -20.796875 
L 9.078125 54.6875 
L 18.109375 54.6875 
L 18.109375 46.390625 
Q 20.953125 51.265625 25.265625 53.625 
Q 29.59375 56 35.59375 56 
Q 45.5625 56 51.78125 48.09375 
Q 58.015625 40.1875 58.015625 27.296875 
Q 58.015625 14.40625 51.78125 6.484375 
Q 45.5625 -1.421875 35.59375 -1.421875 
Q 29.59375 -1.421875 25.265625 0.953125 
Q 20.953125 3.328125 18.109375 8.203125 
z
M 48.6875 27.296875 
Q 48.6875 37.203125 44.609375 42.84375 
Q 40.53125 48.484375 33.40625 48.484375 
Q 26.265625 48.484375 22.1875 42.84375 
Q 18.109375 37.203125 18.109375 27.296875 
Q 18.109375 17.390625 22.1875 11.75 
Q 26.265625 6.109375 33.40625 6.109375 
Q 40.53125 6.109375 44.609375 11.75 
Q 48.6875 17.390625 48.6875 27.296875 
z
" id="DejaVuSans-112"/>
     <path d="M 8.203125 72.90625 
L 55.078125 72.90625 
L 55.078125 68.703125 
L 28.609375 0 
L 18.3125 0 
L 43.21875 64.59375 
L 8.203125 64.59375 
z
" id="DejaVuSans-55"/>
     <path d="M 40.578125 39.3125 
Q 47.65625 37.796875 51.625 33 
Q 55.609375 28.21875 55.609375 21.1875 
Q 55.609375 10.40625 48.1875 4.484375 
Q 40.765625 -1.421875 27.09375 -1.421875 
Q 22.515625 -1.421875 17.65625 -0.515625 
Q 12.796875 0.390625 7.625 2.203125 
L 7.625 11.71875 
Q 11.71875 9.328125 16.59375 8.109375 
Q 21.484375 6.890625 26.8125 6.890625 
Q 36.078125 6.890625 40.9375 10.546875 
Q 45.796875 14.203125 45.796875 21.1875 
Q 45.796875 27.640625 41.28125 31.265625 
Q 36.765625 34.90625 28.71875 34.90625 
L 20.21875 34.90625 
L 20.21875 43.015625 
L 29.109375 43.015625 
Q 36.375 43.015625 40.234375 45.921875 
Q 44.09375 48.828125 44.09375 54.296875 
Q 44.09375 59.90625 40.109375 62.90625 
Q 36.140625 65.921875 28.71875 65.921875 
Q 24.65625 65.921875 20.015625 65.03125 
Q 15.375 64.15625 9.8125 62.3125 
L 9.8125 71.09375 
Q 15.4375 72.65625 20.34375 73.4375 
Q 25.25 74.21875 29.59375 74.21875 
Q 40.828125 74.21875 47.359375 69.109375 
Q 53.90625 64.015625 53.90625 55.328125 
Q 53.90625 49.265625 50.4375 45.09375 
Q 46.96875 40.921875 40.578125 39.3125 
z
" id="DejaVuSans-51"/>
    </defs>
    <g style="fill:#909090;" transform="translate(125.272111 60.333043)scale(0.14 -0.14)">
     <use xlink:href="#DejaVuSans-112"/>
     <use x="63.476562" xlink:href="#DejaVuSans-58"/>
     <use x="97.167969" xlink:href="#DejaVuSans-32"/>
     <use x="128.955078" xlink:href="#DejaVuSans-48"/>
     <use x="192.578125" xlink:href="#DejaVuSans-46"/>
     <use x="224.365234" xlink:href="#DejaVuSans-48"/>
     <use x="287.988281" xlink:href="#DejaVuSans-55"/>
     <use x="351.611328" xlink:href="#DejaVuSans-51"/>
    </g>
   </g>
  </g>
  <g id="axes_2">
   <g id="patch_5">
    <path d="M 206.189246 173.78 
L 353.895129 173.78 
L 353.895129 10.7 
L 206.189246 10.7 
z
" style="fill:none;"/>
   </g>
   <g id="matplotlib.axis_3">
    <g id="xtick_3">
     <g id="line2d_10">
      <g>
       <use style="fill:#262626;stroke:#262626;stroke-width:0.8;" x="257.565205" xlink:href="#m44b964e5ae" y="173.78"/>
      </g>
     </g>
     <g id="text_11">
      <!-- 0 -->
      <g style="fill:#262626;" transform="translate(254.383955 188.378438)scale(0.1 -0.1)">
       <use xlink:href="#DejaVuSans-48"/>
      </g>
     </g>
    </g>
    <g id="xtick_4">
     <g id="line2d_11">
      <g>
       <use style="fill:#262626;stroke:#262626;stroke-width:0.8;" x="321.785154" xlink:href="#m44b964e5ae" y="173.78"/>
      </g>
     </g>
     <g id="text_12">
      <!-- 5 -->
      <g style="fill:#262626;" transform="translate(318.603904 188.378438)scale(0.1 -0.1)">
       <use xlink:href="#DejaVuSans-53"/>
      </g>
     </g>
    </g>
   </g>
   <g id="matplotlib.axis_4">
    <g id="ytick_7">
     <g id="line2d_12">
      <g>
       <use style="fill:#262626;stroke:#262626;stroke-width:0.8;" x="206.189246" xlink:href="#mb36983b6cd" y="173.78"/>
      </g>
     </g>
     <g id="text_13">
      <!-- −4 -->
      <g style="fill:#262626;" transform="translate(184.447059 177.579219)scale(0.1 -0.1)">
       <use xlink:href="#DejaVuSans-8722"/>
       <use x="83.789062" xlink:href="#DejaVuSans-52"/>
      </g>
     </g>
    </g>
    <g id="ytick_8">
     <g id="line2d_13">
      <g>
       <use style="fill:#262626;stroke:#262626;stroke-width:0.8;" x="206.189246" xlink:href="#mb36983b6cd" y="145.418261"/>
      </g>
     </g>
     <g id="text_14">
      <!-- −2 -->
      <g style="fill:#262626;" transform="translate(184.447059 149.21748)scale(0.1 -0.1)">
       <use xlink:href="#DejaVuSans-8722"/>
       <use x="83.789062" xlink:href="#DejaVuSans-50"/>
      </g>
     </g>
    </g>
    <g id="ytick_9">
     <g id="line2d_14">
      <g>
       <use style="fill:#262626;stroke:#262626;stroke-width:0.8;" x="206.189246" xlink:href="#mb36983b6cd" y="117.056522"/>
      </g>
     </g>
     <g id="text_15">
      <!-- 0 -->
      <g style="fill:#262626;" transform="translate(192.826746 120.85574)scale(0.1 -0.1)">
       <use xlink:href="#DejaVuSans-48"/>
      </g>
     </g>
    </g>
    <g id="ytick_10">
     <g id="line2d_15">
      <g>
       <use style="fill:#262626;stroke:#262626;stroke-width:0.8;" x="206.189246" xlink:href="#mb36983b6cd" y="88.694783"/>
      </g>
     </g>
     <g id="text_16">
      <!-- 2 -->
      <g style="fill:#262626;" transform="translate(192.826746 92.494001)scale(0.1 -0.1)">
       <use xlink:href="#DejaVuSans-50"/>
      </g>
     </g>
    </g>
    <g id="ytick_11">
     <g id="line2d_16">
      <g>
       <use style="fill:#262626;stroke:#262626;stroke-width:0.8;" x="206.189246" xlink:href="#mb36983b6cd" y="60.333043"/>
      </g>
     </g>
     <g id="text_17">
      <!-- 4 -->
      <g style="fill:#262626;" transform="translate(192.826746 64.132262)scale(0.1 -0.1)">
       <use xlink:href="#DejaVuSans-52"/>
      </g>
     </g>
    </g>
    <g id="ytick_12">
     <g id="line2d_17">
      <g>
       <use style="fill:#262626;stroke:#262626;stroke-width:0.8;" x="206.189246" xlink:href="#mb36983b6cd" y="31.971304"/>
      </g>
     </g>
     <g id="text_18">
      <!-- 6 -->
      <g style="fill:#262626;" transform="translate(192.826746 35.770523)scale(0.1 -0.1)">
       <use xlink:href="#DejaVuSans-54"/>
      </g>
     </g>
    </g>
   </g>
   <g id="PathCollection_3">
    <g clip-path="url(#p3116152284)">
     <use style="fill:#1d6996;stroke:#ffffff;stroke-width:0.75;" x="264.590459" xlink:href="#m8bee1f91fe" y="144.813782"/>
     <use style="fill:#1d6996;stroke:#ffffff;stroke-width:0.75;" x="270.096071" xlink:href="#m8bee1f91fe" y="94.983935"/>
     <use style="fill:#1d6996;stroke:#ffffff;stroke-width:0.75;" x="240.93395" xlink:href="#m8bee1f91fe" y="105.816974"/>
     <use style="fill:#1d6996;stroke:#ffffff;stroke-width:0.75;" x="246.24016" xlink:href="#m8bee1f91fe" y="128.993481"/>
     <use style="fill:#1d6996;stroke:#ffffff;stroke-width:0.75;" x="266.798536" xlink:href="#m8bee1f91fe" y="115.036407"/>
     <use style="fill:#1d6996;stroke:#ffffff;stroke-width:0.75;" x="237.196865" xlink:href="#m8bee1f91fe" y="121.735097"/>
     <use style="fill:#1d6996;stroke:#ffffff;stroke-width:0.75;" x="224.968043" xlink:href="#m8bee1f91fe" y="98.961857"/>
     <use style="fill:#1d6996;stroke:#ffffff;stroke-width:0.75;" x="255.593849" xlink:href="#m8bee1f91fe" y="83.208371"/>
     <use style="fill:#1d6996;stroke:#ffffff;stroke-width:0.75;" x="273.634268" xlink:href="#m8bee1f91fe" y="96.643119"/>
     <use style="fill:#1d6996;stroke:#ffffff;stroke-width:0.75;" x="264.731604" xlink:href="#m8bee1f91fe" y="113.986999"/>
     <use style="fill:#1d6996;stroke:#ffffff;stroke-width:0.75;" x="254.06998" xlink:href="#m8bee1f91fe" y="128.502718"/>
     <use style="fill:#1d6996;stroke:#ffffff;stroke-width:0.75;" x="254.908779" xlink:href="#m8bee1f91fe" y="116.882549"/>
     <use style="fill:#1d6996;stroke:#ffffff;stroke-width:0.75;" x="247.306782" xlink:href="#m8bee1f91fe" y="156.729127"/>
     <use style="fill:#1d6996;stroke:#ffffff;stroke-width:0.75;" x="237.648995" xlink:href="#m8bee1f91fe" y="132.025383"/>
     <use style="fill:#1d6996;stroke:#ffffff;stroke-width:0.75;" x="272.822001" xlink:href="#m8bee1f91fe" y="100.680779"/>
     <use style="fill:#1d6996;stroke:#ffffff;stroke-width:0.75;" x="241.532671" xlink:href="#m8bee1f91fe" y="119.180534"/>
     <use style="fill:#1d6996;stroke:#ffffff;stroke-width:0.75;" x="274.569704" xlink:href="#m8bee1f91fe" y="82.988648"/>
     <use style="fill:#1d6996;stroke:#ffffff;stroke-width:0.75;" x="273.097023" xlink:href="#m8bee1f91fe" y="111.689311"/>
     <use style="fill:#1d6996;stroke:#ffffff;stroke-width:0.75;" x="276.104619" xlink:href="#m8bee1f91fe" y="130.603732"/>
     <use style="fill:#1d6996;stroke:#ffffff;stroke-width:0.75;" x="265.45967" xlink:href="#m8bee1f91fe" y="120.966346"/>
    </g>
   </g>
   <g id="PathCollection_4">
    <g clip-path="url(#p3116152284)">
     <use style="fill:#cc503e;stroke:#ffffff;stroke-width:0.75;" x="296.097175" xlink:href="#m43c3e67fb3" y="74.513913"/>
    </g>
   </g>
   <g id="line2d_18">
    <path clip-path="url(#p3116152284)" d="M 206.189246 138.19487 
L 353.895129 68.481471 
" style="fill:none;stroke:#909090;stroke-linecap:round;stroke-width:1.5;"/>
   </g>
   <g id="patch_6">
    <path d="M 206.189246 173.78 
L 206.189246 10.7 
" style="fill:none;stroke:#262626;stroke-linecap:square;stroke-linejoin:miter;stroke-width:0.8;"/>
   </g>
   <g id="patch_7">
    <path d="M 206.189246 173.78 
L 353.895129 173.78 
" style="fill:none;stroke:#262626;stroke-linecap:square;stroke-linejoin:miter;stroke-width:0.8;"/>
   </g>
   <g id="text_19">
    <!-- r: 0.42 -->
    <g style="fill:#909090;" transform="translate(302.51917 117.056522)scale(0.14 -0.14)">
     <use xlink:href="#DejaVuSans-114"/>
     <use x="41.097656" xlink:href="#DejaVuSans-58"/>
     <use x="74.789062" xlink:href="#DejaVuSans-32"/>
     <use x="106.576172" xlink:href="#DejaVuSans-48"/>
     <use x="170.199219" xlink:href="#DejaVuSans-46"/>
     <use x="201.986328" xlink:href="#DejaVuSans-52"/>
     <use x="265.609375" xlink:href="#DejaVuSans-50"/>
    </g>
   </g>
   <g id="text_20">
    <!-- p: 0.056 -->
    <g style="fill:#909090;" transform="translate(302.51917 131.237391)scale(0.14 -0.14)">
     <use xlink:href="#DejaVuSans-112"/>
     <use x="63.476562" xlink:href="#DejaVuSans-58"/>
     <use x="97.167969" xlink:href="#DejaVuSans-32"/>
     <use x="128.955078" xlink:href="#DejaVuSans-48"/>
     <use x="192.578125" xlink:href="#DejaVuSans-46"/>
     <use x="224.365234" xlink:href="#DejaVuSans-48"/>
     <use x="287.988281" xlink:href="#DejaVuSans-53"/>
     <use x="351.611328" xlink:href="#DejaVuSans-54"/>
    </g>
   </g>
  </g>
  <g id="axes_3">
   <g id="patch_8">
    <path d="M 383.436305 173.78 
L 531.142188 173.78 
L 531.142188 10.7 
L 383.436305 10.7 
z
" style="fill:none;"/>
   </g>
   <g id="matplotlib.axis_5">
    <g id="xtick_5">
     <g id="line2d_19">
      <g>
       <use style="fill:#262626;stroke:#262626;stroke-width:0.8;" x="434.812264" xlink:href="#m44b964e5ae" y="173.78"/>
      </g>
     </g>
     <g id="text_21">
      <!-- 0 -->
      <g style="fill:#262626;" transform="translate(431.631014 188.378438)scale(0.1 -0.1)">
       <use xlink:href="#DejaVuSans-48"/>
      </g>
     </g>
    </g>
    <g id="xtick_6">
     <g id="line2d_20">
      <g>
       <use style="fill:#262626;stroke:#262626;stroke-width:0.8;" x="499.032213" xlink:href="#m44b964e5ae" y="173.78"/>
      </g>
     </g>
     <g id="text_22">
      <!-- 5 -->
      <g style="fill:#262626;" transform="translate(495.850963 188.378438)scale(0.1 -0.1)">
       <use xlink:href="#DejaVuSans-53"/>
      </g>
     </g>
    </g>
   </g>
   <g id="matplotlib.axis_6">
    <g id="ytick_13">
     <g id="line2d_21">
      <g>
       <use style="fill:#262626;stroke:#262626;stroke-width:0.8;" x="383.436305" xlink:href="#mb36983b6cd" y="173.78"/>
      </g>
     </g>
     <g id="text_23">
      <!-- −4 -->
      <g style="fill:#262626;" transform="translate(361.694118 177.579219)scale(0.1 -0.1)">
       <use xlink:href="#DejaVuSans-8722"/>
       <use x="83.789062" xlink:href="#DejaVuSans-52"/>
      </g>
     </g>
    </g>
    <g id="ytick_14">
     <g id="line2d_22">
      <g>
       <use style="fill:#262626;stroke:#262626;stroke-width:0.8;" x="383.436305" xlink:href="#mb36983b6cd" y="145.418261"/>
      </g>
     </g>
     <g id="text_24">
      <!-- −2 -->
      <g style="fill:#262626;" transform="translate(361.694118 149.21748)scale(0.1 -0.1)">
       <use xlink:href="#DejaVuSans-8722"/>
       <use x="83.789062" xlink:href="#DejaVuSans-50"/>
      </g>
     </g>
    </g>
    <g id="ytick_15">
     <g id="line2d_23">
      <g>
       <use style="fill:#262626;stroke:#262626;stroke-width:0.8;" x="383.436305" xlink:href="#mb36983b6cd" y="117.056522"/>
      </g>
     </g>
     <g id="text_25">
      <!-- 0 -->
      <g style="fill:#262626;" transform="translate(370.073805 120.85574)scale(0.1 -0.1)">
       <use xlink:href="#DejaVuSans-48"/>
      </g>
     </g>
    </g>
    <g id="ytick_16">
     <g id="line2d_24">
      <g>
       <use style="fill:#262626;stroke:#262626;stroke-width:0.8;" x="383.436305" xlink:href="#mb36983b6cd" y="88.694783"/>
      </g>
     </g>
     <g id="text_26">
      <!-- 2 -->
      <g style="fill:#262626;" transform="translate(370.073805 92.494001)scale(0.1 -0.1)">
       <use xlink:href="#DejaVuSans-50"/>
      </g>
     </g>
    </g>
    <g id="ytick_17">
     <g id="line2d_25">
      <g>
       <use style="fill:#262626;stroke:#262626;stroke-width:0.8;" x="383.436305" xlink:href="#mb36983b6cd" y="60.333043"/>
      </g>
     </g>
     <g id="text_27">
      <!-- 4 -->
      <g style="fill:#262626;" transform="translate(370.073805 64.132262)scale(0.1 -0.1)">
       <use xlink:href="#DejaVuSans-52"/>
      </g>
     </g>
    </g>
    <g id="ytick_18">
     <g id="line2d_26">
      <g>
       <use style="fill:#262626;stroke:#262626;stroke-width:0.8;" x="383.436305" xlink:href="#mb36983b6cd" y="31.971304"/>
      </g>
     </g>
     <g id="text_28">
      <!-- 6 -->
      <g style="fill:#262626;" transform="translate(370.073805 35.770523)scale(0.1 -0.1)">
       <use xlink:href="#DejaVuSans-54"/>
      </g>
     </g>
    </g>
   </g>
   <g id="PathCollection_5">
    <g clip-path="url(#pa568d72127)">
     <use style="fill:#1d6996;stroke:#ffffff;stroke-width:0.75;" x="441.837518" xlink:href="#m8bee1f91fe" y="144.813782"/>
     <use style="fill:#1d6996;stroke:#ffffff;stroke-width:0.75;" x="447.34313" xlink:href="#m8bee1f91fe" y="94.983935"/>
     <use style="fill:#1d6996;stroke:#ffffff;stroke-width:0.75;" x="418.181009" xlink:href="#m8bee1f91fe" y="105.816974"/>
     <use style="fill:#1d6996;stroke:#ffffff;stroke-width:0.75;" x="423.487219" xlink:href="#m8bee1f91fe" y="128.993481"/>
     <use style="fill:#1d6996;stroke:#ffffff;stroke-width:0.75;" x="444.045594" xlink:href="#m8bee1f91fe" y="115.036407"/>
     <use style="fill:#1d6996;stroke:#ffffff;stroke-width:0.75;" x="414.443924" xlink:href="#m8bee1f91fe" y="121.735097"/>
     <use style="fill:#1d6996;stroke:#ffffff;stroke-width:0.75;" x="402.215101" xlink:href="#m8bee1f91fe" y="98.961857"/>
     <use style="fill:#1d6996;stroke:#ffffff;stroke-width:0.75;" x="432.840908" xlink:href="#m8bee1f91fe" y="83.208371"/>
     <use style="fill:#1d6996;stroke:#ffffff;stroke-width:0.75;" x="450.881326" xlink:href="#m8bee1f91fe" y="96.643119"/>
     <use style="fill:#1d6996;stroke:#ffffff;stroke-width:0.75;" x="441.978663" xlink:href="#m8bee1f91fe" y="113.986999"/>
     <use style="fill:#1d6996;stroke:#ffffff;stroke-width:0.75;" x="431.317039" xlink:href="#m8bee1f91fe" y="128.502718"/>
     <use style="fill:#1d6996;stroke:#ffffff;stroke-width:0.75;" x="432.155838" xlink:href="#m8bee1f91fe" y="116.882549"/>
     <use style="fill:#1d6996;stroke:#ffffff;stroke-width:0.75;" x="424.553841" xlink:href="#m8bee1f91fe" y="156.729127"/>
     <use style="fill:#1d6996;stroke:#ffffff;stroke-width:0.75;" x="414.896054" xlink:href="#m8bee1f91fe" y="132.025383"/>
     <use style="fill:#1d6996;stroke:#ffffff;stroke-width:0.75;" x="450.06906" xlink:href="#m8bee1f91fe" y="100.680779"/>
     <use style="fill:#1d6996;stroke:#ffffff;stroke-width:0.75;" x="418.77973" xlink:href="#m8bee1f91fe" y="119.180534"/>
     <use style="fill:#1d6996;stroke:#ffffff;stroke-width:0.75;" x="451.816763" xlink:href="#m8bee1f91fe" y="82.988648"/>
     <use style="fill:#1d6996;stroke:#ffffff;stroke-width:0.75;" x="450.344082" xlink:href="#m8bee1f91fe" y="111.689311"/>
     <use style="fill:#1d6996;stroke:#ffffff;stroke-width:0.75;" x="453.351678" xlink:href="#m8bee1f91fe" y="130.603732"/>
     <use style="fill:#1d6996;stroke:#ffffff;stroke-width:0.75;" x="442.706729" xlink:href="#m8bee1f91fe" y="120.966346"/>
    </g>
   </g>
   <g id="PathCollection_6">
    <g clip-path="url(#pa568d72127)">
     <use style="fill:#cc503e;stroke:#ffffff;stroke-width:0.75;" x="511.876203" xlink:href="#m43c3e67fb3" y="31.971304"/>
    </g>
   </g>
   <g id="line2d_27">
    <path clip-path="url(#pa568d72127)" d="M 383.436305 151.11151 
L 531.142188 43.329849 
" style="fill:none;stroke:#909090;stroke-linecap:round;stroke-width:1.5;"/>
   </g>
   <g id="patch_9">
    <path d="M 383.436305 173.78 
L 383.436305 10.7 
" style="fill:none;stroke:#262626;stroke-linecap:square;stroke-linejoin:miter;stroke-width:0.8;"/>
   </g>
   <g id="patch_10">
    <path d="M 383.436305 173.78 
L 531.142188 173.78 
" style="fill:none;stroke:#262626;stroke-linecap:square;stroke-linejoin:miter;stroke-width:0.8;"/>
   </g>
   <g id="text_29">
    <!-- r: 0.42 -->
    <g style="fill:#909090;" transform="translate(479.766228 102.875652)scale(0.14 -0.14)">
     <use xlink:href="#DejaVuSans-114"/>
     <use x="41.097656" xlink:href="#DejaVuSans-58"/>
     <use x="74.789062" xlink:href="#DejaVuSans-32"/>
     <use x="106.576172" xlink:href="#DejaVuSans-48"/>
     <use x="170.199219" xlink:href="#DejaVuSans-46"/>
     <use x="201.986328" xlink:href="#DejaVuSans-52"/>
     <use x="265.609375" xlink:href="#DejaVuSans-50"/>
    </g>
   </g>
   <g id="text_30">
    <!-- p: 0.056 -->
    <g style="fill:#909090;" transform="translate(479.766228 117.056522)scale(0.14 -0.14)">
     <use xlink:href="#DejaVuSans-112"/>
     <use x="63.476562" xlink:href="#DejaVuSans-58"/>
     <use x="97.167969" xlink:href="#DejaVuSans-32"/>
     <use x="128.955078" xlink:href="#DejaVuSans-48"/>
     <use x="192.578125" xlink:href="#DejaVuSans-46"/>
     <use x="224.365234" xlink:href="#DejaVuSans-48"/>
     <use x="287.988281" xlink:href="#DejaVuSans-53"/>
     <use x="351.611328" xlink:href="#DejaVuSans-54"/>
    </g>
   </g>
  </g>
 </g>
 <defs>
  <clipPath id="p2dd6ccfd7f">
   <rect height="163.08" width="147.705882" x="28.942188" y="10.7"/>
  </clipPath>
  <clipPath id="p3116152284">
   <rect height="163.08" width="147.705882" x="206.189246" y="10.7"/>
  </clipPath>
  <clipPath id="pa568d72127">
   <rect height="163.08" width="147.705882" x="383.436305" y="10.7"/>
  </clipPath>
 </defs>
</svg>
