<?xml version="1.0" standalone="no"?><!DOCTYPE svg PUBLIC "-//W3C//DTD SVG 1.1//EN" "http://www.w3.org/Graphics/SVG/1.1/DTD/svg11.dtd"><svg xmlns:xlink="http://www.w3.org/1999/xlink" version="1.1" style="font-family:open sans;font-size:12px;" xmlns="http://www.w3.org/2000/svg" width="1040" height="410"><desc>Created with Highcharts 4.1.5</desc><defs><clipPath id="highcharts-91"><rect x="0" y="0" width="840" height="196"></rect></clipPath></defs><rect x="0" y="0" width="1040" height="410" strokeWidth="0" fill="#FFFFFF" class=" highcharts-background"></rect><g class="highcharts-grid" ></g><g class="highcharts-grid" ></g><g class="highcharts-grid" ><path fill="none" d="M 79 331.5 L 919 331.5" stroke="#D8D8D8" stroke-width="1"  opacity="1"></path><path fill="none" d="M 79 266.5 L 919 266.5" stroke="#D8D8D8" stroke-width="1"  opacity="1"></path><path fill="none" d="M 79 200.5 L 919 200.5" stroke="#D8D8D8" stroke-width="1"  opacity="1"></path><path fill="none" d="M 79 134.5 L 919 134.5" stroke="#D8D8D8" stroke-width="1"  opacity="1"></path></g><g class="highcharts-grid" ><path fill="none" d="M 79 331.5 L 919 331.5" stroke="#D8D8D8" stroke-width="1"  opacity="1"></path><path fill="none" d="M 79 266.5 L 919 266.5" stroke="#D8D8D8" stroke-width="1"  opacity="1"></path><path fill="none" d="M 79 200.5 L 919 200.5" stroke="#D8D8D8" stroke-width="1"  opacity="1"></path><path fill="none" d="M 79 134.5 L 919 134.5" stroke="#D8D8D8" stroke-width="1"  opacity="1"></path></g><g class="highcharts-axis" ><path fill="none" d="M 162.5 331 L 162.5 341" stroke="#C0D0E0" stroke-width="1" opacity="1"></path><path fill="none" d="M 246.5 331 L 246.5 341" stroke="#C0D0E0" stroke-width="1" opacity="1"></path><path fill="none" d="M 330.5 331 L 330.5 341" stroke="#C0D0E0" stroke-width="1" opacity="1"></path><path fill="none" d="M 414.5 331 L 414.5 341" stroke="#C0D0E0" stroke-width="1" opacity="1"></path><path fill="none" d="M 498.5 331 L 498.5 341" stroke="#C0D0E0" stroke-width="1" opacity="1"></path><path fill="none" d="M 582.5 331 L 582.5 341" stroke="#C0D0E0" stroke-width="1" opacity="1"></path><path fill="none" d="M 666.5 331 L 666.5 341" stroke="#C0D0E0" stroke-width="1" opacity="1"></path><path fill="none" d="M 750.5 331 L 750.5 341" stroke="#C0D0E0" stroke-width="1" opacity="1"></path><path fill="none" d="M 834.5 331 L 834.5 341" stroke="#C0D0E0" stroke-width="1" opacity="1"></path><path fill="none" d="M 919.5 331 L 919.5 341" stroke="#C0D0E0" stroke-width="1" opacity="1"></path><path fill="none" d="M 78.5 331 L 78.5 341" stroke="#C0D0E0" stroke-width="1" opacity="1"></path><path fill="none" d="M 79 331.5 L 919 331.5" stroke="#C0D0E0" stroke-width="1"  visibility="visible"></path></g><g class="highcharts-axis" ><path fill="none" d="M 162.5 135 L 162.5 125" stroke="#C0D0E0" stroke-width="1" opacity="1"></path><path fill="none" d="M 246.5 135 L 246.5 125" stroke="#C0D0E0" stroke-width="1" opacity="1"></path><path fill="none" d="M 330.5 135 L 330.5 125" stroke="#C0D0E0" stroke-width="1" opacity="1"></path><path fill="none" d="M 414.5 135 L 414.5 125" stroke="#C0D0E0" stroke-width="1" opacity="1"></path><path fill="none" d="M 498.5 135 L 498.5 125" stroke="#C0D0E0" stroke-width="1" opacity="1"></path><path fill="none" d="M 582.5 135 L 582.5 125" stroke="#C0D0E0" stroke-width="1" opacity="1"></path><path fill="none" d="M 666.5 135 L 666.5 125" stroke="#C0D0E0" stroke-width="1" opacity="1"></path><path fill="none" d="M 750.5 135 L 750.5 125" stroke="#C0D0E0" stroke-width="1" opacity="1"></path><path fill="none" d="M 834.5 135 L 834.5 125" stroke="#C0D0E0" stroke-width="1" opacity="1"></path><path fill="none" d="M 919.5 135 L 919.5 125" stroke="#C0D0E0" stroke-width="1" opacity="1"></path><path fill="none" d="M 78.5 135 L 78.5 125" stroke="#C0D0E0" stroke-width="1" opacity="1"></path><path fill="none" d="M 79 134.5 L 919 134.5" stroke="#C0D0E0" stroke-width="1"  visibility="visible"></path></g><g class="highcharts-axis" ><text x="1012.9833297729492"  text-anchor="middle" transform="translate(0,0) rotate(90 1012.9833297729492 233)" class=" highcharts-yaxis-title" style="color:#000000;fill:#000000;" visibility="visible" y="233"><tspan>Engineering doctorates</tspan></text></g><g class="highcharts-axis" ><text x="26.66666603088379"  text-anchor="middle" transform="translate(0,0) rotate(270 26.66666603088379 233)" class=" highcharts-yaxis-title" style="color:#ba0f27;fill:#ba0f27;" visibility="visible" y="233"><tspan>Mozzarella cheese consumption</tspan></text></g><g class="highcharts-series-group" ><g class="highcharts-series" visibility="visible"  transform="translate(79,135) scale(1 1)" clip-path="url(#highcharts-91)"><path fill="none" d="M 42 169.86666666666667 C 42 169.86666666666667 92.4 166.92666666666665 126 163.00666666666666 C 159.6 159.08666666666664 176.4 153.59866666666665 210 150.26666666666665 C 243.6 146.93466666666666 260.4 146.34666666666666 294 146.34666666666666 C 327.6 146.34666666666666 344.4 147.98000000000002 378 147.98000000000002 C 411.6 147.98000000000002 428.4 130.536 462 123.48 C 495.6 116.42399999999999 512.4 117.86133333333335 546 112.7 C 579.6 107.53866666666667 596.4 101.26666666666667 630 97.67333333333333 C 663.6 94.08 680.4 94.08 714 94.08 C 747.6 94.08 798 95.38666666666667 798 95.38666666666667" stroke="#000000" stroke-width="2"  stroke-linejoin="round" stroke-linecap="round"></path></g><g class="highcharts-markers" visibility="visible"  transform="translate(79,135) scale(1 1)" clip-path="none"><path fill="#000000" d="M 798 91.38666666666667 C 803.328 91.38666666666667 803.328 99.38666666666667 798 99.38666666666667 C 792.672 99.38666666666667 792.672 91.38666666666667 798 91.38666666666667 Z"></path><path fill="#000000" d="M 714 90.08 C 719.328 90.08 719.328 98.08 714 98.08 C 708.672 98.08 708.672 90.08 714 90.08 Z"></path><path fill="#000000" d="M 630 93.67333333333333 C 635.328 93.67333333333333 635.328 101.67333333333333 630 101.67333333333333 C 624.672 101.67333333333333 624.672 93.67333333333333 630 93.67333333333333 Z"></path><path fill="#000000" d="M 546 108.7 C 551.328 108.7 551.328 116.7 546 116.7 C 540.672 116.7 540.672 108.7 546 108.7 Z"></path><path fill="#000000" d="M 462 119.48 C 467.328 119.48 467.328 127.48 462 127.48 C 456.672 127.48 456.672 119.48 462 119.48 Z"></path><path fill="#000000" d="M 378 143.98000000000002 C 383.328 143.98000000000002 383.328 151.98000000000002 378 151.98000000000002 C 372.672 151.98000000000002 372.672 143.98000000000002 378 143.98000000000002 Z"></path><path fill="#000000" d="M 294 142.34666666666666 C 299.328 142.34666666666666 299.328 150.34666666666666 294 150.34666666666666 C 288.672 150.34666666666666 288.672 142.34666666666666 294 142.34666666666666 Z"></path><path fill="#000000" d="M 210 146.26666666666665 C 215.328 146.26666666666665 215.328 154.26666666666665 210 154.26666666666665 C 204.672 154.26666666666665 204.672 146.26666666666665 210 146.26666666666665 Z"></path><path fill="#000000" d="M 126 159.00666666666666 C 131.328 159.00666666666666 131.328 167.00666666666666 126 167.00666666666666 C 120.672 167.00666666666666 120.672 159.00666666666666 126 159.00666666666666 Z"></path><path fill="#000000" d="M 42 165.86666666666667 C 47.328 165.86666666666667 47.328 173.86666666666667 42 173.86666666666667 C 36.672 173.86666666666667 36.672 165.86666666666667 42 165.86666666666667 Z"></path></g><g class="highcharts-series" visibility="visible"  transform="translate(79,135) scale(1 1)" clip-path="url(#highcharts-91)"><path fill="none" d="M 42 176.39999999999995 C 42 176.39999999999995 92.4 150.2666666666667 126 150.2666666666667 C 159.6 150.2666666666667 176.4 150.2666666666667 210 150.2666666666667 C 243.6 150.2666666666667 260.4 150.2666666666667 294 150.2666666666667 C 327.6 150.2666666666667 344.4 143.73333333333332 378 137.2 C 411.6 130.66666666666666 428.4 125.44000000000005 462 117.60000000000005 C 495.6 109.76000000000006 512.4 108.45333333333333 546 98 C 579.6 87.54666666666667 596.4 65.33333333333334 630 65.33333333333334 C 663.6 65.33333333333334 680.4 91.4666666666667 714 91.4666666666667 C 747.6 91.4666666666667 798 91.4666666666667 798 91.4666666666667" stroke="#ba0f27" stroke-width="2"  stroke-linejoin="round" stroke-linecap="round"></path></g><g class="highcharts-markers" visibility="visible"  transform="translate(79,135) scale(1 1)" clip-path="none"><path fill="#ba0f27" d="M 798 87.4666666666667 L 802 91.4666666666667 798 95.4666666666667 794 91.4666666666667 Z"></path><path fill="#ba0f27" d="M 714 87.4666666666667 L 718 91.4666666666667 714 95.4666666666667 710 91.4666666666667 Z"></path><path fill="#ba0f27" d="M 630 61.33333333333334 L 634 65.33333333333334 630 69.33333333333334 626 65.33333333333334 Z"></path><path fill="#ba0f27" d="M 546 94 L 550 98 546 102 542 98 Z"></path><path fill="#ba0f27" d="M 462 113.60000000000005 L 466 117.60000000000005 462 121.60000000000005 458 117.60000000000005 Z"></path><path fill="#ba0f27" d="M 378 133.2 L 382 137.2 378 141.2 374 137.2 Z"></path><path fill="#ba0f27" d="M 294 146.2666666666667 L 298 150.2666666666667 294 154.2666666666667 290 150.2666666666667 Z"></path><path fill="#ba0f27" d="M 210 146.2666666666667 L 214 150.2666666666667 210 154.2666666666667 206 150.2666666666667 Z"></path><path fill="#ba0f27" d="M 126 146.2666666666667 L 130 150.2666666666667 126 154.2666666666667 122 150.2666666666667 Z"></path><path fill="#ba0f27" d="M 42 172.39999999999995 L 46 176.39999999999995 42 180.39999999999995 38 176.39999999999995 Z"></path></g></g><text x="520" text-anchor="middle" class="highcharts-title"  style="color:#777;font-size:18px;fill:#777;width:976px;" y="24"><tspan style="fill:#ba0f27;font-size:24px;font-weight:bold;font-family: 'lora'">Per capita consumption of mozzarella cheese</tspan><tspan style="font-family: 'lora'" x="520" dy="21"> correlates with </tspan><tspan style="fill:#000000;font-size:24px;font-weight:bold;font-family: 'lora'" x="520" dy="29">Civil engineering doctorates awarded</tspan></text><g class="highcharts-legend"  transform="translate(316,367)"><g ><g><g class="highcharts-legend-item"  transform="translate(8,3)"><path fill="none" d="M 0 11 L 16 11" stroke="#000000" stroke-width="2"></path><path fill="#000000" d="M 8 7 C 13.328 7 13.328 15 8 15 C 2.6719999999999997 15 2.6719999999999997 7 8 7 Z"></path><text x="21" style="color:#333333;font-size:12px;font-weight:bold;cursor:pointer;fill:#333333;" text-anchor="start"  y="15"><tspan>Engineering doctorates</tspan></text></g><g class="highcharts-legend-item"  transform="translate(187.81666564941406,3)"><path fill="none" d="M 0 11 L 16 11" stroke="#ba0f27" stroke-width="2"></path><path fill="#ba0f27" d="M 8 7 L 12 11 8 15 4 11 Z"></path><text x="21" y="15" style="color:#333333;font-size:12px;font-weight:bold;cursor:pointer;fill:#333333;" text-anchor="start" ><tspan>Mozzarella cheese consumption</tspan></text></g></g></g></g><g class="highcharts-axis-labels highcharts-xaxis-labels" ><text x="121" style="color:#000000;cursor:default;font-size:11px;fill:#000000;width:75px;text-overflow:clip;" text-anchor="middle" transform="translate(0,0)" y="350" opacity="1">2000</text><text x="205" style="color:#000000;cursor:default;font-size:11px;fill:#000000;width:75px;text-overflow:clip;" text-anchor="middle" transform="translate(0,0)" y="350" opacity="1">2001</text><text x="289" style="color:#000000;cursor:default;font-size:11px;fill:#000000;width:75px;text-overflow:clip;" text-anchor="middle" transform="translate(0,0)" y="350" opacity="1">2002</text><text x="373" style="color:#000000;cursor:default;font-size:11px;fill:#000000;width:75px;text-overflow:clip;" text-anchor="middle" transform="translate(0,0)" y="350" opacity="1">2003</text><text x="457" style="color:#000000;cursor:default;font-size:11px;fill:#000000;width:75px;text-overflow:clip;" text-anchor="middle" transform="translate(0,0)" y="350" opacity="1">2004</text><text x="541" style="color:#000000;cursor:default;font-size:11px;fill:#000000;width:75px;text-overflow:clip;" text-anchor="middle" transform="translate(0,0)" y="350" opacity="1">2005</text><text x="625" style="color:#000000;cursor:default;font-size:11px;fill:#000000;width:75px;text-overflow:clip;" text-anchor="middle" transform="translate(0,0)" y="350" opacity="1">2006</text><text x="709" style="color:#000000;cursor:default;font-size:11px;fill:#000000;width:75px;text-overflow:clip;" text-anchor="middle" transform="translate(0,0)" y="350" opacity="1">2007</text><text x="793" style="color:#000000;cursor:default;font-size:11px;fill:#000000;width:75px;text-overflow:clip;" text-anchor="middle" transform="translate(0,0)" y="350" opacity="1">2008</text><text x="877" style="color:#000000;cursor:default;font-size:11px;fill:#000000;width:75px;text-overflow:clip;" text-anchor="middle" transform="translate(0,0)" y="350" opacity="1">2009</text></g><g class="highcharts-axis-labels highcharts-xaxis-labels" ><text x="121" style="color:#ba0f27;cursor:default;font-size:11px;fill:#ba0f27;width:75px;text-overflow:clip;" text-anchor="middle" transform="translate(0,0)" y="120" opacity="1">2000</text><text x="205" style="color:#ba0f27;cursor:default;font-size:11px;fill:#ba0f27;width:75px;text-overflow:clip;" text-anchor="middle" transform="translate(0,0)" y="120" opacity="1">2001</text><text x="289" style="color:#ba0f27;cursor:default;font-size:11px;fill:#ba0f27;width:75px;text-overflow:clip;" text-anchor="middle" transform="translate(0,0)" y="120" opacity="1">2002</text><text x="373" style="color:#ba0f27;cursor:default;font-size:11px;fill:#ba0f27;width:75px;text-overflow:clip;" text-anchor="middle" transform="translate(0,0)" y="120" opacity="1">2003</text><text x="457" style="color:#ba0f27;cursor:default;font-size:11px;fill:#ba0f27;width:75px;text-overflow:clip;" text-anchor="middle" transform="translate(0,0)" y="120" opacity="1">2004</text><text x="541" style="color:#ba0f27;cursor:default;font-size:11px;fill:#ba0f27;width:75px;text-overflow:clip;" text-anchor="middle" transform="translate(0,0)" y="120" opacity="1">2005</text><text x="625" style="color:#ba0f27;cursor:default;font-size:11px;fill:#ba0f27;width:75px;text-overflow:clip;" text-anchor="middle" transform="translate(0,0)" y="120" opacity="1">2006</text><text x="709" style="color:#ba0f27;cursor:default;font-size:11px;fill:#ba0f27;width:75px;text-overflow:clip;" text-anchor="middle" transform="translate(0,0)" y="120" opacity="1">2007</text><text x="793" style="color:#ba0f27;cursor:default;font-size:11px;fill:#ba0f27;width:75px;text-overflow:clip;" text-anchor="middle" transform="translate(0,0)" y="120" opacity="1">2008</text><text x="877" style="color:#ba0f27;cursor:default;font-size:11px;fill:#ba0f27;width:75px;text-overflow:clip;" text-anchor="middle" transform="translate(0,0)" y="120" opacity="1">2009</text></g><g class="highcharts-axis-labels highcharts-yaxis-labels" ><text x="934" style="color:#000000;cursor:default;font-size:11px;fill:#000000;width:333px;text-overflow:clip;" text-anchor="start" transform="translate(0,0)" y="334" opacity="1"><tspan>400 degrees</tspan></text><text x="934" style="color:#000000;cursor:default;font-size:11px;fill:#000000;width:333px;text-overflow:clip;" text-anchor="start" transform="translate(0,0)" y="269" opacity="1"><tspan>600 degrees</tspan></text><text x="934" style="color:#000000;cursor:default;font-size:11px;fill:#000000;width:333px;text-overflow:clip;" text-anchor="start" transform="translate(0,0)" y="203" opacity="1"><tspan>800 degrees</tspan></text><text x="934" style="color:#000000;cursor:default;font-size:11px;fill:#000000;width:333px;text-overflow:clip;" text-anchor="start" transform="translate(0,0)" y="138" opacity="1"><tspan>1000 degrees</tspan></text></g><g class="highcharts-axis-labels highcharts-yaxis-labels" ><text x="64" style="color:#ba0f27;cursor:default;font-size:11px;fill:#ba0f27;width:333px;text-overflow:clip;" text-anchor="end" transform="translate(0,0)" y="334" opacity="1">9lbs</text><text x="64" style="color:#ba0f27;cursor:default;font-size:11px;fill:#ba0f27;width:333px;text-overflow:clip;" text-anchor="end" transform="translate(0,0)" y="269" opacity="1">10lbs</text><text x="64" style="color:#ba0f27;cursor:default;font-size:11px;fill:#ba0f27;width:333px;text-overflow:clip;" text-anchor="end" transform="translate(0,0)" y="203" opacity="1">11lbs</text><text x="64" style="color:#ba0f27;cursor:default;font-size:11px;fill:#ba0f27;width:333px;text-overflow:clip;" text-anchor="end" transform="translate(0,0)" y="138" opacity="1">12lbs</text></g><g class="highcharts-tooltip"  style="cursor:default;padding:0;white-space:nowrap;" transform="translate(0,-9999)"><path fill="none" d="M 3 0 L 13 0 C 16 0 16 0 16 3 L 16 13 C 16 16 16 16 13 16 L 3 16 C 0 16 0 16 0 13 L 0 3 C 0 0 0 0 3 0"  stroke="black" stroke-opacity="0.049999999999999996" stroke-width="5" transform="translate(1, 1)"></path><path fill="none" d="M 3 0 L 13 0 C 16 0 16 0 16 3 L 16 13 C 16 16 16 16 13 16 L 3 16 C 0 16 0 16 0 13 L 0 3 C 0 0 0 0 3 0"  stroke="black" stroke-opacity="0.09999999999999999" stroke-width="3" transform="translate(1, 1)"></path><path fill="none" d="M 3 0 L 13 0 C 16 0 16 0 16 3 L 16 13 C 16 16 16 16 13 16 L 3 16 C 0 16 0 16 0 13 L 0 3 C 0 0 0 0 3 0"  stroke="black" stroke-opacity="0.15" stroke-width="1" transform="translate(1, 1)"></path><path fill="rgb(249, 249, 249)" fill-opacity=" .85" d="M 3 0 L 13 0 C 16 0 16 0 16 3 L 16 13 C 16 16 16 16 13 16 L 3 16 C 0 16 0 16 0 13 L 0 3 C 0 0 0 0 3 0"></path><text x="8"  style="font-size:12px;color:#333333;fill:#333333;" transform="translate(0,20)"></text></g><text x="1030" text-anchor="end"  style="cursor:pointer;color:#909090;font-size:9px;fill:#909090;" y="405">tylervigen.com</text></svg>