<?xml version="1.0" encoding="utf-8" standalone="no"?>
<!DOCTYPE svg PUBLIC "-//W3C//DTD SVG 1.1//EN"
  "http://www.w3.org/Graphics/SVG/1.1/DTD/svg11.dtd">
<!-- Created with matplotlib (https://matplotlib.org/) -->
<svg height="269.226888pt" version="1.1" viewBox="0 0 374.442187 269.226888" width="374.442187pt" xmlns="http://www.w3.org/2000/svg" xmlns:xlink="http://www.w3.org/1999/xlink">
 <defs>
  <style type="text/css">
*{stroke-linecap:butt;stroke-linejoin:round;}
  </style>
 </defs>
 <g id="figure_1">
  <g id="patch_1">
   <path d="M 0 269.226888 
L 374.442187 269.226888 
L 374.442187 0 
L 0 0 
z
" style="fill:none;"/>
  </g>
  <g id="axes_1">
   <g id="patch_2">
    <path d="M 28.942188 228.14 
L 363.742188 228.14 
L 363.742188 10.7 
L 28.942188 10.7 
z
" style="fill:none;"/>
   </g>
   <g id="matplotlib.axis_1">
    <g id="xtick_1"/>
    <g id="xtick_2"/>
    <g id="xtick_3"/>
    <g id="xtick_4"/>
    <g id="xtick_5"/>
    <g id="xtick_6"/>
   </g>
   <g id="matplotlib.axis_2">
    <g id="ytick_1">
     <g id="line2d_1">
      <defs>
       <path d="M 0 0 
L -3.5 0 
" id="m981d4074f0" style="stroke:#262626;stroke-width:0.8;"/>
      </defs>
      <g>
       <use style="fill:#262626;stroke:#262626;stroke-width:0.8;" x="28.942188" xlink:href="#m981d4074f0" y="227.241212"/>
      </g>
     </g>
     <g id="text_1">
      <!-- −4 -->
      <defs>
       <path d="M 10.59375 35.5 
L 73.1875 35.5 
L 73.1875 27.203125 
L 10.59375 27.203125 
z
" id="DejaVuSans-8722"/>
       <path d="M 37.796875 64.3125 
L 12.890625 25.390625 
L 37.796875 25.390625 
z
M 35.203125 72.90625 
L 47.609375 72.90625 
L 47.609375 25.390625 
L 58.015625 25.390625 
L 58.015625 17.1875 
L 47.609375 17.1875 
L 47.609375 0 
L 37.796875 0 
L 37.796875 17.1875 
L 4.890625 17.1875 
L 4.890625 26.703125 
z
" id="DejaVuSans-52"/>
      </defs>
      <g style="fill:#262626;" transform="translate(7.2 231.040431)scale(0.1 -0.1)">
       <use xlink:href="#DejaVuSans-8722"/>
       <use x="83.789062" xlink:href="#DejaVuSans-52"/>
      </g>
     </g>
    </g>
    <g id="ytick_2">
     <g id="line2d_2">
      <g>
       <use style="fill:#262626;stroke:#262626;stroke-width:0.8;" x="28.942188" xlink:href="#m981d4074f0" y="180.975962"/>
      </g>
     </g>
     <g id="text_2">
      <!-- −2 -->
      <defs>
       <path d="M 19.1875 8.296875 
L 53.609375 8.296875 
L 53.609375 0 
L 7.328125 0 
L 7.328125 8.296875 
Q 12.9375 14.109375 22.625 23.890625 
Q 32.328125 33.6875 34.8125 36.53125 
Q 39.546875 41.84375 41.421875 45.53125 
Q 43.3125 49.21875 43.3125 52.78125 
Q 43.3125 58.59375 39.234375 62.25 
Q 35.15625 65.921875 28.609375 65.921875 
Q 23.96875 65.921875 18.8125 64.3125 
Q 13.671875 62.703125 7.8125 59.421875 
L 7.8125 69.390625 
Q 13.765625 71.78125 18.9375 73 
Q 24.125 74.21875 28.421875 74.21875 
Q 39.75 74.21875 46.484375 68.546875 
Q 53.21875 62.890625 53.21875 53.421875 
Q 53.21875 48.921875 51.53125 44.890625 
Q 49.859375 40.875 45.40625 35.40625 
Q 44.1875 33.984375 37.640625 27.21875 
Q 31.109375 20.453125 19.1875 8.296875 
z
" id="DejaVuSans-50"/>
      </defs>
      <g style="fill:#262626;" transform="translate(7.2 184.775181)scale(0.1 -0.1)">
       <use xlink:href="#DejaVuSans-8722"/>
       <use x="83.789062" xlink:href="#DejaVuSans-50"/>
      </g>
     </g>
    </g>
    <g id="ytick_3">
     <g id="line2d_3">
      <g>
       <use style="fill:#262626;stroke:#262626;stroke-width:0.8;" x="28.942188" xlink:href="#m981d4074f0" y="134.710712"/>
      </g>
     </g>
     <g id="text_3">
      <!-- 0 -->
      <defs>
       <path d="M 31.78125 66.40625 
Q 24.171875 66.40625 20.328125 58.90625 
Q 16.5 51.421875 16.5 36.375 
Q 16.5 21.390625 20.328125 13.890625 
Q 24.171875 6.390625 31.78125 6.390625 
Q 39.453125 6.390625 43.28125 13.890625 
Q 47.125 21.390625 47.125 36.375 
Q 47.125 51.421875 43.28125 58.90625 
Q 39.453125 66.40625 31.78125 66.40625 
z
M 31.78125 74.21875 
Q 44.046875 74.21875 50.515625 64.515625 
Q 56.984375 54.828125 56.984375 36.375 
Q 56.984375 17.96875 50.515625 8.265625 
Q 44.046875 -1.421875 31.78125 -1.421875 
Q 19.53125 -1.421875 13.0625 8.265625 
Q 6.59375 17.96875 6.59375 36.375 
Q 6.59375 54.828125 13.0625 64.515625 
Q 19.53125 74.21875 31.78125 74.21875 
z
" id="DejaVuSans-48"/>
      </defs>
      <g style="fill:#262626;" transform="translate(15.579688 138.50993)scale(0.1 -0.1)">
       <use xlink:href="#DejaVuSans-48"/>
      </g>
     </g>
    </g>
    <g id="ytick_4">
     <g id="line2d_4">
      <g>
       <use style="fill:#262626;stroke:#262626;stroke-width:0.8;" x="28.942188" xlink:href="#m981d4074f0" y="88.445461"/>
      </g>
     </g>
     <g id="text_4">
      <!-- 2 -->
      <g style="fill:#262626;" transform="translate(15.579688 92.24468)scale(0.1 -0.1)">
       <use xlink:href="#DejaVuSans-50"/>
      </g>
     </g>
    </g>
    <g id="ytick_5">
     <g id="line2d_5">
      <g>
       <use style="fill:#262626;stroke:#262626;stroke-width:0.8;" x="28.942188" xlink:href="#m981d4074f0" y="42.180211"/>
      </g>
     </g>
     <g id="text_5">
      <!-- 4 -->
      <g style="fill:#262626;" transform="translate(15.579688 45.97943)scale(0.1 -0.1)">
       <use xlink:href="#DejaVuSans-52"/>
      </g>
     </g>
    </g>
   </g>
   <g id="PathCollection_1">
    <defs>
     <path d="M 0 3 
C 0.795609 3 1.55874 2.683901 2.12132 2.12132 
C 2.683901 1.55874 3 0.795609 3 0 
C 3 -0.795609 2.683901 -1.55874 2.12132 -2.12132 
C 1.55874 -2.683901 0.795609 -3 0 -3 
C -0.795609 -3 -1.55874 -2.683901 -2.12132 -2.12132 
C -2.683901 -1.55874 -3 -0.795609 -3 0 
C -3 0.795609 -2.683901 1.55874 -2.12132 2.12132 
C -1.55874 2.683901 -0.795609 3 0 3 
z
" id="m909b1bd04d" style="stroke:#ffffff;stroke-width:0.75;"/>
    </defs>
    <g clip-path="url(#p1f859136d2)">
     <use style="fill:#cc503e;stroke:#ffffff;stroke-width:0.75;" x="87.626625" xlink:href="#m909b1bd04d" y="75.44648"/>
     <use style="fill:#cc503e;stroke:#ffffff;stroke-width:0.75;" x="79.90725" xlink:href="#m909b1bd04d" y="160.998439"/>
     <use style="fill:#cc503e;stroke:#ffffff;stroke-width:0.75;" x="98.027869" xlink:href="#m909b1bd04d" y="40.222376"/>
     <use style="fill:#cc503e;stroke:#ffffff;stroke-width:0.75;" x="92.004483" xlink:href="#m909b1bd04d" y="107.465823"/>
     <use style="fill:#cc503e;stroke:#ffffff;stroke-width:0.75;" x="74.690128" xlink:href="#m909b1bd04d" y="85.25069"/>
     <use style="fill:#cc503e;stroke:#ffffff;stroke-width:0.75;" x="92.46975" xlink:href="#m909b1bd04d" y="119.582171"/>
     <use style="fill:#cc503e;stroke:#ffffff;stroke-width:0.75;" x="88.694478" xlink:href="#m909b1bd04d" y="200.96335"/>
     <use style="fill:#cc503e;stroke:#ffffff;stroke-width:0.75;" x="89.897263" xlink:href="#m909b1bd04d" y="138.132265"/>
     <use style="fill:#cc503e;stroke:#ffffff;stroke-width:0.75;" x="86.881795" xlink:href="#m909b1bd04d" y="51.663016"/>
     <use style="fill:#cc503e;stroke:#ffffff;stroke-width:0.75;" x="80.097523" xlink:href="#m909b1bd04d" y="140.090983"/>
     <use style="fill:#cc503e;stroke:#ffffff;stroke-width:0.75;" x="109.115746" xlink:href="#m909b1bd04d" y="112.156224"/>
     <use style="fill:#cc503e;stroke:#ffffff;stroke-width:0.75;" x="89.859183" xlink:href="#m909b1bd04d" y="110.854068"/>
     <use style="fill:#cc503e;stroke:#ffffff;stroke-width:0.75;" x="97.882942" xlink:href="#m909b1bd04d" y="176.470866"/>
     <use style="fill:#cc503e;stroke:#ffffff;stroke-width:0.75;" x="96.59613" xlink:href="#m909b1bd04d" y="165.377742"/>
     <use style="fill:#cc503e;stroke:#ffffff;stroke-width:0.75;" x="88.190353" xlink:href="#m909b1bd04d" y="139.768042"/>
     <use style="fill:#cc503e;stroke:#ffffff;stroke-width:0.75;" x="83.391384" xlink:href="#m909b1bd04d" y="184.222473"/>
     <use style="fill:#cc503e;stroke:#ffffff;stroke-width:0.75;" x="92.313674" xlink:href="#m909b1bd04d" y="124.243517"/>
     <use style="fill:#cc503e;stroke:#ffffff;stroke-width:0.75;" x="100.681087" xlink:href="#m909b1bd04d" y="100.476109"/>
     <use style="fill:#cc503e;stroke:#ffffff;stroke-width:0.75;" x="92.063426" xlink:href="#m909b1bd04d" y="141.501109"/>
     <use style="fill:#cc503e;stroke:#ffffff;stroke-width:0.75;" x="90.666989" xlink:href="#m909b1bd04d" y="126.78658"/>
     <use style="fill:#cc503e;stroke:#ffffff;stroke-width:0.75;" x="84.236599" xlink:href="#m909b1bd04d" y="135.637899"/>
     <use style="fill:#cc503e;stroke:#ffffff;stroke-width:0.75;" x="81.636508" xlink:href="#m909b1bd04d" y="35.417825"/>
     <use style="fill:#cc503e;stroke:#ffffff;stroke-width:0.75;" x="90.238812" xlink:href="#m909b1bd04d" y="59.393132"/>
     <use style="fill:#cc503e;stroke:#ffffff;stroke-width:0.75;" x="98.114275" xlink:href="#m909b1bd04d" y="116.250668"/>
     <use style="fill:#cc503e;stroke:#ffffff;stroke-width:0.75;" x="80.977841" xlink:href="#m909b1bd04d" y="114.157096"/>
     <use style="fill:#cc503e;stroke:#ffffff;stroke-width:0.75;" x="86.095346" xlink:href="#m909b1bd04d" y="146.620422"/>
     <use style="fill:#cc503e;stroke:#ffffff;stroke-width:0.75;" x="94.279524" xlink:href="#m909b1bd04d" y="94.809491"/>
     <use style="fill:#cc503e;stroke:#ffffff;stroke-width:0.75;" x="91.159392" xlink:href="#m909b1bd04d" y="165.206792"/>
     <use style="fill:#cc503e;stroke:#ffffff;stroke-width:0.75;" x="83.620309" xlink:href="#m909b1bd04d" y="133.418343"/>
     <use style="fill:#cc503e;stroke:#ffffff;stroke-width:0.75;" x="86.830256" xlink:href="#m909b1bd04d" y="131.820556"/>
    </g>
   </g>
   <g id="PathCollection_2">
    <defs>
     <path d="M 0 3 
C 0.795609 3 1.55874 2.683901 2.12132 2.12132 
C 2.683901 1.55874 3 0.795609 3 0 
C 3 -0.795609 2.683901 -1.55874 2.12132 -2.12132 
C 1.55874 -2.683901 0.795609 -3 0 -3 
C -0.795609 -3 -1.55874 -2.683901 -2.12132 -2.12132 
C -2.683901 -1.55874 -3 -0.795609 -3 0 
C -3 0.795609 -2.683901 1.55874 -2.12132 2.12132 
C -1.55874 2.683901 -0.795609 3 0 3 
z
" id="m45f3dd0100" style="stroke:#ffffff;stroke-width:0.75;"/>
    </defs>
    <g clip-path="url(#p1f859136d2)">
     <use style="fill:#1d6996;stroke:#ffffff;stroke-width:0.75;" x="256.614813" xlink:href="#m45f3dd0100" y="180.400151"/>
     <use style="fill:#1d6996;stroke:#ffffff;stroke-width:0.75;" x="225.156114" xlink:href="#m45f3dd0100" y="157.621076"/>
     <use style="fill:#1d6996;stroke:#ffffff;stroke-width:0.75;" x="241.991274" xlink:href="#m45f3dd0100" y="106.130146"/>
     <use style="fill:#1d6996;stroke:#ffffff;stroke-width:0.75;" x="246.355904" xlink:href="#m45f3dd0100" y="160.941021"/>
     <use style="fill:#1d6996;stroke:#ffffff;stroke-width:0.75;" x="238.423918" xlink:href="#m45f3dd0100" y="168.882126"/>
     <use style="fill:#1d6996;stroke:#ffffff;stroke-width:0.75;" x="236.626884" xlink:href="#m45f3dd0100" y="125.348499"/>
     <use style="fill:#1d6996;stroke:#ffffff;stroke-width:0.75;" x="230.307115" xlink:href="#m45f3dd0100" y="172.789718"/>
     <use style="fill:#1d6996;stroke:#ffffff;stroke-width:0.75;" x="238.59298" xlink:href="#m45f3dd0100" y="105.128278"/>
     <use style="fill:#1d6996;stroke:#ffffff;stroke-width:0.75;" x="239.671009" xlink:href="#m45f3dd0100" y="110.502472"/>
     <use style="fill:#1d6996;stroke:#ffffff;stroke-width:0.75;" x="234.410985" xlink:href="#m45f3dd0100" y="137.180219"/>
     <use style="fill:#1d6996;stroke:#ffffff;stroke-width:0.75;" x="242.115781" xlink:href="#m45f3dd0100" y="150.167371"/>
     <use style="fill:#1d6996;stroke:#ffffff;stroke-width:0.75;" x="231.784232" xlink:href="#m45f3dd0100" y="188.348023"/>
     <use style="fill:#1d6996;stroke:#ffffff;stroke-width:0.75;" x="230.110926" xlink:href="#m45f3dd0100" y="116.274875"/>
     <use style="fill:#1d6996;stroke:#ffffff;stroke-width:0.75;" x="250.937384" xlink:href="#m45f3dd0100" y="155.892473"/>
     <use style="fill:#1d6996;stroke:#ffffff;stroke-width:0.75;" x="240.926903" xlink:href="#m45f3dd0100" y="127.350259"/>
     <use style="fill:#1d6996;stroke:#ffffff;stroke-width:0.75;" x="245.455192" xlink:href="#m45f3dd0100" y="112.785236"/>
     <use style="fill:#1d6996;stroke:#ffffff;stroke-width:0.75;" x="243.697929" xlink:href="#m45f3dd0100" y="130.205785"/>
     <use style="fill:#1d6996;stroke:#ffffff;stroke-width:0.75;" x="238.472975" xlink:href="#m45f3dd0100" y="162.815105"/>
     <use style="fill:#1d6996;stroke:#ffffff;stroke-width:0.75;" x="240.847582" xlink:href="#m45f3dd0100" y="140.863412"/>
     <use style="fill:#1d6996;stroke:#ffffff;stroke-width:0.75;" x="242.648197" xlink:href="#m45f3dd0100" y="149.341249"/>
     <use style="fill:#1d6996;stroke:#ffffff;stroke-width:0.75;" x="246.845347" xlink:href="#m45f3dd0100" y="215.74288"/>
     <use style="fill:#1d6996;stroke:#ffffff;stroke-width:0.75;" x="244.133699" xlink:href="#m45f3dd0100" y="196.401191"/>
     <use style="fill:#1d6996;stroke:#ffffff;stroke-width:0.75;" x="241.918949" xlink:href="#m45f3dd0100" y="169.027302"/>
     <use style="fill:#1d6996;stroke:#ffffff;stroke-width:0.75;" x="233.92204" xlink:href="#m45f3dd0100" y="180.373849"/>
     <use style="fill:#1d6996;stroke:#ffffff;stroke-width:0.75;" x="239.36722" xlink:href="#m45f3dd0100" y="181.018967"/>
     <use style="fill:#1d6996;stroke:#ffffff;stroke-width:0.75;" x="240.132674" xlink:href="#m45f3dd0100" y="192.167334"/>
     <use style="fill:#1d6996;stroke:#ffffff;stroke-width:0.75;" x="241.856292" xlink:href="#m45f3dd0100" y="140.319696"/>
     <use style="fill:#1d6996;stroke:#ffffff;stroke-width:0.75;" x="245.820275" xlink:href="#m45f3dd0100" y="202.375793"/>
     <use style="fill:#1d6996;stroke:#ffffff;stroke-width:0.75;" x="250.82397" xlink:href="#m45f3dd0100" y="23.09712"/>
     <use style="fill:#1d6996;stroke:#ffffff;stroke-width:0.75;" x="240.173313" xlink:href="#m45f3dd0100" y="82.192574"/>
    </g>
   </g>
   <g id="PathCollection_3">
    <defs>
     <path d="M 0 3 
C 0.795609 3 1.55874 2.683901 2.12132 2.12132 
C 2.683901 1.55874 3 0.795609 3 0 
C 3 -0.795609 2.683901 -1.55874 2.12132 -2.12132 
C 1.55874 -2.683901 0.795609 -3 0 -3 
C -0.795609 -3 -1.55874 -2.683901 -2.12132 -2.12132 
C -2.683901 -1.55874 -3 -0.795609 -3 0 
C -3 0.795609 -2.683901 1.55874 -2.12132 2.12132 
C -1.55874 2.683901 -0.795609 3 0 3 
z
" id="m6206fa7c60" style="stroke:#cc503e;"/>
    </defs>
    <g clip-path="url(#p1f859136d2)">
     <use style="fill:#cc503e;stroke:#cc503e;" x="65.465824" xlink:href="#m6206fa7c60" y="121.146818"/>
    </g>
   </g>
   <g id="PathCollection_4">
    <defs>
     <path d="M 0 3 
C 0.795609 3 1.55874 2.683901 2.12132 2.12132 
C 2.683901 1.55874 3 0.795609 3 0 
C 3 -0.795609 2.683901 -1.55874 2.12132 -2.12132 
C 1.55874 -2.683901 0.795609 -3 0 -3 
C -0.795609 -3 -1.55874 -2.683901 -2.12132 -2.12132 
C -2.683901 -1.55874 -3 -0.795609 -3 0 
C -3 0.795609 -2.683901 1.55874 -2.12132 2.12132 
C -1.55874 2.683901 -0.795609 3 0 3 
z
" id="m78bf8465af" style="stroke:#1d6996;"/>
    </defs>
    <g clip-path="url(#p1f859136d2)">
     <use style="fill:#1d6996;stroke:#1d6996;" x="217.647642" xlink:href="#m78bf8465af" y="148.05614"/>
    </g>
   </g>
   <g id="line2d_6">
    <path clip-path="url(#p1f859136d2)" d="M 59.378551 134.710712 
L 120.251278 134.710712 
" style="fill:none;stroke:#909090;stroke-linecap:round;stroke-width:1.5;"/>
   </g>
   <g id="line2d_7">
    <path clip-path="url(#p1f859136d2)" d="M 211.560369 134.710712 
L 272.433097 134.710712 
" style="fill:none;stroke:#909090;stroke-linecap:round;stroke-width:1.5;"/>
   </g>
   <g id="line2d_8">
    <path clip-path="url(#p1f859136d2)" d="M 65.465824 161.543174 
L 65.465824 80.750463 
" style="fill:none;stroke:#cc503e;stroke-linecap:round;stroke-width:1.5;"/>
   </g>
   <g id="line2d_9">
    <path clip-path="url(#p1f859136d2)" d="M 217.647642 187.78624 
L 217.647642 108.32604 
" style="fill:none;stroke:#1d6996;stroke-linecap:round;stroke-width:1.5;"/>
   </g>
   <g id="patch_3">
    <path d="M 28.942188 228.14 
L 28.942188 10.7 
" style="fill:none;stroke:#262626;stroke-linecap:square;stroke-linejoin:miter;stroke-width:0.8;"/>
   </g>
   <g id="text_6">
    <!-- $\overline{\mu}_A$: 0.59,  -->
    <defs>
     <path d="M -1.3125 -20.796875 
L 13.375 54.6875 
L 22.40625 54.6875 
L 15.765625 20.65625 
Q 15.578125 19.625 15.421875 18.359375 
Q 15.28125 17.09375 15.28125 15.828125 
Q 15.28125 11.28125 18.140625 8.828125 
Q 21 6.390625 26.3125 6.390625 
Q 33.546875 6.390625 37.984375 10.484375 
Q 42.4375 14.59375 44 22.796875 
L 50.203125 54.6875 
L 59.1875 54.6875 
L 51.03125 12.640625 
Q 50.828125 11.71875 50.75 11.03125 
Q 50.6875 10.359375 50.6875 9.8125 
Q 50.6875 8.296875 51.296875 7.59375 
Q 51.90625 6.890625 53.21875 6.890625 
Q 53.71875 6.890625 54.5625 7.125 
Q 55.421875 7.375 56.984375 8.015625 
L 55.609375 0.78125 
Q 53.46875 -0.296875 51.515625 -0.859375 
Q 49.5625 -1.421875 47.703125 -1.421875 
Q 44.484375 -1.421875 42.65625 0.625 
Q 40.828125 2.6875 40.828125 6.296875 
Q 38.09375 2.390625 34.296875 0.484375 
Q 30.515625 -1.421875 25.390625 -1.421875 
Q 20.84375 -1.421875 17.453125 0.671875 
Q 14.0625 2.78125 12.984375 6.203125 
L 7.71875 -20.796875 
z
" id="DejaVuSans-Oblique-956"/>
     <path d="M 36.8125 72.90625 
L 48 72.90625 
L 61.53125 0 
L 51.21875 0 
L 48.1875 18.703125 
L 15.375 18.703125 
L 5.078125 0 
L -5.328125 0 
z
M 40.375 63.1875 
L 19.921875 26.90625 
L 46.6875 26.90625 
z
" id="DejaVuSans-Oblique-65"/>
     <path d="M 11.71875 12.40625 
L 22.015625 12.40625 
L 22.015625 0 
L 11.71875 0 
z
M 11.71875 51.703125 
L 22.015625 51.703125 
L 22.015625 39.3125 
L 11.71875 39.3125 
z
" id="DejaVuSans-58"/>
     <path id="DejaVuSans-32"/>
     <path d="M 10.6875 12.40625 
L 21 12.40625 
L 21 0 
L 10.6875 0 
z
" id="DejaVuSans-46"/>
     <path d="M 10.796875 72.90625 
L 49.515625 72.90625 
L 49.515625 64.59375 
L 19.828125 64.59375 
L 19.828125 46.734375 
Q 21.96875 47.46875 24.109375 47.828125 
Q 26.265625 48.1875 28.421875 48.1875 
Q 40.625 48.1875 47.75 41.5 
Q 54.890625 34.8125 54.890625 23.390625 
Q 54.890625 11.625 47.5625 5.09375 
Q 40.234375 -1.421875 26.90625 -1.421875 
Q 22.3125 -1.421875 17.546875 -0.640625 
Q 12.796875 0.140625 7.71875 1.703125 
L 7.71875 11.625 
Q 12.109375 9.234375 16.796875 8.0625 
Q 21.484375 6.890625 26.703125 6.890625 
Q 35.15625 6.890625 40.078125 11.328125 
Q 45.015625 15.765625 45.015625 23.390625 
Q 45.015625 31 40.078125 35.4375 
Q 35.15625 39.890625 26.703125 39.890625 
Q 22.75 39.890625 18.8125 39.015625 
Q 14.890625 38.140625 10.796875 36.28125 
z
" id="DejaVuSans-53"/>
     <path d="M 10.984375 1.515625 
L 10.984375 10.5 
Q 14.703125 8.734375 18.5 7.8125 
Q 22.3125 6.890625 25.984375 6.890625 
Q 35.75 6.890625 40.890625 13.453125 
Q 46.046875 20.015625 46.78125 33.40625 
Q 43.953125 29.203125 39.59375 26.953125 
Q 35.25 24.703125 29.984375 24.703125 
Q 19.046875 24.703125 12.671875 31.3125 
Q 6.296875 37.9375 6.296875 49.421875 
Q 6.296875 60.640625 12.9375 67.421875 
Q 19.578125 74.21875 30.609375 74.21875 
Q 43.265625 74.21875 49.921875 64.515625 
Q 56.59375 54.828125 56.59375 36.375 
Q 56.59375 19.140625 48.40625 8.859375 
Q 40.234375 -1.421875 26.421875 -1.421875 
Q 22.703125 -1.421875 18.890625 -0.6875 
Q 15.09375 0.046875 10.984375 1.515625 
z
M 30.609375 32.421875 
Q 37.25 32.421875 41.125 36.953125 
Q 45.015625 41.5 45.015625 49.421875 
Q 45.015625 57.28125 41.125 61.84375 
Q 37.25 66.40625 30.609375 66.40625 
Q 23.96875 66.40625 20.09375 61.84375 
Q 16.21875 57.28125 16.21875 49.421875 
Q 16.21875 41.5 20.09375 36.953125 
Q 23.96875 32.421875 30.609375 32.421875 
z
" id="DejaVuSans-57"/>
     <path d="M 11.71875 12.40625 
L 22.015625 12.40625 
L 22.015625 4 
L 14.015625 -11.625 
L 7.71875 -11.625 
L 11.71875 4 
z
" id="DejaVuSans-44"/>
    </defs>
    <g style="fill:#cc503e;" transform="translate(120.251278 42.180211)scale(0.12 -0.12)">
     <use transform="translate(0 1.0625)" xlink:href="#DejaVuSans-Oblique-956"/>
     <use transform="translate(64.580078 -15.84375)scale(0.7)" xlink:href="#DejaVuSans-Oblique-65"/>
     <use transform="translate(115.200195 0.5625)" xlink:href="#DejaVuSans-58"/>
     <use transform="translate(148.891602 0.5625)" xlink:href="#DejaVuSans-32"/>
     <use transform="translate(180.678711 0.5625)" xlink:href="#DejaVuSans-48"/>
     <use transform="translate(244.301758 0.5625)" xlink:href="#DejaVuSans-46"/>
     <use transform="translate(276.088867 0.5625)" xlink:href="#DejaVuSans-53"/>
     <use transform="translate(339.633789 0.5625)" xlink:href="#DejaVuSans-57"/>
     <use transform="translate(403.256836 0.5625)" xlink:href="#DejaVuSans-44"/>
     <use transform="translate(435.043945 0.5625)" xlink:href="#DejaVuSans-32"/>
     <path d="M 0 67.5 
L 0 73.75 
L 63.623047 73.75 
L 63.623047 67.5 
L 0 67.5 
z
"/>
    </g>
   </g>
   <g id="text_7">
    <!-- $\overline{\sigma}_A$: 1.75,  -->
    <defs>
     <path d="M 34.671875 47.5625 
Q 27.25 47.5625 22.21875 42.1875 
Q 16.890625 36.578125 15.140625 27.296875 
Q 13.1875 17.484375 16.3125 11.8125 
Q 19.390625 6.203125 26.65625 6.203125 
Q 33.84375 6.203125 39.109375 11.859375 
Q 44.4375 17.53125 46.34375 27.296875 
Q 48.046875 36.234375 45.015625 42.1875 
Q 42.1875 47.5625 34.671875 47.5625 
z
M 36.078125 54.734375 
L 65.921875 54.6875 
L 64.15625 45.703125 
L 54.109375 45.703125 
Q 57.90625 38.09375 55.859375 27.296875 
Q 53.21875 13.875 45.0625 6.25 
Q 36.859375 -1.421875 25.140625 -1.421875 
Q 13.375 -1.421875 8.203125 6.25 
Q 3.03125 13.875 5.671875 27.296875 
Q 8.25 40.765625 16.40625 48.390625 
Q 23.1875 54.734375 36.078125 54.734375 
z
" id="DejaVuSans-Oblique-963"/>
     <path d="M 12.40625 8.296875 
L 28.515625 8.296875 
L 28.515625 63.921875 
L 10.984375 60.40625 
L 10.984375 69.390625 
L 28.421875 72.90625 
L 38.28125 72.90625 
L 38.28125 8.296875 
L 54.390625 8.296875 
L 54.390625 0 
L 12.40625 0 
z
" id="DejaVuSans-49"/>
     <path d="M 8.203125 72.90625 
L 55.078125 72.90625 
L 55.078125 68.703125 
L 28.609375 0 
L 18.3125 0 
L 43.21875 64.59375 
L 8.203125 64.59375 
z
" id="DejaVuSans-55"/>
    </defs>
    <g style="fill:#cc503e;" transform="translate(120.251278 65.312836)scale(0.12 -0.12)">
     <use transform="translate(0 1.015625)" xlink:href="#DejaVuSans-Oblique-963"/>
     <use transform="translate(64.335938 -15.890625)scale(0.7)" xlink:href="#DejaVuSans-Oblique-65"/>
     <use transform="translate(114.956055 0.515625)" xlink:href="#DejaVuSans-58"/>
     <use transform="translate(148.647461 0.515625)" xlink:href="#DejaVuSans-32"/>
     <use transform="translate(180.43457 0.515625)" xlink:href="#DejaVuSans-49"/>
     <use transform="translate(244.057617 0.515625)" xlink:href="#DejaVuSans-46"/>
     <use transform="translate(275.735352 0.515625)" xlink:href="#DejaVuSans-55"/>
     <use transform="translate(339.358398 0.515625)" xlink:href="#DejaVuSans-53"/>
     <use transform="translate(402.981445 0.515625)" xlink:href="#DejaVuSans-44"/>
     <use transform="translate(434.768555 0.515625)" xlink:href="#DejaVuSans-32"/>
     <path d="M 0 67.5 
L 0 73.75 
L 63.378906 73.75 
L 63.378906 67.5 
L 0 67.5 
z
"/>
    </g>
   </g>
   <g id="text_8">
    <!-- $\overline{\mu}_B$: -0.58,  -->
    <defs>
     <path d="M 16.890625 72.90625 
L 42.09375 72.90625 
Q 52.34375 72.90625 57.421875 69.09375 
Q 62.5 65.28125 62.5 57.625 
Q 62.5 50.59375 58.125 45.484375 
Q 53.765625 40.375 46.6875 39.3125 
Q 52.734375 37.9375 55.765625 34.078125 
Q 58.796875 30.21875 58.796875 23.78125 
Q 58.796875 12.796875 50.65625 6.390625 
Q 42.53125 0 28.421875 0 
L 2.6875 0 
z
M 19.28125 34.8125 
L 14.109375 8.109375 
L 29.984375 8.109375 
Q 38.921875 8.109375 43.75 12.203125 
Q 48.578125 16.3125 48.578125 23.78125 
Q 48.578125 29.546875 45.375 32.171875 
Q 42.1875 34.8125 35.109375 34.8125 
z
M 25.09375 64.796875 
L 20.796875 42.828125 
L 35.5 42.828125 
Q 43.359375 42.828125 47.78125 46.234375 
Q 52.203125 49.65625 52.203125 55.71875 
Q 52.203125 60.453125 49.21875 62.625 
Q 46.234375 64.796875 39.703125 64.796875 
z
" id="DejaVuSans-Oblique-66"/>
     <path d="M 4.890625 31.390625 
L 31.203125 31.390625 
L 31.203125 23.390625 
L 4.890625 23.390625 
z
" id="DejaVuSans-45"/>
     <path d="M 31.78125 34.625 
Q 24.75 34.625 20.71875 30.859375 
Q 16.703125 27.09375 16.703125 20.515625 
Q 16.703125 13.921875 20.71875 10.15625 
Q 24.75 6.390625 31.78125 6.390625 
Q 38.8125 6.390625 42.859375 10.171875 
Q 46.921875 13.96875 46.921875 20.515625 
Q 46.921875 27.09375 42.890625 30.859375 
Q 38.875 34.625 31.78125 34.625 
z
M 21.921875 38.8125 
Q 15.578125 40.375 12.03125 44.71875 
Q 8.5 49.078125 8.5 55.328125 
Q 8.5 64.0625 14.71875 69.140625 
Q 20.953125 74.21875 31.78125 74.21875 
Q 42.671875 74.21875 48.875 69.140625 
Q 55.078125 64.0625 55.078125 55.328125 
Q 55.078125 49.078125 51.53125 44.71875 
Q 48 40.375 41.703125 38.8125 
Q 48.828125 37.15625 52.796875 32.3125 
Q 56.78125 27.484375 56.78125 20.515625 
Q 56.78125 9.90625 50.3125 4.234375 
Q 43.84375 -1.421875 31.78125 -1.421875 
Q 19.734375 -1.421875 13.25 4.234375 
Q 6.78125 9.90625 6.78125 20.515625 
Q 6.78125 27.484375 10.78125 32.3125 
Q 14.796875 37.15625 21.921875 38.8125 
z
M 18.3125 54.390625 
Q 18.3125 48.734375 21.84375 45.5625 
Q 25.390625 42.390625 31.78125 42.390625 
Q 38.140625 42.390625 41.71875 45.5625 
Q 45.3125 48.734375 45.3125 54.390625 
Q 45.3125 60.0625 41.71875 63.234375 
Q 38.140625 66.40625 31.78125 66.40625 
Q 25.390625 66.40625 21.84375 63.234375 
Q 18.3125 60.0625 18.3125 54.390625 
z
" id="DejaVuSans-56"/>
    </defs>
    <g style="fill:#1d6996;" transform="translate(272.433097 42.180211)scale(0.12 -0.12)">
     <use transform="translate(0 1.0625)" xlink:href="#DejaVuSans-Oblique-956"/>
     <use transform="translate(64.580078 -15.84375)scale(0.7)" xlink:href="#DejaVuSans-Oblique-66"/>
     <use transform="translate(115.336914 0.5625)" xlink:href="#DejaVuSans-58"/>
     <use transform="translate(149.02832 0.5625)" xlink:href="#DejaVuSans-32"/>
     <use transform="translate(180.81543 0.5625)" xlink:href="#DejaVuSans-45"/>
     <use transform="translate(216.899414 0.5625)" xlink:href="#DejaVuSans-48"/>
     <use transform="translate(280.522461 0.5625)" xlink:href="#DejaVuSans-46"/>
     <use transform="translate(312.30957 0.5625)" xlink:href="#DejaVuSans-53"/>
     <use transform="translate(375.932617 0.5625)" xlink:href="#DejaVuSans-56"/>
     <use transform="translate(439.555664 0.5625)" xlink:href="#DejaVuSans-44"/>
     <use transform="translate(471.342773 0.5625)" xlink:href="#DejaVuSans-32"/>
     <path d="M 0 67.5 
L 0 73.75 
L 63.623047 73.75 
L 63.623047 67.5 
L 0 67.5 
z
"/>
    </g>
   </g>
   <g id="text_9">
    <!-- $\overline{\sigma}_B$: 1.72,  -->
    <g style="fill:#1d6996;" transform="translate(272.433097 65.312836)scale(0.12 -0.12)">
     <use transform="translate(0 1.015625)" xlink:href="#DejaVuSans-Oblique-963"/>
     <use transform="translate(64.335938 -15.890625)scale(0.7)" xlink:href="#DejaVuSans-Oblique-66"/>
     <use transform="translate(115.092773 0.515625)" xlink:href="#DejaVuSans-58"/>
     <use transform="translate(148.78418 0.515625)" xlink:href="#DejaVuSans-32"/>
     <use transform="translate(180.571289 0.515625)" xlink:href="#DejaVuSans-49"/>
     <use transform="translate(244.194336 0.515625)" xlink:href="#DejaVuSans-46"/>
     <use transform="translate(275.87207 0.515625)" xlink:href="#DejaVuSans-55"/>
     <use transform="translate(339.495117 0.515625)" xlink:href="#DejaVuSans-50"/>
     <use transform="translate(403.118164 0.515625)" xlink:href="#DejaVuSans-44"/>
     <use transform="translate(434.905273 0.515625)" xlink:href="#DejaVuSans-32"/>
     <path d="M 0 67.5 
L 0 73.75 
L 63.378906 73.75 
L 63.378906 67.5 
L 0 67.5 
z
"/>
    </g>
   </g>
   <g id="text_10">
    <!-- $\overline{\mu}_A &gt; 0$ | p: 0.081, t$_{29}$: 1.808 -->
    <defs>
     <path d="M 10.59375 49.21875 
L 10.59375 58.109375 
L 73.1875 35.40625 
L 73.1875 27.296875 
L 10.59375 4.59375 
L 10.59375 13.484375 
L 60.890625 31.296875 
z
" id="DejaVuSans-62"/>
     <path d="M 21 76.421875 
L 21 -23.578125 
L 12.703125 -23.578125 
L 12.703125 76.421875 
z
" id="DejaVuSans-124"/>
     <path d="M 18.109375 8.203125 
L 18.109375 -20.796875 
L 9.078125 -20.796875 
L 9.078125 54.6875 
L 18.109375 54.6875 
L 18.109375 46.390625 
Q 20.953125 51.265625 25.265625 53.625 
Q 29.59375 56 35.59375 56 
Q 45.5625 56 51.78125 48.09375 
Q 58.015625 40.1875 58.015625 27.296875 
Q 58.015625 14.40625 51.78125 6.484375 
Q 45.5625 -1.421875 35.59375 -1.421875 
Q 29.59375 -1.421875 25.265625 0.953125 
Q 20.953125 3.328125 18.109375 8.203125 
z
M 48.6875 27.296875 
Q 48.6875 37.203125 44.609375 42.84375 
Q 40.53125 48.484375 33.40625 48.484375 
Q 26.265625 48.484375 22.1875 42.84375 
Q 18.109375 37.203125 18.109375 27.296875 
Q 18.109375 17.390625 22.1875 11.75 
Q 26.265625 6.109375 33.40625 6.109375 
Q 40.53125 6.109375 44.609375 11.75 
Q 48.6875 17.390625 48.6875 27.296875 
z
" id="DejaVuSans-112"/>
     <path d="M 18.3125 70.21875 
L 18.3125 54.6875 
L 36.8125 54.6875 
L 36.8125 47.703125 
L 18.3125 47.703125 
L 18.3125 18.015625 
Q 18.3125 11.328125 20.140625 9.421875 
Q 21.96875 7.515625 27.59375 7.515625 
L 36.8125 7.515625 
L 36.8125 0 
L 27.59375 0 
Q 17.1875 0 13.234375 3.875 
Q 9.28125 7.765625 9.28125 18.015625 
L 9.28125 47.703125 
L 2.6875 47.703125 
L 2.6875 54.6875 
L 9.28125 54.6875 
L 9.28125 70.21875 
z
" id="DejaVuSans-116"/>
    </defs>
    <g style="fill:#cc503e;" transform="translate(59.378551 227.241212)scale(0.1 -0.1)">
     <use transform="translate(0 1.0625)" xlink:href="#DejaVuSans-Oblique-956"/>
     <use transform="translate(64.580078 -15.84375)scale(0.7)" xlink:href="#DejaVuSans-Oblique-65"/>
     <use transform="translate(134.682617 0.5625)" xlink:href="#DejaVuSans-62"/>
     <use transform="translate(237.954102 0.5625)" xlink:href="#DejaVuSans-48"/>
     <use transform="translate(301.577148 0.5625)" xlink:href="#DejaVuSans-32"/>
     <use transform="translate(333.364258 0.5625)" xlink:href="#DejaVuSans-124"/>
     <use transform="translate(367.055664 0.5625)" xlink:href="#DejaVuSans-32"/>
     <use transform="translate(398.842773 0.5625)" xlink:href="#DejaVuSans-112"/>
     <use transform="translate(462.319336 0.5625)" xlink:href="#DejaVuSans-58"/>
     <use transform="translate(496.010742 0.5625)" xlink:href="#DejaVuSans-32"/>
     <use transform="translate(527.797852 0.5625)" xlink:href="#DejaVuSans-48"/>
     <use transform="translate(591.420898 0.5625)" xlink:href="#DejaVuSans-46"/>
     <use transform="translate(623.208008 0.5625)" xlink:href="#DejaVuSans-48"/>
     <use transform="translate(686.831055 0.5625)" xlink:href="#DejaVuSans-56"/>
     <use transform="translate(750.454102 0.5625)" xlink:href="#DejaVuSans-49"/>
     <use transform="translate(814.077148 0.5625)" xlink:href="#DejaVuSans-44"/>
     <use transform="translate(845.864258 0.5625)" xlink:href="#DejaVuSans-32"/>
     <use transform="translate(877.651367 0.5625)" xlink:href="#DejaVuSans-116"/>
     <use transform="translate(917.817383 -15.84375)scale(0.7)" xlink:href="#DejaVuSans-50"/>
     <use transform="translate(962.342578 -15.84375)scale(0.7)" xlink:href="#DejaVuSans-57"/>
     <use transform="translate(1009.613086 0.5625)" xlink:href="#DejaVuSans-58"/>
     <use transform="translate(1043.304492 0.5625)" xlink:href="#DejaVuSans-32"/>
     <use transform="translate(1075.091602 0.5625)" xlink:href="#DejaVuSans-49"/>
     <use transform="translate(1138.714648 0.5625)" xlink:href="#DejaVuSans-46"/>
     <use transform="translate(1170.470508 0.5625)" xlink:href="#DejaVuSans-56"/>
     <use transform="translate(1234.093555 0.5625)" xlink:href="#DejaVuSans-48"/>
     <use transform="translate(1297.716602 0.5625)" xlink:href="#DejaVuSans-56"/>
     <path d="M 0 67.5 
L 0 73.75 
L 63.623047 73.75 
L 63.623047 67.5 
L 0 67.5 
z
"/>
    </g>
   </g>
   <g id="text_11">
    <!-- $\overline{\mu}_B &gt; 0$ | p: 0.081, t$_{29}$: -1.809 -->
    <g style="fill:#1d6996;" transform="translate(59.378551 243.43405)scale(0.1 -0.1)">
     <use transform="translate(0 1.0625)" xlink:href="#DejaVuSans-Oblique-956"/>
     <use transform="translate(64.580078 -15.84375)scale(0.7)" xlink:href="#DejaVuSans-Oblique-66"/>
     <use transform="translate(134.819336 0.5625)" xlink:href="#DejaVuSans-62"/>
     <use transform="translate(238.09082 0.5625)" xlink:href="#DejaVuSans-48"/>
     <use transform="translate(301.713867 0.5625)" xlink:href="#DejaVuSans-32"/>
     <use transform="translate(333.500977 0.5625)" xlink:href="#DejaVuSans-124"/>
     <use transform="translate(367.192383 0.5625)" xlink:href="#DejaVuSans-32"/>
     <use transform="translate(398.979492 0.5625)" xlink:href="#DejaVuSans-112"/>
     <use transform="translate(462.456055 0.5625)" xlink:href="#DejaVuSans-58"/>
     <use transform="translate(496.147461 0.5625)" xlink:href="#DejaVuSans-32"/>
     <use transform="translate(527.93457 0.5625)" xlink:href="#DejaVuSans-48"/>
     <use transform="translate(591.557617 0.5625)" xlink:href="#DejaVuSans-46"/>
     <use transform="translate(623.344727 0.5625)" xlink:href="#DejaVuSans-48"/>
     <use transform="translate(686.967773 0.5625)" xlink:href="#DejaVuSans-56"/>
     <use transform="translate(750.59082 0.5625)" xlink:href="#DejaVuSans-49"/>
     <use transform="translate(814.213867 0.5625)" xlink:href="#DejaVuSans-44"/>
     <use transform="translate(846.000977 0.5625)" xlink:href="#DejaVuSans-32"/>
     <use transform="translate(877.788086 0.5625)" xlink:href="#DejaVuSans-116"/>
     <use transform="translate(917.954102 -15.84375)scale(0.7)" xlink:href="#DejaVuSans-50"/>
     <use transform="translate(962.479297 -15.84375)scale(0.7)" xlink:href="#DejaVuSans-57"/>
     <use transform="translate(1009.749805 0.5625)" xlink:href="#DejaVuSans-58"/>
     <use transform="translate(1043.441211 0.5625)" xlink:href="#DejaVuSans-32"/>
     <use transform="translate(1075.22832 0.5625)" xlink:href="#DejaVuSans-45"/>
     <use transform="translate(1111.312305 0.5625)" xlink:href="#DejaVuSans-49"/>
     <use transform="translate(1174.935352 0.5625)" xlink:href="#DejaVuSans-46"/>
     <use transform="translate(1206.691211 0.5625)" xlink:href="#DejaVuSans-56"/>
     <use transform="translate(1270.314258 0.5625)" xlink:href="#DejaVuSans-48"/>
     <use transform="translate(1333.937305 0.5625)" xlink:href="#DejaVuSans-57"/>
     <path d="M 0 67.5 
L 0 73.75 
L 63.623047 73.75 
L 63.623047 67.5 
L 0 67.5 
z
"/>
    </g>
   </g>
   <g id="text_12">
    <!-- $\overline{\mu}_A \neq \overline{\mu}_B$ | p: 0.013, t$_{58}$: 2.558 -->
    <defs>
     <path d="M 10.59375 45.40625 
L 48.296875 45.40625 
L 60.796875 60.796875 
L 66.890625 55.8125 
L 58.40625 45.40625 
L 73.1875 45.40625 
L 73.1875 37.203125 
L 51.703125 37.203125 
L 42.1875 25.484375 
L 73.1875 25.484375 
L 73.1875 17.1875 
L 35.40625 17.1875 
L 22.796875 1.90625 
L 16.703125 6.890625 
L 25.203125 17.1875 
L 10.59375 17.1875 
L 10.59375 25.484375 
L 31.984375 25.484375 
L 41.5 37.203125 
L 10.59375 37.203125 
z
" id="DejaVuSans-8800"/>
     <path d="M 40.578125 39.3125 
Q 47.65625 37.796875 51.625 33 
Q 55.609375 28.21875 55.609375 21.1875 
Q 55.609375 10.40625 48.1875 4.484375 
Q 40.765625 -1.421875 27.09375 -1.421875 
Q 22.515625 -1.421875 17.65625 -0.515625 
Q 12.796875 0.390625 7.625 2.203125 
L 7.625 11.71875 
Q 11.71875 9.328125 16.59375 8.109375 
Q 21.484375 6.890625 26.8125 6.890625 
Q 36.078125 6.890625 40.9375 10.546875 
Q 45.796875 14.203125 45.796875 21.1875 
Q 45.796875 27.640625 41.28125 31.265625 
Q 36.765625 34.90625 28.71875 34.90625 
L 20.21875 34.90625 
L 20.21875 43.015625 
L 29.109375 43.015625 
Q 36.375 43.015625 40.234375 45.921875 
Q 44.09375 48.828125 44.09375 54.296875 
Q 44.09375 59.90625 40.109375 62.90625 
Q 36.140625 65.921875 28.71875 65.921875 
Q 24.65625 65.921875 20.015625 65.03125 
Q 15.375 64.15625 9.8125 62.3125 
L 9.8125 71.09375 
Q 15.4375 72.65625 20.34375 73.4375 
Q 25.25 74.21875 29.59375 74.21875 
Q 40.828125 74.21875 47.359375 69.109375 
Q 53.90625 64.015625 53.90625 55.328125 
Q 53.90625 49.265625 50.4375 45.09375 
Q 46.96875 40.921875 40.578125 39.3125 
z
" id="DejaVuSans-51"/>
    </defs>
    <g style="fill:#909090;" transform="translate(59.378551 259.626888)scale(0.1 -0.1)">
     <use transform="translate(0 1.0625)" xlink:href="#DejaVuSans-Oblique-956"/>
     <use transform="translate(64.580078 -15.84375)scale(0.7)" xlink:href="#DejaVuSans-Oblique-65"/>
     <use transform="translate(134.682617 0.5625)" xlink:href="#DejaVuSans-8800"/>
     <use transform="translate(237.954102 1.0625)" xlink:href="#DejaVuSans-Oblique-956"/>
     <use transform="translate(302.53418 -15.84375)scale(0.7)" xlink:href="#DejaVuSans-Oblique-66"/>
     <use transform="translate(353.291016 0.5625)" xlink:href="#DejaVuSans-32"/>
     <use transform="translate(385.078125 0.5625)" xlink:href="#DejaVuSans-124"/>
     <use transform="translate(418.769531 0.5625)" xlink:href="#DejaVuSans-32"/>
     <use transform="translate(450.556641 0.5625)" xlink:href="#DejaVuSans-112"/>
     <use transform="translate(514.033203 0.5625)" xlink:href="#DejaVuSans-58"/>
     <use transform="translate(547.724609 0.5625)" xlink:href="#DejaVuSans-32"/>
     <use transform="translate(579.511719 0.5625)" xlink:href="#DejaVuSans-48"/>
     <use transform="translate(643.134766 0.5625)" xlink:href="#DejaVuSans-46"/>
     <use transform="translate(674.921875 0.5625)" xlink:href="#DejaVuSans-48"/>
     <use transform="translate(738.544922 0.5625)" xlink:href="#DejaVuSans-49"/>
     <use transform="translate(802.167969 0.5625)" xlink:href="#DejaVuSans-51"/>
     <use transform="translate(865.791016 0.5625)" xlink:href="#DejaVuSans-44"/>
     <use transform="translate(897.578125 0.5625)" xlink:href="#DejaVuSans-32"/>
     <use transform="translate(929.365234 0.5625)" xlink:href="#DejaVuSans-116"/>
     <use transform="translate(969.53125 -15.84375)scale(0.7)" xlink:href="#DejaVuSans-53"/>
     <use transform="translate(1014.067383 -15.84375)scale(0.7)" xlink:href="#DejaVuSans-56"/>
     <use transform="translate(1061.337891 0.5625)" xlink:href="#DejaVuSans-58"/>
     <use transform="translate(1095.029297 0.5625)" xlink:href="#DejaVuSans-32"/>
     <use transform="translate(1126.816406 0.5625)" xlink:href="#DejaVuSans-50"/>
     <use transform="translate(1190.439453 0.5625)" xlink:href="#DejaVuSans-46"/>
     <use transform="translate(1222.226562 0.5625)" xlink:href="#DejaVuSans-53"/>
     <use transform="translate(1285.849609 0.5625)" xlink:href="#DejaVuSans-53"/>
     <use transform="translate(1349.472656 0.5625)" xlink:href="#DejaVuSans-56"/>
     <path d="M 0 67.5 
L 0 73.75 
L 63.623047 73.75 
L 63.623047 67.5 
L 0 67.5 
z
"/>
     <path d="M 237.954102 67.5 
L 237.954102 73.75 
L 301.577148 73.75 
L 301.577148 67.5 
L 237.954102 67.5 
z
"/>
    </g>
   </g>
  </g>
 </g>
 <defs>
  <clipPath id="p1f859136d2">
   <rect height="217.44" width="334.8" x="28.942188" y="10.7"/>
  </clipPath>
 </defs>
</svg>
