<?xml version="1.0" encoding="utf-8" standalone="no"?>
<!DOCTYPE svg PUBLIC "-//W3C//DTD SVG 1.1//EN"
  "http://www.w3.org/Graphics/SVG/1.1/DTD/svg11.dtd">
<!-- Created with matplotlib (https://matplotlib.org/) -->
<svg height="252.018125pt" version="1.1" viewBox="0 0 716.765625 252.018125" width="716.765625pt" xmlns="http://www.w3.org/2000/svg" xmlns:xlink="http://www.w3.org/1999/xlink">
 <defs>
  <style type="text/css">
*{stroke-linecap:butt;stroke-linejoin:round;}
  </style>
 </defs>
 <g id="figure_1">
  <g id="patch_1">
   <path d="M 0 252.018125 
L 716.765625 252.018125 
L 716.765625 0 
L 0 0 
z
" style="fill:none;"/>
  </g>
  <g id="axes_1">
   <g id="patch_2">
    <path d="M 36.465625 228.14 
L 340.829261 228.14 
L 340.829261 10.7 
L 36.465625 10.7 
z
" style="fill:none;"/>
   </g>
   <g id="matplotlib.axis_1">
    <g id="xtick_1">
     <g id="line2d_1">
      <defs>
       <path d="M 0 0 
L 0 3.5 
" id="mf5f29114b5" style="stroke:#262626;stroke-width:0.8;"/>
      </defs>
      <g>
       <use style="fill:#262626;stroke:#262626;stroke-width:0.8;" x="81.044137" xlink:href="#mf5f29114b5" y="228.14"/>
      </g>
     </g>
     <g id="text_1">
      <!-- −2 -->
      <defs>
       <path d="M 10.59375 35.5 
L 73.1875 35.5 
L 73.1875 27.203125 
L 10.59375 27.203125 
z
" id="DejaVuSans-8722"/>
       <path d="M 19.1875 8.296875 
L 53.609375 8.296875 
L 53.609375 0 
L 7.328125 0 
L 7.328125 8.296875 
Q 12.9375 14.109375 22.625 23.890625 
Q 32.328125 33.6875 34.8125 36.53125 
Q 39.546875 41.84375 41.421875 45.53125 
Q 43.3125 49.21875 43.3125 52.78125 
Q 43.3125 58.59375 39.234375 62.25 
Q 35.15625 65.921875 28.609375 65.921875 
Q 23.96875 65.921875 18.8125 64.3125 
Q 13.671875 62.703125 7.8125 59.421875 
L 7.8125 69.390625 
Q 13.765625 71.78125 18.9375 73 
Q 24.125 74.21875 28.421875 74.21875 
Q 39.75 74.21875 46.484375 68.546875 
Q 53.21875 62.890625 53.21875 53.421875 
Q 53.21875 48.921875 51.53125 44.890625 
Q 49.859375 40.875 45.40625 35.40625 
Q 44.1875 33.984375 37.640625 27.21875 
Q 31.109375 20.453125 19.1875 8.296875 
z
" id="DejaVuSans-50"/>
      </defs>
      <g style="fill:#262626;" transform="translate(73.673044 242.738437)scale(0.1 -0.1)">
       <use xlink:href="#DejaVuSans-8722"/>
       <use x="83.789062" xlink:href="#DejaVuSans-50"/>
      </g>
     </g>
    </g>
    <g id="xtick_2">
     <g id="line2d_2">
      <g>
       <use style="fill:#262626;stroke:#262626;stroke-width:0.8;" x="142.531741" xlink:href="#mf5f29114b5" y="228.14"/>
      </g>
     </g>
     <g id="text_2">
      <!-- 0 -->
      <defs>
       <path d="M 31.78125 66.40625 
Q 24.171875 66.40625 20.328125 58.90625 
Q 16.5 51.421875 16.5 36.375 
Q 16.5 21.390625 20.328125 13.890625 
Q 24.171875 6.390625 31.78125 6.390625 
Q 39.453125 6.390625 43.28125 13.890625 
Q 47.125 21.390625 47.125 36.375 
Q 47.125 51.421875 43.28125 58.90625 
Q 39.453125 66.40625 31.78125 66.40625 
z
M 31.78125 74.21875 
Q 44.046875 74.21875 50.515625 64.515625 
Q 56.984375 54.828125 56.984375 36.375 
Q 56.984375 17.96875 50.515625 8.265625 
Q 44.046875 -1.421875 31.78125 -1.421875 
Q 19.53125 -1.421875 13.0625 8.265625 
Q 6.59375 17.96875 6.59375 36.375 
Q 6.59375 54.828125 13.0625 64.515625 
Q 19.53125 74.21875 31.78125 74.21875 
z
" id="DejaVuSans-48"/>
      </defs>
      <g style="fill:#262626;" transform="translate(139.350491 242.738437)scale(0.1 -0.1)">
       <use xlink:href="#DejaVuSans-48"/>
      </g>
     </g>
    </g>
    <g id="xtick_3">
     <g id="line2d_3">
      <g>
       <use style="fill:#262626;stroke:#262626;stroke-width:0.8;" x="204.019344" xlink:href="#mf5f29114b5" y="228.14"/>
      </g>
     </g>
     <g id="text_3">
      <!-- 2 -->
      <g style="fill:#262626;" transform="translate(200.838094 242.738437)scale(0.1 -0.1)">
       <use xlink:href="#DejaVuSans-50"/>
      </g>
     </g>
    </g>
    <g id="xtick_4">
     <g id="line2d_4">
      <g>
       <use style="fill:#262626;stroke:#262626;stroke-width:0.8;" x="265.506947" xlink:href="#mf5f29114b5" y="228.14"/>
      </g>
     </g>
     <g id="text_4">
      <!-- 4 -->
      <defs>
       <path d="M 37.796875 64.3125 
L 12.890625 25.390625 
L 37.796875 25.390625 
z
M 35.203125 72.90625 
L 47.609375 72.90625 
L 47.609375 25.390625 
L 58.015625 25.390625 
L 58.015625 17.1875 
L 47.609375 17.1875 
L 47.609375 0 
L 37.796875 0 
L 37.796875 17.1875 
L 4.890625 17.1875 
L 4.890625 26.703125 
z
" id="DejaVuSans-52"/>
      </defs>
      <g style="fill:#262626;" transform="translate(262.325697 242.738437)scale(0.1 -0.1)">
       <use xlink:href="#DejaVuSans-52"/>
      </g>
     </g>
    </g>
    <g id="xtick_5">
     <g id="line2d_5">
      <g>
       <use style="fill:#262626;stroke:#262626;stroke-width:0.8;" x="326.994551" xlink:href="#mf5f29114b5" y="228.14"/>
      </g>
     </g>
     <g id="text_5">
      <!-- 6 -->
      <defs>
       <path d="M 33.015625 40.375 
Q 26.375 40.375 22.484375 35.828125 
Q 18.609375 31.296875 18.609375 23.390625 
Q 18.609375 15.53125 22.484375 10.953125 
Q 26.375 6.390625 33.015625 6.390625 
Q 39.65625 6.390625 43.53125 10.953125 
Q 47.40625 15.53125 47.40625 23.390625 
Q 47.40625 31.296875 43.53125 35.828125 
Q 39.65625 40.375 33.015625 40.375 
z
M 52.59375 71.296875 
L 52.59375 62.3125 
Q 48.875 64.0625 45.09375 64.984375 
Q 41.3125 65.921875 37.59375 65.921875 
Q 27.828125 65.921875 22.671875 59.328125 
Q 17.53125 52.734375 16.796875 39.40625 
Q 19.671875 43.65625 24.015625 45.921875 
Q 28.375 48.1875 33.59375 48.1875 
Q 44.578125 48.1875 50.953125 41.515625 
Q 57.328125 34.859375 57.328125 23.390625 
Q 57.328125 12.15625 50.6875 5.359375 
Q 44.046875 -1.421875 33.015625 -1.421875 
Q 20.359375 -1.421875 13.671875 8.265625 
Q 6.984375 17.96875 6.984375 36.375 
Q 6.984375 53.65625 15.1875 63.9375 
Q 23.390625 74.21875 37.203125 74.21875 
Q 40.921875 74.21875 44.703125 73.484375 
Q 48.484375 72.75 52.59375 71.296875 
z
" id="DejaVuSans-54"/>
      </defs>
      <g style="fill:#262626;" transform="translate(323.813301 242.738437)scale(0.1 -0.1)">
       <use xlink:href="#DejaVuSans-54"/>
      </g>
     </g>
    </g>
   </g>
   <g id="matplotlib.axis_2">
    <g id="ytick_1">
     <g id="line2d_6">
      <defs>
       <path d="M 0 0 
L -3.5 0 
" id="mcee0044e80" style="stroke:#262626;stroke-width:0.8;"/>
      </defs>
      <g>
       <use style="fill:#262626;stroke:#262626;stroke-width:0.8;" x="36.465625" xlink:href="#mcee0044e80" y="218.256364"/>
      </g>
     </g>
     <g id="text_6">
      <!-- 0.00 -->
      <defs>
       <path d="M 10.6875 12.40625 
L 21 12.40625 
L 21 0 
L 10.6875 0 
z
" id="DejaVuSans-46"/>
      </defs>
      <g style="fill:#262626;" transform="translate(7.2 222.055582)scale(0.1 -0.1)">
       <use xlink:href="#DejaVuSans-48"/>
       <use x="63.623047" xlink:href="#DejaVuSans-46"/>
       <use x="95.410156" xlink:href="#DejaVuSans-48"/>
       <use x="159.033203" xlink:href="#DejaVuSans-48"/>
      </g>
     </g>
    </g>
    <g id="ytick_2">
     <g id="line2d_7">
      <g>
       <use style="fill:#262626;stroke:#262626;stroke-width:0.8;" x="36.465625" xlink:href="#mcee0044e80" y="193.480514"/>
      </g>
     </g>
     <g id="text_7">
      <!-- 0.05 -->
      <defs>
       <path d="M 10.796875 72.90625 
L 49.515625 72.90625 
L 49.515625 64.59375 
L 19.828125 64.59375 
L 19.828125 46.734375 
Q 21.96875 47.46875 24.109375 47.828125 
Q 26.265625 48.1875 28.421875 48.1875 
Q 40.625 48.1875 47.75 41.5 
Q 54.890625 34.8125 54.890625 23.390625 
Q 54.890625 11.625 47.5625 5.09375 
Q 40.234375 -1.421875 26.90625 -1.421875 
Q 22.3125 -1.421875 17.546875 -0.640625 
Q 12.796875 0.140625 7.71875 1.703125 
L 7.71875 11.625 
Q 12.109375 9.234375 16.796875 8.0625 
Q 21.484375 6.890625 26.703125 6.890625 
Q 35.15625 6.890625 40.078125 11.328125 
Q 45.015625 15.765625 45.015625 23.390625 
Q 45.015625 31 40.078125 35.4375 
Q 35.15625 39.890625 26.703125 39.890625 
Q 22.75 39.890625 18.8125 39.015625 
Q 14.890625 38.140625 10.796875 36.28125 
z
" id="DejaVuSans-53"/>
      </defs>
      <g style="fill:#262626;" transform="translate(7.2 197.279733)scale(0.1 -0.1)">
       <use xlink:href="#DejaVuSans-48"/>
       <use x="63.623047" xlink:href="#DejaVuSans-46"/>
       <use x="95.410156" xlink:href="#DejaVuSans-48"/>
       <use x="159.033203" xlink:href="#DejaVuSans-53"/>
      </g>
     </g>
    </g>
    <g id="ytick_3">
     <g id="line2d_8">
      <g>
       <use style="fill:#262626;stroke:#262626;stroke-width:0.8;" x="36.465625" xlink:href="#mcee0044e80" y="168.704665"/>
      </g>
     </g>
     <g id="text_8">
      <!-- 0.10 -->
      <defs>
       <path d="M 12.40625 8.296875 
L 28.515625 8.296875 
L 28.515625 63.921875 
L 10.984375 60.40625 
L 10.984375 69.390625 
L 28.421875 72.90625 
L 38.28125 72.90625 
L 38.28125 8.296875 
L 54.390625 8.296875 
L 54.390625 0 
L 12.40625 0 
z
" id="DejaVuSans-49"/>
      </defs>
      <g style="fill:#262626;" transform="translate(7.2 172.503884)scale(0.1 -0.1)">
       <use xlink:href="#DejaVuSans-48"/>
       <use x="63.623047" xlink:href="#DejaVuSans-46"/>
       <use x="95.410156" xlink:href="#DejaVuSans-49"/>
       <use x="159.033203" xlink:href="#DejaVuSans-48"/>
      </g>
     </g>
    </g>
    <g id="ytick_4">
     <g id="line2d_9">
      <g>
       <use style="fill:#262626;stroke:#262626;stroke-width:0.8;" x="36.465625" xlink:href="#mcee0044e80" y="143.928815"/>
      </g>
     </g>
     <g id="text_9">
      <!-- 0.15 -->
      <g style="fill:#262626;" transform="translate(7.2 147.728034)scale(0.1 -0.1)">
       <use xlink:href="#DejaVuSans-48"/>
       <use x="63.623047" xlink:href="#DejaVuSans-46"/>
       <use x="95.410156" xlink:href="#DejaVuSans-49"/>
       <use x="159.033203" xlink:href="#DejaVuSans-53"/>
      </g>
     </g>
    </g>
    <g id="ytick_5">
     <g id="line2d_10">
      <g>
       <use style="fill:#262626;stroke:#262626;stroke-width:0.8;" x="36.465625" xlink:href="#mcee0044e80" y="119.152966"/>
      </g>
     </g>
     <g id="text_10">
      <!-- 0.20 -->
      <g style="fill:#262626;" transform="translate(7.2 122.952185)scale(0.1 -0.1)">
       <use xlink:href="#DejaVuSans-48"/>
       <use x="63.623047" xlink:href="#DejaVuSans-46"/>
       <use x="95.410156" xlink:href="#DejaVuSans-50"/>
       <use x="159.033203" xlink:href="#DejaVuSans-48"/>
      </g>
     </g>
    </g>
    <g id="ytick_6">
     <g id="line2d_11">
      <g>
       <use style="fill:#262626;stroke:#262626;stroke-width:0.8;" x="36.465625" xlink:href="#mcee0044e80" y="94.377117"/>
      </g>
     </g>
     <g id="text_11">
      <!-- 0.25 -->
      <g style="fill:#262626;" transform="translate(7.2 98.176335)scale(0.1 -0.1)">
       <use xlink:href="#DejaVuSans-48"/>
       <use x="63.623047" xlink:href="#DejaVuSans-46"/>
       <use x="95.410156" xlink:href="#DejaVuSans-50"/>
       <use x="159.033203" xlink:href="#DejaVuSans-53"/>
      </g>
     </g>
    </g>
    <g id="ytick_7">
     <g id="line2d_12">
      <g>
       <use style="fill:#262626;stroke:#262626;stroke-width:0.8;" x="36.465625" xlink:href="#mcee0044e80" y="69.601267"/>
      </g>
     </g>
     <g id="text_12">
      <!-- 0.30 -->
      <defs>
       <path d="M 40.578125 39.3125 
Q 47.65625 37.796875 51.625 33 
Q 55.609375 28.21875 55.609375 21.1875 
Q 55.609375 10.40625 48.1875 4.484375 
Q 40.765625 -1.421875 27.09375 -1.421875 
Q 22.515625 -1.421875 17.65625 -0.515625 
Q 12.796875 0.390625 7.625 2.203125 
L 7.625 11.71875 
Q 11.71875 9.328125 16.59375 8.109375 
Q 21.484375 6.890625 26.8125 6.890625 
Q 36.078125 6.890625 40.9375 10.546875 
Q 45.796875 14.203125 45.796875 21.1875 
Q 45.796875 27.640625 41.28125 31.265625 
Q 36.765625 34.90625 28.71875 34.90625 
L 20.21875 34.90625 
L 20.21875 43.015625 
L 29.109375 43.015625 
Q 36.375 43.015625 40.234375 45.921875 
Q 44.09375 48.828125 44.09375 54.296875 
Q 44.09375 59.90625 40.109375 62.90625 
Q 36.140625 65.921875 28.71875 65.921875 
Q 24.65625 65.921875 20.015625 65.03125 
Q 15.375 64.15625 9.8125 62.3125 
L 9.8125 71.09375 
Q 15.4375 72.65625 20.34375 73.4375 
Q 25.25 74.21875 29.59375 74.21875 
Q 40.828125 74.21875 47.359375 69.109375 
Q 53.90625 64.015625 53.90625 55.328125 
Q 53.90625 49.265625 50.4375 45.09375 
Q 46.96875 40.921875 40.578125 39.3125 
z
" id="DejaVuSans-51"/>
      </defs>
      <g style="fill:#262626;" transform="translate(7.2 73.400486)scale(0.1 -0.1)">
       <use xlink:href="#DejaVuSans-48"/>
       <use x="63.623047" xlink:href="#DejaVuSans-46"/>
       <use x="95.410156" xlink:href="#DejaVuSans-51"/>
       <use x="159.033203" xlink:href="#DejaVuSans-48"/>
      </g>
     </g>
    </g>
    <g id="ytick_8">
     <g id="line2d_13">
      <g>
       <use style="fill:#262626;stroke:#262626;stroke-width:0.8;" x="36.465625" xlink:href="#mcee0044e80" y="44.825418"/>
      </g>
     </g>
     <g id="text_13">
      <!-- 0.35 -->
      <g style="fill:#262626;" transform="translate(7.2 48.624636)scale(0.1 -0.1)">
       <use xlink:href="#DejaVuSans-48"/>
       <use x="63.623047" xlink:href="#DejaVuSans-46"/>
       <use x="95.410156" xlink:href="#DejaVuSans-51"/>
       <use x="159.033203" xlink:href="#DejaVuSans-53"/>
      </g>
     </g>
    </g>
    <g id="ytick_9">
     <g id="line2d_14">
      <g>
       <use style="fill:#262626;stroke:#262626;stroke-width:0.8;" x="36.465625" xlink:href="#mcee0044e80" y="20.049568"/>
      </g>
     </g>
     <g id="text_14">
      <!-- 0.40 -->
      <g style="fill:#262626;" transform="translate(7.2 23.848787)scale(0.1 -0.1)">
       <use xlink:href="#DejaVuSans-48"/>
       <use x="63.623047" xlink:href="#DejaVuSans-46"/>
       <use x="95.410156" xlink:href="#DejaVuSans-52"/>
       <use x="159.033203" xlink:href="#DejaVuSans-48"/>
      </g>
     </g>
    </g>
   </g>
   <g id="PolyCollection_1">
    <defs>
     <path d="M 193.100794 -33.761761 
L 193.100794 -84.867223 
L 193.5486 -83.652074 
L 193.996405 -82.455485 
L 194.44421 -81.277514 
L 194.892015 -80.118204 
L 195.33982 -78.977585 
L 195.787626 -77.855675 
L 196.235431 -76.752481 
L 196.683236 -75.667996 
L 197.131041 -74.602203 
L 197.578846 -73.555072 
L 198.026652 -72.526564 
L 198.474457 -71.516629 
L 198.922262 -70.525204 
L 199.370067 -69.55222 
L 199.817872 -68.597595 
L 200.265678 -67.66124 
L 200.713483 -66.743055 
L 201.161288 -65.842932 
L 201.609093 -64.960756 
L 202.056898 -64.096401 
L 202.504704 -63.249737 
L 202.952509 -62.420622 
L 203.400314 -61.608911 
L 203.848119 -60.81445 
L 204.295924 -60.03708 
L 204.74373 -59.276634 
L 205.191535 -58.53294 
L 205.63934 -57.805821 
L 206.087145 -57.095095 
L 206.534951 -56.400573 
L 206.982756 -55.722065 
L 207.430561 -55.059374 
L 207.878366 -54.412298 
L 208.326171 -53.780635 
L 208.773977 -53.164176 
L 209.221782 -52.562711 
L 209.669587 -51.976027 
L 210.117392 -51.403907 
L 210.565197 -50.846132 
L 211.013003 -50.302483 
L 211.460808 -49.772735 
L 211.908613 -49.256667 
L 212.356418 -48.754051 
L 212.804223 -48.264661 
L 213.252029 -47.78827 
L 213.699834 -47.32465 
L 214.147639 -46.873572 
L 214.595444 -46.434807 
L 215.043249 -46.008127 
L 215.491055 -45.593301 
L 215.93886 -45.190102 
L 216.386665 -44.798302 
L 216.83447 -44.417672 
L 217.282275 -44.047988 
L 217.730081 -43.689022 
L 218.177886 -43.340551 
L 218.625691 -43.002352 
L 219.073496 -42.674202 
L 219.521301 -42.355882 
L 219.969107 -42.047173 
L 220.416912 -41.747859 
L 220.864717 -41.457725 
L 221.312522 -41.176558 
L 221.760327 -40.904147 
L 222.208133 -40.640286 
L 222.655938 -40.384766 
L 223.103743 -40.137386 
L 223.551548 -39.897944 
L 223.999353 -39.666242 
L 224.447159 -39.442083 
L 224.894964 -39.225275 
L 225.342769 -39.015628 
L 225.790574 -38.812953 
L 226.23838 -38.617067 
L 226.686185 -38.427787 
L 227.13399 -38.244935 
L 227.581795 -38.068335 
L 228.0296 -37.897813 
L 228.477406 -37.733201 
L 228.925211 -37.574331 
L 229.373016 -37.42104 
L 229.820821 -37.273168 
L 230.268626 -37.130556 
L 230.716432 -36.993051 
L 231.164237 -36.8605 
L 231.612042 -36.732757 
L 232.059847 -36.609676 
L 232.507652 -36.491114 
L 232.955458 -36.376933 
L 233.403263 -36.266998 
L 233.851068 -36.161174 
L 234.298873 -36.059334 
L 234.746678 -35.961349 
L 235.194484 -35.867096 
L 235.642289 -35.776454 
L 236.090094 -35.689306 
L 236.537899 -35.605537 
L 236.985704 -35.525034 
L 237.43351 -35.447688 
L 237.881315 -35.373392 
L 238.32912 -35.302044 
L 238.776925 -35.233543 
L 239.22473 -35.167789 
L 239.672536 -35.104689 
L 240.120341 -35.044148 
L 240.568146 -34.986076 
L 241.015951 -34.930386 
L 241.463756 -34.876993 
L 241.911562 -34.825813 
L 242.359367 -34.776767 
L 242.807172 -34.729776 
L 243.254977 -34.684765 
L 243.702783 -34.64166 
L 244.150588 -34.60039 
L 244.598393 -34.560886 
L 245.046198 -34.523082 
L 245.494003 -34.486912 
L 245.941809 -34.452314 
L 246.389614 -34.419227 
L 246.837419 -34.387593 
L 247.285224 -34.357354 
L 247.733029 -34.328457 
L 248.180835 -34.300847 
L 248.62864 -34.274473 
L 249.076445 -34.249286 
L 249.52425 -34.225238 
L 249.972055 -34.202283 
L 250.419861 -34.180376 
L 250.867666 -34.159474 
L 251.315471 -34.139536 
L 251.763276 -34.120521 
L 252.211081 -34.10239 
L 252.658887 -34.085108 
L 253.106692 -34.068637 
L 253.554497 -34.052943 
L 254.002302 -34.037994 
L 254.450107 -34.023756 
L 254.897913 -34.0102 
L 255.345718 -33.997294 
L 255.793523 -33.985012 
L 256.241328 -33.973326 
L 256.689133 -33.962209 
L 257.136939 -33.951635 
L 257.584744 -33.941581 
L 258.032549 -33.932024 
L 258.480354 -33.92294 
L 258.928159 -33.914308 
L 259.375965 -33.906108 
L 259.82377 -33.89832 
L 260.271575 -33.890925 
L 260.71938 -33.883904 
L 261.167186 -33.877241 
L 261.614991 -33.870917 
L 262.062796 -33.864918 
L 262.510601 -33.859229 
L 262.958406 -33.853833 
L 263.406212 -33.848718 
L 263.854017 -33.843869 
L 264.301822 -33.839274 
L 264.749627 -33.834921 
L 265.197432 -33.830798 
L 265.645238 -33.826893 
L 266.093043 -33.823196 
L 266.540848 -33.819697 
L 266.988653 -33.816386 
L 267.436458 -33.813252 
L 267.884264 -33.810288 
L 268.332069 -33.807486 
L 268.779874 -33.804835 
L 269.227679 -33.80233 
L 269.675484 -33.799963 
L 270.12329 -33.797726 
L 270.571095 -33.795612 
L 271.0189 -33.793617 
L 271.466705 -33.791732 
L 271.91451 -33.789953 
L 272.362316 -33.788274 
L 272.810121 -33.78669 
L 273.257926 -33.785195 
L 273.705731 -33.783785 
L 274.153536 -33.782456 
L 274.601342 -33.781203 
L 275.049147 -33.780022 
L 275.496952 -33.778909 
L 275.944757 -33.77786 
L 276.392562 -33.776873 
L 276.840368 -33.775942 
L 277.288173 -33.775067 
L 277.735978 -33.774242 
L 278.183783 -33.773467 
L 278.631588 -33.772737 
L 279.079394 -33.772051 
L 279.527199 -33.771405 
L 279.975004 -33.770798 
L 280.422809 -33.770227 
L 280.870615 -33.769691 
L 281.31842 -33.769187 
L 281.766225 -33.768714 
L 282.21403 -33.768269 
L 282.661835 -33.767852 
L 283.109641 -33.76746 
L 283.557446 -33.767092 
L 284.005251 -33.766747 
L 284.453056 -33.766424 
L 284.900861 -33.76612 
L 285.348667 -33.765835 
L 285.796472 -33.765568 
L 286.244277 -33.765318 
L 286.692082 -33.765084 
L 287.139887 -33.764864 
L 287.587693 -33.764658 
L 288.035498 -33.764466 
L 288.483303 -33.764285 
L 288.931108 -33.764116 
L 289.378913 -33.763958 
L 289.826719 -33.76381 
L 290.274524 -33.763672 
L 290.722329 -33.763543 
L 291.170134 -33.763422 
L 291.617939 -33.763309 
L 292.065745 -33.763203 
L 292.51355 -33.763104 
L 292.961355 -33.763012 
L 293.40916 -33.762926 
L 293.856965 -33.762845 
L 294.304771 -33.76277 
L 294.752576 -33.7627 
L 295.200381 -33.762635 
L 295.648186 -33.762574 
L 296.095991 -33.762517 
L 296.543797 -33.762464 
L 296.991602 -33.762414 
L 297.439407 -33.762368 
L 297.887212 -33.762325 
L 298.335018 -33.762285 
L 298.782823 -33.762248 
L 299.230628 -33.762213 
L 299.678433 -33.762181 
L 300.126238 -33.762151 
L 300.574044 -33.762122 
L 301.021849 -33.762096 
L 301.469654 -33.762072 
L 301.917459 -33.76205 
L 302.365264 -33.762029 
L 302.81307 -33.762009 
L 303.260875 -33.761991 
L 303.70868 -33.761974 
L 304.156485 -33.761958 
L 304.60429 -33.761944 
L 305.052096 -33.76193 
L 305.499901 -33.761918 
L 305.947706 -33.761906 
L 306.395511 -33.761895 
L 306.843316 -33.761885 
L 307.291122 -33.761876 
L 307.738927 -33.761867 
L 308.186732 -33.761859 
L 308.634537 -33.761852 
L 309.082342 -33.761845 
L 309.530148 -33.761839 
L 309.977953 -33.761833 
L 310.425758 -33.761827 
L 310.873563 -33.761822 
L 311.321368 -33.761818 
L 311.769174 -33.761813 
L 312.216979 -33.761809 
L 312.664784 -33.761806 
L 313.112589 -33.761802 
L 313.560394 -33.761799 
L 314.0082 -33.761796 
L 314.456005 -33.761793 
L 314.90381 -33.761791 
L 315.351615 -33.761789 
L 315.79942 -33.761786 
L 316.247226 -33.761784 
L 316.695031 -33.761783 
L 317.142836 -33.761781 
L 317.590641 -33.761779 
L 318.038447 -33.761778 
L 318.486252 -33.761777 
L 318.934057 -33.761775 
L 319.381862 -33.761774 
L 319.829667 -33.761773 
L 320.277473 -33.761772 
L 320.725278 -33.761771 
L 321.173083 -33.761771 
L 321.620888 -33.76177 
L 322.068693 -33.761769 
L 322.516499 -33.761769 
L 322.964304 -33.761768 
L 323.412109 -33.761767 
L 323.859914 -33.761767 
L 324.307719 -33.761766 
L 324.755525 -33.761766 
L 325.20333 -33.761766 
L 325.651135 -33.761765 
L 326.09894 -33.761765 
L 326.546745 -33.761765 
L 326.994551 -33.761764 
L 326.994551 -33.761761 
L 326.994551 -33.761761 
L 326.546745 -33.761761 
L 326.09894 -33.761761 
L 325.651135 -33.761761 
L 325.20333 -33.761761 
L 324.755525 -33.761761 
L 324.307719 -33.761761 
L 323.859914 -33.761761 
L 323.412109 -33.761761 
L 322.964304 -33.761761 
L 322.516499 -33.761761 
L 322.068693 -33.761761 
L 321.620888 -33.761761 
L 321.173083 -33.761761 
L 320.725278 -33.761761 
L 320.277473 -33.761761 
L 319.829667 -33.761761 
L 319.381862 -33.761761 
L 318.934057 -33.761761 
L 318.486252 -33.761761 
L 318.038447 -33.761761 
L 317.590641 -33.761761 
L 317.142836 -33.761761 
L 316.695031 -33.761761 
L 316.247226 -33.761761 
L 315.79942 -33.761761 
L 315.351615 -33.761761 
L 314.90381 -33.761761 
L 314.456005 -33.761761 
L 314.0082 -33.761761 
L 313.560394 -33.761761 
L 313.112589 -33.761761 
L 312.664784 -33.761761 
L 312.216979 -33.761761 
L 311.769174 -33.761761 
L 311.321368 -33.761761 
L 310.873563 -33.761761 
L 310.425758 -33.761761 
L 309.977953 -33.761761 
L 309.530148 -33.761761 
L 309.082342 -33.761761 
L 308.634537 -33.761761 
L 308.186732 -33.761761 
L 307.738927 -33.761761 
L 307.291122 -33.761761 
L 306.843316 -33.761761 
L 306.395511 -33.761761 
L 305.947706 -33.761761 
L 305.499901 -33.761761 
L 305.052096 -33.761761 
L 304.60429 -33.761761 
L 304.156485 -33.761761 
L 303.70868 -33.761761 
L 303.260875 -33.761761 
L 302.81307 -33.761761 
L 302.365264 -33.761761 
L 301.917459 -33.761761 
L 301.469654 -33.761761 
L 301.021849 -33.761761 
L 300.574044 -33.761761 
L 300.126238 -33.761761 
L 299.678433 -33.761761 
L 299.230628 -33.761761 
L 298.782823 -33.761761 
L 298.335018 -33.761761 
L 297.887212 -33.761761 
L 297.439407 -33.761761 
L 296.991602 -33.761761 
L 296.543797 -33.761761 
L 296.095991 -33.761761 
L 295.648186 -33.761761 
L 295.200381 -33.761761 
L 294.752576 -33.761761 
L 294.304771 -33.761761 
L 293.856965 -33.761761 
L 293.40916 -33.761761 
L 292.961355 -33.761761 
L 292.51355 -33.761761 
L 292.065745 -33.761761 
L 291.617939 -33.761761 
L 291.170134 -33.761761 
L 290.722329 -33.761761 
L 290.274524 -33.761761 
L 289.826719 -33.761761 
L 289.378913 -33.761761 
L 288.931108 -33.761761 
L 288.483303 -33.761761 
L 288.035498 -33.761761 
L 287.587693 -33.761761 
L 287.139887 -33.761761 
L 286.692082 -33.761761 
L 286.244277 -33.761761 
L 285.796472 -33.761761 
L 285.348667 -33.761761 
L 284.900861 -33.761761 
L 284.453056 -33.761761 
L 284.005251 -33.761761 
L 283.557446 -33.761761 
L 283.109641 -33.761761 
L 282.661835 -33.761761 
L 282.21403 -33.761761 
L 281.766225 -33.761761 
L 281.31842 -33.761761 
L 280.870615 -33.761761 
L 280.422809 -33.761761 
L 279.975004 -33.761761 
L 279.527199 -33.761761 
L 279.079394 -33.761761 
L 278.631588 -33.761761 
L 278.183783 -33.761761 
L 277.735978 -33.761761 
L 277.288173 -33.761761 
L 276.840368 -33.761761 
L 276.392562 -33.761761 
L 275.944757 -33.761761 
L 275.496952 -33.761761 
L 275.049147 -33.761761 
L 274.601342 -33.761761 
L 274.153536 -33.761761 
L 273.705731 -33.761761 
L 273.257926 -33.761761 
L 272.810121 -33.761761 
L 272.362316 -33.761761 
L 271.91451 -33.761761 
L 271.466705 -33.761761 
L 271.0189 -33.761761 
L 270.571095 -33.761761 
L 270.12329 -33.761761 
L 269.675484 -33.761761 
L 269.227679 -33.761761 
L 268.779874 -33.761761 
L 268.332069 -33.761761 
L 267.884264 -33.761761 
L 267.436458 -33.761761 
L 266.988653 -33.761761 
L 266.540848 -33.761761 
L 266.093043 -33.761761 
L 265.645238 -33.761761 
L 265.197432 -33.761761 
L 264.749627 -33.761761 
L 264.301822 -33.761761 
L 263.854017 -33.761761 
L 263.406212 -33.761761 
L 262.958406 -33.761761 
L 262.510601 -33.761761 
L 262.062796 -33.761761 
L 261.614991 -33.761761 
L 261.167186 -33.761761 
L 260.71938 -33.761761 
L 260.271575 -33.761761 
L 259.82377 -33.761761 
L 259.375965 -33.761761 
L 258.928159 -33.761761 
L 258.480354 -33.761761 
L 258.032549 -33.761761 
L 257.584744 -33.761761 
L 257.136939 -33.761761 
L 256.689133 -33.761761 
L 256.241328 -33.761761 
L 255.793523 -33.761761 
L 255.345718 -33.761761 
L 254.897913 -33.761761 
L 254.450107 -33.761761 
L 254.002302 -33.761761 
L 253.554497 -33.761761 
L 253.106692 -33.761761 
L 252.658887 -33.761761 
L 252.211081 -33.761761 
L 251.763276 -33.761761 
L 251.315471 -33.761761 
L 250.867666 -33.761761 
L 250.419861 -33.761761 
L 249.972055 -33.761761 
L 249.52425 -33.761761 
L 249.076445 -33.761761 
L 248.62864 -33.761761 
L 248.180835 -33.761761 
L 247.733029 -33.761761 
L 247.285224 -33.761761 
L 246.837419 -33.761761 
L 246.389614 -33.761761 
L 245.941809 -33.761761 
L 245.494003 -33.761761 
L 245.046198 -33.761761 
L 244.598393 -33.761761 
L 244.150588 -33.761761 
L 243.702783 -33.761761 
L 243.254977 -33.761761 
L 242.807172 -33.761761 
L 242.359367 -33.761761 
L 241.911562 -33.761761 
L 241.463756 -33.761761 
L 241.015951 -33.761761 
L 240.568146 -33.761761 
L 240.120341 -33.761761 
L 239.672536 -33.761761 
L 239.22473 -33.761761 
L 238.776925 -33.761761 
L 238.32912 -33.761761 
L 237.881315 -33.761761 
L 237.43351 -33.761761 
L 236.985704 -33.761761 
L 236.537899 -33.761761 
L 236.090094 -33.761761 
L 235.642289 -33.761761 
L 235.194484 -33.761761 
L 234.746678 -33.761761 
L 234.298873 -33.761761 
L 233.851068 -33.761761 
L 233.403263 -33.761761 
L 232.955458 -33.761761 
L 232.507652 -33.761761 
L 232.059847 -33.761761 
L 231.612042 -33.761761 
L 231.164237 -33.761761 
L 230.716432 -33.761761 
L 230.268626 -33.761761 
L 229.820821 -33.761761 
L 229.373016 -33.761761 
L 228.925211 -33.761761 
L 228.477406 -33.761761 
L 228.0296 -33.761761 
L 227.581795 -33.761761 
L 227.13399 -33.761761 
L 226.686185 -33.761761 
L 226.23838 -33.761761 
L 225.790574 -33.761761 
L 225.342769 -33.761761 
L 224.894964 -33.761761 
L 224.447159 -33.761761 
L 223.999353 -33.761761 
L 223.551548 -33.761761 
L 223.103743 -33.761761 
L 222.655938 -33.761761 
L 222.208133 -33.761761 
L 221.760327 -33.761761 
L 221.312522 -33.761761 
L 220.864717 -33.761761 
L 220.416912 -33.761761 
L 219.969107 -33.761761 
L 219.521301 -33.761761 
L 219.073496 -33.761761 
L 218.625691 -33.761761 
L 218.177886 -33.761761 
L 217.730081 -33.761761 
L 217.282275 -33.761761 
L 216.83447 -33.761761 
L 216.386665 -33.761761 
L 215.93886 -33.761761 
L 215.491055 -33.761761 
L 215.043249 -33.761761 
L 214.595444 -33.761761 
L 214.147639 -33.761761 
L 213.699834 -33.761761 
L 213.252029 -33.761761 
L 212.804223 -33.761761 
L 212.356418 -33.761761 
L 211.908613 -33.761761 
L 211.460808 -33.761761 
L 211.013003 -33.761761 
L 210.565197 -33.761761 
L 210.117392 -33.761761 
L 209.669587 -33.761761 
L 209.221782 -33.761761 
L 208.773977 -33.761761 
L 208.326171 -33.761761 
L 207.878366 -33.761761 
L 207.430561 -33.761761 
L 206.982756 -33.761761 
L 206.534951 -33.761761 
L 206.087145 -33.761761 
L 205.63934 -33.761761 
L 205.191535 -33.761761 
L 204.74373 -33.761761 
L 204.295924 -33.761761 
L 203.848119 -33.761761 
L 203.400314 -33.761761 
L 202.952509 -33.761761 
L 202.504704 -33.761761 
L 202.056898 -33.761761 
L 201.609093 -33.761761 
L 201.161288 -33.761761 
L 200.713483 -33.761761 
L 200.265678 -33.761761 
L 199.817872 -33.761761 
L 199.370067 -33.761761 
L 198.922262 -33.761761 
L 198.474457 -33.761761 
L 198.026652 -33.761761 
L 197.578846 -33.761761 
L 197.131041 -33.761761 
L 196.683236 -33.761761 
L 196.235431 -33.761761 
L 195.787626 -33.761761 
L 195.33982 -33.761761 
L 194.892015 -33.761761 
L 194.44421 -33.761761 
L 193.996405 -33.761761 
L 193.5486 -33.761761 
L 193.100794 -33.761761 
z
" id="m6196fc7a2b" style="stroke:#cc503e;stroke-opacity:0.7;"/>
    </defs>
    <g clip-path="url(#pda47f870c5)">
     <use style="fill:#cc503e;fill-opacity:0.7;stroke:#cc503e;stroke-opacity:0.7;" x="0" xlink:href="#m6196fc7a2b" y="252.018125"/>
    </g>
   </g>
   <g id="PolyCollection_2">
    <defs>
     <path d="M 50.300336 -33.761761 
L 50.300336 -47.138482 
L 50.777929 -47.347497 
L 51.255523 -47.558945 
L 51.733116 -47.77284 
L 52.21071 -47.989191 
L 52.688303 -48.208012 
L 53.165897 -48.429314 
L 53.64349 -48.653107 
L 54.121084 -48.879402 
L 54.598677 -49.108211 
L 55.076271 -49.339543 
L 55.553864 -49.573408 
L 56.031458 -49.809816 
L 56.509051 -50.048775 
L 56.986645 -50.290296 
L 57.464238 -50.534386 
L 57.941832 -50.781054 
L 58.419425 -51.030308 
L 58.897019 -51.282155 
L 59.374612 -51.536603 
L 59.852206 -51.793658 
L 60.329799 -52.053327 
L 60.807393 -52.315616 
L 61.284986 -52.580531 
L 61.76258 -52.848077 
L 62.240173 -53.118258 
L 62.717767 -53.39108 
L 63.19536 -53.666546 
L 63.672954 -53.944661 
L 64.150547 -54.225426 
L 64.628141 -54.508846 
L 65.105734 -54.794922 
L 65.583328 -55.083656 
L 66.060921 -55.375049 
L 66.538515 -55.669104 
L 67.016108 -55.965819 
L 67.493702 -56.265195 
L 67.971296 -56.567232 
L 68.448889 -56.871929 
L 68.926483 -57.179283 
L 69.404076 -57.489294 
L 69.88167 -57.801959 
L 70.359263 -58.117273 
L 70.836857 -58.435236 
L 71.31445 -58.755841 
L 71.792044 -59.079084 
L 72.269637 -59.404961 
L 72.747231 -59.733466 
L 73.224824 -60.064592 
L 73.702418 -60.398332 
L 74.180011 -60.73468 
L 74.657605 -61.073627 
L 75.135198 -61.415165 
L 75.612792 -61.759285 
L 76.090385 -62.105977 
L 76.567979 -62.455231 
L 77.045572 -62.807036 
L 77.523166 -63.16138 
L 78.000759 -63.518253 
L 78.478353 -63.87764 
L 78.955946 -64.239529 
L 79.43354 -64.603906 
L 79.911133 -64.970756 
L 80.388727 -65.340064 
L 80.86632 -65.711815 
L 81.343914 -66.085992 
L 81.821507 -66.462579 
L 82.299101 -66.841556 
L 82.776694 -67.222907 
L 83.254288 -67.606613 
L 83.731881 -67.992653 
L 84.209475 -68.381008 
L 84.687068 -68.771656 
L 85.164662 -69.164577 
L 85.642255 -69.559747 
L 86.119849 -69.957145 
L 86.597442 -70.356747 
L 87.075036 -70.758528 
L 87.552629 -71.162463 
L 88.030223 -71.568528 
L 88.507816 -71.976696 
L 88.98541 -72.386941 
L 89.463003 -72.799234 
L 89.940597 -73.213547 
L 90.41819 -73.629853 
L 90.895784 -74.048121 
L 91.373377 -74.468321 
L 91.850971 -74.890423 
L 92.328564 -75.314394 
L 92.806158 -75.740203 
L 93.283751 -76.167818 
L 93.761345 -76.597204 
L 94.238938 -77.028327 
L 94.716532 -77.461153 
L 95.194125 -77.895645 
L 95.671719 -78.331769 
L 96.149312 -78.769488 
L 96.626906 -79.208763 
L 97.104499 -79.649556 
L 97.582093 -80.09183 
L 98.059686 -80.535545 
L 98.53728 -80.98066 
L 99.014873 -81.427135 
L 99.492467 -81.874929 
L 99.97006 -82.324001 
L 100.447654 -82.774306 
L 100.925247 -83.225803 
L 101.402841 -83.678447 
L 101.880435 -84.132194 
L 102.358028 -84.587 
L 102.835622 -85.042818 
L 103.313215 -85.499602 
L 103.790809 -85.957307 
L 104.268402 -86.415883 
L 104.745996 -86.875284 
L 105.223589 -87.335461 
L 105.701183 -87.796365 
L 106.178776 -88.257946 
L 106.65637 -88.720155 
L 107.133963 -89.18294 
L 107.611557 -89.64625 
L 108.08915 -90.110033 
L 108.566744 -90.574238 
L 109.044337 -91.038812 
L 109.521931 -91.5037 
L 109.999524 -91.96885 
L 110.477118 -92.434208 
L 110.954711 -92.899718 
L 111.432305 -93.365325 
L 111.909898 -93.830973 
L 112.387492 -94.296608 
L 112.865085 -94.762171 
L 113.342679 -95.227607 
L 113.820272 -95.692857 
L 114.297866 -96.157865 
L 114.775459 -96.622571 
L 115.253053 -97.086918 
L 115.730646 -97.550846 
L 116.20824 -98.014297 
L 116.685833 -98.47721 
L 117.163427 -98.939526 
L 117.64102 -99.401185 
L 118.118614 -99.862125 
L 118.596207 -100.322286 
L 119.073801 -100.781608 
L 119.551394 -101.240028 
L 120.028988 -101.697484 
L 120.506581 -102.153916 
L 120.984175 -102.60926 
L 121.461768 -103.063455 
L 121.939362 -103.516438 
L 122.416955 -103.968146 
L 122.894549 -104.418516 
L 123.372142 -104.867485 
L 123.849736 -105.31499 
L 124.327329 -105.760968 
L 124.804923 -106.205354 
L 125.282516 -106.648086 
L 125.76011 -107.089099 
L 126.237703 -107.52833 
L 126.715297 -107.965716 
L 127.19289 -108.401191 
L 127.670484 -108.834693 
L 128.148077 -109.266157 
L 128.625671 -109.69552 
L 129.103264 -110.122717 
L 129.580858 -110.547684 
L 130.058451 -110.970359 
L 130.536045 -111.390676 
L 131.013638 -111.808573 
L 131.491232 -112.223986 
L 131.968825 -112.636851 
L 132.446419 -113.047105 
L 132.924012 -113.454685 
L 133.401606 -113.859528 
L 133.879199 -114.26157 
L 134.356793 -114.660749 
L 134.834386 -115.057003 
L 135.31198 -115.45027 
L 135.789574 -115.840487 
L 136.267167 -116.227592 
L 136.744761 -116.611525 
L 137.222354 -116.992223 
L 137.699948 -117.369627 
L 138.177541 -117.743675 
L 138.655135 -118.114307 
L 139.132728 -118.481463 
L 139.610322 -118.845085 
L 140.087915 -119.205112 
L 140.565509 -119.561485 
L 141.043102 -119.914148 
L 141.520696 -120.263041 
L 141.998289 -120.608107 
L 142.475883 -120.949289 
L 142.953476 -121.286531 
L 143.43107 -121.619777 
L 143.908663 -121.948971 
L 144.386257 -122.274058 
L 144.86385 -122.594985 
L 145.341444 -122.911696 
L 145.819037 -123.224138 
L 146.296631 -123.53226 
L 146.774224 -123.836008 
L 147.251818 -124.135332 
L 147.729411 -124.43018 
L 148.207005 -124.720502 
L 148.684598 -125.006249 
L 149.162192 -125.287371 
L 149.639785 -125.563821 
L 150.117379 -125.83555 
L 150.594972 -126.102513 
L 151.072566 -126.364663 
L 151.550159 -126.621955 
L 152.027753 -126.874343 
L 152.505346 -127.121785 
L 152.98294 -127.364237 
L 153.460533 -127.601658 
L 153.938127 -127.834004 
L 154.41572 -128.061237 
L 154.893314 -128.283316 
L 155.370907 -128.500202 
L 155.848501 -128.711857 
L 156.326094 -128.918243 
L 156.803688 -129.119325 
L 157.281281 -129.315067 
L 157.758875 -129.505435 
L 158.236468 -129.690394 
L 158.714062 -129.869912 
L 159.191655 -130.043956 
L 159.669249 -130.212497 
L 160.146842 -130.375504 
L 160.624436 -130.532948 
L 161.102029 -130.6848 
L 161.579623 -130.831035 
L 162.057216 -130.971625 
L 162.53481 -131.106546 
L 163.012403 -131.235773 
L 163.489997 -131.359283 
L 163.96759 -131.477054 
L 164.445184 -131.589065 
L 164.922777 -131.695296 
L 165.400371 -131.795728 
L 165.877964 -131.890342 
L 166.355558 -131.979122 
L 166.833151 -132.062051 
L 167.310745 -132.139115 
L 167.788338 -132.2103 
L 168.265932 -132.275593 
L 168.743525 -132.334982 
L 169.221119 -132.388456 
L 169.698713 -132.436005 
L 170.176306 -132.477622 
L 170.6539 -132.513299 
L 171.131493 -132.543028 
L 171.609087 -132.566806 
L 172.08668 -132.584626 
L 172.564274 -132.596487 
L 173.041867 -132.602386 
L 173.519461 -132.602322 
L 173.997054 -132.596295 
L 174.474648 -132.584307 
L 174.952241 -132.566358 
L 175.429835 -132.542453 
L 175.907428 -132.512596 
L 176.385022 -132.476792 
L 176.862615 -132.435048 
L 177.340209 -132.387371 
L 177.817802 -132.33377 
L 178.295396 -132.274254 
L 178.772989 -132.208835 
L 179.250583 -132.137524 
L 179.728176 -132.060334 
L 180.20577 -131.977279 
L 180.683363 -131.888374 
L 181.160957 -131.793635 
L 181.63855 -131.693079 
L 182.116144 -131.586724 
L 182.593737 -131.474589 
L 183.071331 -131.356694 
L 183.548924 -131.233061 
L 184.026518 -131.103712 
L 184.504111 -130.968669 
L 184.981705 -130.827958 
L 185.459298 -130.681602 
L 185.936892 -130.529629 
L 186.414485 -130.372066 
L 186.892079 -130.20894 
L 187.369672 -130.040281 
L 187.847266 -129.866119 
L 188.324859 -129.686484 
L 188.802453 -129.501409 
L 189.280046 -129.310926 
L 189.75764 -129.115069 
L 190.235233 -128.913872 
L 190.712827 -128.707372 
L 191.19042 -128.495605 
L 191.668014 -128.278607 
L 192.145607 -128.056417 
L 192.623201 -127.829075 
L 193.100794 -127.596619 
L 193.100794 -33.761761 
L 193.100794 -33.761761 
L 192.623201 -33.761761 
L 192.145607 -33.761761 
L 191.668014 -33.761761 
L 191.19042 -33.761761 
L 190.712827 -33.761761 
L 190.235233 -33.761761 
L 189.75764 -33.761761 
L 189.280046 -33.761761 
L 188.802453 -33.761761 
L 188.324859 -33.761761 
L 187.847266 -33.761761 
L 187.369672 -33.761761 
L 186.892079 -33.761761 
L 186.414485 -33.761761 
L 185.936892 -33.761761 
L 185.459298 -33.761761 
L 184.981705 -33.761761 
L 184.504111 -33.761761 
L 184.026518 -33.761761 
L 183.548924 -33.761761 
L 183.071331 -33.761761 
L 182.593737 -33.761761 
L 182.116144 -33.761761 
L 181.63855 -33.761761 
L 181.160957 -33.761761 
L 180.683363 -33.761761 
L 180.20577 -33.761761 
L 179.728176 -33.761761 
L 179.250583 -33.761761 
L 178.772989 -33.761761 
L 178.295396 -33.761761 
L 177.817802 -33.761761 
L 177.340209 -33.761761 
L 176.862615 -33.761761 
L 176.385022 -33.761761 
L 175.907428 -33.761761 
L 175.429835 -33.761761 
L 174.952241 -33.761761 
L 174.474648 -33.761761 
L 173.997054 -33.761761 
L 173.519461 -33.761761 
L 173.041867 -33.761761 
L 172.564274 -33.761761 
L 172.08668 -33.761761 
L 171.609087 -33.761761 
L 171.131493 -33.761761 
L 170.6539 -33.761761 
L 170.176306 -33.761761 
L 169.698713 -33.761761 
L 169.221119 -33.761761 
L 168.743525 -33.761761 
L 168.265932 -33.761761 
L 167.788338 -33.761761 
L 167.310745 -33.761761 
L 166.833151 -33.761761 
L 166.355558 -33.761761 
L 165.877964 -33.761761 
L 165.400371 -33.761761 
L 164.922777 -33.761761 
L 164.445184 -33.761761 
L 163.96759 -33.761761 
L 163.489997 -33.761761 
L 163.012403 -33.761761 
L 162.53481 -33.761761 
L 162.057216 -33.761761 
L 161.579623 -33.761761 
L 161.102029 -33.761761 
L 160.624436 -33.761761 
L 160.146842 -33.761761 
L 159.669249 -33.761761 
L 159.191655 -33.761761 
L 158.714062 -33.761761 
L 158.236468 -33.761761 
L 157.758875 -33.761761 
L 157.281281 -33.761761 
L 156.803688 -33.761761 
L 156.326094 -33.761761 
L 155.848501 -33.761761 
L 155.370907 -33.761761 
L 154.893314 -33.761761 
L 154.41572 -33.761761 
L 153.938127 -33.761761 
L 153.460533 -33.761761 
L 152.98294 -33.761761 
L 152.505346 -33.761761 
L 152.027753 -33.761761 
L 151.550159 -33.761761 
L 151.072566 -33.761761 
L 150.594972 -33.761761 
L 150.117379 -33.761761 
L 149.639785 -33.761761 
L 149.162192 -33.761761 
L 148.684598 -33.761761 
L 148.207005 -33.761761 
L 147.729411 -33.761761 
L 147.251818 -33.761761 
L 146.774224 -33.761761 
L 146.296631 -33.761761 
L 145.819037 -33.761761 
L 145.341444 -33.761761 
L 144.86385 -33.761761 
L 144.386257 -33.761761 
L 143.908663 -33.761761 
L 143.43107 -33.761761 
L 142.953476 -33.761761 
L 142.475883 -33.761761 
L 141.998289 -33.761761 
L 141.520696 -33.761761 
L 141.043102 -33.761761 
L 140.565509 -33.761761 
L 140.087915 -33.761761 
L 139.610322 -33.761761 
L 139.132728 -33.761761 
L 138.655135 -33.761761 
L 138.177541 -33.761761 
L 137.699948 -33.761761 
L 137.222354 -33.761761 
L 136.744761 -33.761761 
L 136.267167 -33.761761 
L 135.789574 -33.761761 
L 135.31198 -33.761761 
L 134.834386 -33.761761 
L 134.356793 -33.761761 
L 133.879199 -33.761761 
L 133.401606 -33.761761 
L 132.924012 -33.761761 
L 132.446419 -33.761761 
L 131.968825 -33.761761 
L 131.491232 -33.761761 
L 131.013638 -33.761761 
L 130.536045 -33.761761 
L 130.058451 -33.761761 
L 129.580858 -33.761761 
L 129.103264 -33.761761 
L 128.625671 -33.761761 
L 128.148077 -33.761761 
L 127.670484 -33.761761 
L 127.19289 -33.761761 
L 126.715297 -33.761761 
L 126.237703 -33.761761 
L 125.76011 -33.761761 
L 125.282516 -33.761761 
L 124.804923 -33.761761 
L 124.327329 -33.761761 
L 123.849736 -33.761761 
L 123.372142 -33.761761 
L 122.894549 -33.761761 
L 122.416955 -33.761761 
L 121.939362 -33.761761 
L 121.461768 -33.761761 
L 120.984175 -33.761761 
L 120.506581 -33.761761 
L 120.028988 -33.761761 
L 119.551394 -33.761761 
L 119.073801 -33.761761 
L 118.596207 -33.761761 
L 118.118614 -33.761761 
L 117.64102 -33.761761 
L 117.163427 -33.761761 
L 116.685833 -33.761761 
L 116.20824 -33.761761 
L 115.730646 -33.761761 
L 115.253053 -33.761761 
L 114.775459 -33.761761 
L 114.297866 -33.761761 
L 113.820272 -33.761761 
L 113.342679 -33.761761 
L 112.865085 -33.761761 
L 112.387492 -33.761761 
L 111.909898 -33.761761 
L 111.432305 -33.761761 
L 110.954711 -33.761761 
L 110.477118 -33.761761 
L 109.999524 -33.761761 
L 109.521931 -33.761761 
L 109.044337 -33.761761 
L 108.566744 -33.761761 
L 108.08915 -33.761761 
L 107.611557 -33.761761 
L 107.133963 -33.761761 
L 106.65637 -33.761761 
L 106.178776 -33.761761 
L 105.701183 -33.761761 
L 105.223589 -33.761761 
L 104.745996 -33.761761 
L 104.268402 -33.761761 
L 103.790809 -33.761761 
L 103.313215 -33.761761 
L 102.835622 -33.761761 
L 102.358028 -33.761761 
L 101.880435 -33.761761 
L 101.402841 -33.761761 
L 100.925247 -33.761761 
L 100.447654 -33.761761 
L 99.97006 -33.761761 
L 99.492467 -33.761761 
L 99.014873 -33.761761 
L 98.53728 -33.761761 
L 98.059686 -33.761761 
L 97.582093 -33.761761 
L 97.104499 -33.761761 
L 96.626906 -33.761761 
L 96.149312 -33.761761 
L 95.671719 -33.761761 
L 95.194125 -33.761761 
L 94.716532 -33.761761 
L 94.238938 -33.761761 
L 93.761345 -33.761761 
L 93.283751 -33.761761 
L 92.806158 -33.761761 
L 92.328564 -33.761761 
L 91.850971 -33.761761 
L 91.373377 -33.761761 
L 90.895784 -33.761761 
L 90.41819 -33.761761 
L 89.940597 -33.761761 
L 89.463003 -33.761761 
L 88.98541 -33.761761 
L 88.507816 -33.761761 
L 88.030223 -33.761761 
L 87.552629 -33.761761 
L 87.075036 -33.761761 
L 86.597442 -33.761761 
L 86.119849 -33.761761 
L 85.642255 -33.761761 
L 85.164662 -33.761761 
L 84.687068 -33.761761 
L 84.209475 -33.761761 
L 83.731881 -33.761761 
L 83.254288 -33.761761 
L 82.776694 -33.761761 
L 82.299101 -33.761761 
L 81.821507 -33.761761 
L 81.343914 -33.761761 
L 80.86632 -33.761761 
L 80.388727 -33.761761 
L 79.911133 -33.761761 
L 79.43354 -33.761761 
L 78.955946 -33.761761 
L 78.478353 -33.761761 
L 78.000759 -33.761761 
L 77.523166 -33.761761 
L 77.045572 -33.761761 
L 76.567979 -33.761761 
L 76.090385 -33.761761 
L 75.612792 -33.761761 
L 75.135198 -33.761761 
L 74.657605 -33.761761 
L 74.180011 -33.761761 
L 73.702418 -33.761761 
L 73.224824 -33.761761 
L 72.747231 -33.761761 
L 72.269637 -33.761761 
L 71.792044 -33.761761 
L 71.31445 -33.761761 
L 70.836857 -33.761761 
L 70.359263 -33.761761 
L 69.88167 -33.761761 
L 69.404076 -33.761761 
L 68.926483 -33.761761 
L 68.448889 -33.761761 
L 67.971296 -33.761761 
L 67.493702 -33.761761 
L 67.016108 -33.761761 
L 66.538515 -33.761761 
L 66.060921 -33.761761 
L 65.583328 -33.761761 
L 65.105734 -33.761761 
L 64.628141 -33.761761 
L 64.150547 -33.761761 
L 63.672954 -33.761761 
L 63.19536 -33.761761 
L 62.717767 -33.761761 
L 62.240173 -33.761761 
L 61.76258 -33.761761 
L 61.284986 -33.761761 
L 60.807393 -33.761761 
L 60.329799 -33.761761 
L 59.852206 -33.761761 
L 59.374612 -33.761761 
L 58.897019 -33.761761 
L 58.419425 -33.761761 
L 57.941832 -33.761761 
L 57.464238 -33.761761 
L 56.986645 -33.761761 
L 56.509051 -33.761761 
L 56.031458 -33.761761 
L 55.553864 -33.761761 
L 55.076271 -33.761761 
L 54.598677 -33.761761 
L 54.121084 -33.761761 
L 53.64349 -33.761761 
L 53.165897 -33.761761 
L 52.688303 -33.761761 
L 52.21071 -33.761761 
L 51.733116 -33.761761 
L 51.255523 -33.761761 
L 50.777929 -33.761761 
L 50.300336 -33.761761 
z
" id="m44d4d65bf9" style="stroke:#1d6996;stroke-opacity:0.7;"/>
    </defs>
    <g clip-path="url(#pda47f870c5)">
     <use style="fill:#1d6996;fill-opacity:0.7;stroke:#1d6996;stroke-opacity:0.7;" x="0" xlink:href="#m44d4d65bf9" y="252.018125"/>
    </g>
   </g>
   <g id="line2d_15">
    <path clip-path="url(#pda47f870c5)" d="M 50.300336 216.060307 
L 54.001931 215.12766 
L 56.778127 214.21504 
L 59.554323 213.078608 
L 62.330519 211.676483 
L 65.106715 209.962571 
L 67.882911 207.887124 
L 69.733709 206.276772 
L 71.584506 204.466398 
L 73.435304 202.439862 
L 75.286101 200.181139 
L 77.136898 197.674577 
L 78.987696 194.905202 
L 80.838493 191.859035 
L 83.614689 186.74363 
L 86.390886 180.942448 
L 89.167082 174.432142 
L 91.943278 167.203954 
L 94.719474 159.266563 
L 97.49567 150.64865 
L 100.271866 141.400993 
L 103.973461 128.223153 
L 108.600455 110.743606 
L 119.705239 68.197355 
L 122.481435 58.444432 
L 125.257631 49.439831 
L 128.033828 41.376092 
L 129.884625 36.61214 
L 131.735422 32.394687 
L 133.58622 28.76729 
L 135.437017 25.767965 
L 137.287815 23.428525 
L 138.213213 22.514368 
L 139.138612 21.774021 
L 140.064011 21.209485 
L 140.98941 20.822289 
L 141.914808 20.613484 
L 142.840207 20.583636 
L 143.765606 20.732828 
L 144.691004 21.060653 
L 145.616403 21.566222 
L 146.541802 22.248165 
L 147.4672 23.104637 
L 148.392599 24.133327 
L 150.243397 26.695856 
L 152.094194 29.908392 
L 153.944991 33.736987 
L 155.795789 38.141698 
L 157.646586 43.077286 
L 160.422782 51.366159 
L 163.198979 60.554035 
L 166.900573 73.865735 
L 171.527567 91.546114 
L 179.856155 123.651559 
L 183.55775 137.107348 
L 187.259345 149.651079 
L 190.035541 158.341892 
L 192.811737 166.356701 
L 195.587934 173.664463 
L 198.36413 180.254396 
L 201.140326 186.133458 
L 203.916522 191.323521 
L 206.692718 195.858416 
L 209.468914 199.781004 
L 211.319712 202.079962 
L 214.095908 205.093077 
L 216.872104 207.631939 
L 219.6483 209.75076 
L 222.424496 211.502326 
L 225.200692 212.936745 
L 227.976888 214.10055 
L 230.753085 215.036108 
L 234.454679 215.993314 
L 238.156274 216.688884 
L 242.783268 217.285891 
L 248.33566 217.726534 
L 254.813451 218.005419 
L 264.992837 218.185471 
L 285.351609 218.252292 
L 326.994551 218.256361 
L 326.994551 218.256361 
" style="fill:none;stroke:#909090;stroke-linecap:round;stroke-width:1.5;"/>
   </g>
   <g id="line2d_16">
    <path clip-path="url(#pda47f870c5)" d="M 50.300336 204.879643 
L 54.927329 202.750996 
L 59.554323 200.385103 
L 64.181316 197.774519 
L 68.80831 194.915139 
L 73.435304 191.806773 
L 78.062297 188.453706 
L 83.614689 184.120414 
L 89.167082 179.474592 
L 94.719474 174.554301 
L 101.197265 168.534653 
L 110.451252 159.609125 
L 123.406834 147.118084 
L 129.884625 141.201335 
L 135.437017 136.465396 
L 140.064011 132.830947 
L 143.765606 130.167332 
L 147.4672 127.749267 
L 151.168795 125.601228 
L 154.87039 123.74535 
L 158.571985 122.201047 
L 161.348181 121.257252 
L 164.124377 120.503663 
L 166.900573 119.944838 
L 169.67677 119.584174 
L 172.452966 119.423869 
L 175.229162 119.464902 
L 178.005358 119.707023 
L 180.781554 120.148753 
L 183.55775 120.787403 
L 186.333946 121.619098 
L 189.110143 122.638817 
L 192.811737 124.280207 
L 196.513332 126.227549 
L 200.214927 128.460559 
L 203.916522 130.956348 
L 207.618117 133.689803 
L 212.24511 137.399713 
L 216.872104 141.383412 
L 222.424496 146.444419 
L 229.827686 153.504528 
L 249.261059 172.196936 
L 255.73885 178.043315 
L 261.291242 182.774972 
L 266.843634 187.204124 
L 271.470628 190.642238 
L 276.097621 193.838346 
L 280.724615 196.786454 
L 285.351609 199.485218 
L 289.978602 201.93742 
L 294.605596 204.149384 
L 299.232589 206.130386 
L 303.859583 207.892058 
L 308.486576 209.447814 
L 314.038969 211.06361 
L 319.591361 212.430711 
L 325.143753 213.57629 
L 326.994551 213.913578 
L 326.994551 213.913578 
" style="fill:none;stroke:#909090;stroke-linecap:round;stroke-width:1.5;"/>
   </g>
   <g id="patch_3">
    <path d="M 36.465625 228.14 
L 36.465625 10.7 
" style="fill:none;stroke:#262626;stroke-linecap:square;stroke-linejoin:miter;stroke-width:0.8;"/>
   </g>
   <g id="patch_4">
    <path d="M 36.465625 228.14 
L 340.829261 228.14 
" style="fill:none;stroke:#262626;stroke-linecap:square;stroke-linejoin:miter;stroke-width:0.8;"/>
   </g>
   <g id="text_15">
    <!-- $\alpha = 0.05$ -->
    <defs>
     <path d="M 40.921875 25.4375 
L 40.96875 36.71875 
Q 41.015625 48.25 32.328125 48.296875 
Q 25.828125 48.34375 21.78125 42.921875 
Q 16.703125 36.234375 14.984375 27.296875 
Q 12.890625 16.546875 15.53125 11.421875 
Q 18.265625 6.203125 24.171875 6.203125 
Q 30.71875 6.203125 36.234375 16.609375 
z
M 33.84375 55.90625 
Q 49.078125 56.15625 48.875 40.375 
Q 48.875 40.375 56.5 54.6875 
L 64.5 54.6875 
L 48.734375 25.046875 
L 48.578125 14.359375 
Q 48.578125 11.96875 49.90625 9.96875 
Q 51.421875 7.625 52.984375 7.625 
L 57.328125 7.625 
L 55.859375 0 
L 50.4375 0 
Q 45.84375 0 42.53125 4.109375 
Q 40.96875 6.15625 40.921875 10.453125 
Q 37.75 5.21875 32.28125 0.78125 
Q 29.6875 -1.265625 22.703125 -1.21875 
Q 11.28125 -1.125 7.125 6.203125 
Q 2.875 13.8125 5.515625 27.296875 
Q 8.34375 41.796875 15.765625 48.390625 
Q 24.125 55.765625 33.84375 55.90625 
z
" id="DejaVuSans-Oblique-945"/>
     <path d="M 10.59375 45.40625 
L 73.1875 45.40625 
L 73.1875 37.203125 
L 10.59375 37.203125 
z
M 10.59375 25.484375 
L 73.1875 25.484375 
L 73.1875 17.1875 
L 10.59375 17.1875 
z
" id="DejaVuSans-61"/>
    </defs>
    <g style="fill:#cc503e;" transform="translate(234.763146 44.825418)scale(0.16 -0.16)">
     <use transform="translate(0 0.78125)" xlink:href="#DejaVuSans-Oblique-945"/>
     <use transform="translate(85.400391 0.78125)" xlink:href="#DejaVuSans-61"/>
     <use transform="translate(188.671875 0.78125)" xlink:href="#DejaVuSans-48"/>
     <use transform="translate(252.294922 0.78125)" xlink:href="#DejaVuSans-46"/>
     <use transform="translate(284.082031 0.78125)" xlink:href="#DejaVuSans-48"/>
     <use transform="translate(347.705078 0.78125)" xlink:href="#DejaVuSans-53"/>
    </g>
   </g>
   <g id="text_16">
    <!-- $\beta = $0.63 -->
    <defs>
     <path d="M 13.625 3.375 
L 8.9375 -20.796875 
L -0.09375 -20.796875 
L 14.5 54.34375 
Q 18.84375 76.609375 39.65625 76.609375 
Q 60.75 76.609375 57.171875 57.8125 
Q 54.734375 44.4375 45.21875 39.546875 
Q 58.015625 35.15625 55.515625 22.125 
Q 51.125 -1.078125 27.484375 -1.03125 
Q 17.140625 -0.984375 13.625 3.375 
z
M 15.921875 15.09375 
Q 19.671875 6.59375 29.296875 6.640625 
Q 43.359375 6.640625 46.34375 21.96875 
Q 49.03125 35.75 26.171875 34.671875 
L 27.78125 42.96875 
Q 45.453125 42.671875 48.53125 58.59375 
Q 50.640625 69.34375 39.203125 69.28125 
Q 26.421875 69.28125 23.484375 54.046875 
z
" id="DejaVuSans-Oblique-946"/>
    </defs>
    <g style="fill:#1d6996;" transform="translate(234.763146 64.646097)scale(0.16 -0.16)">
     <use transform="translate(0 0.390625)" xlink:href="#DejaVuSans-Oblique-946"/>
     <use transform="translate(83.300781 0.390625)" xlink:href="#DejaVuSans-61"/>
     <use transform="translate(186.572266 0.390625)" xlink:href="#DejaVuSans-48"/>
     <use transform="translate(250.195312 0.390625)" xlink:href="#DejaVuSans-46"/>
     <use transform="translate(281.982422 0.390625)" xlink:href="#DejaVuSans-54"/>
     <use transform="translate(345.605469 0.390625)" xlink:href="#DejaVuSans-51"/>
    </g>
   </g>
   <g id="text_17">
    <!-- $1 - \beta = $0.37 -->
    <defs>
     <path d="M 8.203125 72.90625 
L 55.078125 72.90625 
L 55.078125 68.703125 
L 28.609375 0 
L 18.3125 0 
L 43.21875 64.59375 
L 8.203125 64.59375 
z
" id="DejaVuSans-55"/>
    </defs>
    <g style="fill:#994e95;" transform="translate(234.763146 84.466777)scale(0.16 -0.16)">
     <use transform="translate(0 0.390625)" xlink:href="#DejaVuSans-49"/>
     <use transform="translate(83.105469 0.390625)" xlink:href="#DejaVuSans-8722"/>
     <use transform="translate(186.376953 0.390625)" xlink:href="#DejaVuSans-Oblique-946"/>
     <use transform="translate(269.677734 0.390625)" xlink:href="#DejaVuSans-61"/>
     <use transform="translate(372.949219 0.390625)" xlink:href="#DejaVuSans-48"/>
     <use transform="translate(436.572266 0.390625)" xlink:href="#DejaVuSans-46"/>
     <use transform="translate(468.359375 0.390625)" xlink:href="#DejaVuSans-51"/>
     <use transform="translate(531.982422 0.390625)" xlink:href="#DejaVuSans-55"/>
    </g>
   </g>
  </g>
  <g id="axes_2">
   <g id="patch_5">
    <path d="M 401.701989 228.14 
L 706.065625 228.14 
L 706.065625 10.7 
L 401.701989 10.7 
z
" style="fill:none;"/>
   </g>
   <g id="matplotlib.axis_3">
    <g id="xtick_6">
     <g id="line2d_17">
      <g>
       <use style="fill:#262626;stroke:#262626;stroke-width:0.8;" x="446.280501" xlink:href="#mf5f29114b5" y="228.14"/>
      </g>
     </g>
     <g id="text_18">
      <!-- −2 -->
      <g style="fill:#262626;" transform="translate(438.909407 242.738437)scale(0.1 -0.1)">
       <use xlink:href="#DejaVuSans-8722"/>
       <use x="83.789062" xlink:href="#DejaVuSans-50"/>
      </g>
     </g>
    </g>
    <g id="xtick_7">
     <g id="line2d_18">
      <g>
       <use style="fill:#262626;stroke:#262626;stroke-width:0.8;" x="507.768104" xlink:href="#mf5f29114b5" y="228.14"/>
      </g>
     </g>
     <g id="text_19">
      <!-- 0 -->
      <g style="fill:#262626;" transform="translate(504.586854 242.738437)scale(0.1 -0.1)">
       <use xlink:href="#DejaVuSans-48"/>
      </g>
     </g>
    </g>
    <g id="xtick_8">
     <g id="line2d_19">
      <g>
       <use style="fill:#262626;stroke:#262626;stroke-width:0.8;" x="569.255708" xlink:href="#mf5f29114b5" y="228.14"/>
      </g>
     </g>
     <g id="text_20">
      <!-- 2 -->
      <g style="fill:#262626;" transform="translate(566.074458 242.738437)scale(0.1 -0.1)">
       <use xlink:href="#DejaVuSans-50"/>
      </g>
     </g>
    </g>
    <g id="xtick_9">
     <g id="line2d_20">
      <g>
       <use style="fill:#262626;stroke:#262626;stroke-width:0.8;" x="630.743311" xlink:href="#mf5f29114b5" y="228.14"/>
      </g>
     </g>
     <g id="text_21">
      <!-- 4 -->
      <g style="fill:#262626;" transform="translate(627.562061 242.738437)scale(0.1 -0.1)">
       <use xlink:href="#DejaVuSans-52"/>
      </g>
     </g>
    </g>
    <g id="xtick_10">
     <g id="line2d_21">
      <g>
       <use style="fill:#262626;stroke:#262626;stroke-width:0.8;" x="692.230914" xlink:href="#mf5f29114b5" y="228.14"/>
      </g>
     </g>
     <g id="text_22">
      <!-- 6 -->
      <g style="fill:#262626;" transform="translate(689.049664 242.738437)scale(0.1 -0.1)">
       <use xlink:href="#DejaVuSans-54"/>
      </g>
     </g>
    </g>
   </g>
   <g id="matplotlib.axis_4">
    <g id="ytick_10">
     <g id="line2d_22">
      <g>
       <use style="fill:#262626;stroke:#262626;stroke-width:0.8;" x="401.701989" xlink:href="#mcee0044e80" y="218.256364"/>
      </g>
     </g>
     <g id="text_23">
      <!-- 0.00 -->
      <g style="fill:#262626;" transform="translate(372.436364 222.055582)scale(0.1 -0.1)">
       <use xlink:href="#DejaVuSans-48"/>
       <use x="63.623047" xlink:href="#DejaVuSans-46"/>
       <use x="95.410156" xlink:href="#DejaVuSans-48"/>
       <use x="159.033203" xlink:href="#DejaVuSans-48"/>
      </g>
     </g>
    </g>
    <g id="ytick_11">
     <g id="line2d_23">
      <g>
       <use style="fill:#262626;stroke:#262626;stroke-width:0.8;" x="401.701989" xlink:href="#mcee0044e80" y="193.481446"/>
      </g>
     </g>
     <g id="text_24">
      <!-- 0.05 -->
      <g style="fill:#262626;" transform="translate(372.436364 197.280665)scale(0.1 -0.1)">
       <use xlink:href="#DejaVuSans-48"/>
       <use x="63.623047" xlink:href="#DejaVuSans-46"/>
       <use x="95.410156" xlink:href="#DejaVuSans-48"/>
       <use x="159.033203" xlink:href="#DejaVuSans-53"/>
      </g>
     </g>
    </g>
    <g id="ytick_12">
     <g id="line2d_24">
      <g>
       <use style="fill:#262626;stroke:#262626;stroke-width:0.8;" x="401.701989" xlink:href="#mcee0044e80" y="168.706529"/>
      </g>
     </g>
     <g id="text_25">
      <!-- 0.10 -->
      <g style="fill:#262626;" transform="translate(372.436364 172.505748)scale(0.1 -0.1)">
       <use xlink:href="#DejaVuSans-48"/>
       <use x="63.623047" xlink:href="#DejaVuSans-46"/>
       <use x="95.410156" xlink:href="#DejaVuSans-49"/>
       <use x="159.033203" xlink:href="#DejaVuSans-48"/>
      </g>
     </g>
    </g>
    <g id="ytick_13">
     <g id="line2d_25">
      <g>
       <use style="fill:#262626;stroke:#262626;stroke-width:0.8;" x="401.701989" xlink:href="#mcee0044e80" y="143.931612"/>
      </g>
     </g>
     <g id="text_26">
      <!-- 0.15 -->
      <g style="fill:#262626;" transform="translate(372.436364 147.730831)scale(0.1 -0.1)">
       <use xlink:href="#DejaVuSans-48"/>
       <use x="63.623047" xlink:href="#DejaVuSans-46"/>
       <use x="95.410156" xlink:href="#DejaVuSans-49"/>
       <use x="159.033203" xlink:href="#DejaVuSans-53"/>
      </g>
     </g>
    </g>
    <g id="ytick_14">
     <g id="line2d_26">
      <g>
       <use style="fill:#262626;stroke:#262626;stroke-width:0.8;" x="401.701989" xlink:href="#mcee0044e80" y="119.156695"/>
      </g>
     </g>
     <g id="text_27">
      <!-- 0.20 -->
      <g style="fill:#262626;" transform="translate(372.436364 122.955913)scale(0.1 -0.1)">
       <use xlink:href="#DejaVuSans-48"/>
       <use x="63.623047" xlink:href="#DejaVuSans-46"/>
       <use x="95.410156" xlink:href="#DejaVuSans-50"/>
       <use x="159.033203" xlink:href="#DejaVuSans-48"/>
      </g>
     </g>
    </g>
    <g id="ytick_15">
     <g id="line2d_27">
      <g>
       <use style="fill:#262626;stroke:#262626;stroke-width:0.8;" x="401.701989" xlink:href="#mcee0044e80" y="94.381777"/>
      </g>
     </g>
     <g id="text_28">
      <!-- 0.25 -->
      <g style="fill:#262626;" transform="translate(372.436364 98.180996)scale(0.1 -0.1)">
       <use xlink:href="#DejaVuSans-48"/>
       <use x="63.623047" xlink:href="#DejaVuSans-46"/>
       <use x="95.410156" xlink:href="#DejaVuSans-50"/>
       <use x="159.033203" xlink:href="#DejaVuSans-53"/>
      </g>
     </g>
    </g>
    <g id="ytick_16">
     <g id="line2d_28">
      <g>
       <use style="fill:#262626;stroke:#262626;stroke-width:0.8;" x="401.701989" xlink:href="#mcee0044e80" y="69.60686"/>
      </g>
     </g>
     <g id="text_29">
      <!-- 0.30 -->
      <g style="fill:#262626;" transform="translate(372.436364 73.406079)scale(0.1 -0.1)">
       <use xlink:href="#DejaVuSans-48"/>
       <use x="63.623047" xlink:href="#DejaVuSans-46"/>
       <use x="95.410156" xlink:href="#DejaVuSans-51"/>
       <use x="159.033203" xlink:href="#DejaVuSans-48"/>
      </g>
     </g>
    </g>
    <g id="ytick_17">
     <g id="line2d_29">
      <g>
       <use style="fill:#262626;stroke:#262626;stroke-width:0.8;" x="401.701989" xlink:href="#mcee0044e80" y="44.831943"/>
      </g>
     </g>
     <g id="text_30">
      <!-- 0.35 -->
      <g style="fill:#262626;" transform="translate(372.436364 48.631161)scale(0.1 -0.1)">
       <use xlink:href="#DejaVuSans-48"/>
       <use x="63.623047" xlink:href="#DejaVuSans-46"/>
       <use x="95.410156" xlink:href="#DejaVuSans-51"/>
       <use x="159.033203" xlink:href="#DejaVuSans-53"/>
      </g>
     </g>
    </g>
    <g id="ytick_18">
     <g id="line2d_30">
      <g>
       <use style="fill:#262626;stroke:#262626;stroke-width:0.8;" x="401.701989" xlink:href="#mcee0044e80" y="20.057025"/>
      </g>
     </g>
     <g id="text_31">
      <!-- 0.40 -->
      <g style="fill:#262626;" transform="translate(372.436364 23.856244)scale(0.1 -0.1)">
       <use xlink:href="#DejaVuSans-48"/>
       <use x="63.623047" xlink:href="#DejaVuSans-46"/>
       <use x="95.410156" xlink:href="#DejaVuSans-52"/>
       <use x="159.033203" xlink:href="#DejaVuSans-48"/>
      </g>
     </g>
    </g>
   </g>
   <g id="PolyCollection_3">
    <defs>
     <path d="M 558.337158 -33.761761 
L 558.337158 -84.865301 
L 558.784963 -83.650197 
L 559.232768 -82.453653 
L 559.680574 -81.275726 
L 560.128379 -80.11646 
L 560.576184 -78.975884 
L 561.023989 -77.854016 
L 561.471794 -76.750864 
L 561.9196 -75.666419 
L 562.367405 -74.600666 
L 562.81521 -73.553575 
L 563.263015 -72.525106 
L 563.71082 -71.515208 
L 564.158626 -70.523821 
L 564.606431 -69.550873 
L 565.054236 -68.596284 
L 565.502041 -67.659964 
L 565.949846 -66.741814 
L 566.397652 -65.841725 
L 566.845457 -64.959582 
L 567.293262 -64.09526 
L 567.741067 -63.248627 
L 568.188873 -62.419544 
L 568.636678 -61.607863 
L 569.084483 -60.813433 
L 569.532288 -60.036091 
L 569.980093 -59.275674 
L 570.427899 -58.532008 
L 570.875704 -57.804916 
L 571.323509 -57.094217 
L 571.771314 -56.399722 
L 572.219119 -55.721239 
L 572.666925 -55.058572 
L 573.11473 -54.411521 
L 573.562535 -53.779882 
L 574.01034 -53.163446 
L 574.458145 -52.562004 
L 574.905951 -51.975342 
L 575.353756 -51.403243 
L 575.801561 -50.845489 
L 576.249366 -50.30186 
L 576.697171 -49.772133 
L 577.144977 -49.256084 
L 577.592782 -48.753487 
L 578.040587 -48.264116 
L 578.488392 -47.787743 
L 578.936197 -47.32414 
L 579.384003 -46.873079 
L 579.831808 -46.434331 
L 580.279613 -46.007666 
L 580.727418 -45.592856 
L 581.175223 -45.189672 
L 581.623029 -44.797886 
L 582.070834 -44.417271 
L 582.518639 -44.047601 
L 582.966444 -43.688649 
L 583.414249 -43.340191 
L 583.862055 -43.002004 
L 584.30986 -42.673867 
L 584.757665 -42.355559 
L 585.20547 -42.046861 
L 585.653275 -41.747558 
L 586.101081 -41.457435 
L 586.548886 -41.176279 
L 586.996691 -40.903879 
L 587.444496 -40.640027 
L 587.892302 -40.384517 
L 588.340107 -40.137146 
L 588.787912 -39.897713 
L 589.235717 -39.66602 
L 589.683522 -39.44187 
L 590.131328 -39.22507 
L 590.579133 -39.01543 
L 591.026938 -38.812763 
L 591.474743 -38.616884 
L 591.922548 -38.427612 
L 592.370354 -38.244766 
L 592.818159 -38.068172 
L 593.265964 -37.897658 
L 593.713769 -37.733052 
L 594.161574 -37.574188 
L 594.60938 -37.420903 
L 595.057185 -37.273036 
L 595.50499 -37.130429 
L 595.952795 -36.992929 
L 596.4006 -36.860384 
L 596.848406 -36.732645 
L 597.296211 -36.609568 
L 597.744016 -36.491011 
L 598.191821 -36.376835 
L 598.639626 -36.266903 
L 599.087432 -36.161084 
L 599.535237 -36.059247 
L 599.983042 -35.961266 
L 600.430847 -35.867017 
L 600.878652 -35.776379 
L 601.326458 -35.689234 
L 601.774263 -35.605467 
L 602.222068 -35.524967 
L 602.669873 -35.447624 
L 603.117678 -35.373332 
L 603.565484 -35.301986 
L 604.013289 -35.233487 
L 604.461094 -35.167736 
L 604.908899 -35.104638 
L 605.356705 -35.044099 
L 605.80451 -34.98603 
L 606.252315 -34.930342 
L 606.70012 -34.876951 
L 607.147925 -34.825773 
L 607.595731 -34.776729 
L 608.043536 -34.72974 
L 608.491341 -34.68473 
L 608.939146 -34.641627 
L 609.386951 -34.600359 
L 609.834757 -34.560856 
L 610.282562 -34.523053 
L 610.730367 -34.486885 
L 611.178172 -34.452288 
L 611.625977 -34.419202 
L 612.073783 -34.387569 
L 612.521588 -34.357332 
L 612.969393 -34.328435 
L 613.417198 -34.300826 
L 613.865003 -34.274454 
L 614.312809 -34.249268 
L 614.760614 -34.225221 
L 615.208419 -34.202267 
L 615.656224 -34.18036 
L 616.104029 -34.159459 
L 616.551835 -34.139521 
L 616.99964 -34.120507 
L 617.447445 -34.102378 
L 617.89525 -34.085096 
L 618.343055 -34.068625 
L 618.790861 -34.052932 
L 619.238666 -34.037983 
L 619.686471 -34.023746 
L 620.134276 -34.01019 
L 620.582081 -33.997286 
L 621.029887 -33.985004 
L 621.477692 -33.973318 
L 621.925497 -33.962201 
L 622.373302 -33.951628 
L 622.821107 -33.941575 
L 623.268913 -33.932017 
L 623.716718 -33.922934 
L 624.164523 -33.914303 
L 624.612328 -33.906103 
L 625.060134 -33.898315 
L 625.507939 -33.89092 
L 625.955744 -33.8839 
L 626.403549 -33.877236 
L 626.851354 -33.870913 
L 627.29916 -33.864915 
L 627.746965 -33.859225 
L 628.19477 -33.85383 
L 628.642575 -33.848714 
L 629.09038 -33.843866 
L 629.538186 -33.839271 
L 629.985991 -33.834919 
L 630.433796 -33.830795 
L 630.881601 -33.826891 
L 631.329406 -33.823194 
L 631.777212 -33.819695 
L 632.225017 -33.816383 
L 632.672822 -33.81325 
L 633.120627 -33.810287 
L 633.568432 -33.807484 
L 634.016238 -33.804834 
L 634.464043 -33.802329 
L 634.911848 -33.799961 
L 635.359653 -33.797724 
L 635.807458 -33.795611 
L 636.255264 -33.793615 
L 636.703069 -33.791731 
L 637.150874 -33.789952 
L 637.598679 -33.788273 
L 638.046484 -33.786689 
L 638.49429 -33.785194 
L 638.942095 -33.783785 
L 639.3899 -33.782455 
L 639.837705 -33.781202 
L 640.28551 -33.780021 
L 640.733316 -33.778908 
L 641.181121 -33.77786 
L 641.628926 -33.776872 
L 642.076731 -33.775942 
L 642.524537 -33.775066 
L 642.972342 -33.774242 
L 643.420147 -33.773466 
L 643.867952 -33.772737 
L 644.315757 -33.77205 
L 644.763563 -33.771405 
L 645.211368 -33.770798 
L 645.659173 -33.770227 
L 646.106978 -33.769691 
L 646.554783 -33.769187 
L 647.002589 -33.768714 
L 647.450394 -33.768269 
L 647.898199 -33.767852 
L 648.346004 -33.76746 
L 648.793809 -33.767092 
L 649.241615 -33.766747 
L 649.68942 -33.766423 
L 650.137225 -33.76612 
L 650.58503 -33.765835 
L 651.032835 -33.765568 
L 651.480641 -33.765318 
L 651.928446 -33.765084 
L 652.376251 -33.764864 
L 652.824056 -33.764658 
L 653.271861 -33.764465 
L 653.719667 -33.764285 
L 654.167472 -33.764116 
L 654.615277 -33.763958 
L 655.063082 -33.76381 
L 655.510887 -33.763672 
L 655.958693 -33.763543 
L 656.406498 -33.763422 
L 656.854303 -33.763309 
L 657.302108 -33.763203 
L 657.749913 -33.763104 
L 658.197719 -33.763012 
L 658.645524 -33.762926 
L 659.093329 -33.762845 
L 659.541134 -33.76277 
L 659.98894 -33.7627 
L 660.436745 -33.762635 
L 660.88455 -33.762574 
L 661.332355 -33.762517 
L 661.78016 -33.762464 
L 662.227966 -33.762414 
L 662.675771 -33.762368 
L 663.123576 -33.762325 
L 663.571381 -33.762285 
L 664.019186 -33.762248 
L 664.466992 -33.762213 
L 664.914797 -33.762181 
L 665.362602 -33.76215 
L 665.810407 -33.762122 
L 666.258212 -33.762096 
L 666.706018 -33.762072 
L 667.153823 -33.76205 
L 667.601628 -33.762029 
L 668.049433 -33.762009 
L 668.497238 -33.761991 
L 668.945044 -33.761974 
L 669.392849 -33.761958 
L 669.840654 -33.761944 
L 670.288459 -33.76193 
L 670.736264 -33.761918 
L 671.18407 -33.761906 
L 671.631875 -33.761895 
L 672.07968 -33.761885 
L 672.527485 -33.761876 
L 672.97529 -33.761867 
L 673.423096 -33.761859 
L 673.870901 -33.761852 
L 674.318706 -33.761845 
L 674.766511 -33.761839 
L 675.214316 -33.761833 
L 675.662122 -33.761827 
L 676.109927 -33.761822 
L 676.557732 -33.761818 
L 677.005537 -33.761813 
L 677.453342 -33.761809 
L 677.901148 -33.761806 
L 678.348953 -33.761802 
L 678.796758 -33.761799 
L 679.244563 -33.761796 
L 679.692369 -33.761793 
L 680.140174 -33.761791 
L 680.587979 -33.761789 
L 681.035784 -33.761786 
L 681.483589 -33.761784 
L 681.931395 -33.761783 
L 682.3792 -33.761781 
L 682.827005 -33.761779 
L 683.27481 -33.761778 
L 683.722615 -33.761777 
L 684.170421 -33.761775 
L 684.618226 -33.761774 
L 685.066031 -33.761773 
L 685.513836 -33.761772 
L 685.961641 -33.761771 
L 686.409447 -33.761771 
L 686.857252 -33.76177 
L 687.305057 -33.761769 
L 687.752862 -33.761769 
L 688.200667 -33.761768 
L 688.648473 -33.761767 
L 689.096278 -33.761767 
L 689.544083 -33.761766 
L 689.991888 -33.761766 
L 690.439693 -33.761766 
L 690.887499 -33.761765 
L 691.335304 -33.761765 
L 691.783109 -33.761765 
L 692.230914 -33.761764 
L 692.230914 -33.761761 
L 692.230914 -33.761761 
L 691.783109 -33.761761 
L 691.335304 -33.761761 
L 690.887499 -33.761761 
L 690.439693 -33.761761 
L 689.991888 -33.761761 
L 689.544083 -33.761761 
L 689.096278 -33.761761 
L 688.648473 -33.761761 
L 688.200667 -33.761761 
L 687.752862 -33.761761 
L 687.305057 -33.761761 
L 686.857252 -33.761761 
L 686.409447 -33.761761 
L 685.961641 -33.761761 
L 685.513836 -33.761761 
L 685.066031 -33.761761 
L 684.618226 -33.761761 
L 684.170421 -33.761761 
L 683.722615 -33.761761 
L 683.27481 -33.761761 
L 682.827005 -33.761761 
L 682.3792 -33.761761 
L 681.931395 -33.761761 
L 681.483589 -33.761761 
L 681.035784 -33.761761 
L 680.587979 -33.761761 
L 680.140174 -33.761761 
L 679.692369 -33.761761 
L 679.244563 -33.761761 
L 678.796758 -33.761761 
L 678.348953 -33.761761 
L 677.901148 -33.761761 
L 677.453342 -33.761761 
L 677.005537 -33.761761 
L 676.557732 -33.761761 
L 676.109927 -33.761761 
L 675.662122 -33.761761 
L 675.214316 -33.761761 
L 674.766511 -33.761761 
L 674.318706 -33.761761 
L 673.870901 -33.761761 
L 673.423096 -33.761761 
L 672.97529 -33.761761 
L 672.527485 -33.761761 
L 672.07968 -33.761761 
L 671.631875 -33.761761 
L 671.18407 -33.761761 
L 670.736264 -33.761761 
L 670.288459 -33.761761 
L 669.840654 -33.761761 
L 669.392849 -33.761761 
L 668.945044 -33.761761 
L 668.497238 -33.761761 
L 668.049433 -33.761761 
L 667.601628 -33.761761 
L 667.153823 -33.761761 
L 666.706018 -33.761761 
L 666.258212 -33.761761 
L 665.810407 -33.761761 
L 665.362602 -33.761761 
L 664.914797 -33.761761 
L 664.466992 -33.761761 
L 664.019186 -33.761761 
L 663.571381 -33.761761 
L 663.123576 -33.761761 
L 662.675771 -33.761761 
L 662.227966 -33.761761 
L 661.78016 -33.761761 
L 661.332355 -33.761761 
L 660.88455 -33.761761 
L 660.436745 -33.761761 
L 659.98894 -33.761761 
L 659.541134 -33.761761 
L 659.093329 -33.761761 
L 658.645524 -33.761761 
L 658.197719 -33.761761 
L 657.749913 -33.761761 
L 657.302108 -33.761761 
L 656.854303 -33.761761 
L 656.406498 -33.761761 
L 655.958693 -33.761761 
L 655.510887 -33.761761 
L 655.063082 -33.761761 
L 654.615277 -33.761761 
L 654.167472 -33.761761 
L 653.719667 -33.761761 
L 653.271861 -33.761761 
L 652.824056 -33.761761 
L 652.376251 -33.761761 
L 651.928446 -33.761761 
L 651.480641 -33.761761 
L 651.032835 -33.761761 
L 650.58503 -33.761761 
L 650.137225 -33.761761 
L 649.68942 -33.761761 
L 649.241615 -33.761761 
L 648.793809 -33.761761 
L 648.346004 -33.761761 
L 647.898199 -33.761761 
L 647.450394 -33.761761 
L 647.002589 -33.761761 
L 646.554783 -33.761761 
L 646.106978 -33.761761 
L 645.659173 -33.761761 
L 645.211368 -33.761761 
L 644.763563 -33.761761 
L 644.315757 -33.761761 
L 643.867952 -33.761761 
L 643.420147 -33.761761 
L 642.972342 -33.761761 
L 642.524537 -33.761761 
L 642.076731 -33.761761 
L 641.628926 -33.761761 
L 641.181121 -33.761761 
L 640.733316 -33.761761 
L 640.28551 -33.761761 
L 639.837705 -33.761761 
L 639.3899 -33.761761 
L 638.942095 -33.761761 
L 638.49429 -33.761761 
L 638.046484 -33.761761 
L 637.598679 -33.761761 
L 637.150874 -33.761761 
L 636.703069 -33.761761 
L 636.255264 -33.761761 
L 635.807458 -33.761761 
L 635.359653 -33.761761 
L 634.911848 -33.761761 
L 634.464043 -33.761761 
L 634.016238 -33.761761 
L 633.568432 -33.761761 
L 633.120627 -33.761761 
L 632.672822 -33.761761 
L 632.225017 -33.761761 
L 631.777212 -33.761761 
L 631.329406 -33.761761 
L 630.881601 -33.761761 
L 630.433796 -33.761761 
L 629.985991 -33.761761 
L 629.538186 -33.761761 
L 629.09038 -33.761761 
L 628.642575 -33.761761 
L 628.19477 -33.761761 
L 627.746965 -33.761761 
L 627.29916 -33.761761 
L 626.851354 -33.761761 
L 626.403549 -33.761761 
L 625.955744 -33.761761 
L 625.507939 -33.761761 
L 625.060134 -33.761761 
L 624.612328 -33.761761 
L 624.164523 -33.761761 
L 623.716718 -33.761761 
L 623.268913 -33.761761 
L 622.821107 -33.761761 
L 622.373302 -33.761761 
L 621.925497 -33.761761 
L 621.477692 -33.761761 
L 621.029887 -33.761761 
L 620.582081 -33.761761 
L 620.134276 -33.761761 
L 619.686471 -33.761761 
L 619.238666 -33.761761 
L 618.790861 -33.761761 
L 618.343055 -33.761761 
L 617.89525 -33.761761 
L 617.447445 -33.761761 
L 616.99964 -33.761761 
L 616.551835 -33.761761 
L 616.104029 -33.761761 
L 615.656224 -33.761761 
L 615.208419 -33.761761 
L 614.760614 -33.761761 
L 614.312809 -33.761761 
L 613.865003 -33.761761 
L 613.417198 -33.761761 
L 612.969393 -33.761761 
L 612.521588 -33.761761 
L 612.073783 -33.761761 
L 611.625977 -33.761761 
L 611.178172 -33.761761 
L 610.730367 -33.761761 
L 610.282562 -33.761761 
L 609.834757 -33.761761 
L 609.386951 -33.761761 
L 608.939146 -33.761761 
L 608.491341 -33.761761 
L 608.043536 -33.761761 
L 607.595731 -33.761761 
L 607.147925 -33.761761 
L 606.70012 -33.761761 
L 606.252315 -33.761761 
L 605.80451 -33.761761 
L 605.356705 -33.761761 
L 604.908899 -33.761761 
L 604.461094 -33.761761 
L 604.013289 -33.761761 
L 603.565484 -33.761761 
L 603.117678 -33.761761 
L 602.669873 -33.761761 
L 602.222068 -33.761761 
L 601.774263 -33.761761 
L 601.326458 -33.761761 
L 600.878652 -33.761761 
L 600.430847 -33.761761 
L 599.983042 -33.761761 
L 599.535237 -33.761761 
L 599.087432 -33.761761 
L 598.639626 -33.761761 
L 598.191821 -33.761761 
L 597.744016 -33.761761 
L 597.296211 -33.761761 
L 596.848406 -33.761761 
L 596.4006 -33.761761 
L 595.952795 -33.761761 
L 595.50499 -33.761761 
L 595.057185 -33.761761 
L 594.60938 -33.761761 
L 594.161574 -33.761761 
L 593.713769 -33.761761 
L 593.265964 -33.761761 
L 592.818159 -33.761761 
L 592.370354 -33.761761 
L 591.922548 -33.761761 
L 591.474743 -33.761761 
L 591.026938 -33.761761 
L 590.579133 -33.761761 
L 590.131328 -33.761761 
L 589.683522 -33.761761 
L 589.235717 -33.761761 
L 588.787912 -33.761761 
L 588.340107 -33.761761 
L 587.892302 -33.761761 
L 587.444496 -33.761761 
L 586.996691 -33.761761 
L 586.548886 -33.761761 
L 586.101081 -33.761761 
L 585.653275 -33.761761 
L 585.20547 -33.761761 
L 584.757665 -33.761761 
L 584.30986 -33.761761 
L 583.862055 -33.761761 
L 583.414249 -33.761761 
L 582.966444 -33.761761 
L 582.518639 -33.761761 
L 582.070834 -33.761761 
L 581.623029 -33.761761 
L 581.175223 -33.761761 
L 580.727418 -33.761761 
L 580.279613 -33.761761 
L 579.831808 -33.761761 
L 579.384003 -33.761761 
L 578.936197 -33.761761 
L 578.488392 -33.761761 
L 578.040587 -33.761761 
L 577.592782 -33.761761 
L 577.144977 -33.761761 
L 576.697171 -33.761761 
L 576.249366 -33.761761 
L 575.801561 -33.761761 
L 575.353756 -33.761761 
L 574.905951 -33.761761 
L 574.458145 -33.761761 
L 574.01034 -33.761761 
L 573.562535 -33.761761 
L 573.11473 -33.761761 
L 572.666925 -33.761761 
L 572.219119 -33.761761 
L 571.771314 -33.761761 
L 571.323509 -33.761761 
L 570.875704 -33.761761 
L 570.427899 -33.761761 
L 569.980093 -33.761761 
L 569.532288 -33.761761 
L 569.084483 -33.761761 
L 568.636678 -33.761761 
L 568.188873 -33.761761 
L 567.741067 -33.761761 
L 567.293262 -33.761761 
L 566.845457 -33.761761 
L 566.397652 -33.761761 
L 565.949846 -33.761761 
L 565.502041 -33.761761 
L 565.054236 -33.761761 
L 564.606431 -33.761761 
L 564.158626 -33.761761 
L 563.71082 -33.761761 
L 563.263015 -33.761761 
L 562.81521 -33.761761 
L 562.367405 -33.761761 
L 561.9196 -33.761761 
L 561.471794 -33.761761 
L 561.023989 -33.761761 
L 560.576184 -33.761761 
L 560.128379 -33.761761 
L 559.680574 -33.761761 
L 559.232768 -33.761761 
L 558.784963 -33.761761 
L 558.337158 -33.761761 
z
" id="ma780da70db" style="stroke:#cc503e;stroke-opacity:0.7;"/>
    </defs>
    <g clip-path="url(#p11856a9f9f)">
     <use style="fill:#cc503e;fill-opacity:0.7;stroke:#cc503e;stroke-opacity:0.7;" x="0" xlink:href="#ma780da70db" y="252.018125"/>
    </g>
   </g>
   <g id="PolyCollection_4">
    <defs>
     <path d="M 415.536699 -33.761761 
L 415.536699 -33.769681 
L 416.014293 -33.770254 
L 416.491886 -33.770865 
L 416.96948 -33.771519 
L 417.447073 -33.772216 
L 417.924667 -33.772961 
L 418.40226 -33.773756 
L 418.879854 -33.774604 
L 419.357447 -33.77551 
L 419.835041 -33.776475 
L 420.312634 -33.777504 
L 420.790228 -33.778601 
L 421.267821 -33.77977 
L 421.745415 -33.781016 
L 422.223008 -33.782343 
L 422.700602 -33.783756 
L 423.178195 -33.785261 
L 423.655789 -33.786862 
L 424.133383 -33.788566 
L 424.610976 -33.790379 
L 425.08857 -33.792307 
L 425.566163 -33.794357 
L 426.043757 -33.796537 
L 426.52135 -33.798853 
L 426.998944 -33.801313 
L 427.476537 -33.803927 
L 427.954131 -33.806703 
L 428.431724 -33.80965 
L 428.909318 -33.812778 
L 429.386911 -33.816097 
L 429.864505 -33.819617 
L 430.342098 -33.823352 
L 430.819692 -33.827311 
L 431.297285 -33.831508 
L 431.774879 -33.835956 
L 432.252472 -33.840669 
L 432.730066 -33.84566 
L 433.207659 -33.850946 
L 433.685253 -33.856542 
L 434.162846 -33.862465 
L 434.64044 -33.868732 
L 435.118033 -33.875362 
L 435.595627 -33.882373 
L 436.07322 -33.889786 
L 436.550814 -33.897623 
L 437.028407 -33.905904 
L 437.506001 -33.914653 
L 437.983594 -33.923893 
L 438.461188 -33.933651 
L 438.938781 -33.943952 
L 439.416375 -33.954824 
L 439.893968 -33.966296 
L 440.371562 -33.978396 
L 440.849155 -33.991157 
L 441.326749 -34.004611 
L 441.804342 -34.018793 
L 442.281936 -34.033736 
L 442.759529 -34.049479 
L 443.237123 -34.06606 
L 443.714716 -34.083519 
L 444.19231 -34.101897 
L 444.669903 -34.121239 
L 445.147497 -34.141588 
L 445.62509 -34.162993 
L 446.102684 -34.185502 
L 446.580277 -34.209165 
L 447.057871 -34.234036 
L 447.535464 -34.260169 
L 448.013058 -34.287621 
L 448.490651 -34.316451 
L 448.968245 -34.346721 
L 449.445838 -34.378494 
L 449.923432 -34.411836 
L 450.401025 -34.446814 
L 450.878619 -34.483501 
L 451.356212 -34.521969 
L 451.833806 -34.562294 
L 452.311399 -34.604555 
L 452.788993 -34.648833 
L 453.266586 -34.695211 
L 453.74418 -34.743778 
L 454.221773 -34.794621 
L 454.699367 -34.847836 
L 455.17696 -34.903516 
L 455.654554 -34.961761 
L 456.132147 -35.022673 
L 456.609741 -35.086358 
L 457.087334 -35.152923 
L 457.564928 -35.222481 
L 458.042522 -35.295146 
L 458.520115 -35.371038 
L 458.997709 -35.450279 
L 459.475302 -35.532993 
L 459.952896 -35.619312 
L 460.430489 -35.709367 
L 460.908083 -35.803295 
L 461.385676 -35.901237 
L 461.86327 -36.003336 
L 462.340863 -36.109741 
L 462.818457 -36.220604 
L 463.29605 -36.336079 
L 463.773644 -36.456328 
L 464.251237 -36.581513 
L 464.728831 -36.711801 
L 465.206424 -36.847365 
L 465.684018 -36.98838 
L 466.161611 -37.135026 
L 466.639205 -37.287485 
L 467.116798 -37.445945 
L 467.594392 -37.610599 
L 468.071985 -37.781641 
L 468.549579 -37.959271 
L 469.027172 -38.143693 
L 469.504766 -38.335113 
L 469.982359 -38.533744 
L 470.459953 -38.7398 
L 470.937546 -38.953501 
L 471.41514 -39.175069 
L 471.892733 -39.404731 
L 472.370327 -39.642717 
L 472.84792 -39.889261 
L 473.325514 -40.144601 
L 473.803107 -40.408976 
L 474.280701 -40.682631 
L 474.758294 -40.965814 
L 475.235888 -41.258774 
L 475.713481 -41.561765 
L 476.191075 -41.875043 
L 476.668668 -42.198868 
L 477.146262 -42.5335 
L 477.623855 -42.879203 
L 478.101449 -43.236245 
L 478.579042 -43.604892 
L 479.056636 -43.985416 
L 479.534229 -44.378089 
L 480.011823 -44.783183 
L 480.489416 -45.200974 
L 480.96701 -45.631737 
L 481.444603 -46.075749 
L 481.922197 -46.533288 
L 482.39979 -47.00463 
L 482.877384 -47.490055 
L 483.354977 -47.989839 
L 483.832571 -48.50426 
L 484.310164 -49.033594 
L 484.787758 -49.578116 
L 485.265351 -50.138101 
L 485.742945 -50.713822 
L 486.220538 -51.305547 
L 486.698132 -51.913547 
L 487.175725 -52.538085 
L 487.653319 -53.179426 
L 488.130912 -53.837827 
L 488.608506 -54.513544 
L 489.086099 -55.206828 
L 489.563693 -55.917926 
L 490.041286 -56.647081 
L 490.51888 -57.394528 
L 490.996473 -58.160498 
L 491.474067 -58.945216 
L 491.951661 -59.7489 
L 492.429254 -60.571762 
L 492.906848 -61.414005 
L 493.384441 -62.275825 
L 493.862035 -63.15741 
L 494.339628 -64.05894 
L 494.817222 -64.980583 
L 495.294815 -65.922501 
L 495.772409 -66.884844 
L 496.250002 -67.867751 
L 496.727596 -68.871351 
L 497.205189 -69.895762 
L 497.682783 -70.94109 
L 498.160376 -72.007427 
L 498.63797 -73.094855 
L 499.115563 -74.203441 
L 499.593157 -75.333238 
L 500.07075 -76.484286 
L 500.548344 -77.656611 
L 501.025937 -78.850222 
L 501.503531 -80.065116 
L 501.981124 -81.30127 
L 502.458718 -82.558649 
L 502.936311 -83.837198 
L 503.413905 -85.136848 
L 503.891498 -86.45751 
L 504.369092 -87.799079 
L 504.846685 -89.161432 
L 505.324279 -90.544428 
L 505.801872 -91.947904 
L 506.279466 -93.371683 
L 506.757059 -94.815566 
L 507.234653 -96.279333 
L 507.712246 -97.762748 
L 508.18984 -99.265551 
L 508.667433 -100.787465 
L 509.145027 -102.32819 
L 509.62262 -103.887406 
L 510.100214 -105.464774 
L 510.577807 -107.059932 
L 511.055401 -108.672496 
L 511.532994 -110.302064 
L 512.010588 -111.94821 
L 512.488181 -113.610488 
L 512.965775 -115.288429 
L 513.443368 -116.981546 
L 513.920962 -118.689327 
L 514.398555 -120.41124 
L 514.876149 -122.146734 
L 515.353742 -123.895234 
L 515.831336 -125.656144 
L 516.308929 -127.42885 
L 516.786523 -129.212716 
L 517.264116 -131.007084 
L 517.74171 -132.811278 
L 518.219303 -134.624602 
L 518.696897 -136.44634 
L 519.17449 -138.275756 
L 519.652084 -140.112096 
L 520.129677 -141.954589 
L 520.607271 -143.802444 
L 521.084864 -145.654853 
L 521.562458 -147.510992 
L 522.040051 -149.370019 
L 522.517645 -151.231076 
L 522.995238 -153.093291 
L 523.472832 -154.955777 
L 523.950425 -156.817633 
L 524.428019 -158.677942 
L 524.905612 -160.535777 
L 525.383206 -162.390198 
L 525.8608 -164.240254 
L 526.338393 -166.084982 
L 526.815987 -167.923411 
L 527.29358 -169.75456 
L 527.771174 -171.577439 
L 528.248767 -173.391053 
L 528.726361 -175.194398 
L 529.203954 -176.986466 
L 529.681548 -178.766243 
L 530.159141 -180.532713 
L 530.636735 -182.284856 
L 531.114328 -184.02165 
L 531.591922 -185.742072 
L 532.069515 -187.445101 
L 532.547109 -189.129715 
L 533.024702 -190.794894 
L 533.502296 -192.439622 
L 533.979889 -194.062888 
L 534.457483 -195.663684 
L 534.935076 -197.24101 
L 535.41267 -198.793871 
L 535.890263 -200.321283 
L 536.367857 -201.822269 
L 536.84545 -203.295865 
L 537.323044 -204.741114 
L 537.800637 -206.157076 
L 538.278231 -207.542821 
L 538.755824 -208.897436 
L 539.233418 -210.220021 
L 539.711011 -211.509694 
L 540.188605 -212.765589 
L 540.666198 -213.986859 
L 541.143792 -215.172678 
L 541.621385 -216.322238 
L 542.098979 -217.434751 
L 542.576572 -218.509455 
L 543.054166 -219.545608 
L 543.531759 -220.542491 
L 544.009353 -221.499412 
L 544.486946 -222.415704 
L 544.96454 -223.290724 
L 545.442133 -224.123858 
L 545.919727 -224.914519 
L 546.39732 -225.662148 
L 546.874914 -226.366216 
L 547.352507 -227.026221 
L 547.830101 -227.641694 
L 548.307694 -228.212197 
L 548.785288 -228.737319 
L 549.262881 -229.216686 
L 549.740475 -229.649954 
L 550.218068 -230.03681 
L 550.695662 -230.376976 
L 551.173255 -230.670207 
L 551.650849 -230.916292 
L 552.128442 -231.115052 
L 552.606036 -231.266344 
L 553.083629 -231.370058 
L 553.561223 -231.42612 
L 554.038816 -231.434489 
L 554.51641 -231.395158 
L 554.994003 -231.308157 
L 555.471597 -231.173548 
L 555.94919 -230.991428 
L 556.426784 -230.76193 
L 556.904377 -230.485219 
L 557.381971 -230.161495 
L 557.859564 -229.790991 
L 558.337158 -229.373974 
L 558.337158 -33.761761 
L 558.337158 -33.761761 
L 557.859564 -33.761761 
L 557.381971 -33.761761 
L 556.904377 -33.761761 
L 556.426784 -33.761761 
L 555.94919 -33.761761 
L 555.471597 -33.761761 
L 554.994003 -33.761761 
L 554.51641 -33.761761 
L 554.038816 -33.761761 
L 553.561223 -33.761761 
L 553.083629 -33.761761 
L 552.606036 -33.761761 
L 552.128442 -33.761761 
L 551.650849 -33.761761 
L 551.173255 -33.761761 
L 550.695662 -33.761761 
L 550.218068 -33.761761 
L 549.740475 -33.761761 
L 549.262881 -33.761761 
L 548.785288 -33.761761 
L 548.307694 -33.761761 
L 547.830101 -33.761761 
L 547.352507 -33.761761 
L 546.874914 -33.761761 
L 546.39732 -33.761761 
L 545.919727 -33.761761 
L 545.442133 -33.761761 
L 544.96454 -33.761761 
L 544.486946 -33.761761 
L 544.009353 -33.761761 
L 543.531759 -33.761761 
L 543.054166 -33.761761 
L 542.576572 -33.761761 
L 542.098979 -33.761761 
L 541.621385 -33.761761 
L 541.143792 -33.761761 
L 540.666198 -33.761761 
L 540.188605 -33.761761 
L 539.711011 -33.761761 
L 539.233418 -33.761761 
L 538.755824 -33.761761 
L 538.278231 -33.761761 
L 537.800637 -33.761761 
L 537.323044 -33.761761 
L 536.84545 -33.761761 
L 536.367857 -33.761761 
L 535.890263 -33.761761 
L 535.41267 -33.761761 
L 534.935076 -33.761761 
L 534.457483 -33.761761 
L 533.979889 -33.761761 
L 533.502296 -33.761761 
L 533.024702 -33.761761 
L 532.547109 -33.761761 
L 532.069515 -33.761761 
L 531.591922 -33.761761 
L 531.114328 -33.761761 
L 530.636735 -33.761761 
L 530.159141 -33.761761 
L 529.681548 -33.761761 
L 529.203954 -33.761761 
L 528.726361 -33.761761 
L 528.248767 -33.761761 
L 527.771174 -33.761761 
L 527.29358 -33.761761 
L 526.815987 -33.761761 
L 526.338393 -33.761761 
L 525.8608 -33.761761 
L 525.383206 -33.761761 
L 524.905612 -33.761761 
L 524.428019 -33.761761 
L 523.950425 -33.761761 
L 523.472832 -33.761761 
L 522.995238 -33.761761 
L 522.517645 -33.761761 
L 522.040051 -33.761761 
L 521.562458 -33.761761 
L 521.084864 -33.761761 
L 520.607271 -33.761761 
L 520.129677 -33.761761 
L 519.652084 -33.761761 
L 519.17449 -33.761761 
L 518.696897 -33.761761 
L 518.219303 -33.761761 
L 517.74171 -33.761761 
L 517.264116 -33.761761 
L 516.786523 -33.761761 
L 516.308929 -33.761761 
L 515.831336 -33.761761 
L 515.353742 -33.761761 
L 514.876149 -33.761761 
L 514.398555 -33.761761 
L 513.920962 -33.761761 
L 513.443368 -33.761761 
L 512.965775 -33.761761 
L 512.488181 -33.761761 
L 512.010588 -33.761761 
L 511.532994 -33.761761 
L 511.055401 -33.761761 
L 510.577807 -33.761761 
L 510.100214 -33.761761 
L 509.62262 -33.761761 
L 509.145027 -33.761761 
L 508.667433 -33.761761 
L 508.18984 -33.761761 
L 507.712246 -33.761761 
L 507.234653 -33.761761 
L 506.757059 -33.761761 
L 506.279466 -33.761761 
L 505.801872 -33.761761 
L 505.324279 -33.761761 
L 504.846685 -33.761761 
L 504.369092 -33.761761 
L 503.891498 -33.761761 
L 503.413905 -33.761761 
L 502.936311 -33.761761 
L 502.458718 -33.761761 
L 501.981124 -33.761761 
L 501.503531 -33.761761 
L 501.025937 -33.761761 
L 500.548344 -33.761761 
L 500.07075 -33.761761 
L 499.593157 -33.761761 
L 499.115563 -33.761761 
L 498.63797 -33.761761 
L 498.160376 -33.761761 
L 497.682783 -33.761761 
L 497.205189 -33.761761 
L 496.727596 -33.761761 
L 496.250002 -33.761761 
L 495.772409 -33.761761 
L 495.294815 -33.761761 
L 494.817222 -33.761761 
L 494.339628 -33.761761 
L 493.862035 -33.761761 
L 493.384441 -33.761761 
L 492.906848 -33.761761 
L 492.429254 -33.761761 
L 491.951661 -33.761761 
L 491.474067 -33.761761 
L 490.996473 -33.761761 
L 490.51888 -33.761761 
L 490.041286 -33.761761 
L 489.563693 -33.761761 
L 489.086099 -33.761761 
L 488.608506 -33.761761 
L 488.130912 -33.761761 
L 487.653319 -33.761761 
L 487.175725 -33.761761 
L 486.698132 -33.761761 
L 486.220538 -33.761761 
L 485.742945 -33.761761 
L 485.265351 -33.761761 
L 484.787758 -33.761761 
L 484.310164 -33.761761 
L 483.832571 -33.761761 
L 483.354977 -33.761761 
L 482.877384 -33.761761 
L 482.39979 -33.761761 
L 481.922197 -33.761761 
L 481.444603 -33.761761 
L 480.96701 -33.761761 
L 480.489416 -33.761761 
L 480.011823 -33.761761 
L 479.534229 -33.761761 
L 479.056636 -33.761761 
L 478.579042 -33.761761 
L 478.101449 -33.761761 
L 477.623855 -33.761761 
L 477.146262 -33.761761 
L 476.668668 -33.761761 
L 476.191075 -33.761761 
L 475.713481 -33.761761 
L 475.235888 -33.761761 
L 474.758294 -33.761761 
L 474.280701 -33.761761 
L 473.803107 -33.761761 
L 473.325514 -33.761761 
L 472.84792 -33.761761 
L 472.370327 -33.761761 
L 471.892733 -33.761761 
L 471.41514 -33.761761 
L 470.937546 -33.761761 
L 470.459953 -33.761761 
L 469.982359 -33.761761 
L 469.504766 -33.761761 
L 469.027172 -33.761761 
L 468.549579 -33.761761 
L 468.071985 -33.761761 
L 467.594392 -33.761761 
L 467.116798 -33.761761 
L 466.639205 -33.761761 
L 466.161611 -33.761761 
L 465.684018 -33.761761 
L 465.206424 -33.761761 
L 464.728831 -33.761761 
L 464.251237 -33.761761 
L 463.773644 -33.761761 
L 463.29605 -33.761761 
L 462.818457 -33.761761 
L 462.340863 -33.761761 
L 461.86327 -33.761761 
L 461.385676 -33.761761 
L 460.908083 -33.761761 
L 460.430489 -33.761761 
L 459.952896 -33.761761 
L 459.475302 -33.761761 
L 458.997709 -33.761761 
L 458.520115 -33.761761 
L 458.042522 -33.761761 
L 457.564928 -33.761761 
L 457.087334 -33.761761 
L 456.609741 -33.761761 
L 456.132147 -33.761761 
L 455.654554 -33.761761 
L 455.17696 -33.761761 
L 454.699367 -33.761761 
L 454.221773 -33.761761 
L 453.74418 -33.761761 
L 453.266586 -33.761761 
L 452.788993 -33.761761 
L 452.311399 -33.761761 
L 451.833806 -33.761761 
L 451.356212 -33.761761 
L 450.878619 -33.761761 
L 450.401025 -33.761761 
L 449.923432 -33.761761 
L 449.445838 -33.761761 
L 448.968245 -33.761761 
L 448.490651 -33.761761 
L 448.013058 -33.761761 
L 447.535464 -33.761761 
L 447.057871 -33.761761 
L 446.580277 -33.761761 
L 446.102684 -33.761761 
L 445.62509 -33.761761 
L 445.147497 -33.761761 
L 444.669903 -33.761761 
L 444.19231 -33.761761 
L 443.714716 -33.761761 
L 443.237123 -33.761761 
L 442.759529 -33.761761 
L 442.281936 -33.761761 
L 441.804342 -33.761761 
L 441.326749 -33.761761 
L 440.849155 -33.761761 
L 440.371562 -33.761761 
L 439.893968 -33.761761 
L 439.416375 -33.761761 
L 438.938781 -33.761761 
L 438.461188 -33.761761 
L 437.983594 -33.761761 
L 437.506001 -33.761761 
L 437.028407 -33.761761 
L 436.550814 -33.761761 
L 436.07322 -33.761761 
L 435.595627 -33.761761 
L 435.118033 -33.761761 
L 434.64044 -33.761761 
L 434.162846 -33.761761 
L 433.685253 -33.761761 
L 433.207659 -33.761761 
L 432.730066 -33.761761 
L 432.252472 -33.761761 
L 431.774879 -33.761761 
L 431.297285 -33.761761 
L 430.819692 -33.761761 
L 430.342098 -33.761761 
L 429.864505 -33.761761 
L 429.386911 -33.761761 
L 428.909318 -33.761761 
L 428.431724 -33.761761 
L 427.954131 -33.761761 
L 427.476537 -33.761761 
L 426.998944 -33.761761 
L 426.52135 -33.761761 
L 426.043757 -33.761761 
L 425.566163 -33.761761 
L 425.08857 -33.761761 
L 424.610976 -33.761761 
L 424.133383 -33.761761 
L 423.655789 -33.761761 
L 423.178195 -33.761761 
L 422.700602 -33.761761 
L 422.223008 -33.761761 
L 421.745415 -33.761761 
L 421.267821 -33.761761 
L 420.790228 -33.761761 
L 420.312634 -33.761761 
L 419.835041 -33.761761 
L 419.357447 -33.761761 
L 418.879854 -33.761761 
L 418.40226 -33.761761 
L 417.924667 -33.761761 
L 417.447073 -33.761761 
L 416.96948 -33.761761 
L 416.491886 -33.761761 
L 416.014293 -33.761761 
L 415.536699 -33.761761 
z
" id="m70a02184a7" style="stroke:#1d6996;stroke-opacity:0.7;"/>
    </defs>
    <g clip-path="url(#p11856a9f9f)">
     <use style="fill:#1d6996;fill-opacity:0.7;stroke:#1d6996;stroke-opacity:0.7;" x="0" xlink:href="#m70a02184a7" y="252.018125"/>
    </g>
   </g>
   <g id="line2d_31">
    <path clip-path="url(#p11856a9f9f)" d="M 415.536699 216.06039 
L 419.238294 215.127777 
L 422.01449 214.215192 
L 424.790686 213.078803 
L 427.566883 211.676731 
L 430.343079 209.962884 
L 433.119275 207.887514 
L 434.970072 206.277222 
L 436.82087 204.466917 
L 438.671667 202.440458 
L 440.522465 200.181819 
L 442.373262 197.675352 
L 444.224059 194.906081 
L 446.074857 191.860028 
L 448.851053 186.744816 
L 451.627249 180.943852 
L 454.403445 174.433791 
L 457.179641 167.205875 
L 459.955838 159.268783 
L 462.732034 150.651193 
L 465.50823 141.403885 
L 469.209825 128.22654 
L 473.836818 110.747651 
L 484.941603 68.203001 
L 487.717799 58.450444 
L 490.493995 49.446182 
L 493.270191 41.382747 
L 495.120989 36.618974 
L 496.971786 32.40168 
L 498.822583 28.774419 
L 500.673381 25.775207 
L 502.524178 23.435855 
L 503.449577 22.521732 
L 504.374976 21.781413 
L 505.300374 21.216898 
L 506.225773 20.829717 
L 507.151172 20.62092 
L 508.076571 20.591074 
L 509.001969 20.740259 
L 509.927368 21.068072 
L 510.852767 21.573622 
L 511.778165 22.255539 
L 512.703564 23.111979 
L 513.628963 24.140631 
L 515.47976 26.703063 
L 517.330558 29.915479 
L 519.181355 33.743929 
L 521.032153 38.148475 
L 522.88295 43.083877 
L 525.659146 51.372438 
L 528.435342 60.559969 
L 532.136937 73.871168 
L 536.763931 91.550881 
L 545.092519 123.655119 
L 548.794114 137.110401 
L 552.495709 149.65366 
L 555.271905 158.344146 
L 558.048101 166.358653 
L 560.824297 173.666141 
L 563.600493 180.255826 
L 566.376689 186.134667 
L 569.152886 191.324534 
L 571.929082 195.859258 
L 574.705278 199.781699 
L 576.556075 202.08057 
L 579.332271 205.093572 
L 582.108468 207.632339 
L 584.884664 209.75108 
L 587.66086 211.50258 
L 590.437056 212.936946 
L 593.213252 214.100706 
L 595.989448 215.036229 
L 599.691043 215.9934 
L 603.392638 216.688943 
L 608.019631 217.285927 
L 613.572024 217.726554 
L 620.049815 218.005429 
L 630.229201 218.185474 
L 650.587972 218.252292 
L 692.230914 218.256361 
L 692.230914 218.256361 
" style="fill:none;stroke:#909090;stroke-linecap:round;stroke-width:1.5;"/>
   </g>
   <g id="line2d_32">
    <path clip-path="url(#p11856a9f9f)" d="M 415.536699 218.248444 
L 436.82087 218.115876 
L 445.149458 217.876451 
L 451.627249 217.473504 
L 456.254243 216.979439 
L 459.955838 216.39827 
L 463.657432 215.591505 
L 466.433629 214.79699 
L 469.209825 213.802063 
L 471.986021 212.56757 
L 474.762217 211.049945 
L 477.538413 209.201594 
L 480.314609 206.97156 
L 482.165407 205.246553 
L 484.016204 203.312118 
L 485.867001 201.15215 
L 487.717799 198.75081 
L 489.568596 196.092805 
L 491.419394 193.163698 
L 493.270191 189.950256 
L 496.046387 184.571945 
L 498.822583 178.497258 
L 501.59878 171.708173 
L 504.374976 164.202387 
L 507.151172 155.996075 
L 509.927368 147.126289 
L 513.628963 134.374643 
L 517.330558 120.76062 
L 522.88295 99.362722 
L 529.360741 74.44598 
L 533.062336 61.092873 
L 535.838532 51.861027 
L 538.614728 43.517591 
L 540.465525 38.540141 
L 542.316323 34.089562 
L 544.16712 30.2115 
L 546.017918 26.946365 
L 547.868715 24.328628 
L 548.794114 23.271531 
L 549.719513 22.386216 
L 550.644911 21.675071 
L 551.57031 21.140019 
L 552.495709 20.782508 
L 553.421107 20.60351 
L 554.346506 20.60351 
L 555.271905 20.782508 
L 556.197304 21.140019 
L 557.122702 21.675071 
L 558.048101 22.386216 
L 558.9735 23.271531 
L 559.898898 24.328628 
L 561.749696 26.946365 
L 563.600493 30.2115 
L 565.451291 34.089562 
L 567.302088 38.540141 
L 569.152886 43.517591 
L 571.929082 51.861027 
L 574.705278 61.092873 
L 578.406873 74.44598 
L 583.033866 92.150558 
L 591.362455 124.230723 
L 595.06405 137.652838 
L 598.765644 150.153396 
L 601.54184 158.807514 
L 604.318037 166.783359 
L 607.094233 174.051076 
L 609.870429 180.600937 
L 612.646625 186.440804 
L 615.422821 191.59329 
L 618.199017 196.092805 
L 620.975213 199.982624 
L 622.826011 202.261325 
L 625.602207 205.246553 
L 628.378403 207.76057 
L 631.154599 209.857544 
L 633.930795 211.59014 
L 636.706992 213.008288 
L 639.483188 214.158297 
L 642.259384 215.082293 
L 645.960979 216.027118 
L 649.662574 216.713231 
L 654.289567 217.301686 
L 659.841959 217.735629 
L 666.31975 218.009988 
L 676.499136 218.186877 
L 692.230914 218.248444 
L 692.230914 218.248444 
" style="fill:none;stroke:#909090;stroke-linecap:round;stroke-width:1.5;"/>
   </g>
   <g id="patch_6">
    <path d="M 401.701989 228.14 
L 401.701989 10.7 
" style="fill:none;stroke:#262626;stroke-linecap:square;stroke-linejoin:miter;stroke-width:0.8;"/>
   </g>
   <g id="patch_7">
    <path d="M 401.701989 228.14 
L 706.065625 228.14 
" style="fill:none;stroke:#262626;stroke-linecap:square;stroke-linejoin:miter;stroke-width:0.8;"/>
   </g>
   <g id="text_32">
    <!-- $\alpha = 0.05$ -->
    <g style="fill:#cc503e;" transform="translate(599.999509 44.831943)scale(0.16 -0.16)">
     <use transform="translate(0 0.78125)" xlink:href="#DejaVuSans-Oblique-945"/>
     <use transform="translate(85.400391 0.78125)" xlink:href="#DejaVuSans-61"/>
     <use transform="translate(188.671875 0.78125)" xlink:href="#DejaVuSans-48"/>
     <use transform="translate(252.294922 0.78125)" xlink:href="#DejaVuSans-46"/>
     <use transform="translate(284.082031 0.78125)" xlink:href="#DejaVuSans-48"/>
     <use transform="translate(347.705078 0.78125)" xlink:href="#DejaVuSans-53"/>
    </g>
   </g>
   <g id="text_33">
    <!-- $\beta = $0.56 -->
    <g style="fill:#1d6996;" transform="translate(599.999509 64.651877)scale(0.16 -0.16)">
     <use transform="translate(0 0.390625)" xlink:href="#DejaVuSans-Oblique-946"/>
     <use transform="translate(83.300781 0.390625)" xlink:href="#DejaVuSans-61"/>
     <use transform="translate(186.572266 0.390625)" xlink:href="#DejaVuSans-48"/>
     <use transform="translate(250.195312 0.390625)" xlink:href="#DejaVuSans-46"/>
     <use transform="translate(281.982422 0.390625)" xlink:href="#DejaVuSans-53"/>
     <use transform="translate(345.605469 0.390625)" xlink:href="#DejaVuSans-54"/>
    </g>
   </g>
   <g id="text_34">
    <!-- $1 - \beta = $0.44 -->
    <g style="fill:#994e95;" transform="translate(599.999509 84.47181)scale(0.16 -0.16)">
     <use transform="translate(0 0.390625)" xlink:href="#DejaVuSans-49"/>
     <use transform="translate(83.105469 0.390625)" xlink:href="#DejaVuSans-8722"/>
     <use transform="translate(186.376953 0.390625)" xlink:href="#DejaVuSans-Oblique-946"/>
     <use transform="translate(269.677734 0.390625)" xlink:href="#DejaVuSans-61"/>
     <use transform="translate(372.949219 0.390625)" xlink:href="#DejaVuSans-48"/>
     <use transform="translate(436.572266 0.390625)" xlink:href="#DejaVuSans-46"/>
     <use transform="translate(468.359375 0.390625)" xlink:href="#DejaVuSans-52"/>
     <use transform="translate(531.982422 0.390625)" xlink:href="#DejaVuSans-52"/>
    </g>
   </g>
  </g>
 </g>
 <defs>
  <clipPath id="pda47f870c5">
   <rect height="217.44" width="304.363636" x="36.465625" y="10.7"/>
  </clipPath>
  <clipPath id="p11856a9f9f">
   <rect height="217.44" width="304.363636" x="401.701989" y="10.7"/>
  </clipPath>
 </defs>
</svg>
