<?xml version="1.0" encoding="utf-8" standalone="no"?>
<!DOCTYPE svg PUBLIC "-//W3C//DTD SVG 1.1//EN"
  "http://www.w3.org/Graphics/SVG/1.1/DTD/svg11.dtd">
<!-- Created with matplotlib (https://matplotlib.org/) -->
<svg height="250.489663pt" version="1.1" viewBox="0 0 372.103125 250.489663" width="372.103125pt" xmlns="http://www.w3.org/2000/svg" xmlns:xlink="http://www.w3.org/1999/xlink">
 <metadata>
  <rdf:RDF xmlns:cc="http://creativecommons.org/ns#" xmlns:dc="http://purl.org/dc/elements/1.1/" xmlns:rdf="http://www.w3.org/1999/02/22-rdf-syntax-ns#">
   <cc:Work>
    <dc:type rdf:resource="http://purl.org/dc/dcmitype/StillImage"/>
    <dc:date>2021-09-23T15:34:44.301058</dc:date>
    <dc:format>image/svg+xml</dc:format>
    <dc:creator>
     <cc:Agent>
      <dc:title>Matplotlib v3.3.3, https://matplotlib.org/</dc:title>
     </cc:Agent>
    </dc:creator>
   </cc:Work>
  </rdf:RDF>
 </metadata>
 <defs>
  <style type="text/css">*{stroke-linecap:butt;stroke-linejoin:round;}</style>
 </defs>
 <g id="figure_1">
  <g id="patch_1">
   <path d="M 0 250.489663 
L 372.103125 250.489663 
L 372.103125 0 
L 0 0 
z
" style="fill:none;"/>
  </g>
  <g id="axes_1">
   <g id="patch_2">
    <path d="M 30.103125 226.611538 
L 364.903125 226.611538 
L 364.903125 9.171538 
L 30.103125 9.171538 
z
" style="fill:none;"/>
   </g>
   <g id="matplotlib.axis_1">
    <g id="xtick_1">
     <g id="line2d_1">
      <defs>
       <path d="M 0 0 
L 0 3.5 
" id="mae4548a2cb" style="stroke:#000000;stroke-width:0.8;"/>
      </defs>
      <g>
       <use style="stroke:#000000;stroke-width:0.8;" x="45.321307" xlink:href="#mae4548a2cb" y="226.611538"/>
      </g>
     </g>
     <g id="text_1">
      <!-- −3 -->
      <g transform="translate(37.950213 241.209976)scale(0.1 -0.1)">
       <defs>
        <path d="M 10.59375 35.5 
L 73.1875 35.5 
L 73.1875 27.203125 
L 10.59375 27.203125 
z
" id="DejaVuSans-8722"/>
        <path d="M 40.578125 39.3125 
Q 47.65625 37.796875 51.625 33 
Q 55.609375 28.21875 55.609375 21.1875 
Q 55.609375 10.40625 48.1875 4.484375 
Q 40.765625 -1.421875 27.09375 -1.421875 
Q 22.515625 -1.421875 17.65625 -0.515625 
Q 12.796875 0.390625 7.625 2.203125 
L 7.625 11.71875 
Q 11.71875 9.328125 16.59375 8.109375 
Q 21.484375 6.890625 26.8125 6.890625 
Q 36.078125 6.890625 40.9375 10.546875 
Q 45.796875 14.203125 45.796875 21.1875 
Q 45.796875 27.640625 41.28125 31.265625 
Q 36.765625 34.90625 28.71875 34.90625 
L 20.21875 34.90625 
L 20.21875 43.015625 
L 29.109375 43.015625 
Q 36.375 43.015625 40.234375 45.921875 
Q 44.09375 48.828125 44.09375 54.296875 
Q 44.09375 59.90625 40.109375 62.90625 
Q 36.140625 65.921875 28.71875 65.921875 
Q 24.65625 65.921875 20.015625 65.03125 
Q 15.375 64.15625 9.8125 62.3125 
L 9.8125 71.09375 
Q 15.4375 72.65625 20.34375 73.4375 
Q 25.25 74.21875 29.59375 74.21875 
Q 40.828125 74.21875 47.359375 69.109375 
Q 53.90625 64.015625 53.90625 55.328125 
Q 53.90625 49.265625 50.4375 45.09375 
Q 46.96875 40.921875 40.578125 39.3125 
z
" id="DejaVuSans-51"/>
       </defs>
       <use xlink:href="#DejaVuSans-8722"/>
       <use x="83.789062" xlink:href="#DejaVuSans-51"/>
      </g>
     </g>
    </g>
    <g id="xtick_2">
     <g id="line2d_2">
      <g>
       <use style="stroke:#000000;stroke-width:0.8;" x="96.04858" xlink:href="#mae4548a2cb" y="226.611538"/>
      </g>
     </g>
     <g id="text_2">
      <!-- −2 -->
      <g transform="translate(88.677486 241.209976)scale(0.1 -0.1)">
       <defs>
        <path d="M 19.1875 8.296875 
L 53.609375 8.296875 
L 53.609375 0 
L 7.328125 0 
L 7.328125 8.296875 
Q 12.9375 14.109375 22.625 23.890625 
Q 32.328125 33.6875 34.8125 36.53125 
Q 39.546875 41.84375 41.421875 45.53125 
Q 43.3125 49.21875 43.3125 52.78125 
Q 43.3125 58.59375 39.234375 62.25 
Q 35.15625 65.921875 28.609375 65.921875 
Q 23.96875 65.921875 18.8125 64.3125 
Q 13.671875 62.703125 7.8125 59.421875 
L 7.8125 69.390625 
Q 13.765625 71.78125 18.9375 73 
Q 24.125 74.21875 28.421875 74.21875 
Q 39.75 74.21875 46.484375 68.546875 
Q 53.21875 62.890625 53.21875 53.421875 
Q 53.21875 48.921875 51.53125 44.890625 
Q 49.859375 40.875 45.40625 35.40625 
Q 44.1875 33.984375 37.640625 27.21875 
Q 31.109375 20.453125 19.1875 8.296875 
z
" id="DejaVuSans-50"/>
       </defs>
       <use xlink:href="#DejaVuSans-8722"/>
       <use x="83.789062" xlink:href="#DejaVuSans-50"/>
      </g>
     </g>
    </g>
    <g id="xtick_3">
     <g id="line2d_3">
      <g>
       <use style="stroke:#000000;stroke-width:0.8;" x="146.775852" xlink:href="#mae4548a2cb" y="226.611538"/>
      </g>
     </g>
     <g id="text_3">
      <!-- −1 -->
      <g transform="translate(139.404759 241.209976)scale(0.1 -0.1)">
       <defs>
        <path d="M 12.40625 8.296875 
L 28.515625 8.296875 
L 28.515625 63.921875 
L 10.984375 60.40625 
L 10.984375 69.390625 
L 28.421875 72.90625 
L 38.28125 72.90625 
L 38.28125 8.296875 
L 54.390625 8.296875 
L 54.390625 0 
L 12.40625 0 
z
" id="DejaVuSans-49"/>
       </defs>
       <use xlink:href="#DejaVuSans-8722"/>
       <use x="83.789062" xlink:href="#DejaVuSans-49"/>
      </g>
     </g>
    </g>
    <g id="xtick_4">
     <g id="line2d_4">
      <g>
       <use style="stroke:#000000;stroke-width:0.8;" x="197.503125" xlink:href="#mae4548a2cb" y="226.611538"/>
      </g>
     </g>
     <g id="text_4">
      <!-- 0 -->
      <g transform="translate(194.321875 241.209976)scale(0.1 -0.1)">
       <defs>
        <path d="M 31.78125 66.40625 
Q 24.171875 66.40625 20.328125 58.90625 
Q 16.5 51.421875 16.5 36.375 
Q 16.5 21.390625 20.328125 13.890625 
Q 24.171875 6.390625 31.78125 6.390625 
Q 39.453125 6.390625 43.28125 13.890625 
Q 47.125 21.390625 47.125 36.375 
Q 47.125 51.421875 43.28125 58.90625 
Q 39.453125 66.40625 31.78125 66.40625 
z
M 31.78125 74.21875 
Q 44.046875 74.21875 50.515625 64.515625 
Q 56.984375 54.828125 56.984375 36.375 
Q 56.984375 17.96875 50.515625 8.265625 
Q 44.046875 -1.421875 31.78125 -1.421875 
Q 19.53125 -1.421875 13.0625 8.265625 
Q 6.59375 17.96875 6.59375 36.375 
Q 6.59375 54.828125 13.0625 64.515625 
Q 19.53125 74.21875 31.78125 74.21875 
z
" id="DejaVuSans-48"/>
       </defs>
       <use xlink:href="#DejaVuSans-48"/>
      </g>
     </g>
    </g>
    <g id="xtick_5">
     <g id="line2d_5">
      <g>
       <use style="stroke:#000000;stroke-width:0.8;" x="248.230398" xlink:href="#mae4548a2cb" y="226.611538"/>
      </g>
     </g>
     <g id="text_5">
      <!-- 1 -->
      <g transform="translate(245.049148 241.209976)scale(0.1 -0.1)">
       <use xlink:href="#DejaVuSans-49"/>
      </g>
     </g>
    </g>
    <g id="xtick_6">
     <g id="line2d_6">
      <g>
       <use style="stroke:#000000;stroke-width:0.8;" x="298.95767" xlink:href="#mae4548a2cb" y="226.611538"/>
      </g>
     </g>
     <g id="text_6">
      <!-- 2 -->
      <g transform="translate(295.77642 241.209976)scale(0.1 -0.1)">
       <use xlink:href="#DejaVuSans-50"/>
      </g>
     </g>
    </g>
    <g id="xtick_7">
     <g id="line2d_7">
      <g>
       <use style="stroke:#000000;stroke-width:0.8;" x="349.684943" xlink:href="#mae4548a2cb" y="226.611538"/>
      </g>
     </g>
     <g id="text_7">
      <!-- 3 -->
      <g transform="translate(346.503693 241.209976)scale(0.1 -0.1)">
       <use xlink:href="#DejaVuSans-51"/>
      </g>
     </g>
    </g>
   </g>
   <g id="matplotlib.axis_2">
    <g id="ytick_1">
     <g id="line2d_8">
      <defs>
       <path d="M 0 0 
L -3.5 0 
" id="md2bda6d7cb" style="stroke:#000000;stroke-width:0.8;"/>
      </defs>
      <g>
       <use style="stroke:#000000;stroke-width:0.8;" x="30.103125" xlink:href="#md2bda6d7cb" y="216.727902"/>
      </g>
     </g>
     <g id="text_8">
      <!-- 0.0 -->
      <g transform="translate(7.2 220.52712)scale(0.1 -0.1)">
       <defs>
        <path d="M 10.6875 12.40625 
L 21 12.40625 
L 21 0 
L 10.6875 0 
z
" id="DejaVuSans-46"/>
       </defs>
       <use xlink:href="#DejaVuSans-48"/>
       <use x="63.623047" xlink:href="#DejaVuSans-46"/>
       <use x="95.410156" xlink:href="#DejaVuSans-48"/>
      </g>
     </g>
    </g>
    <g id="ytick_2">
     <g id="line2d_9">
      <g>
       <use style="stroke:#000000;stroke-width:0.8;" x="30.103125" xlink:href="#md2bda6d7cb" y="191.011816"/>
      </g>
     </g>
     <g id="text_9">
      <!-- 0.1 -->
      <g transform="translate(7.2 194.811035)scale(0.1 -0.1)">
       <use xlink:href="#DejaVuSans-48"/>
       <use x="63.623047" xlink:href="#DejaVuSans-46"/>
       <use x="95.410156" xlink:href="#DejaVuSans-49"/>
      </g>
     </g>
    </g>
    <g id="ytick_3">
     <g id="line2d_10">
      <g>
       <use style="stroke:#000000;stroke-width:0.8;" x="30.103125" xlink:href="#md2bda6d7cb" y="165.295731"/>
      </g>
     </g>
     <g id="text_10">
      <!-- 0.2 -->
      <g transform="translate(7.2 169.09495)scale(0.1 -0.1)">
       <use xlink:href="#DejaVuSans-48"/>
       <use x="63.623047" xlink:href="#DejaVuSans-46"/>
       <use x="95.410156" xlink:href="#DejaVuSans-50"/>
      </g>
     </g>
    </g>
    <g id="ytick_4">
     <g id="line2d_11">
      <g>
       <use style="stroke:#000000;stroke-width:0.8;" x="30.103125" xlink:href="#md2bda6d7cb" y="139.579646"/>
      </g>
     </g>
     <g id="text_11">
      <!-- 0.3 -->
      <g transform="translate(7.2 143.378864)scale(0.1 -0.1)">
       <use xlink:href="#DejaVuSans-48"/>
       <use x="63.623047" xlink:href="#DejaVuSans-46"/>
       <use x="95.410156" xlink:href="#DejaVuSans-51"/>
      </g>
     </g>
    </g>
    <g id="ytick_5">
     <g id="line2d_12">
      <g>
       <use style="stroke:#000000;stroke-width:0.8;" x="30.103125" xlink:href="#md2bda6d7cb" y="113.86356"/>
      </g>
     </g>
     <g id="text_12">
      <!-- 0.4 -->
      <g transform="translate(7.2 117.662779)scale(0.1 -0.1)">
       <defs>
        <path d="M 37.796875 64.3125 
L 12.890625 25.390625 
L 37.796875 25.390625 
z
M 35.203125 72.90625 
L 47.609375 72.90625 
L 47.609375 25.390625 
L 58.015625 25.390625 
L 58.015625 17.1875 
L 47.609375 17.1875 
L 47.609375 0 
L 37.796875 0 
L 37.796875 17.1875 
L 4.890625 17.1875 
L 4.890625 26.703125 
z
" id="DejaVuSans-52"/>
       </defs>
       <use xlink:href="#DejaVuSans-48"/>
       <use x="63.623047" xlink:href="#DejaVuSans-46"/>
       <use x="95.410156" xlink:href="#DejaVuSans-52"/>
      </g>
     </g>
    </g>
    <g id="ytick_6">
     <g id="line2d_13">
      <g>
       <use style="stroke:#000000;stroke-width:0.8;" x="30.103125" xlink:href="#md2bda6d7cb" y="88.147475"/>
      </g>
     </g>
     <g id="text_13">
      <!-- 0.5 -->
      <g transform="translate(7.2 91.946694)scale(0.1 -0.1)">
       <defs>
        <path d="M 10.796875 72.90625 
L 49.515625 72.90625 
L 49.515625 64.59375 
L 19.828125 64.59375 
L 19.828125 46.734375 
Q 21.96875 47.46875 24.109375 47.828125 
Q 26.265625 48.1875 28.421875 48.1875 
Q 40.625 48.1875 47.75 41.5 
Q 54.890625 34.8125 54.890625 23.390625 
Q 54.890625 11.625 47.5625 5.09375 
Q 40.234375 -1.421875 26.90625 -1.421875 
Q 22.3125 -1.421875 17.546875 -0.640625 
Q 12.796875 0.140625 7.71875 1.703125 
L 7.71875 11.625 
Q 12.109375 9.234375 16.796875 8.0625 
Q 21.484375 6.890625 26.703125 6.890625 
Q 35.15625 6.890625 40.078125 11.328125 
Q 45.015625 15.765625 45.015625 23.390625 
Q 45.015625 31 40.078125 35.4375 
Q 35.15625 39.890625 26.703125 39.890625 
Q 22.75 39.890625 18.8125 39.015625 
Q 14.890625 38.140625 10.796875 36.28125 
z
" id="DejaVuSans-53"/>
       </defs>
       <use xlink:href="#DejaVuSans-48"/>
       <use x="63.623047" xlink:href="#DejaVuSans-46"/>
       <use x="95.410156" xlink:href="#DejaVuSans-53"/>
      </g>
     </g>
    </g>
    <g id="ytick_7">
     <g id="line2d_14">
      <g>
       <use style="stroke:#000000;stroke-width:0.8;" x="30.103125" xlink:href="#md2bda6d7cb" y="62.431389"/>
      </g>
     </g>
     <g id="text_14">
      <!-- 0.6 -->
      <g transform="translate(7.2 66.230608)scale(0.1 -0.1)">
       <defs>
        <path d="M 33.015625 40.375 
Q 26.375 40.375 22.484375 35.828125 
Q 18.609375 31.296875 18.609375 23.390625 
Q 18.609375 15.53125 22.484375 10.953125 
Q 26.375 6.390625 33.015625 6.390625 
Q 39.65625 6.390625 43.53125 10.953125 
Q 47.40625 15.53125 47.40625 23.390625 
Q 47.40625 31.296875 43.53125 35.828125 
Q 39.65625 40.375 33.015625 40.375 
z
M 52.59375 71.296875 
L 52.59375 62.3125 
Q 48.875 64.0625 45.09375 64.984375 
Q 41.3125 65.921875 37.59375 65.921875 
Q 27.828125 65.921875 22.671875 59.328125 
Q 17.53125 52.734375 16.796875 39.40625 
Q 19.671875 43.65625 24.015625 45.921875 
Q 28.375 48.1875 33.59375 48.1875 
Q 44.578125 48.1875 50.953125 41.515625 
Q 57.328125 34.859375 57.328125 23.390625 
Q 57.328125 12.15625 50.6875 5.359375 
Q 44.046875 -1.421875 33.015625 -1.421875 
Q 20.359375 -1.421875 13.671875 8.265625 
Q 6.984375 17.96875 6.984375 36.375 
Q 6.984375 53.65625 15.1875 63.9375 
Q 23.390625 74.21875 37.203125 74.21875 
Q 40.921875 74.21875 44.703125 73.484375 
Q 48.484375 72.75 52.59375 71.296875 
z
" id="DejaVuSans-54"/>
       </defs>
       <use xlink:href="#DejaVuSans-48"/>
       <use x="63.623047" xlink:href="#DejaVuSans-46"/>
       <use x="95.410156" xlink:href="#DejaVuSans-54"/>
      </g>
     </g>
    </g>
    <g id="ytick_8">
     <g id="line2d_15">
      <g>
       <use style="stroke:#000000;stroke-width:0.8;" x="30.103125" xlink:href="#md2bda6d7cb" y="36.715304"/>
      </g>
     </g>
     <g id="text_15">
      <!-- 0.7 -->
      <g transform="translate(7.2 40.514523)scale(0.1 -0.1)">
       <defs>
        <path d="M 8.203125 72.90625 
L 55.078125 72.90625 
L 55.078125 68.703125 
L 28.609375 0 
L 18.3125 0 
L 43.21875 64.59375 
L 8.203125 64.59375 
z
" id="DejaVuSans-55"/>
       </defs>
       <use xlink:href="#DejaVuSans-48"/>
       <use x="63.623047" xlink:href="#DejaVuSans-46"/>
       <use x="95.410156" xlink:href="#DejaVuSans-55"/>
      </g>
     </g>
    </g>
    <g id="ytick_9">
     <g id="line2d_16">
      <g>
       <use style="stroke:#000000;stroke-width:0.8;" x="30.103125" xlink:href="#md2bda6d7cb" y="10.999219"/>
      </g>
     </g>
     <g id="text_16">
      <!-- 0.8 -->
      <g transform="translate(7.2 14.798437)scale(0.1 -0.1)">
       <defs>
        <path d="M 31.78125 34.625 
Q 24.75 34.625 20.71875 30.859375 
Q 16.703125 27.09375 16.703125 20.515625 
Q 16.703125 13.921875 20.71875 10.15625 
Q 24.75 6.390625 31.78125 6.390625 
Q 38.8125 6.390625 42.859375 10.171875 
Q 46.921875 13.96875 46.921875 20.515625 
Q 46.921875 27.09375 42.890625 30.859375 
Q 38.875 34.625 31.78125 34.625 
z
M 21.921875 38.8125 
Q 15.578125 40.375 12.03125 44.71875 
Q 8.5 49.078125 8.5 55.328125 
Q 8.5 64.0625 14.71875 69.140625 
Q 20.953125 74.21875 31.78125 74.21875 
Q 42.671875 74.21875 48.875 69.140625 
Q 55.078125 64.0625 55.078125 55.328125 
Q 55.078125 49.078125 51.53125 44.71875 
Q 48 40.375 41.703125 38.8125 
Q 48.828125 37.15625 52.796875 32.3125 
Q 56.78125 27.484375 56.78125 20.515625 
Q 56.78125 9.90625 50.3125 4.234375 
Q 43.84375 -1.421875 31.78125 -1.421875 
Q 19.734375 -1.421875 13.25 4.234375 
Q 6.78125 9.90625 6.78125 20.515625 
Q 6.78125 27.484375 10.78125 32.3125 
Q 14.796875 37.15625 21.921875 38.8125 
z
M 18.3125 54.390625 
Q 18.3125 48.734375 21.84375 45.5625 
Q 25.390625 42.390625 31.78125 42.390625 
Q 38.140625 42.390625 41.71875 45.5625 
Q 45.3125 48.734375 45.3125 54.390625 
Q 45.3125 60.0625 41.71875 63.234375 
Q 38.140625 66.40625 31.78125 66.40625 
Q 25.390625 66.40625 21.84375 63.234375 
Q 18.3125 60.0625 18.3125 54.390625 
z
" id="DejaVuSans-56"/>
       </defs>
       <use xlink:href="#DejaVuSans-48"/>
       <use x="63.623047" xlink:href="#DejaVuSans-46"/>
       <use x="95.410156" xlink:href="#DejaVuSans-56"/>
      </g>
     </g>
    </g>
   </g>
   <g id="line2d_17">
    <path clip-path="url(#p0222ab68b4)" d="M 45.321307 215.588204 
L 52.65537 214.98762 
L 58.76709 214.290785 
L 64.87881 213.364112 
L 69.768185 212.420137 
L 74.657561 211.262269 
L 79.546937 209.857309 
L 84.436312 208.171064 
L 88.103344 206.701274 
L 91.770376 205.040258 
L 95.437408 203.175087 
L 99.104439 201.094173 
L 102.771471 198.787749 
L 106.438503 196.248362 
L 110.105535 193.471381 
L 113.772566 190.455498 
L 117.439598 187.203211 
L 122.328974 182.511388 
L 127.21835 177.440665 
L 132.107725 172.035619 
L 138.219445 164.903404 
L 146.775852 154.502504 
L 156.554604 142.662095 
L 161.443979 137.040293 
L 166.333355 131.784597 
L 170.000387 128.158202 
L 173.667419 124.858331 
L 177.33445 121.932188 
L 179.779138 120.210443 
L 182.223826 118.6854 
L 184.668514 117.367298 
L 187.113202 116.265075 
L 189.55789 115.386269 
L 192.002577 114.736929 
L 194.447265 114.321548 
L 196.891953 114.14301 
L 199.336641 114.202557 
L 201.781329 114.499775 
L 204.226017 115.032597 
L 206.670704 115.797331 
L 209.115392 116.788696 
L 211.56008 117.999891 
L 214.004768 119.422665 
L 216.449456 121.047416 
L 218.894144 122.863295 
L 222.561175 125.919015 
L 226.228207 129.333154 
L 229.895239 133.057315 
L 234.784615 138.416358 
L 239.67399 144.109935 
L 248.230398 154.502504 
L 258.009149 166.357093 
L 264.120869 173.415175 
L 269.010244 178.741706 
L 273.89962 183.721255 
L 278.788996 188.31325 
L 282.456028 191.487266 
L 286.123059 194.423595 
L 289.790091 197.121059 
L 293.457123 199.582127 
L 297.124155 201.812428 
L 300.791186 203.820242 
L 304.458218 205.615999 
L 308.12525 207.211783 
L 313.014626 209.051493 
L 317.904001 210.592801 
L 322.793377 211.869979 
L 327.682753 212.91685 
L 332.572128 213.76577 
L 338.683848 214.594218 
L 344.795567 215.213115 
L 349.684943 215.588204 
L 349.684943 215.588204 
" style="fill:none;stroke:#ea013a;stroke-linecap:square;stroke-width:1.5;"/>
   </g>
   <g id="line2d_18">
    <path clip-path="url(#p0222ab68b4)" d="M 45.321307 216.693486 
L 69.768185 216.517272 
L 83.213968 216.211195 
L 92.99272 215.778358 
L 100.326783 215.265297 
L 107.660847 214.521619 
L 113.772566 213.669426 
L 118.661942 212.797462 
L 123.551318 211.72361 
L 128.440693 210.415286 
L 133.330069 208.838547 
L 136.997101 207.459224 
L 140.664133 205.895504 
L 144.331164 204.133953 
L 147.998196 202.162256 
L 151.665228 199.969676 
L 155.33226 197.547537 
L 158.999291 194.889736 
L 162.666323 191.993241 
L 166.333355 188.858588 
L 170.000387 185.490344 
L 174.889762 180.652227 
L 179.779138 175.45004 
L 184.668514 169.934432 
L 190.780233 162.70268 
L 211.56008 137.725588 
L 216.449456 132.417239 
L 220.116488 128.741254 
L 223.783519 125.383583 
L 227.450551 122.392044 
L 229.895239 120.622866 
L 232.339927 119.047639 
L 234.784615 117.676911 
L 237.229302 116.519955 
L 239.67399 115.584668 
L 242.118678 114.877478 
L 244.563366 114.403274 
L 247.008054 114.165344 
L 249.452742 114.165344 
L 251.897429 114.403274 
L 254.342117 114.877478 
L 256.786805 115.584668 
L 259.231493 116.519955 
L 261.676181 117.676911 
L 264.120869 119.047639 
L 266.565557 120.622866 
L 269.010244 122.392044 
L 272.677276 125.383583 
L 276.344308 128.741254 
L 280.01134 132.417239 
L 284.900715 137.725588 
L 289.790091 143.384264 
L 297.124155 152.254381 
L 309.347594 167.079386 
L 315.459313 174.098184 
L 320.348689 179.384111 
L 325.238065 184.317108 
L 330.12744 188.858588 
L 333.794472 191.993241 
L 337.461504 194.889736 
L 341.128536 197.547537 
L 344.795567 199.969676 
L 348.462599 202.162256 
L 349.684943 202.843539 
L 349.684943 202.843539 
" style="fill:none;stroke:#1368ce;stroke-linecap:square;stroke-width:1.5;"/>
   </g>
   <g id="line2d_19">
    <path clip-path="url(#p0222ab68b4)" d="M 45.321307 216.727902 
L 122.328974 216.623948 
L 129.663037 216.41412 
L 134.552413 216.107178 
L 138.219445 215.721417 
L 141.886477 215.134801 
L 145.553508 214.265991 
L 147.998196 213.480431 
L 150.442884 212.489054 
L 152.887572 211.252644 
L 155.33226 209.728808 
L 157.776948 207.872922 
L 160.221635 205.639427 
L 162.666323 202.983479 
L 165.111011 199.862926 
L 167.555699 196.240545 
L 170.000387 192.08646 
L 172.445075 187.380626 
L 174.889762 182.115209 
L 177.33445 176.296735 
L 179.779138 169.947816 
L 182.223826 163.108311 
L 185.890858 152.059877 
L 190.780233 136.290673 
L 199.336641 108.294206 
L 203.003673 97.226265 
L 205.44836 90.46519 
L 207.893048 84.32504 
L 210.337736 78.89882 
L 212.782424 74.262489 
L 214.004768 72.259126 
L 215.227112 70.473071 
L 216.449456 68.908328 
L 217.6718 67.56764 
L 218.894144 66.452505 
L 220.116488 65.563205 
L 221.338831 64.898844 
L 222.561175 64.457404 
L 223.783519 64.235799 
L 225.005863 64.229943 
L 226.228207 64.434831 
L 227.450551 64.844608 
L 228.672895 65.452661 
L 229.895239 66.251704 
L 231.117583 67.23386 
L 232.339927 68.390756 
L 234.784615 71.193289 
L 237.229302 74.585553 
L 239.67399 78.491062 
L 242.118678 82.832861 
L 245.78571 89.999239 
L 249.452742 97.737254 
L 255.564461 111.325629 
L 265.343213 133.138905 
L 270.232588 143.465942 
L 273.89962 150.800258 
L 277.566652 157.725644 
L 281.233684 164.208387 
L 284.900715 170.228102 
L 288.567747 175.775585 
L 292.234779 180.850965 
L 295.901811 185.46208 
L 299.568842 189.623047 
L 303.235874 193.352973 
L 306.902906 196.674808 
L 310.569938 199.614297 
L 314.236969 202.199049 
L 317.904001 204.457714 
L 321.571033 206.419262 
L 325.238065 208.112374 
L 328.905097 209.564936 
L 332.572128 210.803639 
L 336.23916 211.853669 
L 341.128536 213.000509 
L 346.017911 213.903871 
L 349.684943 214.448506 
L 349.684943 214.448506 
" style="fill:none;stroke:#ffa602;stroke-linecap:square;stroke-width:1.5;"/>
   </g>
   <g id="line2d_20">
    <path clip-path="url(#p0222ab68b4)" d="M 45.321307 216.727902 
L 179.779138 216.681971 
L 182.223826 216.47349 
L 183.44617 216.176309 
L 184.668514 215.594959 
L 185.890858 214.522218 
L 187.113202 212.655027 
L 188.335546 209.589426 
L 189.55789 204.841888 
L 190.780233 197.907023 
L 192.002577 188.352458 
L 193.224921 175.936876 
L 194.447265 160.721714 
L 196.891953 123.980758 
L 199.336641 85.266443 
L 200.558985 67.921382 
L 201.781329 53.062674 
L 203.003673 41.1214 
L 204.226017 32.158172 
L 205.44836 25.930649 
L 206.670704 22.005235 
L 207.893048 19.875123 
L 209.115392 19.055174 
L 210.337736 19.139637 
L 211.56008 19.823473 
L 212.782424 20.89731 
L 214.004768 22.22854 
L 216.449456 25.384894 
L 218.894144 29.001014 
L 221.338831 32.989 
L 223.783519 37.311231 
L 227.450551 44.357251 
L 231.117583 51.989707 
L 234.784615 60.104814 
L 239.67399 71.491968 
L 247.008054 89.278875 
L 258.009149 115.986284 
L 262.898525 127.343336 
L 267.7879 138.153429 
L 271.454932 145.827625 
L 275.121964 153.085746 
L 278.788996 159.898598 
L 282.456028 166.246631 
L 286.123059 172.119288 
L 289.790091 177.514215 
L 293.457123 182.436352 
L 297.124155 186.896954 
L 300.791186 190.912583 
L 304.458218 194.504097 
L 308.12525 197.695664 
L 311.792282 200.513841 
L 315.459313 202.986716 
L 319.126345 205.143139 
L 322.793377 207.012057 
L 326.460409 208.621941 
L 330.12744 210.000321 
L 333.794472 211.173417 
L 338.683848 212.460534 
L 343.573224 213.479711 
L 348.462599 214.27834 
L 349.684943 214.448506 
L 349.684943 214.448506 
" style="fill:none;stroke:#26890c;stroke-linecap:square;stroke-width:1.5;"/>
   </g>
   <g id="patch_3">
    <path d="M 30.103125 226.611538 
L 30.103125 9.171538 
" style="fill:none;stroke:#000000;stroke-linecap:square;stroke-linejoin:miter;stroke-width:0.8;"/>
   </g>
   <g id="patch_4">
    <path d="M 30.103125 226.611538 
L 364.903125 226.611538 
" style="fill:none;stroke:#000000;stroke-linecap:square;stroke-linejoin:miter;stroke-width:0.8;"/>
   </g>
   <g id="text_17">
    <!-- N(0,1) -->
    <g style="fill:#ea013a;" transform="translate(96.04858 36.715304)scale(0.2 -0.2)">
     <defs>
      <path d="M 9.8125 72.90625 
L 23.09375 72.90625 
L 55.421875 11.921875 
L 55.421875 72.90625 
L 64.984375 72.90625 
L 64.984375 0 
L 51.703125 0 
L 19.390625 60.984375 
L 19.390625 0 
L 9.8125 0 
z
" id="DejaVuSans-78"/>
      <path d="M 31 75.875 
Q 24.46875 64.65625 21.28125 53.65625 
Q 18.109375 42.671875 18.109375 31.390625 
Q 18.109375 20.125 21.3125 9.0625 
Q 24.515625 -2 31 -13.1875 
L 23.1875 -13.1875 
Q 15.875 -1.703125 12.234375 9.375 
Q 8.59375 20.453125 8.59375 31.390625 
Q 8.59375 42.28125 12.203125 53.3125 
Q 15.828125 64.359375 23.1875 75.875 
z
" id="DejaVuSans-40"/>
      <path d="M 11.71875 12.40625 
L 22.015625 12.40625 
L 22.015625 4 
L 14.015625 -11.625 
L 7.71875 -11.625 
L 11.71875 4 
z
" id="DejaVuSans-44"/>
      <path d="M 8.015625 75.875 
L 15.828125 75.875 
Q 23.140625 64.359375 26.78125 53.3125 
Q 30.421875 42.28125 30.421875 31.390625 
Q 30.421875 20.453125 26.78125 9.375 
Q 23.140625 -1.703125 15.828125 -13.1875 
L 8.015625 -13.1875 
Q 14.5 -2 17.703125 9.0625 
Q 20.90625 20.125 20.90625 31.390625 
Q 20.90625 42.671875 17.703125 53.65625 
Q 14.5 64.65625 8.015625 75.875 
z
" id="DejaVuSans-41"/>
     </defs>
     <use xlink:href="#DejaVuSans-78"/>
     <use x="74.804688" xlink:href="#DejaVuSans-40"/>
     <use x="113.818359" xlink:href="#DejaVuSans-48"/>
     <use x="177.441406" xlink:href="#DejaVuSans-44"/>
     <use x="209.228516" xlink:href="#DejaVuSans-49"/>
     <use x="272.851562" xlink:href="#DejaVuSans-41"/>
    </g>
   </g>
   <g id="text_18">
    <!-- N(1,1) -->
    <g style="fill:#1368ce;" transform="translate(96.04858 62.431389)scale(0.2 -0.2)">
     <use xlink:href="#DejaVuSans-78"/>
     <use x="74.804688" xlink:href="#DejaVuSans-40"/>
     <use x="113.818359" xlink:href="#DejaVuSans-49"/>
     <use x="177.441406" xlink:href="#DejaVuSans-44"/>
     <use x="209.228516" xlink:href="#DejaVuSans-49"/>
     <use x="272.851562" xlink:href="#DejaVuSans-41"/>
    </g>
   </g>
   <g id="text_19">
    <!-- N$_S$(2) -->
    <g style="fill:#ffa602;" transform="translate(96.04858 88.147475)scale(0.2 -0.2)">
     <defs>
      <path d="M 60.296875 70.515625 
L 58.40625 60.890625 
Q 53.46875 63.53125 48.609375 64.875 
Q 43.75 66.21875 39.203125 66.21875 
Q 30.375 66.21875 25.140625 62.359375 
Q 19.921875 58.5 19.921875 52.09375 
Q 19.921875 48.578125 21.84375 46.703125 
Q 23.78125 44.828125 31.78125 42.671875 
L 37.703125 41.21875 
Q 47.703125 38.625 51.609375 34.640625 
Q 55.515625 30.671875 55.515625 23.484375 
Q 55.515625 12.453125 46.84375 5.515625 
Q 38.1875 -1.421875 24.03125 -1.421875 
Q 18.21875 -1.421875 12.359375 -0.265625 
Q 6.5 0.875 0.59375 3.21875 
L 2.59375 13.375 
Q 8.015625 10.015625 13.453125 8.296875 
Q 18.890625 6.59375 24.3125 6.59375 
Q 33.546875 6.59375 39.109375 10.6875 
Q 44.671875 14.796875 44.671875 21.390625 
Q 44.671875 25.78125 42.453125 28.046875 
Q 40.234375 30.328125 32.90625 32.171875 
L 27 33.6875 
Q 16.890625 36.328125 13.203125 39.765625 
Q 9.515625 43.21875 9.515625 49.421875 
Q 9.515625 60.296875 17.890625 67.25 
Q 26.265625 74.21875 39.703125 74.21875 
Q 44.921875 74.21875 50.046875 73.28125 
Q 55.171875 72.359375 60.296875 70.515625 
z
" id="DejaVuSans-Oblique-83"/>
     </defs>
     <use transform="translate(0 0.125)" xlink:href="#DejaVuSans-78"/>
     <use transform="translate(75.761719 -16.28125)scale(0.7)" xlink:href="#DejaVuSans-Oblique-83"/>
     <use transform="translate(122.929688 0.125)" xlink:href="#DejaVuSans-40"/>
     <use transform="translate(161.943359 0.125)" xlink:href="#DejaVuSans-50"/>
     <use transform="translate(225.566406 0.125)" xlink:href="#DejaVuSans-41"/>
    </g>
   </g>
   <g id="text_20">
    <!-- N$_S$(10) -->
    <g style="fill:#26890c;" transform="translate(96.04858 113.86356)scale(0.2 -0.2)">
     <use transform="translate(0 0.125)" xlink:href="#DejaVuSans-78"/>
     <use transform="translate(75.761719 -16.28125)scale(0.7)" xlink:href="#DejaVuSans-Oblique-83"/>
     <use transform="translate(122.929688 0.125)" xlink:href="#DejaVuSans-40"/>
     <use transform="translate(161.943359 0.125)" xlink:href="#DejaVuSans-49"/>
     <use transform="translate(225.566406 0.125)" xlink:href="#DejaVuSans-48"/>
     <use transform="translate(289.189453 0.125)" xlink:href="#DejaVuSans-41"/>
    </g>
   </g>
  </g>
 </g>
 <defs>
  <clipPath id="p0222ab68b4">
   <rect height="217.44" width="334.8" x="30.103125" y="9.171538"/>
  </clipPath>
 </defs>
</svg>
