<?xml version="1.0" encoding="utf-8" standalone="no"?>
<!DOCTYPE svg PUBLIC "-//W3C//DTD SVG 1.1//EN"
  "http://www.w3.org/Graphics/SVG/1.1/DTD/svg11.dtd">
<!-- Created with matplotlib (https://matplotlib.org/) -->
<svg height="265.69625pt" version="1.1" viewBox="0 0 389.28125 265.69625" width="389.28125pt" xmlns="http://www.w3.org/2000/svg" xmlns:xlink="http://www.w3.org/1999/xlink">
 <defs>
  <style type="text/css">
*{stroke-linecap:butt;stroke-linejoin:round;}
  </style>
 </defs>
 <g id="figure_1">
  <g id="patch_1">
   <path d="M 0 265.69625 
L 389.28125 265.69625 
L 389.28125 0 
L 0 0 
z
" style="fill:none;"/>
  </g>
  <g id="axes_1">
   <g id="patch_2">
    <path d="M 43.78125 228.14 
L 378.58125 228.14 
L 378.58125 10.7 
L 43.78125 10.7 
z
" style="fill:none;"/>
   </g>
   <g id="matplotlib.axis_1">
    <g id="xtick_1">
     <g id="line2d_1">
      <defs>
       <path d="M 0 0 
L 0 3.5 
" id="mceec1d6a01" style="stroke:#262626;stroke-width:0.8;"/>
      </defs>
      <g>
       <use style="fill:#262626;stroke:#262626;stroke-width:0.8;" x="58.999432" xlink:href="#mceec1d6a01" y="228.14"/>
      </g>
     </g>
     <g id="text_1">
      <!-- 0 -->
      <defs>
       <path d="M 31.78125 66.40625 
Q 24.171875 66.40625 20.328125 58.90625 
Q 16.5 51.421875 16.5 36.375 
Q 16.5 21.390625 20.328125 13.890625 
Q 24.171875 6.390625 31.78125 6.390625 
Q 39.453125 6.390625 43.28125 13.890625 
Q 47.125 21.390625 47.125 36.375 
Q 47.125 51.421875 43.28125 58.90625 
Q 39.453125 66.40625 31.78125 66.40625 
z
M 31.78125 74.21875 
Q 44.046875 74.21875 50.515625 64.515625 
Q 56.984375 54.828125 56.984375 36.375 
Q 56.984375 17.96875 50.515625 8.265625 
Q 44.046875 -1.421875 31.78125 -1.421875 
Q 19.53125 -1.421875 13.0625 8.265625 
Q 6.59375 17.96875 6.59375 36.375 
Q 6.59375 54.828125 13.0625 64.515625 
Q 19.53125 74.21875 31.78125 74.21875 
z
" id="DejaVuSans-48"/>
      </defs>
      <g style="fill:#262626;" transform="translate(55.818182 242.738437)scale(0.1 -0.1)">
       <use xlink:href="#DejaVuSans-48"/>
      </g>
     </g>
    </g>
    <g id="xtick_2">
     <g id="line2d_2">
      <g>
       <use style="fill:#262626;stroke:#262626;stroke-width:0.8;" x="119.872159" xlink:href="#mceec1d6a01" y="228.14"/>
      </g>
     </g>
     <g id="text_2">
      <!-- 20 -->
      <defs>
       <path d="M 19.1875 8.296875 
L 53.609375 8.296875 
L 53.609375 0 
L 7.328125 0 
L 7.328125 8.296875 
Q 12.9375 14.109375 22.625 23.890625 
Q 32.328125 33.6875 34.8125 36.53125 
Q 39.546875 41.84375 41.421875 45.53125 
Q 43.3125 49.21875 43.3125 52.78125 
Q 43.3125 58.59375 39.234375 62.25 
Q 35.15625 65.921875 28.609375 65.921875 
Q 23.96875 65.921875 18.8125 64.3125 
Q 13.671875 62.703125 7.8125 59.421875 
L 7.8125 69.390625 
Q 13.765625 71.78125 18.9375 73 
Q 24.125 74.21875 28.421875 74.21875 
Q 39.75 74.21875 46.484375 68.546875 
Q 53.21875 62.890625 53.21875 53.421875 
Q 53.21875 48.921875 51.53125 44.890625 
Q 49.859375 40.875 45.40625 35.40625 
Q 44.1875 33.984375 37.640625 27.21875 
Q 31.109375 20.453125 19.1875 8.296875 
z
" id="DejaVuSans-50"/>
      </defs>
      <g style="fill:#262626;" transform="translate(113.509659 242.738437)scale(0.1 -0.1)">
       <use xlink:href="#DejaVuSans-50"/>
       <use x="63.623047" xlink:href="#DejaVuSans-48"/>
      </g>
     </g>
    </g>
    <g id="xtick_3">
     <g id="line2d_3">
      <g>
       <use style="fill:#262626;stroke:#262626;stroke-width:0.8;" x="180.744886" xlink:href="#mceec1d6a01" y="228.14"/>
      </g>
     </g>
     <g id="text_3">
      <!-- 40 -->
      <defs>
       <path d="M 37.796875 64.3125 
L 12.890625 25.390625 
L 37.796875 25.390625 
z
M 35.203125 72.90625 
L 47.609375 72.90625 
L 47.609375 25.390625 
L 58.015625 25.390625 
L 58.015625 17.1875 
L 47.609375 17.1875 
L 47.609375 0 
L 37.796875 0 
L 37.796875 17.1875 
L 4.890625 17.1875 
L 4.890625 26.703125 
z
" id="DejaVuSans-52"/>
      </defs>
      <g style="fill:#262626;" transform="translate(174.382386 242.738437)scale(0.1 -0.1)">
       <use xlink:href="#DejaVuSans-52"/>
       <use x="63.623047" xlink:href="#DejaVuSans-48"/>
      </g>
     </g>
    </g>
    <g id="xtick_4">
     <g id="line2d_4">
      <g>
       <use style="fill:#262626;stroke:#262626;stroke-width:0.8;" x="241.617614" xlink:href="#mceec1d6a01" y="228.14"/>
      </g>
     </g>
     <g id="text_4">
      <!-- 60 -->
      <defs>
       <path d="M 33.015625 40.375 
Q 26.375 40.375 22.484375 35.828125 
Q 18.609375 31.296875 18.609375 23.390625 
Q 18.609375 15.53125 22.484375 10.953125 
Q 26.375 6.390625 33.015625 6.390625 
Q 39.65625 6.390625 43.53125 10.953125 
Q 47.40625 15.53125 47.40625 23.390625 
Q 47.40625 31.296875 43.53125 35.828125 
Q 39.65625 40.375 33.015625 40.375 
z
M 52.59375 71.296875 
L 52.59375 62.3125 
Q 48.875 64.0625 45.09375 64.984375 
Q 41.3125 65.921875 37.59375 65.921875 
Q 27.828125 65.921875 22.671875 59.328125 
Q 17.53125 52.734375 16.796875 39.40625 
Q 19.671875 43.65625 24.015625 45.921875 
Q 28.375 48.1875 33.59375 48.1875 
Q 44.578125 48.1875 50.953125 41.515625 
Q 57.328125 34.859375 57.328125 23.390625 
Q 57.328125 12.15625 50.6875 5.359375 
Q 44.046875 -1.421875 33.015625 -1.421875 
Q 20.359375 -1.421875 13.671875 8.265625 
Q 6.984375 17.96875 6.984375 36.375 
Q 6.984375 53.65625 15.1875 63.9375 
Q 23.390625 74.21875 37.203125 74.21875 
Q 40.921875 74.21875 44.703125 73.484375 
Q 48.484375 72.75 52.59375 71.296875 
z
" id="DejaVuSans-54"/>
      </defs>
      <g style="fill:#262626;" transform="translate(235.255114 242.738437)scale(0.1 -0.1)">
       <use xlink:href="#DejaVuSans-54"/>
       <use x="63.623047" xlink:href="#DejaVuSans-48"/>
      </g>
     </g>
    </g>
    <g id="xtick_5">
     <g id="line2d_5">
      <g>
       <use style="fill:#262626;stroke:#262626;stroke-width:0.8;" x="302.490341" xlink:href="#mceec1d6a01" y="228.14"/>
      </g>
     </g>
     <g id="text_5">
      <!-- 80 -->
      <defs>
       <path d="M 31.78125 34.625 
Q 24.75 34.625 20.71875 30.859375 
Q 16.703125 27.09375 16.703125 20.515625 
Q 16.703125 13.921875 20.71875 10.15625 
Q 24.75 6.390625 31.78125 6.390625 
Q 38.8125 6.390625 42.859375 10.171875 
Q 46.921875 13.96875 46.921875 20.515625 
Q 46.921875 27.09375 42.890625 30.859375 
Q 38.875 34.625 31.78125 34.625 
z
M 21.921875 38.8125 
Q 15.578125 40.375 12.03125 44.71875 
Q 8.5 49.078125 8.5 55.328125 
Q 8.5 64.0625 14.71875 69.140625 
Q 20.953125 74.21875 31.78125 74.21875 
Q 42.671875 74.21875 48.875 69.140625 
Q 55.078125 64.0625 55.078125 55.328125 
Q 55.078125 49.078125 51.53125 44.71875 
Q 48 40.375 41.703125 38.8125 
Q 48.828125 37.15625 52.796875 32.3125 
Q 56.78125 27.484375 56.78125 20.515625 
Q 56.78125 9.90625 50.3125 4.234375 
Q 43.84375 -1.421875 31.78125 -1.421875 
Q 19.734375 -1.421875 13.25 4.234375 
Q 6.78125 9.90625 6.78125 20.515625 
Q 6.78125 27.484375 10.78125 32.3125 
Q 14.796875 37.15625 21.921875 38.8125 
z
M 18.3125 54.390625 
Q 18.3125 48.734375 21.84375 45.5625 
Q 25.390625 42.390625 31.78125 42.390625 
Q 38.140625 42.390625 41.71875 45.5625 
Q 45.3125 48.734375 45.3125 54.390625 
Q 45.3125 60.0625 41.71875 63.234375 
Q 38.140625 66.40625 31.78125 66.40625 
Q 25.390625 66.40625 21.84375 63.234375 
Q 18.3125 60.0625 18.3125 54.390625 
z
" id="DejaVuSans-56"/>
      </defs>
      <g style="fill:#262626;" transform="translate(296.127841 242.738437)scale(0.1 -0.1)">
       <use xlink:href="#DejaVuSans-56"/>
       <use x="63.623047" xlink:href="#DejaVuSans-48"/>
      </g>
     </g>
    </g>
    <g id="xtick_6">
     <g id="line2d_6">
      <g>
       <use style="fill:#262626;stroke:#262626;stroke-width:0.8;" x="363.363068" xlink:href="#mceec1d6a01" y="228.14"/>
      </g>
     </g>
     <g id="text_6">
      <!-- 100 -->
      <defs>
       <path d="M 12.40625 8.296875 
L 28.515625 8.296875 
L 28.515625 63.921875 
L 10.984375 60.40625 
L 10.984375 69.390625 
L 28.421875 72.90625 
L 38.28125 72.90625 
L 38.28125 8.296875 
L 54.390625 8.296875 
L 54.390625 0 
L 12.40625 0 
z
" id="DejaVuSans-49"/>
      </defs>
      <g style="fill:#262626;" transform="translate(353.819318 242.738437)scale(0.1 -0.1)">
       <use xlink:href="#DejaVuSans-49"/>
       <use x="63.623047" xlink:href="#DejaVuSans-48"/>
       <use x="127.246094" xlink:href="#DejaVuSans-48"/>
      </g>
     </g>
    </g>
    <g id="text_7">
     <!-- N samples -->
     <defs>
      <path d="M 9.8125 72.90625 
L 23.09375 72.90625 
L 55.421875 11.921875 
L 55.421875 72.90625 
L 64.984375 72.90625 
L 64.984375 0 
L 51.703125 0 
L 19.390625 60.984375 
L 19.390625 0 
L 9.8125 0 
z
" id="DejaVuSans-78"/>
      <path id="DejaVuSans-32"/>
      <path d="M 44.28125 53.078125 
L 44.28125 44.578125 
Q 40.484375 46.53125 36.375 47.5 
Q 32.28125 48.484375 27.875 48.484375 
Q 21.1875 48.484375 17.84375 46.4375 
Q 14.5 44.390625 14.5 40.28125 
Q 14.5 37.15625 16.890625 35.375 
Q 19.28125 33.59375 26.515625 31.984375 
L 29.59375 31.296875 
Q 39.15625 29.25 43.1875 25.515625 
Q 47.21875 21.78125 47.21875 15.09375 
Q 47.21875 7.46875 41.1875 3.015625 
Q 35.15625 -1.421875 24.609375 -1.421875 
Q 20.21875 -1.421875 15.453125 -0.5625 
Q 10.6875 0.296875 5.421875 2 
L 5.421875 11.28125 
Q 10.40625 8.6875 15.234375 7.390625 
Q 20.0625 6.109375 24.8125 6.109375 
Q 31.15625 6.109375 34.5625 8.28125 
Q 37.984375 10.453125 37.984375 14.40625 
Q 37.984375 18.0625 35.515625 20.015625 
Q 33.0625 21.96875 24.703125 23.78125 
L 21.578125 24.515625 
Q 13.234375 26.265625 9.515625 29.90625 
Q 5.8125 33.546875 5.8125 39.890625 
Q 5.8125 47.609375 11.28125 51.796875 
Q 16.75 56 26.8125 56 
Q 31.78125 56 36.171875 55.265625 
Q 40.578125 54.546875 44.28125 53.078125 
z
" id="DejaVuSans-115"/>
      <path d="M 34.28125 27.484375 
Q 23.390625 27.484375 19.1875 25 
Q 14.984375 22.515625 14.984375 16.5 
Q 14.984375 11.71875 18.140625 8.90625 
Q 21.296875 6.109375 26.703125 6.109375 
Q 34.1875 6.109375 38.703125 11.40625 
Q 43.21875 16.703125 43.21875 25.484375 
L 43.21875 27.484375 
z
M 52.203125 31.203125 
L 52.203125 0 
L 43.21875 0 
L 43.21875 8.296875 
Q 40.140625 3.328125 35.546875 0.953125 
Q 30.953125 -1.421875 24.3125 -1.421875 
Q 15.921875 -1.421875 10.953125 3.296875 
Q 6 8.015625 6 15.921875 
Q 6 25.140625 12.171875 29.828125 
Q 18.359375 34.515625 30.609375 34.515625 
L 43.21875 34.515625 
L 43.21875 35.40625 
Q 43.21875 41.609375 39.140625 45 
Q 35.0625 48.390625 27.6875 48.390625 
Q 23 48.390625 18.546875 47.265625 
Q 14.109375 46.140625 10.015625 43.890625 
L 10.015625 52.203125 
Q 14.9375 54.109375 19.578125 55.046875 
Q 24.21875 56 28.609375 56 
Q 40.484375 56 46.34375 49.84375 
Q 52.203125 43.703125 52.203125 31.203125 
z
" id="DejaVuSans-97"/>
      <path d="M 52 44.1875 
Q 55.375 50.25 60.0625 53.125 
Q 64.75 56 71.09375 56 
Q 79.640625 56 84.28125 50.015625 
Q 88.921875 44.046875 88.921875 33.015625 
L 88.921875 0 
L 79.890625 0 
L 79.890625 32.71875 
Q 79.890625 40.578125 77.09375 44.375 
Q 74.3125 48.1875 68.609375 48.1875 
Q 61.625 48.1875 57.5625 43.546875 
Q 53.515625 38.921875 53.515625 30.90625 
L 53.515625 0 
L 44.484375 0 
L 44.484375 32.71875 
Q 44.484375 40.625 41.703125 44.40625 
Q 38.921875 48.1875 33.109375 48.1875 
Q 26.21875 48.1875 22.15625 43.53125 
Q 18.109375 38.875 18.109375 30.90625 
L 18.109375 0 
L 9.078125 0 
L 9.078125 54.6875 
L 18.109375 54.6875 
L 18.109375 46.1875 
Q 21.1875 51.21875 25.484375 53.609375 
Q 29.78125 56 35.6875 56 
Q 41.65625 56 45.828125 52.96875 
Q 50 49.953125 52 44.1875 
z
" id="DejaVuSans-109"/>
      <path d="M 18.109375 8.203125 
L 18.109375 -20.796875 
L 9.078125 -20.796875 
L 9.078125 54.6875 
L 18.109375 54.6875 
L 18.109375 46.390625 
Q 20.953125 51.265625 25.265625 53.625 
Q 29.59375 56 35.59375 56 
Q 45.5625 56 51.78125 48.09375 
Q 58.015625 40.1875 58.015625 27.296875 
Q 58.015625 14.40625 51.78125 6.484375 
Q 45.5625 -1.421875 35.59375 -1.421875 
Q 29.59375 -1.421875 25.265625 0.953125 
Q 20.953125 3.328125 18.109375 8.203125 
z
M 48.6875 27.296875 
Q 48.6875 37.203125 44.609375 42.84375 
Q 40.53125 48.484375 33.40625 48.484375 
Q 26.265625 48.484375 22.1875 42.84375 
Q 18.109375 37.203125 18.109375 27.296875 
Q 18.109375 17.390625 22.1875 11.75 
Q 26.265625 6.109375 33.40625 6.109375 
Q 40.53125 6.109375 44.609375 11.75 
Q 48.6875 17.390625 48.6875 27.296875 
z
" id="DejaVuSans-112"/>
      <path d="M 9.421875 75.984375 
L 18.40625 75.984375 
L 18.40625 0 
L 9.421875 0 
z
" id="DejaVuSans-108"/>
      <path d="M 56.203125 29.59375 
L 56.203125 25.203125 
L 14.890625 25.203125 
Q 15.484375 15.921875 20.484375 11.0625 
Q 25.484375 6.203125 34.421875 6.203125 
Q 39.59375 6.203125 44.453125 7.46875 
Q 49.3125 8.734375 54.109375 11.28125 
L 54.109375 2.78125 
Q 49.265625 0.734375 44.1875 -0.34375 
Q 39.109375 -1.421875 33.890625 -1.421875 
Q 20.796875 -1.421875 13.15625 6.1875 
Q 5.515625 13.8125 5.515625 26.8125 
Q 5.515625 40.234375 12.765625 48.109375 
Q 20.015625 56 32.328125 56 
Q 43.359375 56 49.78125 48.890625 
Q 56.203125 41.796875 56.203125 29.59375 
z
M 47.21875 32.234375 
Q 47.125 39.59375 43.09375 43.984375 
Q 39.0625 48.390625 32.421875 48.390625 
Q 24.90625 48.390625 20.390625 44.140625 
Q 15.875 39.890625 15.1875 32.171875 
z
" id="DejaVuSans-101"/>
     </defs>
     <g style="fill:#262626;" transform="translate(185.067969 256.416562)scale(0.1 -0.1)">
      <use xlink:href="#DejaVuSans-78"/>
      <use x="74.804688" xlink:href="#DejaVuSans-32"/>
      <use x="106.591797" xlink:href="#DejaVuSans-115"/>
      <use x="158.691406" xlink:href="#DejaVuSans-97"/>
      <use x="219.970703" xlink:href="#DejaVuSans-109"/>
      <use x="317.382812" xlink:href="#DejaVuSans-112"/>
      <use x="380.859375" xlink:href="#DejaVuSans-108"/>
      <use x="408.642578" xlink:href="#DejaVuSans-101"/>
      <use x="470.166016" xlink:href="#DejaVuSans-115"/>
     </g>
    </g>
   </g>
   <g id="matplotlib.axis_2">
    <g id="ytick_1">
     <g id="line2d_7">
      <defs>
       <path d="M 0 0 
L -3.5 0 
" id="m07d9fd9414" style="stroke:#262626;stroke-width:0.8;"/>
      </defs>
      <g>
       <use style="fill:#262626;stroke:#262626;stroke-width:0.8;" x="43.78125" xlink:href="#m07d9fd9414" y="218.557"/>
      </g>
     </g>
     <g id="text_8">
      <!-- 0.0 -->
      <defs>
       <path d="M 10.6875 12.40625 
L 21 12.40625 
L 21 0 
L 10.6875 0 
z
" id="DejaVuSans-46"/>
      </defs>
      <g style="fill:#262626;" transform="translate(20.878125 222.356219)scale(0.1 -0.1)">
       <use xlink:href="#DejaVuSans-48"/>
       <use x="63.623047" xlink:href="#DejaVuSans-46"/>
       <use x="95.410156" xlink:href="#DejaVuSans-48"/>
      </g>
     </g>
    </g>
    <g id="ytick_2">
     <g id="line2d_8">
      <g>
       <use style="fill:#262626;stroke:#262626;stroke-width:0.8;" x="43.78125" xlink:href="#m07d9fd9414" y="183.567618"/>
      </g>
     </g>
     <g id="text_9">
      <!-- 0.1 -->
      <g style="fill:#262626;" transform="translate(20.878125 187.366836)scale(0.1 -0.1)">
       <use xlink:href="#DejaVuSans-48"/>
       <use x="63.623047" xlink:href="#DejaVuSans-46"/>
       <use x="95.410156" xlink:href="#DejaVuSans-49"/>
      </g>
     </g>
    </g>
    <g id="ytick_3">
     <g id="line2d_9">
      <g>
       <use style="fill:#262626;stroke:#262626;stroke-width:0.8;" x="43.78125" xlink:href="#m07d9fd9414" y="148.578236"/>
      </g>
     </g>
     <g id="text_10">
      <!-- 0.2 -->
      <g style="fill:#262626;" transform="translate(20.878125 152.377454)scale(0.1 -0.1)">
       <use xlink:href="#DejaVuSans-48"/>
       <use x="63.623047" xlink:href="#DejaVuSans-46"/>
       <use x="95.410156" xlink:href="#DejaVuSans-50"/>
      </g>
     </g>
    </g>
    <g id="ytick_4">
     <g id="line2d_10">
      <g>
       <use style="fill:#262626;stroke:#262626;stroke-width:0.8;" x="43.78125" xlink:href="#m07d9fd9414" y="113.588853"/>
      </g>
     </g>
     <g id="text_11">
      <!-- 0.3 -->
      <defs>
       <path d="M 40.578125 39.3125 
Q 47.65625 37.796875 51.625 33 
Q 55.609375 28.21875 55.609375 21.1875 
Q 55.609375 10.40625 48.1875 4.484375 
Q 40.765625 -1.421875 27.09375 -1.421875 
Q 22.515625 -1.421875 17.65625 -0.515625 
Q 12.796875 0.390625 7.625 2.203125 
L 7.625 11.71875 
Q 11.71875 9.328125 16.59375 8.109375 
Q 21.484375 6.890625 26.8125 6.890625 
Q 36.078125 6.890625 40.9375 10.546875 
Q 45.796875 14.203125 45.796875 21.1875 
Q 45.796875 27.640625 41.28125 31.265625 
Q 36.765625 34.90625 28.71875 34.90625 
L 20.21875 34.90625 
L 20.21875 43.015625 
L 29.109375 43.015625 
Q 36.375 43.015625 40.234375 45.921875 
Q 44.09375 48.828125 44.09375 54.296875 
Q 44.09375 59.90625 40.109375 62.90625 
Q 36.140625 65.921875 28.71875 65.921875 
Q 24.65625 65.921875 20.015625 65.03125 
Q 15.375 64.15625 9.8125 62.3125 
L 9.8125 71.09375 
Q 15.4375 72.65625 20.34375 73.4375 
Q 25.25 74.21875 29.59375 74.21875 
Q 40.828125 74.21875 47.359375 69.109375 
Q 53.90625 64.015625 53.90625 55.328125 
Q 53.90625 49.265625 50.4375 45.09375 
Q 46.96875 40.921875 40.578125 39.3125 
z
" id="DejaVuSans-51"/>
      </defs>
      <g style="fill:#262626;" transform="translate(20.878125 117.388072)scale(0.1 -0.1)">
       <use xlink:href="#DejaVuSans-48"/>
       <use x="63.623047" xlink:href="#DejaVuSans-46"/>
       <use x="95.410156" xlink:href="#DejaVuSans-51"/>
      </g>
     </g>
    </g>
    <g id="ytick_5">
     <g id="line2d_11">
      <g>
       <use style="fill:#262626;stroke:#262626;stroke-width:0.8;" x="43.78125" xlink:href="#m07d9fd9414" y="78.599471"/>
      </g>
     </g>
     <g id="text_12">
      <!-- 0.4 -->
      <g style="fill:#262626;" transform="translate(20.878125 82.39869)scale(0.1 -0.1)">
       <use xlink:href="#DejaVuSans-48"/>
       <use x="63.623047" xlink:href="#DejaVuSans-46"/>
       <use x="95.410156" xlink:href="#DejaVuSans-52"/>
      </g>
     </g>
    </g>
    <g id="ytick_6">
     <g id="line2d_12">
      <g>
       <use style="fill:#262626;stroke:#262626;stroke-width:0.8;" x="43.78125" xlink:href="#m07d9fd9414" y="43.610089"/>
      </g>
     </g>
     <g id="text_13">
      <!-- 0.5 -->
      <defs>
       <path d="M 10.796875 72.90625 
L 49.515625 72.90625 
L 49.515625 64.59375 
L 19.828125 64.59375 
L 19.828125 46.734375 
Q 21.96875 47.46875 24.109375 47.828125 
Q 26.265625 48.1875 28.421875 48.1875 
Q 40.625 48.1875 47.75 41.5 
Q 54.890625 34.8125 54.890625 23.390625 
Q 54.890625 11.625 47.5625 5.09375 
Q 40.234375 -1.421875 26.90625 -1.421875 
Q 22.3125 -1.421875 17.546875 -0.640625 
Q 12.796875 0.140625 7.71875 1.703125 
L 7.71875 11.625 
Q 12.109375 9.234375 16.796875 8.0625 
Q 21.484375 6.890625 26.703125 6.890625 
Q 35.15625 6.890625 40.078125 11.328125 
Q 45.015625 15.765625 45.015625 23.390625 
Q 45.015625 31 40.078125 35.4375 
Q 35.15625 39.890625 26.703125 39.890625 
Q 22.75 39.890625 18.8125 39.015625 
Q 14.890625 38.140625 10.796875 36.28125 
z
" id="DejaVuSans-53"/>
      </defs>
      <g style="fill:#262626;" transform="translate(20.878125 47.409308)scale(0.1 -0.1)">
       <use xlink:href="#DejaVuSans-48"/>
       <use x="63.623047" xlink:href="#DejaVuSans-46"/>
       <use x="95.410156" xlink:href="#DejaVuSans-53"/>
      </g>
     </g>
    </g>
    <g id="text_14">
     <!-- p-value -->
     <defs>
      <path d="M 4.890625 31.390625 
L 31.203125 31.390625 
L 31.203125 23.390625 
L 4.890625 23.390625 
z
" id="DejaVuSans-45"/>
      <path d="M 2.984375 54.6875 
L 12.5 54.6875 
L 29.59375 8.796875 
L 46.6875 54.6875 
L 56.203125 54.6875 
L 35.6875 0 
L 23.484375 0 
z
" id="DejaVuSans-118"/>
      <path d="M 8.5 21.578125 
L 8.5 54.6875 
L 17.484375 54.6875 
L 17.484375 21.921875 
Q 17.484375 14.15625 20.5 10.265625 
Q 23.53125 6.390625 29.59375 6.390625 
Q 36.859375 6.390625 41.078125 11.03125 
Q 45.3125 15.671875 45.3125 23.6875 
L 45.3125 54.6875 
L 54.296875 54.6875 
L 54.296875 0 
L 45.3125 0 
L 45.3125 8.40625 
Q 42.046875 3.421875 37.71875 1 
Q 33.40625 -1.421875 27.6875 -1.421875 
Q 18.265625 -1.421875 13.375 4.4375 
Q 8.5 10.296875 8.5 21.578125 
z
M 31.109375 56 
z
" id="DejaVuSans-117"/>
     </defs>
     <g style="fill:#262626;" transform="translate(14.798438 138.054375)rotate(-90)scale(0.1 -0.1)">
      <use xlink:href="#DejaVuSans-112"/>
      <use x="63.476562" xlink:href="#DejaVuSans-45"/>
      <use x="99.529297" xlink:href="#DejaVuSans-118"/>
      <use x="158.708984" xlink:href="#DejaVuSans-97"/>
      <use x="219.988281" xlink:href="#DejaVuSans-108"/>
      <use x="247.771484" xlink:href="#DejaVuSans-117"/>
      <use x="311.150391" xlink:href="#DejaVuSans-101"/>
     </g>
    </g>
   </g>
   <g id="PolyCollection_1">
    <defs>
     <path d="M 68.130341 -237.255841 
L 68.130341 -219.26049 
L 71.173977 -225.467856 
L 74.217614 -222.166825 
L 77.26125 -214.588827 
L 80.304886 -213.72664 
L 83.348523 -210.088351 
L 86.392159 -210.18069 
L 89.435795 -211.162715 
L 92.479432 -209.054031 
L 95.523068 -215.060875 
L 98.566705 -215.983903 
L 101.610341 -216.709702 
L 104.653977 -215.529151 
L 107.697614 -214.982018 
L 110.74125 -215.36416 
L 113.784886 -216.319326 
L 116.828523 -214.244826 
L 119.872159 -214.844077 
L 122.915795 -216.490233 
L 125.959432 -215.980666 
L 129.003068 -215.907425 
L 132.046705 -216.133135 
L 135.090341 -214.043024 
L 138.133977 -212.759233 
L 141.177614 -213.808899 
L 144.22125 -214.263994 
L 147.264886 -214.803889 
L 150.308523 -214.953338 
L 153.352159 -215.119146 
L 156.395795 -212.886238 
L 159.439432 -214.823928 
L 162.483068 -212.253387 
L 165.526705 -211.356861 
L 168.570341 -211.735583 
L 171.613977 -212.394132 
L 174.657614 -214.711575 
L 177.70125 -213.469171 
L 180.744886 -213.385254 
L 183.788523 -213.713161 
L 186.832159 -212.918118 
L 189.875795 -211.260021 
L 192.919432 -213.030982 
L 195.963068 -211.589639 
L 199.006705 -210.69152 
L 202.050341 -212.791804 
L 205.093977 -213.875705 
L 208.137614 -211.381749 
L 211.18125 -211.568528 
L 214.224886 -212.112988 
L 217.268523 -212.644499 
L 220.312159 -211.726769 
L 223.355795 -211.200215 
L 226.399432 -211.485872 
L 229.443068 -210.170055 
L 232.486705 -208.020421 
L 235.530341 -208.799072 
L 238.573977 -206.969695 
L 241.617614 -207.271892 
L 244.66125 -207.118508 
L 247.704886 -206.714509 
L 250.748523 -205.451223 
L 253.792159 -203.962566 
L 256.835795 -204.902532 
L 259.879432 -205.263947 
L 262.923068 -206.290938 
L 265.966705 -206.12919 
L 269.010341 -205.448585 
L 272.053977 -205.909615 
L 275.097614 -204.437921 
L 278.14125 -205.762571 
L 281.184886 -205.364504 
L 284.228523 -205.117491 
L 287.272159 -205.578696 
L 290.315795 -204.722139 
L 293.359432 -205.470831 
L 296.403068 -206.980011 
L 299.446705 -208.396944 
L 302.490341 -208.281627 
L 305.533977 -208.820867 
L 308.577614 -208.658698 
L 311.62125 -208.259293 
L 314.664886 -208.692453 
L 317.708523 -209.126545 
L 320.752159 -208.032077 
L 323.795795 -208.119403 
L 326.839432 -207.764688 
L 329.883068 -207.626475 
L 332.926705 -207.812699 
L 335.970341 -208.285728 
L 339.013977 -206.836809 
L 342.057614 -207.834827 
L 345.10125 -208.827162 
L 348.144886 -207.7519 
L 351.188523 -207.776224 
L 354.232159 -209.433676 
L 357.275795 -210.102369 
L 360.319432 -210.188458 
L 360.319432 -226.910856 
L 360.319432 -226.910856 
L 357.275795 -226.714975 
L 354.232159 -226.785699 
L 351.188523 -225.662435 
L 348.144886 -225.517505 
L 345.10125 -225.829281 
L 342.057614 -224.978824 
L 339.013977 -225.176148 
L 335.970341 -224.819943 
L 332.926705 -225.64111 
L 329.883068 -225.560834 
L 326.839432 -225.360607 
L 323.795795 -225.007923 
L 320.752159 -225.668844 
L 317.708523 -226.53173 
L 314.664886 -225.635233 
L 311.62125 -225.984868 
L 308.577614 -225.777047 
L 305.533977 -225.320034 
L 302.490341 -225.133279 
L 299.446705 -226.322305 
L 296.403068 -224.188382 
L 293.359432 -222.185638 
L 290.315795 -221.692248 
L 287.272159 -222.531085 
L 284.228523 -222.094357 
L 281.184886 -223.468468 
L 278.14125 -223.522661 
L 275.097614 -222.560848 
L 272.053977 -223.604812 
L 269.010341 -224.038134 
L 265.966705 -224.483402 
L 262.923068 -223.474837 
L 259.879432 -223.331661 
L 256.835795 -222.834931 
L 253.792159 -222.765597 
L 250.748523 -223.194588 
L 247.704886 -224.724149 
L 244.66125 -224.885423 
L 241.617614 -225.414469 
L 238.573977 -225.459324 
L 235.530341 -226.409453 
L 232.486705 -226.613319 
L 229.443068 -227.335049 
L 226.399432 -229.112054 
L 223.355795 -229.565464 
L 220.312159 -230.58604 
L 217.268523 -229.643571 
L 214.224886 -229.954766 
L 211.18125 -229.468635 
L 208.137614 -229.858441 
L 205.093977 -230.711138 
L 202.050341 -229.706687 
L 199.006705 -228.456465 
L 195.963068 -229.225889 
L 192.919432 -229.930025 
L 189.875795 -229.595257 
L 186.832159 -230.941813 
L 183.788523 -231.285111 
L 180.744886 -231.091203 
L 177.70125 -231.208036 
L 174.657614 -232.785797 
L 171.613977 -231.112877 
L 168.570341 -230.490072 
L 165.526705 -230.858724 
L 162.483068 -229.852211 
L 159.439432 -232.338172 
L 156.395795 -231.297614 
L 153.352159 -232.259544 
L 150.308523 -232.656093 
L 147.264886 -233.366121 
L 144.22125 -232.260683 
L 141.177614 -231.642079 
L 138.133977 -230.281797 
L 135.090341 -231.425943 
L 132.046705 -232.148487 
L 129.003068 -234.11815 
L 125.959432 -234.101741 
L 122.915795 -233.682641 
L 119.872159 -232.208584 
L 116.828523 -232.396544 
L 113.784886 -234.586828 
L 110.74125 -233.474536 
L 107.697614 -233.45026 
L 104.653977 -233.634616 
L 101.610341 -234.589278 
L 98.566705 -235.247355 
L 95.523068 -233.850107 
L 92.479432 -226.803374 
L 89.435795 -228.382149 
L 86.392159 -227.996077 
L 83.348523 -228.131158 
L 80.304886 -231.070334 
L 77.26125 -231.690533 
L 74.217614 -240.388359 
L 71.173977 -245.112614 
L 68.130341 -237.255841 
z
" id="ma8cdaced2e" style="stroke:#909090;stroke-opacity:0.2;"/>
    </defs>
    <g clip-path="url(#p4719d41e38)">
     <use style="fill:#909090;fill-opacity:0.2;stroke:#909090;stroke-opacity:0.2;" x="0" xlink:href="#ma8cdaced2e" y="265.69625"/>
    </g>
   </g>
   <g id="PolyCollection_2">
    <defs>
     <path d="M 68.130341 -227.128011 
L 68.130341 -209.216282 
L 71.173977 -218.268111 
L 74.217614 -217.707723 
L 77.26125 -211.065572 
L 80.304886 -193.835006 
L 83.348523 -205.431171 
L 86.392159 -206.419304 
L 89.435795 -198.636079 
L 92.479432 -204.640875 
L 95.523068 -204.03492 
L 98.566705 -206.847785 
L 101.610341 -194.774355 
L 104.653977 -202.813765 
L 107.697614 -195.662932 
L 110.74125 -209.263359 
L 113.784886 -189.396061 
L 116.828523 -192.441092 
L 119.872159 -196.80945 
L 122.915795 -190.874921 
L 125.959432 -190.008906 
L 129.003068 -180.058345 
L 132.046705 -188.765711 
L 135.090341 -179.82141 
L 138.133977 -190.370367 
L 141.177614 -175.8206 
L 144.22125 -185.238596 
L 147.264886 -174.883788 
L 150.308523 -185.127448 
L 153.352159 -180.436726 
L 156.395795 -179.282964 
L 159.439432 -177.035456 
L 162.483068 -175.494514 
L 165.526705 -173.277983 
L 168.570341 -176.406384 
L 171.613977 -175.700426 
L 174.657614 -171.752754 
L 177.70125 -171.156249 
L 180.744886 -171.187478 
L 183.788523 -168.411353 
L 186.832159 -171.002255 
L 189.875795 -165.660386 
L 192.919432 -159.923847 
L 195.963068 -158.111925 
L 199.006705 -153.509733 
L 202.050341 -162.347657 
L 205.093977 -159.842853 
L 208.137614 -153.298758 
L 211.18125 -160.664371 
L 214.224886 -154.059984 
L 217.268523 -150.946178 
L 220.312159 -153.230855 
L 223.355795 -154.57248 
L 226.399432 -146.384552 
L 229.443068 -149.470328 
L 232.486705 -157.550216 
L 235.530341 -148.335407 
L 238.573977 -138.650882 
L 241.617614 -145.176888 
L 244.66125 -143.719934 
L 247.704886 -140.309972 
L 250.748523 -143.930876 
L 253.792159 -143.018272 
L 256.835795 -141.976068 
L 259.879432 -149.034816 
L 262.923068 -136.931838 
L 265.966705 -144.213627 
L 269.010341 -131.520792 
L 272.053977 -144.033256 
L 275.097614 -142.27356 
L 278.14125 -139.792931 
L 281.184886 -135.943201 
L 284.228523 -132.040878 
L 287.272159 -135.300446 
L 290.315795 -134.07352 
L 293.359432 -138.817185 
L 296.403068 -138.125727 
L 299.446705 -129.661709 
L 302.490341 -137.265177 
L 305.533977 -126.256512 
L 308.577614 -126.054868 
L 311.62125 -133.30617 
L 314.664886 -129.969236 
L 317.708523 -123.4613 
L 320.752159 -134.396522 
L 323.795795 -133.007243 
L 326.839432 -133.695734 
L 329.883068 -123.397358 
L 332.926705 -131.939897 
L 335.970341 -124.800296 
L 339.013977 -126.650537 
L 342.057614 -123.377967 
L 345.10125 -124.568001 
L 348.144886 -120.751971 
L 351.188523 -121.377925 
L 354.232159 -119.849716 
L 357.275795 -119.543832 
L 360.319432 -123.394544 
L 360.319432 -140.404946 
L 360.319432 -140.404946 
L 357.275795 -134.384122 
L 354.232159 -135.294916 
L 351.188523 -136.607364 
L 348.144886 -136.506408 
L 345.10125 -140.668011 
L 342.057614 -140.078694 
L 339.013977 -143.794528 
L 335.970341 -140.113677 
L 332.926705 -148.882432 
L 329.883068 -140.467345 
L 326.839432 -151.203758 
L 323.795795 -151.378014 
L 320.752159 -151.43922 
L 317.708523 -139.09316 
L 314.664886 -146.970024 
L 311.62125 -150.552034 
L 308.577614 -141.64917 
L 305.533977 -142.020588 
L 302.490341 -154.799072 
L 299.446705 -145.595258 
L 296.403068 -153.741679 
L 293.359432 -155.348042 
L 290.315795 -151.543787 
L 287.272159 -152.301039 
L 284.228523 -147.912267 
L 281.184886 -152.784946 
L 278.14125 -157.19118 
L 275.097614 -159.564948 
L 272.053977 -162.786754 
L 269.010341 -147.472724 
L 265.966705 -162.040112 
L 262.923068 -153.438329 
L 259.879432 -167.892253 
L 256.835795 -160.349505 
L 253.792159 -159.819084 
L 250.748523 -160.772993 
L 247.704886 -158.01335 
L 244.66125 -161.828968 
L 241.617614 -161.700155 
L 238.573977 -156.385237 
L 235.530341 -165.890196 
L 232.486705 -175.453078 
L 229.443068 -167.791884 
L 226.399432 -165.100974 
L 223.355795 -173.317949 
L 220.312159 -171.091735 
L 217.268523 -169.058505 
L 214.224886 -172.508542 
L 211.18125 -179.121908 
L 208.137614 -170.571306 
L 205.093977 -178.748324 
L 202.050341 -181.397569 
L 199.006705 -170.712657 
L 195.963068 -176.385178 
L 192.919432 -178.332535 
L 189.875795 -183.62164 
L 186.832159 -191.290954 
L 183.788523 -186.380202 
L 180.744886 -190.30397 
L 177.70125 -190.562237 
L 174.657614 -189.982651 
L 171.613977 -193.17871 
L 168.570341 -195.954908 
L 165.526705 -191.752476 
L 162.483068 -193.253911 
L 159.439432 -194.528802 
L 156.395795 -198.344812 
L 153.352159 -199.099496 
L 150.308523 -204.358564 
L 147.264886 -194.733149 
L 144.22125 -203.82947 
L 141.177614 -194.266291 
L 138.133977 -209.661959 
L 135.090341 -197.975358 
L 132.046705 -206.647363 
L 129.003068 -199.063546 
L 125.959432 -209.575548 
L 122.915795 -209.986263 
L 119.872159 -216.420918 
L 116.828523 -210.60274 
L 113.784886 -208.106333 
L 110.74125 -227.858281 
L 107.697614 -214.399748 
L 104.653977 -220.155153 
L 101.610341 -214.045149 
L 98.566705 -225.90479 
L 95.523068 -221.630416 
L 92.479432 -222.712035 
L 89.435795 -217.173461 
L 86.392159 -224.378121 
L 83.348523 -223.573543 
L 80.304886 -211.585942 
L 77.26125 -228.817176 
L 74.217614 -235.228171 
L 71.173977 -235.429361 
L 68.130341 -227.128011 
z
" id="m8c3a4a416f" style="stroke:#cc503e;stroke-opacity:0.2;"/>
    </defs>
    <g clip-path="url(#p4719d41e38)">
     <use style="fill:#cc503e;fill-opacity:0.2;stroke:#cc503e;stroke-opacity:0.2;" x="0" xlink:href="#m8c3a4a416f" y="265.69625"/>
    </g>
   </g>
   <g id="PolyCollection_3">
    <defs>
     <path d="M 68.130341 -232.453899 
L 68.130341 -215.20739 
L 71.173977 -204.779533 
L 74.217614 -190.739542 
L 77.26125 -180.223569 
L 80.304886 -174.296297 
L 83.348523 -172.283583 
L 86.392159 -166.406726 
L 89.435795 -163.385565 
L 92.479432 -152.101698 
L 95.523068 -153.318648 
L 98.566705 -143.601972 
L 101.610341 -134.195073 
L 104.653977 -131.265453 
L 107.697614 -127.664236 
L 110.74125 -117.586721 
L 113.784886 -108.292376 
L 116.828523 -106.697406 
L 119.872159 -101.885673 
L 122.915795 -97.996411 
L 125.959432 -96.372129 
L 129.003068 -94.165149 
L 132.046705 -92.319729 
L 135.090341 -87.535782 
L 138.133977 -88.359762 
L 141.177614 -83.331693 
L 144.22125 -83.11287 
L 147.264886 -82.78616 
L 150.308523 -79.590014 
L 153.352159 -76.389015 
L 156.395795 -74.673896 
L 159.439432 -74.394604 
L 162.483068 -73.991594 
L 165.526705 -70.764493 
L 168.570341 -66.947006 
L 171.613977 -67.824099 
L 174.657614 -65.25159 
L 177.70125 -64.112558 
L 180.744886 -63.077657 
L 183.788523 -61.150945 
L 186.832159 -60.144127 
L 189.875795 -59.01714 
L 192.919432 -59.318473 
L 195.963068 -58.953652 
L 199.006705 -58.984995 
L 202.050341 -56.476241 
L 205.093977 -57.684087 
L 208.137614 -56.903776 
L 211.18125 -55.640122 
L 214.224886 -55.545653 
L 217.268523 -54.171907 
L 220.312159 -53.746952 
L 223.355795 -53.263689 
L 226.399432 -53.081247 
L 229.443068 -53.298007 
L 232.486705 -52.087687 
L 235.530341 -52.110971 
L 238.573977 -51.978798 
L 241.617614 -51.733363 
L 244.66125 -52.529078 
L 247.704886 -51.376012 
L 250.748523 -50.774519 
L 253.792159 -50.566134 
L 256.835795 -50.675991 
L 259.879432 -50.408617 
L 262.923068 -50.245909 
L 265.966705 -49.89455 
L 269.010341 -49.53917 
L 272.053977 -49.577917 
L 275.097614 -49.117049 
L 278.14125 -48.876153 
L 281.184886 -48.860764 
L 284.228523 -49.010577 
L 287.272159 -48.729546 
L 290.315795 -48.608693 
L 293.359432 -48.584211 
L 296.403068 -48.180106 
L 299.446705 -48.22858 
L 302.490341 -48.179159 
L 305.533977 -48.162061 
L 308.577614 -48.016172 
L 311.62125 -48.122857 
L 314.664886 -47.95199 
L 317.708523 -47.957144 
L 320.752159 -47.950849 
L 323.795795 -47.976892 
L 326.839432 -47.804647 
L 329.883068 -47.856139 
L 332.926705 -47.745087 
L 335.970341 -47.779771 
L 339.013977 -47.543698 
L 342.057614 -47.603212 
L 345.10125 -47.580926 
L 348.144886 -47.532402 
L 351.188523 -47.518737 
L 354.232159 -47.487166 
L 357.275795 -47.442018 
L 360.319432 -47.439886 
L 360.319432 -47.725921 
L 360.319432 -47.725921 
L 357.275795 -47.735167 
L 354.232159 -47.988725 
L 351.188523 -48.383054 
L 348.144886 -48.328728 
L 345.10125 -48.211753 
L 342.057614 -48.130361 
L 339.013977 -48.478437 
L 335.970341 -48.9237 
L 332.926705 -48.38343 
L 329.883068 -48.607889 
L 326.839432 -48.504434 
L 323.795795 -48.970288 
L 320.752159 -48.661169 
L 317.708523 -48.548952 
L 314.664886 -48.584696 
L 311.62125 -49.270786 
L 308.577614 -48.88417 
L 305.533977 -48.98192 
L 302.490341 -48.949319 
L 299.446705 -48.955913 
L 296.403068 -48.854329 
L 293.359432 -49.680973 
L 290.315795 -50.194925 
L 287.272159 -49.775038 
L 284.228523 -50.238201 
L 281.184886 -50.198416 
L 278.14125 -50.065027 
L 275.097614 -50.650778 
L 272.053977 -51.50588 
L 269.010341 -51.123719 
L 265.966705 -51.637456 
L 262.923068 -52.294893 
L 259.879432 -52.591989 
L 256.835795 -53.254579 
L 253.792159 -53.001812 
L 250.748523 -53.233636 
L 247.704886 -53.848373 
L 244.66125 -55.944751 
L 241.617614 -54.46162 
L 238.573977 -54.801429 
L 235.530341 -54.630405 
L 232.486705 -55.235552 
L 229.443068 -56.677281 
L 226.399432 -56.331205 
L 223.355795 -56.514885 
L 220.312159 -57.133258 
L 217.268523 -58.107415 
L 214.224886 -59.819723 
L 211.18125 -59.84382 
L 208.137614 -61.726606 
L 205.093977 -63.133333 
L 202.050341 -61.7476 
L 199.006705 -64.76292 
L 195.963068 -64.364691 
L 192.919432 -64.196729 
L 189.875795 -64.229661 
L 186.832159 -65.898671 
L 183.788523 -66.869067 
L 180.744886 -69.472032 
L 177.70125 -71.72354 
L 174.657614 -71.932113 
L 171.613977 -75.547677 
L 168.570341 -74.397289 
L 165.526705 -80.12995 
L 162.483068 -83.48688 
L 159.439432 -83.557182 
L 156.395795 -84.112989 
L 153.352159 -85.937689 
L 150.308523 -89.000539 
L 147.264886 -94.137848 
L 144.22125 -93.19659 
L 141.177614 -93.54924 
L 138.133977 -99.766295 
L 135.090341 -97.93479 
L 132.046705 -103.563384 
L 129.003068 -106.128956 
L 125.959432 -109.227186 
L 122.915795 -110.75889 
L 119.872159 -114.821044 
L 116.828523 -121.043782 
L 113.784886 -122.142077 
L 110.74125 -133.233516 
L 107.697614 -142.998755 
L 104.653977 -146.553622 
L 101.610341 -148.86344 
L 98.566705 -161.896331 
L 95.523068 -170.256727 
L 92.479432 -168.973003 
L 89.435795 -181.419158 
L 86.392159 -182.586497 
L 83.348523 -188.381955 
L 80.304886 -191.634238 
L 77.26125 -198.596849 
L 74.217614 -208.801699 
L 71.173977 -223.449206 
L 68.130341 -232.453899 
z
" id="mea2f0447eb" style="stroke:#1d6996;stroke-opacity:0.2;"/>
    </defs>
    <g clip-path="url(#p4719d41e38)">
     <use style="fill:#1d6996;fill-opacity:0.2;stroke:#1d6996;stroke-opacity:0.2;" x="0" xlink:href="#mea2f0447eb" y="265.69625"/>
    </g>
   </g>
   <g id="line2d_13">
    <path clip-path="url(#p4719d41e38)" d="M 68.130341 37.401264 
L 71.173977 30.442889 
L 74.217614 34.025854 
L 77.26125 42.531686 
L 80.304886 43.048581 
L 83.348523 46.449366 
L 86.392159 46.247386 
L 89.435795 45.667399 
L 92.479432 47.532238 
L 95.523068 41.126553 
L 98.566705 40.085587 
L 101.610341 40.214805 
L 104.653977 40.793111 
L 107.697614 41.609966 
L 110.74125 41.067961 
L 113.784886 40.604106 
L 116.828523 42.734665 
L 119.872159 41.766893 
L 122.915795 40.920787 
L 125.959432 40.813321 
L 129.003068 41.041338 
L 132.046705 41.579063 
L 135.090341 43.128229 
L 138.133977 43.756274 
L 141.177614 42.898348 
L 144.22125 41.975181 
L 147.264886 41.414243 
L 150.308523 42.255268 
L 153.352159 42.408522 
L 156.395795 43.136614 
L 159.439432 41.836969 
L 162.483068 45.099067 
L 165.526705 44.95078 
L 168.570341 44.700856 
L 171.613977 43.565969 
L 174.657614 42.647156 
L 177.70125 43.56934 
L 180.744886 43.35603 
L 183.788523 43.139155 
L 186.832159 44.429643 
L 189.875795 45.625679 
L 192.919432 44.295033 
L 195.963068 45.580281 
L 199.006705 46.298368 
L 202.050341 44.351335 
L 205.093977 43.795062 
L 208.137614 45.086415 
L 211.18125 45.131357 
L 214.224886 44.810753 
L 217.268523 44.422807 
L 220.312159 44.632708 
L 223.355795 45.571406 
L 226.399432 45.407334 
L 229.443068 46.760173 
L 232.486705 48.334733 
L 235.530341 48.313346 
L 238.573977 49.731743 
L 241.617614 49.394089 
L 244.66125 49.479421 
L 247.704886 50.346639 
L 250.748523 51.367414 
L 253.792159 52.020696 
L 256.835795 52.296296 
L 259.879432 51.499589 
L 262.923068 51.184809 
L 265.966705 50.862006 
L 269.010341 50.829848 
L 272.053977 50.832401 
L 275.097614 52.120363 
L 278.14125 51.125076 
L 281.184886 51.207767 
L 284.228523 51.855761 
L 287.272159 51.564637 
L 290.315795 52.366633 
L 293.359432 51.528985 
L 296.403068 50.181629 
L 299.446705 49.104107 
L 302.490341 49.047279 
L 305.533977 48.946222 
L 308.577614 48.418537 
L 311.62125 48.223891 
L 314.664886 48.728202 
L 317.708523 47.848483 
L 320.752159 48.896747 
L 323.795795 48.547622 
L 326.839432 48.82339 
L 329.883068 48.911766 
L 332.926705 49.083523 
L 335.970341 49.424664 
L 339.013977 49.863716 
L 342.057614 49.414839 
L 345.10125 48.322615 
L 348.144886 48.51616 
L 351.188523 48.765748 
L 354.232159 47.924918 
L 357.275795 47.384833 
L 360.319432 47.058739 
" style="fill:none;stroke:#909090;stroke-linecap:round;stroke-width:1.5;"/>
   </g>
   <g id="line2d_14">
    <path clip-path="url(#p4719d41e38)" d="M 68.130341 47.573334 
L 71.173977 38.575423 
L 74.217614 39.206794 
L 77.26125 45.585454 
L 80.304886 62.764097 
L 83.348523 50.898526 
L 86.392159 50.20678 
L 89.435795 57.834916 
L 92.479432 51.764067 
L 95.523068 53.166271 
L 98.566705 49.712998 
L 101.610341 61.826952 
L 104.653977 54.152916 
L 107.697614 60.738489 
L 110.74125 46.993276 
L 113.784886 67.007821 
L 116.828523 64.036762 
L 119.872159 59.540846 
L 122.915795 65.333027 
L 125.959432 65.913112 
L 129.003068 76.493353 
L 132.046705 68.249731 
L 135.090341 76.724286 
L 138.133977 65.564561 
L 141.177614 80.725635 
L 144.22125 70.915237 
L 147.264886 80.713122 
L 150.308523 70.667276 
L 153.352159 76.298022 
L 156.395795 76.422839 
L 159.439432 80.03921 
L 162.483068 81.461279 
L 165.526705 83.381521 
L 168.570341 79.480037 
L 171.613977 81.653257 
L 174.657614 85.167581 
L 177.70125 84.760322 
L 180.744886 84.68774 
L 183.788523 88.651225 
L 186.832159 85.301811 
L 189.875795 91.054203 
L 192.919432 96.127417 
L 195.963068 97.773225 
L 199.006705 103.788737 
L 202.050341 93.863072 
L 205.093977 96.043823 
L 208.137614 103.838131 
L 211.18125 96.343252 
L 214.224886 102.316604 
L 217.268523 105.988953 
L 220.312159 103.638328 
L 223.355795 101.421677 
L 226.399432 109.72847 
L 229.443068 106.852592 
L 232.486705 99.31856 
L 235.530341 108.312121 
L 238.573977 118.416704 
L 241.617614 112.301023 
L 244.66125 113.016907 
L 247.704886 116.333892 
L 250.748523 113.201028 
L 253.792159 113.848346 
L 256.835795 114.68754 
L 259.879432 107.296035 
L 262.923068 120.274742 
L 265.966705 112.528366 
L 269.010341 126.369767 
L 272.053977 112.579187 
L 275.097614 114.947879 
L 278.14125 116.892842 
L 281.184886 121.603239 
L 284.228523 125.814373 
L 287.272159 122.34407 
L 290.315795 122.72009 
L 293.359432 118.964324 
L 296.403068 119.911623 
L 299.446705 128.121343 
L 302.490341 119.907884 
L 305.533977 131.865253 
L 308.577614 131.900053 
L 311.62125 123.838396 
L 314.664886 127.475912 
L 317.708523 134.866387 
L 320.752159 122.559502 
L 323.795795 123.202991 
L 326.839432 122.907401 
L 329.883068 133.765551 
L 332.926705 125.901888 
L 335.970341 133.148517 
L 339.013977 130.412519 
L 342.057614 133.897928 
L 345.10125 133.299393 
L 348.144886 137.33301 
L 351.188523 136.741562 
L 354.232159 138.589185 
L 357.275795 138.477549 
L 360.319432 134.03483 
" style="fill:none;stroke:#cc503e;stroke-linecap:round;stroke-width:1.5;"/>
   </g>
   <g id="line2d_15">
    <path clip-path="url(#p4719d41e38)" d="M 68.130341 41.922155 
L 71.173977 51.461521 
L 74.217614 66.49964 
L 77.26125 76.341574 
L 80.304886 82.361859 
L 83.348523 85.523232 
L 86.392159 91.324949 
L 89.435795 93.075909 
L 92.479432 104.725353 
L 95.523068 103.815831 
L 98.566705 113.098281 
L 101.610341 124.321032 
L 104.653977 126.656967 
L 107.697614 130.49493 
L 110.74125 140.547744 
L 113.784886 150.29146 
L 116.828523 151.948194 
L 119.872159 157.298397 
L 122.915795 161.747557 
L 125.959432 162.716648 
L 129.003068 165.538298 
L 132.046705 168.13766 
L 135.090341 173.049392 
L 138.133977 171.809249 
L 141.177614 177.437455 
L 144.22125 177.635328 
L 147.264886 177.552516 
L 150.308523 181.588809 
L 153.352159 184.587458 
L 156.395795 186.630507 
L 159.439432 186.698608 
L 162.483068 187.133803 
L 165.526705 190.358503 
L 168.570341 195.172419 
L 171.613977 193.946872 
L 174.657614 197.146645 
L 177.70125 198.101113 
L 180.744886 199.692914 
L 183.788523 201.762383 
L 186.832159 202.867324 
L 189.875795 204.187831 
L 192.919432 204.180414 
L 195.963068 204.116666 
L 199.006705 204.12469 
L 202.050341 206.739401 
L 205.093977 205.372786 
L 208.137614 206.452693 
L 211.18125 208.005549 
L 214.224886 208.031121 
L 217.268523 209.725173 
L 220.312159 210.36338 
L 223.355795 210.817531 
L 226.399432 211.0813 
L 229.443068 210.770276 
L 232.486705 212.119073 
L 235.530341 212.370275 
L 238.573977 212.327872 
L 241.617614 212.612147 
L 244.66125 211.584428 
L 247.704886 213.14383 
L 250.748523 213.761672 
L 253.792159 213.993377 
L 256.835795 213.848852 
L 259.879432 214.270152 
L 262.923068 214.438566 
L 265.966705 214.982156 
L 269.010341 215.421147 
L 272.053977 215.253628 
L 275.097614 215.848157 
L 278.14125 216.261409 
L 281.184886 216.225561 
L 284.228523 216.140995 
L 287.272159 216.478475 
L 290.315795 216.397304 
L 293.359432 216.579825 
L 296.403068 217.197999 
L 299.446705 217.119645 
L 302.490341 217.136135 
L 305.533977 217.158188 
L 308.577614 217.314015 
L 311.62125 217.070566 
L 314.664886 217.45445 
L 317.708523 217.465322 
L 320.752159 217.415582 
L 323.795795 217.271769 
L 326.839432 217.55298 
L 329.883068 217.489271 
L 332.926705 217.649914 
L 335.970341 217.442924 
L 339.013977 217.752525 
L 342.057614 217.850479 
L 345.10125 217.830817 
L 348.144886 217.833309 
L 351.188523 217.828813 
L 354.232159 217.991209 
L 357.275795 218.111067 
L 360.319432 218.122723 
" style="fill:none;stroke:#1d6996;stroke-linecap:round;stroke-width:1.5;"/>
   </g>
   <g id="line2d_16">
    <path clip-path="url(#p4719d41e38)" d="M 58.999432 201.062309 
L 363.363068 201.062309 
" style="fill:none;stroke:#909090;stroke-linecap:round;stroke-width:1.5;"/>
   </g>
   <g id="patch_3">
    <path d="M 43.78125 228.14 
L 43.78125 10.7 
" style="fill:none;stroke:#262626;stroke-linecap:square;stroke-linejoin:miter;stroke-width:0.8;"/>
   </g>
   <g id="patch_4">
    <path d="M 43.78125 228.14 
L 378.58125 228.14 
" style="fill:none;stroke:#262626;stroke-linecap:square;stroke-linejoin:miter;stroke-width:0.8;"/>
   </g>
   <g id="text_15">
    <!-- p: 0.05 -->
    <defs>
     <path d="M 11.71875 12.40625 
L 22.015625 12.40625 
L 22.015625 0 
L 11.71875 0 
z
M 11.71875 51.703125 
L 22.015625 51.703125 
L 22.015625 39.3125 
L 11.71875 39.3125 
z
" id="DejaVuSans-58"/>
    </defs>
    <g style="fill:#909090;" transform="translate(311.62125 197.563371)scale(0.14 -0.14)">
     <use xlink:href="#DejaVuSans-112"/>
     <use x="63.476562" xlink:href="#DejaVuSans-58"/>
     <use x="97.167969" xlink:href="#DejaVuSans-32"/>
     <use x="128.955078" xlink:href="#DejaVuSans-48"/>
     <use x="192.578125" xlink:href="#DejaVuSans-46"/>
     <use x="224.365234" xlink:href="#DejaVuSans-48"/>
     <use x="287.988281" xlink:href="#DejaVuSans-53"/>
    </g>
   </g>
   <g id="text_16">
    <!-- N$_S$(2) -->
    <defs>
     <path d="M 60.296875 70.515625 
L 58.40625 60.890625 
Q 53.46875 63.53125 48.609375 64.875 
Q 43.75 66.21875 39.203125 66.21875 
Q 30.375 66.21875 25.140625 62.359375 
Q 19.921875 58.5 19.921875 52.09375 
Q 19.921875 48.578125 21.84375 46.703125 
Q 23.78125 44.828125 31.78125 42.671875 
L 37.703125 41.21875 
Q 47.703125 38.625 51.609375 34.640625 
Q 55.515625 30.671875 55.515625 23.484375 
Q 55.515625 12.453125 46.84375 5.515625 
Q 38.1875 -1.421875 24.03125 -1.421875 
Q 18.21875 -1.421875 12.359375 -0.265625 
Q 6.5 0.875 0.59375 3.21875 
L 2.59375 13.375 
Q 8.015625 10.015625 13.453125 8.296875 
Q 18.890625 6.59375 24.3125 6.59375 
Q 33.546875 6.59375 39.109375 10.6875 
Q 44.671875 14.796875 44.671875 21.390625 
Q 44.671875 25.78125 42.453125 28.046875 
Q 40.234375 30.328125 32.90625 32.171875 
L 27 33.6875 
Q 16.890625 36.328125 13.203125 39.765625 
Q 9.515625 43.21875 9.515625 49.421875 
Q 9.515625 60.296875 17.890625 67.25 
Q 26.265625 74.21875 39.703125 74.21875 
Q 44.921875 74.21875 50.046875 73.28125 
Q 55.171875 72.359375 60.296875 70.515625 
z
" id="DejaVuSans-Oblique-83"/>
     <path d="M 31 75.875 
Q 24.46875 64.65625 21.28125 53.65625 
Q 18.109375 42.671875 18.109375 31.390625 
Q 18.109375 20.125 21.3125 9.0625 
Q 24.515625 -2 31 -13.1875 
L 23.1875 -13.1875 
Q 15.875 -1.703125 12.234375 9.375 
Q 8.59375 20.453125 8.59375 31.390625 
Q 8.59375 42.28125 12.203125 53.3125 
Q 15.828125 64.359375 23.1875 75.875 
z
" id="DejaVuSans-40"/>
     <path d="M 8.015625 75.875 
L 15.828125 75.875 
Q 23.140625 64.359375 26.78125 53.3125 
Q 30.421875 42.28125 30.421875 31.390625 
Q 30.421875 20.453125 26.78125 9.375 
Q 23.140625 -1.703125 15.828125 -13.1875 
L 8.015625 -13.1875 
Q 14.5 -2 17.703125 9.0625 
Q 20.90625 20.125 20.90625 31.390625 
Q 20.90625 42.671875 17.703125 53.65625 
Q 14.5 64.65625 8.015625 75.875 
z
" id="DejaVuSans-41"/>
    </defs>
    <g style="fill:#cc503e;" transform="translate(290.315795 92.595224)scale(0.14 -0.14)">
     <use transform="translate(0 0.125)" xlink:href="#DejaVuSans-78"/>
     <use transform="translate(75.761719 -16.28125)scale(0.7)" xlink:href="#DejaVuSans-Oblique-83"/>
     <use transform="translate(122.929688 0.125)" xlink:href="#DejaVuSans-40"/>
     <use transform="translate(161.943359 0.125)" xlink:href="#DejaVuSans-50"/>
     <use transform="translate(225.566406 0.125)" xlink:href="#DejaVuSans-41"/>
    </g>
   </g>
   <g id="text_17">
    <!-- N$_S$(10) -->
    <g style="fill:#1d6996;" transform="translate(290.315795 106.590977)scale(0.14 -0.14)">
     <use transform="translate(0 0.125)" xlink:href="#DejaVuSans-78"/>
     <use transform="translate(75.761719 -16.28125)scale(0.7)" xlink:href="#DejaVuSans-Oblique-83"/>
     <use transform="translate(122.929688 0.125)" xlink:href="#DejaVuSans-40"/>
     <use transform="translate(161.943359 0.125)" xlink:href="#DejaVuSans-49"/>
     <use transform="translate(225.566406 0.125)" xlink:href="#DejaVuSans-48"/>
     <use transform="translate(289.189453 0.125)" xlink:href="#DejaVuSans-41"/>
    </g>
   </g>
   <g id="text_18">
    <!-- N(0,1) -->
    <defs>
     <path d="M 11.71875 12.40625 
L 22.015625 12.40625 
L 22.015625 4 
L 14.015625 -11.625 
L 7.71875 -11.625 
L 11.71875 4 
z
" id="DejaVuSans-44"/>
    </defs>
    <g style="fill:#909090;" transform="translate(290.315795 78.599471)scale(0.14 -0.14)">
     <use xlink:href="#DejaVuSans-78"/>
     <use x="74.804688" xlink:href="#DejaVuSans-40"/>
     <use x="113.818359" xlink:href="#DejaVuSans-48"/>
     <use x="177.441406" xlink:href="#DejaVuSans-44"/>
     <use x="209.228516" xlink:href="#DejaVuSans-49"/>
     <use x="272.851562" xlink:href="#DejaVuSans-41"/>
    </g>
   </g>
  </g>
 </g>
 <defs>
  <clipPath id="p4719d41e38">
   <rect height="217.44" width="334.8" x="43.78125" y="10.7"/>
  </clipPath>
 </defs>
</svg>
