<?xml version="1.0" encoding="utf-8" standalone="no"?>
<!DOCTYPE svg PUBLIC "-//W3C//DTD SVG 1.1//EN"
  "http://www.w3.org/Graphics/SVG/1.1/DTD/svg11.dtd">
<!-- Created with matplotlib (https://matplotlib.org/) -->
<svg height="310.635155pt" version="1.1" viewBox="0 0 316.625 310.635155" width="316.625pt" xmlns="http://www.w3.org/2000/svg" xmlns:xlink="http://www.w3.org/1999/xlink">
 <defs>
  <style type="text/css">
*{stroke-linecap:butt;stroke-linejoin:round;}
  </style>
 </defs>
 <g id="figure_1">
  <g id="patch_1">
   <path d="M 0 310.635155 
L 316.625 310.635155 
L 316.625 0 
L 0 0 
z
" style="fill:none;"/>
  </g>
  <g id="axes_1">
   <g id="patch_2">
    <path d="M 26.925 286.75703 
L 305.925 286.75703 
L 305.925 14.95703 
L 26.925 14.95703 
z
" style="fill:none;"/>
   </g>
   <g id="matplotlib.axis_1">
    <g id="xtick_1">
     <g id="line2d_1">
      <defs>
       <path d="M 0 0 
L 0 3.5 
" id="m64a3595132" style="stroke:#262626;stroke-width:0.8;"/>
      </defs>
      <g>
       <use style="fill:#262626;stroke:#262626;stroke-width:0.8;" x="42.538168" xlink:href="#m64a3595132" y="286.75703"/>
      </g>
     </g>
     <g id="text_1">
      <!-- 0 -->
      <defs>
       <path d="M 31.78125 66.40625 
Q 24.171875 66.40625 20.328125 58.90625 
Q 16.5 51.421875 16.5 36.375 
Q 16.5 21.390625 20.328125 13.890625 
Q 24.171875 6.390625 31.78125 6.390625 
Q 39.453125 6.390625 43.28125 13.890625 
Q 47.125 21.390625 47.125 36.375 
Q 47.125 51.421875 43.28125 58.90625 
Q 39.453125 66.40625 31.78125 66.40625 
z
M 31.78125 74.21875 
Q 44.046875 74.21875 50.515625 64.515625 
Q 56.984375 54.828125 56.984375 36.375 
Q 56.984375 17.96875 50.515625 8.265625 
Q 44.046875 -1.421875 31.78125 -1.421875 
Q 19.53125 -1.421875 13.0625 8.265625 
Q 6.59375 17.96875 6.59375 36.375 
Q 6.59375 54.828125 13.0625 64.515625 
Q 19.53125 74.21875 31.78125 74.21875 
z
" id="DejaVuSans-48"/>
      </defs>
      <g style="fill:#262626;" transform="translate(39.356918 301.355468)scale(0.1 -0.1)">
       <use xlink:href="#DejaVuSans-48"/>
      </g>
     </g>
    </g>
    <g id="xtick_2">
     <g id="line2d_2">
      <g>
       <use style="fill:#262626;stroke:#262626;stroke-width:0.8;" x="92.092901" xlink:href="#m64a3595132" y="286.75703"/>
      </g>
     </g>
     <g id="text_2">
      <!-- 2 -->
      <defs>
       <path d="M 19.1875 8.296875 
L 53.609375 8.296875 
L 53.609375 0 
L 7.328125 0 
L 7.328125 8.296875 
Q 12.9375 14.109375 22.625 23.890625 
Q 32.328125 33.6875 34.8125 36.53125 
Q 39.546875 41.84375 41.421875 45.53125 
Q 43.3125 49.21875 43.3125 52.78125 
Q 43.3125 58.59375 39.234375 62.25 
Q 35.15625 65.921875 28.609375 65.921875 
Q 23.96875 65.921875 18.8125 64.3125 
Q 13.671875 62.703125 7.8125 59.421875 
L 7.8125 69.390625 
Q 13.765625 71.78125 18.9375 73 
Q 24.125 74.21875 28.421875 74.21875 
Q 39.75 74.21875 46.484375 68.546875 
Q 53.21875 62.890625 53.21875 53.421875 
Q 53.21875 48.921875 51.53125 44.890625 
Q 49.859375 40.875 45.40625 35.40625 
Q 44.1875 33.984375 37.640625 27.21875 
Q 31.109375 20.453125 19.1875 8.296875 
z
" id="DejaVuSans-50"/>
      </defs>
      <g style="fill:#262626;" transform="translate(88.911651 301.355468)scale(0.1 -0.1)">
       <use xlink:href="#DejaVuSans-50"/>
      </g>
     </g>
    </g>
    <g id="xtick_3">
     <g id="line2d_3">
      <g>
       <use style="fill:#262626;stroke:#262626;stroke-width:0.8;" x="141.647634" xlink:href="#m64a3595132" y="286.75703"/>
      </g>
     </g>
     <g id="text_3">
      <!-- 4 -->
      <defs>
       <path d="M 37.796875 64.3125 
L 12.890625 25.390625 
L 37.796875 25.390625 
z
M 35.203125 72.90625 
L 47.609375 72.90625 
L 47.609375 25.390625 
L 58.015625 25.390625 
L 58.015625 17.1875 
L 47.609375 17.1875 
L 47.609375 0 
L 37.796875 0 
L 37.796875 17.1875 
L 4.890625 17.1875 
L 4.890625 26.703125 
z
" id="DejaVuSans-52"/>
      </defs>
      <g style="fill:#262626;" transform="translate(138.466384 301.355468)scale(0.1 -0.1)">
       <use xlink:href="#DejaVuSans-52"/>
      </g>
     </g>
    </g>
    <g id="xtick_4">
     <g id="line2d_4">
      <g>
       <use style="fill:#262626;stroke:#262626;stroke-width:0.8;" x="191.202366" xlink:href="#m64a3595132" y="286.75703"/>
      </g>
     </g>
     <g id="text_4">
      <!-- 6 -->
      <defs>
       <path d="M 33.015625 40.375 
Q 26.375 40.375 22.484375 35.828125 
Q 18.609375 31.296875 18.609375 23.390625 
Q 18.609375 15.53125 22.484375 10.953125 
Q 26.375 6.390625 33.015625 6.390625 
Q 39.65625 6.390625 43.53125 10.953125 
Q 47.40625 15.53125 47.40625 23.390625 
Q 47.40625 31.296875 43.53125 35.828125 
Q 39.65625 40.375 33.015625 40.375 
z
M 52.59375 71.296875 
L 52.59375 62.3125 
Q 48.875 64.0625 45.09375 64.984375 
Q 41.3125 65.921875 37.59375 65.921875 
Q 27.828125 65.921875 22.671875 59.328125 
Q 17.53125 52.734375 16.796875 39.40625 
Q 19.671875 43.65625 24.015625 45.921875 
Q 28.375 48.1875 33.59375 48.1875 
Q 44.578125 48.1875 50.953125 41.515625 
Q 57.328125 34.859375 57.328125 23.390625 
Q 57.328125 12.15625 50.6875 5.359375 
Q 44.046875 -1.421875 33.015625 -1.421875 
Q 20.359375 -1.421875 13.671875 8.265625 
Q 6.984375 17.96875 6.984375 36.375 
Q 6.984375 53.65625 15.1875 63.9375 
Q 23.390625 74.21875 37.203125 74.21875 
Q 40.921875 74.21875 44.703125 73.484375 
Q 48.484375 72.75 52.59375 71.296875 
z
" id="DejaVuSans-54"/>
      </defs>
      <g style="fill:#262626;" transform="translate(188.021116 301.355468)scale(0.1 -0.1)">
       <use xlink:href="#DejaVuSans-54"/>
      </g>
     </g>
    </g>
    <g id="xtick_5">
     <g id="line2d_5">
      <g>
       <use style="fill:#262626;stroke:#262626;stroke-width:0.8;" x="240.757099" xlink:href="#m64a3595132" y="286.75703"/>
      </g>
     </g>
     <g id="text_5">
      <!-- 8 -->
      <defs>
       <path d="M 31.78125 34.625 
Q 24.75 34.625 20.71875 30.859375 
Q 16.703125 27.09375 16.703125 20.515625 
Q 16.703125 13.921875 20.71875 10.15625 
Q 24.75 6.390625 31.78125 6.390625 
Q 38.8125 6.390625 42.859375 10.171875 
Q 46.921875 13.96875 46.921875 20.515625 
Q 46.921875 27.09375 42.890625 30.859375 
Q 38.875 34.625 31.78125 34.625 
z
M 21.921875 38.8125 
Q 15.578125 40.375 12.03125 44.71875 
Q 8.5 49.078125 8.5 55.328125 
Q 8.5 64.0625 14.71875 69.140625 
Q 20.953125 74.21875 31.78125 74.21875 
Q 42.671875 74.21875 48.875 69.140625 
Q 55.078125 64.0625 55.078125 55.328125 
Q 55.078125 49.078125 51.53125 44.71875 
Q 48 40.375 41.703125 38.8125 
Q 48.828125 37.15625 52.796875 32.3125 
Q 56.78125 27.484375 56.78125 20.515625 
Q 56.78125 9.90625 50.3125 4.234375 
Q 43.84375 -1.421875 31.78125 -1.421875 
Q 19.734375 -1.421875 13.25 4.234375 
Q 6.78125 9.90625 6.78125 20.515625 
Q 6.78125 27.484375 10.78125 32.3125 
Q 14.796875 37.15625 21.921875 38.8125 
z
M 18.3125 54.390625 
Q 18.3125 48.734375 21.84375 45.5625 
Q 25.390625 42.390625 31.78125 42.390625 
Q 38.140625 42.390625 41.71875 45.5625 
Q 45.3125 48.734375 45.3125 54.390625 
Q 45.3125 60.0625 41.71875 63.234375 
Q 38.140625 66.40625 31.78125 66.40625 
Q 25.390625 66.40625 21.84375 63.234375 
Q 18.3125 60.0625 18.3125 54.390625 
z
" id="DejaVuSans-56"/>
      </defs>
      <g style="fill:#262626;" transform="translate(237.575849 301.355468)scale(0.1 -0.1)">
       <use xlink:href="#DejaVuSans-56"/>
      </g>
     </g>
    </g>
    <g id="xtick_6">
     <g id="line2d_6">
      <g>
       <use style="fill:#262626;stroke:#262626;stroke-width:0.8;" x="290.311832" xlink:href="#m64a3595132" y="286.75703"/>
      </g>
     </g>
     <g id="text_6">
      <!-- 10 -->
      <defs>
       <path d="M 12.40625 8.296875 
L 28.515625 8.296875 
L 28.515625 63.921875 
L 10.984375 60.40625 
L 10.984375 69.390625 
L 28.421875 72.90625 
L 38.28125 72.90625 
L 38.28125 8.296875 
L 54.390625 8.296875 
L 54.390625 0 
L 12.40625 0 
z
" id="DejaVuSans-49"/>
      </defs>
      <g style="fill:#262626;" transform="translate(283.949332 301.355468)scale(0.1 -0.1)">
       <use xlink:href="#DejaVuSans-49"/>
       <use x="63.623047" xlink:href="#DejaVuSans-48"/>
      </g>
     </g>
    </g>
   </g>
   <g id="matplotlib.axis_2">
    <g id="ytick_1">
     <g id="line2d_7">
      <defs>
       <path d="M 0 0 
L -3.5 0 
" id="mcde533bea6" style="stroke:#262626;stroke-width:0.8;"/>
      </defs>
      <g>
       <use style="fill:#262626;stroke:#262626;stroke-width:0.8;" x="26.925" xlink:href="#mcde533bea6" y="263.960182"/>
      </g>
     </g>
     <g id="text_7">
      <!-- 0 -->
      <g style="fill:#262626;" transform="translate(13.5625 267.759401)scale(0.1 -0.1)">
       <use xlink:href="#DejaVuSans-48"/>
      </g>
     </g>
    </g>
    <g id="ytick_2">
     <g id="line2d_8">
      <g>
       <use style="fill:#262626;stroke:#262626;stroke-width:0.8;" x="26.925" xlink:href="#mcde533bea6" y="228.795781"/>
      </g>
     </g>
     <g id="text_8">
      <!-- 2 -->
      <g style="fill:#262626;" transform="translate(13.5625 232.595)scale(0.1 -0.1)">
       <use xlink:href="#DejaVuSans-50"/>
      </g>
     </g>
    </g>
    <g id="ytick_3">
     <g id="line2d_9">
      <g>
       <use style="fill:#262626;stroke:#262626;stroke-width:0.8;" x="26.925" xlink:href="#mcde533bea6" y="193.63138"/>
      </g>
     </g>
     <g id="text_9">
      <!-- 4 -->
      <g style="fill:#262626;" transform="translate(13.5625 197.430599)scale(0.1 -0.1)">
       <use xlink:href="#DejaVuSans-52"/>
      </g>
     </g>
    </g>
    <g id="ytick_4">
     <g id="line2d_10">
      <g>
       <use style="fill:#262626;stroke:#262626;stroke-width:0.8;" x="26.925" xlink:href="#mcde533bea6" y="158.466979"/>
      </g>
     </g>
     <g id="text_10">
      <!-- 6 -->
      <g style="fill:#262626;" transform="translate(13.5625 162.266198)scale(0.1 -0.1)">
       <use xlink:href="#DejaVuSans-54"/>
      </g>
     </g>
    </g>
    <g id="ytick_5">
     <g id="line2d_11">
      <g>
       <use style="fill:#262626;stroke:#262626;stroke-width:0.8;" x="26.925" xlink:href="#mcde533bea6" y="123.302578"/>
      </g>
     </g>
     <g id="text_11">
      <!-- 8 -->
      <g style="fill:#262626;" transform="translate(13.5625 127.101797)scale(0.1 -0.1)">
       <use xlink:href="#DejaVuSans-56"/>
      </g>
     </g>
    </g>
    <g id="ytick_6">
     <g id="line2d_12">
      <g>
       <use style="fill:#262626;stroke:#262626;stroke-width:0.8;" x="26.925" xlink:href="#mcde533bea6" y="88.138177"/>
      </g>
     </g>
     <g id="text_12">
      <!-- 10 -->
      <g style="fill:#262626;" transform="translate(7.2 91.937396)scale(0.1 -0.1)">
       <use xlink:href="#DejaVuSans-49"/>
       <use x="63.623047" xlink:href="#DejaVuSans-48"/>
      </g>
     </g>
    </g>
    <g id="ytick_7">
     <g id="line2d_13">
      <g>
       <use style="fill:#262626;stroke:#262626;stroke-width:0.8;" x="26.925" xlink:href="#mcde533bea6" y="52.973776"/>
      </g>
     </g>
     <g id="text_13">
      <!-- 12 -->
      <g style="fill:#262626;" transform="translate(7.2 56.772995)scale(0.1 -0.1)">
       <use xlink:href="#DejaVuSans-49"/>
       <use x="63.623047" xlink:href="#DejaVuSans-50"/>
      </g>
     </g>
    </g>
    <g id="ytick_8">
     <g id="line2d_14">
      <g>
       <use style="fill:#262626;stroke:#262626;stroke-width:0.8;" x="26.925" xlink:href="#mcde533bea6" y="17.809375"/>
      </g>
     </g>
     <g id="text_14">
      <!-- 14 -->
      <g style="fill:#262626;" transform="translate(7.2 21.608594)scale(0.1 -0.1)">
       <use xlink:href="#DejaVuSans-49"/>
       <use x="63.623047" xlink:href="#DejaVuSans-52"/>
      </g>
     </g>
    </g>
   </g>
   <g id="PathCollection_1">
    <defs>
     <path d="M 0 3 
C 0.795609 3 1.55874 2.683901 2.12132 2.12132 
C 2.683901 1.55874 3 0.795609 3 0 
C 3 -0.795609 2.683901 -1.55874 2.12132 -2.12132 
C 1.55874 -2.683901 0.795609 -3 0 -3 
C -0.795609 -3 -1.55874 -2.683901 -2.12132 -2.12132 
C -2.683901 -1.55874 -3 -0.795609 -3 0 
C -3 0.795609 -2.683901 1.55874 -2.12132 2.12132 
C -1.55874 2.683901 -0.795609 3 0 3 
z
" id="m5d5f6d7e19" style="stroke:#ffffff;stroke-width:0.75;"/>
    </defs>
    <g clip-path="url(#p400ebe3446)">
     <use style="fill:#1d6996;stroke:#ffffff;stroke-width:0.75;" x="42.538168" xlink:href="#m5d5f6d7e19" y="236.837154"/>
     <use style="fill:#1d6996;stroke:#ffffff;stroke-width:0.75;" x="55.578887" xlink:href="#m5d5f6d7e19" y="253.976662"/>
     <use style="fill:#1d6996;stroke:#ffffff;stroke-width:0.75;" x="68.619606" xlink:href="#m5d5f6d7e19" y="223.170742"/>
     <use style="fill:#1d6996;stroke:#ffffff;stroke-width:0.75;" x="81.660325" xlink:href="#m5d5f6d7e19" y="209.867573"/>
     <use style="fill:#1d6996;stroke:#ffffff;stroke-width:0.75;" x="94.701044" xlink:href="#m5d5f6d7e19" y="209.415322"/>
     <use style="fill:#1d6996;stroke:#ffffff;stroke-width:0.75;" x="107.741764" xlink:href="#m5d5f6d7e19" y="209.786394"/>
     <use style="fill:#1d6996;stroke:#ffffff;stroke-width:0.75;" x="120.782483" xlink:href="#m5d5f6d7e19" y="201.472682"/>
     <use style="fill:#1d6996;stroke:#ffffff;stroke-width:0.75;" x="133.823202" xlink:href="#m5d5f6d7e19" y="172.440047"/>
     <use style="fill:#1d6996;stroke:#ffffff;stroke-width:0.75;" x="146.863921" xlink:href="#m5d5f6d7e19" y="183.983183"/>
     <use style="fill:#1d6996;stroke:#ffffff;stroke-width:0.75;" x="159.90464" xlink:href="#m5d5f6d7e19" y="177.569658"/>
     <use style="fill:#1d6996;stroke:#ffffff;stroke-width:0.75;" x="172.94536" xlink:href="#m5d5f6d7e19" y="147.322017"/>
     <use style="fill:#1d6996;stroke:#ffffff;stroke-width:0.75;" x="185.986079" xlink:href="#m5d5f6d7e19" y="128.642989"/>
     <use style="fill:#1d6996;stroke:#ffffff;stroke-width:0.75;" x="199.026798" xlink:href="#m5d5f6d7e19" y="152.775867"/>
     <use style="fill:#1d6996;stroke:#ffffff;stroke-width:0.75;" x="212.067517" xlink:href="#m5d5f6d7e19" y="125.649981"/>
     <use style="fill:#1d6996;stroke:#ffffff;stroke-width:0.75;" x="225.108236" xlink:href="#m5d5f6d7e19" y="105.831796"/>
     <use style="fill:#1d6996;stroke:#ffffff;stroke-width:0.75;" x="238.148956" xlink:href="#m5d5f6d7e19" y="103.614224"/>
     <use style="fill:#1d6996;stroke:#ffffff;stroke-width:0.75;" x="251.189675" xlink:href="#m5d5f6d7e19" y="90.519453"/>
     <use style="fill:#1d6996;stroke:#ffffff;stroke-width:0.75;" x="264.230394" xlink:href="#m5d5f6d7e19" y="96.382109"/>
     <use style="fill:#1d6996;stroke:#ffffff;stroke-width:0.75;" x="277.271113" xlink:href="#m5d5f6d7e19" y="65.118989"/>
     <use style="fill:#1d6996;stroke:#ffffff;stroke-width:0.75;" x="290.311832" xlink:href="#m5d5f6d7e19" y="63.010548"/>
    </g>
   </g>
   <g id="PathCollection_2">
    <defs>
     <path d="M 0 3 
C 0.795609 3 1.55874 2.683901 2.12132 2.12132 
C 2.683901 1.55874 3 0.795609 3 0 
C 3 -0.795609 2.683901 -1.55874 2.12132 -2.12132 
C 1.55874 -2.683901 0.795609 -3 0 -3 
C -0.795609 -3 -1.55874 -2.683901 -2.12132 -2.12132 
C -2.683901 -1.55874 -3 -0.795609 -3 0 
C -3 0.795609 -2.683901 1.55874 -2.12132 2.12132 
C -1.55874 2.683901 -0.795609 3 0 3 
z
" id="m46421f46fb" style="stroke:#ffffff;stroke-width:0.75;"/>
    </defs>
    <g clip-path="url(#p400ebe3446)">
     <use style="fill:#cc503e;stroke:#ffffff;stroke-width:0.75;" x="42.538168" xlink:href="#m46421f46fb" y="235.34281"/>
     <use style="fill:#cc503e;stroke:#ffffff;stroke-width:0.75;" x="55.578887" xlink:href="#m46421f46fb" y="256.461195"/>
     <use style="fill:#cc503e;stroke:#ffffff;stroke-width:0.75;" x="68.619606" xlink:href="#m46421f46fb" y="244.267726"/>
     <use style="fill:#cc503e;stroke:#ffffff;stroke-width:0.75;" x="81.660325" xlink:href="#m46421f46fb" y="228.401925"/>
     <use style="fill:#cc503e;stroke:#ffffff;stroke-width:0.75;" x="94.701044" xlink:href="#m46421f46fb" y="240.654984"/>
     <use style="fill:#cc503e;stroke:#ffffff;stroke-width:0.75;" x="107.741764" xlink:href="#m46421f46fb" y="241.067419"/>
     <use style="fill:#cc503e;stroke:#ffffff;stroke-width:0.75;" x="120.782483" xlink:href="#m46421f46fb" y="231.375073"/>
     <use style="fill:#cc503e;stroke:#ffffff;stroke-width:0.75;" x="133.823202" xlink:href="#m46421f46fb" y="236.893884"/>
     <use style="fill:#cc503e;stroke:#ffffff;stroke-width:0.75;" x="146.863921" xlink:href="#m46421f46fb" y="229.653941"/>
     <use style="fill:#cc503e;stroke:#ffffff;stroke-width:0.75;" x="159.90464" xlink:href="#m46421f46fb" y="232.25742"/>
     <use style="fill:#cc503e;stroke:#ffffff;stroke-width:0.75;" x="172.94536" xlink:href="#m46421f46fb" y="45.66539"/>
     <use style="fill:#cc503e;stroke:#ffffff;stroke-width:0.75;" x="185.986079" xlink:href="#m46421f46fb" y="60.623063"/>
     <use style="fill:#cc503e;stroke:#ffffff;stroke-width:0.75;" x="199.026798" xlink:href="#m46421f46fb" y="40.210037"/>
     <use style="fill:#cc503e;stroke:#ffffff;stroke-width:0.75;" x="212.067517" xlink:href="#m46421f46fb" y="71.299558"/>
     <use style="fill:#cc503e;stroke:#ffffff;stroke-width:0.75;" x="225.108236" xlink:href="#m46421f46fb" y="83.366754"/>
     <use style="fill:#cc503e;stroke:#ffffff;stroke-width:0.75;" x="238.148956" xlink:href="#m46421f46fb" y="72.277271"/>
     <use style="fill:#cc503e;stroke:#ffffff;stroke-width:0.75;" x="251.189675" xlink:href="#m46421f46fb" y="82.125889"/>
     <use style="fill:#cc503e;stroke:#ffffff;stroke-width:0.75;" x="264.230394" xlink:href="#m46421f46fb" y="44.428053"/>
     <use style="fill:#cc503e;stroke:#ffffff;stroke-width:0.75;" x="277.271113" xlink:href="#m46421f46fb" y="85.664556"/>
     <use style="fill:#cc503e;stroke:#ffffff;stroke-width:0.75;" x="290.311832" xlink:href="#m46421f46fb" y="55.103658"/>
    </g>
   </g>
   <g id="line2d_15">
    <path clip-path="url(#p400ebe3446)" d="M 42.538168 249.950744 
L 290.311832 65.787995 
" style="fill:none;stroke:#1d6996;stroke-linecap:round;stroke-width:1.5;"/>
   </g>
   <g id="line2d_16">
    <path clip-path="url(#p400ebe3446)" d="M 42.538168 274.402485 
L 290.311832 27.311576 
" style="fill:none;stroke:#cc503e;stroke-linecap:round;stroke-width:1.5;"/>
   </g>
   <g id="patch_3">
    <path d="M 26.925 286.75703 
L 26.925 14.95703 
" style="fill:none;stroke:#262626;stroke-linecap:square;stroke-linejoin:miter;stroke-width:0.8;"/>
   </g>
   <g id="patch_4">
    <path d="M 26.925 286.75703 
L 305.925 286.75703 
" style="fill:none;stroke:#262626;stroke-linecap:square;stroke-linejoin:miter;stroke-width:0.8;"/>
   </g>
   <g id="text_15">
    <!-- $r_P$: 0.98 -->
    <defs>
     <path d="M 44.578125 46.390625 
Q 43.21875 47.125 41.453125 47.515625 
Q 39.703125 47.90625 37.703125 47.90625 
Q 30.515625 47.90625 25.140625 42.453125 
Q 19.78125 37.015625 18.015625 27.875 
L 12.5 0 
L 3.515625 0 
L 14.203125 54.6875 
L 23.1875 54.6875 
L 21.484375 46.1875 
Q 25.046875 50.921875 30 53.453125 
Q 34.96875 56 40.578125 56 
Q 42.046875 56 43.453125 55.828125 
Q 44.875 55.671875 46.296875 55.28125 
z
" id="DejaVuSans-Oblique-114"/>
     <path d="M 16.890625 72.90625 
L 39.703125 72.90625 
Q 49.65625 72.90625 54.875 68.265625 
Q 60.109375 63.625 60.109375 54.6875 
Q 60.109375 42.671875 52.390625 35.984375 
Q 44.671875 29.296875 30.71875 29.296875 
L 18.3125 29.296875 
L 12.59375 0 
L 2.6875 0 
z
M 25.203125 64.796875 
L 19.921875 37.40625 
L 32.328125 37.40625 
Q 40.71875 37.40625 45.203125 41.703125 
Q 49.703125 46 49.703125 54 
Q 49.703125 59.125 46.65625 61.953125 
Q 43.609375 64.796875 38.09375 64.796875 
z
" id="DejaVuSans-Oblique-80"/>
     <path d="M 11.71875 12.40625 
L 22.015625 12.40625 
L 22.015625 0 
L 11.71875 0 
z
M 11.71875 51.703125 
L 22.015625 51.703125 
L 22.015625 39.3125 
L 11.71875 39.3125 
z
" id="DejaVuSans-58"/>
     <path id="DejaVuSans-32"/>
     <path d="M 10.6875 12.40625 
L 21 12.40625 
L 21 0 
L 10.6875 0 
z
" id="DejaVuSans-46"/>
     <path d="M 10.984375 1.515625 
L 10.984375 10.5 
Q 14.703125 8.734375 18.5 7.8125 
Q 22.3125 6.890625 25.984375 6.890625 
Q 35.75 6.890625 40.890625 13.453125 
Q 46.046875 20.015625 46.78125 33.40625 
Q 43.953125 29.203125 39.59375 26.953125 
Q 35.25 24.703125 29.984375 24.703125 
Q 19.046875 24.703125 12.671875 31.3125 
Q 6.296875 37.9375 6.296875 49.421875 
Q 6.296875 60.640625 12.9375 67.421875 
Q 19.578125 74.21875 30.609375 74.21875 
Q 43.265625 74.21875 49.921875 64.515625 
Q 56.59375 54.828125 56.59375 36.375 
Q 56.59375 19.140625 48.40625 8.859375 
Q 40.234375 -1.421875 26.421875 -1.421875 
Q 22.703125 -1.421875 18.890625 -0.6875 
Q 15.09375 0.046875 10.984375 1.515625 
z
M 30.609375 32.421875 
Q 37.25 32.421875 41.125 36.953125 
Q 45.015625 41.5 45.015625 49.421875 
Q 45.015625 57.28125 41.125 61.84375 
Q 37.25 66.40625 30.609375 66.40625 
Q 23.96875 66.40625 20.09375 61.84375 
Q 16.21875 57.28125 16.21875 49.421875 
Q 16.21875 41.5 20.09375 36.953125 
Q 23.96875 32.421875 30.609375 32.421875 
z
" id="DejaVuSans-57"/>
    </defs>
    <g style="fill:#1d6996;" transform="translate(42.538168 88.138177)scale(0.14 -0.14)">
     <use transform="translate(0 0.78125)" xlink:href="#DejaVuSans-Oblique-114"/>
     <use transform="translate(41.113281 -15.625)scale(0.7)" xlink:href="#DejaVuSans-Oblique-80"/>
     <use transform="translate(86.05957 0.78125)" xlink:href="#DejaVuSans-58"/>
     <use transform="translate(119.750977 0.78125)" xlink:href="#DejaVuSans-32"/>
     <use transform="translate(151.538086 0.78125)" xlink:href="#DejaVuSans-48"/>
     <use transform="translate(215.161133 0.78125)" xlink:href="#DejaVuSans-46"/>
     <use transform="translate(246.948242 0.78125)" xlink:href="#DejaVuSans-57"/>
     <use transform="translate(310.571289 0.78125)" xlink:href="#DejaVuSans-56"/>
    </g>
   </g>
   <g id="text_16">
    <!-- $p_P$: 0.000 -->
    <defs>
     <path d="M 49.609375 33.6875 
Q 49.609375 40.875 46.484375 44.671875 
Q 43.359375 48.484375 37.5 48.484375 
Q 33.5 48.484375 29.859375 46.4375 
Q 26.21875 44.390625 23.390625 40.484375 
Q 20.609375 36.625 18.9375 31.15625 
Q 17.28125 25.6875 17.28125 20.3125 
Q 17.28125 13.484375 20.40625 9.796875 
Q 23.53125 6.109375 29.296875 6.109375 
Q 33.546875 6.109375 37.1875 8.109375 
Q 40.828125 10.109375 43.40625 13.921875 
Q 46.1875 17.921875 47.890625 23.34375 
Q 49.609375 28.765625 49.609375 33.6875 
z
M 21.78125 46.390625 
Q 25.390625 51.125 30.296875 53.5625 
Q 35.203125 56 41.21875 56 
Q 49.609375 56 54.25 50.5 
Q 58.890625 45.015625 58.890625 35.109375 
Q 58.890625 27 56 19.65625 
Q 53.125 12.3125 47.703125 6.5 
Q 44.09375 2.640625 39.546875 0.609375 
Q 35.015625 -1.421875 29.984375 -1.421875 
Q 24.171875 -1.421875 20.21875 1 
Q 16.265625 3.421875 14.3125 8.203125 
L 8.6875 -20.796875 
L -0.296875 -20.796875 
L 14.40625 54.6875 
L 23.390625 54.6875 
z
" id="DejaVuSans-Oblique-112"/>
    </defs>
    <g style="fill:#1d6996;" transform="translate(42.538168 70.555976)scale(0.14 -0.14)">
     <use transform="translate(0 0.78125)" xlink:href="#DejaVuSans-Oblique-112"/>
     <use transform="translate(63.476562 -15.625)scale(0.7)" xlink:href="#DejaVuSans-Oblique-80"/>
     <use transform="translate(108.422852 0.78125)" xlink:href="#DejaVuSans-58"/>
     <use transform="translate(142.114258 0.78125)" xlink:href="#DejaVuSans-32"/>
     <use transform="translate(173.901367 0.78125)" xlink:href="#DejaVuSans-48"/>
     <use transform="translate(237.524414 0.78125)" xlink:href="#DejaVuSans-46"/>
     <use transform="translate(269.311523 0.78125)" xlink:href="#DejaVuSans-48"/>
     <use transform="translate(332.93457 0.78125)" xlink:href="#DejaVuSans-48"/>
     <use transform="translate(396.557617 0.78125)" xlink:href="#DejaVuSans-48"/>
    </g>
   </g>
   <g id="text_17">
    <!-- $r_P$: 0.85 -->
    <defs>
     <path d="M 10.796875 72.90625 
L 49.515625 72.90625 
L 49.515625 64.59375 
L 19.828125 64.59375 
L 19.828125 46.734375 
Q 21.96875 47.46875 24.109375 47.828125 
Q 26.265625 48.1875 28.421875 48.1875 
Q 40.625 48.1875 47.75 41.5 
Q 54.890625 34.8125 54.890625 23.390625 
Q 54.890625 11.625 47.5625 5.09375 
Q 40.234375 -1.421875 26.90625 -1.421875 
Q 22.3125 -1.421875 17.546875 -0.640625 
Q 12.796875 0.140625 7.71875 1.703125 
L 7.71875 11.625 
Q 12.109375 9.234375 16.796875 8.0625 
Q 21.484375 6.890625 26.703125 6.890625 
Q 35.15625 6.890625 40.078125 11.328125 
Q 45.015625 15.765625 45.015625 23.390625 
Q 45.015625 31 40.078125 35.4375 
Q 35.15625 39.890625 26.703125 39.890625 
Q 22.75 39.890625 18.8125 39.015625 
Q 14.890625 38.140625 10.796875 36.28125 
z
" id="DejaVuSans-53"/>
    </defs>
    <g style="fill:#cc503e;" transform="translate(42.538168 35.391575)scale(0.14 -0.14)">
     <use transform="translate(0 0.78125)" xlink:href="#DejaVuSans-Oblique-114"/>
     <use transform="translate(41.113281 -15.625)scale(0.7)" xlink:href="#DejaVuSans-Oblique-80"/>
     <use transform="translate(86.05957 0.78125)" xlink:href="#DejaVuSans-58"/>
     <use transform="translate(119.750977 0.78125)" xlink:href="#DejaVuSans-32"/>
     <use transform="translate(151.538086 0.78125)" xlink:href="#DejaVuSans-48"/>
     <use transform="translate(215.161133 0.78125)" xlink:href="#DejaVuSans-46"/>
     <use transform="translate(246.916992 0.78125)" xlink:href="#DejaVuSans-56"/>
     <use transform="translate(310.540039 0.78125)" xlink:href="#DejaVuSans-53"/>
    </g>
   </g>
   <g id="text_18">
    <!-- $p_P$: 0.000 -->
    <g style="fill:#cc503e;" transform="translate(42.538168 17.809375)scale(0.14 -0.14)">
     <use transform="translate(0 0.78125)" xlink:href="#DejaVuSans-Oblique-112"/>
     <use transform="translate(63.476562 -15.625)scale(0.7)" xlink:href="#DejaVuSans-Oblique-80"/>
     <use transform="translate(108.422852 0.78125)" xlink:href="#DejaVuSans-58"/>
     <use transform="translate(142.114258 0.78125)" xlink:href="#DejaVuSans-32"/>
     <use transform="translate(173.901367 0.78125)" xlink:href="#DejaVuSans-48"/>
     <use transform="translate(237.524414 0.78125)" xlink:href="#DejaVuSans-46"/>
     <use transform="translate(269.311523 0.78125)" xlink:href="#DejaVuSans-48"/>
     <use transform="translate(332.93457 0.78125)" xlink:href="#DejaVuSans-48"/>
     <use transform="translate(396.557617 0.78125)" xlink:href="#DejaVuSans-48"/>
    </g>
   </g>
   <g id="text_19">
    <!-- $r_S$: 0.99 -->
    <defs>
     <path d="M 60.296875 70.515625 
L 58.40625 60.890625 
Q 53.46875 63.53125 48.609375 64.875 
Q 43.75 66.21875 39.203125 66.21875 
Q 30.375 66.21875 25.140625 62.359375 
Q 19.921875 58.5 19.921875 52.09375 
Q 19.921875 48.578125 21.84375 46.703125 
Q 23.78125 44.828125 31.78125 42.671875 
L 37.703125 41.21875 
Q 47.703125 38.625 51.609375 34.640625 
Q 55.515625 30.671875 55.515625 23.484375 
Q 55.515625 12.453125 46.84375 5.515625 
Q 38.1875 -1.421875 24.03125 -1.421875 
Q 18.21875 -1.421875 12.359375 -0.265625 
Q 6.5 0.875 0.59375 3.21875 
L 2.59375 13.375 
Q 8.015625 10.015625 13.453125 8.296875 
Q 18.890625 6.59375 24.3125 6.59375 
Q 33.546875 6.59375 39.109375 10.6875 
Q 44.671875 14.796875 44.671875 21.390625 
Q 44.671875 25.78125 42.453125 28.046875 
Q 40.234375 30.328125 32.90625 32.171875 
L 27 33.6875 
Q 16.890625 36.328125 13.203125 39.765625 
Q 9.515625 43.21875 9.515625 49.421875 
Q 9.515625 60.296875 17.890625 67.25 
Q 26.265625 74.21875 39.703125 74.21875 
Q 44.921875 74.21875 50.046875 73.28125 
Q 55.171875 72.359375 60.296875 70.515625 
z
" id="DejaVuSans-Oblique-83"/>
    </defs>
    <g style="fill:#1d6996;" transform="translate(215.979733 228.795781)scale(0.14 -0.14)">
     <use transform="translate(0 0.78125)" xlink:href="#DejaVuSans-Oblique-114"/>
     <use transform="translate(41.113281 -15.625)scale(0.7)" xlink:href="#DejaVuSans-Oblique-83"/>
     <use transform="translate(88.28125 0.78125)" xlink:href="#DejaVuSans-58"/>
     <use transform="translate(121.972656 0.78125)" xlink:href="#DejaVuSans-32"/>
     <use transform="translate(153.759766 0.78125)" xlink:href="#DejaVuSans-48"/>
     <use transform="translate(217.382812 0.78125)" xlink:href="#DejaVuSans-46"/>
     <use transform="translate(249.169922 0.78125)" xlink:href="#DejaVuSans-57"/>
     <use transform="translate(312.792969 0.78125)" xlink:href="#DejaVuSans-57"/>
    </g>
   </g>
   <g id="text_20">
    <!-- $p_S$: 0.000 -->
    <g style="fill:#1d6996;" transform="translate(215.979733 211.21358)scale(0.14 -0.14)">
     <use transform="translate(0 0.78125)" xlink:href="#DejaVuSans-Oblique-112"/>
     <use transform="translate(63.476562 -15.625)scale(0.7)" xlink:href="#DejaVuSans-Oblique-83"/>
     <use transform="translate(110.644531 0.78125)" xlink:href="#DejaVuSans-58"/>
     <use transform="translate(144.335938 0.78125)" xlink:href="#DejaVuSans-32"/>
     <use transform="translate(176.123047 0.78125)" xlink:href="#DejaVuSans-48"/>
     <use transform="translate(239.746094 0.78125)" xlink:href="#DejaVuSans-46"/>
     <use transform="translate(271.533203 0.78125)" xlink:href="#DejaVuSans-48"/>
     <use transform="translate(335.15625 0.78125)" xlink:href="#DejaVuSans-48"/>
     <use transform="translate(398.779297 0.78125)" xlink:href="#DejaVuSans-48"/>
    </g>
   </g>
   <g id="text_21">
    <!-- $r_S$: 0.77 -->
    <defs>
     <path d="M 8.203125 72.90625 
L 55.078125 72.90625 
L 55.078125 68.703125 
L 28.609375 0 
L 18.3125 0 
L 43.21875 64.59375 
L 8.203125 64.59375 
z
" id="DejaVuSans-55"/>
    </defs>
    <g style="fill:#cc503e;" transform="translate(215.979733 193.63138)scale(0.14 -0.14)">
     <use transform="translate(0 0.78125)" xlink:href="#DejaVuSans-Oblique-114"/>
     <use transform="translate(41.113281 -15.625)scale(0.7)" xlink:href="#DejaVuSans-Oblique-83"/>
     <use transform="translate(88.28125 0.78125)" xlink:href="#DejaVuSans-58"/>
     <use transform="translate(121.972656 0.78125)" xlink:href="#DejaVuSans-32"/>
     <use transform="translate(153.759766 0.78125)" xlink:href="#DejaVuSans-48"/>
     <use transform="translate(217.382812 0.78125)" xlink:href="#DejaVuSans-46"/>
     <use transform="translate(249.060547 0.78125)" xlink:href="#DejaVuSans-55"/>
     <use transform="translate(312.667969 0.78125)" xlink:href="#DejaVuSans-55"/>
    </g>
   </g>
   <g id="text_22">
    <!-- $p_S$: 0.000 -->
    <g style="fill:#cc503e;" transform="translate(215.979733 176.049179)scale(0.14 -0.14)">
     <use transform="translate(0 0.78125)" xlink:href="#DejaVuSans-Oblique-112"/>
     <use transform="translate(63.476562 -15.625)scale(0.7)" xlink:href="#DejaVuSans-Oblique-83"/>
     <use transform="translate(110.644531 0.78125)" xlink:href="#DejaVuSans-58"/>
     <use transform="translate(144.335938 0.78125)" xlink:href="#DejaVuSans-32"/>
     <use transform="translate(176.123047 0.78125)" xlink:href="#DejaVuSans-48"/>
     <use transform="translate(239.746094 0.78125)" xlink:href="#DejaVuSans-46"/>
     <use transform="translate(271.533203 0.78125)" xlink:href="#DejaVuSans-48"/>
     <use transform="translate(335.15625 0.78125)" xlink:href="#DejaVuSans-48"/>
     <use transform="translate(398.779297 0.78125)" xlink:href="#DejaVuSans-48"/>
    </g>
   </g>
  </g>
 </g>
 <defs>
  <clipPath id="p400ebe3446">
   <rect height="271.8" width="279" x="26.925" y="14.95703"/>
  </clipPath>
 </defs>
</svg>
