<?xml version="1.0" standalone="no"?><!DOCTYPE svg PUBLIC "-//W3C//DTD SVG 1.1//EN" "http://www.w3.org/Graphics/SVG/1.1/DTD/svg11.dtd"><svg xmlns:xlink="http://www.w3.org/1999/xlink" version="1.1" style="font-family:open sans;font-size:12px;" xmlns="http://www.w3.org/2000/svg" width="1040" height="410"><desc>Created with Highcharts 4.1.5</desc><defs><clipPath id="highcharts-79"><rect x="0" y="0" width="842" height="196"></rect></clipPath></defs><rect x="0" y="0" width="1040" height="410" strokeWidth="0" fill="#FFFFFF" class=" highcharts-background"></rect><g class="highcharts-grid" ></g><g class="highcharts-grid" ></g><g class="highcharts-grid" ></g><g class="highcharts-grid" ><path fill="none" d="M 89 331.5 L 931 331.5" stroke="#D8D8D8" stroke-width="1"  opacity="1"></path><path fill="none" d="M 89 278.5 L 931 278.5" stroke="#D8D8D8" stroke-width="1"  opacity="1"></path><path fill="none" d="M 89 224.5 L 931 224.5" stroke="#D8D8D8" stroke-width="1"  opacity="1"></path><path fill="none" d="M 89 171.5 L 931 171.5" stroke="#D8D8D8" stroke-width="1"  opacity="1"></path></g><g class="highcharts-axis" ><path fill="none" d="M 172.5 331 L 172.5 341" stroke="#C0D0E0" stroke-width="1" opacity="1"></path><path fill="none" d="M 256.5 331 L 256.5 341" stroke="#C0D0E0" stroke-width="1" opacity="1"></path><path fill="none" d="M 341.5 331 L 341.5 341" stroke="#C0D0E0" stroke-width="1" opacity="1"></path><path fill="none" d="M 425.5 331 L 425.5 341" stroke="#C0D0E0" stroke-width="1" opacity="1"></path><path fill="none" d="M 509.5 331 L 509.5 341" stroke="#C0D0E0" stroke-width="1" opacity="1"></path><path fill="none" d="M 593.5 331 L 593.5 341" stroke="#C0D0E0" stroke-width="1" opacity="1"></path><path fill="none" d="M 677.5 331 L 677.5 341" stroke="#C0D0E0" stroke-width="1" opacity="1"></path><path fill="none" d="M 762.5 331 L 762.5 341" stroke="#C0D0E0" stroke-width="1" opacity="1"></path><path fill="none" d="M 846.5 331 L 846.5 341" stroke="#C0D0E0" stroke-width="1" opacity="1"></path><path fill="none" d="M 931.5 331 L 931.5 341" stroke="#C0D0E0" stroke-width="1" opacity="1"></path><path fill="none" d="M 88.5 331 L 88.5 341" stroke="#C0D0E0" stroke-width="1" opacity="1"></path><path fill="none" d="M 89 331.5 L 931 331.5" stroke="#C0D0E0" stroke-width="1"  visibility="visible"></path></g><g class="highcharts-axis" ><path fill="none" d="M 172.5 135 L 172.5 125" stroke="#C0D0E0" stroke-width="1" opacity="1"></path><path fill="none" d="M 256.5 135 L 256.5 125" stroke="#C0D0E0" stroke-width="1" opacity="1"></path><path fill="none" d="M 341.5 135 L 341.5 125" stroke="#C0D0E0" stroke-width="1" opacity="1"></path><path fill="none" d="M 425.5 135 L 425.5 125" stroke="#C0D0E0" stroke-width="1" opacity="1"></path><path fill="none" d="M 509.5 135 L 509.5 125" stroke="#C0D0E0" stroke-width="1" opacity="1"></path><path fill="none" d="M 593.5 135 L 593.5 125" stroke="#C0D0E0" stroke-width="1" opacity="1"></path><path fill="none" d="M 677.5 135 L 677.5 125" stroke="#C0D0E0" stroke-width="1" opacity="1"></path><path fill="none" d="M 762.5 135 L 762.5 125" stroke="#C0D0E0" stroke-width="1" opacity="1"></path><path fill="none" d="M 846.5 135 L 846.5 125" stroke="#C0D0E0" stroke-width="1" opacity="1"></path><path fill="none" d="M 931.5 135 L 931.5 125" stroke="#C0D0E0" stroke-width="1" opacity="1"></path><path fill="none" d="M 88.5 135 L 88.5 125" stroke="#C0D0E0" stroke-width="1" opacity="1"></path><path fill="none" d="M 89 134.5 L 931 134.5" stroke="#C0D0E0" stroke-width="1"  visibility="visible"></path></g><g class="highcharts-axis" ><text x="1012.5999984741211"  text-anchor="middle" transform="translate(0,0) rotate(90 1012.5999984741211 233)" class=" highcharts-yaxis-title" style="color:#000000;fill:#000000;" visibility="visible" y="233"><tspan>Bedsheet tanglings</tspan></text></g><g class="highcharts-axis" ><text x="27.450000762939453"  text-anchor="middle" transform="translate(0,0) rotate(270 27.450000762939453 233)" class=" highcharts-yaxis-title" style="color:#ba0f27;fill:#ba0f27;" visibility="visible" y="233"><tspan>Cheese consumed</tspan></text></g><g class="highcharts-series-group" ><g class="highcharts-series" visibility="visible"  transform="translate(89,135) scale(1 1)" clip-path="url(#highcharts-79)"><path fill="none" d="M 42.1 160.44 C 42.1 160.44 92.62 134.512 126.30000000000001 124.32 C 159.98000000000002 114.128 176.82 109.47999999999999 210.5 109.47999999999999 C 244.18 109.47999999999999 261.02000000000004 112.83999999999999 294.70000000000005 112.83999999999999 C 328.38 112.83999999999999 345.22 85.11999999999999 378.90000000000003 85.11999999999999 C 412.58000000000004 85.11999999999999 429.4200000000001 91.55999999999999 463.1 91.55999999999999 C 496.7800000000001 91.55999999999999 513.6200000000001 76.32799999999997 547.3000000000001 66.91999999999999 C 580.98 57.51199999999999 597.82 52.80799999999997 631.5 44.51999999999998 C 665.1800000000001 36.23199999999997 682.0200000000001 25.47999999999999 715.7 25.47999999999999 C 749.3800000000001 25.47999999999999 799.9000000000001 51.23999999999998 799.9000000000001 51.23999999999998" stroke="#000000" stroke-width="2"  stroke-linejoin="round" stroke-linecap="round"></path></g><g class="highcharts-markers" visibility="visible"  transform="translate(89,135) scale(1 1)" clip-path="none"><path fill="#000000" d="M 799 47.23999999999998 C 804.328 47.23999999999998 804.328 55.23999999999998 799 55.23999999999998 C 793.672 55.23999999999998 793.672 47.23999999999998 799 47.23999999999998 Z"></path><path fill="#000000" d="M 715 21.47999999999999 C 720.328 21.47999999999999 720.328 29.47999999999999 715 29.47999999999999 C 709.672 29.47999999999999 709.672 21.47999999999999 715 21.47999999999999 Z"></path><path fill="#000000" d="M 631 40.51999999999998 C 636.328 40.51999999999998 636.328 48.51999999999998 631 48.51999999999998 C 625.672 48.51999999999998 625.672 40.51999999999998 631 40.51999999999998 Z"></path><path fill="#000000" d="M 547 62.91999999999999 C 552.328 62.91999999999999 552.328 70.91999999999999 547 70.91999999999999 C 541.672 70.91999999999999 541.672 62.91999999999999 547 62.91999999999999 Z"></path><path fill="#000000" d="M 463 87.55999999999999 C 468.328 87.55999999999999 468.328 95.55999999999999 463 95.55999999999999 C 457.672 95.55999999999999 457.672 87.55999999999999 463 87.55999999999999 Z"></path><path fill="#000000" d="M 378 81.11999999999999 C 383.328 81.11999999999999 383.328 89.11999999999999 378 89.11999999999999 C 372.672 89.11999999999999 372.672 81.11999999999999 378 81.11999999999999 Z"></path><path fill="#000000" d="M 294 108.83999999999999 C 299.328 108.83999999999999 299.328 116.83999999999999 294 116.83999999999999 C 288.672 116.83999999999999 288.672 108.83999999999999 294 108.83999999999999 Z"></path><path fill="#000000" d="M 210 105.47999999999999 C 215.328 105.47999999999999 215.328 113.47999999999999 210 113.47999999999999 C 204.672 113.47999999999999 204.672 105.47999999999999 210 105.47999999999999 Z"></path><path fill="#000000" d="M 126 120.32 C 131.328 120.32 131.328 128.32 126 128.32 C 120.672 128.32 120.672 120.32 126 120.32 Z"></path><path fill="#000000" d="M 42 156.44 C 47.328 156.44 47.328 164.44 42 164.44 C 36.672 164.44 36.672 156.44 42 156.44 Z"></path></g><g class="highcharts-series" visibility="visible"  transform="translate(89,135) scale(1 1)" clip-path="url(#highcharts-79)"><path fill="none" d="M 42.1 149.67272727272726 C 42.1 149.67272727272726 92.62 143.97090909090903 126.30000000000001 138.98181818181814 C 159.98000000000002 133.99272727272722 176.82 128.2909090909091 210.5 124.72727272727273 C 244.18 121.16363636363637 261.02000000000004 124.72727272727273 294.70000000000005 121.16363636363631 C 328.38 117.5999999999999 345.22 104.0581818181818 378.90000000000003 96.2181818181818 C 412.58000000000004 88.37818181818183 429.4200000000001 91.22909090909093 463.1 81.9636363636364 C 496.7800000000001 72.69818181818184 513.6200000000001 59.86909090909088 547.3000000000001 49.89090909090905 C 580.98 39.91272727272722 597.82 32.072727272727235 631.5 32.072727272727235 C 665.1800000000001 32.072727272727235 682.0200000000001 46.32727272727263 715.7 46.32727272727263 C 749.3800000000001 46.32727272727263 799.9000000000001 42.763636363636465 799.9000000000001 42.763636363636465" stroke="#ba0f27" stroke-width="2"  stroke-linejoin="round" stroke-linecap="round"></path></g><g class="highcharts-markers" visibility="visible"  transform="translate(89,135) scale(1 1)" clip-path="none"><path fill="#ba0f27" d="M 799 38.763636363636465 L 803 42.763636363636465 799 46.763636363636465 795 42.763636363636465 Z"></path><path fill="#ba0f27" d="M 715 42.32727272727263 L 719 46.32727272727263 715 50.32727272727263 711 46.32727272727263 Z"></path><path fill="#ba0f27" d="M 631 28.072727272727235 L 635 32.072727272727235 631 36.072727272727235 627 32.072727272727235 Z"></path><path fill="#ba0f27" d="M 547 45.89090909090905 L 551 49.89090909090905 547 53.89090909090905 543 49.89090909090905 Z"></path><path fill="#ba0f27" d="M 463 77.9636363636364 L 467 81.9636363636364 463 85.9636363636364 459 81.9636363636364 Z"></path><path fill="#ba0f27" d="M 378 92.2181818181818 L 382 96.2181818181818 378 100.2181818181818 374 96.2181818181818 Z"></path><path fill="#ba0f27" d="M 294 117.16363636363631 L 298 121.16363636363631 294 125.16363636363631 290 121.16363636363631 Z"></path><path fill="#ba0f27" d="M 210 120.72727272727273 L 214 124.72727272727273 210 128.72727272727275 206 124.72727272727273 Z"></path><path fill="#ba0f27" d="M 126 134.98181818181814 L 130 138.98181818181814 126 142.98181818181814 122 138.98181818181814 Z"></path><path fill="#ba0f27" d="M 42 145.67272727272726 L 46 149.67272727272726 42 153.67272727272726 38 149.67272727272726 Z"></path></g></g><text x="520" text-anchor="middle" class="highcharts-title"  style="color:#777;font-size:18px;fill:#777;width:976px;" y="24"><tspan style="fill:#ba0f27;font-size:24px;font-weight:bold;font-family: 'lora'">Per capita cheese consumption</tspan><tspan style="font-family: 'lora'" x="520" dy="21"> correlates with </tspan><tspan style="fill:#000000;font-size:24px;font-weight:bold;font-family: 'lora'" x="520" dy="29">Number of people who died by becoming tangled in their bedsheets</tspan></text><g class="highcharts-legend"  transform="translate(370,367)"><g ><g><g class="highcharts-legend-item"  transform="translate(8,3)"><path fill="none" d="M 0 11 L 16 11" stroke="#000000" stroke-width="2"></path><path fill="#000000" d="M 8 7 C 13.328 7 13.328 15 8 15 C 2.6719999999999997 15 2.6719999999999997 7 8 7 Z"></path><text x="21" style="color:#333333;font-size:12px;font-weight:bold;cursor:pointer;fill:#333333;" text-anchor="start"  y="15"><tspan>Bedsheet tanglings</tspan></text></g><g class="highcharts-legend-item"  transform="translate(163.1999969482422,3)"><path fill="none" d="M 0 11 L 16 11" stroke="#ba0f27" stroke-width="2"></path><path fill="#ba0f27" d="M 8 7 L 12 11 8 15 4 11 Z"></path><text x="21" y="15" style="color:#333333;font-size:12px;font-weight:bold;cursor:pointer;fill:#333333;" text-anchor="start" ><tspan>Cheese consumed</tspan></text></g></g></g></g><g class="highcharts-axis-labels highcharts-xaxis-labels" ><text x="131.1" style="color:#000000;cursor:default;font-size:11px;fill:#000000;width:74px;text-overflow:clip;" text-anchor="middle" transform="translate(0,0)" y="350" opacity="1">2000</text><text x="215.29999999999998" style="color:#000000;cursor:default;font-size:11px;fill:#000000;width:74px;text-overflow:clip;" text-anchor="middle" transform="translate(0,0)" y="350" opacity="1">2001</text><text x="299.5" style="color:#000000;cursor:default;font-size:11px;fill:#000000;width:74px;text-overflow:clip;" text-anchor="middle" transform="translate(0,0)" y="350" opacity="1">2002</text><text x="383.7" style="color:#000000;cursor:default;font-size:11px;fill:#000000;width:74px;text-overflow:clip;" text-anchor="middle" transform="translate(0,0)" y="350" opacity="1">2003</text><text x="467.90000000000003" style="color:#000000;cursor:default;font-size:11px;fill:#000000;width:74px;text-overflow:clip;" text-anchor="middle" transform="translate(0,0)" y="350" opacity="1">2004</text><text x="552.1" style="color:#000000;cursor:default;font-size:11px;fill:#000000;width:74px;text-overflow:clip;" text-anchor="middle" transform="translate(0,0)" y="350" opacity="1">2005</text><text x="636.3000000000001" style="color:#000000;cursor:default;font-size:11px;fill:#000000;width:74px;text-overflow:clip;" text-anchor="middle" transform="translate(0,0)" y="350" opacity="1">2006</text><text x="720.5" style="color:#000000;cursor:default;font-size:11px;fill:#000000;width:74px;text-overflow:clip;" text-anchor="middle" transform="translate(0,0)" y="350" opacity="1">2007</text><text x="804.7" style="color:#000000;cursor:default;font-size:11px;fill:#000000;width:74px;text-overflow:clip;" text-anchor="middle" transform="translate(0,0)" y="350" opacity="1">2008</text><text x="888.9" style="color:#000000;cursor:default;font-size:11px;fill:#000000;width:74px;text-overflow:clip;" text-anchor="middle" transform="translate(0,0)" y="350" opacity="1">2009</text></g><g class="highcharts-axis-labels highcharts-xaxis-labels" ><text x="131.1" style="color:#ba0f27;cursor:default;font-size:11px;fill:#ba0f27;width:74px;text-overflow:clip;" text-anchor="middle" transform="translate(0,0)" y="120" opacity="1">2000</text><text x="215.29999999999998" style="color:#ba0f27;cursor:default;font-size:11px;fill:#ba0f27;width:74px;text-overflow:clip;" text-anchor="middle" transform="translate(0,0)" y="120" opacity="1">2001</text><text x="299.5" style="color:#ba0f27;cursor:default;font-size:11px;fill:#ba0f27;width:74px;text-overflow:clip;" text-anchor="middle" transform="translate(0,0)" y="120" opacity="1">2002</text><text x="383.7" style="color:#ba0f27;cursor:default;font-size:11px;fill:#ba0f27;width:74px;text-overflow:clip;" text-anchor="middle" transform="translate(0,0)" y="120" opacity="1">2003</text><text x="467.90000000000003" style="color:#ba0f27;cursor:default;font-size:11px;fill:#ba0f27;width:74px;text-overflow:clip;" text-anchor="middle" transform="translate(0,0)" y="120" opacity="1">2004</text><text x="552.1" style="color:#ba0f27;cursor:default;font-size:11px;fill:#ba0f27;width:74px;text-overflow:clip;" text-anchor="middle" transform="translate(0,0)" y="120" opacity="1">2005</text><text x="636.3000000000001" style="color:#ba0f27;cursor:default;font-size:11px;fill:#ba0f27;width:74px;text-overflow:clip;" text-anchor="middle" transform="translate(0,0)" y="120" opacity="1">2006</text><text x="720.5" style="color:#ba0f27;cursor:default;font-size:11px;fill:#ba0f27;width:74px;text-overflow:clip;" text-anchor="middle" transform="translate(0,0)" y="120" opacity="1">2007</text><text x="804.7" style="color:#ba0f27;cursor:default;font-size:11px;fill:#ba0f27;width:74px;text-overflow:clip;" text-anchor="middle" transform="translate(0,0)" y="120" opacity="1">2008</text><text x="888.9" style="color:#ba0f27;cursor:default;font-size:11px;fill:#ba0f27;width:74px;text-overflow:clip;" text-anchor="middle" transform="translate(0,0)" y="120" opacity="1">2009</text></g><g class="highcharts-axis-labels highcharts-yaxis-labels" ><text x="946" style="color:#000000;cursor:default;font-size:11px;fill:#000000;width:333px;text-overflow:clip;" text-anchor="start" transform="translate(0,0)" y="334" opacity="1"><tspan>200 deaths</tspan></text><text x="946" style="color:#000000;cursor:default;font-size:11px;fill:#000000;width:333px;text-overflow:clip;" text-anchor="start" transform="translate(0,0)" y="278" opacity="1"><tspan>400 deaths</tspan></text><text x="946" style="color:#000000;cursor:default;font-size:11px;fill:#000000;width:333px;text-overflow:clip;" text-anchor="start" transform="translate(0,0)" y="222" opacity="1"><tspan>600 deaths</tspan></text><text x="946" style="color:#000000;cursor:default;font-size:11px;fill:#000000;width:333px;text-overflow:clip;" text-anchor="start" transform="translate(0,0)" y="166" opacity="1"><tspan>800 deaths</tspan></text></g><g class="highcharts-axis-labels highcharts-yaxis-labels" ><text x="74" style="color:#ba0f27;cursor:default;font-size:11px;fill:#ba0f27;width:333px;text-overflow:clip;" text-anchor="end" transform="translate(0,0)" y="334" opacity="1">28.5lbs</text><text x="74" style="color:#ba0f27;cursor:default;font-size:11px;fill:#ba0f27;width:333px;text-overflow:clip;" text-anchor="end" transform="translate(0,0)" y="281" opacity="1">30lbs</text><text x="74" style="color:#ba0f27;cursor:default;font-size:11px;fill:#ba0f27;width:333px;text-overflow:clip;" text-anchor="end" transform="translate(0,0)" y="227" opacity="1">31.5lbs</text><text x="74" style="color:#ba0f27;cursor:default;font-size:11px;fill:#ba0f27;width:333px;text-overflow:clip;" text-anchor="end" transform="translate(0,0)" y="174" opacity="1">33lbs</text></g><g class="highcharts-tooltip"  style="cursor:default;padding:0;white-space:nowrap;" transform="translate(0,-9999)"><path fill="none" d="M 3 0 L 13 0 C 16 0 16 0 16 3 L 16 13 C 16 16 16 16 13 16 L 3 16 C 0 16 0 16 0 13 L 0 3 C 0 0 0 0 3 0"  stroke="black" stroke-opacity="0.049999999999999996" stroke-width="5" transform="translate(1, 1)"></path><path fill="none" d="M 3 0 L 13 0 C 16 0 16 0 16 3 L 16 13 C 16 16 16 16 13 16 L 3 16 C 0 16 0 16 0 13 L 0 3 C 0 0 0 0 3 0"  stroke="black" stroke-opacity="0.09999999999999999" stroke-width="3" transform="translate(1, 1)"></path><path fill="none" d="M 3 0 L 13 0 C 16 0 16 0 16 3 L 16 13 C 16 16 16 16 13 16 L 3 16 C 0 16 0 16 0 13 L 0 3 C 0 0 0 0 3 0"  stroke="black" stroke-opacity="0.15" stroke-width="1" transform="translate(1, 1)"></path><path fill="rgb(249, 249, 249)" fill-opacity=" .85" d="M 3 0 L 13 0 C 16 0 16 0 16 3 L 16 13 C 16 16 16 16 13 16 L 3 16 C 0 16 0 16 0 13 L 0 3 C 0 0 0 0 3 0"></path><text x="8"  style="font-size:12px;color:#333333;fill:#333333;" transform="translate(0,20)"></text></g><text x="1030" text-anchor="end"  style="cursor:pointer;color:#909090;font-size:9px;fill:#909090;" y="405">tylervigen.com</text></svg>